G75*
%MOIN*%
%OFA0B0*%
%FSLAX24Y24*%
%IPPOS*%
%LPD*%
%AMOC8*
5,1,8,0,0,1.08239X$1,22.5*
%
%ADD10C,0.0039*%
%ADD11C,0.0594*%
%ADD12OC8,0.0709*%
%ADD13C,0.0515*%
%ADD14C,0.2441*%
%ADD15OC8,0.0600*%
%ADD16C,0.1378*%
%ADD17OC8,0.1660*%
%ADD18OC8,0.1575*%
%ADD19C,0.1260*%
%ADD20C,0.0472*%
%ADD21C,0.0394*%
%ADD22C,0.0197*%
%ADD23C,0.0356*%
%ADD24C,0.0157*%
D10*
X002290Y002124D02*
X033393Y002124D01*
X033459Y002126D01*
X033525Y002131D01*
X033591Y002141D01*
X033656Y002154D01*
X033720Y002170D01*
X033783Y002190D01*
X033845Y002214D01*
X033905Y002241D01*
X033964Y002271D01*
X034021Y002305D01*
X034076Y002342D01*
X034129Y002382D01*
X034180Y002424D01*
X034228Y002470D01*
X034274Y002518D01*
X034316Y002569D01*
X034356Y002622D01*
X034393Y002677D01*
X034427Y002734D01*
X034457Y002793D01*
X034484Y002853D01*
X034508Y002915D01*
X034528Y002978D01*
X034544Y003042D01*
X034557Y003107D01*
X034567Y003173D01*
X034572Y003239D01*
X034574Y003305D01*
X034574Y022990D01*
X034572Y023056D01*
X034567Y023122D01*
X034557Y023188D01*
X034544Y023253D01*
X034528Y023317D01*
X034508Y023380D01*
X034484Y023442D01*
X034457Y023502D01*
X034427Y023561D01*
X034393Y023618D01*
X034356Y023673D01*
X034316Y023726D01*
X034274Y023777D01*
X034228Y023825D01*
X034180Y023871D01*
X034129Y023913D01*
X034076Y023953D01*
X034021Y023990D01*
X033964Y024024D01*
X033905Y024054D01*
X033845Y024081D01*
X033783Y024105D01*
X033720Y024125D01*
X033656Y024141D01*
X033591Y024154D01*
X033525Y024164D01*
X033459Y024169D01*
X033393Y024171D01*
X002290Y024171D01*
X002224Y024169D01*
X002158Y024164D01*
X002092Y024154D01*
X002027Y024141D01*
X001963Y024125D01*
X001900Y024105D01*
X001838Y024081D01*
X001778Y024054D01*
X001719Y024024D01*
X001662Y023990D01*
X001607Y023953D01*
X001554Y023913D01*
X001503Y023871D01*
X001455Y023825D01*
X001409Y023777D01*
X001367Y023726D01*
X001327Y023673D01*
X001290Y023618D01*
X001256Y023561D01*
X001226Y023502D01*
X001199Y023442D01*
X001175Y023380D01*
X001155Y023317D01*
X001139Y023253D01*
X001126Y023188D01*
X001116Y023122D01*
X001111Y023056D01*
X001109Y022990D01*
X001109Y003305D01*
X001111Y003239D01*
X001116Y003173D01*
X001126Y003107D01*
X001139Y003042D01*
X001155Y002978D01*
X001175Y002915D01*
X001199Y002853D01*
X001226Y002793D01*
X001256Y002734D01*
X001290Y002677D01*
X001327Y002622D01*
X001367Y002569D01*
X001409Y002518D01*
X001455Y002470D01*
X001503Y002424D01*
X001554Y002382D01*
X001607Y002342D01*
X001662Y002305D01*
X001719Y002271D01*
X001778Y002241D01*
X001838Y002214D01*
X001900Y002190D01*
X001963Y002170D01*
X002027Y002154D01*
X002092Y002141D01*
X002158Y002131D01*
X002224Y002126D01*
X002290Y002124D01*
D11*
X009861Y007876D03*
X010861Y007876D03*
X010861Y008876D03*
X009861Y008876D03*
X009861Y009876D03*
X010861Y009876D03*
X010861Y010876D03*
X009861Y010876D03*
X009861Y011876D03*
X010861Y011876D03*
X010861Y012876D03*
X009861Y012876D03*
X009861Y013876D03*
X010861Y013876D03*
X010861Y014876D03*
X009861Y014876D03*
X009861Y015876D03*
X010861Y015876D03*
X010861Y016876D03*
X009861Y016876D03*
X009861Y017876D03*
X010861Y017876D03*
X010861Y018876D03*
X009861Y018876D03*
X009861Y019876D03*
X010861Y019876D03*
X010861Y020876D03*
X009861Y020876D03*
X012475Y020222D03*
X012475Y022222D03*
X015475Y022222D03*
X016204Y021671D03*
X016200Y020754D03*
X015475Y020222D03*
X016200Y018754D03*
X019200Y018754D03*
X020023Y020246D03*
X019200Y020754D03*
X019204Y021671D03*
X020023Y022246D03*
X019204Y023671D03*
X016204Y023671D03*
X023023Y022246D03*
X023023Y020246D03*
X032786Y015557D03*
X032786Y014557D03*
X033786Y014557D03*
X033786Y015557D03*
X033786Y013557D03*
X032786Y013557D03*
X032786Y012557D03*
X032786Y011557D03*
X033786Y011557D03*
X033786Y012557D03*
X033786Y010557D03*
X032786Y010557D03*
X032786Y009557D03*
X033786Y009557D03*
X025279Y006002D03*
X024279Y006002D03*
X024279Y005002D03*
X025279Y005002D03*
X023279Y005002D03*
X023279Y006002D03*
X022279Y006002D03*
X021279Y006002D03*
X021279Y005002D03*
X022279Y005002D03*
X020279Y005002D03*
X020279Y006002D03*
X019279Y006002D03*
X018279Y006002D03*
X018279Y005002D03*
X019279Y005002D03*
X017279Y005002D03*
X017279Y006002D03*
X016279Y006002D03*
X015279Y006002D03*
X015279Y005002D03*
X016279Y005002D03*
X014279Y005002D03*
X013279Y005002D03*
X013279Y006002D03*
X014279Y006002D03*
X012279Y006002D03*
X012279Y005002D03*
D12*
X032822Y018943D03*
X033822Y020943D03*
X031822Y020943D03*
D13*
X030697Y021218D02*
X030182Y021218D01*
X030182Y020218D02*
X030697Y020218D01*
X028729Y020218D02*
X028214Y020218D01*
X028214Y021218D02*
X028729Y021218D01*
X028729Y022218D02*
X028214Y022218D01*
X026760Y022218D02*
X026245Y022218D01*
X026245Y021218D02*
X026760Y021218D01*
X026760Y020218D02*
X026245Y020218D01*
X024792Y020218D02*
X024277Y020218D01*
X024277Y021218D02*
X024792Y021218D01*
X024792Y022218D02*
X024277Y022218D01*
X030182Y022218D02*
X030697Y022218D01*
X022036Y010852D02*
X021521Y010852D01*
X021521Y007852D02*
X022036Y007852D01*
D14*
X033196Y003502D03*
X010361Y003502D03*
X010361Y022793D03*
X033196Y022793D03*
D15*
X031279Y004002D03*
X030279Y004002D03*
X029279Y004002D03*
X028279Y004002D03*
X027279Y004002D03*
X026279Y004002D03*
X025279Y004002D03*
X024279Y004002D03*
X023279Y004002D03*
X022279Y004002D03*
X021279Y004002D03*
X020279Y004002D03*
X019279Y004002D03*
X018279Y004002D03*
X017279Y004002D03*
X016279Y004002D03*
X015279Y004002D03*
X014279Y004002D03*
X013279Y004002D03*
X012279Y004002D03*
X012279Y003002D03*
X013279Y003002D03*
X014279Y003002D03*
X015279Y003002D03*
X016279Y003002D03*
X017279Y003002D03*
X018279Y003002D03*
X019279Y003002D03*
X020279Y003002D03*
X021279Y003002D03*
X022279Y003002D03*
X023279Y003002D03*
X024279Y003002D03*
X025279Y003002D03*
X026279Y003002D03*
X027279Y003002D03*
X028279Y003002D03*
X029279Y003002D03*
X030279Y003002D03*
X031279Y003002D03*
D16*
X006424Y003313D03*
X006424Y004872D03*
X006424Y006856D03*
X006424Y008415D03*
X006424Y010400D03*
X006424Y011959D03*
X006424Y013943D03*
X006424Y015502D03*
D17*
X006227Y021218D03*
D18*
X004869Y019250D03*
X003471Y021218D03*
D19*
X001897Y017281D03*
X033786Y017281D03*
X033786Y007833D03*
D20*
X023286Y010860D03*
D21*
X023279Y010852D01*
X023279Y006002D01*
D22*
X022779Y005502D02*
X024779Y005502D01*
X025279Y005002D01*
X025279Y006002D02*
X025279Y006687D01*
X028074Y009482D01*
X028074Y012073D01*
X026897Y012081D02*
X026897Y009124D01*
X026015Y008242D01*
X025716Y008959D02*
X025007Y008250D01*
X024838Y008081D01*
X024279Y007522D01*
X024279Y006002D01*
X022779Y005502D02*
X022279Y005002D01*
X021779Y005502D01*
X019779Y005502D01*
X019279Y006002D01*
X019279Y006502D01*
X019279Y006002D02*
X018779Y005502D01*
X017779Y005502D01*
X017279Y005002D01*
X016779Y005502D01*
X015779Y005502D01*
X015279Y005002D01*
X014779Y005502D01*
X012779Y005502D01*
X012279Y006002D01*
X012279Y006502D01*
X013279Y006002D02*
X013279Y021419D01*
X012475Y022222D01*
X016200Y020754D02*
X016200Y019809D01*
X014279Y017888D01*
X014279Y006002D01*
X015279Y006002D02*
X015279Y016459D01*
X017849Y019029D01*
X017849Y022317D01*
X019204Y023671D01*
X023613Y021888D02*
X023613Y019128D01*
X024527Y018215D01*
X024527Y014415D01*
X026901Y014459D02*
X026901Y016860D01*
X024534Y019226D01*
X024534Y020218D01*
X023613Y021888D02*
X023944Y022218D01*
X024534Y022218D01*
X020023Y020246D02*
X019566Y019789D01*
X019050Y019789D01*
X018597Y019337D01*
X018597Y018726D01*
X016279Y016407D01*
X016279Y006002D01*
X018279Y006002D02*
X018279Y012262D01*
X018625Y012608D01*
X018960Y011577D02*
X020586Y013203D01*
X031365Y013203D01*
X032216Y014053D01*
X033282Y014053D01*
X033786Y014557D01*
X033286Y015057D02*
X032786Y014557D01*
X033286Y015057D02*
X033286Y016073D01*
X032330Y017029D01*
X032330Y018451D01*
X032822Y018943D01*
X031822Y020943D02*
X031822Y016522D01*
X032786Y015557D01*
X033786Y013557D02*
X033286Y013057D01*
X032231Y013057D01*
X031968Y012793D01*
X020798Y012793D01*
X019377Y011372D01*
X019377Y008230D01*
X018960Y008648D02*
X018960Y011577D01*
X020389Y011490D02*
X020991Y012092D01*
X021471Y011911D02*
X022176Y011911D01*
X022704Y011537D02*
X023349Y012183D01*
X023349Y012187D01*
X022704Y011537D02*
X022704Y006427D01*
X022279Y006002D01*
X021279Y006002D02*
X020849Y006431D01*
X020849Y011289D01*
X021471Y011911D01*
X020389Y011490D02*
X020389Y006805D01*
X020279Y006695D01*
X020279Y006002D01*
X019779Y007010D02*
X018885Y007903D01*
X018885Y008573D01*
X018960Y008648D01*
X024034Y008195D02*
X024534Y008695D01*
X024534Y012073D01*
X025716Y012081D02*
X025716Y008959D01*
D23*
X026015Y008242D03*
X027684Y008226D03*
X027684Y005470D03*
X024034Y008195D03*
X019779Y007010D03*
X019377Y008230D03*
X017842Y011376D03*
X018625Y012608D03*
X019023Y013344D03*
X020991Y012092D03*
X022176Y011911D03*
X023349Y012187D03*
X024534Y012073D03*
X025716Y012081D03*
X026897Y012081D03*
X028074Y012073D03*
X029062Y011770D03*
X030046Y010785D03*
X032605Y008226D03*
X033983Y006652D03*
X029062Y013935D03*
X026901Y014459D03*
X024527Y014415D03*
X028668Y016297D03*
X028275Y018266D03*
X031227Y017085D03*
X031227Y016494D03*
X031621Y014722D03*
X033983Y018659D03*
X029849Y023581D03*
X024928Y023581D03*
X020204Y023581D03*
X015282Y023581D03*
X012133Y023581D03*
X006227Y019053D03*
X008393Y016888D03*
X012133Y015510D03*
X012133Y018659D03*
X019023Y016691D03*
X019023Y016100D03*
X023353Y018266D03*
X012133Y012163D03*
X012133Y009211D03*
X009574Y006258D03*
X005243Y009407D03*
X001700Y008226D03*
X001700Y004486D03*
X002094Y003108D03*
X005243Y002715D03*
X001700Y011966D03*
X001700Y015903D03*
X001700Y020431D03*
X001897Y023384D03*
D24*
X001581Y023634D02*
X009241Y023634D01*
X009236Y023628D02*
X009160Y023513D01*
X009095Y023392D01*
X009042Y023265D01*
X009002Y023134D01*
X008975Y022999D01*
X008963Y022872D01*
X010282Y022872D01*
X010282Y022715D01*
X008963Y022715D01*
X008975Y022588D01*
X009002Y022453D01*
X009042Y022321D01*
X009095Y022194D01*
X009160Y022073D01*
X009236Y021959D01*
X009323Y021852D01*
X009420Y021755D01*
X009527Y021668D01*
X009641Y021592D01*
X009762Y021527D01*
X009889Y021474D01*
X010021Y021434D01*
X010156Y021408D01*
X010282Y021395D01*
X010282Y022714D01*
X010440Y022714D01*
X010440Y021395D01*
X010567Y021408D01*
X010702Y021434D01*
X010833Y021474D01*
X010960Y021527D01*
X011081Y021592D01*
X011196Y021668D01*
X011302Y021755D01*
X011399Y021852D01*
X011486Y021959D01*
X011563Y022073D01*
X011628Y022194D01*
X011680Y022321D01*
X011720Y022453D01*
X011747Y022588D01*
X011759Y022715D01*
X010440Y022715D01*
X010440Y022872D01*
X011759Y022872D01*
X011747Y022999D01*
X011720Y023134D01*
X011680Y023265D01*
X011628Y023392D01*
X011563Y023513D01*
X011486Y023628D01*
X011399Y023734D01*
X011302Y023831D01*
X011196Y023918D01*
X011142Y023955D01*
X015789Y023955D01*
X015785Y023951D01*
X015710Y023769D01*
X015710Y023573D01*
X015785Y023392D01*
X015924Y023253D01*
X016106Y023177D01*
X016302Y023177D01*
X016483Y023253D01*
X016622Y023392D01*
X016697Y023573D01*
X016697Y023769D01*
X016622Y023951D01*
X016618Y023955D01*
X018789Y023955D01*
X018785Y023951D01*
X018710Y023769D01*
X018710Y023595D01*
X017682Y022567D01*
X017599Y022484D01*
X017554Y022376D01*
X017554Y019152D01*
X015028Y016626D01*
X014983Y016517D01*
X014983Y006405D01*
X014860Y006282D01*
X014785Y006100D01*
X014785Y005904D01*
X014860Y005722D01*
X014999Y005583D01*
X015180Y005508D01*
X015377Y005508D01*
X015558Y005583D01*
X015697Y005722D01*
X015772Y005904D01*
X015772Y006100D01*
X015697Y006282D01*
X015574Y006405D01*
X015574Y016336D01*
X018017Y018779D01*
X018100Y018862D01*
X018145Y018971D01*
X018145Y022195D01*
X019128Y023177D01*
X019302Y023177D01*
X019483Y023253D01*
X019622Y023392D01*
X019697Y023573D01*
X019697Y023769D01*
X019622Y023951D01*
X019618Y023955D01*
X032416Y023955D01*
X032361Y023918D01*
X032255Y023831D01*
X032158Y023734D01*
X032071Y023628D01*
X031994Y023513D01*
X031929Y023392D01*
X031877Y023265D01*
X031837Y023134D01*
X031810Y022999D01*
X031798Y022872D01*
X033117Y022872D01*
X033117Y022715D01*
X031798Y022715D01*
X031810Y022588D01*
X031837Y022453D01*
X031877Y022321D01*
X031929Y022194D01*
X031994Y022073D01*
X032071Y021959D01*
X032158Y021852D01*
X032255Y021755D01*
X032361Y021668D01*
X032476Y021592D01*
X032597Y021527D01*
X032724Y021474D01*
X032855Y021434D01*
X032990Y021408D01*
X033117Y021395D01*
X033117Y022714D01*
X033275Y022714D01*
X033275Y021395D01*
X033401Y021408D01*
X033536Y021434D01*
X033570Y021444D01*
X033289Y021164D01*
X033289Y020982D01*
X033782Y020982D01*
X033782Y020903D01*
X033861Y020903D01*
X033861Y020410D01*
X034043Y020410D01*
X034355Y020722D01*
X034355Y020903D01*
X033861Y020903D01*
X033861Y020982D01*
X033782Y020982D01*
X033782Y021476D01*
X033672Y021476D01*
X033795Y021527D01*
X033916Y021592D01*
X034030Y021668D01*
X034137Y021755D01*
X034234Y021852D01*
X034321Y021959D01*
X034357Y022013D01*
X034357Y017880D01*
X034255Y017982D01*
X033951Y018108D01*
X033622Y018108D01*
X033318Y017982D01*
X033086Y017750D01*
X032960Y017446D01*
X032960Y017117D01*
X033086Y016813D01*
X033318Y016581D01*
X033622Y016455D01*
X033951Y016455D01*
X034255Y016581D01*
X034357Y016683D01*
X034357Y008431D01*
X034255Y008534D01*
X033951Y008659D01*
X033622Y008659D01*
X033318Y008534D01*
X033086Y008301D01*
X032960Y007997D01*
X032960Y007668D01*
X033086Y007364D01*
X033318Y007132D01*
X033622Y007006D01*
X033951Y007006D01*
X034255Y007132D01*
X034357Y007234D01*
X034357Y004282D01*
X034321Y004336D01*
X034234Y004443D01*
X034137Y004540D01*
X034030Y004627D01*
X033916Y004703D01*
X033795Y004768D01*
X033668Y004821D01*
X033536Y004861D01*
X033401Y004888D01*
X033275Y004900D01*
X033275Y003581D01*
X033117Y003581D01*
X033117Y004900D01*
X032990Y004888D01*
X032855Y004861D01*
X032724Y004821D01*
X032597Y004768D01*
X032476Y004703D01*
X032361Y004627D01*
X032255Y004540D01*
X032158Y004443D01*
X032071Y004336D01*
X031994Y004222D01*
X031929Y004101D01*
X031877Y003974D01*
X031837Y003842D01*
X031810Y003707D01*
X031798Y003581D01*
X033117Y003581D01*
X033117Y003423D01*
X031798Y003423D01*
X031810Y003296D01*
X031837Y003162D01*
X031877Y003030D01*
X031929Y002903D01*
X031994Y002782D01*
X032071Y002667D01*
X032158Y002561D01*
X032255Y002464D01*
X032361Y002377D01*
X032416Y002340D01*
X011142Y002340D01*
X011196Y002377D01*
X011302Y002464D01*
X011399Y002561D01*
X011486Y002667D01*
X011563Y002782D01*
X011628Y002903D01*
X011680Y003030D01*
X011720Y003162D01*
X011747Y003296D01*
X011759Y003423D01*
X010440Y003423D01*
X010440Y003581D01*
X010282Y003581D01*
X010282Y003423D01*
X008963Y003423D01*
X008975Y003296D01*
X009002Y003162D01*
X009042Y003030D01*
X009095Y002903D01*
X009160Y002782D01*
X009236Y002667D01*
X009323Y002561D01*
X009420Y002464D01*
X009527Y002377D01*
X009581Y002340D01*
X002290Y002340D01*
X002139Y002352D01*
X001852Y002446D01*
X001608Y002623D01*
X001431Y002867D01*
X001338Y003154D01*
X001326Y003305D01*
X001326Y016683D01*
X001428Y016581D01*
X001732Y016455D01*
X002061Y016455D01*
X002365Y016581D01*
X002598Y016813D01*
X002723Y017117D01*
X002723Y017446D01*
X002598Y017750D01*
X002365Y017982D01*
X002061Y018108D01*
X001732Y018108D01*
X001428Y017982D01*
X001326Y017880D01*
X001326Y022990D01*
X001338Y023141D01*
X001431Y023428D01*
X001608Y023672D01*
X001852Y023850D01*
X002139Y023943D01*
X002290Y023955D01*
X009581Y023955D01*
X009527Y023918D01*
X009420Y023831D01*
X009323Y023734D01*
X009236Y023628D01*
X009141Y023478D02*
X001467Y023478D01*
X001397Y023322D02*
X009066Y023322D01*
X009012Y023166D02*
X001346Y023166D01*
X001327Y023010D02*
X008978Y023010D01*
X008965Y022698D02*
X001326Y022698D01*
X001326Y022542D02*
X008984Y022542D01*
X009022Y022386D02*
X001326Y022386D01*
X001326Y022230D02*
X005787Y022230D01*
X005802Y022245D02*
X005201Y021644D01*
X005201Y020793D01*
X005802Y020192D01*
X006653Y020192D01*
X007254Y020793D01*
X007254Y021644D01*
X006653Y022245D01*
X005802Y022245D01*
X005631Y022074D02*
X004007Y022074D01*
X003879Y022203D02*
X003064Y022203D01*
X002487Y021626D01*
X002487Y020811D01*
X003064Y020234D01*
X003879Y020234D01*
X004456Y020811D01*
X004456Y021626D01*
X003879Y022203D01*
X004163Y021918D02*
X005475Y021918D01*
X005319Y021763D02*
X004319Y021763D01*
X004456Y021607D02*
X005201Y021607D01*
X005201Y021451D02*
X004456Y021451D01*
X004456Y021295D02*
X005201Y021295D01*
X005201Y021139D02*
X004456Y021139D01*
X004456Y020983D02*
X005201Y020983D01*
X005201Y020827D02*
X004456Y020827D01*
X004316Y020671D02*
X005323Y020671D01*
X005479Y020515D02*
X004160Y020515D01*
X004004Y020359D02*
X005635Y020359D01*
X005791Y020203D02*
X005308Y020203D01*
X005277Y020234D02*
X004461Y020234D01*
X003885Y019658D01*
X003885Y018842D01*
X004461Y018266D01*
X005277Y018266D01*
X005853Y018842D01*
X005853Y019658D01*
X005277Y020234D01*
X005464Y020047D02*
X009398Y020047D01*
X009368Y019974D02*
X009443Y020156D01*
X009582Y020294D01*
X009763Y020370D01*
X009959Y020370D01*
X010141Y020294D01*
X010280Y020156D01*
X010355Y019974D01*
X010355Y019778D01*
X010280Y019596D01*
X010141Y019457D01*
X009959Y019382D01*
X009763Y019382D01*
X009582Y019457D01*
X009443Y019596D01*
X009368Y019778D01*
X009368Y019974D01*
X009368Y019891D02*
X005620Y019891D01*
X005776Y019735D02*
X009385Y019735D01*
X009460Y019579D02*
X005853Y019579D01*
X005853Y019423D02*
X009665Y019423D01*
X009763Y019370D02*
X009582Y019294D01*
X009443Y019156D01*
X009368Y018974D01*
X009368Y018778D01*
X009443Y018596D01*
X009582Y018457D01*
X009763Y018382D01*
X009959Y018382D01*
X010141Y018457D01*
X010280Y018596D01*
X010355Y018778D01*
X010355Y018974D01*
X010280Y019156D01*
X010141Y019294D01*
X009959Y019370D01*
X009763Y019370D01*
X009554Y019267D02*
X005853Y019267D01*
X005853Y019111D02*
X009424Y019111D01*
X009368Y018955D02*
X005853Y018955D01*
X005810Y018799D02*
X009368Y018799D01*
X009423Y018643D02*
X005654Y018643D01*
X005498Y018487D02*
X009552Y018487D01*
X009582Y018294D02*
X009443Y018156D01*
X009368Y017974D01*
X009368Y017778D01*
X009443Y017596D01*
X009582Y017457D01*
X009763Y017382D01*
X009959Y017382D01*
X010141Y017457D01*
X010280Y017596D01*
X010355Y017778D01*
X010355Y017974D01*
X010280Y018156D01*
X010141Y018294D01*
X009959Y018370D01*
X009763Y018370D01*
X009582Y018294D01*
X009670Y018331D02*
X005342Y018331D01*
X004396Y018331D02*
X001326Y018331D01*
X001326Y018487D02*
X004240Y018487D01*
X004084Y018643D02*
X001326Y018643D01*
X001326Y018799D02*
X003928Y018799D01*
X003885Y018955D02*
X001326Y018955D01*
X001326Y019111D02*
X003885Y019111D01*
X003885Y019267D02*
X001326Y019267D01*
X001326Y019423D02*
X003885Y019423D01*
X003885Y019579D02*
X001326Y019579D01*
X001326Y019735D02*
X003962Y019735D01*
X004118Y019891D02*
X001326Y019891D01*
X001326Y020047D02*
X004274Y020047D01*
X004430Y020203D02*
X001326Y020203D01*
X001326Y020359D02*
X002939Y020359D01*
X002783Y020515D02*
X001326Y020515D01*
X001326Y020671D02*
X002627Y020671D01*
X002487Y020827D02*
X001326Y020827D01*
X001326Y020983D02*
X002487Y020983D01*
X002487Y021139D02*
X001326Y021139D01*
X001326Y021295D02*
X002487Y021295D01*
X002487Y021451D02*
X001326Y021451D01*
X001326Y021607D02*
X002487Y021607D01*
X002624Y021763D02*
X001326Y021763D01*
X001326Y021918D02*
X002780Y021918D01*
X002936Y022074D02*
X001326Y022074D01*
X001326Y022854D02*
X010282Y022854D01*
X010282Y022698D02*
X010440Y022698D01*
X010440Y022542D02*
X010282Y022542D01*
X010282Y022386D02*
X010440Y022386D01*
X010440Y022230D02*
X010282Y022230D01*
X010282Y022074D02*
X010440Y022074D01*
X010440Y021918D02*
X010282Y021918D01*
X010282Y021763D02*
X010440Y021763D01*
X010440Y021607D02*
X010282Y021607D01*
X010282Y021451D02*
X010440Y021451D01*
X010582Y021294D02*
X010443Y021156D01*
X010368Y020974D01*
X010368Y020778D01*
X010443Y020596D01*
X010582Y020457D01*
X010763Y020382D01*
X010959Y020382D01*
X011141Y020457D01*
X011280Y020596D01*
X011355Y020778D01*
X011355Y020974D01*
X011280Y021156D01*
X011141Y021294D01*
X010959Y021370D01*
X010763Y021370D01*
X010582Y021294D01*
X010582Y021295D02*
X010141Y021295D01*
X010141Y021294D02*
X009959Y021370D01*
X009763Y021370D01*
X009582Y021294D01*
X009582Y021295D02*
X007254Y021295D01*
X007254Y021451D02*
X009967Y021451D01*
X010141Y021294D02*
X010280Y021156D01*
X010355Y020974D01*
X010355Y020778D01*
X010280Y020596D01*
X010141Y020457D01*
X009959Y020382D01*
X009763Y020382D01*
X009582Y020457D01*
X009443Y020596D01*
X009368Y020778D01*
X009368Y020974D01*
X009443Y021156D01*
X009582Y021294D01*
X009436Y021139D02*
X007254Y021139D01*
X007254Y020983D02*
X009371Y020983D01*
X009368Y020827D02*
X007254Y020827D01*
X007132Y020671D02*
X009412Y020671D01*
X009524Y020515D02*
X006976Y020515D01*
X006820Y020359D02*
X009737Y020359D01*
X009986Y020359D02*
X010737Y020359D01*
X010763Y020370D02*
X010582Y020294D01*
X010443Y020156D01*
X010368Y019974D01*
X010368Y019778D01*
X010443Y019596D01*
X010582Y019457D01*
X010763Y019382D01*
X010959Y019382D01*
X011141Y019457D01*
X011280Y019596D01*
X011355Y019778D01*
X011355Y019974D01*
X011280Y020156D01*
X011141Y020294D01*
X010959Y020370D01*
X010763Y020370D01*
X010986Y020359D02*
X011997Y020359D01*
X011982Y020321D02*
X011982Y020124D01*
X012057Y019943D01*
X012196Y019804D01*
X012377Y019729D01*
X012574Y019729D01*
X012755Y019804D01*
X012894Y019943D01*
X012969Y020124D01*
X012969Y020321D01*
X012894Y020502D01*
X012755Y020641D01*
X012574Y020716D01*
X012377Y020716D01*
X012196Y020641D01*
X012057Y020502D01*
X011982Y020321D01*
X011982Y020203D02*
X011233Y020203D01*
X011325Y020047D02*
X012014Y020047D01*
X012109Y019891D02*
X011355Y019891D01*
X011337Y019735D02*
X012363Y019735D01*
X012588Y019735D02*
X012983Y019735D01*
X012983Y019891D02*
X012842Y019891D01*
X012937Y020047D02*
X012983Y020047D01*
X012969Y020203D02*
X012983Y020203D01*
X012983Y020359D02*
X012953Y020359D01*
X012983Y020515D02*
X012881Y020515D01*
X012983Y020671D02*
X012683Y020671D01*
X012983Y020827D02*
X011355Y020827D01*
X011351Y020983D02*
X012983Y020983D01*
X012983Y021139D02*
X011287Y021139D01*
X011141Y021295D02*
X012983Y021295D01*
X012983Y021297D02*
X012983Y006405D01*
X012860Y006282D01*
X012785Y006100D01*
X012785Y005904D01*
X012860Y005722D01*
X012999Y005583D01*
X013180Y005508D01*
X013377Y005508D01*
X013558Y005583D01*
X013697Y005722D01*
X013772Y005904D01*
X013772Y006100D01*
X013697Y006282D01*
X013574Y006405D01*
X013574Y021478D01*
X013529Y021586D01*
X012969Y022146D01*
X012969Y022321D01*
X012894Y022502D01*
X012755Y022641D01*
X012574Y022716D01*
X012377Y022716D01*
X012196Y022641D01*
X012057Y022502D01*
X011982Y022321D01*
X011982Y022124D01*
X012057Y021943D01*
X012196Y021804D01*
X012377Y021729D01*
X012552Y021729D01*
X012983Y021297D01*
X012830Y021451D02*
X010755Y021451D01*
X011104Y021607D02*
X012674Y021607D01*
X012296Y021763D02*
X011309Y021763D01*
X011453Y021918D02*
X012081Y021918D01*
X012002Y022074D02*
X011564Y022074D01*
X011643Y022230D02*
X011982Y022230D01*
X012009Y022386D02*
X011700Y022386D01*
X011738Y022542D02*
X012097Y022542D01*
X012334Y022698D02*
X011758Y022698D01*
X011745Y023010D02*
X018125Y023010D01*
X017969Y022854D02*
X010440Y022854D01*
X011343Y023790D02*
X015719Y023790D01*
X015710Y023634D02*
X011481Y023634D01*
X011582Y023478D02*
X015749Y023478D01*
X015854Y023322D02*
X011657Y023322D01*
X011710Y023166D02*
X018281Y023166D01*
X018437Y023322D02*
X016553Y023322D01*
X016658Y023478D02*
X018593Y023478D01*
X018710Y023634D02*
X016697Y023634D01*
X016689Y023790D02*
X018719Y023790D01*
X018783Y023946D02*
X016624Y023946D01*
X015783Y023946D02*
X011154Y023946D01*
X009568Y023946D02*
X002183Y023946D01*
X001771Y023790D02*
X009379Y023790D01*
X009080Y022230D02*
X006667Y022230D01*
X006823Y022074D02*
X009159Y022074D01*
X009269Y021918D02*
X006979Y021918D01*
X007135Y021763D02*
X009413Y021763D01*
X009619Y021607D02*
X007254Y021607D01*
X006664Y020203D02*
X009490Y020203D01*
X010198Y020515D02*
X010524Y020515D01*
X010412Y020671D02*
X010311Y020671D01*
X010355Y020827D02*
X010368Y020827D01*
X010351Y020983D02*
X010371Y020983D01*
X010436Y021139D02*
X010287Y021139D01*
X011311Y020671D02*
X012267Y020671D01*
X012069Y020515D02*
X011198Y020515D01*
X010490Y020203D02*
X010233Y020203D01*
X010325Y020047D02*
X010398Y020047D01*
X010368Y019891D02*
X010355Y019891D01*
X010337Y019735D02*
X010385Y019735D01*
X010460Y019579D02*
X010262Y019579D01*
X010057Y019423D02*
X010665Y019423D01*
X010763Y019370D02*
X010582Y019294D01*
X010443Y019156D01*
X010368Y018974D01*
X010368Y018778D01*
X010443Y018596D01*
X010582Y018457D01*
X010763Y018382D01*
X010959Y018382D01*
X011141Y018457D01*
X011280Y018596D01*
X011355Y018778D01*
X011355Y018974D01*
X011280Y019156D01*
X011141Y019294D01*
X010959Y019370D01*
X010763Y019370D01*
X010554Y019267D02*
X010169Y019267D01*
X010298Y019111D02*
X010424Y019111D01*
X010368Y018955D02*
X010355Y018955D01*
X010355Y018799D02*
X010368Y018799D01*
X010423Y018643D02*
X010299Y018643D01*
X010170Y018487D02*
X010552Y018487D01*
X010582Y018294D02*
X010443Y018156D01*
X010368Y017974D01*
X010368Y017778D01*
X010443Y017596D01*
X010582Y017457D01*
X010763Y017382D01*
X010959Y017382D01*
X011141Y017457D01*
X011280Y017596D01*
X011355Y017778D01*
X011355Y017974D01*
X011280Y018156D01*
X011141Y018294D01*
X010959Y018370D01*
X010763Y018370D01*
X010582Y018294D01*
X010670Y018331D02*
X010053Y018331D01*
X010260Y018175D02*
X010462Y018175D01*
X010386Y018019D02*
X010336Y018019D01*
X010355Y017863D02*
X010368Y017863D01*
X010397Y017707D02*
X010326Y017707D01*
X010235Y017551D02*
X010488Y017551D01*
X010582Y017294D02*
X010443Y017156D01*
X010368Y016974D01*
X010368Y016778D01*
X010443Y016596D01*
X010582Y016457D01*
X010763Y016382D01*
X010959Y016382D01*
X011141Y016457D01*
X011280Y016596D01*
X011355Y016778D01*
X011355Y016974D01*
X011280Y017156D01*
X011141Y017294D01*
X010959Y017370D01*
X010763Y017370D01*
X010582Y017294D01*
X010526Y017239D02*
X010196Y017239D01*
X010141Y017294D02*
X009959Y017370D01*
X009763Y017370D01*
X009582Y017294D01*
X009443Y017156D01*
X009368Y016974D01*
X009368Y016778D01*
X009443Y016596D01*
X009582Y016457D01*
X009763Y016382D01*
X009959Y016382D01*
X010141Y016457D01*
X010280Y016596D01*
X010355Y016778D01*
X010355Y016974D01*
X010280Y017156D01*
X010141Y017294D01*
X009990Y017395D02*
X010732Y017395D01*
X010990Y017395D02*
X012983Y017395D01*
X012983Y017239D02*
X011196Y017239D01*
X011310Y017083D02*
X012983Y017083D01*
X012983Y016927D02*
X011355Y016927D01*
X011352Y016771D02*
X012983Y016771D01*
X012983Y016615D02*
X011288Y016615D01*
X011143Y016459D02*
X012983Y016459D01*
X012983Y016303D02*
X011120Y016303D01*
X011141Y016294D02*
X010959Y016370D01*
X010763Y016370D01*
X010582Y016294D01*
X010443Y016156D01*
X010368Y015974D01*
X010368Y015778D01*
X010443Y015596D01*
X010582Y015457D01*
X010763Y015382D01*
X010959Y015382D01*
X011141Y015457D01*
X011280Y015596D01*
X011355Y015778D01*
X011355Y015974D01*
X011280Y016156D01*
X011141Y016294D01*
X011283Y016147D02*
X012983Y016147D01*
X012983Y015991D02*
X011348Y015991D01*
X011355Y015835D02*
X012983Y015835D01*
X012983Y015679D02*
X011314Y015679D01*
X011207Y015523D02*
X012983Y015523D01*
X012983Y015367D02*
X010965Y015367D01*
X010959Y015370D02*
X010763Y015370D01*
X010582Y015294D01*
X010443Y015156D01*
X010368Y014974D01*
X010368Y014778D01*
X010443Y014596D01*
X010582Y014457D01*
X010763Y014382D01*
X010959Y014382D01*
X011141Y014457D01*
X011280Y014596D01*
X011355Y014778D01*
X011355Y014974D01*
X011280Y015156D01*
X011141Y015294D01*
X010959Y015370D01*
X010757Y015367D02*
X009965Y015367D01*
X009959Y015370D02*
X009763Y015370D01*
X009582Y015294D01*
X009443Y015156D01*
X009368Y014974D01*
X009368Y014778D01*
X009443Y014596D01*
X009582Y014457D01*
X009763Y014382D01*
X009959Y014382D01*
X010141Y014457D01*
X010280Y014596D01*
X010355Y014778D01*
X010355Y014974D01*
X010280Y015156D01*
X010141Y015294D01*
X009959Y015370D01*
X009959Y015382D02*
X010141Y015457D01*
X010280Y015596D01*
X010355Y015778D01*
X010355Y015974D01*
X010280Y016156D01*
X010141Y016294D01*
X009959Y016370D01*
X009763Y016370D01*
X009582Y016294D01*
X009443Y016156D01*
X009368Y015974D01*
X009368Y015778D01*
X009443Y015596D01*
X009582Y015457D01*
X009763Y015382D01*
X009959Y015382D01*
X009757Y015367D02*
X007310Y015367D01*
X007310Y015326D02*
X007175Y015000D01*
X006926Y014751D01*
X006857Y014722D01*
X006926Y014694D01*
X007175Y014445D01*
X007310Y014119D01*
X007310Y013767D01*
X007175Y013441D01*
X006926Y013192D01*
X006600Y013057D01*
X006248Y013057D01*
X005922Y013192D01*
X005673Y013441D01*
X005538Y013767D01*
X005538Y014119D01*
X005673Y014445D01*
X005922Y014694D01*
X005991Y014722D01*
X005922Y014751D01*
X005673Y015000D01*
X005538Y015326D01*
X005538Y015678D01*
X005673Y016004D01*
X005922Y016253D01*
X006248Y016388D01*
X006600Y016388D01*
X006926Y016253D01*
X007175Y016004D01*
X007310Y015678D01*
X007310Y015326D01*
X007263Y015211D02*
X009498Y015211D01*
X009401Y015055D02*
X007198Y015055D01*
X007074Y014899D02*
X009368Y014899D01*
X009382Y014743D02*
X006908Y014743D01*
X007032Y014587D02*
X009452Y014587D01*
X009644Y014431D02*
X007181Y014431D01*
X007245Y014275D02*
X009563Y014275D01*
X009582Y014294D02*
X009443Y014156D01*
X009368Y013974D01*
X009368Y013778D01*
X009443Y013596D01*
X009582Y013457D01*
X009763Y013382D01*
X009959Y013382D01*
X010141Y013457D01*
X010280Y013596D01*
X010355Y013778D01*
X010355Y013974D01*
X010280Y014156D01*
X010141Y014294D01*
X009959Y014370D01*
X009763Y014370D01*
X009582Y014294D01*
X009428Y014119D02*
X007310Y014119D01*
X007310Y013963D02*
X009368Y013963D01*
X009368Y013807D02*
X007310Y013807D01*
X007262Y013652D02*
X009420Y013652D01*
X009543Y013496D02*
X007198Y013496D01*
X007074Y013340D02*
X009690Y013340D01*
X009763Y013370D02*
X009582Y013294D01*
X009443Y013156D01*
X009368Y012974D01*
X009368Y012778D01*
X009443Y012596D01*
X009582Y012457D01*
X009763Y012382D01*
X009959Y012382D01*
X010141Y012457D01*
X010280Y012596D01*
X010355Y012778D01*
X010355Y012974D01*
X010280Y013156D01*
X010141Y013294D01*
X009959Y013370D01*
X009763Y013370D01*
X010032Y013340D02*
X010690Y013340D01*
X010763Y013370D02*
X010582Y013294D01*
X010443Y013156D01*
X010368Y012974D01*
X010368Y012778D01*
X010443Y012596D01*
X010582Y012457D01*
X010763Y012382D01*
X010959Y012382D01*
X011141Y012457D01*
X011280Y012596D01*
X011355Y012778D01*
X011355Y012974D01*
X011280Y013156D01*
X011141Y013294D01*
X010959Y013370D01*
X010763Y013370D01*
X010763Y013382D02*
X010959Y013382D01*
X011141Y013457D01*
X011280Y013596D01*
X011355Y013778D01*
X011355Y013974D01*
X011280Y014156D01*
X011141Y014294D01*
X010959Y014370D01*
X010763Y014370D01*
X010582Y014294D01*
X010443Y014156D01*
X010368Y013974D01*
X010368Y013778D01*
X010443Y013596D01*
X010582Y013457D01*
X010763Y013382D01*
X010543Y013496D02*
X010179Y013496D01*
X010303Y013652D02*
X010420Y013652D01*
X010368Y013807D02*
X010355Y013807D01*
X010355Y013963D02*
X010368Y013963D01*
X010428Y014119D02*
X010295Y014119D01*
X010160Y014275D02*
X010563Y014275D01*
X010644Y014431D02*
X010078Y014431D01*
X010271Y014587D02*
X010452Y014587D01*
X010382Y014743D02*
X010341Y014743D01*
X010355Y014899D02*
X010368Y014899D01*
X010401Y015055D02*
X010321Y015055D01*
X010224Y015211D02*
X010498Y015211D01*
X010516Y015523D02*
X010207Y015523D01*
X010314Y015679D02*
X010408Y015679D01*
X010368Y015835D02*
X010355Y015835D01*
X010348Y015991D02*
X010375Y015991D01*
X010439Y016147D02*
X010283Y016147D01*
X010120Y016303D02*
X010603Y016303D01*
X010580Y016459D02*
X010143Y016459D01*
X010288Y016615D02*
X010435Y016615D01*
X010370Y016771D02*
X010352Y016771D01*
X010355Y016927D02*
X010368Y016927D01*
X010413Y017083D02*
X010310Y017083D01*
X009732Y017395D02*
X002723Y017395D01*
X002723Y017239D02*
X009526Y017239D01*
X009413Y017083D02*
X002709Y017083D01*
X002645Y016927D02*
X009368Y016927D01*
X009370Y016771D02*
X002556Y016771D01*
X002400Y016615D02*
X009435Y016615D01*
X009580Y016459D02*
X002072Y016459D01*
X001721Y016459D02*
X001326Y016459D01*
X001326Y016303D02*
X006044Y016303D01*
X005817Y016147D02*
X001326Y016147D01*
X001326Y015991D02*
X005668Y015991D01*
X005603Y015835D02*
X001326Y015835D01*
X001326Y015679D02*
X005539Y015679D01*
X005538Y015523D02*
X001326Y015523D01*
X001326Y015367D02*
X005538Y015367D01*
X005586Y015211D02*
X001326Y015211D01*
X001326Y015055D02*
X005650Y015055D01*
X005774Y014899D02*
X001326Y014899D01*
X001326Y014743D02*
X005941Y014743D01*
X005816Y014587D02*
X001326Y014587D01*
X001326Y014431D02*
X005668Y014431D01*
X005603Y014275D02*
X001326Y014275D01*
X001326Y014119D02*
X005539Y014119D01*
X005538Y013963D02*
X001326Y013963D01*
X001326Y013807D02*
X005538Y013807D01*
X005586Y013652D02*
X001326Y013652D01*
X001326Y013496D02*
X005651Y013496D01*
X005775Y013340D02*
X001326Y013340D01*
X001326Y013184D02*
X005942Y013184D01*
X006248Y012844D02*
X005922Y012710D01*
X005673Y012460D01*
X005538Y012135D01*
X005538Y011782D01*
X005673Y011457D01*
X005922Y011208D01*
X005991Y011179D01*
X005922Y011151D01*
X005673Y010901D01*
X005538Y010576D01*
X005538Y010223D01*
X005673Y009898D01*
X005922Y009649D01*
X006248Y009514D01*
X006600Y009514D01*
X006926Y009649D01*
X007175Y009898D01*
X007310Y010223D01*
X007310Y010576D01*
X007175Y010901D01*
X006926Y011151D01*
X006857Y011179D01*
X006926Y011208D01*
X007175Y011457D01*
X007310Y011782D01*
X007310Y012135D01*
X007175Y012460D01*
X006926Y012710D01*
X006600Y012844D01*
X006248Y012844D01*
X005937Y012716D02*
X001326Y012716D01*
X001326Y012872D02*
X009368Y012872D01*
X009390Y013028D02*
X001326Y013028D01*
X001326Y012560D02*
X005773Y012560D01*
X005650Y012404D02*
X001326Y012404D01*
X001326Y012248D02*
X005585Y012248D01*
X005538Y012092D02*
X001326Y012092D01*
X001326Y011936D02*
X005538Y011936D01*
X005539Y011780D02*
X001326Y011780D01*
X001326Y011624D02*
X005604Y011624D01*
X005669Y011468D02*
X001326Y011468D01*
X001326Y011312D02*
X005818Y011312D01*
X005935Y011156D02*
X001326Y011156D01*
X001326Y011000D02*
X005772Y011000D01*
X005649Y010844D02*
X001326Y010844D01*
X001326Y010688D02*
X005585Y010688D01*
X005538Y010532D02*
X001326Y010532D01*
X001326Y010376D02*
X005538Y010376D01*
X005540Y010220D02*
X001326Y010220D01*
X001326Y010064D02*
X005604Y010064D01*
X005669Y009908D02*
X001326Y009908D01*
X001326Y009752D02*
X005819Y009752D01*
X006049Y009596D02*
X001326Y009596D01*
X001326Y009440D02*
X009623Y009440D01*
X009582Y009457D02*
X009763Y009382D01*
X009959Y009382D01*
X010141Y009457D01*
X010280Y009596D01*
X010355Y009778D01*
X010355Y009974D01*
X010280Y010156D01*
X010141Y010294D01*
X009959Y010370D01*
X009763Y010370D01*
X009582Y010294D01*
X009443Y010156D01*
X009368Y009974D01*
X009368Y009778D01*
X009443Y009596D01*
X006799Y009596D01*
X007029Y009752D02*
X009378Y009752D01*
X009368Y009908D02*
X007179Y009908D01*
X007244Y010064D02*
X009405Y010064D01*
X009507Y010220D02*
X007309Y010220D01*
X007310Y010376D02*
X012983Y010376D01*
X012983Y010532D02*
X011215Y010532D01*
X011280Y010596D02*
X011355Y010778D01*
X011355Y010974D01*
X011280Y011156D01*
X011141Y011294D01*
X010959Y011370D01*
X010763Y011370D01*
X010582Y011294D01*
X010443Y011156D01*
X010280Y011156D01*
X010141Y011294D01*
X009959Y011370D01*
X009763Y011370D01*
X009582Y011294D01*
X009443Y011156D01*
X006913Y011156D01*
X007030Y011312D02*
X009623Y011312D01*
X009582Y011457D02*
X009763Y011382D01*
X009959Y011382D01*
X010141Y011457D01*
X010280Y011596D01*
X010355Y011778D01*
X010355Y011974D01*
X010280Y012156D01*
X010141Y012294D01*
X009959Y012370D01*
X009763Y012370D01*
X009582Y012294D01*
X009443Y012156D01*
X009368Y011974D01*
X009368Y011778D01*
X009443Y011596D01*
X009582Y011457D01*
X009571Y011468D02*
X007180Y011468D01*
X007244Y011624D02*
X009431Y011624D01*
X009368Y011780D02*
X007309Y011780D01*
X007310Y011936D02*
X009368Y011936D01*
X009416Y012092D02*
X007310Y012092D01*
X007263Y012248D02*
X009535Y012248D01*
X009711Y012404D02*
X007199Y012404D01*
X007076Y012560D02*
X009479Y012560D01*
X009393Y012716D02*
X006911Y012716D01*
X006906Y013184D02*
X009471Y013184D01*
X010252Y013184D02*
X010471Y013184D01*
X010390Y013028D02*
X010333Y013028D01*
X010355Y012872D02*
X010368Y012872D01*
X010393Y012716D02*
X010329Y012716D01*
X010243Y012560D02*
X010479Y012560D01*
X010711Y012404D02*
X010011Y012404D01*
X010188Y012248D02*
X010535Y012248D01*
X010582Y012294D02*
X010443Y012156D01*
X010368Y011974D01*
X010368Y011778D01*
X010443Y011596D01*
X010582Y011457D01*
X010763Y011382D01*
X010959Y011382D01*
X011141Y011457D01*
X011280Y011596D01*
X011355Y011778D01*
X011355Y011974D01*
X011280Y012156D01*
X011141Y012294D01*
X010959Y012370D01*
X010763Y012370D01*
X010582Y012294D01*
X010416Y012092D02*
X010306Y012092D01*
X010355Y011936D02*
X010368Y011936D01*
X010355Y011780D02*
X010368Y011780D01*
X010431Y011624D02*
X010291Y011624D01*
X010151Y011468D02*
X010571Y011468D01*
X010623Y011312D02*
X010099Y011312D01*
X010280Y011156D02*
X010355Y010974D01*
X010355Y010778D01*
X010280Y010596D01*
X010141Y010457D01*
X009959Y010382D01*
X009763Y010382D01*
X009582Y010457D01*
X009443Y010596D01*
X009368Y010778D01*
X009368Y010974D01*
X009443Y011156D01*
X009378Y011000D02*
X007077Y011000D01*
X007199Y010844D02*
X009368Y010844D01*
X009405Y010688D02*
X007264Y010688D01*
X007310Y010532D02*
X009507Y010532D01*
X010215Y010532D02*
X010507Y010532D01*
X010443Y010596D02*
X010582Y010457D01*
X010763Y010382D01*
X010959Y010382D01*
X011141Y010457D01*
X011280Y010596D01*
X011318Y010688D02*
X012983Y010688D01*
X012983Y010844D02*
X011355Y010844D01*
X011344Y011000D02*
X012983Y011000D01*
X012983Y011156D02*
X011280Y011156D01*
X011099Y011312D02*
X012983Y011312D01*
X012983Y011468D02*
X011151Y011468D01*
X011291Y011624D02*
X012983Y011624D01*
X012983Y011780D02*
X011355Y011780D01*
X011355Y011936D02*
X012983Y011936D01*
X012983Y012092D02*
X011306Y012092D01*
X011188Y012248D02*
X012983Y012248D01*
X012983Y012404D02*
X011011Y012404D01*
X011243Y012560D02*
X012983Y012560D01*
X012983Y012716D02*
X011329Y012716D01*
X011355Y012872D02*
X012983Y012872D01*
X012983Y013028D02*
X011333Y013028D01*
X011252Y013184D02*
X012983Y013184D01*
X012983Y013340D02*
X011032Y013340D01*
X011179Y013496D02*
X012983Y013496D01*
X012983Y013652D02*
X011303Y013652D01*
X011355Y013807D02*
X012983Y013807D01*
X012983Y013963D02*
X011355Y013963D01*
X011295Y014119D02*
X012983Y014119D01*
X012983Y014275D02*
X011160Y014275D01*
X011078Y014431D02*
X012983Y014431D01*
X012983Y014587D02*
X011271Y014587D01*
X011341Y014743D02*
X012983Y014743D01*
X012983Y014899D02*
X011355Y014899D01*
X011321Y015055D02*
X012983Y015055D01*
X012983Y015211D02*
X011224Y015211D01*
X009516Y015523D02*
X007310Y015523D01*
X007310Y015679D02*
X009408Y015679D01*
X009368Y015835D02*
X007245Y015835D01*
X007180Y015991D02*
X009375Y015991D01*
X009439Y016147D02*
X007032Y016147D01*
X006805Y016303D02*
X009603Y016303D01*
X009488Y017551D02*
X002680Y017551D01*
X002615Y017707D02*
X009397Y017707D01*
X009368Y017863D02*
X002484Y017863D01*
X002277Y018019D02*
X009386Y018019D01*
X009462Y018175D02*
X001326Y018175D01*
X001326Y018019D02*
X001517Y018019D01*
X001394Y016615D02*
X001326Y016615D01*
X010215Y010220D02*
X010507Y010220D01*
X010443Y010156D02*
X010368Y009974D01*
X010368Y009778D01*
X010443Y009596D01*
X010280Y009596D01*
X010443Y009596D02*
X010582Y009457D01*
X010763Y009382D01*
X010959Y009382D01*
X011141Y009457D01*
X011280Y009596D01*
X011355Y009778D01*
X011355Y009974D01*
X011280Y010156D01*
X011141Y010294D01*
X010959Y010370D01*
X010763Y010370D01*
X010582Y010294D01*
X010443Y010156D01*
X010405Y010064D02*
X010318Y010064D01*
X010355Y009908D02*
X010368Y009908D01*
X010378Y009752D02*
X010344Y009752D01*
X010099Y009440D02*
X010623Y009440D01*
X010582Y009294D02*
X010763Y009370D01*
X010959Y009370D01*
X011141Y009294D01*
X011280Y009156D01*
X011355Y008974D01*
X011355Y008778D01*
X011280Y008596D01*
X011141Y008457D01*
X010959Y008382D01*
X010763Y008382D01*
X010582Y008457D01*
X010443Y008596D01*
X010368Y008778D01*
X010368Y008974D01*
X010443Y009156D01*
X010582Y009294D01*
X010571Y009284D02*
X010151Y009284D01*
X010141Y009294D02*
X009959Y009370D01*
X009763Y009370D01*
X009582Y009294D01*
X009443Y009156D01*
X009368Y008974D01*
X009368Y008778D01*
X009443Y008596D01*
X009582Y008457D01*
X009763Y008382D01*
X009959Y008382D01*
X010141Y008457D01*
X010280Y008596D01*
X010355Y008778D01*
X010355Y008974D01*
X010280Y009156D01*
X010141Y009294D01*
X010291Y009128D02*
X010431Y009128D01*
X010368Y008972D02*
X010355Y008972D01*
X010355Y008816D02*
X010368Y008816D01*
X010416Y008660D02*
X010306Y008660D01*
X010188Y008504D02*
X010535Y008504D01*
X010582Y008294D02*
X010443Y008156D01*
X010368Y007974D01*
X010368Y007778D01*
X010443Y007596D01*
X010582Y007457D01*
X010763Y007382D01*
X010959Y007382D01*
X011141Y007457D01*
X011280Y007596D01*
X011355Y007778D01*
X011355Y007974D01*
X011280Y008156D01*
X011141Y008294D01*
X010959Y008370D01*
X010763Y008370D01*
X010582Y008294D01*
X010711Y008348D02*
X010011Y008348D01*
X009959Y008370D02*
X009763Y008370D01*
X009582Y008294D01*
X009443Y008156D01*
X009368Y007974D01*
X009368Y007778D01*
X009443Y007596D01*
X009582Y007457D01*
X009763Y007382D01*
X009959Y007382D01*
X010141Y007457D01*
X010280Y007596D01*
X010355Y007778D01*
X010355Y007974D01*
X010280Y008156D01*
X010141Y008294D01*
X009959Y008370D01*
X009711Y008348D02*
X007310Y008348D01*
X007310Y008239D02*
X007175Y007914D01*
X006926Y007664D01*
X006857Y007636D01*
X006926Y007607D01*
X007175Y007358D01*
X007310Y007032D01*
X007310Y006680D01*
X007175Y006354D01*
X006926Y006105D01*
X006600Y005970D01*
X006248Y005970D01*
X005922Y006105D01*
X005673Y006354D01*
X005538Y006680D01*
X005538Y007032D01*
X005673Y007358D01*
X005922Y007607D01*
X005991Y007636D01*
X005922Y007664D01*
X005673Y007914D01*
X005538Y008239D01*
X005538Y008591D01*
X005673Y008917D01*
X005922Y009166D01*
X006248Y009301D01*
X006600Y009301D01*
X006926Y009166D01*
X007175Y008917D01*
X007310Y008591D01*
X007310Y008239D01*
X007291Y008192D02*
X009479Y008192D01*
X009393Y008036D02*
X007226Y008036D01*
X007142Y007880D02*
X009368Y007880D01*
X009390Y007724D02*
X006986Y007724D01*
X006965Y007568D02*
X009471Y007568D01*
X009690Y007412D02*
X007121Y007412D01*
X007217Y007256D02*
X012983Y007256D01*
X012983Y007100D02*
X007282Y007100D01*
X007310Y006944D02*
X012983Y006944D01*
X012983Y006788D02*
X007310Y006788D01*
X007290Y006632D02*
X012983Y006632D01*
X012983Y006476D02*
X012323Y006476D01*
X012316Y006477D02*
X012298Y006477D01*
X012298Y006022D01*
X012259Y006022D01*
X012259Y006477D01*
X012241Y006477D01*
X012167Y006466D01*
X012096Y006443D01*
X012029Y006409D01*
X011969Y006365D01*
X011916Y006312D01*
X011872Y006251D01*
X011838Y006184D01*
X011815Y006113D01*
X011803Y006039D01*
X011803Y006022D01*
X012259Y006022D01*
X012259Y005982D01*
X012298Y005982D01*
X012298Y005526D01*
X012316Y005526D01*
X012390Y005538D01*
X012461Y005561D01*
X012528Y005595D01*
X012588Y005639D01*
X012641Y005692D01*
X012685Y005753D01*
X012719Y005819D01*
X012742Y005891D01*
X012754Y005964D01*
X012754Y005982D01*
X012298Y005982D01*
X012298Y006022D01*
X012754Y006022D01*
X012754Y006039D01*
X012742Y006113D01*
X012719Y006184D01*
X012685Y006251D01*
X012641Y006312D01*
X012588Y006365D01*
X012528Y006409D01*
X012461Y006443D01*
X012390Y006466D01*
X012316Y006477D01*
X012298Y006476D02*
X012259Y006476D01*
X012234Y006476D02*
X007226Y006476D01*
X007141Y006320D02*
X011924Y006320D01*
X011831Y006164D02*
X006985Y006164D01*
X006692Y006008D02*
X012259Y006008D01*
X012259Y005982D02*
X011803Y005982D01*
X011803Y005964D01*
X011815Y005891D01*
X011838Y005819D01*
X011872Y005753D01*
X011916Y005692D01*
X011969Y005639D01*
X012029Y005595D01*
X012096Y005561D01*
X012167Y005538D01*
X012241Y005526D01*
X012259Y005526D01*
X012259Y005982D01*
X012298Y006008D02*
X012785Y006008D01*
X012806Y005852D02*
X012730Y005852D01*
X012645Y005697D02*
X012886Y005697D01*
X013102Y005541D02*
X012398Y005541D01*
X012377Y005496D02*
X012180Y005496D01*
X011999Y005420D01*
X011860Y005282D01*
X011785Y005100D01*
X011785Y004904D01*
X011860Y004722D01*
X011999Y004583D01*
X012180Y004508D01*
X012377Y004508D01*
X012558Y004583D01*
X012697Y004722D01*
X012772Y004904D01*
X012772Y005100D01*
X012697Y005282D01*
X012558Y005420D01*
X012377Y005496D01*
X012298Y005541D02*
X012259Y005541D01*
X012159Y005541D02*
X007008Y005541D01*
X006926Y005623D02*
X006600Y005758D01*
X006248Y005758D01*
X005922Y005623D01*
X005673Y005374D01*
X005538Y005048D01*
X005538Y004696D01*
X005673Y004370D01*
X005922Y004121D01*
X005991Y004092D01*
X005922Y004064D01*
X005673Y003815D01*
X005538Y003489D01*
X005538Y003137D01*
X005673Y002811D01*
X005922Y002562D01*
X006248Y002427D01*
X006600Y002427D01*
X006926Y002562D01*
X007175Y002811D01*
X007310Y003137D01*
X007310Y003489D01*
X007175Y003815D01*
X006926Y004064D01*
X006857Y004092D01*
X006926Y004121D01*
X007175Y004370D01*
X007310Y004696D01*
X007310Y005048D01*
X007175Y005374D01*
X006926Y005623D01*
X006748Y005697D02*
X011913Y005697D01*
X011827Y005852D02*
X001326Y005852D01*
X001326Y005697D02*
X006100Y005697D01*
X005840Y005541D02*
X001326Y005541D01*
X001326Y005385D02*
X005684Y005385D01*
X005613Y005229D02*
X001326Y005229D01*
X001326Y005073D02*
X005548Y005073D01*
X005538Y004917D02*
X001326Y004917D01*
X001326Y004761D02*
X005538Y004761D01*
X005576Y004605D02*
X001326Y004605D01*
X001326Y004449D02*
X005641Y004449D01*
X005751Y004293D02*
X001326Y004293D01*
X001326Y004137D02*
X005907Y004137D01*
X005839Y003981D02*
X001326Y003981D01*
X001326Y003825D02*
X005683Y003825D01*
X005613Y003669D02*
X001326Y003669D01*
X001326Y003513D02*
X005548Y003513D01*
X005538Y003357D02*
X001326Y003357D01*
X001334Y003201D02*
X005538Y003201D01*
X005576Y003045D02*
X001373Y003045D01*
X001424Y002889D02*
X005641Y002889D01*
X005752Y002733D02*
X001528Y002733D01*
X001672Y002577D02*
X005907Y002577D01*
X006941Y002577D02*
X009310Y002577D01*
X009192Y002733D02*
X007097Y002733D01*
X007207Y002889D02*
X009102Y002889D01*
X009038Y003045D02*
X007272Y003045D01*
X007310Y003201D02*
X008994Y003201D01*
X008970Y003357D02*
X007310Y003357D01*
X007300Y003513D02*
X010282Y003513D01*
X010282Y003581D02*
X008963Y003581D01*
X008975Y003707D01*
X009002Y003842D01*
X009042Y003974D01*
X009095Y004101D01*
X009160Y004222D01*
X009236Y004336D01*
X009323Y004443D01*
X009420Y004540D01*
X009527Y004627D01*
X009641Y004703D01*
X009762Y004768D01*
X009889Y004821D01*
X010021Y004861D01*
X010156Y004888D01*
X010282Y004900D01*
X010282Y003581D01*
X010282Y003669D02*
X010440Y003669D01*
X010440Y003581D02*
X010440Y004900D01*
X010567Y004888D01*
X010702Y004861D01*
X010833Y004821D01*
X010960Y004768D01*
X011081Y004703D01*
X011196Y004627D01*
X011302Y004540D01*
X011399Y004443D01*
X011486Y004336D01*
X011563Y004222D01*
X011628Y004101D01*
X011680Y003974D01*
X011720Y003842D01*
X011747Y003707D01*
X011759Y003581D01*
X010440Y003581D01*
X010440Y003513D02*
X012065Y003513D01*
X012073Y003505D02*
X012484Y003505D01*
X012775Y003796D01*
X012775Y004208D01*
X012484Y004499D01*
X012073Y004499D01*
X011782Y004208D01*
X011782Y003796D01*
X012073Y003505D01*
X012073Y003499D02*
X011782Y003208D01*
X011782Y002796D01*
X012073Y002505D01*
X012484Y002505D01*
X012775Y002796D01*
X012775Y003208D01*
X012484Y003499D01*
X012073Y003499D01*
X011931Y003357D02*
X011753Y003357D01*
X011728Y003201D02*
X011782Y003201D01*
X011782Y003045D02*
X011685Y003045D01*
X011620Y002889D02*
X011782Y002889D01*
X011845Y002733D02*
X011530Y002733D01*
X011412Y002577D02*
X012001Y002577D01*
X012556Y002577D02*
X013001Y002577D01*
X013073Y002505D02*
X013484Y002505D01*
X013775Y002796D01*
X013775Y003208D01*
X013484Y003499D01*
X013073Y003499D01*
X012782Y003208D01*
X012782Y002796D01*
X013073Y002505D01*
X012845Y002733D02*
X012712Y002733D01*
X012775Y002889D02*
X012782Y002889D01*
X012775Y003045D02*
X012782Y003045D01*
X012775Y003201D02*
X012782Y003201D01*
X012931Y003357D02*
X012626Y003357D01*
X012492Y003513D02*
X013065Y003513D01*
X013073Y003505D02*
X013484Y003505D01*
X013775Y003796D01*
X013775Y004208D01*
X013484Y004499D01*
X013073Y004499D01*
X012782Y004208D01*
X012782Y003796D01*
X013073Y003505D01*
X012909Y003669D02*
X012648Y003669D01*
X012775Y003825D02*
X012782Y003825D01*
X012775Y003981D02*
X012782Y003981D01*
X012775Y004137D02*
X012782Y004137D01*
X012867Y004293D02*
X012690Y004293D01*
X012534Y004449D02*
X013023Y004449D01*
X012999Y004583D02*
X013180Y004508D01*
X013377Y004508D01*
X013558Y004583D01*
X013697Y004722D01*
X013772Y004904D01*
X013772Y005100D01*
X013697Y005282D01*
X013558Y005420D01*
X013377Y005496D01*
X013180Y005496D01*
X012999Y005420D01*
X012860Y005282D01*
X012785Y005100D01*
X012785Y004904D01*
X012860Y004722D01*
X012999Y004583D01*
X012978Y004605D02*
X012579Y004605D01*
X012713Y004761D02*
X012844Y004761D01*
X012785Y004917D02*
X012772Y004917D01*
X012772Y005073D02*
X012785Y005073D01*
X012838Y005229D02*
X012719Y005229D01*
X012594Y005385D02*
X012963Y005385D01*
X013455Y005541D02*
X014102Y005541D01*
X014180Y005508D02*
X014377Y005508D01*
X014558Y005583D01*
X014697Y005722D01*
X014772Y005904D01*
X014772Y006100D01*
X014697Y006282D01*
X014574Y006405D01*
X014574Y017765D01*
X015738Y018930D01*
X015706Y018852D01*
X015706Y018656D01*
X015781Y018474D01*
X015920Y018335D01*
X016102Y018260D01*
X016298Y018260D01*
X016479Y018335D01*
X016618Y018474D01*
X016694Y018656D01*
X016694Y018852D01*
X016618Y019034D01*
X016479Y019172D01*
X016298Y019248D01*
X016102Y019248D01*
X016024Y019215D01*
X016367Y019559D01*
X016450Y019642D01*
X016495Y019750D01*
X016495Y020351D01*
X016618Y020474D01*
X016694Y020656D01*
X016694Y020852D01*
X016618Y021034D01*
X016479Y021172D01*
X016360Y021222D01*
X016386Y021230D01*
X016453Y021264D01*
X016514Y021308D01*
X016566Y021361D01*
X016611Y021422D01*
X016644Y021489D01*
X016668Y021560D01*
X016679Y021634D01*
X016679Y021652D01*
X016223Y021652D01*
X016223Y021691D01*
X016184Y021691D01*
X016184Y022147D01*
X016166Y022147D01*
X016092Y022135D01*
X016021Y022112D01*
X015954Y022078D01*
X015948Y022073D01*
X015969Y022124D01*
X015969Y022321D01*
X015894Y022502D01*
X015755Y022641D01*
X015574Y022716D01*
X015377Y022716D01*
X015196Y022641D01*
X015057Y022502D01*
X014982Y022321D01*
X014982Y022124D01*
X015057Y021943D01*
X015196Y021804D01*
X015377Y021729D01*
X015574Y021729D01*
X015745Y021800D01*
X015740Y021783D01*
X015728Y021709D01*
X015728Y021691D01*
X016184Y021691D01*
X016184Y021652D01*
X015728Y021652D01*
X015728Y021634D01*
X015740Y021560D01*
X015763Y021489D01*
X015797Y021422D01*
X015841Y021361D01*
X015894Y021308D01*
X015954Y021264D01*
X016021Y021230D01*
X016043Y021223D01*
X015920Y021172D01*
X015781Y021034D01*
X015706Y020852D01*
X015706Y020656D01*
X015715Y020634D01*
X015658Y020663D01*
X015587Y020686D01*
X015513Y020698D01*
X015495Y020698D01*
X015495Y020242D01*
X015456Y020242D01*
X015456Y020698D01*
X015438Y020698D01*
X015364Y020686D01*
X015293Y020663D01*
X015226Y020629D01*
X015166Y020585D01*
X015113Y020532D01*
X015069Y020472D01*
X015035Y020405D01*
X015012Y020334D01*
X015000Y020260D01*
X015000Y020242D01*
X015456Y020242D01*
X015456Y020203D01*
X013574Y020203D01*
X013574Y020359D02*
X015020Y020359D01*
X015000Y020203D02*
X015000Y020185D01*
X015012Y020111D01*
X015035Y020040D01*
X015069Y019973D01*
X015113Y019913D01*
X015166Y019860D01*
X015226Y019816D01*
X015293Y019782D01*
X015364Y019758D01*
X015438Y019747D01*
X015456Y019747D01*
X015456Y020203D01*
X015495Y020203D01*
X015495Y019747D01*
X015513Y019747D01*
X015587Y019758D01*
X015658Y019782D01*
X015725Y019816D01*
X015785Y019860D01*
X015838Y019913D01*
X015882Y019973D01*
X015905Y020017D01*
X015905Y019931D01*
X014028Y018055D01*
X013983Y017946D01*
X013983Y006405D01*
X013860Y006282D01*
X013785Y006100D01*
X013785Y005904D01*
X013860Y005722D01*
X013999Y005583D01*
X014180Y005508D01*
X014180Y005496D02*
X013999Y005420D01*
X013860Y005282D01*
X013785Y005100D01*
X013785Y004904D01*
X013860Y004722D01*
X013999Y004583D01*
X014180Y004508D01*
X014377Y004508D01*
X014558Y004583D01*
X014697Y004722D01*
X014772Y004904D01*
X014772Y005100D01*
X014697Y005282D01*
X014558Y005420D01*
X014377Y005496D01*
X014180Y005496D01*
X013963Y005385D02*
X013594Y005385D01*
X013719Y005229D02*
X013838Y005229D01*
X013785Y005073D02*
X013772Y005073D01*
X013772Y004917D02*
X013785Y004917D01*
X013844Y004761D02*
X013713Y004761D01*
X013579Y004605D02*
X013978Y004605D01*
X014073Y004499D02*
X013782Y004208D01*
X013782Y003796D01*
X014073Y003505D01*
X014484Y003505D01*
X014775Y003796D01*
X014775Y004208D01*
X014484Y004499D01*
X014073Y004499D01*
X014023Y004449D02*
X013534Y004449D01*
X013690Y004293D02*
X013867Y004293D01*
X013782Y004137D02*
X013775Y004137D01*
X013775Y003981D02*
X013782Y003981D01*
X013775Y003825D02*
X013782Y003825D01*
X013909Y003669D02*
X013648Y003669D01*
X013492Y003513D02*
X014065Y003513D01*
X014073Y003499D02*
X013782Y003208D01*
X013782Y002796D01*
X014073Y002505D01*
X014484Y002505D01*
X014775Y002796D01*
X014775Y003208D01*
X014484Y003499D01*
X014073Y003499D01*
X013931Y003357D02*
X013626Y003357D01*
X013775Y003201D02*
X013782Y003201D01*
X013775Y003045D02*
X013782Y003045D01*
X013775Y002889D02*
X013782Y002889D01*
X013845Y002733D02*
X013712Y002733D01*
X013556Y002577D02*
X014001Y002577D01*
X014556Y002577D02*
X015001Y002577D01*
X015073Y002505D02*
X015484Y002505D01*
X015775Y002796D01*
X015775Y003208D01*
X015484Y003499D01*
X015073Y003499D01*
X014782Y003208D01*
X014782Y002796D01*
X015073Y002505D01*
X014845Y002733D02*
X014712Y002733D01*
X014775Y002889D02*
X014782Y002889D01*
X014775Y003045D02*
X014782Y003045D01*
X014775Y003201D02*
X014782Y003201D01*
X014931Y003357D02*
X014626Y003357D01*
X014492Y003513D02*
X015065Y003513D01*
X015073Y003505D02*
X015484Y003505D01*
X015775Y003796D01*
X015775Y004208D01*
X015484Y004499D01*
X015073Y004499D01*
X014782Y004208D01*
X014782Y003796D01*
X015073Y003505D01*
X014909Y003669D02*
X014648Y003669D01*
X014775Y003825D02*
X014782Y003825D01*
X014775Y003981D02*
X014782Y003981D01*
X014775Y004137D02*
X014782Y004137D01*
X014867Y004293D02*
X014690Y004293D01*
X014534Y004449D02*
X015023Y004449D01*
X015096Y004561D02*
X015167Y004538D01*
X015241Y004526D01*
X015259Y004526D01*
X015259Y004982D01*
X015298Y004982D01*
X015298Y004526D01*
X015316Y004526D01*
X015390Y004538D01*
X015461Y004561D01*
X015528Y004595D01*
X015588Y004639D01*
X015641Y004692D01*
X015685Y004753D01*
X015719Y004819D01*
X015742Y004891D01*
X015754Y004964D01*
X015754Y004982D01*
X015298Y004982D01*
X015298Y005022D01*
X015259Y005022D01*
X015259Y005477D01*
X015241Y005477D01*
X015167Y005466D01*
X015096Y005443D01*
X015029Y005409D01*
X014969Y005365D01*
X014916Y005312D01*
X014872Y005251D01*
X014838Y005184D01*
X014815Y005113D01*
X014803Y005039D01*
X014803Y005022D01*
X015259Y005022D01*
X015259Y004982D01*
X014803Y004982D01*
X014803Y004964D01*
X014815Y004891D01*
X014838Y004819D01*
X014872Y004753D01*
X014916Y004692D01*
X014969Y004639D01*
X015029Y004595D01*
X015096Y004561D01*
X015016Y004605D02*
X014579Y004605D01*
X014713Y004761D02*
X014868Y004761D01*
X014811Y004917D02*
X014772Y004917D01*
X014772Y005073D02*
X014808Y005073D01*
X014860Y005229D02*
X014719Y005229D01*
X014594Y005385D02*
X014996Y005385D01*
X015102Y005541D02*
X014455Y005541D01*
X014671Y005697D02*
X014886Y005697D01*
X014806Y005852D02*
X014751Y005852D01*
X014772Y006008D02*
X014785Y006008D01*
X014811Y006164D02*
X014746Y006164D01*
X014658Y006320D02*
X014899Y006320D01*
X014983Y006476D02*
X014574Y006476D01*
X014574Y006632D02*
X014983Y006632D01*
X014983Y006788D02*
X014574Y006788D01*
X014574Y006944D02*
X014983Y006944D01*
X014983Y007100D02*
X014574Y007100D01*
X014574Y007256D02*
X014983Y007256D01*
X014983Y007412D02*
X014574Y007412D01*
X014574Y007568D02*
X014983Y007568D01*
X014983Y007724D02*
X014574Y007724D01*
X014574Y007880D02*
X014983Y007880D01*
X014983Y008036D02*
X014574Y008036D01*
X014574Y008192D02*
X014983Y008192D01*
X014983Y008348D02*
X014574Y008348D01*
X014574Y008504D02*
X014983Y008504D01*
X014983Y008660D02*
X014574Y008660D01*
X014574Y008816D02*
X014983Y008816D01*
X014983Y008972D02*
X014574Y008972D01*
X014574Y009128D02*
X014983Y009128D01*
X014983Y009284D02*
X014574Y009284D01*
X014574Y009440D02*
X014983Y009440D01*
X014983Y009596D02*
X014574Y009596D01*
X014574Y009752D02*
X014983Y009752D01*
X014983Y009908D02*
X014574Y009908D01*
X014574Y010064D02*
X014983Y010064D01*
X014983Y010220D02*
X014574Y010220D01*
X014574Y010376D02*
X014983Y010376D01*
X014983Y010532D02*
X014574Y010532D01*
X014574Y010688D02*
X014983Y010688D01*
X014983Y010844D02*
X014574Y010844D01*
X014574Y011000D02*
X014983Y011000D01*
X014983Y011156D02*
X014574Y011156D01*
X014574Y011312D02*
X014983Y011312D01*
X014983Y011468D02*
X014574Y011468D01*
X014574Y011624D02*
X014983Y011624D01*
X014983Y011780D02*
X014574Y011780D01*
X014574Y011936D02*
X014983Y011936D01*
X014983Y012092D02*
X014574Y012092D01*
X014574Y012248D02*
X014983Y012248D01*
X014983Y012404D02*
X014574Y012404D01*
X014574Y012560D02*
X014983Y012560D01*
X014983Y012716D02*
X014574Y012716D01*
X014574Y012872D02*
X014983Y012872D01*
X014983Y013028D02*
X014574Y013028D01*
X014574Y013184D02*
X014983Y013184D01*
X014983Y013340D02*
X014574Y013340D01*
X014574Y013496D02*
X014983Y013496D01*
X014983Y013652D02*
X014574Y013652D01*
X014574Y013807D02*
X014983Y013807D01*
X014983Y013963D02*
X014574Y013963D01*
X014574Y014119D02*
X014983Y014119D01*
X014983Y014275D02*
X014574Y014275D01*
X014574Y014431D02*
X014983Y014431D01*
X014983Y014587D02*
X014574Y014587D01*
X014574Y014743D02*
X014983Y014743D01*
X014983Y014899D02*
X014574Y014899D01*
X014574Y015055D02*
X014983Y015055D01*
X014983Y015211D02*
X014574Y015211D01*
X014574Y015367D02*
X014983Y015367D01*
X014983Y015523D02*
X014574Y015523D01*
X014574Y015679D02*
X014983Y015679D01*
X014983Y015835D02*
X014574Y015835D01*
X014574Y015991D02*
X014983Y015991D01*
X014983Y016147D02*
X014574Y016147D01*
X014574Y016303D02*
X014983Y016303D01*
X014983Y016459D02*
X014574Y016459D01*
X014574Y016615D02*
X015024Y016615D01*
X015173Y016771D02*
X014574Y016771D01*
X014574Y016927D02*
X015329Y016927D01*
X015485Y017083D02*
X014574Y017083D01*
X014574Y017239D02*
X015641Y017239D01*
X015797Y017395D02*
X014574Y017395D01*
X014574Y017551D02*
X015953Y017551D01*
X016109Y017707D02*
X014574Y017707D01*
X014671Y017863D02*
X016265Y017863D01*
X016421Y018019D02*
X014827Y018019D01*
X014983Y018175D02*
X016577Y018175D01*
X016469Y018331D02*
X016733Y018331D01*
X016624Y018487D02*
X016889Y018487D01*
X017045Y018643D02*
X016688Y018643D01*
X016694Y018799D02*
X017201Y018799D01*
X017357Y018955D02*
X016651Y018955D01*
X016541Y019111D02*
X017513Y019111D01*
X017554Y019267D02*
X016075Y019267D01*
X016231Y019423D02*
X017554Y019423D01*
X017554Y019579D02*
X016387Y019579D01*
X016489Y019735D02*
X017554Y019735D01*
X017554Y019891D02*
X016495Y019891D01*
X016495Y020047D02*
X017554Y020047D01*
X017554Y020203D02*
X016495Y020203D01*
X016503Y020359D02*
X017554Y020359D01*
X017554Y020515D02*
X016635Y020515D01*
X016694Y020671D02*
X017554Y020671D01*
X017554Y020827D02*
X016694Y020827D01*
X016639Y020983D02*
X017554Y020983D01*
X017554Y021139D02*
X016513Y021139D01*
X016494Y021295D02*
X017554Y021295D01*
X017554Y021451D02*
X016625Y021451D01*
X016675Y021607D02*
X017554Y021607D01*
X017554Y021763D02*
X016671Y021763D01*
X016668Y021783D02*
X016644Y021854D01*
X016611Y021920D01*
X016566Y021981D01*
X016514Y022034D01*
X016453Y022078D01*
X016386Y022112D01*
X016315Y022135D01*
X016241Y022147D01*
X016223Y022147D01*
X016223Y021691D01*
X016679Y021691D01*
X016679Y021709D01*
X016668Y021783D01*
X016612Y021918D02*
X017554Y021918D01*
X017554Y022074D02*
X016458Y022074D01*
X016223Y022074D02*
X016184Y022074D01*
X016184Y021918D02*
X016223Y021918D01*
X016223Y021763D02*
X016184Y021763D01*
X015949Y022074D02*
X015950Y022074D01*
X015969Y022230D02*
X017554Y022230D01*
X017559Y022386D02*
X015942Y022386D01*
X015854Y022542D02*
X017657Y022542D01*
X017813Y022698D02*
X015616Y022698D01*
X015334Y022698D02*
X012616Y022698D01*
X012854Y022542D02*
X015097Y022542D01*
X015009Y022386D02*
X012942Y022386D01*
X012969Y022230D02*
X014982Y022230D01*
X015002Y022074D02*
X013041Y022074D01*
X013197Y021918D02*
X015081Y021918D01*
X015296Y021763D02*
X013353Y021763D01*
X013509Y021607D02*
X015732Y021607D01*
X015737Y021763D02*
X015655Y021763D01*
X015782Y021451D02*
X013574Y021451D01*
X013574Y021295D02*
X015913Y021295D01*
X015886Y021139D02*
X013574Y021139D01*
X013574Y020983D02*
X015760Y020983D01*
X015706Y020827D02*
X013574Y020827D01*
X013574Y020671D02*
X015316Y020671D01*
X015456Y020671D02*
X015495Y020671D01*
X015635Y020671D02*
X015706Y020671D01*
X015495Y020515D02*
X015456Y020515D01*
X015456Y020359D02*
X015495Y020359D01*
X015456Y020203D02*
X015000Y020203D01*
X015032Y020047D02*
X013574Y020047D01*
X013574Y019891D02*
X015134Y019891D01*
X015456Y019891D02*
X015495Y019891D01*
X015495Y020047D02*
X015456Y020047D01*
X015816Y019891D02*
X015864Y019891D01*
X015708Y019735D02*
X013574Y019735D01*
X013574Y019579D02*
X015552Y019579D01*
X015396Y019423D02*
X013574Y019423D01*
X013574Y019267D02*
X015240Y019267D01*
X015084Y019111D02*
X013574Y019111D01*
X013574Y018955D02*
X014928Y018955D01*
X014772Y018799D02*
X013574Y018799D01*
X013574Y018643D02*
X014616Y018643D01*
X014460Y018487D02*
X013574Y018487D01*
X013574Y018331D02*
X014304Y018331D01*
X014148Y018175D02*
X013574Y018175D01*
X013574Y018019D02*
X014013Y018019D01*
X013983Y017863D02*
X013574Y017863D01*
X013574Y017707D02*
X013983Y017707D01*
X013983Y017551D02*
X013574Y017551D01*
X013574Y017395D02*
X013983Y017395D01*
X013983Y017239D02*
X013574Y017239D01*
X013574Y017083D02*
X013983Y017083D01*
X013983Y016927D02*
X013574Y016927D01*
X013574Y016771D02*
X013983Y016771D01*
X013983Y016615D02*
X013574Y016615D01*
X013574Y016459D02*
X013983Y016459D01*
X013983Y016303D02*
X013574Y016303D01*
X013574Y016147D02*
X013983Y016147D01*
X013983Y015991D02*
X013574Y015991D01*
X013574Y015835D02*
X013983Y015835D01*
X013983Y015679D02*
X013574Y015679D01*
X013574Y015523D02*
X013983Y015523D01*
X013983Y015367D02*
X013574Y015367D01*
X013574Y015211D02*
X013983Y015211D01*
X013983Y015055D02*
X013574Y015055D01*
X013574Y014899D02*
X013983Y014899D01*
X013983Y014743D02*
X013574Y014743D01*
X013574Y014587D02*
X013983Y014587D01*
X013983Y014431D02*
X013574Y014431D01*
X013574Y014275D02*
X013983Y014275D01*
X013983Y014119D02*
X013574Y014119D01*
X013574Y013963D02*
X013983Y013963D01*
X013983Y013807D02*
X013574Y013807D01*
X013574Y013652D02*
X013983Y013652D01*
X013983Y013496D02*
X013574Y013496D01*
X013574Y013340D02*
X013983Y013340D01*
X013983Y013184D02*
X013574Y013184D01*
X013574Y013028D02*
X013983Y013028D01*
X013983Y012872D02*
X013574Y012872D01*
X013574Y012716D02*
X013983Y012716D01*
X013983Y012560D02*
X013574Y012560D01*
X013574Y012404D02*
X013983Y012404D01*
X013983Y012248D02*
X013574Y012248D01*
X013574Y012092D02*
X013983Y012092D01*
X013983Y011936D02*
X013574Y011936D01*
X013574Y011780D02*
X013983Y011780D01*
X013983Y011624D02*
X013574Y011624D01*
X013574Y011468D02*
X013983Y011468D01*
X013983Y011312D02*
X013574Y011312D01*
X013574Y011156D02*
X013983Y011156D01*
X013983Y011000D02*
X013574Y011000D01*
X013574Y010844D02*
X013983Y010844D01*
X013983Y010688D02*
X013574Y010688D01*
X013574Y010532D02*
X013983Y010532D01*
X013983Y010376D02*
X013574Y010376D01*
X013574Y010220D02*
X013983Y010220D01*
X013983Y010064D02*
X013574Y010064D01*
X013574Y009908D02*
X013983Y009908D01*
X013983Y009752D02*
X013574Y009752D01*
X013574Y009596D02*
X013983Y009596D01*
X013983Y009440D02*
X013574Y009440D01*
X013574Y009284D02*
X013983Y009284D01*
X013983Y009128D02*
X013574Y009128D01*
X013574Y008972D02*
X013983Y008972D01*
X013983Y008816D02*
X013574Y008816D01*
X013574Y008660D02*
X013983Y008660D01*
X013983Y008504D02*
X013574Y008504D01*
X013574Y008348D02*
X013983Y008348D01*
X013983Y008192D02*
X013574Y008192D01*
X013574Y008036D02*
X013983Y008036D01*
X013983Y007880D02*
X013574Y007880D01*
X013574Y007724D02*
X013983Y007724D01*
X013983Y007568D02*
X013574Y007568D01*
X013574Y007412D02*
X013983Y007412D01*
X013983Y007256D02*
X013574Y007256D01*
X013574Y007100D02*
X013983Y007100D01*
X013983Y006944D02*
X013574Y006944D01*
X013574Y006788D02*
X013983Y006788D01*
X013983Y006632D02*
X013574Y006632D01*
X013574Y006476D02*
X013983Y006476D01*
X013899Y006320D02*
X013658Y006320D01*
X013746Y006164D02*
X013811Y006164D01*
X013785Y006008D02*
X013772Y006008D01*
X013751Y005852D02*
X013806Y005852D01*
X013886Y005697D02*
X013671Y005697D01*
X012811Y006164D02*
X012726Y006164D01*
X012633Y006320D02*
X012899Y006320D01*
X012298Y006320D02*
X012259Y006320D01*
X012259Y006164D02*
X012298Y006164D01*
X012298Y005852D02*
X012259Y005852D01*
X012259Y005697D02*
X012298Y005697D01*
X011963Y005385D02*
X007164Y005385D01*
X007235Y005229D02*
X011838Y005229D01*
X011785Y005073D02*
X007300Y005073D01*
X007310Y004917D02*
X011785Y004917D01*
X011844Y004761D02*
X010975Y004761D01*
X011223Y004605D02*
X011978Y004605D01*
X012023Y004449D02*
X011393Y004449D01*
X011516Y004293D02*
X011867Y004293D01*
X011782Y004137D02*
X011608Y004137D01*
X011677Y003981D02*
X011782Y003981D01*
X011782Y003825D02*
X011724Y003825D01*
X011751Y003669D02*
X011909Y003669D01*
X010440Y003825D02*
X010282Y003825D01*
X010282Y003981D02*
X010440Y003981D01*
X010440Y004137D02*
X010282Y004137D01*
X010282Y004293D02*
X010440Y004293D01*
X010440Y004449D02*
X010282Y004449D01*
X010282Y004605D02*
X010440Y004605D01*
X010440Y004761D02*
X010282Y004761D01*
X009748Y004761D02*
X007310Y004761D01*
X007272Y004605D02*
X009499Y004605D01*
X009329Y004449D02*
X007208Y004449D01*
X007098Y004293D02*
X009207Y004293D01*
X009114Y004137D02*
X006942Y004137D01*
X007009Y003981D02*
X009045Y003981D01*
X008999Y003825D02*
X007165Y003825D01*
X007236Y003669D02*
X008972Y003669D01*
X009473Y002421D02*
X001928Y002421D01*
X001326Y006008D02*
X006156Y006008D01*
X005863Y006164D02*
X001326Y006164D01*
X001326Y006320D02*
X005707Y006320D01*
X005623Y006476D02*
X001326Y006476D01*
X001326Y006632D02*
X005558Y006632D01*
X005538Y006788D02*
X001326Y006788D01*
X001326Y006944D02*
X005538Y006944D01*
X005567Y007100D02*
X001326Y007100D01*
X001326Y007256D02*
X005631Y007256D01*
X005728Y007412D02*
X001326Y007412D01*
X001326Y007568D02*
X005884Y007568D01*
X005862Y007724D02*
X001326Y007724D01*
X001326Y007880D02*
X005707Y007880D01*
X005622Y008036D02*
X001326Y008036D01*
X001326Y008192D02*
X005558Y008192D01*
X005538Y008348D02*
X001326Y008348D01*
X001326Y008504D02*
X005538Y008504D01*
X005567Y008660D02*
X001326Y008660D01*
X001326Y008816D02*
X005631Y008816D01*
X005728Y008972D02*
X001326Y008972D01*
X001326Y009128D02*
X005884Y009128D01*
X006207Y009284D02*
X001326Y009284D01*
X006642Y009284D02*
X009571Y009284D01*
X009582Y009457D02*
X009443Y009596D01*
X009431Y009128D02*
X006964Y009128D01*
X007120Y008972D02*
X009368Y008972D01*
X009368Y008816D02*
X007217Y008816D01*
X007282Y008660D02*
X009416Y008660D01*
X009535Y008504D02*
X007310Y008504D01*
X010032Y007412D02*
X010690Y007412D01*
X010471Y007568D02*
X010252Y007568D01*
X010333Y007724D02*
X010390Y007724D01*
X010368Y007880D02*
X010355Y007880D01*
X010329Y008036D02*
X010393Y008036D01*
X010479Y008192D02*
X010243Y008192D01*
X011011Y008348D02*
X012983Y008348D01*
X012983Y008192D02*
X011243Y008192D01*
X011329Y008036D02*
X012983Y008036D01*
X012983Y007880D02*
X011355Y007880D01*
X011333Y007724D02*
X012983Y007724D01*
X012983Y007568D02*
X011252Y007568D01*
X011032Y007412D02*
X012983Y007412D01*
X012983Y008504D02*
X011188Y008504D01*
X011306Y008660D02*
X012983Y008660D01*
X012983Y008816D02*
X011355Y008816D01*
X011355Y008972D02*
X012983Y008972D01*
X012983Y009128D02*
X011291Y009128D01*
X011151Y009284D02*
X012983Y009284D01*
X012983Y009440D02*
X011099Y009440D01*
X011280Y009596D02*
X012983Y009596D01*
X012983Y009752D02*
X011344Y009752D01*
X011355Y009908D02*
X012983Y009908D01*
X012983Y010064D02*
X011318Y010064D01*
X011215Y010220D02*
X012983Y010220D01*
X010443Y010596D02*
X010368Y010778D01*
X010368Y010974D01*
X010443Y011156D01*
X010378Y011000D02*
X010344Y011000D01*
X010355Y010844D02*
X010368Y010844D01*
X010405Y010688D02*
X010318Y010688D01*
X015574Y010688D02*
X015983Y010688D01*
X015983Y010844D02*
X015574Y010844D01*
X015574Y011000D02*
X015983Y011000D01*
X015983Y011156D02*
X015574Y011156D01*
X015574Y011312D02*
X015983Y011312D01*
X015983Y011468D02*
X015574Y011468D01*
X015574Y011624D02*
X015983Y011624D01*
X015983Y011780D02*
X015574Y011780D01*
X015574Y011936D02*
X015983Y011936D01*
X015983Y012092D02*
X015574Y012092D01*
X015574Y012248D02*
X015983Y012248D01*
X015983Y012404D02*
X015574Y012404D01*
X015574Y012560D02*
X015983Y012560D01*
X015983Y012716D02*
X015574Y012716D01*
X015574Y012872D02*
X015983Y012872D01*
X015983Y013028D02*
X015574Y013028D01*
X015574Y013184D02*
X015983Y013184D01*
X015983Y013340D02*
X015574Y013340D01*
X015574Y013496D02*
X015983Y013496D01*
X015983Y013652D02*
X015574Y013652D01*
X015574Y013807D02*
X015983Y013807D01*
X015983Y013963D02*
X015574Y013963D01*
X015574Y014119D02*
X015983Y014119D01*
X015983Y014275D02*
X015574Y014275D01*
X015574Y014431D02*
X015983Y014431D01*
X015983Y014587D02*
X015574Y014587D01*
X015574Y014743D02*
X015983Y014743D01*
X015983Y014899D02*
X015574Y014899D01*
X015574Y015055D02*
X015983Y015055D01*
X015983Y015211D02*
X015574Y015211D01*
X015574Y015367D02*
X015983Y015367D01*
X015983Y015523D02*
X015574Y015523D01*
X015574Y015679D02*
X015983Y015679D01*
X015983Y015835D02*
X015574Y015835D01*
X015574Y015991D02*
X015983Y015991D01*
X015983Y016147D02*
X015574Y016147D01*
X015574Y016303D02*
X015983Y016303D01*
X015983Y016459D02*
X015697Y016459D01*
X015853Y016615D02*
X016069Y016615D01*
X016028Y016575D02*
X015983Y016466D01*
X015983Y006405D01*
X015860Y006282D01*
X015785Y006100D01*
X015785Y005904D01*
X015860Y005722D01*
X015999Y005583D01*
X016180Y005508D01*
X016377Y005508D01*
X016558Y005583D01*
X016697Y005722D01*
X016772Y005904D01*
X016772Y006100D01*
X016697Y006282D01*
X016574Y006405D01*
X016574Y016285D01*
X018765Y018476D01*
X018793Y018504D01*
X018837Y018444D01*
X018890Y018391D01*
X018951Y018347D01*
X019017Y018313D01*
X019088Y018290D01*
X019162Y018278D01*
X019180Y018278D01*
X019180Y018734D01*
X019219Y018734D01*
X019219Y018278D01*
X019237Y018278D01*
X019311Y018290D01*
X019382Y018313D01*
X019449Y018347D01*
X019510Y018391D01*
X019563Y018444D01*
X019607Y018505D01*
X019641Y018571D01*
X019664Y018643D01*
X023681Y018643D01*
X023837Y018487D02*
X019594Y018487D01*
X019664Y018643D02*
X019675Y018716D01*
X019675Y018734D01*
X019219Y018734D01*
X019219Y018774D01*
X019180Y018774D01*
X019180Y019229D01*
X019162Y019229D01*
X019088Y019218D01*
X019017Y019195D01*
X018951Y019161D01*
X018893Y019119D01*
X018893Y019214D01*
X019173Y019494D01*
X019625Y019494D01*
X019733Y019539D01*
X019816Y019622D01*
X019947Y019752D01*
X020121Y019752D01*
X020302Y019827D01*
X020441Y019966D01*
X020516Y020148D01*
X020516Y020344D01*
X020441Y020526D01*
X020302Y020665D01*
X020121Y020740D01*
X019924Y020740D01*
X019743Y020665D01*
X019665Y020586D01*
X019694Y020656D01*
X019694Y020852D01*
X019618Y021034D01*
X019479Y021172D01*
X019385Y021212D01*
X019483Y021253D01*
X019622Y021392D01*
X019697Y021573D01*
X019697Y021769D01*
X019624Y021946D01*
X019743Y021827D01*
X019924Y021752D01*
X020121Y021752D01*
X020302Y021827D01*
X020441Y021966D01*
X020516Y022148D01*
X020516Y022344D01*
X020441Y022526D01*
X020302Y022665D01*
X020121Y022740D01*
X019924Y022740D01*
X019743Y022665D01*
X019604Y022526D01*
X019529Y022344D01*
X019529Y022148D01*
X019602Y021971D01*
X019483Y022090D01*
X019302Y022165D01*
X019106Y022165D01*
X018924Y022090D01*
X018785Y021951D01*
X018710Y021769D01*
X018710Y021573D01*
X018785Y021392D01*
X018924Y021253D01*
X019019Y021213D01*
X018920Y021172D01*
X018781Y021034D01*
X018706Y020852D01*
X018706Y020656D01*
X018781Y020474D01*
X018920Y020335D01*
X019102Y020260D01*
X019298Y020260D01*
X019479Y020335D01*
X019558Y020414D01*
X019529Y020344D01*
X019529Y020170D01*
X019444Y020085D01*
X018991Y020085D01*
X018883Y020040D01*
X018430Y019587D01*
X018347Y019504D01*
X018302Y019395D01*
X018302Y018849D01*
X016028Y016575D01*
X016009Y016771D02*
X016225Y016771D01*
X016165Y016927D02*
X016381Y016927D01*
X016321Y017083D02*
X016537Y017083D01*
X016477Y017239D02*
X016693Y017239D01*
X016633Y017395D02*
X016849Y017395D01*
X016789Y017551D02*
X017005Y017551D01*
X016945Y017707D02*
X017161Y017707D01*
X017101Y017863D02*
X017317Y017863D01*
X017256Y018019D02*
X017473Y018019D01*
X017412Y018175D02*
X017628Y018175D01*
X017568Y018331D02*
X017784Y018331D01*
X017724Y018487D02*
X017940Y018487D01*
X017880Y018643D02*
X018096Y018643D01*
X018017Y018779D02*
X018017Y018779D01*
X018036Y018799D02*
X018252Y018799D01*
X018302Y018955D02*
X018138Y018955D01*
X018145Y019111D02*
X018302Y019111D01*
X018302Y019267D02*
X018145Y019267D01*
X018145Y019423D02*
X018314Y019423D01*
X018422Y019579D02*
X018145Y019579D01*
X018145Y019735D02*
X018578Y019735D01*
X018734Y019891D02*
X018145Y019891D01*
X018145Y020047D02*
X018900Y020047D01*
X018897Y020359D02*
X018145Y020359D01*
X018145Y020515D02*
X018765Y020515D01*
X018706Y020671D02*
X018145Y020671D01*
X018145Y020827D02*
X018706Y020827D01*
X018760Y020983D02*
X018145Y020983D01*
X018145Y021139D02*
X018886Y021139D01*
X018882Y021295D02*
X018145Y021295D01*
X018145Y021451D02*
X018761Y021451D01*
X018710Y021607D02*
X018145Y021607D01*
X018145Y021763D02*
X018710Y021763D01*
X018772Y021918D02*
X018145Y021918D01*
X018145Y022074D02*
X018909Y022074D01*
X018337Y022386D02*
X019546Y022386D01*
X019529Y022230D02*
X018181Y022230D01*
X018493Y022542D02*
X019621Y022542D01*
X019825Y022698D02*
X018649Y022698D01*
X018804Y022854D02*
X033117Y022854D01*
X033117Y022698D02*
X033275Y022698D01*
X033275Y022542D02*
X033117Y022542D01*
X033117Y022386D02*
X033275Y022386D01*
X033275Y022230D02*
X033117Y022230D01*
X033117Y022074D02*
X033275Y022074D01*
X033275Y021918D02*
X033117Y021918D01*
X033117Y021763D02*
X033275Y021763D01*
X033275Y021607D02*
X033117Y021607D01*
X033117Y021451D02*
X033275Y021451D01*
X033420Y021295D02*
X032250Y021295D01*
X032373Y021171D02*
X032050Y021494D01*
X031594Y021494D01*
X031271Y021171D01*
X031271Y020715D01*
X031527Y020459D01*
X031527Y016463D01*
X031572Y016354D01*
X031655Y016271D01*
X032293Y015633D01*
X032293Y015459D01*
X032368Y015277D01*
X032507Y015138D01*
X032688Y015063D01*
X032875Y015063D01*
X032863Y015051D01*
X032688Y015051D01*
X032507Y014976D01*
X032368Y014837D01*
X032293Y014655D01*
X032293Y014459D01*
X032338Y014348D01*
X032157Y014348D01*
X032048Y014303D01*
X031243Y013498D01*
X020527Y013498D01*
X020418Y013453D01*
X020335Y013370D01*
X018709Y011744D01*
X018664Y011635D01*
X018664Y008770D01*
X018635Y008740D01*
X018590Y008632D01*
X018590Y007845D01*
X018635Y007736D01*
X018718Y007653D01*
X019404Y006967D01*
X019404Y006935D01*
X019461Y006797D01*
X019566Y006692D01*
X019704Y006635D01*
X019853Y006635D01*
X019983Y006689D01*
X019983Y006405D01*
X019860Y006282D01*
X019785Y006100D01*
X019785Y005904D01*
X019860Y005722D01*
X019999Y005583D01*
X020180Y005508D01*
X020377Y005508D01*
X020558Y005583D01*
X020697Y005722D01*
X020772Y005904D01*
X020772Y006091D01*
X020785Y006078D01*
X020785Y005904D01*
X020860Y005722D01*
X020999Y005583D01*
X021180Y005508D01*
X021377Y005508D01*
X021558Y005583D01*
X021697Y005722D01*
X021772Y005904D01*
X021772Y006100D01*
X021697Y006282D01*
X021558Y006420D01*
X021377Y006496D01*
X021202Y006496D01*
X021145Y006553D01*
X021145Y007586D01*
X021264Y007467D01*
X021431Y007398D01*
X022126Y007398D01*
X022293Y007467D01*
X022408Y007582D01*
X022408Y006549D01*
X022355Y006496D01*
X022180Y006496D01*
X021999Y006420D01*
X021860Y006282D01*
X021785Y006100D01*
X021785Y005904D01*
X021860Y005722D01*
X021999Y005583D01*
X022180Y005508D01*
X022377Y005508D01*
X022558Y005583D01*
X022697Y005722D01*
X022772Y005904D01*
X022772Y006078D01*
X022785Y006091D01*
X022785Y005904D01*
X022860Y005722D01*
X022999Y005583D01*
X023180Y005508D01*
X023377Y005508D01*
X023558Y005583D01*
X023697Y005722D01*
X023772Y005904D01*
X023772Y006100D01*
X023697Y006282D01*
X023672Y006306D01*
X023672Y008089D01*
X023717Y007982D01*
X023822Y007877D01*
X023960Y007820D01*
X024109Y007820D01*
X024195Y007855D01*
X024028Y007689D01*
X023983Y007580D01*
X023983Y006405D01*
X023860Y006282D01*
X023785Y006100D01*
X023785Y005904D01*
X023860Y005722D01*
X023999Y005583D01*
X024180Y005508D01*
X024377Y005508D01*
X024558Y005583D01*
X024697Y005722D01*
X024772Y005904D01*
X024772Y006100D01*
X024697Y006282D01*
X024574Y006405D01*
X024574Y007399D01*
X025005Y007830D01*
X025174Y008000D01*
X025966Y008791D01*
X026011Y008900D01*
X026011Y011846D01*
X026033Y011868D01*
X026091Y012006D01*
X026091Y012155D01*
X026033Y012293D01*
X025928Y012399D01*
X025790Y012456D01*
X025641Y012456D01*
X025503Y012399D01*
X025398Y012293D01*
X025341Y012155D01*
X025341Y012006D01*
X025398Y011868D01*
X025420Y011846D01*
X025420Y009081D01*
X024757Y008417D01*
X024587Y008248D01*
X024374Y008035D01*
X024409Y008120D01*
X024409Y008152D01*
X024702Y008444D01*
X024785Y008528D01*
X024830Y008636D01*
X024830Y011838D01*
X024852Y011860D01*
X024909Y011998D01*
X024909Y012147D01*
X024852Y012285D01*
X024747Y012391D01*
X024609Y012448D01*
X024460Y012448D01*
X024322Y012391D01*
X024217Y012285D01*
X024159Y012147D01*
X024159Y011998D01*
X024217Y011860D01*
X024239Y011838D01*
X024239Y008817D01*
X023992Y008570D01*
X023960Y008570D01*
X023822Y008513D01*
X023717Y008407D01*
X023672Y008300D01*
X023672Y010660D01*
X023719Y010774D01*
X023719Y010946D01*
X023654Y011105D01*
X023532Y011227D01*
X023373Y011293D01*
X023200Y011293D01*
X023041Y011227D01*
X022999Y011185D01*
X022999Y011415D01*
X023396Y011812D01*
X023424Y011812D01*
X023562Y011869D01*
X023667Y011975D01*
X023724Y012112D01*
X023724Y012262D01*
X023667Y012399D01*
X023569Y012498D01*
X032026Y012498D01*
X032135Y012543D01*
X032325Y012733D01*
X032293Y012655D01*
X032293Y012459D01*
X032368Y012277D01*
X032507Y012138D01*
X032688Y012063D01*
X032885Y012063D01*
X033066Y012138D01*
X033205Y012277D01*
X033280Y012459D01*
X033280Y012655D01*
X033236Y012762D01*
X033337Y012762D01*
X033293Y012655D01*
X033293Y012459D01*
X033368Y012277D01*
X033507Y012138D01*
X033688Y012063D01*
X033885Y012063D01*
X034066Y012138D01*
X034205Y012277D01*
X034280Y012459D01*
X034280Y012655D01*
X034205Y012837D01*
X034066Y012976D01*
X033885Y013051D01*
X033698Y013051D01*
X033710Y013063D01*
X033885Y013063D01*
X034066Y013138D01*
X034205Y013277D01*
X034280Y013459D01*
X034280Y013655D01*
X034205Y013837D01*
X034066Y013976D01*
X033885Y014051D01*
X033698Y014051D01*
X033710Y014063D01*
X033885Y014063D01*
X034066Y014138D01*
X034205Y014277D01*
X034280Y014459D01*
X034280Y014655D01*
X034205Y014837D01*
X034066Y014976D01*
X033885Y015051D01*
X033688Y015051D01*
X033582Y015007D01*
X033582Y015128D01*
X033604Y015116D01*
X033675Y015093D01*
X033749Y015081D01*
X033767Y015081D01*
X033767Y015537D01*
X033806Y015537D01*
X033806Y015081D01*
X033824Y015081D01*
X033898Y015093D01*
X033969Y015116D01*
X034036Y015150D01*
X034096Y015194D01*
X034149Y015247D01*
X034193Y015308D01*
X034227Y015374D01*
X034250Y015446D01*
X034262Y015520D01*
X034262Y015537D01*
X033806Y015537D01*
X033806Y015577D01*
X033767Y015577D01*
X033767Y016033D01*
X033749Y016033D01*
X033675Y016021D01*
X033604Y015998D01*
X033582Y015986D01*
X033582Y016132D01*
X033537Y016240D01*
X033454Y016323D01*
X032625Y017152D01*
X032625Y018328D01*
X032688Y018392D01*
X033050Y018392D01*
X033373Y018715D01*
X033373Y019171D01*
X033050Y019494D01*
X032594Y019494D01*
X032271Y019171D01*
X032271Y018809D01*
X032162Y018701D01*
X032117Y018656D01*
X032117Y020459D01*
X032373Y020715D01*
X032373Y021171D01*
X032373Y021139D02*
X033289Y021139D01*
X033289Y020983D02*
X032373Y020983D01*
X032373Y020827D02*
X033289Y020827D01*
X033289Y020903D02*
X033289Y020722D01*
X033601Y020410D01*
X033782Y020410D01*
X033782Y020903D01*
X033289Y020903D01*
X033340Y020671D02*
X032329Y020671D01*
X032173Y020515D02*
X033496Y020515D01*
X033782Y020515D02*
X033861Y020515D01*
X033861Y020671D02*
X033782Y020671D01*
X033782Y020827D02*
X033861Y020827D01*
X033861Y020982D02*
X034355Y020982D01*
X034355Y021164D01*
X034043Y021476D01*
X033861Y021476D01*
X033861Y020982D01*
X033861Y020983D02*
X033782Y020983D01*
X033782Y021139D02*
X033861Y021139D01*
X033861Y021295D02*
X033782Y021295D01*
X033782Y021451D02*
X033861Y021451D01*
X033938Y021607D02*
X034357Y021607D01*
X034357Y021763D02*
X034144Y021763D01*
X034288Y021918D02*
X034357Y021918D01*
X034357Y021451D02*
X034068Y021451D01*
X034224Y021295D02*
X034357Y021295D01*
X034355Y021139D02*
X034357Y021139D01*
X034355Y020983D02*
X034357Y020983D01*
X034355Y020827D02*
X034357Y020827D01*
X034357Y020671D02*
X034304Y020671D01*
X034357Y020515D02*
X034148Y020515D01*
X034357Y020359D02*
X032117Y020359D01*
X032117Y020203D02*
X034357Y020203D01*
X034357Y020047D02*
X032117Y020047D01*
X032117Y019891D02*
X034357Y019891D01*
X034357Y019735D02*
X032117Y019735D01*
X032117Y019579D02*
X034357Y019579D01*
X034357Y019423D02*
X033121Y019423D01*
X033277Y019267D02*
X034357Y019267D01*
X034357Y019111D02*
X033373Y019111D01*
X033373Y018955D02*
X034357Y018955D01*
X034357Y018799D02*
X033373Y018799D01*
X033301Y018643D02*
X034357Y018643D01*
X034357Y018487D02*
X033145Y018487D01*
X032628Y018331D02*
X034357Y018331D01*
X034357Y018175D02*
X032625Y018175D01*
X032625Y018019D02*
X033407Y018019D01*
X033199Y017863D02*
X032625Y017863D01*
X032625Y017707D02*
X033068Y017707D01*
X033003Y017551D02*
X032625Y017551D01*
X032625Y017395D02*
X032960Y017395D01*
X032960Y017239D02*
X032625Y017239D01*
X032694Y017083D02*
X032974Y017083D01*
X033038Y016927D02*
X032850Y016927D01*
X033006Y016771D02*
X033127Y016771D01*
X033162Y016615D02*
X033283Y016615D01*
X033318Y016459D02*
X033611Y016459D01*
X033474Y016303D02*
X034357Y016303D01*
X034357Y016147D02*
X033575Y016147D01*
X033582Y015991D02*
X033591Y015991D01*
X033767Y015991D02*
X033806Y015991D01*
X033806Y016033D02*
X033806Y015577D01*
X034262Y015577D01*
X034262Y015594D01*
X034250Y015668D01*
X034227Y015740D01*
X034193Y015806D01*
X034149Y015867D01*
X034096Y015920D01*
X034036Y015964D01*
X033969Y015998D01*
X033898Y016021D01*
X033824Y016033D01*
X033806Y016033D01*
X033982Y015991D02*
X034357Y015991D01*
X034357Y015835D02*
X034172Y015835D01*
X034247Y015679D02*
X034357Y015679D01*
X034357Y015523D02*
X034262Y015523D01*
X034224Y015367D02*
X034357Y015367D01*
X034357Y015211D02*
X034113Y015211D01*
X034357Y015055D02*
X033582Y015055D01*
X033767Y015211D02*
X033806Y015211D01*
X033806Y015367D02*
X033767Y015367D01*
X033767Y015523D02*
X033806Y015523D01*
X033806Y015679D02*
X033767Y015679D01*
X033767Y015835D02*
X033806Y015835D01*
X033962Y016459D02*
X034357Y016459D01*
X034357Y016615D02*
X034289Y016615D01*
X034357Y018019D02*
X034166Y018019D01*
X032260Y018799D02*
X032117Y018799D01*
X032117Y018955D02*
X032271Y018955D01*
X032271Y019111D02*
X032117Y019111D01*
X032117Y019267D02*
X032366Y019267D01*
X032522Y019423D02*
X032117Y019423D01*
X031527Y019423D02*
X024830Y019423D01*
X024830Y019349D02*
X024830Y019764D01*
X024882Y019764D01*
X025049Y019833D01*
X025177Y019961D01*
X025246Y020128D01*
X025246Y020309D01*
X025177Y020476D01*
X025049Y020604D01*
X024882Y020673D01*
X024187Y020673D01*
X024020Y020604D01*
X023908Y020492D01*
X023908Y020984D01*
X023944Y020934D01*
X023993Y020886D01*
X024048Y020845D01*
X024110Y020814D01*
X024175Y020793D01*
X024243Y020782D01*
X024534Y020782D01*
X024534Y021218D01*
X024534Y021218D01*
X024534Y020782D01*
X024826Y020782D01*
X024894Y020793D01*
X024959Y020814D01*
X025021Y020845D01*
X025076Y020886D01*
X025125Y020934D01*
X025165Y020990D01*
X025196Y021051D01*
X025217Y021116D01*
X025228Y021184D01*
X025228Y021218D01*
X024534Y021218D01*
X024534Y021655D01*
X024243Y021655D01*
X024175Y021644D01*
X024110Y021623D01*
X024048Y021592D01*
X023993Y021551D01*
X023944Y021503D01*
X023908Y021453D01*
X023908Y021765D01*
X023998Y021855D01*
X024020Y021833D01*
X024187Y021764D01*
X024882Y021764D01*
X025049Y021833D01*
X025177Y021961D01*
X025246Y022128D01*
X025246Y022309D01*
X025177Y022476D01*
X025049Y022604D01*
X024882Y022673D01*
X024187Y022673D01*
X024020Y022604D01*
X023930Y022514D01*
X023885Y022514D01*
X023777Y022469D01*
X023495Y022187D01*
X023498Y022209D01*
X023498Y022226D01*
X023042Y022226D01*
X023042Y021770D01*
X023060Y021770D01*
X023134Y021782D01*
X023205Y021805D01*
X023272Y021839D01*
X023318Y021873D01*
X023318Y020649D01*
X023302Y020665D01*
X023121Y020740D01*
X022924Y020740D01*
X022743Y020665D01*
X022604Y020526D01*
X022529Y020344D01*
X022529Y020148D01*
X022604Y019966D01*
X022743Y019827D01*
X022924Y019752D01*
X023121Y019752D01*
X023302Y019827D01*
X023318Y019843D01*
X023318Y019069D01*
X023363Y018961D01*
X024231Y018092D01*
X024231Y014650D01*
X024209Y014628D01*
X024152Y014490D01*
X024152Y014341D01*
X024209Y014203D01*
X024314Y014097D01*
X024452Y014040D01*
X024601Y014040D01*
X024739Y014097D01*
X024844Y014203D01*
X024902Y014341D01*
X024902Y014490D01*
X024844Y014628D01*
X024822Y014650D01*
X024822Y018273D01*
X024777Y018382D01*
X023908Y019250D01*
X023908Y019944D01*
X024020Y019833D01*
X024187Y019764D01*
X024239Y019764D01*
X024239Y019168D01*
X024284Y019059D01*
X026605Y016738D01*
X026605Y014694D01*
X026583Y014671D01*
X026526Y014533D01*
X026526Y014384D01*
X026583Y014246D01*
X026688Y014141D01*
X026826Y014084D01*
X026975Y014084D01*
X027113Y014141D01*
X027218Y014246D01*
X027276Y014384D01*
X027276Y014533D01*
X027218Y014671D01*
X027196Y014694D01*
X027196Y016919D01*
X027151Y017027D01*
X027068Y017110D01*
X024830Y019349D01*
X024912Y019267D02*
X031527Y019267D01*
X031527Y019111D02*
X025068Y019111D01*
X025223Y018955D02*
X031527Y018955D01*
X031527Y018799D02*
X025379Y018799D01*
X025535Y018643D02*
X031527Y018643D01*
X031527Y018487D02*
X025691Y018487D01*
X025847Y018331D02*
X031527Y018331D01*
X031527Y018175D02*
X026003Y018175D01*
X026159Y018019D02*
X031527Y018019D01*
X031527Y017863D02*
X026315Y017863D01*
X026471Y017707D02*
X031527Y017707D01*
X031527Y017551D02*
X026627Y017551D01*
X026783Y017395D02*
X031527Y017395D01*
X031527Y017239D02*
X026939Y017239D01*
X027095Y017083D02*
X031527Y017083D01*
X031527Y016927D02*
X027192Y016927D01*
X027196Y016771D02*
X031527Y016771D01*
X031527Y016615D02*
X027196Y016615D01*
X027196Y016459D02*
X031528Y016459D01*
X031623Y016303D02*
X027196Y016303D01*
X027196Y016147D02*
X031779Y016147D01*
X031655Y016271D02*
X031655Y016271D01*
X031935Y015991D02*
X027196Y015991D01*
X027196Y015835D02*
X032091Y015835D01*
X032247Y015679D02*
X027196Y015679D01*
X027196Y015523D02*
X032293Y015523D01*
X032331Y015367D02*
X027196Y015367D01*
X027196Y015211D02*
X032434Y015211D01*
X032431Y014899D02*
X027196Y014899D01*
X027196Y014743D02*
X032329Y014743D01*
X032293Y014587D02*
X027253Y014587D01*
X027276Y014431D02*
X032304Y014431D01*
X032020Y014275D02*
X027231Y014275D01*
X027062Y014119D02*
X031864Y014119D01*
X031708Y013963D02*
X016574Y013963D01*
X016574Y013807D02*
X031552Y013807D01*
X031396Y013652D02*
X016574Y013652D01*
X016574Y013496D02*
X020521Y013496D01*
X020305Y013340D02*
X016574Y013340D01*
X016574Y013184D02*
X020149Y013184D01*
X019993Y013028D02*
X016574Y013028D01*
X016574Y012872D02*
X018358Y012872D01*
X018307Y012821D02*
X018250Y012683D01*
X018250Y012651D01*
X018028Y012429D01*
X017983Y012320D01*
X017983Y006405D01*
X017860Y006282D01*
X017785Y006100D01*
X017785Y005904D01*
X017860Y005722D01*
X017999Y005583D01*
X018180Y005508D01*
X018377Y005508D01*
X018558Y005583D01*
X018697Y005722D01*
X018772Y005904D01*
X018772Y006100D01*
X018697Y006282D01*
X018574Y006405D01*
X018574Y012139D01*
X018668Y012233D01*
X018700Y012233D01*
X018837Y012290D01*
X018943Y012396D01*
X019000Y012534D01*
X019000Y012683D01*
X018943Y012821D01*
X018837Y012926D01*
X018700Y012983D01*
X018550Y012983D01*
X018413Y012926D01*
X018307Y012821D01*
X018264Y012716D02*
X016574Y012716D01*
X016574Y012560D02*
X018159Y012560D01*
X018018Y012404D02*
X016574Y012404D01*
X016574Y012248D02*
X017983Y012248D01*
X017983Y012092D02*
X016574Y012092D01*
X016574Y011936D02*
X017983Y011936D01*
X017983Y011780D02*
X016574Y011780D01*
X016574Y011624D02*
X017983Y011624D01*
X017983Y011468D02*
X016574Y011468D01*
X016574Y011312D02*
X017983Y011312D01*
X017983Y011156D02*
X016574Y011156D01*
X016574Y011000D02*
X017983Y011000D01*
X017983Y010844D02*
X016574Y010844D01*
X016574Y010688D02*
X017983Y010688D01*
X017983Y010532D02*
X016574Y010532D01*
X016574Y010376D02*
X017983Y010376D01*
X017983Y010220D02*
X016574Y010220D01*
X016574Y010064D02*
X017983Y010064D01*
X017983Y009908D02*
X016574Y009908D01*
X016574Y009752D02*
X017983Y009752D01*
X017983Y009596D02*
X016574Y009596D01*
X016574Y009440D02*
X017983Y009440D01*
X017983Y009284D02*
X016574Y009284D01*
X016574Y009128D02*
X017983Y009128D01*
X017983Y008972D02*
X016574Y008972D01*
X016574Y008816D02*
X017983Y008816D01*
X017983Y008660D02*
X016574Y008660D01*
X016574Y008504D02*
X017983Y008504D01*
X017983Y008348D02*
X016574Y008348D01*
X016574Y008192D02*
X017983Y008192D01*
X017983Y008036D02*
X016574Y008036D01*
X016574Y007880D02*
X017983Y007880D01*
X017983Y007724D02*
X016574Y007724D01*
X016574Y007568D02*
X017983Y007568D01*
X017983Y007412D02*
X016574Y007412D01*
X016574Y007256D02*
X017983Y007256D01*
X017983Y007100D02*
X016574Y007100D01*
X016574Y006944D02*
X017983Y006944D01*
X017983Y006788D02*
X016574Y006788D01*
X016574Y006632D02*
X017983Y006632D01*
X017983Y006476D02*
X017423Y006476D01*
X017377Y006496D02*
X017180Y006496D01*
X016999Y006420D01*
X016860Y006282D01*
X016785Y006100D01*
X016785Y005904D01*
X016860Y005722D01*
X016999Y005583D01*
X017180Y005508D01*
X017377Y005508D01*
X017558Y005583D01*
X017697Y005722D01*
X017772Y005904D01*
X017772Y006100D01*
X017697Y006282D01*
X017558Y006420D01*
X017377Y006496D01*
X017134Y006476D02*
X016574Y006476D01*
X016658Y006320D02*
X016899Y006320D01*
X016811Y006164D02*
X016746Y006164D01*
X016772Y006008D02*
X016785Y006008D01*
X016806Y005852D02*
X016751Y005852D01*
X016671Y005697D02*
X016886Y005697D01*
X017102Y005541D02*
X016455Y005541D01*
X016377Y005496D02*
X016180Y005496D01*
X015999Y005420D01*
X015860Y005282D01*
X015785Y005100D01*
X015785Y004904D01*
X015860Y004722D01*
X015999Y004583D01*
X016180Y004508D01*
X016377Y004508D01*
X016558Y004583D01*
X016697Y004722D01*
X016772Y004904D01*
X016772Y005100D01*
X016697Y005282D01*
X016558Y005420D01*
X016377Y005496D01*
X016594Y005385D02*
X016996Y005385D01*
X016969Y005365D02*
X016916Y005312D01*
X016872Y005251D01*
X016838Y005184D01*
X016815Y005113D01*
X016803Y005039D01*
X016803Y005022D01*
X017259Y005022D01*
X017259Y005477D01*
X017241Y005477D01*
X017167Y005466D01*
X017096Y005443D01*
X017029Y005409D01*
X016969Y005365D01*
X016860Y005229D02*
X016719Y005229D01*
X016772Y005073D02*
X016808Y005073D01*
X016803Y004982D02*
X016803Y004964D01*
X016815Y004891D01*
X016838Y004819D01*
X016872Y004753D01*
X016916Y004692D01*
X016969Y004639D01*
X017029Y004595D01*
X017096Y004561D01*
X017167Y004538D01*
X017241Y004526D01*
X017259Y004526D01*
X017259Y004982D01*
X017298Y004982D01*
X017298Y004526D01*
X017316Y004526D01*
X017390Y004538D01*
X017461Y004561D01*
X017528Y004595D01*
X017588Y004639D01*
X017641Y004692D01*
X017685Y004753D01*
X017719Y004819D01*
X017742Y004891D01*
X017754Y004964D01*
X017754Y004982D01*
X017298Y004982D01*
X017298Y005022D01*
X017259Y005022D01*
X017259Y004982D01*
X016803Y004982D01*
X016811Y004917D02*
X016772Y004917D01*
X016713Y004761D02*
X016868Y004761D01*
X017016Y004605D02*
X016579Y004605D01*
X016484Y004499D02*
X016073Y004499D01*
X015782Y004208D01*
X015782Y003796D01*
X016073Y003505D01*
X016484Y003505D01*
X016775Y003796D01*
X016775Y004208D01*
X016484Y004499D01*
X016534Y004449D02*
X017023Y004449D01*
X017073Y004499D02*
X016782Y004208D01*
X016782Y003796D01*
X017073Y003505D01*
X017484Y003505D01*
X017775Y003796D01*
X017775Y004208D01*
X017484Y004499D01*
X017073Y004499D01*
X017259Y004605D02*
X017298Y004605D01*
X017298Y004761D02*
X017259Y004761D01*
X017259Y004917D02*
X017298Y004917D01*
X017298Y005022D02*
X017754Y005022D01*
X017754Y005039D01*
X017742Y005113D01*
X017719Y005184D01*
X017685Y005251D01*
X017641Y005312D01*
X017588Y005365D01*
X017528Y005409D01*
X017461Y005443D01*
X017390Y005466D01*
X017316Y005477D01*
X017298Y005477D01*
X017298Y005022D01*
X017298Y005073D02*
X017259Y005073D01*
X017259Y005229D02*
X017298Y005229D01*
X017298Y005385D02*
X017259Y005385D01*
X017455Y005541D02*
X018102Y005541D01*
X018180Y005496D02*
X017999Y005420D01*
X017860Y005282D01*
X017785Y005100D01*
X017785Y004904D01*
X017860Y004722D01*
X017999Y004583D01*
X018180Y004508D01*
X018377Y004508D01*
X018558Y004583D01*
X018697Y004722D01*
X018772Y004904D01*
X018772Y005100D01*
X018697Y005282D01*
X018558Y005420D01*
X018377Y005496D01*
X018180Y005496D01*
X017963Y005385D02*
X017561Y005385D01*
X017697Y005229D02*
X017838Y005229D01*
X017785Y005073D02*
X017749Y005073D01*
X017747Y004917D02*
X017785Y004917D01*
X017844Y004761D02*
X017689Y004761D01*
X017541Y004605D02*
X017978Y004605D01*
X018073Y004499D02*
X017782Y004208D01*
X017782Y003796D01*
X018073Y003505D01*
X018484Y003505D01*
X018775Y003796D01*
X018775Y004208D01*
X018484Y004499D01*
X018073Y004499D01*
X018023Y004449D02*
X017534Y004449D01*
X017690Y004293D02*
X017867Y004293D01*
X017782Y004137D02*
X017775Y004137D01*
X017775Y003981D02*
X017782Y003981D01*
X017775Y003825D02*
X017782Y003825D01*
X017909Y003669D02*
X017648Y003669D01*
X017492Y003513D02*
X018065Y003513D01*
X018073Y003499D02*
X017782Y003208D01*
X017782Y002796D01*
X018073Y002505D01*
X018484Y002505D01*
X018775Y002796D01*
X018775Y003208D01*
X018484Y003499D01*
X018073Y003499D01*
X017931Y003357D02*
X017626Y003357D01*
X017484Y003499D02*
X017073Y003499D01*
X016782Y003208D01*
X016782Y002796D01*
X017073Y002505D01*
X017484Y002505D01*
X017775Y002796D01*
X017775Y003208D01*
X017484Y003499D01*
X017775Y003201D02*
X017782Y003201D01*
X017775Y003045D02*
X017782Y003045D01*
X017775Y002889D02*
X017782Y002889D01*
X017845Y002733D02*
X017712Y002733D01*
X017556Y002577D02*
X018001Y002577D01*
X018556Y002577D02*
X019001Y002577D01*
X019073Y002505D02*
X019484Y002505D01*
X019775Y002796D01*
X019775Y003208D01*
X019484Y003499D01*
X019073Y003499D01*
X018782Y003208D01*
X018782Y002796D01*
X019073Y002505D01*
X018845Y002733D02*
X018712Y002733D01*
X018775Y002889D02*
X018782Y002889D01*
X018775Y003045D02*
X018782Y003045D01*
X018775Y003201D02*
X018782Y003201D01*
X018931Y003357D02*
X018626Y003357D01*
X018492Y003513D02*
X019065Y003513D01*
X019073Y003505D02*
X019484Y003505D01*
X019775Y003796D01*
X019775Y004208D01*
X019484Y004499D01*
X019073Y004499D01*
X018782Y004208D01*
X018782Y003796D01*
X019073Y003505D01*
X018909Y003669D02*
X018648Y003669D01*
X018775Y003825D02*
X018782Y003825D01*
X018775Y003981D02*
X018782Y003981D01*
X018775Y004137D02*
X018782Y004137D01*
X018867Y004293D02*
X018690Y004293D01*
X018534Y004449D02*
X019023Y004449D01*
X018999Y004583D02*
X019180Y004508D01*
X019377Y004508D01*
X019558Y004583D01*
X019697Y004722D01*
X019772Y004904D01*
X019772Y005100D01*
X019697Y005282D01*
X019558Y005420D01*
X019377Y005496D01*
X019180Y005496D01*
X018999Y005420D01*
X018860Y005282D01*
X018785Y005100D01*
X018785Y004904D01*
X018860Y004722D01*
X018999Y004583D01*
X018978Y004605D02*
X018579Y004605D01*
X018713Y004761D02*
X018844Y004761D01*
X018785Y004917D02*
X018772Y004917D01*
X018772Y005073D02*
X018785Y005073D01*
X018838Y005229D02*
X018719Y005229D01*
X018594Y005385D02*
X018963Y005385D01*
X019029Y005595D02*
X019096Y005561D01*
X019167Y005538D01*
X019241Y005526D01*
X019259Y005526D01*
X019259Y005982D01*
X019298Y005982D01*
X019298Y005526D01*
X019316Y005526D01*
X019390Y005538D01*
X019461Y005561D01*
X019528Y005595D01*
X019588Y005639D01*
X019641Y005692D01*
X019685Y005753D01*
X019719Y005819D01*
X019742Y005891D01*
X019754Y005964D01*
X019754Y005982D01*
X019298Y005982D01*
X019298Y006022D01*
X019259Y006022D01*
X019259Y006477D01*
X019241Y006477D01*
X019167Y006466D01*
X019096Y006443D01*
X019029Y006409D01*
X018969Y006365D01*
X018916Y006312D01*
X018872Y006251D01*
X018838Y006184D01*
X018815Y006113D01*
X018803Y006039D01*
X018803Y006022D01*
X019259Y006022D01*
X019259Y005982D01*
X018803Y005982D01*
X018803Y005964D01*
X018815Y005891D01*
X018838Y005819D01*
X018872Y005753D01*
X018916Y005692D01*
X018969Y005639D01*
X019029Y005595D01*
X019159Y005541D02*
X018455Y005541D01*
X018671Y005697D02*
X018913Y005697D01*
X018827Y005852D02*
X018751Y005852D01*
X018772Y006008D02*
X019259Y006008D01*
X019298Y006008D02*
X019785Y006008D01*
X019754Y006022D02*
X019754Y006039D01*
X019742Y006113D01*
X019719Y006184D01*
X019685Y006251D01*
X019641Y006312D01*
X019588Y006365D01*
X019528Y006409D01*
X019461Y006443D01*
X019390Y006466D01*
X019316Y006477D01*
X019298Y006477D01*
X019298Y006022D01*
X019754Y006022D01*
X019726Y006164D02*
X019811Y006164D01*
X019899Y006320D02*
X019633Y006320D01*
X019298Y006320D02*
X019259Y006320D01*
X019259Y006164D02*
X019298Y006164D01*
X019298Y005852D02*
X019259Y005852D01*
X019259Y005697D02*
X019298Y005697D01*
X019298Y005541D02*
X019259Y005541D01*
X019398Y005541D02*
X020102Y005541D01*
X020180Y005496D02*
X019999Y005420D01*
X019860Y005282D01*
X019785Y005100D01*
X019785Y004904D01*
X019860Y004722D01*
X019999Y004583D01*
X020180Y004508D01*
X020377Y004508D01*
X020558Y004583D01*
X020697Y004722D01*
X020772Y004904D01*
X020772Y005100D01*
X020697Y005282D01*
X020558Y005420D01*
X020377Y005496D01*
X020180Y005496D01*
X019963Y005385D02*
X019594Y005385D01*
X019719Y005229D02*
X019838Y005229D01*
X019785Y005073D02*
X019772Y005073D01*
X019772Y004917D02*
X019785Y004917D01*
X019844Y004761D02*
X019713Y004761D01*
X019579Y004605D02*
X019978Y004605D01*
X020073Y004499D02*
X019782Y004208D01*
X019782Y003796D01*
X020073Y003505D01*
X020484Y003505D01*
X020775Y003796D01*
X020775Y004208D01*
X020484Y004499D01*
X020073Y004499D01*
X020023Y004449D02*
X019534Y004449D01*
X019690Y004293D02*
X019867Y004293D01*
X019782Y004137D02*
X019775Y004137D01*
X019775Y003981D02*
X019782Y003981D01*
X019775Y003825D02*
X019782Y003825D01*
X019909Y003669D02*
X019648Y003669D01*
X019492Y003513D02*
X020065Y003513D01*
X020073Y003499D02*
X019782Y003208D01*
X019782Y002796D01*
X020073Y002505D01*
X020484Y002505D01*
X020775Y002796D01*
X020775Y003208D01*
X020484Y003499D01*
X020073Y003499D01*
X019931Y003357D02*
X019626Y003357D01*
X019775Y003201D02*
X019782Y003201D01*
X019775Y003045D02*
X019782Y003045D01*
X019775Y002889D02*
X019782Y002889D01*
X019845Y002733D02*
X019712Y002733D01*
X019556Y002577D02*
X020001Y002577D01*
X020556Y002577D02*
X021001Y002577D01*
X021073Y002505D02*
X021484Y002505D01*
X021775Y002796D01*
X021775Y003208D01*
X021484Y003499D01*
X021073Y003499D01*
X020782Y003208D01*
X020782Y002796D01*
X021073Y002505D01*
X020845Y002733D02*
X020712Y002733D01*
X020775Y002889D02*
X020782Y002889D01*
X020775Y003045D02*
X020782Y003045D01*
X020775Y003201D02*
X020782Y003201D01*
X020931Y003357D02*
X020626Y003357D01*
X020492Y003513D02*
X021065Y003513D01*
X021073Y003505D02*
X021484Y003505D01*
X021775Y003796D01*
X021775Y004208D01*
X021484Y004499D01*
X021073Y004499D01*
X020782Y004208D01*
X020782Y003796D01*
X021073Y003505D01*
X020909Y003669D02*
X020648Y003669D01*
X020775Y003825D02*
X020782Y003825D01*
X020775Y003981D02*
X020782Y003981D01*
X020775Y004137D02*
X020782Y004137D01*
X020867Y004293D02*
X020690Y004293D01*
X020534Y004449D02*
X021023Y004449D01*
X020999Y004583D02*
X021180Y004508D01*
X021377Y004508D01*
X021558Y004583D01*
X021697Y004722D01*
X021772Y004904D01*
X021772Y005100D01*
X021697Y005282D01*
X021558Y005420D01*
X021377Y005496D01*
X021180Y005496D01*
X020999Y005420D01*
X020860Y005282D01*
X020785Y005100D01*
X020785Y004904D01*
X020860Y004722D01*
X020999Y004583D01*
X020978Y004605D02*
X020579Y004605D01*
X020713Y004761D02*
X020844Y004761D01*
X020785Y004917D02*
X020772Y004917D01*
X020772Y005073D02*
X020785Y005073D01*
X020838Y005229D02*
X020719Y005229D01*
X020594Y005385D02*
X020963Y005385D01*
X021102Y005541D02*
X020455Y005541D01*
X020671Y005697D02*
X020886Y005697D01*
X020806Y005852D02*
X020751Y005852D01*
X020772Y006008D02*
X020785Y006008D01*
X021423Y006476D02*
X022134Y006476D01*
X021899Y006320D02*
X021658Y006320D01*
X021746Y006164D02*
X021811Y006164D01*
X021785Y006008D02*
X021772Y006008D01*
X021751Y005852D02*
X021806Y005852D01*
X021886Y005697D02*
X021671Y005697D01*
X021455Y005541D02*
X022102Y005541D01*
X022096Y005443D02*
X022029Y005409D01*
X021969Y005365D01*
X021916Y005312D01*
X021872Y005251D01*
X021838Y005184D01*
X021815Y005113D01*
X021803Y005039D01*
X021803Y005022D01*
X022259Y005022D01*
X022259Y005477D01*
X022241Y005477D01*
X022167Y005466D01*
X022096Y005443D01*
X021996Y005385D02*
X021594Y005385D01*
X021719Y005229D02*
X021860Y005229D01*
X021808Y005073D02*
X021772Y005073D01*
X021803Y004982D02*
X021803Y004964D01*
X021815Y004891D01*
X021838Y004819D01*
X021872Y004753D01*
X021916Y004692D01*
X021969Y004639D01*
X022029Y004595D01*
X022096Y004561D01*
X022167Y004538D01*
X022241Y004526D01*
X022259Y004526D01*
X022259Y004982D01*
X022298Y004982D01*
X022298Y004526D01*
X022316Y004526D01*
X022390Y004538D01*
X022461Y004561D01*
X022528Y004595D01*
X022588Y004639D01*
X022641Y004692D01*
X022685Y004753D01*
X022719Y004819D01*
X022742Y004891D01*
X022754Y004964D01*
X022754Y004982D01*
X022298Y004982D01*
X022298Y005022D01*
X022259Y005022D01*
X022259Y004982D01*
X021803Y004982D01*
X021811Y004917D02*
X021772Y004917D01*
X021713Y004761D02*
X021868Y004761D01*
X022016Y004605D02*
X021579Y004605D01*
X021534Y004449D02*
X022023Y004449D01*
X022073Y004499D02*
X021782Y004208D01*
X021782Y003796D01*
X022073Y003505D01*
X022484Y003505D01*
X022775Y003796D01*
X022775Y004208D01*
X022484Y004499D01*
X022073Y004499D01*
X022259Y004605D02*
X022298Y004605D01*
X022298Y004761D02*
X022259Y004761D01*
X022259Y004917D02*
X022298Y004917D01*
X022298Y005022D02*
X022754Y005022D01*
X022754Y005039D01*
X022742Y005113D01*
X022719Y005184D01*
X022685Y005251D01*
X022641Y005312D01*
X022588Y005365D01*
X022528Y005409D01*
X022461Y005443D01*
X022390Y005466D01*
X022316Y005477D01*
X022298Y005477D01*
X022298Y005022D01*
X022298Y005073D02*
X022259Y005073D01*
X022259Y005229D02*
X022298Y005229D01*
X022298Y005385D02*
X022259Y005385D01*
X022455Y005541D02*
X023102Y005541D01*
X023180Y005496D02*
X022999Y005420D01*
X022860Y005282D01*
X022785Y005100D01*
X022785Y004904D01*
X022860Y004722D01*
X022999Y004583D01*
X023180Y004508D01*
X023377Y004508D01*
X023558Y004583D01*
X023697Y004722D01*
X023772Y004904D01*
X023772Y005100D01*
X023697Y005282D01*
X023558Y005420D01*
X023377Y005496D01*
X023180Y005496D01*
X022963Y005385D02*
X022561Y005385D01*
X022697Y005229D02*
X022838Y005229D01*
X022785Y005073D02*
X022749Y005073D01*
X022747Y004917D02*
X022785Y004917D01*
X022844Y004761D02*
X022689Y004761D01*
X022541Y004605D02*
X022978Y004605D01*
X023073Y004499D02*
X022782Y004208D01*
X022782Y003796D01*
X023073Y003505D01*
X023484Y003505D01*
X023775Y003796D01*
X023775Y004208D01*
X023484Y004499D01*
X023073Y004499D01*
X023023Y004449D02*
X022534Y004449D01*
X022690Y004293D02*
X022867Y004293D01*
X022782Y004137D02*
X022775Y004137D01*
X022775Y003981D02*
X022782Y003981D01*
X022775Y003825D02*
X022782Y003825D01*
X022909Y003669D02*
X022648Y003669D01*
X022492Y003513D02*
X023065Y003513D01*
X023073Y003499D02*
X022782Y003208D01*
X022782Y002796D01*
X023073Y002505D01*
X023484Y002505D01*
X023775Y002796D01*
X023775Y003208D01*
X023484Y003499D01*
X023073Y003499D01*
X022931Y003357D02*
X022626Y003357D01*
X022484Y003499D02*
X022073Y003499D01*
X021782Y003208D01*
X021782Y002796D01*
X022073Y002505D01*
X022484Y002505D01*
X022775Y002796D01*
X022775Y003208D01*
X022484Y003499D01*
X022775Y003201D02*
X022782Y003201D01*
X022775Y003045D02*
X022782Y003045D01*
X022775Y002889D02*
X022782Y002889D01*
X022845Y002733D02*
X022712Y002733D01*
X022556Y002577D02*
X023001Y002577D01*
X023556Y002577D02*
X024001Y002577D01*
X024073Y002505D02*
X024484Y002505D01*
X024775Y002796D01*
X024775Y003208D01*
X024484Y003499D01*
X024073Y003499D01*
X023782Y003208D01*
X023782Y002796D01*
X024073Y002505D01*
X023845Y002733D02*
X023712Y002733D01*
X023775Y002889D02*
X023782Y002889D01*
X023775Y003045D02*
X023782Y003045D01*
X023775Y003201D02*
X023782Y003201D01*
X023931Y003357D02*
X023626Y003357D01*
X023492Y003513D02*
X024065Y003513D01*
X024073Y003505D02*
X024484Y003505D01*
X024775Y003796D01*
X024775Y004208D01*
X024484Y004499D01*
X024073Y004499D01*
X023782Y004208D01*
X023782Y003796D01*
X024073Y003505D01*
X023909Y003669D02*
X023648Y003669D01*
X023775Y003825D02*
X023782Y003825D01*
X023775Y003981D02*
X023782Y003981D01*
X023775Y004137D02*
X023782Y004137D01*
X023867Y004293D02*
X023690Y004293D01*
X023534Y004449D02*
X024023Y004449D01*
X023999Y004583D02*
X024180Y004508D01*
X024377Y004508D01*
X024558Y004583D01*
X024697Y004722D01*
X024772Y004904D01*
X024772Y005100D01*
X024697Y005282D01*
X024558Y005420D01*
X024377Y005496D01*
X024180Y005496D01*
X023999Y005420D01*
X023860Y005282D01*
X023785Y005100D01*
X023785Y004904D01*
X023860Y004722D01*
X023999Y004583D01*
X023978Y004605D02*
X023579Y004605D01*
X023713Y004761D02*
X023844Y004761D01*
X023785Y004917D02*
X023772Y004917D01*
X023772Y005073D02*
X023785Y005073D01*
X023838Y005229D02*
X023719Y005229D01*
X023594Y005385D02*
X023963Y005385D01*
X024102Y005541D02*
X023455Y005541D01*
X023671Y005697D02*
X023886Y005697D01*
X023806Y005852D02*
X023751Y005852D01*
X023772Y006008D02*
X023785Y006008D01*
X023811Y006164D02*
X023746Y006164D01*
X023672Y006320D02*
X023899Y006320D01*
X023983Y006476D02*
X023672Y006476D01*
X023672Y006632D02*
X023983Y006632D01*
X023983Y006788D02*
X023672Y006788D01*
X023672Y006944D02*
X023983Y006944D01*
X023983Y007100D02*
X023672Y007100D01*
X023672Y007256D02*
X023983Y007256D01*
X023983Y007412D02*
X023672Y007412D01*
X023672Y007568D02*
X023983Y007568D01*
X024064Y007724D02*
X023672Y007724D01*
X023672Y007880D02*
X023819Y007880D01*
X023694Y008036D02*
X023672Y008036D01*
X023672Y008348D02*
X023692Y008348D01*
X023672Y008504D02*
X023814Y008504D01*
X023672Y008660D02*
X024082Y008660D01*
X024238Y008816D02*
X023672Y008816D01*
X023672Y008972D02*
X024239Y008972D01*
X024239Y009128D02*
X023672Y009128D01*
X023672Y009284D02*
X024239Y009284D01*
X024239Y009440D02*
X023672Y009440D01*
X023672Y009596D02*
X024239Y009596D01*
X024239Y009752D02*
X023672Y009752D01*
X023672Y009908D02*
X024239Y009908D01*
X024239Y010064D02*
X023672Y010064D01*
X023672Y010220D02*
X024239Y010220D01*
X024239Y010376D02*
X023672Y010376D01*
X023672Y010532D02*
X024239Y010532D01*
X024239Y010688D02*
X023684Y010688D01*
X023719Y010844D02*
X024239Y010844D01*
X024239Y011000D02*
X023697Y011000D01*
X023603Y011156D02*
X024239Y011156D01*
X024239Y011312D02*
X022999Y011312D01*
X023052Y011468D02*
X024239Y011468D01*
X024239Y011624D02*
X023208Y011624D01*
X023364Y011780D02*
X024239Y011780D01*
X024185Y011936D02*
X023628Y011936D01*
X023716Y012092D02*
X024159Y012092D01*
X024201Y012248D02*
X023724Y012248D01*
X023663Y012404D02*
X024353Y012404D01*
X024715Y012404D02*
X025516Y012404D01*
X025379Y012248D02*
X024868Y012248D01*
X024909Y012092D02*
X025341Y012092D01*
X025370Y011936D02*
X024884Y011936D01*
X024830Y011780D02*
X025420Y011780D01*
X025420Y011624D02*
X024830Y011624D01*
X024830Y011468D02*
X025420Y011468D01*
X025420Y011312D02*
X024830Y011312D01*
X024830Y011156D02*
X025420Y011156D01*
X025420Y011000D02*
X024830Y011000D01*
X024830Y010844D02*
X025420Y010844D01*
X025420Y010688D02*
X024830Y010688D01*
X024830Y010532D02*
X025420Y010532D01*
X025420Y010376D02*
X024830Y010376D01*
X024830Y010220D02*
X025420Y010220D01*
X025420Y010064D02*
X024830Y010064D01*
X024830Y009908D02*
X025420Y009908D01*
X025420Y009752D02*
X024830Y009752D01*
X024830Y009596D02*
X025420Y009596D01*
X025420Y009440D02*
X024830Y009440D01*
X024830Y009284D02*
X025420Y009284D01*
X025420Y009128D02*
X024830Y009128D01*
X024830Y008972D02*
X025311Y008972D01*
X025155Y008816D02*
X024830Y008816D01*
X024830Y008660D02*
X025000Y008660D01*
X024844Y008504D02*
X024761Y008504D01*
X024688Y008348D02*
X024605Y008348D01*
X024532Y008192D02*
X024449Y008192D01*
X024375Y008036D02*
X024376Y008036D01*
X024899Y007724D02*
X025898Y007724D01*
X025940Y007867D02*
X026041Y007867D01*
X025111Y006937D01*
X025028Y006854D01*
X024983Y006746D01*
X024983Y006405D01*
X024860Y006282D01*
X024785Y006100D01*
X024785Y005904D01*
X024860Y005722D01*
X024999Y005583D01*
X025180Y005508D01*
X025377Y005508D01*
X025558Y005583D01*
X025697Y005722D01*
X025772Y005904D01*
X025772Y006100D01*
X025697Y006282D01*
X025574Y006405D01*
X025574Y006565D01*
X028324Y009315D01*
X028369Y009423D01*
X028369Y011838D01*
X028392Y011860D01*
X028449Y011998D01*
X028449Y012147D01*
X028392Y012285D01*
X028286Y012391D01*
X028148Y012448D01*
X027999Y012448D01*
X027861Y012391D01*
X027756Y012285D01*
X027699Y012147D01*
X027699Y011998D01*
X027756Y011860D01*
X027779Y011838D01*
X027779Y009605D01*
X027158Y008984D01*
X027192Y009065D01*
X027192Y011846D01*
X027215Y011868D01*
X027272Y012006D01*
X027272Y012155D01*
X027215Y012293D01*
X027109Y012399D01*
X026971Y012456D01*
X026822Y012456D01*
X026684Y012399D01*
X026579Y012293D01*
X026522Y012155D01*
X026522Y012006D01*
X026579Y011868D01*
X026601Y011846D01*
X026601Y009246D01*
X025972Y008617D01*
X025940Y008617D01*
X025802Y008560D01*
X025697Y008454D01*
X025640Y008317D01*
X025640Y008167D01*
X025697Y008030D01*
X025802Y007924D01*
X025940Y007867D01*
X025908Y007880D02*
X025055Y007880D01*
X025211Y008036D02*
X025694Y008036D01*
X025640Y008192D02*
X025367Y008192D01*
X025523Y008348D02*
X025653Y008348D01*
X025679Y008504D02*
X025747Y008504D01*
X025835Y008660D02*
X026015Y008660D01*
X025976Y008816D02*
X026171Y008816D01*
X026327Y008972D02*
X026011Y008972D01*
X026011Y009128D02*
X026483Y009128D01*
X026601Y009284D02*
X026011Y009284D01*
X026011Y009440D02*
X026601Y009440D01*
X026601Y009596D02*
X026011Y009596D01*
X026011Y009752D02*
X026601Y009752D01*
X026601Y009908D02*
X026011Y009908D01*
X026011Y010064D02*
X026601Y010064D01*
X026601Y010220D02*
X026011Y010220D01*
X026011Y010376D02*
X026601Y010376D01*
X026601Y010532D02*
X026011Y010532D01*
X026011Y010688D02*
X026601Y010688D01*
X026601Y010844D02*
X026011Y010844D01*
X026011Y011000D02*
X026601Y011000D01*
X026601Y011156D02*
X026011Y011156D01*
X026011Y011312D02*
X026601Y011312D01*
X026601Y011468D02*
X026011Y011468D01*
X026011Y011624D02*
X026601Y011624D01*
X026601Y011780D02*
X026011Y011780D01*
X026061Y011936D02*
X026551Y011936D01*
X026522Y012092D02*
X026091Y012092D01*
X026052Y012248D02*
X026560Y012248D01*
X026697Y012404D02*
X025916Y012404D01*
X027097Y012404D02*
X027893Y012404D01*
X027740Y012248D02*
X027233Y012248D01*
X027272Y012092D02*
X027699Y012092D01*
X027725Y011936D02*
X027242Y011936D01*
X027192Y011780D02*
X027779Y011780D01*
X027779Y011624D02*
X027192Y011624D01*
X027192Y011468D02*
X027779Y011468D01*
X027779Y011312D02*
X027192Y011312D01*
X027192Y011156D02*
X027779Y011156D01*
X027779Y011000D02*
X027192Y011000D01*
X027192Y010844D02*
X027779Y010844D01*
X027779Y010688D02*
X027192Y010688D01*
X027192Y010532D02*
X027779Y010532D01*
X027779Y010376D02*
X027192Y010376D01*
X027192Y010220D02*
X027779Y010220D01*
X027779Y010064D02*
X027192Y010064D01*
X027192Y009908D02*
X027779Y009908D01*
X027779Y009752D02*
X027192Y009752D01*
X027192Y009596D02*
X027770Y009596D01*
X027614Y009440D02*
X027192Y009440D01*
X027192Y009284D02*
X027458Y009284D01*
X027302Y009128D02*
X027192Y009128D01*
X027669Y008660D02*
X034357Y008660D01*
X034357Y008504D02*
X034284Y008504D01*
X034357Y008816D02*
X027825Y008816D01*
X027981Y008972D02*
X034357Y008972D01*
X034357Y009128D02*
X034041Y009128D01*
X034066Y009138D02*
X034205Y009277D01*
X034280Y009459D01*
X034280Y009655D01*
X034205Y009837D01*
X034066Y009976D01*
X033885Y010051D01*
X033688Y010051D01*
X033507Y009976D01*
X033368Y009837D01*
X033293Y009655D01*
X033293Y009459D01*
X033368Y009277D01*
X033507Y009138D01*
X033688Y009063D01*
X033885Y009063D01*
X034066Y009138D01*
X034208Y009284D02*
X034357Y009284D01*
X034357Y009440D02*
X034272Y009440D01*
X034280Y009596D02*
X034357Y009596D01*
X034357Y009752D02*
X034240Y009752D01*
X034134Y009908D02*
X034357Y009908D01*
X034357Y010064D02*
X033886Y010064D01*
X033885Y010063D02*
X034066Y010138D01*
X034205Y010277D01*
X034280Y010459D01*
X034280Y010655D01*
X034205Y010837D01*
X034066Y010976D01*
X033885Y011051D01*
X033688Y011051D01*
X033507Y010976D01*
X033368Y010837D01*
X033293Y010655D01*
X033293Y010459D01*
X033368Y010277D01*
X033507Y010138D01*
X033688Y010063D01*
X033885Y010063D01*
X033687Y010064D02*
X032886Y010064D01*
X032885Y010063D02*
X033066Y010138D01*
X033205Y010277D01*
X033280Y010459D01*
X033280Y010655D01*
X033205Y010837D01*
X033066Y010976D01*
X032885Y011051D01*
X032688Y011051D01*
X032507Y010976D01*
X032368Y010837D01*
X032293Y010655D01*
X032293Y010459D01*
X032368Y010277D01*
X032507Y010138D01*
X032688Y010063D01*
X032885Y010063D01*
X032885Y010051D02*
X032688Y010051D01*
X032507Y009976D01*
X032368Y009837D01*
X032293Y009655D01*
X032293Y009459D01*
X032368Y009277D01*
X032507Y009138D01*
X032688Y009063D01*
X032885Y009063D01*
X033066Y009138D01*
X033205Y009277D01*
X033280Y009459D01*
X033280Y009655D01*
X033205Y009837D01*
X033066Y009976D01*
X032885Y010051D01*
X032687Y010064D02*
X028369Y010064D01*
X028369Y010220D02*
X032425Y010220D01*
X032327Y010376D02*
X028369Y010376D01*
X028369Y010532D02*
X032293Y010532D01*
X032306Y010688D02*
X028369Y010688D01*
X028369Y010844D02*
X032375Y010844D01*
X032565Y011000D02*
X028369Y011000D01*
X028369Y011156D02*
X032489Y011156D01*
X032507Y011138D02*
X032688Y011063D01*
X032885Y011063D01*
X033066Y011138D01*
X033205Y011277D01*
X033280Y011459D01*
X033280Y011655D01*
X033205Y011837D01*
X033066Y011976D01*
X032885Y012051D01*
X032688Y012051D01*
X032507Y011976D01*
X032368Y011837D01*
X032293Y011655D01*
X032293Y011459D01*
X032368Y011277D01*
X032507Y011138D01*
X032354Y011312D02*
X028369Y011312D01*
X028369Y011468D02*
X032293Y011468D01*
X032293Y011624D02*
X028369Y011624D01*
X028369Y011780D02*
X032344Y011780D01*
X032467Y011936D02*
X028423Y011936D01*
X028449Y012092D02*
X032620Y012092D01*
X032398Y012248D02*
X028407Y012248D01*
X028255Y012404D02*
X032316Y012404D01*
X032293Y012560D02*
X032152Y012560D01*
X032307Y012716D02*
X032318Y012716D01*
X031845Y013089D02*
X031669Y013089D01*
X032338Y013758D01*
X032355Y013758D01*
X032346Y013740D01*
X032323Y013668D01*
X032311Y013594D01*
X032311Y013577D01*
X032767Y013577D01*
X032767Y013537D01*
X032311Y013537D01*
X032311Y013520D01*
X032323Y013446D01*
X032346Y013374D01*
X032357Y013352D01*
X032173Y013352D01*
X032064Y013307D01*
X031845Y013089D01*
X031764Y013184D02*
X031940Y013184D01*
X031920Y013340D02*
X032142Y013340D01*
X032076Y013496D02*
X032315Y013496D01*
X032320Y013652D02*
X032232Y013652D01*
X032806Y013577D02*
X033262Y013577D01*
X033262Y013594D01*
X033250Y013668D01*
X033227Y013740D01*
X033218Y013758D01*
X033335Y013758D01*
X033293Y013655D01*
X033293Y013481D01*
X033247Y013435D01*
X033250Y013446D01*
X033262Y013520D01*
X033262Y013537D01*
X032806Y013537D01*
X032806Y013577D01*
X033253Y013652D02*
X033293Y013652D01*
X033293Y013496D02*
X033258Y013496D01*
X033940Y013028D02*
X034357Y013028D01*
X034357Y013184D02*
X034111Y013184D01*
X034231Y013340D02*
X034357Y013340D01*
X034357Y013496D02*
X034280Y013496D01*
X034280Y013652D02*
X034357Y013652D01*
X034357Y013807D02*
X034217Y013807D01*
X034078Y013963D02*
X034357Y013963D01*
X034357Y014119D02*
X034020Y014119D01*
X034203Y014275D02*
X034357Y014275D01*
X034357Y014431D02*
X034269Y014431D01*
X034280Y014587D02*
X034357Y014587D01*
X034357Y014743D02*
X034244Y014743D01*
X034142Y014899D02*
X034357Y014899D01*
X032867Y015055D02*
X027196Y015055D01*
X026605Y015055D02*
X024822Y015055D01*
X024822Y014899D02*
X026605Y014899D01*
X026605Y014743D02*
X024822Y014743D01*
X024861Y014587D02*
X026548Y014587D01*
X026526Y014431D02*
X024902Y014431D01*
X024874Y014275D02*
X026571Y014275D01*
X026740Y014119D02*
X024761Y014119D01*
X024292Y014119D02*
X016574Y014119D01*
X016574Y014275D02*
X024179Y014275D01*
X024152Y014431D02*
X016574Y014431D01*
X016574Y014587D02*
X024192Y014587D01*
X024231Y014743D02*
X016574Y014743D01*
X016574Y014899D02*
X024231Y014899D01*
X024231Y015055D02*
X016574Y015055D01*
X016574Y015211D02*
X024231Y015211D01*
X024231Y015367D02*
X016574Y015367D01*
X016574Y015523D02*
X024231Y015523D01*
X024231Y015679D02*
X016574Y015679D01*
X016574Y015835D02*
X024231Y015835D01*
X024231Y015991D02*
X016574Y015991D01*
X016574Y016147D02*
X024231Y016147D01*
X024231Y016303D02*
X016592Y016303D01*
X016748Y016459D02*
X024231Y016459D01*
X024231Y016615D02*
X016904Y016615D01*
X017060Y016771D02*
X024231Y016771D01*
X024231Y016927D02*
X017216Y016927D01*
X017372Y017083D02*
X024231Y017083D01*
X024231Y017239D02*
X017528Y017239D01*
X017684Y017395D02*
X024231Y017395D01*
X024231Y017551D02*
X017840Y017551D01*
X017996Y017707D02*
X024231Y017707D01*
X024231Y017863D02*
X018152Y017863D01*
X018308Y018019D02*
X024231Y018019D01*
X024149Y018175D02*
X018464Y018175D01*
X018620Y018331D02*
X018982Y018331D01*
X019180Y018331D02*
X019219Y018331D01*
X019219Y018487D02*
X019180Y018487D01*
X019180Y018643D02*
X019219Y018643D01*
X019219Y018774D02*
X019675Y018774D01*
X019675Y018791D01*
X019664Y018865D01*
X019641Y018936D01*
X019607Y019003D01*
X019563Y019064D01*
X019510Y019117D01*
X019449Y019161D01*
X019382Y019195D01*
X019311Y019218D01*
X019237Y019229D01*
X019219Y019229D01*
X019219Y018774D01*
X019219Y018799D02*
X019180Y018799D01*
X019180Y018955D02*
X019219Y018955D01*
X019219Y019111D02*
X019180Y019111D01*
X018945Y019267D02*
X023318Y019267D01*
X023318Y019423D02*
X019101Y019423D01*
X019515Y019111D02*
X023318Y019111D01*
X023369Y018955D02*
X019631Y018955D01*
X019674Y018799D02*
X023525Y018799D01*
X024048Y019111D02*
X024263Y019111D01*
X024239Y019267D02*
X023908Y019267D01*
X023908Y019423D02*
X024239Y019423D01*
X024239Y019579D02*
X023908Y019579D01*
X023908Y019735D02*
X024239Y019735D01*
X023962Y019891D02*
X023908Y019891D01*
X023318Y019735D02*
X019929Y019735D01*
X019773Y019579D02*
X023318Y019579D01*
X022680Y019891D02*
X020366Y019891D01*
X020474Y020047D02*
X022571Y020047D01*
X022529Y020203D02*
X020516Y020203D01*
X020510Y020359D02*
X022535Y020359D01*
X022600Y020515D02*
X020446Y020515D01*
X020288Y020671D02*
X022758Y020671D01*
X023288Y020671D02*
X023318Y020671D01*
X023318Y020827D02*
X019694Y020827D01*
X019694Y020671D02*
X019758Y020671D01*
X019639Y020983D02*
X023318Y020983D01*
X023318Y021139D02*
X019513Y021139D01*
X019525Y021295D02*
X023318Y021295D01*
X023318Y021451D02*
X019647Y021451D01*
X019697Y021607D02*
X023318Y021607D01*
X023318Y021763D02*
X020145Y021763D01*
X019900Y021763D02*
X019697Y021763D01*
X019652Y021918D02*
X019636Y021918D01*
X019559Y022074D02*
X019499Y022074D01*
X020393Y021918D02*
X022678Y021918D01*
X022660Y021936D02*
X022713Y021883D01*
X022773Y021839D01*
X022840Y021805D01*
X022911Y021782D01*
X022985Y021770D01*
X023003Y021770D01*
X023003Y022226D01*
X023042Y022226D01*
X023042Y022266D01*
X023003Y022266D01*
X023003Y022722D01*
X022985Y022722D01*
X022911Y022710D01*
X022840Y022687D01*
X022773Y022653D01*
X022713Y022609D01*
X022660Y022556D01*
X022616Y022495D01*
X022582Y022429D01*
X022559Y022357D01*
X022547Y022283D01*
X022547Y022266D01*
X023003Y022266D01*
X023003Y022226D01*
X022547Y022226D01*
X022547Y022209D01*
X022559Y022135D01*
X022582Y022063D01*
X022616Y021997D01*
X022660Y021936D01*
X022578Y022074D02*
X020486Y022074D01*
X020516Y022230D02*
X023003Y022230D01*
X023042Y022230D02*
X023538Y022230D01*
X023498Y022266D02*
X023498Y022283D01*
X023487Y022357D01*
X023463Y022429D01*
X023429Y022495D01*
X023385Y022556D01*
X023332Y022609D01*
X023272Y022653D01*
X023205Y022687D01*
X023134Y022710D01*
X023060Y022722D01*
X023042Y022722D01*
X023042Y022266D01*
X023498Y022266D01*
X023477Y022386D02*
X023694Y022386D01*
X023958Y022542D02*
X023395Y022542D01*
X023169Y022698D02*
X031799Y022698D01*
X031819Y022542D02*
X031016Y022542D01*
X030955Y022604D02*
X030788Y022673D01*
X030092Y022673D01*
X029925Y022604D01*
X029797Y022476D01*
X029728Y022309D01*
X029728Y022128D01*
X029797Y021961D01*
X029925Y021833D01*
X030092Y021764D01*
X030788Y021764D01*
X030955Y021833D01*
X031083Y021961D01*
X031152Y022128D01*
X031152Y022309D01*
X031083Y022476D01*
X030955Y022604D01*
X031120Y022386D02*
X031857Y022386D01*
X031914Y022230D02*
X031152Y022230D01*
X031130Y022074D02*
X031994Y022074D01*
X032104Y021918D02*
X031040Y021918D01*
X030897Y021607D02*
X032453Y021607D01*
X032248Y021763D02*
X023908Y021763D01*
X023908Y021607D02*
X024078Y021607D01*
X024534Y021607D02*
X024534Y021607D01*
X024534Y021655D02*
X024534Y021218D01*
X024534Y021218D01*
X024534Y021218D01*
X025228Y021218D01*
X025228Y021253D01*
X025217Y021321D01*
X025196Y021386D01*
X025165Y021447D01*
X025125Y021503D01*
X025076Y021551D01*
X025021Y021592D01*
X024959Y021623D01*
X024894Y021644D01*
X024826Y021655D01*
X024534Y021655D01*
X024534Y021451D02*
X024534Y021451D01*
X024534Y021295D02*
X024534Y021295D01*
X024534Y021139D02*
X024534Y021139D01*
X024534Y020983D02*
X024534Y020983D01*
X024534Y020827D02*
X024534Y020827D01*
X024181Y020671D02*
X023908Y020671D01*
X023908Y020827D02*
X024085Y020827D01*
X023908Y020983D02*
X023909Y020983D01*
X023908Y020515D02*
X023931Y020515D01*
X024887Y020671D02*
X026150Y020671D01*
X026155Y020673D02*
X025988Y020604D01*
X025860Y020476D01*
X025791Y020309D01*
X025791Y020128D01*
X025860Y019961D01*
X025988Y019833D01*
X026155Y019764D01*
X026851Y019764D01*
X027018Y019833D01*
X027146Y019961D01*
X027215Y020128D01*
X027215Y020309D01*
X027146Y020476D01*
X027018Y020604D01*
X026851Y020673D01*
X026155Y020673D01*
X026143Y020793D02*
X026211Y020782D01*
X026503Y020782D01*
X026795Y020782D01*
X026863Y020793D01*
X026928Y020814D01*
X026989Y020845D01*
X027045Y020886D01*
X027093Y020934D01*
X027134Y020990D01*
X027165Y021051D01*
X027186Y021116D01*
X027197Y021184D01*
X027197Y021218D01*
X026503Y021218D01*
X026503Y020782D01*
X026503Y021218D01*
X026503Y021218D01*
X026503Y021218D01*
X025809Y021218D01*
X025809Y021184D01*
X025820Y021116D01*
X025841Y021051D01*
X025872Y020990D01*
X025913Y020934D01*
X025961Y020886D01*
X026017Y020845D01*
X026078Y020814D01*
X026143Y020793D01*
X026054Y020827D02*
X024984Y020827D01*
X025160Y020983D02*
X025878Y020983D01*
X025816Y021139D02*
X025221Y021139D01*
X025222Y021295D02*
X025816Y021295D01*
X025820Y021321D02*
X025809Y021253D01*
X025809Y021218D01*
X026503Y021218D01*
X026503Y021218D01*
X027197Y021218D01*
X027197Y021253D01*
X027186Y021321D01*
X027165Y021386D01*
X027134Y021447D01*
X027093Y021503D01*
X027045Y021551D01*
X026989Y021592D01*
X026928Y021623D01*
X026863Y021644D01*
X026795Y021655D01*
X026503Y021655D01*
X026503Y021218D01*
X026503Y021218D01*
X026503Y021655D01*
X026211Y021655D01*
X026143Y021644D01*
X026078Y021623D01*
X026017Y021592D01*
X025961Y021551D01*
X025913Y021503D01*
X025872Y021447D01*
X025841Y021386D01*
X025820Y021321D01*
X025875Y021451D02*
X025162Y021451D01*
X024991Y021607D02*
X026046Y021607D01*
X026155Y021764D02*
X025988Y021833D01*
X025860Y021961D01*
X025791Y022128D01*
X025791Y022309D01*
X025860Y022476D01*
X025988Y022604D01*
X026155Y022673D01*
X026851Y022673D01*
X027018Y022604D01*
X027146Y022476D01*
X027215Y022309D01*
X027215Y022128D01*
X027146Y021961D01*
X027018Y021833D01*
X026851Y021764D01*
X026155Y021764D01*
X025903Y021918D02*
X025134Y021918D01*
X025224Y022074D02*
X025813Y022074D01*
X025791Y022230D02*
X025246Y022230D01*
X025214Y022386D02*
X025823Y022386D01*
X025927Y022542D02*
X025110Y022542D01*
X026503Y021607D02*
X026503Y021607D01*
X026503Y021451D02*
X026503Y021451D01*
X026503Y021295D02*
X026503Y021295D01*
X026503Y021139D02*
X026503Y021139D01*
X026503Y020983D02*
X026503Y020983D01*
X026503Y020827D02*
X026503Y020827D01*
X026856Y020671D02*
X028118Y020671D01*
X028124Y020673D02*
X027957Y020604D01*
X027829Y020476D01*
X027760Y020309D01*
X027760Y020128D01*
X027829Y019961D01*
X027957Y019833D01*
X028124Y019764D01*
X028819Y019764D01*
X028986Y019833D01*
X029114Y019961D01*
X029183Y020128D01*
X029183Y020309D01*
X029114Y020476D01*
X028986Y020604D01*
X028819Y020673D01*
X028124Y020673D01*
X028112Y020793D02*
X028180Y020782D01*
X028471Y020782D01*
X028471Y021218D01*
X028471Y021218D01*
X027778Y021218D01*
X027778Y021184D01*
X027788Y021116D01*
X027810Y021051D01*
X027841Y020990D01*
X027881Y020934D01*
X027930Y020886D01*
X027985Y020845D01*
X028047Y020814D01*
X028112Y020793D01*
X028022Y020827D02*
X026952Y020827D01*
X027128Y020983D02*
X027846Y020983D01*
X027785Y021139D02*
X027189Y021139D01*
X027190Y021295D02*
X027784Y021295D01*
X027788Y021321D02*
X027778Y021253D01*
X027778Y021218D01*
X028471Y021218D01*
X028471Y021218D01*
X028471Y020782D01*
X028763Y020782D01*
X028831Y020793D01*
X028896Y020814D01*
X028958Y020845D01*
X029013Y020886D01*
X029062Y020934D01*
X029102Y020990D01*
X029133Y021051D01*
X029154Y021116D01*
X029165Y021184D01*
X029165Y021218D01*
X028471Y021218D01*
X028471Y021655D01*
X028180Y021655D01*
X028112Y021644D01*
X028047Y021623D01*
X027985Y021592D01*
X027930Y021551D01*
X027881Y021503D01*
X027841Y021447D01*
X027810Y021386D01*
X027788Y021321D01*
X027843Y021451D02*
X027131Y021451D01*
X026960Y021607D02*
X028015Y021607D01*
X028124Y021764D02*
X027957Y021833D01*
X027829Y021961D01*
X027760Y022128D01*
X027760Y022309D01*
X027829Y022476D01*
X027957Y022604D01*
X028124Y022673D01*
X028819Y022673D01*
X028986Y022604D01*
X029114Y022476D01*
X029183Y022309D01*
X029183Y022128D01*
X029114Y021961D01*
X028986Y021833D01*
X028819Y021764D01*
X028124Y021764D01*
X027871Y021918D02*
X027103Y021918D01*
X027193Y022074D02*
X027782Y022074D01*
X027760Y022230D02*
X027215Y022230D01*
X027183Y022386D02*
X027792Y022386D01*
X027895Y022542D02*
X027079Y022542D01*
X028471Y021655D02*
X028471Y021218D01*
X028471Y021218D01*
X028471Y021218D01*
X029165Y021218D01*
X029165Y021253D01*
X029154Y021321D01*
X029133Y021386D01*
X029102Y021447D01*
X029062Y021503D01*
X029013Y021551D01*
X028958Y021592D01*
X028896Y021623D01*
X028831Y021644D01*
X028763Y021655D01*
X028471Y021655D01*
X028471Y021607D02*
X028471Y021607D01*
X028471Y021451D02*
X028471Y021451D01*
X028471Y021295D02*
X028471Y021295D01*
X028471Y021139D02*
X028471Y021139D01*
X028471Y020983D02*
X028471Y020983D01*
X028471Y020827D02*
X028471Y020827D01*
X028824Y020671D02*
X030087Y020671D01*
X030092Y020673D02*
X029925Y020604D01*
X029797Y020476D01*
X029728Y020309D01*
X029728Y020128D01*
X029797Y019961D01*
X029925Y019833D01*
X030092Y019764D01*
X030788Y019764D01*
X030955Y019833D01*
X031083Y019961D01*
X031152Y020128D01*
X031152Y020309D01*
X031083Y020476D01*
X030955Y020604D01*
X030788Y020673D01*
X030092Y020673D01*
X030080Y020793D02*
X030148Y020782D01*
X030440Y020782D01*
X030732Y020782D01*
X030800Y020793D01*
X030865Y020814D01*
X030926Y020845D01*
X030982Y020886D01*
X031030Y020934D01*
X031071Y020990D01*
X031102Y021051D01*
X031123Y021116D01*
X031134Y021184D01*
X031134Y021218D01*
X030440Y021218D01*
X030440Y020782D01*
X030440Y021218D01*
X030440Y021218D01*
X030440Y021218D01*
X029746Y021218D01*
X029746Y021184D01*
X029757Y021116D01*
X029778Y021051D01*
X029809Y020990D01*
X029850Y020934D01*
X029898Y020886D01*
X029954Y020845D01*
X030015Y020814D01*
X030080Y020793D01*
X029991Y020827D02*
X028921Y020827D01*
X029097Y020983D02*
X029815Y020983D01*
X029753Y021139D02*
X029158Y021139D01*
X029159Y021295D02*
X029753Y021295D01*
X029757Y021321D02*
X029746Y021253D01*
X029746Y021218D01*
X030440Y021218D01*
X030440Y021218D01*
X031134Y021218D01*
X031134Y021253D01*
X031123Y021321D01*
X031102Y021386D01*
X031071Y021447D01*
X031030Y021503D01*
X030982Y021551D01*
X030926Y021592D01*
X030865Y021623D01*
X030800Y021644D01*
X030732Y021655D01*
X030440Y021655D01*
X030440Y021218D01*
X030440Y021655D01*
X030148Y021655D01*
X030080Y021644D01*
X030015Y021623D01*
X029954Y021592D01*
X029898Y021551D01*
X029850Y021503D01*
X029809Y021447D01*
X029778Y021386D01*
X029757Y021321D01*
X029812Y021451D02*
X029100Y021451D01*
X028928Y021607D02*
X029983Y021607D01*
X029840Y021918D02*
X029072Y021918D01*
X029161Y022074D02*
X029750Y022074D01*
X029728Y022230D02*
X029183Y022230D01*
X029151Y022386D02*
X029760Y022386D01*
X029864Y022542D02*
X029047Y022542D01*
X030440Y021607D02*
X030440Y021607D01*
X030440Y021451D02*
X030440Y021451D01*
X030440Y021295D02*
X030440Y021295D01*
X030440Y021218D02*
X030440Y021218D01*
X030440Y021139D02*
X030440Y021139D01*
X030440Y020983D02*
X030440Y020983D01*
X030440Y020827D02*
X030440Y020827D01*
X030793Y020671D02*
X031315Y020671D01*
X031271Y020827D02*
X030889Y020827D01*
X031065Y020983D02*
X031271Y020983D01*
X031271Y021139D02*
X031126Y021139D01*
X031127Y021295D02*
X031394Y021295D01*
X031550Y021451D02*
X031068Y021451D01*
X032094Y021451D02*
X032802Y021451D01*
X031471Y020515D02*
X031044Y020515D01*
X031131Y020359D02*
X031527Y020359D01*
X031527Y020203D02*
X031152Y020203D01*
X031118Y020047D02*
X031527Y020047D01*
X031527Y019891D02*
X031012Y019891D01*
X031527Y019735D02*
X024830Y019735D01*
X024830Y019579D02*
X031527Y019579D01*
X029868Y019891D02*
X029044Y019891D01*
X029150Y020047D02*
X029762Y020047D01*
X029728Y020203D02*
X029183Y020203D01*
X029163Y020359D02*
X029749Y020359D01*
X029836Y020515D02*
X029075Y020515D01*
X027868Y020515D02*
X027107Y020515D01*
X027194Y020359D02*
X027780Y020359D01*
X027760Y020203D02*
X027215Y020203D01*
X027181Y020047D02*
X027793Y020047D01*
X027899Y019891D02*
X027075Y019891D01*
X025931Y019891D02*
X025107Y019891D01*
X025213Y020047D02*
X025825Y020047D01*
X025791Y020203D02*
X025246Y020203D01*
X025226Y020359D02*
X025812Y020359D01*
X025899Y020515D02*
X025138Y020515D01*
X024388Y018955D02*
X024204Y018955D01*
X024360Y018799D02*
X024544Y018799D01*
X024516Y018643D02*
X024700Y018643D01*
X024672Y018487D02*
X024856Y018487D01*
X024798Y018331D02*
X025012Y018331D01*
X025168Y018175D02*
X024822Y018175D01*
X024822Y018019D02*
X025324Y018019D01*
X025480Y017863D02*
X024822Y017863D01*
X024822Y017707D02*
X025636Y017707D01*
X025792Y017551D02*
X024822Y017551D01*
X024822Y017395D02*
X025948Y017395D01*
X026104Y017239D02*
X024822Y017239D01*
X024822Y017083D02*
X026260Y017083D01*
X026416Y016927D02*
X024822Y016927D01*
X024822Y016771D02*
X026572Y016771D01*
X026605Y016615D02*
X024822Y016615D01*
X024822Y016459D02*
X026605Y016459D01*
X026605Y016303D02*
X024822Y016303D01*
X024822Y016147D02*
X026605Y016147D01*
X026605Y015991D02*
X024822Y015991D01*
X024822Y015835D02*
X026605Y015835D01*
X026605Y015679D02*
X024822Y015679D01*
X024822Y015523D02*
X026605Y015523D01*
X026605Y015367D02*
X024822Y015367D01*
X024822Y015211D02*
X026605Y015211D01*
X023993Y018331D02*
X019417Y018331D01*
X018806Y018487D02*
X018776Y018487D01*
X018765Y018476D02*
X018765Y018476D01*
X018145Y020203D02*
X019529Y020203D01*
X019535Y020359D02*
X019503Y020359D01*
X020499Y022386D02*
X022568Y022386D01*
X022650Y022542D02*
X020424Y022542D01*
X020221Y022698D02*
X022876Y022698D01*
X023003Y022698D02*
X023042Y022698D01*
X023042Y022542D02*
X023003Y022542D01*
X023003Y022386D02*
X023042Y022386D01*
X023042Y022074D02*
X023003Y022074D01*
X023003Y021918D02*
X023042Y021918D01*
X019697Y023634D02*
X032076Y023634D01*
X031975Y023478D02*
X019658Y023478D01*
X019553Y023322D02*
X031901Y023322D01*
X031847Y023166D02*
X019116Y023166D01*
X018960Y023010D02*
X031812Y023010D01*
X032214Y023790D02*
X019689Y023790D01*
X019624Y023946D02*
X032403Y023946D01*
X034170Y012872D02*
X034357Y012872D01*
X034357Y012716D02*
X034255Y012716D01*
X034280Y012560D02*
X034357Y012560D01*
X034357Y012404D02*
X034257Y012404D01*
X034175Y012248D02*
X034357Y012248D01*
X034357Y012092D02*
X033953Y012092D01*
X033885Y012051D02*
X033688Y012051D01*
X033507Y011976D01*
X033368Y011837D01*
X033293Y011655D01*
X033293Y011459D01*
X033368Y011277D01*
X033507Y011138D01*
X033688Y011063D01*
X033885Y011063D01*
X034066Y011138D01*
X034205Y011277D01*
X034280Y011459D01*
X034280Y011655D01*
X034205Y011837D01*
X034066Y011976D01*
X033885Y012051D01*
X034106Y011936D02*
X034357Y011936D01*
X034357Y011780D02*
X034229Y011780D01*
X034280Y011624D02*
X034357Y011624D01*
X034357Y011468D02*
X034280Y011468D01*
X034219Y011312D02*
X034357Y011312D01*
X034357Y011156D02*
X034083Y011156D01*
X034007Y011000D02*
X034357Y011000D01*
X034357Y010844D02*
X034198Y010844D01*
X034267Y010688D02*
X034357Y010688D01*
X034357Y010532D02*
X034280Y010532D01*
X034246Y010376D02*
X034357Y010376D01*
X034357Y010220D02*
X034148Y010220D01*
X033425Y010220D02*
X033148Y010220D01*
X033246Y010376D02*
X033327Y010376D01*
X033293Y010532D02*
X033280Y010532D01*
X033267Y010688D02*
X033306Y010688D01*
X033375Y010844D02*
X033198Y010844D01*
X033007Y011000D02*
X033565Y011000D01*
X033489Y011156D02*
X033083Y011156D01*
X033219Y011312D02*
X033354Y011312D01*
X033293Y011468D02*
X033280Y011468D01*
X033280Y011624D02*
X033293Y011624D01*
X033344Y011780D02*
X033229Y011780D01*
X033106Y011936D02*
X033467Y011936D01*
X033620Y012092D02*
X032953Y012092D01*
X033175Y012248D02*
X033398Y012248D01*
X033316Y012404D02*
X033257Y012404D01*
X033280Y012560D02*
X033293Y012560D01*
X033318Y012716D02*
X033255Y012716D01*
X033134Y009908D02*
X033439Y009908D01*
X033333Y009752D02*
X033240Y009752D01*
X033280Y009596D02*
X033293Y009596D01*
X033300Y009440D02*
X033272Y009440D01*
X033208Y009284D02*
X033365Y009284D01*
X033532Y009128D02*
X033041Y009128D01*
X032532Y009128D02*
X028137Y009128D01*
X028293Y009284D02*
X032365Y009284D01*
X032300Y009440D02*
X028369Y009440D01*
X028369Y009596D02*
X032293Y009596D01*
X032333Y009752D02*
X028369Y009752D01*
X028369Y009908D02*
X032439Y009908D01*
X033289Y008504D02*
X027513Y008504D01*
X027357Y008348D02*
X033133Y008348D01*
X033040Y008192D02*
X027201Y008192D01*
X027045Y008036D02*
X032976Y008036D01*
X032960Y007880D02*
X026889Y007880D01*
X026733Y007724D02*
X032960Y007724D01*
X033001Y007568D02*
X026577Y007568D01*
X026421Y007412D02*
X033066Y007412D01*
X033193Y007256D02*
X026265Y007256D01*
X026110Y007100D02*
X033394Y007100D01*
X034179Y007100D02*
X034357Y007100D01*
X034357Y006944D02*
X025954Y006944D01*
X025798Y006788D02*
X034357Y006788D01*
X034357Y006632D02*
X025642Y006632D01*
X025574Y006476D02*
X034357Y006476D01*
X034357Y006320D02*
X025658Y006320D01*
X025746Y006164D02*
X034357Y006164D01*
X034357Y006008D02*
X025772Y006008D01*
X025751Y005852D02*
X034357Y005852D01*
X034357Y005697D02*
X025671Y005697D01*
X025455Y005541D02*
X034357Y005541D01*
X034357Y005385D02*
X025561Y005385D01*
X025588Y005365D02*
X025528Y005409D01*
X025461Y005443D01*
X025390Y005466D01*
X025316Y005477D01*
X025298Y005477D01*
X025298Y005022D01*
X025259Y005022D01*
X025259Y005477D01*
X025241Y005477D01*
X025167Y005466D01*
X025096Y005443D01*
X025029Y005409D01*
X024969Y005365D01*
X024916Y005312D01*
X024872Y005251D01*
X024838Y005184D01*
X024815Y005113D01*
X024803Y005039D01*
X024803Y005022D01*
X025259Y005022D01*
X025259Y004982D01*
X025298Y004982D01*
X025298Y004526D01*
X025316Y004526D01*
X025390Y004538D01*
X025461Y004561D01*
X025528Y004595D01*
X025588Y004639D01*
X025641Y004692D01*
X025685Y004753D01*
X025719Y004819D01*
X025742Y004891D01*
X025754Y004964D01*
X025754Y004982D01*
X025298Y004982D01*
X025298Y005022D01*
X025754Y005022D01*
X025754Y005039D01*
X025742Y005113D01*
X025719Y005184D01*
X025685Y005251D01*
X025641Y005312D01*
X025588Y005365D01*
X025697Y005229D02*
X034357Y005229D01*
X034357Y005073D02*
X025749Y005073D01*
X025747Y004917D02*
X034357Y004917D01*
X034357Y004761D02*
X033809Y004761D01*
X034058Y004605D02*
X034357Y004605D01*
X034357Y004449D02*
X034228Y004449D01*
X034350Y004293D02*
X034357Y004293D01*
X033275Y004293D02*
X033117Y004293D01*
X033117Y004449D02*
X033275Y004449D01*
X033275Y004605D02*
X033117Y004605D01*
X033117Y004761D02*
X033275Y004761D01*
X032583Y004761D02*
X025689Y004761D01*
X025541Y004605D02*
X032334Y004605D01*
X032164Y004449D02*
X031534Y004449D01*
X031484Y004499D02*
X031073Y004499D01*
X030782Y004208D01*
X030782Y003796D01*
X031073Y003505D01*
X031484Y003505D01*
X031775Y003796D01*
X031775Y004208D01*
X031484Y004499D01*
X031690Y004293D02*
X032041Y004293D01*
X031949Y004137D02*
X031775Y004137D01*
X031775Y003981D02*
X031880Y003981D01*
X031833Y003825D02*
X031775Y003825D01*
X031806Y003669D02*
X031648Y003669D01*
X031492Y003513D02*
X033117Y003513D01*
X033117Y003669D02*
X033275Y003669D01*
X033275Y003825D02*
X033117Y003825D01*
X033117Y003981D02*
X033275Y003981D01*
X033275Y004137D02*
X033117Y004137D01*
X031804Y003357D02*
X031626Y003357D01*
X031484Y003499D02*
X031073Y003499D01*
X030782Y003208D01*
X030782Y002796D01*
X031073Y002505D01*
X031484Y002505D01*
X031775Y002796D01*
X031775Y003208D01*
X031484Y003499D01*
X031775Y003201D02*
X031829Y003201D01*
X031872Y003045D02*
X031775Y003045D01*
X031775Y002889D02*
X031937Y002889D01*
X032027Y002733D02*
X031712Y002733D01*
X031556Y002577D02*
X032145Y002577D01*
X032307Y002421D02*
X011250Y002421D01*
X015492Y003513D02*
X016065Y003513D01*
X016073Y003499D02*
X015782Y003208D01*
X015782Y002796D01*
X016073Y002505D01*
X016484Y002505D01*
X016775Y002796D01*
X016775Y003208D01*
X016484Y003499D01*
X016073Y003499D01*
X015931Y003357D02*
X015626Y003357D01*
X015775Y003201D02*
X015782Y003201D01*
X015775Y003045D02*
X015782Y003045D01*
X015775Y002889D02*
X015782Y002889D01*
X015845Y002733D02*
X015712Y002733D01*
X015556Y002577D02*
X016001Y002577D01*
X016556Y002577D02*
X017001Y002577D01*
X016845Y002733D02*
X016712Y002733D01*
X016775Y002889D02*
X016782Y002889D01*
X016775Y003045D02*
X016782Y003045D01*
X016775Y003201D02*
X016782Y003201D01*
X016931Y003357D02*
X016626Y003357D01*
X016492Y003513D02*
X017065Y003513D01*
X016909Y003669D02*
X016648Y003669D01*
X016775Y003825D02*
X016782Y003825D01*
X016775Y003981D02*
X016782Y003981D01*
X016775Y004137D02*
X016782Y004137D01*
X016867Y004293D02*
X016690Y004293D01*
X016023Y004449D02*
X015534Y004449D01*
X015541Y004605D02*
X015978Y004605D01*
X015844Y004761D02*
X015689Y004761D01*
X015747Y004917D02*
X015785Y004917D01*
X015754Y005022D02*
X015298Y005022D01*
X015298Y005477D01*
X015316Y005477D01*
X015390Y005466D01*
X015461Y005443D01*
X015528Y005409D01*
X015588Y005365D01*
X015641Y005312D01*
X015685Y005251D01*
X015719Y005184D01*
X015742Y005113D01*
X015754Y005039D01*
X015754Y005022D01*
X015749Y005073D02*
X015785Y005073D01*
X015838Y005229D02*
X015697Y005229D01*
X015561Y005385D02*
X015963Y005385D01*
X016102Y005541D02*
X015455Y005541D01*
X015298Y005385D02*
X015259Y005385D01*
X015259Y005229D02*
X015298Y005229D01*
X015298Y005073D02*
X015259Y005073D01*
X015259Y004917D02*
X015298Y004917D01*
X015298Y004761D02*
X015259Y004761D01*
X015259Y004605D02*
X015298Y004605D01*
X015690Y004293D02*
X015867Y004293D01*
X015782Y004137D02*
X015775Y004137D01*
X015775Y003981D02*
X015782Y003981D01*
X015775Y003825D02*
X015782Y003825D01*
X015909Y003669D02*
X015648Y003669D01*
X015671Y005697D02*
X015886Y005697D01*
X015806Y005852D02*
X015751Y005852D01*
X015772Y006008D02*
X015785Y006008D01*
X015811Y006164D02*
X015746Y006164D01*
X015658Y006320D02*
X015899Y006320D01*
X015983Y006476D02*
X015574Y006476D01*
X015574Y006632D02*
X015983Y006632D01*
X015983Y006788D02*
X015574Y006788D01*
X015574Y006944D02*
X015983Y006944D01*
X015983Y007100D02*
X015574Y007100D01*
X015574Y007256D02*
X015983Y007256D01*
X015983Y007412D02*
X015574Y007412D01*
X015574Y007568D02*
X015983Y007568D01*
X015983Y007724D02*
X015574Y007724D01*
X015574Y007880D02*
X015983Y007880D01*
X015983Y008036D02*
X015574Y008036D01*
X015574Y008192D02*
X015983Y008192D01*
X015983Y008348D02*
X015574Y008348D01*
X015574Y008504D02*
X015983Y008504D01*
X015983Y008660D02*
X015574Y008660D01*
X015574Y008816D02*
X015983Y008816D01*
X015983Y008972D02*
X015574Y008972D01*
X015574Y009128D02*
X015983Y009128D01*
X015983Y009284D02*
X015574Y009284D01*
X015574Y009440D02*
X015983Y009440D01*
X015983Y009596D02*
X015574Y009596D01*
X015574Y009752D02*
X015983Y009752D01*
X015983Y009908D02*
X015574Y009908D01*
X015574Y010064D02*
X015983Y010064D01*
X015983Y010220D02*
X015574Y010220D01*
X015574Y010376D02*
X015983Y010376D01*
X015983Y010532D02*
X015574Y010532D01*
X018574Y010532D02*
X018664Y010532D01*
X018664Y010688D02*
X018574Y010688D01*
X018574Y010844D02*
X018664Y010844D01*
X018664Y011000D02*
X018574Y011000D01*
X018574Y011156D02*
X018664Y011156D01*
X018664Y011312D02*
X018574Y011312D01*
X018574Y011468D02*
X018664Y011468D01*
X018664Y011624D02*
X018574Y011624D01*
X018574Y011780D02*
X018745Y011780D01*
X018901Y011936D02*
X018574Y011936D01*
X018574Y012092D02*
X019057Y012092D01*
X019213Y012248D02*
X018734Y012248D01*
X018946Y012404D02*
X019369Y012404D01*
X019525Y012560D02*
X019000Y012560D01*
X018986Y012716D02*
X019681Y012716D01*
X019837Y012872D02*
X018892Y012872D01*
X021145Y011167D02*
X021594Y011616D01*
X021941Y011616D01*
X021964Y011593D01*
X022102Y011536D01*
X022251Y011536D01*
X022389Y011593D01*
X022421Y011626D01*
X022408Y011596D01*
X022408Y011082D01*
X022369Y011136D01*
X022320Y011185D01*
X022265Y011225D01*
X022203Y011257D01*
X022138Y011278D01*
X022070Y011289D01*
X021779Y011289D01*
X021779Y010852D01*
X021779Y010416D01*
X022070Y010416D01*
X022138Y010427D01*
X022203Y010448D01*
X022265Y010479D01*
X022320Y010520D01*
X022369Y010568D01*
X022408Y010623D01*
X022408Y008122D01*
X022293Y008237D01*
X022126Y008307D01*
X021431Y008307D01*
X021264Y008237D01*
X021145Y008118D01*
X021145Y010630D01*
X021148Y010624D01*
X021188Y010568D01*
X021237Y010520D01*
X021292Y010479D01*
X021354Y010448D01*
X021419Y010427D01*
X021487Y010416D01*
X021779Y010416D01*
X021779Y010852D01*
X021779Y010852D01*
X021779Y010852D01*
X021779Y011289D01*
X021487Y011289D01*
X021419Y011278D01*
X021354Y011257D01*
X021292Y011225D01*
X021237Y011185D01*
X021188Y011136D01*
X021148Y011081D01*
X021145Y011074D01*
X021145Y011167D01*
X021145Y011156D02*
X021208Y011156D01*
X021289Y011312D02*
X022408Y011312D01*
X022408Y011468D02*
X021445Y011468D01*
X021779Y011156D02*
X021779Y011156D01*
X021779Y011000D02*
X021779Y011000D01*
X021779Y010844D02*
X021779Y010844D01*
X021779Y010688D02*
X021779Y010688D01*
X021779Y010532D02*
X021779Y010532D01*
X022333Y010532D02*
X022408Y010532D01*
X022408Y010376D02*
X021145Y010376D01*
X021145Y010532D02*
X021225Y010532D01*
X021145Y010220D02*
X022408Y010220D01*
X022408Y010064D02*
X021145Y010064D01*
X021145Y009908D02*
X022408Y009908D01*
X022408Y009752D02*
X021145Y009752D01*
X021145Y009596D02*
X022408Y009596D01*
X022408Y009440D02*
X021145Y009440D01*
X021145Y009284D02*
X022408Y009284D01*
X022408Y009128D02*
X021145Y009128D01*
X021145Y008972D02*
X022408Y008972D01*
X022408Y008816D02*
X021145Y008816D01*
X021145Y008660D02*
X022408Y008660D01*
X022408Y008504D02*
X021145Y008504D01*
X021145Y008348D02*
X022408Y008348D01*
X022408Y008192D02*
X022339Y008192D01*
X022395Y007568D02*
X022408Y007568D01*
X022408Y007412D02*
X022161Y007412D01*
X022408Y007256D02*
X021145Y007256D01*
X021145Y007100D02*
X022408Y007100D01*
X022408Y006944D02*
X021145Y006944D01*
X021145Y006788D02*
X022408Y006788D01*
X022408Y006632D02*
X021145Y006632D01*
X021145Y007412D02*
X021396Y007412D01*
X021163Y007568D02*
X021145Y007568D01*
X021145Y008192D02*
X021218Y008192D01*
X019983Y006632D02*
X018574Y006632D01*
X018574Y006476D02*
X019234Y006476D01*
X019259Y006476D02*
X019298Y006476D01*
X019323Y006476D02*
X019983Y006476D01*
X019470Y006788D02*
X018574Y006788D01*
X018574Y006944D02*
X019404Y006944D01*
X019270Y007100D02*
X018574Y007100D01*
X018574Y007256D02*
X019114Y007256D01*
X018958Y007412D02*
X018574Y007412D01*
X018574Y007568D02*
X018802Y007568D01*
X018646Y007724D02*
X018574Y007724D01*
X018574Y007880D02*
X018590Y007880D01*
X018574Y008036D02*
X018590Y008036D01*
X018574Y008192D02*
X018590Y008192D01*
X018574Y008348D02*
X018590Y008348D01*
X018574Y008504D02*
X018590Y008504D01*
X018574Y008660D02*
X018601Y008660D01*
X018574Y008816D02*
X018664Y008816D01*
X018664Y008972D02*
X018574Y008972D01*
X018574Y009128D02*
X018664Y009128D01*
X018664Y009284D02*
X018574Y009284D01*
X018574Y009440D02*
X018664Y009440D01*
X018664Y009596D02*
X018574Y009596D01*
X018574Y009752D02*
X018664Y009752D01*
X018664Y009908D02*
X018574Y009908D01*
X018574Y010064D02*
X018664Y010064D01*
X018664Y010220D02*
X018574Y010220D01*
X018574Y010376D02*
X018664Y010376D01*
X022349Y011156D02*
X022408Y011156D01*
X022419Y011624D02*
X022420Y011624D01*
X024743Y007568D02*
X025742Y007568D01*
X025586Y007412D02*
X024587Y007412D01*
X024574Y007256D02*
X025430Y007256D01*
X025274Y007100D02*
X024574Y007100D01*
X024574Y006944D02*
X025118Y006944D01*
X025001Y006788D02*
X024574Y006788D01*
X024574Y006632D02*
X024983Y006632D01*
X024983Y006476D02*
X024574Y006476D01*
X024658Y006320D02*
X024899Y006320D01*
X024811Y006164D02*
X024746Y006164D01*
X024772Y006008D02*
X024785Y006008D01*
X024806Y005852D02*
X024751Y005852D01*
X024671Y005697D02*
X024886Y005697D01*
X025102Y005541D02*
X024455Y005541D01*
X024594Y005385D02*
X024996Y005385D01*
X024860Y005229D02*
X024719Y005229D01*
X024772Y005073D02*
X024808Y005073D01*
X024803Y004982D02*
X024803Y004964D01*
X024815Y004891D01*
X024838Y004819D01*
X024872Y004753D01*
X024916Y004692D01*
X024969Y004639D01*
X025029Y004595D01*
X025096Y004561D01*
X025167Y004538D01*
X025241Y004526D01*
X025259Y004526D01*
X025259Y004982D01*
X024803Y004982D01*
X024811Y004917D02*
X024772Y004917D01*
X024713Y004761D02*
X024868Y004761D01*
X025016Y004605D02*
X024579Y004605D01*
X024534Y004449D02*
X025023Y004449D01*
X025073Y004499D02*
X024782Y004208D01*
X024782Y003796D01*
X025073Y003505D01*
X025484Y003505D01*
X025775Y003796D01*
X025775Y004208D01*
X025484Y004499D01*
X025073Y004499D01*
X025259Y004605D02*
X025298Y004605D01*
X025298Y004761D02*
X025259Y004761D01*
X025259Y004917D02*
X025298Y004917D01*
X025298Y005073D02*
X025259Y005073D01*
X025259Y005229D02*
X025298Y005229D01*
X025298Y005385D02*
X025259Y005385D01*
X025534Y004449D02*
X026023Y004449D01*
X026073Y004499D02*
X025782Y004208D01*
X025782Y003796D01*
X026073Y003505D01*
X026484Y003505D01*
X026775Y003796D01*
X026775Y004208D01*
X026484Y004499D01*
X026073Y004499D01*
X025867Y004293D02*
X025690Y004293D01*
X025775Y004137D02*
X025782Y004137D01*
X025775Y003981D02*
X025782Y003981D01*
X025775Y003825D02*
X025782Y003825D01*
X025909Y003669D02*
X025648Y003669D01*
X025492Y003513D02*
X026065Y003513D01*
X026073Y003499D02*
X025782Y003208D01*
X025782Y002796D01*
X026073Y002505D01*
X026484Y002505D01*
X026775Y002796D01*
X026775Y003208D01*
X026484Y003499D01*
X026073Y003499D01*
X025931Y003357D02*
X025626Y003357D01*
X025484Y003499D02*
X025073Y003499D01*
X024782Y003208D01*
X024782Y002796D01*
X025073Y002505D01*
X025484Y002505D01*
X025775Y002796D01*
X025775Y003208D01*
X025484Y003499D01*
X025775Y003201D02*
X025782Y003201D01*
X025775Y003045D02*
X025782Y003045D01*
X025775Y002889D02*
X025782Y002889D01*
X025845Y002733D02*
X025712Y002733D01*
X025556Y002577D02*
X026001Y002577D01*
X026556Y002577D02*
X027001Y002577D01*
X027073Y002505D02*
X027484Y002505D01*
X027775Y002796D01*
X027775Y003208D01*
X027484Y003499D01*
X027073Y003499D01*
X026782Y003208D01*
X026782Y002796D01*
X027073Y002505D01*
X026845Y002733D02*
X026712Y002733D01*
X026775Y002889D02*
X026782Y002889D01*
X026775Y003045D02*
X026782Y003045D01*
X026775Y003201D02*
X026782Y003201D01*
X026931Y003357D02*
X026626Y003357D01*
X026492Y003513D02*
X027065Y003513D01*
X027073Y003505D02*
X027484Y003505D01*
X027775Y003796D01*
X027775Y004208D01*
X027484Y004499D01*
X027073Y004499D01*
X026782Y004208D01*
X026782Y003796D01*
X027073Y003505D01*
X026909Y003669D02*
X026648Y003669D01*
X026775Y003825D02*
X026782Y003825D01*
X026775Y003981D02*
X026782Y003981D01*
X026775Y004137D02*
X026782Y004137D01*
X026867Y004293D02*
X026690Y004293D01*
X026534Y004449D02*
X027023Y004449D01*
X027534Y004449D02*
X028023Y004449D01*
X028073Y004499D02*
X027782Y004208D01*
X027782Y003796D01*
X028073Y003505D01*
X028484Y003505D01*
X028775Y003796D01*
X028775Y004208D01*
X028484Y004499D01*
X028073Y004499D01*
X027867Y004293D02*
X027690Y004293D01*
X027775Y004137D02*
X027782Y004137D01*
X027775Y003981D02*
X027782Y003981D01*
X027775Y003825D02*
X027782Y003825D01*
X027909Y003669D02*
X027648Y003669D01*
X027492Y003513D02*
X028065Y003513D01*
X028073Y003499D02*
X027782Y003208D01*
X027782Y002796D01*
X028073Y002505D01*
X028484Y002505D01*
X028775Y002796D01*
X028775Y003208D01*
X028484Y003499D01*
X028073Y003499D01*
X027931Y003357D02*
X027626Y003357D01*
X027775Y003201D02*
X027782Y003201D01*
X027775Y003045D02*
X027782Y003045D01*
X027775Y002889D02*
X027782Y002889D01*
X027845Y002733D02*
X027712Y002733D01*
X027556Y002577D02*
X028001Y002577D01*
X028556Y002577D02*
X029001Y002577D01*
X029073Y002505D02*
X029484Y002505D01*
X029775Y002796D01*
X029775Y003208D01*
X029484Y003499D01*
X029073Y003499D01*
X028782Y003208D01*
X028782Y002796D01*
X029073Y002505D01*
X028845Y002733D02*
X028712Y002733D01*
X028775Y002889D02*
X028782Y002889D01*
X028775Y003045D02*
X028782Y003045D01*
X028775Y003201D02*
X028782Y003201D01*
X028931Y003357D02*
X028626Y003357D01*
X028492Y003513D02*
X029065Y003513D01*
X029073Y003505D02*
X029484Y003505D01*
X029775Y003796D01*
X029775Y004208D01*
X029484Y004499D01*
X029073Y004499D01*
X028782Y004208D01*
X028782Y003796D01*
X029073Y003505D01*
X028909Y003669D02*
X028648Y003669D01*
X028775Y003825D02*
X028782Y003825D01*
X028775Y003981D02*
X028782Y003981D01*
X028775Y004137D02*
X028782Y004137D01*
X028867Y004293D02*
X028690Y004293D01*
X028534Y004449D02*
X029023Y004449D01*
X029534Y004449D02*
X030023Y004449D01*
X030073Y004499D02*
X029782Y004208D01*
X029782Y003796D01*
X030073Y003505D01*
X030484Y003505D01*
X030775Y003796D01*
X030775Y004208D01*
X030484Y004499D01*
X030073Y004499D01*
X029867Y004293D02*
X029690Y004293D01*
X029775Y004137D02*
X029782Y004137D01*
X029775Y003981D02*
X029782Y003981D01*
X029775Y003825D02*
X029782Y003825D01*
X029909Y003669D02*
X029648Y003669D01*
X029492Y003513D02*
X030065Y003513D01*
X030073Y003499D02*
X029782Y003208D01*
X029782Y002796D01*
X030073Y002505D01*
X030484Y002505D01*
X030775Y002796D01*
X030775Y003208D01*
X030484Y003499D01*
X030073Y003499D01*
X029931Y003357D02*
X029626Y003357D01*
X029775Y003201D02*
X029782Y003201D01*
X029775Y003045D02*
X029782Y003045D01*
X029775Y002889D02*
X029782Y002889D01*
X029845Y002733D02*
X029712Y002733D01*
X029556Y002577D02*
X030001Y002577D01*
X030556Y002577D02*
X031001Y002577D01*
X030845Y002733D02*
X030712Y002733D01*
X030775Y002889D02*
X030782Y002889D01*
X030775Y003045D02*
X030782Y003045D01*
X030775Y003201D02*
X030782Y003201D01*
X030931Y003357D02*
X030626Y003357D01*
X030492Y003513D02*
X031065Y003513D01*
X030909Y003669D02*
X030648Y003669D01*
X030775Y003825D02*
X030782Y003825D01*
X030775Y003981D02*
X030782Y003981D01*
X030775Y004137D02*
X030782Y004137D01*
X030867Y004293D02*
X030690Y004293D01*
X030534Y004449D02*
X031023Y004449D01*
X025065Y003513D02*
X024492Y003513D01*
X024626Y003357D02*
X024931Y003357D01*
X024782Y003201D02*
X024775Y003201D01*
X024775Y003045D02*
X024782Y003045D01*
X024775Y002889D02*
X024782Y002889D01*
X024845Y002733D02*
X024712Y002733D01*
X024556Y002577D02*
X025001Y002577D01*
X024909Y003669D02*
X024648Y003669D01*
X024775Y003825D02*
X024782Y003825D01*
X024775Y003981D02*
X024782Y003981D01*
X024775Y004137D02*
X024782Y004137D01*
X024867Y004293D02*
X024690Y004293D01*
X022886Y005697D02*
X022671Y005697D01*
X022751Y005852D02*
X022806Y005852D01*
X022785Y006008D02*
X022772Y006008D01*
X021867Y004293D02*
X021690Y004293D01*
X021775Y004137D02*
X021782Y004137D01*
X021775Y003981D02*
X021782Y003981D01*
X021775Y003825D02*
X021782Y003825D01*
X021909Y003669D02*
X021648Y003669D01*
X021492Y003513D02*
X022065Y003513D01*
X021931Y003357D02*
X021626Y003357D01*
X021775Y003201D02*
X021782Y003201D01*
X021775Y003045D02*
X021782Y003045D01*
X021775Y002889D02*
X021782Y002889D01*
X021845Y002733D02*
X021712Y002733D01*
X021556Y002577D02*
X022001Y002577D01*
X019886Y005697D02*
X019645Y005697D01*
X019730Y005852D02*
X019806Y005852D01*
X018924Y006320D02*
X018658Y006320D01*
X018746Y006164D02*
X018831Y006164D01*
X017899Y006320D02*
X017658Y006320D01*
X017746Y006164D02*
X017811Y006164D01*
X017785Y006008D02*
X017772Y006008D01*
X017751Y005852D02*
X017806Y005852D01*
X017886Y005697D02*
X017671Y005697D01*
X012983Y017551D02*
X011235Y017551D01*
X011326Y017707D02*
X012983Y017707D01*
X012983Y017863D02*
X011355Y017863D01*
X011336Y018019D02*
X012983Y018019D01*
X012983Y018175D02*
X011260Y018175D01*
X011053Y018331D02*
X012983Y018331D01*
X012983Y018487D02*
X011170Y018487D01*
X011299Y018643D02*
X012983Y018643D01*
X012983Y018799D02*
X011355Y018799D01*
X011355Y018955D02*
X012983Y018955D01*
X012983Y019111D02*
X011298Y019111D01*
X011169Y019267D02*
X012983Y019267D01*
X012983Y019423D02*
X011057Y019423D01*
X011262Y019579D02*
X012983Y019579D01*
X013574Y020515D02*
X015100Y020515D01*
X015607Y018799D02*
X015706Y018799D01*
X015711Y018643D02*
X015451Y018643D01*
X015295Y018487D02*
X015776Y018487D01*
X015931Y018331D02*
X015139Y018331D01*
M02*
