G75*
%MOIN*%
%OFA0B0*%
%FSLAX24Y24*%
%IPPOS*%
%LPD*%
%AMOC8*
5,1,8,0,0,1.08239X$1,22.5*
%
%ADD10C,0.0000*%
D10*
X005909Y002149D02*
X005909Y023802D01*
X007247Y023802D02*
X007249Y023852D01*
X007255Y023902D01*
X007265Y023951D01*
X007279Y023999D01*
X007296Y024046D01*
X007317Y024091D01*
X007342Y024135D01*
X007370Y024176D01*
X007402Y024215D01*
X007436Y024252D01*
X007473Y024286D01*
X007513Y024316D01*
X007555Y024343D01*
X007599Y024367D01*
X007645Y024388D01*
X007692Y024404D01*
X007740Y024417D01*
X007790Y024426D01*
X007839Y024431D01*
X007890Y024432D01*
X007940Y024429D01*
X007989Y024422D01*
X008038Y024411D01*
X008086Y024396D01*
X008132Y024378D01*
X008177Y024356D01*
X008220Y024330D01*
X008261Y024301D01*
X008300Y024269D01*
X008336Y024234D01*
X008368Y024196D01*
X008398Y024156D01*
X008425Y024113D01*
X008448Y024069D01*
X008467Y024023D01*
X008483Y023975D01*
X008495Y023926D01*
X008503Y023877D01*
X008507Y023827D01*
X008507Y023777D01*
X008503Y023727D01*
X008495Y023678D01*
X008483Y023629D01*
X008467Y023581D01*
X008448Y023535D01*
X008425Y023491D01*
X008398Y023448D01*
X008368Y023408D01*
X008336Y023370D01*
X008300Y023335D01*
X008261Y023303D01*
X008220Y023274D01*
X008177Y023248D01*
X008132Y023226D01*
X008086Y023208D01*
X008038Y023193D01*
X007989Y023182D01*
X007940Y023175D01*
X007890Y023172D01*
X007839Y023173D01*
X007790Y023178D01*
X007740Y023187D01*
X007692Y023200D01*
X007645Y023216D01*
X007599Y023237D01*
X007555Y023261D01*
X007513Y023288D01*
X007473Y023318D01*
X007436Y023352D01*
X007402Y023389D01*
X007370Y023428D01*
X007342Y023469D01*
X007317Y023513D01*
X007296Y023558D01*
X007279Y023605D01*
X007265Y023653D01*
X007255Y023702D01*
X007249Y023752D01*
X007247Y023802D01*
X005908Y023802D02*
X005910Y023888D01*
X005915Y023974D01*
X005925Y024059D01*
X005938Y024144D01*
X005955Y024228D01*
X005975Y024312D01*
X005999Y024394D01*
X006027Y024475D01*
X006058Y024556D01*
X006092Y024634D01*
X006130Y024711D01*
X006172Y024787D01*
X006216Y024860D01*
X006264Y024931D01*
X006315Y025001D01*
X006369Y025068D01*
X006425Y025132D01*
X006485Y025194D01*
X006547Y025254D01*
X006611Y025310D01*
X006678Y025364D01*
X006748Y025415D01*
X006819Y025463D01*
X006893Y025507D01*
X006968Y025549D01*
X007045Y025587D01*
X007123Y025621D01*
X007204Y025652D01*
X007285Y025680D01*
X007367Y025704D01*
X007451Y025724D01*
X007535Y025741D01*
X007620Y025754D01*
X007705Y025764D01*
X007791Y025769D01*
X007877Y025771D01*
X039373Y025771D01*
X038743Y023802D02*
X038745Y023852D01*
X038751Y023902D01*
X038761Y023951D01*
X038775Y023999D01*
X038792Y024046D01*
X038813Y024091D01*
X038838Y024135D01*
X038866Y024176D01*
X038898Y024215D01*
X038932Y024252D01*
X038969Y024286D01*
X039009Y024316D01*
X039051Y024343D01*
X039095Y024367D01*
X039141Y024388D01*
X039188Y024404D01*
X039236Y024417D01*
X039286Y024426D01*
X039335Y024431D01*
X039386Y024432D01*
X039436Y024429D01*
X039485Y024422D01*
X039534Y024411D01*
X039582Y024396D01*
X039628Y024378D01*
X039673Y024356D01*
X039716Y024330D01*
X039757Y024301D01*
X039796Y024269D01*
X039832Y024234D01*
X039864Y024196D01*
X039894Y024156D01*
X039921Y024113D01*
X039944Y024069D01*
X039963Y024023D01*
X039979Y023975D01*
X039991Y023926D01*
X039999Y023877D01*
X040003Y023827D01*
X040003Y023777D01*
X039999Y023727D01*
X039991Y023678D01*
X039979Y023629D01*
X039963Y023581D01*
X039944Y023535D01*
X039921Y023491D01*
X039894Y023448D01*
X039864Y023408D01*
X039832Y023370D01*
X039796Y023335D01*
X039757Y023303D01*
X039716Y023274D01*
X039673Y023248D01*
X039628Y023226D01*
X039582Y023208D01*
X039534Y023193D01*
X039485Y023182D01*
X039436Y023175D01*
X039386Y023172D01*
X039335Y023173D01*
X039286Y023178D01*
X039236Y023187D01*
X039188Y023200D01*
X039141Y023216D01*
X039095Y023237D01*
X039051Y023261D01*
X039009Y023288D01*
X038969Y023318D01*
X038932Y023352D01*
X038898Y023389D01*
X038866Y023428D01*
X038838Y023469D01*
X038813Y023513D01*
X038792Y023558D01*
X038775Y023605D01*
X038761Y023653D01*
X038751Y023702D01*
X038745Y023752D01*
X038743Y023802D01*
X039373Y025771D02*
X039459Y025769D01*
X039545Y025764D01*
X039630Y025754D01*
X039715Y025741D01*
X039799Y025724D01*
X039883Y025704D01*
X039965Y025680D01*
X040046Y025652D01*
X040127Y025621D01*
X040205Y025587D01*
X040282Y025549D01*
X040358Y025507D01*
X040431Y025463D01*
X040502Y025415D01*
X040572Y025364D01*
X040639Y025310D01*
X040703Y025254D01*
X040765Y025194D01*
X040825Y025132D01*
X040881Y025068D01*
X040935Y025001D01*
X040986Y024931D01*
X041034Y024860D01*
X041078Y024787D01*
X041120Y024711D01*
X041158Y024634D01*
X041192Y024556D01*
X041223Y024475D01*
X041251Y024394D01*
X041275Y024312D01*
X041295Y024228D01*
X041312Y024144D01*
X041325Y024059D01*
X041335Y023974D01*
X041340Y023888D01*
X041342Y023802D01*
X041342Y002149D01*
X038743Y002149D02*
X038745Y002199D01*
X038751Y002249D01*
X038761Y002298D01*
X038775Y002346D01*
X038792Y002393D01*
X038813Y002438D01*
X038838Y002482D01*
X038866Y002523D01*
X038898Y002562D01*
X038932Y002599D01*
X038969Y002633D01*
X039009Y002663D01*
X039051Y002690D01*
X039095Y002714D01*
X039141Y002735D01*
X039188Y002751D01*
X039236Y002764D01*
X039286Y002773D01*
X039335Y002778D01*
X039386Y002779D01*
X039436Y002776D01*
X039485Y002769D01*
X039534Y002758D01*
X039582Y002743D01*
X039628Y002725D01*
X039673Y002703D01*
X039716Y002677D01*
X039757Y002648D01*
X039796Y002616D01*
X039832Y002581D01*
X039864Y002543D01*
X039894Y002503D01*
X039921Y002460D01*
X039944Y002416D01*
X039963Y002370D01*
X039979Y002322D01*
X039991Y002273D01*
X039999Y002224D01*
X040003Y002174D01*
X040003Y002124D01*
X039999Y002074D01*
X039991Y002025D01*
X039979Y001976D01*
X039963Y001928D01*
X039944Y001882D01*
X039921Y001838D01*
X039894Y001795D01*
X039864Y001755D01*
X039832Y001717D01*
X039796Y001682D01*
X039757Y001650D01*
X039716Y001621D01*
X039673Y001595D01*
X039628Y001573D01*
X039582Y001555D01*
X039534Y001540D01*
X039485Y001529D01*
X039436Y001522D01*
X039386Y001519D01*
X039335Y001520D01*
X039286Y001525D01*
X039236Y001534D01*
X039188Y001547D01*
X039141Y001563D01*
X039095Y001584D01*
X039051Y001608D01*
X039009Y001635D01*
X038969Y001665D01*
X038932Y001699D01*
X038898Y001736D01*
X038866Y001775D01*
X038838Y001816D01*
X038813Y001860D01*
X038792Y001905D01*
X038775Y001952D01*
X038761Y002000D01*
X038751Y002049D01*
X038745Y002099D01*
X038743Y002149D01*
X039373Y000180D02*
X039459Y000182D01*
X039545Y000187D01*
X039630Y000197D01*
X039715Y000210D01*
X039799Y000227D01*
X039883Y000247D01*
X039965Y000271D01*
X040046Y000299D01*
X040127Y000330D01*
X040205Y000364D01*
X040282Y000402D01*
X040358Y000444D01*
X040431Y000488D01*
X040502Y000536D01*
X040572Y000587D01*
X040639Y000641D01*
X040703Y000697D01*
X040765Y000757D01*
X040825Y000819D01*
X040881Y000883D01*
X040935Y000950D01*
X040986Y001020D01*
X041034Y001091D01*
X041078Y001164D01*
X041120Y001240D01*
X041158Y001317D01*
X041192Y001395D01*
X041223Y001476D01*
X041251Y001557D01*
X041275Y001639D01*
X041295Y001723D01*
X041312Y001807D01*
X041325Y001892D01*
X041335Y001977D01*
X041340Y002063D01*
X041342Y002149D01*
X039373Y000180D02*
X007877Y000180D01*
X007247Y002149D02*
X007249Y002199D01*
X007255Y002249D01*
X007265Y002298D01*
X007279Y002346D01*
X007296Y002393D01*
X007317Y002438D01*
X007342Y002482D01*
X007370Y002523D01*
X007402Y002562D01*
X007436Y002599D01*
X007473Y002633D01*
X007513Y002663D01*
X007555Y002690D01*
X007599Y002714D01*
X007645Y002735D01*
X007692Y002751D01*
X007740Y002764D01*
X007790Y002773D01*
X007839Y002778D01*
X007890Y002779D01*
X007940Y002776D01*
X007989Y002769D01*
X008038Y002758D01*
X008086Y002743D01*
X008132Y002725D01*
X008177Y002703D01*
X008220Y002677D01*
X008261Y002648D01*
X008300Y002616D01*
X008336Y002581D01*
X008368Y002543D01*
X008398Y002503D01*
X008425Y002460D01*
X008448Y002416D01*
X008467Y002370D01*
X008483Y002322D01*
X008495Y002273D01*
X008503Y002224D01*
X008507Y002174D01*
X008507Y002124D01*
X008503Y002074D01*
X008495Y002025D01*
X008483Y001976D01*
X008467Y001928D01*
X008448Y001882D01*
X008425Y001838D01*
X008398Y001795D01*
X008368Y001755D01*
X008336Y001717D01*
X008300Y001682D01*
X008261Y001650D01*
X008220Y001621D01*
X008177Y001595D01*
X008132Y001573D01*
X008086Y001555D01*
X008038Y001540D01*
X007989Y001529D01*
X007940Y001522D01*
X007890Y001519D01*
X007839Y001520D01*
X007790Y001525D01*
X007740Y001534D01*
X007692Y001547D01*
X007645Y001563D01*
X007599Y001584D01*
X007555Y001608D01*
X007513Y001635D01*
X007473Y001665D01*
X007436Y001699D01*
X007402Y001736D01*
X007370Y001775D01*
X007342Y001816D01*
X007317Y001860D01*
X007296Y001905D01*
X007279Y001952D01*
X007265Y002000D01*
X007255Y002049D01*
X007249Y002099D01*
X007247Y002149D01*
X005908Y002149D02*
X005910Y002063D01*
X005915Y001977D01*
X005925Y001892D01*
X005938Y001807D01*
X005955Y001723D01*
X005975Y001639D01*
X005999Y001557D01*
X006027Y001476D01*
X006058Y001395D01*
X006092Y001317D01*
X006130Y001240D01*
X006172Y001165D01*
X006216Y001091D01*
X006264Y001020D01*
X006315Y000950D01*
X006369Y000883D01*
X006425Y000819D01*
X006485Y000757D01*
X006547Y000697D01*
X006611Y000641D01*
X006678Y000587D01*
X006748Y000536D01*
X006819Y000488D01*
X006892Y000444D01*
X006968Y000402D01*
X007045Y000364D01*
X007123Y000330D01*
X007204Y000299D01*
X007285Y000271D01*
X007367Y000247D01*
X007451Y000227D01*
X007535Y000210D01*
X007620Y000197D01*
X007705Y000187D01*
X007791Y000182D01*
X007877Y000180D01*
M02*
