G75*
%MOIN*%
%OFA0B0*%
%FSLAX24Y24*%
%IPPOS*%
%LPD*%
%AMOC8*
5,1,8,0,0,1.08239X$1,22.5*
%
%ADD10C,0.0515*%
%ADD11C,0.0520*%
%ADD12R,0.0400X0.0300*%
%ADD13C,0.0515*%
%ADD14C,0.0594*%
%ADD15R,0.0300X0.0400*%
%ADD16OC8,0.0709*%
%ADD17OC8,0.0560*%
%ADD18R,0.0600X0.0400*%
%ADD19C,0.0160*%
%ADD20C,0.0100*%
%ADD21R,0.0396X0.0396*%
%ADD22C,0.0040*%
D10*
X008409Y010137D03*
X008409Y010924D03*
X008409Y011711D03*
X008409Y012499D03*
X008409Y013286D03*
X008409Y014074D03*
X008409Y014861D03*
X008409Y015649D03*
X008409Y016436D03*
X008409Y017223D03*
D11*
X018909Y015180D03*
X019909Y015180D03*
X020909Y015180D03*
X021909Y015180D03*
X022909Y015180D03*
X023909Y015180D03*
X024909Y015180D03*
X025909Y015180D03*
X026909Y015180D03*
X027909Y015180D03*
X027909Y012180D03*
X026909Y012180D03*
X025909Y012180D03*
X024909Y012180D03*
X023909Y012180D03*
X022909Y012180D03*
X021909Y012180D03*
X020909Y012180D03*
X019909Y012180D03*
X018909Y012180D03*
D12*
X018909Y011524D03*
X018909Y010836D03*
X021409Y007024D03*
X021409Y006336D03*
X022909Y006336D03*
X022909Y007024D03*
X024409Y007024D03*
X024409Y006336D03*
X025909Y006336D03*
X025909Y007024D03*
X027409Y007024D03*
X027409Y006336D03*
X028909Y006336D03*
X028909Y007024D03*
X030409Y007024D03*
X030409Y006336D03*
X031909Y006336D03*
X031909Y007024D03*
X016409Y007024D03*
X016409Y006336D03*
X013409Y002524D03*
X013409Y001836D03*
D13*
X021151Y003180D02*
X021666Y003180D01*
X021666Y004180D02*
X021151Y004180D01*
X021151Y005180D02*
X021666Y005180D01*
X024651Y005180D02*
X025166Y005180D01*
X025166Y004180D02*
X024651Y004180D01*
X024651Y003180D02*
X025166Y003180D01*
X028151Y003180D02*
X028666Y003180D01*
X028666Y004180D02*
X028151Y004180D01*
X028151Y005180D02*
X028666Y005180D01*
X031651Y005180D02*
X032166Y005180D01*
X032166Y004180D02*
X031651Y004180D01*
X031651Y003180D02*
X032166Y003180D01*
X036151Y004180D02*
X036666Y004180D01*
X036666Y007180D02*
X036151Y007180D01*
X037394Y011680D02*
X037909Y011680D01*
X038909Y011680D02*
X039424Y011680D01*
X039424Y012680D02*
X038909Y012680D01*
X037909Y012680D02*
X037394Y012680D01*
X037394Y013680D02*
X037909Y013680D01*
X038909Y013680D02*
X039424Y013680D01*
X039424Y014680D02*
X038909Y014680D01*
X037909Y014680D02*
X037394Y014680D01*
X037394Y015680D02*
X037909Y015680D01*
X038909Y015680D02*
X039424Y015680D01*
X039424Y016680D02*
X038909Y016680D01*
X037909Y016680D02*
X037394Y016680D01*
X037394Y017680D02*
X037909Y017680D01*
X038909Y017680D02*
X039424Y017680D01*
D14*
X019909Y005180D03*
X016909Y005180D03*
X015909Y004680D03*
X015909Y003680D03*
X016909Y003180D03*
X019909Y003180D03*
X015909Y000680D03*
X013909Y000680D03*
X012909Y003180D03*
X013909Y003680D03*
X013909Y004680D03*
X012909Y005180D03*
X009909Y005180D03*
X009909Y003180D03*
X013909Y007680D03*
X015909Y007680D03*
D15*
X017564Y005680D03*
X018253Y005680D03*
X011753Y002680D03*
X011064Y002680D03*
D16*
X033909Y021180D03*
X034909Y023180D03*
X032909Y023180D03*
D17*
X014909Y023180D03*
X013909Y023180D03*
X012909Y023180D03*
X012909Y022180D03*
X013909Y022180D03*
X014909Y022180D03*
D18*
X017409Y014042D03*
X017409Y013318D03*
D19*
X006967Y000180D02*
X005909Y000180D01*
X006967Y000180D01*
X006716Y000301D01*
X006716Y000301D01*
X006334Y000605D01*
X006334Y000605D01*
X006030Y000987D01*
X005909Y001238D01*
X005909Y000180D01*
X005909Y000339D02*
X006669Y000339D01*
X006470Y000497D02*
X005909Y000497D01*
X005909Y000656D02*
X006294Y000656D01*
X006168Y000814D02*
X005909Y000814D01*
X005909Y000973D02*
X006042Y000973D01*
X005961Y001131D02*
X005909Y001131D01*
X006341Y001290D02*
X006765Y001290D01*
X006765Y001284D02*
X006818Y001231D01*
X006863Y001170D01*
X006881Y001168D01*
X006897Y001152D01*
X006899Y001134D01*
X006959Y001089D01*
X007013Y001036D01*
X007031Y001036D01*
X007048Y001023D01*
X007053Y001005D01*
X007120Y000969D01*
X007180Y000924D01*
X007198Y000927D01*
X007217Y000916D01*
X007224Y000900D01*
X007295Y000874D01*
X007361Y000837D01*
X007378Y000842D01*
X007399Y000835D01*
X007409Y000820D01*
X007483Y000804D01*
X007553Y000777D01*
X007569Y000785D01*
X007591Y000780D01*
X007603Y000766D01*
X007678Y000761D01*
X007752Y000745D01*
X007767Y000755D01*
X007789Y000753D01*
X007802Y000741D01*
X007877Y000747D01*
X007953Y000741D01*
X007966Y000753D01*
X007988Y000755D01*
X008003Y000745D01*
X008077Y000761D01*
X008152Y000766D01*
X008164Y000780D01*
X008185Y000785D01*
X008202Y000777D01*
X008272Y000804D01*
X008346Y000820D01*
X008356Y000835D01*
X008376Y000842D01*
X008393Y000837D01*
X008460Y000874D01*
X008530Y000900D01*
X008538Y000916D01*
X008557Y000927D01*
X008575Y000924D01*
X008635Y000969D01*
X008701Y001005D01*
X008706Y001023D01*
X008724Y001036D01*
X008742Y001036D01*
X008795Y001089D01*
X008856Y001134D01*
X008858Y001152D01*
X008874Y001168D01*
X008892Y001170D01*
X008937Y001231D01*
X008990Y001284D01*
X008990Y001302D01*
X009003Y001319D01*
X009020Y001325D01*
X009057Y001391D01*
X009102Y001451D01*
X009099Y001469D01*
X009110Y001488D01*
X009126Y001496D01*
X009152Y001566D01*
X009189Y001632D01*
X009183Y001650D01*
X009191Y001670D01*
X009206Y001680D01*
X009222Y001754D01*
X009249Y001824D01*
X009241Y001841D01*
X009246Y001862D01*
X009259Y001874D01*
X009265Y001949D01*
X009281Y002023D01*
X009271Y002038D01*
X009273Y002060D01*
X009284Y002073D01*
X009279Y002149D01*
X009284Y002224D01*
X009273Y002237D01*
X009271Y002259D01*
X009281Y002274D01*
X009265Y002348D01*
X009259Y002423D01*
X009246Y002435D01*
X009241Y002456D01*
X009249Y002473D01*
X009222Y002543D01*
X009206Y002617D01*
X009191Y002627D01*
X009183Y002647D01*
X009189Y002665D01*
X009152Y002731D01*
X009126Y002801D01*
X009110Y002809D01*
X009099Y002828D01*
X009102Y002846D01*
X009057Y002906D01*
X009020Y002972D01*
X009003Y002978D01*
X008990Y002995D01*
X008990Y003013D01*
X008937Y003066D01*
X008892Y003127D01*
X008874Y003129D01*
X008858Y003145D01*
X008856Y003163D01*
X008795Y003208D01*
X008742Y003261D01*
X008724Y003261D01*
X008706Y003274D01*
X008701Y003292D01*
X008635Y003328D01*
X008575Y003373D01*
X008557Y003370D01*
X008538Y003381D01*
X008530Y003397D01*
X008460Y003424D01*
X008393Y003460D01*
X008376Y003455D01*
X008356Y003462D01*
X008346Y003477D01*
X008272Y003493D01*
X008202Y003520D01*
X008185Y003512D01*
X008164Y003517D01*
X008152Y003531D01*
X008077Y003536D01*
X008003Y003552D01*
X007988Y003542D01*
X007966Y003544D01*
X007953Y003556D01*
X007877Y003550D01*
X007802Y003556D01*
X007789Y003544D01*
X007767Y003542D01*
X007752Y003552D01*
X007678Y003536D01*
X007603Y003531D01*
X007591Y003517D01*
X007569Y003512D01*
X007553Y003520D01*
X007483Y003493D01*
X007409Y003477D01*
X007399Y003462D01*
X007378Y003455D01*
X007361Y003460D01*
X007295Y003424D01*
X007224Y003397D01*
X007217Y003381D01*
X007198Y003370D01*
X007180Y003373D01*
X007120Y003328D01*
X007053Y003292D01*
X007048Y003274D01*
X007031Y003261D01*
X007013Y003261D01*
X006959Y003208D01*
X006899Y003163D01*
X006897Y003145D01*
X006881Y003129D01*
X006863Y003127D01*
X006818Y003066D01*
X006765Y003013D01*
X006765Y002995D01*
X006752Y002978D01*
X006734Y002972D01*
X006698Y002906D01*
X006653Y002846D01*
X006656Y002828D01*
X006645Y002809D01*
X006629Y002801D01*
X006602Y002731D01*
X006566Y002665D01*
X006571Y002647D01*
X006564Y002627D01*
X006549Y002617D01*
X006533Y002543D01*
X006506Y002473D01*
X006514Y002456D01*
X006509Y002435D01*
X006495Y002423D01*
X006490Y002348D01*
X006474Y002274D01*
X006484Y002259D01*
X006482Y002237D01*
X006470Y002224D01*
X006476Y002149D01*
X006470Y002073D01*
X006482Y002060D01*
X006484Y002038D01*
X006474Y002023D01*
X006490Y001949D01*
X006495Y001874D01*
X006509Y001862D01*
X006514Y001841D01*
X006506Y001824D01*
X006533Y001754D01*
X006549Y001680D01*
X006564Y001670D01*
X006571Y001650D01*
X006566Y001632D01*
X006602Y001566D01*
X006629Y001496D01*
X006645Y001488D01*
X006656Y001469D01*
X006653Y001451D01*
X006698Y001391D01*
X006734Y001325D01*
X006752Y001319D01*
X006765Y001302D01*
X006765Y001284D01*
X006655Y001448D02*
X006264Y001448D01*
X006208Y001564D02*
X006120Y001950D01*
X006109Y002149D01*
X006109Y023802D01*
X006120Y024000D01*
X006208Y024386D01*
X006380Y024743D01*
X006627Y025053D01*
X006936Y025299D01*
X007293Y025471D01*
X007679Y025559D01*
X007877Y025571D01*
X039373Y025571D01*
X039571Y025559D01*
X039958Y025471D01*
X040314Y025299D01*
X040624Y025053D01*
X040871Y024743D01*
X041043Y024386D01*
X041131Y024000D01*
X041142Y023802D01*
X041142Y002149D01*
X041131Y001950D01*
X041043Y001564D01*
X040871Y001208D01*
X040624Y000898D01*
X040314Y000651D01*
X039958Y000479D01*
X039571Y000391D01*
X039373Y000380D01*
X016280Y000380D01*
X016317Y000430D01*
X016351Y000497D01*
X039994Y000497D01*
X040320Y000656D02*
X016386Y000656D01*
X016386Y000662D02*
X015927Y000662D01*
X015927Y000698D01*
X016386Y000698D01*
X016386Y000718D01*
X016374Y000792D01*
X016351Y000863D01*
X016317Y000930D01*
X016273Y000991D01*
X016220Y001044D01*
X016159Y001088D01*
X016092Y001122D01*
X016021Y001145D01*
X015946Y001157D01*
X015927Y001157D01*
X015927Y000698D01*
X015890Y000698D01*
X015890Y000662D01*
X015432Y000662D01*
X015432Y000642D01*
X015444Y000568D01*
X015467Y000497D01*
X014371Y000497D01*
X014406Y000581D02*
X014330Y000399D01*
X014312Y000380D01*
X015537Y000380D01*
X015501Y000430D01*
X015467Y000497D01*
X015432Y000656D02*
X014406Y000656D01*
X014406Y000581D02*
X014406Y000779D01*
X014330Y000961D01*
X014190Y001101D01*
X014008Y001177D01*
X013810Y001177D01*
X013627Y001101D01*
X013488Y000961D01*
X013412Y000779D01*
X013412Y000581D01*
X013488Y000399D01*
X013506Y000380D01*
X007877Y000380D01*
X007679Y000391D01*
X007293Y000479D01*
X006936Y000651D01*
X006627Y000898D01*
X006380Y001208D01*
X006208Y001564D01*
X006199Y001607D02*
X006580Y001607D01*
X006528Y001765D02*
X006162Y001765D01*
X006126Y001924D02*
X006492Y001924D01*
X006471Y002082D02*
X006113Y002082D01*
X006109Y002241D02*
X006482Y002241D01*
X006494Y002399D02*
X006109Y002399D01*
X006109Y002558D02*
X006536Y002558D01*
X006594Y002716D02*
X006109Y002716D01*
X006109Y002875D02*
X006674Y002875D01*
X006785Y003033D02*
X006109Y003033D01*
X006109Y003192D02*
X006938Y003192D01*
X007149Y003350D02*
X006109Y003350D01*
X006109Y003509D02*
X007523Y003509D01*
X007750Y003693D02*
X007853Y003650D01*
X009293Y003650D01*
X009486Y003457D01*
X009412Y003279D01*
X009412Y003081D01*
X009488Y002899D01*
X009627Y002759D01*
X009724Y002719D01*
X009750Y002693D01*
X010000Y002443D01*
X010103Y002400D01*
X010714Y002400D01*
X010714Y002397D01*
X010832Y002280D01*
X011297Y002280D01*
X011409Y002392D01*
X011473Y002327D01*
X011473Y002030D01*
X011516Y001927D01*
X011766Y001677D01*
X011845Y001598D01*
X011948Y001556D01*
X013056Y001556D01*
X013126Y001486D01*
X013692Y001486D01*
X013762Y001556D01*
X017620Y001556D01*
X017723Y001598D01*
X018412Y002287D01*
X018491Y002366D01*
X018533Y002469D01*
X018533Y005327D01*
X018603Y005397D01*
X018603Y005634D01*
X018896Y005927D01*
X018939Y006030D01*
X018939Y010470D01*
X018955Y010486D01*
X019192Y010486D01*
X019262Y010556D01*
X019370Y010556D01*
X019473Y010598D01*
X019552Y010677D01*
X019629Y010754D01*
X019629Y010124D01*
X019672Y010021D01*
X020172Y009521D01*
X020250Y009443D01*
X020353Y009400D01*
X020793Y009400D01*
X021129Y009064D01*
X021129Y007374D01*
X021126Y007374D01*
X021009Y007257D01*
X021009Y006792D01*
X021121Y006680D01*
X021009Y006568D01*
X021009Y006103D01*
X021126Y005986D01*
X021129Y005986D01*
X021129Y005637D01*
X021060Y005637D01*
X020892Y005568D01*
X020764Y005439D01*
X020694Y005271D01*
X020694Y005089D01*
X020764Y004921D01*
X020892Y004792D01*
X021060Y004723D01*
X021757Y004723D01*
X021926Y004792D01*
X022054Y004921D01*
X022124Y005089D01*
X022124Y005271D01*
X022054Y005439D01*
X021926Y005568D01*
X021757Y005637D01*
X021689Y005637D01*
X021689Y005986D01*
X021692Y005986D01*
X021809Y006103D01*
X021809Y006568D01*
X021697Y006680D01*
X021809Y006792D01*
X021809Y007257D01*
X021692Y007374D01*
X021689Y007374D01*
X021689Y009236D01*
X021646Y009339D01*
X021567Y009417D01*
X021067Y009917D01*
X020965Y009960D01*
X020525Y009960D01*
X020189Y010296D01*
X020189Y011809D01*
X020299Y011919D01*
X020369Y012088D01*
X020369Y012271D01*
X020299Y012441D01*
X020169Y012570D01*
X020000Y012640D01*
X019817Y012640D01*
X019689Y012587D01*
X019689Y013486D01*
X019646Y013589D01*
X019567Y013667D01*
X018955Y014280D01*
X018852Y014322D01*
X017909Y014322D01*
X017909Y014325D01*
X017792Y014442D01*
X017689Y014442D01*
X017689Y014564D01*
X018025Y014900D01*
X018538Y014900D01*
X018648Y014790D01*
X018817Y014720D01*
X019000Y014720D01*
X019129Y014773D01*
X019129Y014624D01*
X019172Y014521D01*
X019672Y014021D01*
X019750Y013943D01*
X019853Y013900D01*
X021465Y013900D01*
X021567Y013943D01*
X022067Y014443D01*
X022129Y014504D01*
X022129Y014296D01*
X021672Y013839D01*
X021629Y013736D01*
X021629Y012551D01*
X021519Y012441D01*
X021449Y012271D01*
X021449Y012088D01*
X021519Y011919D01*
X021648Y011790D01*
X021817Y011720D01*
X022000Y011720D01*
X022169Y011790D01*
X022299Y011919D01*
X022369Y012088D01*
X022369Y012271D01*
X022299Y012441D01*
X022189Y012551D01*
X022189Y013564D01*
X022567Y013943D01*
X022567Y013943D01*
X022646Y014021D01*
X022689Y014124D01*
X022689Y014504D01*
X024172Y013021D01*
X024250Y012943D01*
X024353Y012900D01*
X030793Y012900D01*
X031629Y012064D01*
X031629Y007374D01*
X031626Y007374D01*
X031509Y007257D01*
X031509Y006792D01*
X031621Y006680D01*
X031509Y006568D01*
X031509Y006103D01*
X031626Y005986D01*
X031863Y005986D01*
X031906Y005943D01*
X032009Y005900D01*
X032293Y005900D01*
X032629Y005564D01*
X032629Y003796D01*
X032408Y003575D01*
X032257Y003637D01*
X031560Y003637D01*
X031392Y003568D01*
X031264Y003439D01*
X031194Y003271D01*
X031194Y003089D01*
X031264Y002921D01*
X031392Y002792D01*
X031560Y002723D01*
X032257Y002723D01*
X032426Y002792D01*
X032554Y002921D01*
X032562Y002940D01*
X032567Y002943D01*
X033067Y003443D01*
X033146Y003521D01*
X033189Y003624D01*
X033189Y005736D01*
X033146Y005839D01*
X032646Y006339D01*
X032567Y006417D01*
X032465Y006460D01*
X032309Y006460D01*
X032309Y006568D01*
X032197Y006680D01*
X032309Y006792D01*
X032309Y007257D01*
X032192Y007374D01*
X032189Y007374D01*
X032189Y012236D01*
X032146Y012339D01*
X032067Y012417D01*
X031085Y013400D01*
X033793Y013400D01*
X034129Y013064D01*
X034129Y011624D01*
X034172Y011521D01*
X035250Y010443D01*
X035353Y010400D01*
X038465Y010400D01*
X038567Y010443D01*
X039067Y010943D01*
X039067Y010943D01*
X039146Y011021D01*
X039189Y011124D01*
X039189Y011223D01*
X039515Y011223D01*
X039683Y011292D01*
X039812Y011421D01*
X039881Y011589D01*
X039881Y011771D01*
X039812Y011939D01*
X039683Y012068D01*
X039515Y012137D01*
X038818Y012137D01*
X038650Y012068D01*
X038521Y011939D01*
X038451Y011771D01*
X038451Y011589D01*
X038521Y011421D01*
X038629Y011313D01*
X038629Y011296D01*
X038293Y010960D01*
X035525Y010960D01*
X034689Y011796D01*
X034689Y012004D01*
X035172Y011521D01*
X035250Y011443D01*
X035353Y011400D01*
X037027Y011400D01*
X037135Y011292D01*
X037303Y011223D01*
X038000Y011223D01*
X038168Y011292D01*
X038297Y011421D01*
X038366Y011589D01*
X038366Y011771D01*
X038297Y011939D01*
X038168Y012068D01*
X038000Y012137D01*
X037303Y012137D01*
X037135Y012068D01*
X037027Y011960D01*
X035525Y011960D01*
X035189Y012296D01*
X035189Y013004D01*
X035672Y012521D01*
X035750Y012443D01*
X035853Y012400D01*
X037027Y012400D01*
X037135Y012292D01*
X037303Y012223D01*
X038000Y012223D01*
X038168Y012292D01*
X038297Y012421D01*
X038366Y012589D01*
X038366Y012771D01*
X038327Y012866D01*
X038451Y012741D01*
X038451Y012589D01*
X038521Y012421D01*
X038650Y012292D01*
X038818Y012223D01*
X039515Y012223D01*
X039683Y012292D01*
X039812Y012421D01*
X039881Y012589D01*
X039881Y012771D01*
X039812Y012939D01*
X039683Y013068D01*
X039515Y013137D01*
X038847Y013137D01*
X038723Y013262D01*
X038818Y013223D01*
X039515Y013223D01*
X039683Y013292D01*
X039812Y013421D01*
X039881Y013589D01*
X039881Y013771D01*
X039828Y013900D01*
X039965Y013900D01*
X040067Y013943D01*
X040567Y014443D01*
X040646Y014521D01*
X040689Y014624D01*
X040689Y016236D01*
X040646Y016339D01*
X040146Y016839D01*
X040067Y016917D01*
X039965Y016960D01*
X039791Y016960D01*
X039683Y017068D01*
X039515Y017137D01*
X038818Y017137D01*
X038650Y017068D01*
X038521Y016939D01*
X038451Y016771D01*
X038451Y016589D01*
X038521Y016421D01*
X038650Y016292D01*
X038818Y016223D01*
X039515Y016223D01*
X039683Y016292D01*
X039791Y016400D01*
X039793Y016400D01*
X040129Y016064D01*
X040129Y014796D01*
X039853Y014520D01*
X039881Y014589D01*
X039881Y014771D01*
X039812Y014939D01*
X039683Y015068D01*
X039515Y015137D01*
X038818Y015137D01*
X038723Y015098D01*
X038847Y015223D01*
X039515Y015223D01*
X039683Y015292D01*
X039812Y015421D01*
X039881Y015589D01*
X039881Y015771D01*
X039812Y015939D01*
X039683Y016068D01*
X039515Y016137D01*
X038818Y016137D01*
X038650Y016068D01*
X038521Y015939D01*
X038451Y015771D01*
X038451Y015618D01*
X038293Y015460D01*
X038288Y015460D01*
X038314Y015512D01*
X038336Y015578D01*
X038346Y015646D01*
X038346Y015680D01*
X037909Y015680D01*
X038346Y015680D01*
X038346Y015714D01*
X038336Y015782D01*
X038314Y015848D01*
X038283Y015909D01*
X038243Y015965D01*
X038194Y016014D01*
X038138Y016054D01*
X038077Y016085D01*
X038011Y016107D01*
X037943Y016117D01*
X037909Y016117D01*
X037909Y015680D01*
X037909Y015680D01*
X037909Y015680D01*
X038409Y016180D01*
X038409Y017180D01*
X038909Y017680D01*
X039861Y017680D01*
X039861Y017714D01*
X039851Y017782D01*
X039829Y017848D01*
X039798Y017909D01*
X039758Y017965D01*
X039709Y018014D01*
X039653Y018054D01*
X039592Y018085D01*
X039526Y018107D01*
X039458Y018117D01*
X038909Y018117D01*
X038909Y017680D01*
X038909Y017680D01*
X039861Y017680D01*
X039861Y017646D01*
X039851Y017578D01*
X039829Y017512D01*
X039798Y017451D01*
X039758Y017395D01*
X039709Y017346D01*
X039653Y017306D01*
X039592Y017275D01*
X039526Y017253D01*
X039458Y017243D01*
X038909Y017243D01*
X038909Y017680D01*
X038909Y017680D01*
X038909Y017680D01*
X038909Y017243D01*
X038874Y017243D01*
X038806Y017253D01*
X038741Y017275D01*
X038680Y017306D01*
X038624Y017346D01*
X038575Y017395D01*
X038535Y017451D01*
X038503Y017512D01*
X038482Y017578D01*
X038471Y017646D01*
X038471Y017680D01*
X038909Y017680D01*
X038909Y018117D01*
X038874Y018117D01*
X038806Y018107D01*
X038741Y018085D01*
X038680Y018054D01*
X038624Y018014D01*
X038575Y017965D01*
X038535Y017909D01*
X038503Y017848D01*
X038482Y017782D01*
X038471Y017714D01*
X038471Y017680D01*
X038909Y017680D01*
X038909Y017680D01*
X038909Y017615D02*
X038909Y017615D01*
X038909Y017457D02*
X038909Y017457D01*
X038909Y017298D02*
X038909Y017298D01*
X038695Y017298D02*
X038174Y017298D01*
X038168Y017292D02*
X038297Y017421D01*
X038366Y017589D01*
X038366Y017771D01*
X038297Y017939D01*
X038189Y018047D01*
X038189Y021236D01*
X038146Y021339D01*
X037146Y022339D01*
X037067Y022417D01*
X036965Y022460D01*
X034025Y022460D01*
X033463Y023022D01*
X033463Y023410D01*
X033139Y023734D01*
X032679Y023734D01*
X032375Y023430D01*
X021012Y023430D01*
X019371Y025072D01*
X019301Y025142D01*
X019209Y025180D01*
X010359Y025180D01*
X010267Y025142D01*
X009267Y024142D01*
X009246Y024121D01*
X009249Y024126D01*
X009222Y024197D01*
X009206Y024271D01*
X009191Y024280D01*
X009183Y024301D01*
X009189Y024318D01*
X009152Y024384D01*
X009126Y024455D01*
X009110Y024462D01*
X009099Y024482D01*
X009102Y024499D01*
X009057Y024560D01*
X009020Y024626D01*
X009003Y024631D01*
X008990Y024649D01*
X008990Y024667D01*
X008937Y024720D01*
X008892Y024780D01*
X008874Y024783D01*
X008858Y024798D01*
X008856Y024816D01*
X008795Y024861D01*
X008742Y024915D01*
X008724Y024915D01*
X008706Y024928D01*
X008701Y024945D01*
X008635Y024981D01*
X008575Y025026D01*
X008557Y025024D01*
X008538Y025034D01*
X008530Y025051D01*
X008460Y025077D01*
X008393Y025113D01*
X008376Y025108D01*
X008356Y025116D01*
X008346Y025131D01*
X008272Y025147D01*
X008202Y025173D01*
X008185Y025166D01*
X008164Y025171D01*
X008152Y025184D01*
X008077Y025189D01*
X008003Y025205D01*
X007988Y025196D01*
X007966Y025197D01*
X007953Y025209D01*
X007877Y025204D01*
X007802Y025209D01*
X007789Y025197D01*
X007767Y025196D01*
X007752Y025205D01*
X007678Y025189D01*
X007603Y025184D01*
X007591Y025171D01*
X007569Y025166D01*
X007553Y025173D01*
X007483Y025147D01*
X007409Y025131D01*
X007399Y025116D01*
X007378Y025108D01*
X007361Y025113D01*
X007295Y025077D01*
X007224Y025051D01*
X007217Y025034D01*
X007198Y025024D01*
X007180Y025026D01*
X007120Y024981D01*
X007053Y024945D01*
X007048Y024928D01*
X007031Y024915D01*
X007013Y024915D01*
X006959Y024861D01*
X006899Y024816D01*
X006897Y024798D01*
X006881Y024783D01*
X006863Y024780D01*
X006818Y024720D01*
X006765Y024667D01*
X006765Y024649D01*
X006752Y024631D01*
X006734Y024626D01*
X006698Y024560D01*
X006653Y024499D01*
X006656Y024482D01*
X006645Y024462D01*
X006629Y024455D01*
X006602Y024384D01*
X006566Y024318D01*
X006571Y024301D01*
X006564Y024280D01*
X006549Y024271D01*
X006533Y024197D01*
X006506Y024126D01*
X006514Y024110D01*
X006509Y024088D01*
X006495Y024077D01*
X006490Y024002D01*
X006474Y023928D01*
X006484Y023913D01*
X006482Y023891D01*
X006470Y023877D01*
X006476Y023802D01*
X006470Y023727D01*
X006482Y023713D01*
X006484Y023691D01*
X006474Y023676D01*
X006490Y023603D01*
X006495Y023527D01*
X006509Y023516D01*
X006514Y023494D01*
X006506Y023478D01*
X006533Y023407D01*
X006549Y023333D01*
X006564Y023324D01*
X006571Y023303D01*
X006566Y023286D01*
X006602Y023220D01*
X006629Y023149D01*
X006645Y023142D01*
X006656Y023122D01*
X006653Y023105D01*
X006698Y023044D01*
X006734Y022978D01*
X006752Y022973D01*
X006765Y022955D01*
X006765Y022937D01*
X006818Y022884D01*
X006863Y022824D01*
X006881Y022821D01*
X006897Y022806D01*
X006899Y022788D01*
X006959Y022743D01*
X007013Y022689D01*
X007031Y022689D01*
X007048Y022676D01*
X007053Y022659D01*
X007120Y022623D01*
X007180Y022578D01*
X007198Y022580D01*
X007217Y022570D01*
X007224Y022553D01*
X007295Y022527D01*
X007361Y022491D01*
X007378Y022496D01*
X007399Y022488D01*
X007409Y022473D01*
X007483Y022457D01*
X007553Y022431D01*
X007569Y022438D01*
X007591Y022434D01*
X007603Y022420D01*
X007678Y022415D01*
X007752Y022399D01*
X007767Y022408D01*
X007789Y022407D01*
X007802Y022395D01*
X007877Y022400D01*
X007953Y022395D01*
X007966Y022407D01*
X007988Y022408D01*
X008003Y022399D01*
X008077Y022415D01*
X008152Y022420D01*
X008164Y022434D01*
X008185Y022438D01*
X008202Y022431D01*
X008272Y022457D01*
X008346Y022473D01*
X008356Y022488D01*
X008376Y022496D01*
X008393Y022491D01*
X008460Y022527D01*
X008530Y022553D01*
X008538Y022570D01*
X008557Y022580D01*
X008575Y022578D01*
X008635Y022623D01*
X008701Y022659D01*
X008706Y022676D01*
X008724Y022689D01*
X008742Y022689D01*
X008795Y022743D01*
X008856Y022788D01*
X008858Y022806D01*
X008874Y022821D01*
X008892Y022824D01*
X008937Y022884D01*
X008990Y022937D01*
X008990Y022955D01*
X009003Y022973D01*
X009020Y022978D01*
X009057Y023044D01*
X009102Y023105D01*
X009099Y023122D01*
X009110Y023142D01*
X009126Y023149D01*
X009152Y023220D01*
X009159Y023232D01*
X009159Y022784D01*
X006517Y020142D01*
X006447Y020072D01*
X006409Y019980D01*
X006409Y014130D01*
X006447Y014038D01*
X006947Y013538D01*
X007017Y013468D01*
X007041Y013458D01*
X006750Y013167D01*
X006672Y013089D01*
X006629Y012986D01*
X006629Y004874D01*
X006672Y004771D01*
X007672Y003771D01*
X007750Y003693D01*
X007812Y003667D02*
X006109Y003667D01*
X006109Y003826D02*
X007617Y003826D01*
X007459Y003984D02*
X006109Y003984D01*
X006109Y004143D02*
X007300Y004143D01*
X007142Y004301D02*
X006109Y004301D01*
X006109Y004460D02*
X006983Y004460D01*
X006825Y004618D02*
X006109Y004618D01*
X006109Y004777D02*
X006669Y004777D01*
X006629Y004935D02*
X006109Y004935D01*
X006109Y005094D02*
X006629Y005094D01*
X006629Y005252D02*
X006109Y005252D01*
X006109Y005411D02*
X006629Y005411D01*
X006629Y005569D02*
X006109Y005569D01*
X006109Y005728D02*
X006629Y005728D01*
X006629Y005886D02*
X006109Y005886D01*
X006109Y006045D02*
X006629Y006045D01*
X006629Y006203D02*
X006109Y006203D01*
X006109Y006362D02*
X006629Y006362D01*
X006629Y006520D02*
X006109Y006520D01*
X006109Y006679D02*
X006629Y006679D01*
X006629Y006837D02*
X006109Y006837D01*
X006109Y006996D02*
X006629Y006996D01*
X006629Y007154D02*
X006109Y007154D01*
X006109Y007313D02*
X006629Y007313D01*
X006629Y007471D02*
X006109Y007471D01*
X006109Y007630D02*
X006629Y007630D01*
X006629Y007788D02*
X006109Y007788D01*
X006109Y007947D02*
X006629Y007947D01*
X006629Y008105D02*
X006109Y008105D01*
X006109Y008264D02*
X006629Y008264D01*
X006629Y008422D02*
X006109Y008422D01*
X006109Y008581D02*
X006629Y008581D01*
X006629Y008739D02*
X006109Y008739D01*
X006109Y008898D02*
X006629Y008898D01*
X006629Y009056D02*
X006109Y009056D01*
X006109Y009215D02*
X006629Y009215D01*
X006629Y009373D02*
X006109Y009373D01*
X006109Y009532D02*
X006629Y009532D01*
X006629Y009690D02*
X006109Y009690D01*
X006109Y009849D02*
X006629Y009849D01*
X006629Y010007D02*
X006109Y010007D01*
X006109Y010166D02*
X006629Y010166D01*
X006629Y010324D02*
X006109Y010324D01*
X006109Y010483D02*
X006629Y010483D01*
X006629Y010641D02*
X006109Y010641D01*
X006109Y010800D02*
X006629Y010800D01*
X006629Y010958D02*
X006109Y010958D01*
X006109Y011117D02*
X006629Y011117D01*
X006629Y011275D02*
X006109Y011275D01*
X006109Y011434D02*
X006629Y011434D01*
X006629Y011592D02*
X006109Y011592D01*
X006109Y011751D02*
X006629Y011751D01*
X006629Y011909D02*
X006109Y011909D01*
X006109Y012068D02*
X006629Y012068D01*
X006629Y012226D02*
X006109Y012226D01*
X006109Y012385D02*
X006629Y012385D01*
X006629Y012543D02*
X006109Y012543D01*
X006109Y012702D02*
X006629Y012702D01*
X006629Y012860D02*
X006109Y012860D01*
X006109Y013019D02*
X006642Y013019D01*
X006760Y013177D02*
X006109Y013177D01*
X006109Y013336D02*
X006918Y013336D01*
X006991Y013494D02*
X006109Y013494D01*
X006109Y013653D02*
X006833Y013653D01*
X006674Y013811D02*
X006109Y013811D01*
X006109Y013970D02*
X006516Y013970D01*
X006410Y014128D02*
X006109Y014128D01*
X006109Y014287D02*
X006409Y014287D01*
X006409Y014445D02*
X006109Y014445D01*
X006109Y014604D02*
X006409Y014604D01*
X006409Y014762D02*
X006109Y014762D01*
X006109Y014921D02*
X006409Y014921D01*
X006409Y015079D02*
X006109Y015079D01*
X006109Y015238D02*
X006409Y015238D01*
X006409Y015396D02*
X006109Y015396D01*
X006109Y015555D02*
X006409Y015555D01*
X006409Y015713D02*
X006109Y015713D01*
X006109Y015872D02*
X006409Y015872D01*
X006409Y016030D02*
X006109Y016030D01*
X006109Y016189D02*
X006409Y016189D01*
X006409Y016347D02*
X006109Y016347D01*
X006109Y016506D02*
X006409Y016506D01*
X006409Y016664D02*
X006109Y016664D01*
X006109Y016823D02*
X006409Y016823D01*
X006409Y016981D02*
X006109Y016981D01*
X006109Y017140D02*
X006409Y017140D01*
X006409Y017298D02*
X006109Y017298D01*
X006109Y017457D02*
X006409Y017457D01*
X006409Y017615D02*
X006109Y017615D01*
X006109Y017774D02*
X006409Y017774D01*
X006409Y017932D02*
X006109Y017932D01*
X006109Y018091D02*
X006409Y018091D01*
X006409Y018249D02*
X006109Y018249D01*
X006109Y018408D02*
X006409Y018408D01*
X006409Y018566D02*
X006109Y018566D01*
X006109Y018725D02*
X006409Y018725D01*
X006409Y018883D02*
X006109Y018883D01*
X006109Y019042D02*
X006409Y019042D01*
X006409Y019200D02*
X006109Y019200D01*
X006109Y019359D02*
X006409Y019359D01*
X006409Y019517D02*
X006109Y019517D01*
X006109Y019676D02*
X006409Y019676D01*
X006409Y019834D02*
X006109Y019834D01*
X006109Y019993D02*
X006414Y019993D01*
X006526Y020151D02*
X006109Y020151D01*
X006109Y020310D02*
X006685Y020310D01*
X006843Y020468D02*
X006109Y020468D01*
X006109Y020627D02*
X007002Y020627D01*
X007160Y020785D02*
X006109Y020785D01*
X006109Y020944D02*
X007319Y020944D01*
X007477Y021102D02*
X006109Y021102D01*
X006109Y021261D02*
X007636Y021261D01*
X007794Y021419D02*
X006109Y021419D01*
X006109Y021578D02*
X007953Y021578D01*
X008111Y021736D02*
X006109Y021736D01*
X006109Y021895D02*
X008270Y021895D01*
X008428Y022053D02*
X006109Y022053D01*
X006109Y022212D02*
X008587Y022212D01*
X008745Y022370D02*
X006109Y022370D01*
X006109Y022529D02*
X007291Y022529D01*
X007034Y022687D02*
X006109Y022687D01*
X006109Y022846D02*
X006847Y022846D01*
X006720Y023004D02*
X006109Y023004D01*
X006109Y023163D02*
X006624Y023163D01*
X006565Y023321D02*
X006109Y023321D01*
X006109Y023480D02*
X006507Y023480D01*
X006482Y023638D02*
X006109Y023638D01*
X006109Y023797D02*
X006475Y023797D01*
X006480Y023955D02*
X006117Y023955D01*
X006146Y024114D02*
X006512Y024114D01*
X006551Y024272D02*
X006182Y024272D01*
X006230Y024431D02*
X006620Y024431D01*
X006714Y024589D02*
X006306Y024589D01*
X006384Y024748D02*
X006839Y024748D01*
X007004Y024906D02*
X006510Y024906D01*
X006642Y025065D02*
X007262Y025065D01*
X006841Y025223D02*
X040410Y025223D01*
X040609Y025065D02*
X039989Y025065D01*
X039956Y025077D02*
X039890Y025113D01*
X039872Y025108D01*
X039852Y025116D01*
X039842Y025131D01*
X039768Y025147D01*
X039698Y025173D01*
X039681Y025166D01*
X039660Y025171D01*
X039648Y025184D01*
X039573Y025189D01*
X039499Y025205D01*
X039484Y025196D01*
X039462Y025197D01*
X039449Y025209D01*
X039373Y025204D01*
X039298Y025209D01*
X039285Y025197D01*
X039263Y025196D01*
X039248Y025205D01*
X039174Y025189D01*
X039099Y025184D01*
X039087Y025171D01*
X039065Y025166D01*
X039049Y025173D01*
X038979Y025147D01*
X038905Y025131D01*
X038895Y025116D01*
X038875Y025108D01*
X038857Y025113D01*
X038791Y025077D01*
X038721Y025051D01*
X038713Y025034D01*
X038694Y025024D01*
X038676Y025026D01*
X038616Y024981D01*
X038549Y024945D01*
X038544Y024928D01*
X038527Y024915D01*
X038509Y024915D01*
X038456Y024861D01*
X038395Y024816D01*
X038393Y024798D01*
X038377Y024783D01*
X038359Y024780D01*
X038314Y024720D01*
X038261Y024667D01*
X038261Y024649D01*
X038248Y024631D01*
X038230Y024626D01*
X038194Y024560D01*
X038149Y024499D01*
X038152Y024482D01*
X038141Y024462D01*
X038125Y024455D01*
X038098Y024384D01*
X038062Y024318D01*
X038067Y024301D01*
X038060Y024280D01*
X038045Y024271D01*
X038029Y024197D01*
X038002Y024126D01*
X038010Y024110D01*
X038005Y024088D01*
X037991Y024077D01*
X037986Y024002D01*
X037970Y023928D01*
X037980Y023913D01*
X037978Y023891D01*
X037966Y023877D01*
X037972Y023802D01*
X037966Y023727D01*
X037978Y023713D01*
X037980Y023691D01*
X037970Y023676D01*
X037986Y023603D01*
X037991Y023527D01*
X038005Y023516D01*
X038010Y023494D01*
X038002Y023478D01*
X038029Y023407D01*
X038045Y023333D01*
X038060Y023324D01*
X038067Y023303D01*
X038062Y023286D01*
X038098Y023220D01*
X038125Y023149D01*
X038141Y023142D01*
X038152Y023122D01*
X038149Y023105D01*
X038194Y023044D01*
X038230Y022978D01*
X038248Y022973D01*
X038261Y022955D01*
X038261Y022937D01*
X038314Y022884D01*
X038359Y022824D01*
X038377Y022821D01*
X038393Y022806D01*
X038395Y022788D01*
X038456Y022743D01*
X038509Y022689D01*
X038527Y022689D01*
X038544Y022676D01*
X038549Y022659D01*
X038616Y022623D01*
X038676Y022578D01*
X038694Y022580D01*
X038713Y022570D01*
X038721Y022553D01*
X038791Y022527D01*
X038857Y022491D01*
X038875Y022496D01*
X038895Y022488D01*
X038905Y022473D01*
X038979Y022457D01*
X039049Y022431D01*
X039065Y022438D01*
X039087Y022434D01*
X039099Y022420D01*
X039174Y022415D01*
X039248Y022399D01*
X039263Y022408D01*
X039285Y022407D01*
X039298Y022395D01*
X039373Y022400D01*
X039449Y022395D01*
X039462Y022407D01*
X039484Y022408D01*
X039499Y022399D01*
X039573Y022415D01*
X039648Y022420D01*
X039660Y022434D01*
X039681Y022438D01*
X039698Y022431D01*
X039768Y022457D01*
X039842Y022473D01*
X039852Y022488D01*
X039872Y022496D01*
X039890Y022491D01*
X039956Y022527D01*
X040026Y022553D01*
X040034Y022570D01*
X040053Y022580D01*
X040071Y022578D01*
X040131Y022623D01*
X040197Y022659D01*
X040202Y022676D01*
X040220Y022689D01*
X040238Y022689D01*
X040291Y022743D01*
X040352Y022788D01*
X040354Y022806D01*
X040370Y022821D01*
X040388Y022824D01*
X040433Y022884D01*
X040486Y022937D01*
X040486Y022955D01*
X040499Y022973D01*
X040516Y022978D01*
X040553Y023044D01*
X040598Y023105D01*
X040595Y023122D01*
X040606Y023142D01*
X040622Y023149D01*
X040648Y023220D01*
X040685Y023286D01*
X040680Y023303D01*
X040687Y023324D01*
X040702Y023333D01*
X040718Y023407D01*
X040745Y023478D01*
X040737Y023494D01*
X040742Y023516D01*
X040755Y023527D01*
X040761Y023603D01*
X040777Y023676D01*
X040767Y023691D01*
X040769Y023713D01*
X040780Y023727D01*
X040775Y023802D01*
X040780Y023877D01*
X040769Y023891D01*
X040767Y023913D01*
X040777Y023928D01*
X040761Y024002D01*
X040755Y024077D01*
X040742Y024088D01*
X040737Y024110D01*
X040745Y024126D01*
X040718Y024197D01*
X040702Y024271D01*
X040687Y024280D01*
X040680Y024301D01*
X040685Y024318D01*
X040648Y024384D01*
X040622Y024455D01*
X040606Y024462D01*
X040595Y024482D01*
X040598Y024499D01*
X040553Y024560D01*
X040516Y024626D01*
X040499Y024631D01*
X040486Y024649D01*
X040486Y024667D01*
X040433Y024720D01*
X040388Y024780D01*
X040370Y024783D01*
X040354Y024798D01*
X040352Y024816D01*
X040291Y024861D01*
X040238Y024915D01*
X040220Y024915D01*
X040202Y024928D01*
X040197Y024945D01*
X040131Y024981D01*
X040071Y025026D01*
X040053Y025024D01*
X040034Y025034D01*
X040026Y025051D01*
X039956Y025077D01*
X040247Y024906D02*
X040741Y024906D01*
X040867Y024748D02*
X040412Y024748D01*
X040537Y024589D02*
X040945Y024589D01*
X041021Y024431D02*
X040631Y024431D01*
X040700Y024272D02*
X041069Y024272D01*
X041105Y024114D02*
X040739Y024114D01*
X040771Y023955D02*
X041133Y023955D01*
X041142Y023797D02*
X040776Y023797D01*
X040769Y023638D02*
X041142Y023638D01*
X041142Y023480D02*
X040744Y023480D01*
X040686Y023321D02*
X041142Y023321D01*
X041142Y023163D02*
X040627Y023163D01*
X040531Y023004D02*
X041142Y023004D01*
X041142Y022846D02*
X040404Y022846D01*
X040217Y022687D02*
X041142Y022687D01*
X041142Y022529D02*
X039960Y022529D01*
X041142Y022370D02*
X037115Y022370D01*
X037273Y022212D02*
X041142Y022212D01*
X041142Y022053D02*
X037432Y022053D01*
X037590Y021895D02*
X041142Y021895D01*
X041142Y021736D02*
X037749Y021736D01*
X037907Y021578D02*
X041142Y021578D01*
X041142Y021419D02*
X038066Y021419D01*
X038179Y021261D02*
X041142Y021261D01*
X041142Y021102D02*
X038189Y021102D01*
X038189Y020944D02*
X041142Y020944D01*
X041142Y020785D02*
X038189Y020785D01*
X038189Y020627D02*
X041142Y020627D01*
X041142Y020468D02*
X038189Y020468D01*
X038189Y020310D02*
X041142Y020310D01*
X041142Y020151D02*
X038189Y020151D01*
X038189Y019993D02*
X041142Y019993D01*
X041142Y019834D02*
X038189Y019834D01*
X038189Y019676D02*
X041142Y019676D01*
X041142Y019517D02*
X038189Y019517D01*
X038189Y019359D02*
X041142Y019359D01*
X041142Y019200D02*
X038189Y019200D01*
X038189Y019042D02*
X041142Y019042D01*
X041142Y018883D02*
X038189Y018883D01*
X038189Y018725D02*
X041142Y018725D01*
X041142Y018566D02*
X038189Y018566D01*
X038189Y018408D02*
X041142Y018408D01*
X041142Y018249D02*
X038189Y018249D01*
X038189Y018091D02*
X038757Y018091D01*
X038909Y018091D02*
X038909Y018091D01*
X038909Y017932D02*
X038909Y017932D01*
X038909Y017774D02*
X038909Y017774D01*
X038551Y017932D02*
X038300Y017932D01*
X038365Y017774D02*
X038481Y017774D01*
X038476Y017615D02*
X038366Y017615D01*
X038311Y017457D02*
X038532Y017457D01*
X038168Y017292D02*
X038000Y017223D01*
X037303Y017223D01*
X037135Y017292D01*
X037006Y017421D01*
X036936Y017589D01*
X036936Y017771D01*
X037006Y017939D01*
X037135Y018068D01*
X037303Y018137D01*
X037629Y018137D01*
X037629Y021064D01*
X036793Y021900D01*
X033853Y021900D01*
X033750Y021943D01*
X033067Y022626D01*
X032679Y022626D01*
X032375Y022930D01*
X020859Y022930D01*
X020767Y022968D01*
X019055Y024680D01*
X016116Y024680D01*
X016161Y024661D01*
X016162Y024660D01*
X016237Y024585D01*
X016278Y024486D01*
X016278Y024130D01*
X016348Y024101D01*
X016424Y024025D01*
X016465Y023926D01*
X016465Y023818D01*
X016424Y023719D01*
X016348Y023643D01*
X016249Y023602D01*
X015768Y023602D01*
X015668Y023643D01*
X015593Y023719D01*
X015551Y023818D01*
X015551Y023926D01*
X015593Y024025D01*
X015626Y024059D01*
X015593Y024093D01*
X015551Y024192D01*
X015551Y024299D01*
X015593Y024399D01*
X015855Y024661D01*
X015900Y024680D01*
X010512Y024680D01*
X009659Y023826D01*
X009659Y023808D01*
X009672Y023839D01*
X010172Y024339D01*
X010250Y024417D01*
X010353Y024460D01*
X013715Y024460D01*
X013817Y024417D01*
X014067Y024167D01*
X014146Y024089D01*
X014189Y023986D01*
X014189Y023579D01*
X014389Y023379D01*
X014389Y023096D01*
X014429Y023056D01*
X014429Y023379D01*
X014710Y023660D01*
X015108Y023660D01*
X015308Y023460D01*
X019965Y023460D01*
X020067Y023417D01*
X021067Y022417D01*
X021146Y022339D01*
X021189Y022236D01*
X021189Y017356D01*
X021750Y017917D01*
X021853Y017960D01*
X029715Y017960D01*
X029817Y017917D01*
X029896Y017839D01*
X031275Y016460D01*
X035215Y016460D01*
X035317Y016417D01*
X035396Y016339D01*
X036275Y015460D01*
X037015Y015460D01*
X036989Y015512D01*
X036967Y015578D01*
X036956Y015646D01*
X036956Y015680D01*
X037909Y015680D01*
X037909Y016117D01*
X037359Y016117D01*
X037291Y016107D01*
X037226Y016085D01*
X037165Y016054D01*
X037109Y016014D01*
X037060Y015965D01*
X037020Y015909D01*
X036989Y015848D01*
X036967Y015782D01*
X036956Y015714D01*
X036956Y015680D01*
X037909Y015680D01*
X037909Y015680D01*
X037909Y015713D02*
X037909Y015713D01*
X037909Y015872D02*
X037909Y015872D01*
X037909Y016030D02*
X037909Y016030D01*
X038000Y016223D02*
X038168Y016292D01*
X038297Y016421D01*
X038366Y016589D01*
X038366Y016771D01*
X038297Y016939D01*
X038168Y017068D01*
X038000Y017137D01*
X037303Y017137D01*
X037135Y017068D01*
X037027Y016960D01*
X036525Y016960D01*
X036146Y017339D01*
X036067Y017417D01*
X035965Y017460D01*
X034525Y017460D01*
X034189Y017796D01*
X034189Y020676D01*
X034463Y020950D01*
X034463Y021410D01*
X034139Y021734D01*
X033679Y021734D01*
X033355Y021410D01*
X033355Y020950D01*
X033629Y020676D01*
X033629Y017624D01*
X033672Y017521D01*
X033750Y017443D01*
X034250Y016943D01*
X034353Y016900D01*
X035793Y016900D01*
X036250Y016443D01*
X036353Y016400D01*
X037027Y016400D01*
X037135Y016292D01*
X037303Y016223D01*
X038000Y016223D01*
X038223Y016347D02*
X038595Y016347D01*
X038486Y016506D02*
X038332Y016506D01*
X038366Y016664D02*
X038451Y016664D01*
X038473Y016823D02*
X038345Y016823D01*
X038255Y016981D02*
X038563Y016981D01*
X038909Y016680D02*
X039909Y016680D01*
X040409Y016180D01*
X040409Y014680D01*
X039909Y014180D01*
X036409Y014180D01*
X034909Y015680D01*
X030909Y015680D01*
X029409Y017180D01*
X023409Y017180D01*
X022409Y016180D01*
X022409Y014180D01*
X021909Y013680D01*
X021909Y012180D01*
X022322Y012385D02*
X022496Y012385D01*
X022519Y012441D02*
X022449Y012271D01*
X022449Y012088D01*
X022519Y011919D01*
X022629Y011809D01*
X022629Y010624D01*
X022672Y010521D01*
X023129Y010064D01*
X023129Y009856D01*
X023067Y009917D01*
X022567Y010417D01*
X022465Y010460D01*
X021525Y010460D01*
X021189Y010796D01*
X021189Y011809D01*
X021299Y011919D01*
X021369Y012088D01*
X021369Y012271D01*
X021299Y012441D01*
X021169Y012570D01*
X021000Y012640D01*
X020817Y012640D01*
X020648Y012570D01*
X020519Y012441D01*
X020449Y012271D01*
X020449Y012088D01*
X020519Y011919D01*
X020629Y011809D01*
X020629Y010624D01*
X020672Y010521D01*
X021172Y010021D01*
X021250Y009943D01*
X021353Y009900D01*
X022293Y009900D01*
X022629Y009564D01*
X022629Y007374D01*
X022626Y007374D01*
X022509Y007257D01*
X022509Y006792D01*
X022621Y006680D01*
X022509Y006568D01*
X022509Y006103D01*
X022626Y005986D01*
X022629Y005986D01*
X022629Y003796D01*
X022293Y003460D01*
X022033Y003460D01*
X021926Y003568D01*
X021757Y003637D01*
X021060Y003637D01*
X020892Y003568D01*
X020764Y003439D01*
X020694Y003271D01*
X020694Y003089D01*
X020764Y002921D01*
X020892Y002792D01*
X021060Y002723D01*
X021757Y002723D01*
X021926Y002792D01*
X022033Y002900D01*
X022465Y002900D01*
X022567Y002943D01*
X023067Y003443D01*
X023146Y003521D01*
X023189Y003624D01*
X023189Y005986D01*
X023192Y005986D01*
X023309Y006103D01*
X023309Y006568D01*
X023197Y006680D01*
X023309Y006792D01*
X023309Y007257D01*
X023192Y007374D01*
X023189Y007374D01*
X023189Y008254D01*
X023379Y008064D01*
X023379Y002874D01*
X023422Y002771D01*
X024172Y002021D01*
X024250Y001943D01*
X024353Y001900D01*
X033715Y001900D01*
X033817Y001943D01*
X034817Y002943D01*
X034896Y003021D01*
X034939Y003124D01*
X034939Y006064D01*
X035775Y006900D01*
X035784Y006900D01*
X035892Y006792D01*
X036060Y006723D01*
X036757Y006723D01*
X036926Y006792D01*
X037054Y006921D01*
X037124Y007089D01*
X037124Y007271D01*
X037054Y007439D01*
X036926Y007568D01*
X036757Y007637D01*
X036060Y007637D01*
X035892Y007568D01*
X035784Y007460D01*
X035603Y007460D01*
X035500Y007417D01*
X035422Y007339D01*
X034422Y006339D01*
X034379Y006236D01*
X034379Y003296D01*
X033543Y002460D01*
X024525Y002460D01*
X023939Y003046D01*
X023939Y008236D01*
X023896Y008339D01*
X023817Y008417D01*
X023689Y008546D01*
X023689Y009004D01*
X024129Y008564D01*
X024129Y007374D01*
X024126Y007374D01*
X024009Y007257D01*
X024009Y006792D01*
X024121Y006680D01*
X024009Y006568D01*
X024009Y006103D01*
X024126Y005986D01*
X024129Y005986D01*
X024129Y005624D01*
X024172Y005521D01*
X024250Y005443D01*
X024261Y005432D01*
X024194Y005271D01*
X024194Y005089D01*
X024264Y004921D01*
X024392Y004792D01*
X024560Y004723D01*
X025257Y004723D01*
X025426Y004792D01*
X025554Y004921D01*
X025624Y005089D01*
X025624Y005271D01*
X025554Y005439D01*
X025426Y005568D01*
X025257Y005637D01*
X024847Y005637D01*
X024689Y005796D01*
X024689Y005986D01*
X024692Y005986D01*
X024809Y006103D01*
X024809Y006568D01*
X024697Y006680D01*
X024809Y006792D01*
X024809Y007257D01*
X024692Y007374D01*
X024689Y007374D01*
X024689Y008736D01*
X024646Y008839D01*
X024567Y008917D01*
X024189Y009296D01*
X024189Y011809D01*
X024299Y011919D01*
X024369Y012088D01*
X024369Y012271D01*
X024299Y012441D01*
X024169Y012570D01*
X024000Y012640D01*
X023817Y012640D01*
X023648Y012570D01*
X023519Y012441D01*
X023449Y012271D01*
X023449Y012088D01*
X023519Y011919D01*
X023629Y011809D01*
X023629Y010356D01*
X023567Y010417D01*
X023189Y010796D01*
X023189Y011809D01*
X023299Y011919D01*
X023369Y012088D01*
X023369Y012271D01*
X023299Y012441D01*
X023169Y012570D01*
X023000Y012640D01*
X022817Y012640D01*
X022648Y012570D01*
X022519Y012441D01*
X022621Y012543D02*
X022196Y012543D01*
X022189Y012702D02*
X030991Y012702D01*
X030833Y012860D02*
X022189Y012860D01*
X022189Y013019D02*
X024174Y013019D01*
X024016Y013177D02*
X022189Y013177D01*
X022189Y013336D02*
X023857Y013336D01*
X023699Y013494D02*
X022189Y013494D01*
X022277Y013653D02*
X023540Y013653D01*
X023382Y013811D02*
X022436Y013811D01*
X022594Y013970D02*
X023223Y013970D01*
X023065Y014128D02*
X022689Y014128D01*
X022689Y014287D02*
X022906Y014287D01*
X022748Y014445D02*
X022689Y014445D01*
X022909Y014680D02*
X024409Y013180D01*
X030909Y013180D01*
X031909Y012180D01*
X031909Y007024D01*
X032309Y006996D02*
X035078Y006996D01*
X035237Y007154D02*
X032309Y007154D01*
X032254Y007313D02*
X035395Y007313D01*
X035659Y007180D02*
X036409Y007180D01*
X036970Y006837D02*
X041142Y006837D01*
X041142Y006679D02*
X035553Y006679D01*
X035712Y006837D02*
X035847Y006837D01*
X035659Y007180D02*
X034659Y006180D01*
X034659Y003180D01*
X033659Y002180D01*
X024409Y002180D01*
X023659Y002930D01*
X023659Y008180D01*
X023409Y008430D01*
X023409Y010180D01*
X022909Y010680D01*
X022909Y012180D01*
X023322Y012385D02*
X023496Y012385D01*
X023449Y012226D02*
X023369Y012226D01*
X023360Y012068D02*
X023458Y012068D01*
X023529Y011909D02*
X023288Y011909D01*
X023189Y011751D02*
X023629Y011751D01*
X023629Y011592D02*
X023189Y011592D01*
X023189Y011434D02*
X023629Y011434D01*
X023629Y011275D02*
X023189Y011275D01*
X023189Y011117D02*
X023629Y011117D01*
X023629Y010958D02*
X023189Y010958D01*
X023189Y010800D02*
X023629Y010800D01*
X023629Y010641D02*
X023344Y010641D01*
X023502Y010483D02*
X023629Y010483D01*
X023027Y010166D02*
X022819Y010166D01*
X022869Y010324D02*
X022661Y010324D01*
X022710Y010483D02*
X021502Y010483D01*
X021344Y010641D02*
X022629Y010641D01*
X022629Y010800D02*
X021189Y010800D01*
X021189Y010958D02*
X022629Y010958D01*
X022629Y011117D02*
X021189Y011117D01*
X021189Y011275D02*
X022629Y011275D01*
X022629Y011434D02*
X021189Y011434D01*
X021189Y011592D02*
X022629Y011592D01*
X022629Y011751D02*
X022074Y011751D01*
X022288Y011909D02*
X022529Y011909D01*
X022458Y012068D02*
X022360Y012068D01*
X022369Y012226D02*
X022449Y012226D01*
X023196Y012543D02*
X023621Y012543D01*
X023909Y012180D02*
X023909Y009180D01*
X024409Y008680D01*
X024409Y007024D01*
X024809Y006996D02*
X025509Y006996D01*
X025509Y007154D02*
X024809Y007154D01*
X024754Y007313D02*
X025564Y007313D01*
X025509Y007257D02*
X025509Y006792D01*
X025621Y006680D01*
X025509Y006568D01*
X025509Y006103D01*
X025626Y005986D01*
X025629Y005986D01*
X025629Y003796D01*
X025408Y003575D01*
X025257Y003637D01*
X024560Y003637D01*
X024392Y003568D01*
X024264Y003439D01*
X024194Y003271D01*
X024194Y003089D01*
X024264Y002921D01*
X024392Y002792D01*
X024560Y002723D01*
X025257Y002723D01*
X025426Y002792D01*
X025554Y002921D01*
X025562Y002940D01*
X025567Y002943D01*
X026067Y003443D01*
X026146Y003521D01*
X026189Y003624D01*
X026189Y005986D01*
X026192Y005986D01*
X026309Y006103D01*
X026309Y006568D01*
X026197Y006680D01*
X026309Y006792D01*
X026309Y007257D01*
X026192Y007374D01*
X026189Y007374D01*
X026189Y008736D01*
X026146Y008839D01*
X026067Y008917D01*
X025189Y009796D01*
X025189Y011809D01*
X025299Y011919D01*
X025369Y012088D01*
X025369Y012271D01*
X025299Y012441D01*
X025169Y012570D01*
X025000Y012640D01*
X024817Y012640D01*
X024648Y012570D01*
X024519Y012441D01*
X024449Y012271D01*
X024449Y012088D01*
X024519Y011919D01*
X024629Y011809D01*
X024629Y009624D01*
X024672Y009521D01*
X025629Y008564D01*
X025629Y007374D01*
X025626Y007374D01*
X025509Y007257D01*
X025629Y007471D02*
X024689Y007471D01*
X024689Y007630D02*
X025629Y007630D01*
X025629Y007788D02*
X024689Y007788D01*
X024689Y007947D02*
X025629Y007947D01*
X025629Y008105D02*
X024689Y008105D01*
X024689Y008264D02*
X025629Y008264D01*
X025629Y008422D02*
X024689Y008422D01*
X024689Y008581D02*
X025612Y008581D01*
X025454Y008739D02*
X024688Y008739D01*
X024587Y008898D02*
X025295Y008898D01*
X025137Y009056D02*
X024429Y009056D01*
X024270Y009215D02*
X024978Y009215D01*
X024820Y009373D02*
X024189Y009373D01*
X024189Y009532D02*
X024667Y009532D01*
X024629Y009690D02*
X024189Y009690D01*
X024189Y009849D02*
X024629Y009849D01*
X024629Y010007D02*
X024189Y010007D01*
X024189Y010166D02*
X024629Y010166D01*
X024629Y010324D02*
X024189Y010324D01*
X024189Y010483D02*
X024629Y010483D01*
X024629Y010641D02*
X024189Y010641D01*
X024189Y010800D02*
X024629Y010800D01*
X024629Y010958D02*
X024189Y010958D01*
X024189Y011117D02*
X024629Y011117D01*
X024629Y011275D02*
X024189Y011275D01*
X024189Y011434D02*
X024629Y011434D01*
X024629Y011592D02*
X024189Y011592D01*
X024189Y011751D02*
X024629Y011751D01*
X024529Y011909D02*
X024288Y011909D01*
X024360Y012068D02*
X024458Y012068D01*
X024449Y012226D02*
X024369Y012226D01*
X024322Y012385D02*
X024496Y012385D01*
X024621Y012543D02*
X024196Y012543D01*
X024909Y012180D02*
X024909Y009680D01*
X025909Y008680D01*
X025909Y007024D01*
X026309Y006996D02*
X027009Y006996D01*
X027009Y007154D02*
X026309Y007154D01*
X026254Y007313D02*
X027064Y007313D01*
X027009Y007257D02*
X027126Y007374D01*
X027129Y007374D01*
X027129Y008564D01*
X025750Y009943D01*
X025750Y009943D01*
X025672Y010021D01*
X025629Y010124D01*
X025629Y011809D01*
X025519Y011919D01*
X025449Y012088D01*
X025449Y012271D01*
X025519Y012441D01*
X025648Y012570D01*
X025817Y012640D01*
X026000Y012640D01*
X026169Y012570D01*
X026299Y012441D01*
X026369Y012271D01*
X026369Y012088D01*
X026299Y011919D01*
X026189Y011809D01*
X026189Y010296D01*
X027567Y008917D01*
X027567Y008917D01*
X027646Y008839D01*
X027689Y008736D01*
X027689Y007374D01*
X027692Y007374D01*
X027809Y007257D01*
X027809Y006792D01*
X027697Y006680D01*
X027809Y006568D01*
X027809Y006103D01*
X027692Y005986D01*
X027689Y005986D01*
X027689Y005796D01*
X027910Y005575D01*
X028060Y005637D01*
X028757Y005637D01*
X028926Y005568D01*
X029054Y005439D01*
X029124Y005271D01*
X029124Y005089D01*
X029054Y004921D01*
X028926Y004792D01*
X028757Y004723D01*
X028060Y004723D01*
X027892Y004792D01*
X027764Y004921D01*
X027755Y004940D01*
X027750Y004943D01*
X027672Y005021D01*
X027672Y005021D01*
X027250Y005443D01*
X027250Y005443D01*
X027172Y005521D01*
X027129Y005624D01*
X027129Y005986D01*
X027126Y005986D01*
X027009Y006103D01*
X027009Y006568D01*
X027121Y006680D01*
X027009Y006792D01*
X027009Y007257D01*
X027129Y007471D02*
X026189Y007471D01*
X026189Y007630D02*
X027129Y007630D01*
X027129Y007788D02*
X026189Y007788D01*
X026189Y007947D02*
X027129Y007947D01*
X027129Y008105D02*
X026189Y008105D01*
X026189Y008264D02*
X027129Y008264D01*
X027129Y008422D02*
X026189Y008422D01*
X026189Y008581D02*
X027112Y008581D01*
X026954Y008739D02*
X026188Y008739D01*
X026087Y008898D02*
X026795Y008898D01*
X026637Y009056D02*
X025929Y009056D01*
X025770Y009215D02*
X026478Y009215D01*
X026320Y009373D02*
X025612Y009373D01*
X025453Y009532D02*
X026161Y009532D01*
X026003Y009690D02*
X025295Y009690D01*
X025189Y009849D02*
X025844Y009849D01*
X025686Y010007D02*
X025189Y010007D01*
X025189Y010166D02*
X025629Y010166D01*
X025629Y010324D02*
X025189Y010324D01*
X025189Y010483D02*
X025629Y010483D01*
X025629Y010641D02*
X025189Y010641D01*
X025189Y010800D02*
X025629Y010800D01*
X025629Y010958D02*
X025189Y010958D01*
X025189Y011117D02*
X025629Y011117D01*
X025629Y011275D02*
X025189Y011275D01*
X025189Y011434D02*
X025629Y011434D01*
X025629Y011592D02*
X025189Y011592D01*
X025189Y011751D02*
X025629Y011751D01*
X025529Y011909D02*
X025288Y011909D01*
X025360Y012068D02*
X025458Y012068D01*
X025449Y012226D02*
X025369Y012226D01*
X025322Y012385D02*
X025496Y012385D01*
X025621Y012543D02*
X025196Y012543D01*
X025909Y012180D02*
X025909Y010180D01*
X027409Y008680D01*
X027409Y007024D01*
X027809Y006996D02*
X028509Y006996D01*
X028509Y007154D02*
X027809Y007154D01*
X027754Y007313D02*
X028564Y007313D01*
X028509Y007257D02*
X028509Y006792D01*
X028621Y006680D01*
X028509Y006568D01*
X028509Y006103D01*
X028626Y005986D01*
X028707Y005986D01*
X028750Y005943D01*
X029129Y005564D01*
X029129Y003796D01*
X028908Y003575D01*
X028757Y003637D01*
X028060Y003637D01*
X027892Y003568D01*
X027764Y003439D01*
X027694Y003271D01*
X027694Y003089D01*
X027764Y002921D01*
X027892Y002792D01*
X028060Y002723D01*
X028757Y002723D01*
X028926Y002792D01*
X029054Y002921D01*
X029062Y002940D01*
X029067Y002943D01*
X029567Y003443D01*
X029646Y003521D01*
X029689Y003624D01*
X029689Y005736D01*
X029646Y005839D01*
X029309Y006176D01*
X029309Y006568D01*
X029197Y006680D01*
X029309Y006792D01*
X029309Y007257D01*
X029192Y007374D01*
X029189Y007374D01*
X029189Y008736D01*
X029146Y008839D01*
X029067Y008917D01*
X027189Y010796D01*
X027189Y011809D01*
X027299Y011919D01*
X027369Y012088D01*
X027369Y012271D01*
X027299Y012441D01*
X027169Y012570D01*
X027000Y012640D01*
X026817Y012640D01*
X026648Y012570D01*
X026519Y012441D01*
X026449Y012271D01*
X026449Y012088D01*
X026519Y011919D01*
X026629Y011809D01*
X026629Y010624D01*
X026672Y010521D01*
X028629Y008564D01*
X028629Y007374D01*
X028626Y007374D01*
X028509Y007257D01*
X028629Y007471D02*
X027689Y007471D01*
X027689Y007630D02*
X028629Y007630D01*
X028629Y007788D02*
X027689Y007788D01*
X027689Y007947D02*
X028629Y007947D01*
X028629Y008105D02*
X027689Y008105D01*
X027689Y008264D02*
X028629Y008264D01*
X028629Y008422D02*
X027689Y008422D01*
X027689Y008581D02*
X028612Y008581D01*
X028454Y008739D02*
X027688Y008739D01*
X027587Y008898D02*
X028295Y008898D01*
X028137Y009056D02*
X027429Y009056D01*
X027270Y009215D02*
X027978Y009215D01*
X027820Y009373D02*
X027112Y009373D01*
X026953Y009532D02*
X027661Y009532D01*
X027503Y009690D02*
X026795Y009690D01*
X026636Y009849D02*
X027344Y009849D01*
X027186Y010007D02*
X026478Y010007D01*
X026319Y010166D02*
X027027Y010166D01*
X026869Y010324D02*
X026189Y010324D01*
X026189Y010483D02*
X026710Y010483D01*
X026629Y010641D02*
X026189Y010641D01*
X026189Y010800D02*
X026629Y010800D01*
X026629Y010958D02*
X026189Y010958D01*
X026189Y011117D02*
X026629Y011117D01*
X026629Y011275D02*
X026189Y011275D01*
X026189Y011434D02*
X026629Y011434D01*
X026629Y011592D02*
X026189Y011592D01*
X026189Y011751D02*
X026629Y011751D01*
X026529Y011909D02*
X026288Y011909D01*
X026360Y012068D02*
X026458Y012068D01*
X026449Y012226D02*
X026369Y012226D01*
X026322Y012385D02*
X026496Y012385D01*
X026621Y012543D02*
X026196Y012543D01*
X026909Y012180D02*
X026909Y010680D01*
X028909Y008680D01*
X028909Y007024D01*
X029309Y006996D02*
X030009Y006996D01*
X030009Y007154D02*
X029309Y007154D01*
X029254Y007313D02*
X030064Y007313D01*
X030009Y007257D02*
X030009Y006792D01*
X030121Y006680D01*
X030009Y006568D01*
X030009Y006103D01*
X030126Y005986D01*
X030129Y005986D01*
X030129Y005624D01*
X030172Y005521D01*
X030672Y005021D01*
X030750Y004943D01*
X030853Y004900D01*
X031284Y004900D01*
X031392Y004792D01*
X031560Y004723D01*
X032257Y004723D01*
X032426Y004792D01*
X032554Y004921D01*
X032624Y005089D01*
X032624Y005271D01*
X032554Y005439D01*
X032426Y005568D01*
X032257Y005637D01*
X031560Y005637D01*
X031392Y005568D01*
X031284Y005460D01*
X031025Y005460D01*
X030689Y005796D01*
X030689Y005986D01*
X030692Y005986D01*
X030809Y006103D01*
X030809Y006568D01*
X030697Y006680D01*
X030809Y006792D01*
X030809Y007257D01*
X030692Y007374D01*
X030689Y007374D01*
X030689Y009782D01*
X030690Y009782D01*
X030807Y009899D01*
X030807Y010461D01*
X030690Y010578D01*
X030128Y010578D01*
X030011Y010461D01*
X030011Y009899D01*
X030128Y009782D01*
X030129Y009782D01*
X030129Y007374D01*
X030126Y007374D01*
X030009Y007257D01*
X030129Y007471D02*
X029189Y007471D01*
X029189Y007630D02*
X030129Y007630D01*
X030129Y007788D02*
X029189Y007788D01*
X029189Y007947D02*
X030129Y007947D01*
X030129Y008105D02*
X029189Y008105D01*
X029189Y008264D02*
X030129Y008264D01*
X030129Y008422D02*
X029189Y008422D01*
X029189Y008581D02*
X030129Y008581D01*
X030129Y008739D02*
X029188Y008739D01*
X029087Y008898D02*
X030129Y008898D01*
X030129Y009056D02*
X028929Y009056D01*
X028770Y009215D02*
X030129Y009215D01*
X030129Y009373D02*
X028612Y009373D01*
X028453Y009532D02*
X030129Y009532D01*
X030129Y009690D02*
X028295Y009690D01*
X028136Y009849D02*
X030061Y009849D01*
X030011Y010007D02*
X027978Y010007D01*
X027819Y010166D02*
X030011Y010166D01*
X030011Y010324D02*
X027661Y010324D01*
X027502Y010483D02*
X030032Y010483D01*
X030409Y010180D02*
X030409Y007024D01*
X030809Y006996D02*
X031509Y006996D01*
X031509Y007154D02*
X030809Y007154D01*
X030754Y007313D02*
X031564Y007313D01*
X031629Y007471D02*
X030689Y007471D01*
X030689Y007630D02*
X031629Y007630D01*
X031629Y007788D02*
X030689Y007788D01*
X030689Y007947D02*
X031629Y007947D01*
X031629Y008105D02*
X030689Y008105D01*
X030689Y008264D02*
X031629Y008264D01*
X031629Y008422D02*
X030689Y008422D01*
X030689Y008581D02*
X031629Y008581D01*
X031629Y008739D02*
X030689Y008739D01*
X030689Y008898D02*
X031629Y008898D01*
X031629Y009056D02*
X030689Y009056D01*
X030689Y009215D02*
X031629Y009215D01*
X031629Y009373D02*
X030689Y009373D01*
X030689Y009532D02*
X031629Y009532D01*
X031629Y009690D02*
X030689Y009690D01*
X030756Y009849D02*
X031629Y009849D01*
X031629Y010007D02*
X030807Y010007D01*
X030807Y010166D02*
X031629Y010166D01*
X031629Y010324D02*
X030807Y010324D01*
X030785Y010483D02*
X031629Y010483D01*
X031629Y010641D02*
X027344Y010641D01*
X027189Y010800D02*
X031629Y010800D01*
X031629Y010958D02*
X027189Y010958D01*
X027189Y011117D02*
X031629Y011117D01*
X031629Y011275D02*
X027189Y011275D01*
X027189Y011434D02*
X031629Y011434D01*
X031629Y011592D02*
X027189Y011592D01*
X027189Y011751D02*
X027808Y011751D01*
X027806Y011751D02*
X027874Y011740D01*
X027909Y011740D01*
X027944Y011740D01*
X028012Y011751D01*
X028078Y011772D01*
X028139Y011804D01*
X028196Y011844D01*
X028245Y011893D01*
X028285Y011949D01*
X028317Y012011D01*
X028338Y012077D01*
X028349Y012145D01*
X028349Y012180D01*
X028349Y012215D01*
X028338Y012283D01*
X028317Y012349D01*
X028285Y012411D01*
X028245Y012467D01*
X028196Y012516D01*
X028139Y012556D01*
X028078Y012588D01*
X028012Y012609D01*
X027944Y012620D01*
X027909Y012620D01*
X027909Y012180D01*
X028349Y012180D01*
X027909Y012180D01*
X027909Y012180D01*
X027909Y012180D01*
X027909Y011740D01*
X027909Y012180D01*
X027909Y012180D01*
X027909Y012620D01*
X027874Y012620D01*
X027806Y012609D01*
X027740Y012588D01*
X027678Y012556D01*
X027622Y012516D01*
X027573Y012467D01*
X027533Y012411D01*
X027501Y012349D01*
X027480Y012283D01*
X027469Y012215D01*
X027469Y012180D01*
X027469Y012145D01*
X027480Y012077D01*
X027501Y012011D01*
X027533Y011949D01*
X027573Y011893D01*
X027622Y011844D01*
X027678Y011804D01*
X027740Y011772D01*
X027806Y011751D01*
X027909Y011751D02*
X027909Y011751D01*
X028010Y011751D02*
X031629Y011751D01*
X031629Y011909D02*
X028256Y011909D01*
X028335Y012068D02*
X031625Y012068D01*
X031467Y012226D02*
X028347Y012226D01*
X028299Y012385D02*
X031308Y012385D01*
X031150Y012543D02*
X028158Y012543D01*
X027909Y012543D02*
X027909Y012543D01*
X027909Y012385D02*
X027909Y012385D01*
X027909Y012226D02*
X027909Y012226D01*
X027909Y012180D02*
X027909Y012180D01*
X027469Y012180D01*
X027909Y012180D01*
X027909Y012068D02*
X027909Y012068D01*
X027909Y011909D02*
X027909Y011909D01*
X027562Y011909D02*
X027288Y011909D01*
X027360Y012068D02*
X027483Y012068D01*
X027471Y012226D02*
X027369Y012226D01*
X027322Y012385D02*
X027519Y012385D01*
X027660Y012543D02*
X027196Y012543D01*
X025733Y013960D02*
X025025Y013960D01*
X024189Y014796D01*
X024189Y014809D01*
X024299Y014919D01*
X024369Y015088D01*
X024369Y015271D01*
X024299Y015441D01*
X024169Y015570D01*
X024000Y015640D01*
X023817Y015640D01*
X023648Y015570D01*
X023519Y015441D01*
X023449Y015271D01*
X023449Y015088D01*
X023519Y014919D01*
X023629Y014809D01*
X023629Y014624D01*
X023672Y014521D01*
X024672Y013521D01*
X024733Y013460D01*
X024525Y013460D01*
X023189Y014796D01*
X023189Y014809D01*
X023299Y014919D01*
X023369Y015088D01*
X023369Y015271D01*
X023299Y015441D01*
X023169Y015570D01*
X023000Y015640D01*
X022817Y015640D01*
X022689Y015587D01*
X022689Y016064D01*
X023525Y016900D01*
X026733Y016900D01*
X026672Y016839D01*
X025672Y015839D01*
X025629Y015736D01*
X025629Y015551D01*
X025519Y015441D01*
X025449Y015271D01*
X025449Y015088D01*
X025486Y014999D01*
X025369Y015116D01*
X025369Y015271D01*
X025299Y015441D01*
X025169Y015570D01*
X025000Y015640D01*
X024817Y015640D01*
X024648Y015570D01*
X024519Y015441D01*
X024449Y015271D01*
X024449Y015088D01*
X024519Y014919D01*
X024648Y014790D01*
X024817Y014720D01*
X024973Y014720D01*
X025672Y014021D01*
X025733Y013960D01*
X025723Y013970D02*
X025015Y013970D01*
X024857Y014128D02*
X025565Y014128D01*
X025406Y014287D02*
X024698Y014287D01*
X024540Y014445D02*
X025248Y014445D01*
X025089Y014604D02*
X024381Y014604D01*
X024223Y014762D02*
X024716Y014762D01*
X024518Y014921D02*
X024299Y014921D01*
X024365Y015079D02*
X024453Y015079D01*
X024449Y015238D02*
X024369Y015238D01*
X024317Y015396D02*
X024500Y015396D01*
X024633Y015555D02*
X024185Y015555D01*
X023909Y015180D02*
X023909Y014680D01*
X024909Y013680D01*
X033909Y013680D01*
X034409Y013180D01*
X034409Y011680D01*
X035409Y010680D01*
X038409Y010680D01*
X038909Y011180D01*
X038909Y011680D01*
X038509Y011909D02*
X038309Y011909D01*
X038366Y011751D02*
X038451Y011751D01*
X038451Y011592D02*
X038366Y011592D01*
X038302Y011434D02*
X038516Y011434D01*
X038608Y011275D02*
X038127Y011275D01*
X038449Y011117D02*
X035368Y011117D01*
X035210Y011275D02*
X037176Y011275D01*
X037909Y011680D02*
X035409Y011680D01*
X034909Y012180D01*
X034909Y013430D01*
X034159Y014180D01*
X025909Y014180D01*
X024909Y015180D01*
X025317Y015396D02*
X025500Y015396D01*
X025449Y015238D02*
X025369Y015238D01*
X025406Y015079D02*
X025453Y015079D01*
X025728Y014757D02*
X026025Y014460D01*
X030233Y014460D01*
X030172Y014521D01*
X029307Y015386D01*
X029307Y014899D01*
X029190Y014782D01*
X028628Y014782D01*
X028511Y014899D01*
X028511Y014900D01*
X028279Y014900D01*
X028169Y014790D01*
X028000Y014720D01*
X027817Y014720D01*
X027648Y014790D01*
X027519Y014919D01*
X027449Y015088D01*
X027449Y015271D01*
X027519Y015441D01*
X027648Y015570D01*
X027817Y015640D01*
X028000Y015640D01*
X028169Y015570D01*
X028279Y015460D01*
X028511Y015460D01*
X028511Y015461D01*
X028628Y015578D01*
X029115Y015578D01*
X028793Y015900D01*
X027525Y015900D01*
X027189Y015564D01*
X027189Y015551D01*
X027299Y015441D01*
X027369Y015271D01*
X027369Y015088D01*
X027299Y014919D01*
X027169Y014790D01*
X027000Y014720D01*
X026817Y014720D01*
X026648Y014790D01*
X026519Y014919D01*
X026449Y015088D01*
X026449Y015271D01*
X026519Y015441D01*
X026629Y015551D01*
X026629Y015736D01*
X026672Y015839D01*
X027172Y016339D01*
X027233Y016400D01*
X027025Y016400D01*
X026189Y015564D01*
X026189Y015551D01*
X026299Y015441D01*
X026369Y015271D01*
X026369Y015088D01*
X026299Y014919D01*
X026169Y014790D01*
X026000Y014720D01*
X025817Y014720D01*
X025728Y014757D01*
X025881Y014604D02*
X030089Y014604D01*
X029931Y014762D02*
X028102Y014762D01*
X027716Y014762D02*
X027102Y014762D01*
X027299Y014921D02*
X027518Y014921D01*
X027453Y015079D02*
X027365Y015079D01*
X027369Y015238D02*
X027449Y015238D01*
X027500Y015396D02*
X027317Y015396D01*
X027189Y015555D02*
X027633Y015555D01*
X027338Y015713D02*
X028980Y015713D01*
X028821Y015872D02*
X027496Y015872D01*
X027409Y016180D02*
X028909Y016180D01*
X030409Y014680D01*
X034409Y014680D01*
X035409Y013680D01*
X035409Y013180D01*
X035909Y012680D01*
X037909Y012680D01*
X038329Y012860D02*
X038333Y012860D01*
X038366Y012702D02*
X038451Y012702D01*
X038470Y012543D02*
X038347Y012543D01*
X038260Y012385D02*
X038557Y012385D01*
X038809Y012226D02*
X038008Y012226D01*
X038168Y012068D02*
X038649Y012068D01*
X038909Y012680D02*
X038409Y013180D01*
X036159Y013180D01*
X035909Y013430D01*
X035909Y013930D01*
X034659Y015180D01*
X030659Y015180D01*
X029159Y016680D01*
X026909Y016680D01*
X025909Y015680D01*
X025909Y015180D01*
X026102Y014762D02*
X026716Y014762D01*
X026518Y014921D02*
X026299Y014921D01*
X026365Y015079D02*
X026453Y015079D01*
X026449Y015238D02*
X026369Y015238D01*
X026317Y015396D02*
X026500Y015396D01*
X026629Y015555D02*
X026189Y015555D01*
X026338Y015713D02*
X026629Y015713D01*
X026704Y015872D02*
X026496Y015872D01*
X026655Y016030D02*
X026863Y016030D01*
X026813Y016189D02*
X027021Y016189D01*
X026972Y016347D02*
X027180Y016347D01*
X027409Y016180D02*
X026909Y015680D01*
X026909Y015180D01*
X027909Y015180D02*
X028909Y015180D01*
X029307Y015238D02*
X029455Y015238D01*
X029307Y015079D02*
X029614Y015079D01*
X029772Y014921D02*
X029307Y014921D01*
X028604Y015555D02*
X028185Y015555D01*
X026497Y016664D02*
X023289Y016664D01*
X023447Y016823D02*
X026655Y016823D01*
X026338Y016506D02*
X023130Y016506D01*
X022972Y016347D02*
X026180Y016347D01*
X026021Y016189D02*
X022813Y016189D01*
X022689Y016030D02*
X025863Y016030D01*
X025704Y015872D02*
X022689Y015872D01*
X022689Y015713D02*
X025629Y015713D01*
X025629Y015555D02*
X025185Y015555D01*
X023633Y015555D02*
X023185Y015555D01*
X023317Y015396D02*
X023500Y015396D01*
X023449Y015238D02*
X023369Y015238D01*
X023365Y015079D02*
X023453Y015079D01*
X023518Y014921D02*
X023299Y014921D01*
X023223Y014762D02*
X023629Y014762D01*
X023637Y014604D02*
X023381Y014604D01*
X023540Y014445D02*
X023748Y014445D01*
X023698Y014287D02*
X023906Y014287D01*
X023857Y014128D02*
X024065Y014128D01*
X024015Y013970D02*
X024223Y013970D01*
X024174Y013811D02*
X024382Y013811D01*
X024332Y013653D02*
X024540Y013653D01*
X024491Y013494D02*
X024699Y013494D01*
X022909Y014680D02*
X022909Y015180D01*
X022129Y015587D02*
X022000Y015640D01*
X021817Y015640D01*
X021648Y015570D01*
X021519Y015441D01*
X021449Y015271D01*
X021449Y015088D01*
X021519Y014919D01*
X021629Y014809D01*
X021629Y014796D01*
X021293Y014460D01*
X020025Y014460D01*
X019728Y014757D01*
X019817Y014720D01*
X020000Y014720D01*
X020169Y014790D01*
X020299Y014919D01*
X020369Y015088D01*
X020369Y015271D01*
X020299Y015441D01*
X020189Y015551D01*
X020189Y022236D01*
X020146Y022339D01*
X019646Y022839D01*
X019585Y022900D01*
X019793Y022900D01*
X020629Y022064D01*
X020629Y015551D01*
X020519Y015441D01*
X020449Y015271D01*
X020449Y015088D01*
X020519Y014919D01*
X020648Y014790D01*
X020817Y014720D01*
X021000Y014720D01*
X021169Y014790D01*
X021299Y014919D01*
X021369Y015088D01*
X021369Y015271D01*
X021299Y015441D01*
X021189Y015551D01*
X021189Y016564D01*
X022025Y017400D01*
X023233Y017400D01*
X023172Y017339D01*
X022172Y016339D01*
X022129Y016236D01*
X022129Y015587D01*
X022129Y015713D02*
X021189Y015713D01*
X021189Y015555D02*
X021633Y015555D01*
X021500Y015396D02*
X021317Y015396D01*
X021369Y015238D02*
X021449Y015238D01*
X021453Y015079D02*
X021365Y015079D01*
X021299Y014921D02*
X021518Y014921D01*
X021595Y014762D02*
X021102Y014762D01*
X021436Y014604D02*
X019881Y014604D01*
X020102Y014762D02*
X020716Y014762D01*
X020518Y014921D02*
X020299Y014921D01*
X020365Y015079D02*
X020453Y015079D01*
X020449Y015238D02*
X020369Y015238D01*
X020317Y015396D02*
X020500Y015396D01*
X020629Y015555D02*
X020189Y015555D01*
X020189Y015713D02*
X020629Y015713D01*
X020629Y015872D02*
X020189Y015872D01*
X020189Y016030D02*
X020629Y016030D01*
X020629Y016189D02*
X020189Y016189D01*
X020189Y016347D02*
X020629Y016347D01*
X020629Y016506D02*
X020189Y016506D01*
X020189Y016664D02*
X020629Y016664D01*
X020629Y016823D02*
X020189Y016823D01*
X020189Y016981D02*
X020629Y016981D01*
X020629Y017140D02*
X020189Y017140D01*
X020189Y017298D02*
X020629Y017298D01*
X020629Y017457D02*
X020189Y017457D01*
X020189Y017615D02*
X020629Y017615D01*
X020629Y017774D02*
X020189Y017774D01*
X020189Y017932D02*
X020629Y017932D01*
X020629Y018091D02*
X020189Y018091D01*
X020189Y018249D02*
X020629Y018249D01*
X020629Y018408D02*
X020189Y018408D01*
X020189Y018566D02*
X020629Y018566D01*
X020629Y018725D02*
X020189Y018725D01*
X020189Y018883D02*
X020629Y018883D01*
X020629Y019042D02*
X020189Y019042D01*
X020189Y019200D02*
X020629Y019200D01*
X020629Y019359D02*
X020189Y019359D01*
X020189Y019517D02*
X020629Y019517D01*
X020629Y019676D02*
X020189Y019676D01*
X020189Y019834D02*
X020629Y019834D01*
X020629Y019993D02*
X020189Y019993D01*
X020189Y020151D02*
X020629Y020151D01*
X020629Y020310D02*
X020189Y020310D01*
X020189Y020468D02*
X020629Y020468D01*
X020629Y020627D02*
X020189Y020627D01*
X020189Y020785D02*
X020629Y020785D01*
X020629Y020944D02*
X020189Y020944D01*
X020189Y021102D02*
X020629Y021102D01*
X020629Y021261D02*
X020189Y021261D01*
X020189Y021419D02*
X020629Y021419D01*
X020629Y021578D02*
X020189Y021578D01*
X020189Y021736D02*
X020629Y021736D01*
X020629Y021895D02*
X020189Y021895D01*
X020189Y022053D02*
X020629Y022053D01*
X020481Y022212D02*
X020189Y022212D01*
X020115Y022370D02*
X020323Y022370D01*
X020164Y022529D02*
X019956Y022529D01*
X020006Y022687D02*
X019798Y022687D01*
X019847Y022846D02*
X019639Y022846D01*
X019409Y022680D02*
X014409Y022680D01*
X013909Y023180D01*
X013909Y023930D01*
X013659Y024180D01*
X010409Y024180D01*
X009909Y023680D01*
X009909Y022430D01*
X007159Y019680D01*
X007159Y014430D01*
X007515Y014074D01*
X008409Y014074D01*
X008845Y013930D02*
X008866Y013983D01*
X008866Y014165D01*
X008797Y014333D01*
X008668Y014462D01*
X008654Y014467D01*
X008668Y014473D01*
X008797Y014602D01*
X008866Y014770D01*
X008866Y014952D01*
X008797Y015120D01*
X008668Y015249D01*
X008624Y015267D01*
X008638Y015274D01*
X008694Y015315D01*
X008743Y015364D01*
X008783Y015419D01*
X008814Y015481D01*
X008836Y015546D01*
X008846Y015614D01*
X008846Y015648D01*
X008409Y015648D01*
X008409Y015649D01*
X008846Y015649D01*
X008846Y015683D01*
X008836Y015751D01*
X008814Y015816D01*
X008783Y015878D01*
X008743Y015934D01*
X008694Y015982D01*
X008638Y016023D01*
X008624Y016030D01*
X008668Y016048D01*
X008797Y016177D01*
X008866Y016345D01*
X008866Y016527D01*
X008797Y016695D01*
X008668Y016824D01*
X008654Y016830D01*
X008668Y016835D01*
X008776Y016943D01*
X009750Y016943D01*
X010379Y016314D01*
X010379Y013930D01*
X008845Y013930D01*
X008861Y013970D02*
X010379Y013970D01*
X010379Y014128D02*
X008866Y014128D01*
X008816Y014287D02*
X010379Y014287D01*
X010379Y014445D02*
X008685Y014445D01*
X008797Y014604D02*
X010379Y014604D01*
X010379Y014762D02*
X008863Y014762D01*
X008866Y014921D02*
X010379Y014921D01*
X010379Y015079D02*
X008814Y015079D01*
X008679Y015238D02*
X010379Y015238D01*
X010379Y015396D02*
X008766Y015396D01*
X008837Y015555D02*
X010379Y015555D01*
X010379Y015713D02*
X008842Y015713D01*
X008786Y015872D02*
X010379Y015872D01*
X010379Y016030D02*
X008624Y016030D01*
X008802Y016189D02*
X010379Y016189D01*
X010346Y016347D02*
X008866Y016347D01*
X008866Y016506D02*
X010187Y016506D01*
X010029Y016664D02*
X008810Y016664D01*
X008669Y016823D02*
X009870Y016823D01*
X009866Y017223D02*
X010659Y016430D01*
X010659Y013680D01*
X010659Y013430D01*
X012659Y011430D01*
X016659Y011430D01*
X017409Y010680D01*
X018659Y010680D01*
X018659Y006086D01*
X018253Y005680D01*
X018253Y002524D01*
X017564Y001836D01*
X013409Y001836D01*
X012003Y001836D01*
X011753Y002086D01*
X011753Y002680D01*
X012103Y002716D02*
X012731Y002716D01*
X012810Y002683D02*
X013008Y002683D01*
X013009Y002684D01*
X013009Y002292D01*
X013121Y002180D01*
X013056Y002116D01*
X012119Y002116D01*
X012033Y002201D01*
X012033Y002327D01*
X012103Y002397D01*
X012103Y002963D01*
X011986Y003080D01*
X011521Y003080D01*
X011409Y002968D01*
X011297Y003080D01*
X010832Y003080D01*
X010714Y002963D01*
X010714Y002960D01*
X010356Y002960D01*
X010406Y003081D01*
X010406Y003279D01*
X010330Y003461D01*
X010190Y003601D01*
X010094Y003641D01*
X010067Y003667D01*
X009585Y004150D01*
X011793Y004150D01*
X012172Y003771D01*
X012250Y003693D01*
X012353Y003650D01*
X012745Y003650D01*
X012627Y003601D01*
X012488Y003461D01*
X012412Y003279D01*
X012412Y003081D01*
X012488Y002899D01*
X012627Y002759D01*
X012810Y002683D01*
X013009Y002558D02*
X012103Y002558D01*
X012103Y002399D02*
X013009Y002399D01*
X013060Y002241D02*
X012033Y002241D01*
X011473Y002241D02*
X009272Y002241D01*
X009261Y002399D02*
X010714Y002399D01*
X011064Y002680D02*
X010159Y002680D01*
X009909Y002930D01*
X009909Y003180D01*
X009909Y003430D01*
X009409Y003930D01*
X007909Y003930D01*
X006909Y004930D01*
X006909Y012930D01*
X007265Y013286D01*
X008409Y013286D01*
X008845Y013430D02*
X010379Y013430D01*
X010379Y013374D01*
X010422Y013271D01*
X012422Y011271D01*
X012500Y011193D01*
X012603Y011150D01*
X016543Y011150D01*
X017172Y010521D01*
X017250Y010443D01*
X017353Y010400D01*
X018379Y010400D01*
X018379Y006356D01*
X018317Y006417D01*
X018215Y006460D01*
X016866Y006460D01*
X016809Y006482D01*
X016809Y006568D01*
X016697Y006680D01*
X016809Y006792D01*
X016809Y007257D01*
X016692Y007374D01*
X016455Y007374D01*
X016360Y007470D01*
X016406Y007581D01*
X016406Y007779D01*
X016330Y007961D01*
X016190Y008101D01*
X016189Y008102D01*
X016189Y008736D01*
X016146Y008839D01*
X016067Y008917D01*
X015317Y009667D01*
X015215Y009710D01*
X013525Y009710D01*
X011286Y011949D01*
X011183Y011991D01*
X008776Y011991D01*
X008668Y012099D01*
X008654Y012105D01*
X008668Y012111D01*
X008797Y012240D01*
X008866Y012408D01*
X008866Y012590D01*
X008797Y012758D01*
X008668Y012887D01*
X008654Y012893D01*
X008668Y012898D01*
X008797Y013027D01*
X008866Y013195D01*
X008866Y013377D01*
X008845Y013430D01*
X008866Y013336D02*
X010395Y013336D01*
X010516Y013177D02*
X008859Y013177D01*
X008788Y013019D02*
X010674Y013019D01*
X010833Y012860D02*
X008695Y012860D01*
X008820Y012702D02*
X010991Y012702D01*
X011150Y012543D02*
X008866Y012543D01*
X008857Y012385D02*
X011308Y012385D01*
X011467Y012226D02*
X008783Y012226D01*
X008700Y012068D02*
X011625Y012068D01*
X011784Y011909D02*
X011326Y011909D01*
X011484Y011751D02*
X011942Y011751D01*
X012101Y011592D02*
X011643Y011592D01*
X011801Y011434D02*
X012259Y011434D01*
X012418Y011275D02*
X011960Y011275D01*
X012118Y011117D02*
X016576Y011117D01*
X016735Y010958D02*
X012277Y010958D01*
X012435Y010800D02*
X016893Y010800D01*
X017052Y010641D02*
X012594Y010641D01*
X012752Y010483D02*
X017210Y010483D01*
X017172Y010521D02*
X017172Y010521D01*
X017525Y010960D02*
X016817Y011667D01*
X016715Y011710D01*
X012775Y011710D01*
X010939Y013546D01*
X010939Y016486D01*
X010896Y016589D01*
X010817Y016667D01*
X010103Y017382D01*
X010024Y017461D01*
X009921Y017503D01*
X008776Y017503D01*
X008668Y017611D01*
X008500Y017681D01*
X008318Y017681D01*
X008150Y017611D01*
X008021Y017482D01*
X007951Y017314D01*
X007951Y017132D01*
X008021Y016964D01*
X008150Y016835D01*
X008164Y016830D01*
X008150Y016824D01*
X008021Y016695D01*
X007951Y016527D01*
X007951Y016345D01*
X008021Y016177D01*
X008150Y016048D01*
X008194Y016030D01*
X008180Y016023D01*
X008124Y015982D01*
X008075Y015934D01*
X008035Y015878D01*
X008003Y015816D01*
X007982Y015751D01*
X007971Y015683D01*
X007971Y015649D01*
X008409Y015649D01*
X008409Y015648D01*
X007971Y015648D01*
X007971Y015614D01*
X007982Y015546D01*
X008003Y015481D01*
X008035Y015419D01*
X008075Y015364D01*
X008124Y015315D01*
X008180Y015274D01*
X008194Y015267D01*
X008150Y015249D01*
X008068Y015167D01*
X007939Y015296D01*
X007939Y019064D01*
X010567Y021693D01*
X010646Y021771D01*
X010689Y021874D01*
X010689Y023064D01*
X011025Y023400D01*
X012450Y023400D01*
X012429Y023379D01*
X012429Y022981D01*
X012710Y022700D01*
X012785Y022700D01*
X012845Y022640D01*
X012718Y022640D01*
X012449Y022371D01*
X012449Y022190D01*
X012899Y022190D01*
X012899Y022170D01*
X012919Y022170D01*
X012919Y021720D01*
X013099Y021720D01*
X013159Y021779D01*
X013159Y014630D01*
X013197Y014538D01*
X013267Y014468D01*
X013267Y014468D01*
X014197Y013538D01*
X014267Y013468D01*
X014359Y013430D01*
X016929Y013430D01*
X016929Y013338D01*
X017389Y013338D01*
X017389Y013298D01*
X016929Y013298D01*
X016929Y013094D01*
X016941Y013048D01*
X016965Y013007D01*
X016998Y012974D01*
X017039Y012950D01*
X017085Y012938D01*
X017389Y012938D01*
X017389Y013298D01*
X017429Y013298D01*
X017429Y013338D01*
X017889Y013338D01*
X017889Y013430D01*
X018055Y013430D01*
X018659Y012826D01*
X018659Y012574D01*
X018648Y012570D01*
X018519Y012441D01*
X018449Y012271D01*
X018449Y012088D01*
X018519Y011919D01*
X018595Y011843D01*
X018509Y011757D01*
X018509Y011292D01*
X018621Y011180D01*
X018509Y011068D01*
X018509Y010960D01*
X017525Y010960D01*
X017368Y011117D02*
X018557Y011117D01*
X018526Y011275D02*
X017210Y011275D01*
X017051Y011434D02*
X018509Y011434D01*
X018509Y011592D02*
X016893Y011592D01*
X017409Y012180D02*
X017409Y013318D01*
X017429Y013336D02*
X018150Y013336D01*
X018308Y013177D02*
X017889Y013177D01*
X017889Y013094D02*
X017889Y013298D01*
X017429Y013298D01*
X017429Y012938D01*
X017733Y012938D01*
X017778Y012950D01*
X017819Y012974D01*
X017853Y013007D01*
X017877Y013048D01*
X017889Y013094D01*
X017860Y013019D02*
X018467Y013019D01*
X018625Y012860D02*
X011625Y012860D01*
X011783Y012702D02*
X018659Y012702D01*
X018621Y012543D02*
X011942Y012543D01*
X012100Y012385D02*
X018496Y012385D01*
X018449Y012226D02*
X012259Y012226D01*
X012417Y012068D02*
X018458Y012068D01*
X018529Y011909D02*
X012576Y011909D01*
X012734Y011751D02*
X018509Y011751D01*
X018909Y011524D02*
X018909Y012180D01*
X019689Y012702D02*
X021629Y012702D01*
X021629Y012860D02*
X019689Y012860D01*
X019689Y013019D02*
X021629Y013019D01*
X021629Y013177D02*
X019689Y013177D01*
X019689Y013336D02*
X021629Y013336D01*
X021629Y013494D02*
X019685Y013494D01*
X019582Y013653D02*
X021629Y013653D01*
X021660Y013811D02*
X019424Y013811D01*
X019265Y013970D02*
X019723Y013970D01*
X019565Y014128D02*
X019107Y014128D01*
X018939Y014287D02*
X019406Y014287D01*
X019248Y014445D02*
X017689Y014445D01*
X017728Y014604D02*
X019137Y014604D01*
X019129Y014762D02*
X019102Y014762D01*
X019409Y014680D02*
X019909Y014180D01*
X021409Y014180D01*
X021909Y014680D01*
X021909Y015180D01*
X020909Y015180D02*
X020909Y016680D01*
X020909Y022180D01*
X019909Y023180D01*
X014909Y023180D01*
X014429Y023163D02*
X014389Y023163D01*
X014389Y023321D02*
X014429Y023321D01*
X014530Y023480D02*
X014288Y023480D01*
X014189Y023638D02*
X014688Y023638D01*
X015130Y023638D02*
X015681Y023638D01*
X015560Y023797D02*
X014189Y023797D01*
X014189Y023955D02*
X015564Y023955D01*
X015584Y024114D02*
X014121Y024114D01*
X013963Y024272D02*
X015551Y024272D01*
X015624Y024431D02*
X013786Y024431D01*
X013543Y023900D02*
X013335Y023900D01*
X013567Y023667D01*
X013629Y023606D01*
X013629Y023814D01*
X013543Y023900D01*
X013629Y023797D02*
X013438Y023797D01*
X013597Y023638D02*
X013629Y023638D01*
X013409Y023430D02*
X013409Y022930D01*
X013909Y022430D01*
X013909Y022180D01*
X013909Y021680D01*
X014409Y021180D01*
X018409Y021180D01*
X019409Y020180D01*
X019409Y014680D01*
X018716Y014762D02*
X017887Y014762D01*
X017909Y015180D02*
X017409Y014680D01*
X017409Y014042D01*
X018796Y014042D01*
X019409Y013430D01*
X019409Y010930D01*
X019314Y010836D01*
X018909Y010836D01*
X018753Y010680D01*
X018659Y010680D01*
X018952Y010483D02*
X019629Y010483D01*
X019629Y010641D02*
X019516Y010641D01*
X019629Y010324D02*
X018939Y010324D01*
X018939Y010166D02*
X019629Y010166D01*
X019686Y010007D02*
X018939Y010007D01*
X018939Y009849D02*
X019844Y009849D01*
X020003Y009690D02*
X018939Y009690D01*
X018939Y009532D02*
X020161Y009532D01*
X020409Y009680D02*
X020909Y009680D01*
X021409Y009180D01*
X021409Y007024D01*
X021809Y006996D02*
X022509Y006996D01*
X022509Y007154D02*
X021809Y007154D01*
X021754Y007313D02*
X022564Y007313D01*
X022629Y007471D02*
X021689Y007471D01*
X021689Y007630D02*
X022629Y007630D01*
X022629Y007788D02*
X021689Y007788D01*
X021689Y007947D02*
X022629Y007947D01*
X022629Y008105D02*
X021689Y008105D01*
X021689Y008264D02*
X022629Y008264D01*
X022629Y008422D02*
X021689Y008422D01*
X021689Y008581D02*
X022629Y008581D01*
X022629Y008739D02*
X021689Y008739D01*
X021689Y008898D02*
X022629Y008898D01*
X022629Y009056D02*
X021689Y009056D01*
X021689Y009215D02*
X022629Y009215D01*
X022629Y009373D02*
X021612Y009373D01*
X021453Y009532D02*
X022629Y009532D01*
X022503Y009690D02*
X021295Y009690D01*
X021136Y009849D02*
X022344Y009849D01*
X022409Y010180D02*
X022909Y009680D01*
X022909Y007024D01*
X023309Y006996D02*
X023379Y006996D01*
X023379Y007154D02*
X023309Y007154D01*
X023254Y007313D02*
X023379Y007313D01*
X023379Y007471D02*
X023189Y007471D01*
X023189Y007630D02*
X023379Y007630D01*
X023379Y007788D02*
X023189Y007788D01*
X023189Y007947D02*
X023379Y007947D01*
X023338Y008105D02*
X023189Y008105D01*
X023689Y008581D02*
X024112Y008581D01*
X024129Y008422D02*
X023813Y008422D01*
X023927Y008264D02*
X024129Y008264D01*
X024129Y008105D02*
X023939Y008105D01*
X023939Y007947D02*
X024129Y007947D01*
X024129Y007788D02*
X023939Y007788D01*
X023939Y007630D02*
X024129Y007630D01*
X024129Y007471D02*
X023939Y007471D01*
X023939Y007313D02*
X024064Y007313D01*
X024009Y007154D02*
X023939Y007154D01*
X023939Y006996D02*
X024009Y006996D01*
X024009Y006837D02*
X023939Y006837D01*
X023939Y006679D02*
X024119Y006679D01*
X024009Y006520D02*
X023939Y006520D01*
X023939Y006362D02*
X024009Y006362D01*
X024009Y006203D02*
X023939Y006203D01*
X023939Y006045D02*
X024067Y006045D01*
X024129Y005886D02*
X023939Y005886D01*
X023939Y005728D02*
X024129Y005728D01*
X024152Y005569D02*
X023939Y005569D01*
X023939Y005411D02*
X024252Y005411D01*
X024194Y005252D02*
X023939Y005252D01*
X023939Y005094D02*
X024194Y005094D01*
X024258Y004935D02*
X023939Y004935D01*
X023939Y004777D02*
X024430Y004777D01*
X024483Y004585D02*
X024422Y004554D01*
X024366Y004514D01*
X024318Y004465D01*
X024277Y004409D01*
X024246Y004348D01*
X024225Y004282D01*
X024214Y004214D01*
X024214Y004180D01*
X024214Y004146D01*
X024225Y004078D01*
X024246Y004012D01*
X024277Y003951D01*
X024318Y003895D01*
X024366Y003846D01*
X024422Y003806D01*
X024483Y003775D01*
X024549Y003753D01*
X024617Y003743D01*
X024909Y003743D01*
X025201Y003743D01*
X025269Y003753D01*
X025334Y003775D01*
X025396Y003806D01*
X025451Y003846D01*
X025500Y003895D01*
X025541Y003951D01*
X025572Y004012D01*
X025593Y004078D01*
X025604Y004146D01*
X025604Y004180D01*
X025604Y004214D01*
X025593Y004282D01*
X025572Y004348D01*
X025541Y004409D01*
X025500Y004465D01*
X025451Y004514D01*
X025396Y004554D01*
X025334Y004585D01*
X025269Y004607D01*
X025201Y004617D01*
X024909Y004617D01*
X024909Y004180D01*
X025604Y004180D01*
X024909Y004180D01*
X024909Y004180D01*
X024909Y003743D01*
X024909Y004180D01*
X024909Y004180D01*
X024909Y004180D01*
X024909Y004617D01*
X024617Y004617D01*
X024549Y004607D01*
X024483Y004585D01*
X024314Y004460D02*
X023939Y004460D01*
X023939Y004618D02*
X025629Y004618D01*
X025629Y004460D02*
X025504Y004460D01*
X025587Y004301D02*
X025629Y004301D01*
X025629Y004143D02*
X025603Y004143D01*
X025629Y003984D02*
X025558Y003984D01*
X025629Y003826D02*
X025423Y003826D01*
X025500Y003667D02*
X023939Y003667D01*
X023939Y003509D02*
X024333Y003509D01*
X024227Y003350D02*
X023939Y003350D01*
X023939Y003192D02*
X024194Y003192D01*
X024217Y003033D02*
X023952Y003033D01*
X024110Y002875D02*
X024310Y002875D01*
X024269Y002716D02*
X033799Y002716D01*
X033957Y002875D02*
X032508Y002875D01*
X032658Y003033D02*
X034116Y003033D01*
X034274Y003192D02*
X032816Y003192D01*
X032975Y003350D02*
X034379Y003350D01*
X034379Y003509D02*
X033133Y003509D01*
X033189Y003667D02*
X034379Y003667D01*
X034379Y003826D02*
X033189Y003826D01*
X033189Y003984D02*
X034379Y003984D01*
X034379Y004143D02*
X033189Y004143D01*
X033189Y004301D02*
X034379Y004301D01*
X034379Y004460D02*
X033189Y004460D01*
X033189Y004618D02*
X034379Y004618D01*
X034379Y004777D02*
X033189Y004777D01*
X033189Y004935D02*
X034379Y004935D01*
X034379Y005094D02*
X033189Y005094D01*
X033189Y005252D02*
X034379Y005252D01*
X034379Y005411D02*
X033189Y005411D01*
X033189Y005569D02*
X034379Y005569D01*
X034379Y005728D02*
X033189Y005728D01*
X033099Y005886D02*
X034379Y005886D01*
X034379Y006045D02*
X032940Y006045D01*
X032782Y006203D02*
X034379Y006203D01*
X034444Y006362D02*
X032623Y006362D01*
X032409Y006180D02*
X032064Y006180D01*
X031909Y006336D01*
X031509Y006362D02*
X030809Y006362D01*
X030809Y006520D02*
X031509Y006520D01*
X031619Y006679D02*
X030699Y006679D01*
X030809Y006837D02*
X031509Y006837D01*
X032199Y006679D02*
X034761Y006679D01*
X034920Y006837D02*
X032309Y006837D01*
X032309Y006520D02*
X034603Y006520D01*
X035236Y006362D02*
X041142Y006362D01*
X041142Y006520D02*
X035395Y006520D01*
X035078Y006203D02*
X041142Y006203D01*
X041142Y006045D02*
X034939Y006045D01*
X034939Y005886D02*
X041142Y005886D01*
X041142Y005728D02*
X034939Y005728D01*
X034939Y005569D02*
X041142Y005569D01*
X041142Y005411D02*
X034939Y005411D01*
X034939Y005252D02*
X041142Y005252D01*
X041142Y005094D02*
X034939Y005094D01*
X034939Y004935D02*
X041142Y004935D01*
X041142Y004777D02*
X034939Y004777D01*
X034939Y004618D02*
X041142Y004618D01*
X041142Y004460D02*
X037004Y004460D01*
X037000Y004465D02*
X036951Y004514D01*
X036896Y004554D01*
X036834Y004585D01*
X036769Y004607D01*
X036701Y004617D01*
X036409Y004617D01*
X036409Y004180D01*
X037104Y004180D01*
X037104Y004214D01*
X037093Y004282D01*
X037072Y004348D01*
X037041Y004409D01*
X037000Y004465D01*
X037087Y004301D02*
X041142Y004301D01*
X041142Y004143D02*
X037103Y004143D01*
X037104Y004146D02*
X037093Y004078D01*
X037072Y004012D01*
X037041Y003951D01*
X037000Y003895D01*
X036951Y003846D01*
X036896Y003806D01*
X036834Y003775D01*
X036769Y003753D01*
X036701Y003743D01*
X036409Y003743D01*
X036409Y004180D01*
X036409Y004180D01*
X037104Y004180D01*
X037104Y004146D01*
X037058Y003984D02*
X041142Y003984D01*
X041142Y003826D02*
X036923Y003826D01*
X036409Y003826D02*
X036409Y003826D01*
X036409Y003743D02*
X036409Y004180D01*
X036409Y004180D01*
X036409Y004180D01*
X036409Y004617D01*
X036117Y004617D01*
X036049Y004607D01*
X035983Y004585D01*
X035922Y004554D01*
X035866Y004514D01*
X035818Y004465D01*
X035777Y004409D01*
X035746Y004348D01*
X035725Y004282D01*
X035714Y004214D01*
X035714Y004180D01*
X035714Y004146D01*
X035725Y004078D01*
X035746Y004012D01*
X035777Y003951D01*
X035818Y003895D01*
X035866Y003846D01*
X035922Y003806D01*
X035983Y003775D01*
X036049Y003753D01*
X036117Y003743D01*
X036409Y003743D01*
X036409Y003984D02*
X036409Y003984D01*
X036409Y004143D02*
X036409Y004143D01*
X036409Y004180D02*
X035714Y004180D01*
X036409Y004180D01*
X036409Y004180D01*
X036409Y004301D02*
X036409Y004301D01*
X036409Y004460D02*
X036409Y004460D01*
X035814Y004460D02*
X034939Y004460D01*
X034939Y004301D02*
X035731Y004301D01*
X035714Y004143D02*
X034939Y004143D01*
X034939Y003984D02*
X035760Y003984D01*
X035895Y003826D02*
X034939Y003826D01*
X034939Y003667D02*
X041142Y003667D01*
X041142Y003509D02*
X039728Y003509D01*
X039698Y003520D02*
X039681Y003512D01*
X039660Y003517D01*
X039648Y003531D01*
X039573Y003536D01*
X039499Y003552D01*
X039484Y003542D01*
X039462Y003544D01*
X039449Y003556D01*
X039373Y003550D01*
X039298Y003556D01*
X039285Y003544D01*
X039263Y003542D01*
X039248Y003552D01*
X039174Y003536D01*
X039099Y003531D01*
X039087Y003517D01*
X039065Y003512D01*
X039049Y003520D01*
X038979Y003493D01*
X038905Y003477D01*
X038895Y003462D01*
X038875Y003455D01*
X038857Y003460D01*
X038791Y003424D01*
X038721Y003397D01*
X038713Y003381D01*
X038694Y003370D01*
X038676Y003373D01*
X038616Y003328D01*
X038549Y003292D01*
X038544Y003274D01*
X038527Y003261D01*
X038509Y003261D01*
X038456Y003208D01*
X038395Y003163D01*
X038393Y003145D01*
X038377Y003129D01*
X038359Y003127D01*
X038314Y003066D01*
X038261Y003013D01*
X038261Y002995D01*
X038248Y002978D01*
X038230Y002972D01*
X038194Y002906D01*
X038149Y002846D01*
X038152Y002828D01*
X038141Y002809D01*
X038125Y002801D01*
X038098Y002731D01*
X038062Y002665D01*
X038067Y002647D01*
X038060Y002627D01*
X038045Y002617D01*
X038029Y002543D01*
X038002Y002473D01*
X038010Y002456D01*
X038005Y002435D01*
X037991Y002423D01*
X037986Y002348D01*
X037970Y002274D01*
X037980Y002259D01*
X037978Y002237D01*
X037966Y002224D01*
X037972Y002149D01*
X037966Y002073D01*
X037978Y002060D01*
X037980Y002038D01*
X037970Y002023D01*
X037986Y001949D01*
X037991Y001874D01*
X038005Y001862D01*
X038010Y001841D01*
X038002Y001824D01*
X038029Y001754D01*
X038045Y001680D01*
X038060Y001670D01*
X038067Y001650D01*
X038062Y001632D01*
X038098Y001566D01*
X038125Y001496D01*
X038141Y001488D01*
X038152Y001469D01*
X038149Y001451D01*
X038194Y001391D01*
X038230Y001325D01*
X038248Y001319D01*
X038261Y001302D01*
X038261Y001284D01*
X038314Y001231D01*
X038359Y001170D01*
X038377Y001168D01*
X038393Y001152D01*
X038395Y001134D01*
X038456Y001089D01*
X038509Y001036D01*
X038527Y001036D01*
X038544Y001023D01*
X038549Y001005D01*
X038616Y000969D01*
X038676Y000924D01*
X038694Y000927D01*
X038713Y000916D01*
X038721Y000900D01*
X038791Y000874D01*
X038857Y000837D01*
X038875Y000842D01*
X038895Y000835D01*
X038905Y000820D01*
X038979Y000804D01*
X039049Y000777D01*
X039065Y000785D01*
X039087Y000780D01*
X039099Y000766D01*
X039174Y000761D01*
X039248Y000745D01*
X039263Y000755D01*
X039285Y000753D01*
X039298Y000741D01*
X039373Y000747D01*
X039449Y000741D01*
X039462Y000753D01*
X039484Y000755D01*
X039499Y000745D01*
X039573Y000761D01*
X039648Y000766D01*
X039660Y000780D01*
X039681Y000785D01*
X039698Y000777D01*
X039768Y000804D01*
X039842Y000820D01*
X039852Y000835D01*
X039872Y000842D01*
X039890Y000837D01*
X039956Y000874D01*
X040026Y000900D01*
X040034Y000916D01*
X040053Y000927D01*
X040071Y000924D01*
X040131Y000969D01*
X040197Y001005D01*
X040202Y001023D01*
X040220Y001036D01*
X040238Y001036D01*
X040291Y001089D01*
X040352Y001134D01*
X040354Y001152D01*
X040370Y001168D01*
X040388Y001170D01*
X040433Y001231D01*
X040486Y001284D01*
X040486Y001302D01*
X040499Y001319D01*
X040516Y001325D01*
X040553Y001391D01*
X040598Y001451D01*
X040595Y001469D01*
X040606Y001488D01*
X040622Y001496D01*
X040648Y001566D01*
X040685Y001632D01*
X040680Y001650D01*
X040687Y001670D01*
X040702Y001680D01*
X040718Y001754D01*
X040745Y001824D01*
X040737Y001841D01*
X040742Y001862D01*
X040755Y001874D01*
X040761Y001949D01*
X040777Y002023D01*
X040767Y002038D01*
X040769Y002060D01*
X040780Y002073D01*
X040775Y002149D01*
X040780Y002224D01*
X040769Y002237D01*
X040767Y002259D01*
X040777Y002274D01*
X040761Y002348D01*
X040755Y002423D01*
X040742Y002435D01*
X040737Y002456D01*
X040745Y002473D01*
X040718Y002543D01*
X040702Y002617D01*
X040687Y002627D01*
X040680Y002647D01*
X040685Y002665D01*
X040648Y002731D01*
X040622Y002801D01*
X040606Y002809D01*
X040595Y002828D01*
X040598Y002846D01*
X040553Y002906D01*
X040516Y002972D01*
X040499Y002978D01*
X040486Y002995D01*
X040486Y003013D01*
X040433Y003066D01*
X040388Y003127D01*
X040370Y003129D01*
X040354Y003145D01*
X040352Y003163D01*
X040291Y003208D01*
X040238Y003261D01*
X040220Y003261D01*
X040202Y003274D01*
X040197Y003292D01*
X040131Y003328D01*
X040071Y003373D01*
X040053Y003370D01*
X040034Y003381D01*
X040026Y003397D01*
X039956Y003424D01*
X039890Y003460D01*
X039872Y003455D01*
X039852Y003462D01*
X039842Y003477D01*
X039768Y003493D01*
X039698Y003520D01*
X040101Y003350D02*
X041142Y003350D01*
X041142Y003192D02*
X040313Y003192D01*
X040466Y003033D02*
X041142Y003033D01*
X041142Y002875D02*
X040576Y002875D01*
X040657Y002716D02*
X041142Y002716D01*
X041142Y002558D02*
X040715Y002558D01*
X040757Y002399D02*
X041142Y002399D01*
X041142Y002241D02*
X040769Y002241D01*
X040780Y002082D02*
X041138Y002082D01*
X041125Y001924D02*
X040759Y001924D01*
X040723Y001765D02*
X041089Y001765D01*
X041052Y001607D02*
X040670Y001607D01*
X040596Y001448D02*
X040987Y001448D01*
X040910Y001290D02*
X040486Y001290D01*
X040347Y001131D02*
X040810Y001131D01*
X040683Y000973D02*
X040137Y000973D01*
X039816Y000814D02*
X040519Y000814D01*
X040917Y000605D02*
X041221Y000987D01*
X041221Y000987D01*
X041409Y001377D01*
X041409Y000180D01*
X040284Y000180D01*
X040534Y000301D01*
X040534Y000301D01*
X040917Y000605D01*
X040917Y000605D01*
X040917Y000605D01*
X040956Y000656D02*
X041409Y000656D01*
X041409Y000814D02*
X041083Y000814D01*
X041209Y000973D02*
X041409Y000973D01*
X041409Y001131D02*
X041290Y001131D01*
X041367Y001290D02*
X041409Y001290D01*
X041409Y000497D02*
X040781Y000497D01*
X040582Y000339D02*
X041409Y000339D01*
X041409Y000180D02*
X040284Y000180D01*
X038931Y000814D02*
X016367Y000814D01*
X016386Y000662D02*
X016386Y000642D01*
X016374Y000568D01*
X016351Y000497D01*
X015890Y000698D02*
X015890Y001157D01*
X015871Y001157D01*
X015797Y001145D01*
X015726Y001122D01*
X015659Y001088D01*
X015598Y001044D01*
X015545Y000991D01*
X015501Y000930D01*
X015467Y000863D01*
X015444Y000792D01*
X015432Y000718D01*
X015432Y000698D01*
X015890Y000698D01*
X015890Y000814D02*
X015927Y000814D01*
X015927Y000973D02*
X015890Y000973D01*
X015890Y001131D02*
X015927Y001131D01*
X016064Y001131D02*
X038400Y001131D01*
X038261Y001290D02*
X008990Y001290D01*
X009099Y001448D02*
X038151Y001448D01*
X038076Y001607D02*
X017731Y001607D01*
X017890Y001765D02*
X038024Y001765D01*
X037988Y001924D02*
X033771Y001924D01*
X033957Y002082D02*
X037967Y002082D01*
X037978Y002241D02*
X034115Y002241D01*
X034274Y002399D02*
X037990Y002399D01*
X038032Y002558D02*
X034432Y002558D01*
X034591Y002716D02*
X038090Y002716D01*
X038171Y002875D02*
X034749Y002875D01*
X034901Y003033D02*
X038281Y003033D01*
X038434Y003192D02*
X034939Y003192D01*
X034939Y003350D02*
X038646Y003350D01*
X039019Y003509D02*
X034939Y003509D01*
X033640Y002558D02*
X024427Y002558D01*
X023952Y002241D02*
X018365Y002241D01*
X018504Y002399D02*
X023794Y002399D01*
X023635Y002558D02*
X018533Y002558D01*
X018533Y002716D02*
X019794Y002716D01*
X019797Y002715D02*
X019871Y002703D01*
X019890Y002703D01*
X019890Y003162D01*
X019432Y003162D01*
X019432Y003142D01*
X019444Y003068D01*
X019467Y002997D01*
X019501Y002930D01*
X019545Y002869D01*
X019598Y002816D01*
X019659Y002772D01*
X019726Y002738D01*
X019797Y002715D01*
X019890Y002716D02*
X019927Y002716D01*
X019927Y002703D02*
X019946Y002703D01*
X020021Y002715D01*
X020092Y002738D01*
X020159Y002772D01*
X020220Y002816D01*
X020273Y002869D01*
X020317Y002930D01*
X020351Y002997D01*
X020374Y003068D01*
X020386Y003142D01*
X020386Y003162D01*
X019927Y003162D01*
X019927Y003198D01*
X020386Y003198D01*
X020386Y003218D01*
X020374Y003292D01*
X020351Y003363D01*
X020317Y003430D01*
X020273Y003491D01*
X020220Y003544D01*
X020159Y003588D01*
X020092Y003622D01*
X020021Y003645D01*
X019946Y003657D01*
X019927Y003657D01*
X019927Y003198D01*
X019890Y003198D01*
X019890Y003162D01*
X019927Y003162D01*
X019927Y002703D01*
X020024Y002716D02*
X023477Y002716D01*
X023379Y002875D02*
X022008Y002875D01*
X022409Y003180D02*
X021409Y003180D01*
X021985Y003509D02*
X022341Y003509D01*
X022500Y003667D02*
X018533Y003667D01*
X018533Y003509D02*
X019563Y003509D01*
X019545Y003491D02*
X019598Y003544D01*
X019659Y003588D01*
X019726Y003622D01*
X019797Y003645D01*
X019871Y003657D01*
X019890Y003657D01*
X019890Y003198D01*
X019432Y003198D01*
X019432Y003218D01*
X019444Y003292D01*
X019467Y003363D01*
X019501Y003430D01*
X019545Y003491D01*
X019463Y003350D02*
X018533Y003350D01*
X018533Y003192D02*
X019890Y003192D01*
X019927Y003192D02*
X020694Y003192D01*
X020717Y003033D02*
X020363Y003033D01*
X020276Y002875D02*
X020810Y002875D01*
X020727Y003350D02*
X020355Y003350D01*
X020255Y003509D02*
X020833Y003509D01*
X020983Y003775D02*
X021049Y003753D01*
X021117Y003743D01*
X021409Y003743D01*
X021701Y003743D01*
X021769Y003753D01*
X021834Y003775D01*
X021896Y003806D01*
X021951Y003846D01*
X022000Y003895D01*
X022041Y003951D01*
X022072Y004012D01*
X022093Y004078D01*
X022104Y004146D01*
X022104Y004180D01*
X022104Y004214D01*
X022093Y004282D01*
X022072Y004348D01*
X022041Y004409D01*
X022000Y004465D01*
X021951Y004514D01*
X021896Y004554D01*
X021834Y004585D01*
X021769Y004607D01*
X021701Y004617D01*
X021409Y004617D01*
X021409Y004180D01*
X022104Y004180D01*
X021409Y004180D01*
X021409Y004180D01*
X021409Y003743D01*
X021409Y004180D01*
X021409Y004180D01*
X021409Y004180D01*
X020409Y004180D01*
X020714Y004180D02*
X021409Y004180D01*
X021409Y004617D01*
X021117Y004617D01*
X021049Y004607D01*
X020983Y004585D01*
X020922Y004554D01*
X020866Y004514D01*
X020818Y004465D01*
X020777Y004409D01*
X020746Y004348D01*
X020725Y004282D01*
X020714Y004214D01*
X020714Y004180D01*
X020714Y004146D01*
X020725Y004078D01*
X020746Y004012D01*
X020777Y003951D01*
X020818Y003895D01*
X020866Y003846D01*
X020922Y003806D01*
X020983Y003775D01*
X020895Y003826D02*
X018533Y003826D01*
X018533Y003984D02*
X020760Y003984D01*
X020714Y004143D02*
X018533Y004143D01*
X018533Y004301D02*
X020731Y004301D01*
X020714Y004180D02*
X021409Y004180D01*
X021409Y004180D01*
X021409Y004143D02*
X021409Y004143D01*
X021409Y004301D02*
X021409Y004301D01*
X021409Y004460D02*
X021409Y004460D01*
X021888Y004777D02*
X022629Y004777D01*
X022629Y004935D02*
X022060Y004935D01*
X022124Y005094D02*
X022629Y005094D01*
X022629Y005252D02*
X022124Y005252D01*
X022066Y005411D02*
X022629Y005411D01*
X022629Y005569D02*
X021923Y005569D01*
X021689Y005728D02*
X022629Y005728D01*
X022629Y005886D02*
X021689Y005886D01*
X021751Y006045D02*
X022567Y006045D01*
X022509Y006203D02*
X021809Y006203D01*
X021809Y006362D02*
X022509Y006362D01*
X022509Y006520D02*
X021809Y006520D01*
X021699Y006679D02*
X022619Y006679D01*
X022509Y006837D02*
X021809Y006837D01*
X021409Y006336D02*
X021409Y005180D01*
X020895Y005569D02*
X020223Y005569D01*
X020190Y005601D02*
X020008Y005677D01*
X019810Y005677D01*
X019627Y005601D01*
X019488Y005461D01*
X019412Y005279D01*
X019412Y005081D01*
X019488Y004899D01*
X019627Y004759D01*
X019810Y004683D01*
X020008Y004683D01*
X020190Y004759D01*
X020330Y004899D01*
X020406Y005081D01*
X020406Y005279D01*
X020330Y005461D01*
X020190Y005601D01*
X020351Y005411D02*
X020752Y005411D01*
X020694Y005252D02*
X020406Y005252D01*
X020406Y005094D02*
X020694Y005094D01*
X020758Y004935D02*
X020345Y004935D01*
X020208Y004777D02*
X020930Y004777D01*
X020814Y004460D02*
X018533Y004460D01*
X018533Y004618D02*
X022629Y004618D01*
X022629Y004460D02*
X022004Y004460D01*
X022087Y004301D02*
X022629Y004301D01*
X022629Y004143D02*
X022103Y004143D01*
X022058Y003984D02*
X022629Y003984D01*
X022629Y003826D02*
X021923Y003826D01*
X021409Y003826D02*
X021409Y003826D01*
X021409Y003984D02*
X021409Y003984D01*
X022409Y003180D02*
X022909Y003680D01*
X022909Y006336D01*
X023309Y006362D02*
X023379Y006362D01*
X023379Y006520D02*
X023309Y006520D01*
X023379Y006679D02*
X023199Y006679D01*
X023309Y006837D02*
X023379Y006837D01*
X024409Y006336D02*
X024409Y005680D01*
X024909Y005180D01*
X024757Y005728D02*
X025629Y005728D01*
X025629Y005886D02*
X024689Y005886D01*
X024751Y006045D02*
X025567Y006045D01*
X025509Y006203D02*
X024809Y006203D01*
X024809Y006362D02*
X025509Y006362D01*
X025509Y006520D02*
X024809Y006520D01*
X024699Y006679D02*
X025619Y006679D01*
X025509Y006837D02*
X024809Y006837D01*
X025909Y006336D02*
X025909Y003680D01*
X025409Y003180D01*
X024909Y003180D01*
X024909Y003826D02*
X024909Y003826D01*
X024909Y003984D02*
X024909Y003984D01*
X024909Y004143D02*
X024909Y004143D01*
X024909Y004180D02*
X024214Y004180D01*
X024909Y004180D01*
X024909Y004180D01*
X024909Y004301D02*
X024909Y004301D01*
X024909Y004460D02*
X024909Y004460D01*
X024231Y004301D02*
X023939Y004301D01*
X023939Y004143D02*
X024214Y004143D01*
X024260Y003984D02*
X023939Y003984D01*
X023939Y003826D02*
X024395Y003826D01*
X023379Y003826D02*
X023189Y003826D01*
X023189Y003984D02*
X023379Y003984D01*
X023379Y004143D02*
X023189Y004143D01*
X023189Y004301D02*
X023379Y004301D01*
X023379Y004460D02*
X023189Y004460D01*
X023189Y004618D02*
X023379Y004618D01*
X023379Y004777D02*
X023189Y004777D01*
X023189Y004935D02*
X023379Y004935D01*
X023379Y005094D02*
X023189Y005094D01*
X023189Y005252D02*
X023379Y005252D01*
X023379Y005411D02*
X023189Y005411D01*
X023189Y005569D02*
X023379Y005569D01*
X023379Y005728D02*
X023189Y005728D01*
X023189Y005886D02*
X023379Y005886D01*
X023379Y006045D02*
X023251Y006045D01*
X023309Y006203D02*
X023379Y006203D01*
X025423Y005569D02*
X025629Y005569D01*
X025629Y005411D02*
X025566Y005411D01*
X025624Y005252D02*
X025629Y005252D01*
X025624Y005094D02*
X025629Y005094D01*
X025629Y004935D02*
X025560Y004935D01*
X025629Y004777D02*
X025388Y004777D01*
X026189Y004777D02*
X027930Y004777D01*
X027983Y004585D02*
X027922Y004554D01*
X027866Y004514D01*
X027818Y004465D01*
X027777Y004409D01*
X027746Y004348D01*
X027725Y004282D01*
X027714Y004214D01*
X027714Y004180D01*
X027714Y004146D01*
X027725Y004078D01*
X027746Y004012D01*
X027777Y003951D01*
X027818Y003895D01*
X027866Y003846D01*
X027922Y003806D01*
X027983Y003775D01*
X028049Y003753D01*
X028117Y003743D01*
X028409Y003743D01*
X028701Y003743D01*
X028769Y003753D01*
X028834Y003775D01*
X028896Y003806D01*
X028951Y003846D01*
X029000Y003895D01*
X029041Y003951D01*
X029072Y004012D01*
X029093Y004078D01*
X029104Y004146D01*
X029104Y004180D01*
X029104Y004214D01*
X029093Y004282D01*
X029072Y004348D01*
X029041Y004409D01*
X029000Y004465D01*
X028951Y004514D01*
X028896Y004554D01*
X028834Y004585D01*
X028769Y004607D01*
X028701Y004617D01*
X028409Y004617D01*
X028409Y004180D01*
X029104Y004180D01*
X028409Y004180D01*
X028409Y004180D01*
X028409Y003743D01*
X028409Y004180D01*
X028409Y004180D01*
X028409Y004180D01*
X028409Y004617D01*
X028117Y004617D01*
X028049Y004607D01*
X027983Y004585D01*
X027814Y004460D02*
X026189Y004460D01*
X026189Y004618D02*
X029129Y004618D01*
X029129Y004460D02*
X029004Y004460D01*
X029087Y004301D02*
X029129Y004301D01*
X029129Y004143D02*
X029103Y004143D01*
X029129Y003984D02*
X029058Y003984D01*
X029129Y003826D02*
X028923Y003826D01*
X029000Y003667D02*
X026189Y003667D01*
X026189Y003826D02*
X027895Y003826D01*
X027760Y003984D02*
X026189Y003984D01*
X026189Y004143D02*
X027714Y004143D01*
X027714Y004180D02*
X028409Y004180D01*
X028409Y004180D01*
X027714Y004180D01*
X027731Y004301D02*
X026189Y004301D01*
X026189Y004935D02*
X027758Y004935D01*
X027599Y005094D02*
X026189Y005094D01*
X026189Y005252D02*
X027441Y005252D01*
X027282Y005411D02*
X026189Y005411D01*
X026189Y005569D02*
X027152Y005569D01*
X027129Y005728D02*
X026189Y005728D01*
X026189Y005886D02*
X027129Y005886D01*
X027067Y006045D02*
X026251Y006045D01*
X026309Y006203D02*
X027009Y006203D01*
X027009Y006362D02*
X026309Y006362D01*
X026309Y006520D02*
X027009Y006520D01*
X027119Y006679D02*
X026199Y006679D01*
X026309Y006837D02*
X027009Y006837D01*
X027409Y006336D02*
X027409Y005680D01*
X027909Y005180D01*
X028409Y005180D01*
X028923Y005569D02*
X029124Y005569D01*
X029129Y005411D02*
X029066Y005411D01*
X029124Y005252D02*
X029129Y005252D01*
X029124Y005094D02*
X029129Y005094D01*
X029129Y004935D02*
X029060Y004935D01*
X029129Y004777D02*
X028888Y004777D01*
X028409Y004460D02*
X028409Y004460D01*
X028409Y004301D02*
X028409Y004301D01*
X028409Y004143D02*
X028409Y004143D01*
X028409Y003984D02*
X028409Y003984D01*
X028409Y003826D02*
X028409Y003826D01*
X028409Y003180D02*
X028909Y003180D01*
X029409Y003680D01*
X029409Y005680D01*
X028909Y006180D01*
X028909Y006336D01*
X029309Y006362D02*
X030009Y006362D01*
X030009Y006520D02*
X029309Y006520D01*
X029199Y006679D02*
X030119Y006679D01*
X030009Y006837D02*
X029309Y006837D01*
X028619Y006679D02*
X027699Y006679D01*
X027809Y006837D02*
X028509Y006837D01*
X028509Y006520D02*
X027809Y006520D01*
X027809Y006362D02*
X028509Y006362D01*
X028509Y006203D02*
X027809Y006203D01*
X027751Y006045D02*
X028567Y006045D01*
X028807Y005886D02*
X027689Y005886D01*
X027757Y005728D02*
X028965Y005728D01*
X029440Y006045D02*
X030067Y006045D01*
X030009Y006203D02*
X029309Y006203D01*
X029599Y005886D02*
X030129Y005886D01*
X030129Y005728D02*
X029689Y005728D01*
X029689Y005569D02*
X030152Y005569D01*
X030282Y005411D02*
X029689Y005411D01*
X029689Y005252D02*
X030441Y005252D01*
X030599Y005094D02*
X029689Y005094D01*
X029689Y004935D02*
X030769Y004935D01*
X030909Y005180D02*
X031909Y005180D01*
X032423Y005569D02*
X032624Y005569D01*
X032629Y005411D02*
X032566Y005411D01*
X032624Y005252D02*
X032629Y005252D01*
X032624Y005094D02*
X032629Y005094D01*
X032629Y004935D02*
X032560Y004935D01*
X032629Y004777D02*
X032388Y004777D01*
X032334Y004585D02*
X032269Y004607D01*
X032201Y004617D01*
X031909Y004617D01*
X031909Y004180D01*
X032604Y004180D01*
X032604Y004214D01*
X032593Y004282D01*
X032572Y004348D01*
X032541Y004409D01*
X032500Y004465D01*
X032451Y004514D01*
X032396Y004554D01*
X032334Y004585D01*
X032504Y004460D02*
X032629Y004460D01*
X032629Y004618D02*
X029689Y004618D01*
X029689Y004460D02*
X031314Y004460D01*
X031318Y004465D02*
X031277Y004409D01*
X031246Y004348D01*
X031225Y004282D01*
X031214Y004214D01*
X031214Y004180D01*
X031214Y004146D01*
X031225Y004078D01*
X031246Y004012D01*
X031277Y003951D01*
X031318Y003895D01*
X031366Y003846D01*
X031422Y003806D01*
X031483Y003775D01*
X031549Y003753D01*
X031617Y003743D01*
X031909Y003743D01*
X032201Y003743D01*
X032269Y003753D01*
X032334Y003775D01*
X032396Y003806D01*
X032451Y003846D01*
X032500Y003895D01*
X032541Y003951D01*
X032572Y004012D01*
X032593Y004078D01*
X032604Y004146D01*
X032604Y004180D01*
X031909Y004180D01*
X031909Y004180D01*
X031909Y003743D01*
X031909Y004180D01*
X031909Y004180D01*
X031909Y004180D01*
X031909Y004617D01*
X031617Y004617D01*
X031549Y004607D01*
X031483Y004585D01*
X031422Y004554D01*
X031366Y004514D01*
X031318Y004465D01*
X031231Y004301D02*
X029689Y004301D01*
X029689Y004143D02*
X031214Y004143D01*
X031214Y004180D02*
X031909Y004180D01*
X031909Y004180D01*
X031214Y004180D01*
X031260Y003984D02*
X029689Y003984D01*
X029689Y003826D02*
X031395Y003826D01*
X031333Y003509D02*
X029633Y003509D01*
X029689Y003667D02*
X032500Y003667D01*
X032423Y003826D02*
X032629Y003826D01*
X032629Y003984D02*
X032558Y003984D01*
X032603Y004143D02*
X032629Y004143D01*
X032629Y004301D02*
X032587Y004301D01*
X031909Y004301D02*
X031909Y004301D01*
X031909Y004143D02*
X031909Y004143D01*
X031909Y003984D02*
X031909Y003984D01*
X031909Y003826D02*
X031909Y003826D01*
X031909Y003180D02*
X032409Y003180D01*
X032909Y003680D01*
X032909Y005680D01*
X032409Y006180D01*
X032307Y005886D02*
X030689Y005886D01*
X030751Y006045D02*
X031567Y006045D01*
X031509Y006203D02*
X030809Y006203D01*
X030409Y006336D02*
X030409Y005680D01*
X030909Y005180D01*
X030916Y005569D02*
X031395Y005569D01*
X030757Y005728D02*
X032465Y005728D01*
X031430Y004777D02*
X029689Y004777D01*
X031909Y004460D02*
X031909Y004460D01*
X031227Y003350D02*
X029475Y003350D01*
X029316Y003192D02*
X031194Y003192D01*
X031217Y003033D02*
X029158Y003033D01*
X029008Y002875D02*
X031310Y002875D01*
X027810Y002875D02*
X025508Y002875D01*
X025658Y003033D02*
X027717Y003033D01*
X027694Y003192D02*
X025816Y003192D01*
X025975Y003350D02*
X027727Y003350D01*
X027833Y003509D02*
X026133Y003509D01*
X024111Y002082D02*
X018207Y002082D01*
X018048Y001924D02*
X024296Y001924D01*
X023379Y003033D02*
X022658Y003033D01*
X022816Y003192D02*
X023379Y003192D01*
X023379Y003350D02*
X022975Y003350D01*
X023133Y003509D02*
X023379Y003509D01*
X023379Y003667D02*
X023189Y003667D01*
X021129Y005728D02*
X018697Y005728D01*
X018603Y005569D02*
X019595Y005569D01*
X019467Y005411D02*
X018603Y005411D01*
X018533Y005252D02*
X019412Y005252D01*
X019412Y005094D02*
X018533Y005094D01*
X018533Y004935D02*
X019473Y004935D01*
X019610Y004777D02*
X018533Y004777D01*
X017973Y004777D02*
X017208Y004777D01*
X017190Y004759D02*
X017330Y004899D01*
X017406Y005081D01*
X017406Y005125D01*
X017560Y005280D01*
X017797Y005280D01*
X017909Y005392D01*
X017973Y005327D01*
X017973Y002640D01*
X017448Y002116D01*
X013762Y002116D01*
X013697Y002180D01*
X013809Y002292D01*
X013809Y002529D01*
X014067Y002787D01*
X014146Y002866D01*
X014189Y002969D01*
X014189Y003258D01*
X014190Y003259D01*
X014330Y003399D01*
X014406Y003581D01*
X014406Y003779D01*
X014330Y003961D01*
X014190Y004101D01*
X014008Y004177D01*
X013810Y004177D01*
X013802Y004174D01*
X013715Y004210D01*
X012525Y004210D01*
X012067Y004667D01*
X011965Y004710D01*
X010073Y004710D01*
X010190Y004759D01*
X010330Y004899D01*
X010406Y005081D01*
X010406Y005279D01*
X010330Y005461D01*
X010190Y005601D01*
X010008Y005677D01*
X009810Y005677D01*
X009627Y005601D01*
X009488Y005461D01*
X009412Y005279D01*
X009412Y005081D01*
X009488Y004899D01*
X009627Y004759D01*
X009745Y004710D01*
X008275Y004710D01*
X007689Y005296D01*
X007689Y012064D01*
X007844Y012219D01*
X008042Y012219D01*
X008150Y012111D01*
X008164Y012105D01*
X008150Y012099D01*
X008021Y011971D01*
X007951Y011802D01*
X007951Y011620D01*
X008021Y011452D01*
X008150Y011324D01*
X008164Y011318D01*
X008150Y011312D01*
X008021Y011183D01*
X007951Y011015D01*
X007951Y010833D01*
X008021Y010665D01*
X008150Y010536D01*
X008164Y010530D01*
X008150Y010525D01*
X008021Y010396D01*
X007951Y010228D01*
X007951Y010046D01*
X008021Y009878D01*
X008150Y009749D01*
X008318Y009679D01*
X008500Y009679D01*
X008668Y009749D01*
X008797Y009878D01*
X008866Y010046D01*
X008866Y010228D01*
X008797Y010396D01*
X008668Y010525D01*
X008654Y010530D01*
X008668Y010536D01*
X008776Y010644D01*
X010549Y010644D01*
X012379Y008814D01*
X012379Y006874D01*
X012422Y006771D01*
X012500Y006693D01*
X013250Y005943D01*
X013353Y005900D01*
X015543Y005900D01*
X016448Y004995D01*
X016488Y004899D01*
X016627Y004759D01*
X016810Y004683D01*
X017008Y004683D01*
X017190Y004759D01*
X017345Y004935D02*
X017973Y004935D01*
X017973Y005094D02*
X017406Y005094D01*
X017532Y005252D02*
X017973Y005252D01*
X018253Y005680D02*
X018253Y006086D01*
X018159Y006180D01*
X016814Y006180D01*
X016409Y006336D01*
X016540Y005986D02*
X016249Y005986D01*
X016632Y005603D01*
X016810Y005677D01*
X017008Y005677D01*
X017119Y005631D01*
X017214Y005726D01*
X017214Y005900D01*
X016818Y005900D01*
X016766Y005899D01*
X016763Y005900D01*
X016759Y005900D01*
X016711Y005920D01*
X016540Y005986D01*
X016349Y005886D02*
X017214Y005886D01*
X017214Y005728D02*
X016507Y005728D01*
X015874Y005569D02*
X013223Y005569D01*
X013190Y005601D02*
X013008Y005677D01*
X012810Y005677D01*
X012627Y005601D01*
X012488Y005461D01*
X012412Y005279D01*
X012412Y005081D01*
X012488Y004899D01*
X012627Y004759D01*
X012810Y004683D01*
X013008Y004683D01*
X013009Y004684D01*
X013172Y004521D01*
X013250Y004443D01*
X013353Y004400D01*
X013487Y004400D01*
X013488Y004399D01*
X013627Y004259D01*
X013810Y004183D01*
X014008Y004183D01*
X014015Y004186D01*
X014103Y004150D01*
X014793Y004150D01*
X015422Y003521D01*
X015448Y003495D01*
X015488Y003399D01*
X015627Y003259D01*
X015810Y003183D01*
X016008Y003183D01*
X016190Y003259D01*
X016330Y003399D01*
X016406Y003581D01*
X016406Y003779D01*
X016330Y003961D01*
X016190Y004101D01*
X016008Y004177D01*
X015810Y004177D01*
X015632Y004103D01*
X015067Y004667D01*
X014965Y004710D01*
X014406Y004710D01*
X014406Y004779D01*
X014330Y004961D01*
X014190Y005101D01*
X014008Y005177D01*
X013810Y005177D01*
X013627Y005101D01*
X013506Y004979D01*
X013405Y005080D01*
X013406Y005081D01*
X013406Y005279D01*
X013330Y005461D01*
X013190Y005601D01*
X013351Y005411D02*
X016032Y005411D01*
X016191Y005252D02*
X013406Y005252D01*
X013406Y005094D02*
X013620Y005094D01*
X013409Y004680D02*
X012909Y005180D01*
X012595Y005569D02*
X010223Y005569D01*
X010351Y005411D02*
X012467Y005411D01*
X012412Y005252D02*
X010406Y005252D01*
X010406Y005094D02*
X012412Y005094D01*
X012473Y004935D02*
X010345Y004935D01*
X010208Y004777D02*
X012610Y004777D01*
X012275Y004460D02*
X013233Y004460D01*
X013075Y004618D02*
X012117Y004618D01*
X011909Y004430D02*
X012409Y003930D01*
X013659Y003930D01*
X013909Y003680D01*
X013909Y003024D01*
X013409Y002524D01*
X013809Y002399D02*
X017732Y002399D01*
X017890Y002558D02*
X013838Y002558D01*
X013996Y002716D02*
X016731Y002716D01*
X016810Y002683D02*
X017008Y002683D01*
X017190Y002759D01*
X017330Y002899D01*
X017406Y003081D01*
X017406Y003279D01*
X017330Y003461D01*
X017190Y003601D01*
X017008Y003677D01*
X016810Y003677D01*
X016627Y003601D01*
X016488Y003461D01*
X016412Y003279D01*
X016412Y003081D01*
X016488Y002899D01*
X016627Y002759D01*
X016810Y002683D01*
X017087Y002716D02*
X017973Y002716D01*
X017973Y002875D02*
X017306Y002875D01*
X017386Y003033D02*
X017973Y003033D01*
X017973Y003192D02*
X017406Y003192D01*
X017376Y003350D02*
X017973Y003350D01*
X017973Y003509D02*
X017283Y003509D01*
X017031Y003667D02*
X017973Y003667D01*
X017973Y003826D02*
X016386Y003826D01*
X016406Y003667D02*
X016786Y003667D01*
X016535Y003509D02*
X016376Y003509D01*
X016442Y003350D02*
X016282Y003350D01*
X016412Y003192D02*
X016028Y003192D01*
X015790Y003192D02*
X014189Y003192D01*
X014189Y003033D02*
X016432Y003033D01*
X016512Y002875D02*
X014150Y002875D01*
X014282Y003350D02*
X015536Y003350D01*
X015434Y003509D02*
X014376Y003509D01*
X014406Y003667D02*
X015276Y003667D01*
X015117Y003826D02*
X014386Y003826D01*
X014308Y003984D02*
X014959Y003984D01*
X014800Y004143D02*
X014091Y004143D01*
X014159Y004430D02*
X014909Y004430D01*
X015659Y003680D01*
X015909Y003680D01*
X016308Y003984D02*
X017973Y003984D01*
X017973Y004143D02*
X016091Y004143D01*
X016008Y004183D02*
X016190Y004259D01*
X016330Y004399D01*
X016406Y004581D01*
X016406Y004779D01*
X016330Y004961D01*
X016190Y005101D01*
X016008Y005177D01*
X015810Y005177D01*
X015627Y005101D01*
X015488Y004961D01*
X015412Y004779D01*
X015412Y004581D01*
X015488Y004399D01*
X015627Y004259D01*
X015810Y004183D01*
X016008Y004183D01*
X016233Y004301D02*
X017973Y004301D01*
X017973Y004460D02*
X016355Y004460D01*
X016406Y004618D02*
X017973Y004618D01*
X017064Y005180D02*
X016909Y005180D01*
X016659Y005180D01*
X015659Y006180D01*
X013409Y006180D01*
X012659Y006930D01*
X012659Y008930D01*
X010665Y010924D01*
X008409Y010924D01*
X007993Y011117D02*
X007689Y011117D01*
X007689Y011275D02*
X008113Y011275D01*
X008040Y011434D02*
X007689Y011434D01*
X007689Y011592D02*
X007963Y011592D01*
X007951Y011751D02*
X007689Y011751D01*
X007689Y011909D02*
X007996Y011909D01*
X008118Y012068D02*
X007692Y012068D01*
X007409Y012180D02*
X007409Y005180D01*
X008159Y004430D01*
X011909Y004430D01*
X011800Y004143D02*
X009592Y004143D01*
X009751Y003984D02*
X011959Y003984D01*
X012117Y003826D02*
X009909Y003826D01*
X010068Y003667D02*
X012312Y003667D01*
X012535Y003509D02*
X010283Y003509D01*
X010376Y003350D02*
X012442Y003350D01*
X012412Y003192D02*
X010406Y003192D01*
X010386Y003033D02*
X010785Y003033D01*
X011344Y003033D02*
X011474Y003033D01*
X012033Y003033D02*
X012432Y003033D01*
X012512Y002875D02*
X012103Y002875D01*
X013306Y002874D02*
X013363Y002874D01*
X013629Y003140D01*
X013629Y003258D01*
X013627Y003259D01*
X013488Y003399D01*
X013412Y003581D01*
X013412Y003650D01*
X013073Y003650D01*
X013190Y003601D01*
X013330Y003461D01*
X013406Y003279D01*
X013406Y003081D01*
X013330Y002899D01*
X013306Y002874D01*
X013306Y002875D02*
X013363Y002875D01*
X013386Y003033D02*
X013521Y003033D01*
X013629Y003192D02*
X013406Y003192D01*
X013376Y003350D02*
X013536Y003350D01*
X013442Y003509D02*
X013283Y003509D01*
X013585Y004301D02*
X012434Y004301D01*
X013409Y004680D02*
X013909Y004680D01*
X014159Y004430D01*
X014406Y004777D02*
X015412Y004777D01*
X015412Y004618D02*
X015117Y004618D01*
X015275Y004460D02*
X015462Y004460D01*
X015434Y004301D02*
X015585Y004301D01*
X015592Y004143D02*
X015727Y004143D01*
X016406Y004777D02*
X016610Y004777D01*
X016473Y004935D02*
X016341Y004935D01*
X016349Y005094D02*
X016198Y005094D01*
X015620Y005094D02*
X014198Y005094D01*
X014341Y004935D02*
X015477Y004935D01*
X015715Y005728D02*
X007689Y005728D01*
X007689Y005886D02*
X015557Y005886D01*
X016009Y006226D02*
X015896Y006339D01*
X015817Y006417D01*
X015715Y006460D01*
X013525Y006460D01*
X012939Y007046D01*
X012939Y008986D01*
X012896Y009089D01*
X010902Y011083D01*
X010823Y011161D01*
X010720Y011204D01*
X008776Y011204D01*
X008668Y011312D01*
X008654Y011318D01*
X008668Y011324D01*
X008776Y011431D01*
X011011Y011431D01*
X013172Y009271D01*
X013250Y009193D01*
X013353Y009150D01*
X015043Y009150D01*
X015629Y008564D01*
X015629Y008102D01*
X015627Y008101D01*
X015488Y007961D01*
X015412Y007779D01*
X015412Y007581D01*
X015488Y007399D01*
X015627Y007259D01*
X015810Y007183D01*
X015854Y007183D01*
X016009Y007029D01*
X016009Y006792D01*
X016121Y006680D01*
X016009Y006568D01*
X016009Y006226D01*
X016009Y006362D02*
X015873Y006362D01*
X015896Y006339D02*
X015896Y006339D01*
X016009Y006520D02*
X013465Y006520D01*
X013306Y006679D02*
X016119Y006679D01*
X016009Y006837D02*
X013148Y006837D01*
X012989Y006996D02*
X016009Y006996D01*
X015883Y007154D02*
X012939Y007154D01*
X012939Y007313D02*
X013574Y007313D01*
X013627Y007259D02*
X013810Y007183D01*
X014008Y007183D01*
X014190Y007259D01*
X014330Y007399D01*
X014406Y007581D01*
X014406Y007779D01*
X014330Y007961D01*
X014190Y008101D01*
X014008Y008177D01*
X013810Y008177D01*
X013627Y008101D01*
X013488Y007961D01*
X013412Y007779D01*
X013412Y007581D01*
X013488Y007399D01*
X013627Y007259D01*
X013458Y007471D02*
X012939Y007471D01*
X012939Y007630D02*
X013412Y007630D01*
X013416Y007788D02*
X012939Y007788D01*
X012939Y007947D02*
X013481Y007947D01*
X013637Y008105D02*
X012939Y008105D01*
X012939Y008264D02*
X015629Y008264D01*
X015629Y008422D02*
X012939Y008422D01*
X012939Y008581D02*
X015612Y008581D01*
X015454Y008739D02*
X012939Y008739D01*
X012939Y008898D02*
X015295Y008898D01*
X015137Y009056D02*
X012910Y009056D01*
X012770Y009215D02*
X013228Y009215D01*
X013070Y009373D02*
X012612Y009373D01*
X012453Y009532D02*
X012911Y009532D01*
X012753Y009690D02*
X012295Y009690D01*
X012136Y009849D02*
X012594Y009849D01*
X012436Y010007D02*
X011978Y010007D01*
X011819Y010166D02*
X012277Y010166D01*
X012119Y010324D02*
X011661Y010324D01*
X011502Y010483D02*
X011960Y010483D01*
X011802Y010641D02*
X011344Y010641D01*
X011185Y010800D02*
X011643Y010800D01*
X011485Y010958D02*
X011027Y010958D01*
X010868Y011117D02*
X011326Y011117D01*
X011168Y011275D02*
X008705Y011275D01*
X007951Y010958D02*
X007689Y010958D01*
X007689Y010800D02*
X007965Y010800D01*
X008045Y010641D02*
X007689Y010641D01*
X007689Y010483D02*
X008108Y010483D01*
X007991Y010324D02*
X007689Y010324D01*
X007689Y010166D02*
X007951Y010166D01*
X007967Y010007D02*
X007689Y010007D01*
X007689Y009849D02*
X008050Y009849D01*
X008292Y009690D02*
X007689Y009690D01*
X007689Y009532D02*
X011661Y009532D01*
X011503Y009690D02*
X008526Y009690D01*
X008768Y009849D02*
X011344Y009849D01*
X011186Y010007D02*
X008850Y010007D01*
X008866Y010166D02*
X011027Y010166D01*
X010869Y010324D02*
X008826Y010324D01*
X008710Y010483D02*
X010710Y010483D01*
X010552Y010641D02*
X008773Y010641D01*
X008409Y011711D02*
X011127Y011711D01*
X013409Y009430D01*
X015159Y009430D01*
X015909Y008680D01*
X015909Y007680D01*
X015909Y007524D01*
X016409Y007024D01*
X016809Y006996D02*
X018379Y006996D01*
X018379Y007154D02*
X016809Y007154D01*
X016754Y007313D02*
X018379Y007313D01*
X018379Y007471D02*
X016360Y007471D01*
X016406Y007630D02*
X018379Y007630D01*
X018379Y007788D02*
X016402Y007788D01*
X016336Y007947D02*
X018379Y007947D01*
X018379Y008105D02*
X016189Y008105D01*
X016189Y008264D02*
X018379Y008264D01*
X018379Y008422D02*
X016189Y008422D01*
X016189Y008581D02*
X018379Y008581D01*
X018379Y008739D02*
X016188Y008739D01*
X016087Y008898D02*
X018379Y008898D01*
X018379Y009056D02*
X015929Y009056D01*
X015770Y009215D02*
X018379Y009215D01*
X018379Y009373D02*
X015612Y009373D01*
X015453Y009532D02*
X018379Y009532D01*
X018379Y009690D02*
X015263Y009690D01*
X013386Y009849D02*
X018379Y009849D01*
X018379Y010007D02*
X013228Y010007D01*
X013069Y010166D02*
X018379Y010166D01*
X018379Y010324D02*
X012911Y010324D01*
X011820Y009373D02*
X007689Y009373D01*
X007689Y009215D02*
X011978Y009215D01*
X012137Y009056D02*
X007689Y009056D01*
X007689Y008898D02*
X012295Y008898D01*
X012379Y008739D02*
X007689Y008739D01*
X007689Y008581D02*
X012379Y008581D01*
X012379Y008422D02*
X007689Y008422D01*
X007689Y008264D02*
X012379Y008264D01*
X012379Y008105D02*
X007689Y008105D01*
X007689Y007947D02*
X012379Y007947D01*
X012379Y007788D02*
X007689Y007788D01*
X007689Y007630D02*
X012379Y007630D01*
X012379Y007471D02*
X007689Y007471D01*
X007689Y007313D02*
X012379Y007313D01*
X012379Y007154D02*
X007689Y007154D01*
X007689Y006996D02*
X012379Y006996D01*
X012394Y006837D02*
X007689Y006837D01*
X007689Y006679D02*
X012514Y006679D01*
X012673Y006520D02*
X007689Y006520D01*
X007689Y006362D02*
X012831Y006362D01*
X012990Y006203D02*
X007689Y006203D01*
X007689Y006045D02*
X013148Y006045D01*
X014244Y007313D02*
X015574Y007313D01*
X015458Y007471D02*
X014360Y007471D01*
X014406Y007630D02*
X015412Y007630D01*
X015416Y007788D02*
X014402Y007788D01*
X014336Y007947D02*
X015481Y007947D01*
X015629Y008105D02*
X014181Y008105D01*
X016699Y006679D02*
X018379Y006679D01*
X018379Y006837D02*
X016809Y006837D01*
X016809Y006520D02*
X018379Y006520D01*
X018373Y006362D02*
X018379Y006362D01*
X018939Y006362D02*
X021009Y006362D01*
X021009Y006520D02*
X018939Y006520D01*
X018939Y006679D02*
X021119Y006679D01*
X021009Y006837D02*
X018939Y006837D01*
X018939Y006996D02*
X021009Y006996D01*
X021009Y007154D02*
X018939Y007154D01*
X018939Y007313D02*
X021064Y007313D01*
X021129Y007471D02*
X018939Y007471D01*
X018939Y007630D02*
X021129Y007630D01*
X021129Y007788D02*
X018939Y007788D01*
X018939Y007947D02*
X021129Y007947D01*
X021129Y008105D02*
X018939Y008105D01*
X018939Y008264D02*
X021129Y008264D01*
X021129Y008422D02*
X018939Y008422D01*
X018939Y008581D02*
X021129Y008581D01*
X021129Y008739D02*
X018939Y008739D01*
X018939Y008898D02*
X021129Y008898D01*
X021129Y009056D02*
X018939Y009056D01*
X018939Y009215D02*
X020978Y009215D01*
X020820Y009373D02*
X018939Y009373D01*
X019909Y010180D02*
X020409Y009680D01*
X020478Y010007D02*
X021186Y010007D01*
X021027Y010166D02*
X020319Y010166D01*
X020189Y010324D02*
X020869Y010324D01*
X020710Y010483D02*
X020189Y010483D01*
X020189Y010641D02*
X020629Y010641D01*
X020629Y010800D02*
X020189Y010800D01*
X020189Y010958D02*
X020629Y010958D01*
X020629Y011117D02*
X020189Y011117D01*
X020189Y011275D02*
X020629Y011275D01*
X020629Y011434D02*
X020189Y011434D01*
X020189Y011592D02*
X020629Y011592D01*
X020629Y011751D02*
X020189Y011751D01*
X020288Y011909D02*
X020529Y011909D01*
X020458Y012068D02*
X020360Y012068D01*
X020369Y012226D02*
X020449Y012226D01*
X020496Y012385D02*
X020322Y012385D01*
X020196Y012543D02*
X020621Y012543D01*
X020909Y012180D02*
X020909Y010680D01*
X021409Y010180D01*
X022409Y010180D01*
X022978Y010007D02*
X023129Y010007D01*
X023689Y008898D02*
X023795Y008898D01*
X023689Y008739D02*
X023954Y008739D01*
X021009Y006203D02*
X018939Y006203D01*
X018939Y006045D02*
X021067Y006045D01*
X021129Y005886D02*
X018855Y005886D01*
X017564Y005680D02*
X017064Y005180D01*
X019890Y003509D02*
X019927Y003509D01*
X019927Y003350D02*
X019890Y003350D01*
X019890Y003033D02*
X019927Y003033D01*
X019927Y002875D02*
X019890Y002875D01*
X019541Y002875D02*
X018533Y002875D01*
X018533Y003033D02*
X019455Y003033D01*
X017573Y002241D02*
X013758Y002241D01*
X013699Y001131D02*
X008851Y001131D01*
X008641Y000973D02*
X013499Y000973D01*
X013427Y000814D02*
X008320Y000814D01*
X007435Y000814D02*
X006732Y000814D01*
X006567Y000973D02*
X007114Y000973D01*
X006904Y001131D02*
X006441Y001131D01*
X006931Y000656D02*
X013412Y000656D01*
X013447Y000497D02*
X007256Y000497D01*
X009174Y001607D02*
X011836Y001607D01*
X011678Y001765D02*
X009227Y001765D01*
X009263Y001924D02*
X011519Y001924D01*
X011473Y002082D02*
X009284Y002082D01*
X009219Y002558D02*
X009885Y002558D01*
X009727Y002716D02*
X009160Y002716D01*
X009080Y002875D02*
X009512Y002875D01*
X009432Y003033D02*
X008970Y003033D01*
X008817Y003192D02*
X009412Y003192D01*
X009442Y003350D02*
X008605Y003350D01*
X008232Y003509D02*
X009434Y003509D01*
X009610Y004777D02*
X008208Y004777D01*
X008050Y004935D02*
X009473Y004935D01*
X009412Y005094D02*
X007891Y005094D01*
X007733Y005252D02*
X009412Y005252D01*
X009467Y005411D02*
X007689Y005411D01*
X007689Y005569D02*
X009595Y005569D01*
X014118Y001131D02*
X015754Y001131D01*
X015532Y000973D02*
X014319Y000973D01*
X014391Y000814D02*
X015451Y000814D01*
X016286Y000973D02*
X038610Y000973D01*
X037085Y006996D02*
X041142Y006996D01*
X041142Y007154D02*
X037124Y007154D01*
X037107Y007313D02*
X041142Y007313D01*
X041142Y007471D02*
X037022Y007471D01*
X036777Y007630D02*
X041142Y007630D01*
X041142Y007788D02*
X032189Y007788D01*
X032189Y007630D02*
X036041Y007630D01*
X035795Y007471D02*
X032189Y007471D01*
X032189Y007947D02*
X041142Y007947D01*
X041142Y008105D02*
X032189Y008105D01*
X032189Y008264D02*
X041142Y008264D01*
X041142Y008422D02*
X032189Y008422D01*
X032189Y008581D02*
X041142Y008581D01*
X041142Y008739D02*
X032189Y008739D01*
X032189Y008898D02*
X041142Y008898D01*
X041142Y009056D02*
X032189Y009056D01*
X032189Y009215D02*
X041142Y009215D01*
X041142Y009373D02*
X032189Y009373D01*
X032189Y009532D02*
X041142Y009532D01*
X041142Y009690D02*
X032189Y009690D01*
X032189Y009849D02*
X041142Y009849D01*
X041142Y010007D02*
X032189Y010007D01*
X032189Y010166D02*
X041142Y010166D01*
X041142Y010324D02*
X032189Y010324D01*
X032189Y010483D02*
X035210Y010483D01*
X035052Y010641D02*
X032189Y010641D01*
X032189Y010800D02*
X034893Y010800D01*
X034735Y010958D02*
X032189Y010958D01*
X032189Y011117D02*
X034576Y011117D01*
X034418Y011275D02*
X032189Y011275D01*
X032189Y011434D02*
X034259Y011434D01*
X034142Y011592D02*
X032189Y011592D01*
X032189Y011751D02*
X034129Y011751D01*
X034129Y011909D02*
X032189Y011909D01*
X032189Y012068D02*
X034129Y012068D01*
X034129Y012226D02*
X032189Y012226D01*
X032100Y012385D02*
X034129Y012385D01*
X034129Y012543D02*
X031942Y012543D01*
X031783Y012702D02*
X034129Y012702D01*
X034129Y012860D02*
X031625Y012860D01*
X031466Y013019D02*
X034129Y013019D01*
X034016Y013177D02*
X031308Y013177D01*
X031149Y013336D02*
X033857Y013336D01*
X035189Y012860D02*
X035333Y012860D01*
X035189Y012702D02*
X035491Y012702D01*
X035650Y012543D02*
X035189Y012543D01*
X035189Y012385D02*
X037042Y012385D01*
X037294Y012226D02*
X035259Y012226D01*
X035417Y012068D02*
X037134Y012068D01*
X038808Y013177D02*
X041142Y013177D01*
X041142Y013019D02*
X039732Y013019D01*
X039844Y012860D02*
X041142Y012860D01*
X041142Y012702D02*
X039881Y012702D01*
X039862Y012543D02*
X041142Y012543D01*
X041142Y012385D02*
X039775Y012385D01*
X039523Y012226D02*
X041142Y012226D01*
X041142Y012068D02*
X039683Y012068D01*
X039824Y011909D02*
X041142Y011909D01*
X041142Y011751D02*
X039881Y011751D01*
X039881Y011592D02*
X041142Y011592D01*
X041142Y011434D02*
X039817Y011434D01*
X039642Y011275D02*
X041142Y011275D01*
X041142Y011117D02*
X039186Y011117D01*
X039083Y010958D02*
X041142Y010958D01*
X041142Y010800D02*
X038924Y010800D01*
X038766Y010641D02*
X041142Y010641D01*
X041142Y010483D02*
X038607Y010483D01*
X035272Y011434D02*
X035051Y011434D01*
X035101Y011592D02*
X034893Y011592D01*
X034942Y011751D02*
X034734Y011751D01*
X034689Y011909D02*
X034784Y011909D01*
X036275Y013460D02*
X036189Y013546D01*
X036189Y013986D01*
X036176Y014017D01*
X036250Y013943D01*
X036353Y013900D01*
X036990Y013900D01*
X036936Y013771D01*
X036936Y013589D01*
X036990Y013460D01*
X036275Y013460D01*
X036241Y013494D02*
X036976Y013494D01*
X036936Y013653D02*
X036189Y013653D01*
X036189Y013811D02*
X036953Y013811D01*
X036223Y013970D02*
X036189Y013970D01*
X036525Y014460D02*
X036072Y014913D01*
X036103Y014900D01*
X036990Y014900D01*
X036936Y014771D01*
X036936Y014589D01*
X036990Y014460D01*
X036525Y014460D01*
X036381Y014604D02*
X036936Y014604D01*
X036936Y014762D02*
X036223Y014762D01*
X036159Y015180D02*
X035159Y016180D01*
X031159Y016180D01*
X029659Y017680D01*
X021909Y017680D01*
X020909Y016680D01*
X021189Y016506D02*
X022338Y016506D01*
X022497Y016664D02*
X021289Y016664D01*
X021447Y016823D02*
X022655Y016823D01*
X022814Y016981D02*
X021606Y016981D01*
X021764Y017140D02*
X022972Y017140D01*
X023131Y017298D02*
X021923Y017298D01*
X021289Y017457D02*
X021189Y017457D01*
X021189Y017615D02*
X021448Y017615D01*
X021606Y017774D02*
X021189Y017774D01*
X021189Y017932D02*
X021786Y017932D01*
X021189Y018091D02*
X033629Y018091D01*
X033629Y018249D02*
X021189Y018249D01*
X021189Y018408D02*
X033629Y018408D01*
X033629Y018566D02*
X021189Y018566D01*
X021189Y018725D02*
X033629Y018725D01*
X033629Y018883D02*
X021189Y018883D01*
X021189Y019042D02*
X033629Y019042D01*
X033629Y019200D02*
X021189Y019200D01*
X021189Y019359D02*
X033629Y019359D01*
X033629Y019517D02*
X021189Y019517D01*
X021189Y019676D02*
X033629Y019676D01*
X033629Y019834D02*
X021189Y019834D01*
X021189Y019993D02*
X033629Y019993D01*
X033629Y020151D02*
X021189Y020151D01*
X021189Y020310D02*
X033629Y020310D01*
X033629Y020468D02*
X021189Y020468D01*
X021189Y020627D02*
X033629Y020627D01*
X033520Y020785D02*
X021189Y020785D01*
X021189Y020944D02*
X033361Y020944D01*
X033355Y021102D02*
X021189Y021102D01*
X021189Y021261D02*
X033355Y021261D01*
X033364Y021419D02*
X021189Y021419D01*
X021189Y021578D02*
X033522Y021578D01*
X033640Y022053D02*
X021189Y022053D01*
X021189Y021895D02*
X036798Y021895D01*
X036957Y021736D02*
X021189Y021736D01*
X021189Y022212D02*
X033481Y022212D01*
X033323Y022370D02*
X021115Y022370D01*
X020956Y022529D02*
X033164Y022529D01*
X032618Y022687D02*
X020798Y022687D01*
X020639Y022846D02*
X032459Y022846D01*
X032909Y023180D02*
X033909Y022180D01*
X036909Y022180D01*
X037909Y021180D01*
X037909Y017680D01*
X037629Y018249D02*
X034189Y018249D01*
X034189Y018091D02*
X037190Y018091D01*
X037003Y017932D02*
X034189Y017932D01*
X034211Y017774D02*
X036937Y017774D01*
X036936Y017615D02*
X034370Y017615D01*
X034409Y017180D02*
X033909Y017680D01*
X033909Y021180D01*
X034298Y020785D02*
X037629Y020785D01*
X037629Y020627D02*
X034189Y020627D01*
X034189Y020468D02*
X037629Y020468D01*
X037629Y020310D02*
X034189Y020310D01*
X034189Y020151D02*
X037629Y020151D01*
X037629Y019993D02*
X034189Y019993D01*
X034189Y019834D02*
X037629Y019834D01*
X037629Y019676D02*
X034189Y019676D01*
X034189Y019517D02*
X037629Y019517D01*
X037629Y019359D02*
X034189Y019359D01*
X034189Y019200D02*
X037629Y019200D01*
X037629Y019042D02*
X034189Y019042D01*
X034189Y018883D02*
X037629Y018883D01*
X037629Y018725D02*
X034189Y018725D01*
X034189Y018566D02*
X037629Y018566D01*
X037629Y018408D02*
X034189Y018408D01*
X033629Y017932D02*
X029782Y017932D01*
X029961Y017774D02*
X033629Y017774D01*
X033633Y017615D02*
X030120Y017615D01*
X030278Y017457D02*
X033736Y017457D01*
X033895Y017298D02*
X030437Y017298D01*
X030595Y017140D02*
X034053Y017140D01*
X034212Y016981D02*
X030754Y016981D01*
X030912Y016823D02*
X035870Y016823D01*
X036029Y016664D02*
X031071Y016664D01*
X031229Y016506D02*
X036187Y016506D01*
X036409Y016680D02*
X035909Y017180D01*
X034409Y017180D01*
X035388Y016347D02*
X037080Y016347D01*
X037131Y016030D02*
X035705Y016030D01*
X035863Y015872D02*
X037001Y015872D01*
X036956Y015713D02*
X036022Y015713D01*
X036180Y015555D02*
X036975Y015555D01*
X036159Y015180D02*
X038409Y015180D01*
X038909Y015680D01*
X038493Y015872D02*
X038302Y015872D01*
X038346Y015713D02*
X038451Y015713D01*
X038387Y015555D02*
X038328Y015555D01*
X038171Y016030D02*
X038612Y016030D01*
X037909Y016680D02*
X036409Y016680D01*
X036504Y016981D02*
X037048Y016981D01*
X037129Y017298D02*
X036187Y017298D01*
X036345Y017140D02*
X041142Y017140D01*
X041142Y017298D02*
X039638Y017298D01*
X039801Y017457D02*
X041142Y017457D01*
X041142Y017615D02*
X039856Y017615D01*
X039852Y017774D02*
X041142Y017774D01*
X041142Y017932D02*
X039781Y017932D01*
X039576Y018091D02*
X041142Y018091D01*
X041142Y016981D02*
X039770Y016981D01*
X040162Y016823D02*
X041142Y016823D01*
X041142Y016664D02*
X040321Y016664D01*
X040479Y016506D02*
X041142Y016506D01*
X041142Y016347D02*
X040638Y016347D01*
X040689Y016189D02*
X041142Y016189D01*
X041142Y016030D02*
X040689Y016030D01*
X040689Y015872D02*
X041142Y015872D01*
X041142Y015713D02*
X040689Y015713D01*
X040689Y015555D02*
X041142Y015555D01*
X041142Y015396D02*
X040689Y015396D01*
X040689Y015238D02*
X041142Y015238D01*
X041142Y015079D02*
X040689Y015079D01*
X040689Y014921D02*
X041142Y014921D01*
X041142Y014762D02*
X040689Y014762D01*
X040680Y014604D02*
X041142Y014604D01*
X041142Y014445D02*
X040570Y014445D01*
X040411Y014287D02*
X041142Y014287D01*
X041142Y014128D02*
X040253Y014128D01*
X040094Y013970D02*
X041142Y013970D01*
X041142Y013811D02*
X039865Y013811D01*
X039881Y013653D02*
X041142Y013653D01*
X041142Y013494D02*
X039842Y013494D01*
X039726Y013336D02*
X041142Y013336D01*
X039936Y014604D02*
X039881Y014604D01*
X039881Y014762D02*
X040095Y014762D01*
X040129Y014921D02*
X039819Y014921D01*
X039656Y015079D02*
X040129Y015079D01*
X040129Y015238D02*
X039551Y015238D01*
X039787Y015396D02*
X040129Y015396D01*
X040129Y015555D02*
X039867Y015555D01*
X039881Y015713D02*
X040129Y015713D01*
X040129Y015872D02*
X039840Y015872D01*
X039721Y016030D02*
X040129Y016030D01*
X040004Y016189D02*
X035546Y016189D01*
X035973Y017457D02*
X036991Y017457D01*
X039738Y016347D02*
X039846Y016347D01*
X038513Y014920D02*
X038451Y014771D01*
X038451Y014589D01*
X038505Y014460D01*
X038313Y014460D01*
X038366Y014589D01*
X038366Y014771D01*
X038313Y014900D01*
X038465Y014900D01*
X038513Y014920D01*
X038451Y014762D02*
X038366Y014762D01*
X038366Y014604D02*
X038451Y014604D01*
X038505Y013900D02*
X038451Y013771D01*
X038451Y013589D01*
X038513Y013440D01*
X038465Y013460D01*
X038313Y013460D01*
X038366Y013589D01*
X038366Y013771D01*
X038313Y013900D01*
X038505Y013900D01*
X038468Y013811D02*
X038350Y013811D01*
X038366Y013653D02*
X038451Y013653D01*
X038491Y013494D02*
X038327Y013494D01*
X037629Y020944D02*
X034456Y020944D01*
X034463Y021102D02*
X037591Y021102D01*
X037432Y021261D02*
X034463Y021261D01*
X034454Y021419D02*
X037274Y021419D01*
X037115Y021578D02*
X034295Y021578D01*
X033956Y022529D02*
X038787Y022529D01*
X038530Y022687D02*
X035172Y022687D01*
X035130Y022646D02*
X035443Y022959D01*
X035443Y023142D01*
X034947Y023142D01*
X034947Y023218D01*
X035443Y023218D01*
X035443Y023401D01*
X035130Y023714D01*
X034947Y023714D01*
X034947Y023218D01*
X034871Y023218D01*
X034871Y023714D01*
X034688Y023714D01*
X034375Y023401D01*
X034375Y023218D01*
X034871Y023218D01*
X034871Y023142D01*
X034947Y023142D01*
X034947Y022646D01*
X035130Y022646D01*
X034947Y022687D02*
X034871Y022687D01*
X034871Y022646D02*
X034871Y023142D01*
X034375Y023142D01*
X034375Y022959D01*
X034688Y022646D01*
X034871Y022646D01*
X034871Y022846D02*
X034947Y022846D01*
X034947Y023004D02*
X034871Y023004D01*
X034871Y023163D02*
X033463Y023163D01*
X033463Y023321D02*
X034375Y023321D01*
X034453Y023480D02*
X033393Y023480D01*
X033235Y023638D02*
X034611Y023638D01*
X034871Y023638D02*
X034947Y023638D01*
X034947Y023480D02*
X034871Y023480D01*
X034871Y023321D02*
X034947Y023321D01*
X034947Y023163D02*
X038120Y023163D01*
X038061Y023321D02*
X035443Y023321D01*
X035365Y023480D02*
X038003Y023480D01*
X037978Y023638D02*
X035207Y023638D01*
X035098Y023980D02*
X034804Y023980D01*
X034705Y024021D01*
X034611Y024115D01*
X034611Y024115D01*
X034579Y024147D01*
X034536Y024190D01*
X034494Y024290D01*
X034494Y024325D01*
X034315Y024056D01*
X034225Y023996D01*
X034120Y023975D01*
X034015Y023996D01*
X033936Y024048D01*
X033909Y024021D01*
X033809Y023980D01*
X033702Y023980D01*
X033603Y024021D01*
X033527Y024097D01*
X033486Y024196D01*
X033486Y024260D01*
X033474Y024260D01*
X033474Y024196D01*
X033433Y024097D01*
X033357Y024021D01*
X033258Y023980D01*
X032777Y023980D01*
X032678Y024021D01*
X032649Y024050D01*
X032619Y024021D01*
X032520Y023980D01*
X032226Y023980D01*
X032127Y024021D01*
X032097Y024050D01*
X032068Y024021D01*
X031969Y023980D01*
X031488Y023980D01*
X031389Y024021D01*
X031313Y024097D01*
X031272Y024196D01*
X031272Y024304D01*
X031313Y024403D01*
X031395Y024485D01*
X031389Y024488D01*
X031313Y024564D01*
X031272Y024663D01*
X031272Y024771D01*
X031313Y024870D01*
X031482Y025039D01*
X031581Y025080D01*
X031876Y025080D01*
X031975Y025039D01*
X032051Y024963D01*
X032127Y025039D01*
X032226Y025080D01*
X032520Y025080D01*
X032619Y025039D01*
X032713Y024946D01*
X032742Y024917D01*
X032865Y025039D01*
X032964Y025080D01*
X033071Y025080D01*
X033171Y025039D01*
X033172Y025038D01*
X033247Y024963D01*
X033288Y024864D01*
X033288Y024724D01*
X033603Y025039D01*
X033702Y025080D01*
X033809Y025080D01*
X033909Y025039D01*
X033984Y024963D01*
X034026Y024864D01*
X034026Y024735D01*
X034078Y024683D01*
X034080Y024677D01*
X034299Y025005D01*
X034388Y025065D01*
X034493Y025086D01*
X034599Y025065D01*
X034678Y025012D01*
X034705Y025039D01*
X034804Y025080D01*
X035098Y025080D01*
X035198Y025039D01*
X035274Y024963D01*
X035349Y025039D01*
X035449Y025080D01*
X035743Y025080D01*
X035842Y025039D01*
X035936Y024946D01*
X036012Y024870D01*
X036053Y024771D01*
X036053Y024735D01*
X036232Y025005D01*
X036322Y025065D01*
X036427Y025086D01*
X036532Y025065D01*
X036622Y025005D01*
X036652Y024960D01*
X036732Y025039D01*
X036831Y025080D01*
X036939Y025080D01*
X037038Y025039D01*
X037039Y025038D01*
X037114Y024963D01*
X037141Y024897D01*
X037207Y024963D01*
X037283Y025039D01*
X037382Y025080D01*
X037677Y025080D01*
X037776Y025039D01*
X037869Y024946D01*
X037945Y024870D01*
X037986Y024771D01*
X037986Y024290D01*
X037945Y024190D01*
X037852Y024097D01*
X037776Y024021D01*
X037677Y023980D01*
X037382Y023980D01*
X037283Y024021D01*
X037254Y024050D01*
X037225Y024021D01*
X037125Y023980D01*
X036644Y023980D01*
X036545Y024021D01*
X036469Y024097D01*
X036428Y024196D01*
X036428Y024304D01*
X036451Y024360D01*
X036248Y024056D01*
X036159Y023996D01*
X036054Y023975D01*
X035948Y023996D01*
X035869Y024048D01*
X035842Y024021D01*
X035743Y023980D01*
X035449Y023980D01*
X035349Y024021D01*
X035274Y024097D01*
X035198Y024021D01*
X035098Y023980D01*
X034612Y024114D02*
X034353Y024114D01*
X034459Y024272D02*
X034502Y024272D01*
X034127Y024748D02*
X034026Y024748D01*
X034008Y024906D02*
X034233Y024906D01*
X034388Y025065D02*
X033848Y025065D01*
X033663Y025065D02*
X033110Y025065D01*
X032925Y025065D02*
X032559Y025065D01*
X032187Y025065D02*
X031914Y025065D01*
X031543Y025065D02*
X030653Y025065D01*
X030615Y025080D02*
X030414Y025080D01*
X030314Y025039D01*
X030239Y024963D01*
X030202Y024875D01*
X030157Y024894D01*
X029863Y024894D01*
X029763Y024853D01*
X029687Y024777D01*
X029612Y024853D01*
X029512Y024894D01*
X029125Y024894D01*
X029025Y024853D01*
X028996Y024823D01*
X028967Y024853D01*
X028868Y024894D01*
X028573Y024894D01*
X028495Y024861D01*
X028492Y024870D01*
X028416Y024946D01*
X028322Y025039D01*
X028223Y025080D01*
X027836Y025080D01*
X027736Y025039D01*
X027660Y024963D01*
X027619Y024864D01*
X027619Y024383D01*
X027619Y024196D01*
X027660Y024097D01*
X027736Y024021D01*
X027836Y023980D01*
X027943Y023980D01*
X028042Y024021D01*
X028118Y024097D01*
X028147Y024167D01*
X028223Y024167D01*
X028301Y024199D01*
X028305Y024190D01*
X028381Y024115D01*
X028474Y024021D01*
X028573Y023980D01*
X028961Y023980D01*
X029043Y024014D01*
X029125Y023980D01*
X029232Y023980D01*
X029331Y024021D01*
X029365Y024055D01*
X029399Y024021D01*
X029498Y023980D01*
X029606Y023980D01*
X029705Y024021D01*
X029734Y024050D01*
X029763Y024021D01*
X029863Y023980D01*
X030157Y023980D01*
X030256Y024021D01*
X030285Y024050D01*
X030314Y024021D01*
X030414Y023980D01*
X030708Y023980D01*
X030807Y024021D01*
X030883Y024097D01*
X030924Y024196D01*
X030924Y024304D01*
X030883Y024403D01*
X030831Y024455D01*
X030831Y024864D01*
X030790Y024963D01*
X030714Y025039D01*
X030615Y025080D01*
X030375Y025065D02*
X028262Y025065D01*
X028456Y024906D02*
X030215Y024906D01*
X030814Y024906D02*
X031349Y024906D01*
X031272Y024748D02*
X030831Y024748D01*
X030831Y024589D02*
X031302Y024589D01*
X031340Y024431D02*
X030856Y024431D01*
X030924Y024272D02*
X031272Y024272D01*
X031306Y024114D02*
X030890Y024114D01*
X032424Y023480D02*
X020963Y023480D01*
X020804Y023638D02*
X032583Y023638D01*
X033440Y024114D02*
X033520Y024114D01*
X033311Y024748D02*
X033288Y024748D01*
X033270Y024906D02*
X033469Y024906D01*
X034599Y025065D02*
X034766Y025065D01*
X035137Y025065D02*
X035410Y025065D01*
X035781Y025065D02*
X036321Y025065D01*
X036533Y025065D02*
X036793Y025065D01*
X036977Y025065D02*
X037344Y025065D01*
X037150Y024906D02*
X037138Y024906D01*
X037715Y025065D02*
X038758Y025065D01*
X038500Y024906D02*
X037909Y024906D01*
X037986Y024748D02*
X038335Y024748D01*
X038210Y024589D02*
X037986Y024589D01*
X037986Y024431D02*
X038116Y024431D01*
X038047Y024272D02*
X037979Y024272D01*
X038008Y024114D02*
X037868Y024114D01*
X037976Y023955D02*
X020487Y023955D01*
X020329Y024114D02*
X020993Y024114D01*
X021000Y024097D02*
X021076Y024021D01*
X021175Y023980D01*
X021283Y023980D01*
X021382Y024021D01*
X021458Y024097D01*
X021487Y024167D01*
X021563Y024167D01*
X021608Y024185D01*
X021645Y024097D01*
X021720Y024021D01*
X021820Y023980D01*
X022114Y023980D01*
X022182Y024008D01*
X022249Y023980D01*
X022730Y023980D01*
X022830Y024021D01*
X022859Y024050D01*
X022888Y024021D01*
X022987Y023980D01*
X023375Y023980D01*
X023457Y024014D01*
X023539Y023980D01*
X023833Y023980D01*
X023932Y024021D01*
X023947Y024036D01*
X023962Y024021D01*
X024062Y023980D01*
X024449Y023980D01*
X024549Y024021D01*
X024624Y024097D01*
X024666Y024196D01*
X024666Y024304D01*
X024666Y024864D01*
X024624Y024963D01*
X024549Y025039D01*
X024449Y025080D01*
X024342Y025080D01*
X024243Y025039D01*
X024167Y024963D01*
X024138Y024894D01*
X024062Y024894D01*
X023962Y024853D01*
X023956Y024846D01*
X023956Y024958D01*
X023915Y025057D01*
X023839Y025133D01*
X023739Y025174D01*
X023632Y025174D01*
X023533Y025133D01*
X023457Y025057D01*
X023416Y024958D01*
X023416Y024829D01*
X023410Y024823D01*
X023381Y024853D01*
X023282Y024894D01*
X022987Y024894D01*
X022888Y024853D01*
X022859Y024823D01*
X022830Y024853D01*
X022730Y024894D01*
X022249Y024894D01*
X022237Y024888D01*
X022237Y024958D01*
X022196Y025057D01*
X022120Y025133D01*
X022021Y025174D01*
X021913Y025174D01*
X021814Y025133D01*
X021738Y025057D01*
X021711Y024991D01*
X021662Y025039D01*
X021563Y025080D01*
X021175Y025080D01*
X021076Y025039D01*
X021000Y024963D01*
X020959Y024864D01*
X020959Y024196D01*
X021000Y024097D01*
X020959Y024272D02*
X020170Y024272D01*
X020012Y024431D02*
X020959Y024431D01*
X020959Y024589D02*
X019853Y024589D01*
X019695Y024748D02*
X020959Y024748D01*
X020976Y024906D02*
X019536Y024906D01*
X019378Y025065D02*
X021137Y025065D01*
X021601Y025065D02*
X021746Y025065D01*
X022188Y025065D02*
X023464Y025065D01*
X023416Y024906D02*
X022237Y024906D01*
X021638Y024114D02*
X021465Y024114D01*
X020646Y023797D02*
X037971Y023797D01*
X038216Y023004D02*
X035443Y023004D01*
X035330Y022846D02*
X038343Y022846D01*
X036462Y024114D02*
X036287Y024114D01*
X036393Y024272D02*
X036428Y024272D01*
X036502Y024435D02*
X036503Y024437D01*
X036502Y024435D01*
X036503Y024437D02*
X036503Y024437D01*
X036061Y024748D02*
X036053Y024748D01*
X035975Y024906D02*
X036166Y024906D01*
X034375Y023004D02*
X033481Y023004D01*
X033639Y022846D02*
X034488Y022846D01*
X034646Y022687D02*
X033798Y022687D01*
X028382Y024114D02*
X028125Y024114D01*
X027654Y024114D02*
X027126Y024114D01*
X027127Y024115D02*
X027203Y024190D01*
X027244Y024290D01*
X027244Y024771D01*
X027203Y024870D01*
X027109Y024963D01*
X027033Y025039D01*
X026934Y025080D01*
X026546Y025080D01*
X026447Y025039D01*
X026418Y025010D01*
X026389Y025039D01*
X026290Y025080D01*
X025995Y025080D01*
X025896Y025039D01*
X025803Y024946D01*
X025727Y024870D01*
X025686Y024771D01*
X025686Y024520D01*
X025581Y024520D01*
X025581Y024864D01*
X025540Y024963D01*
X025464Y025039D01*
X025365Y025080D01*
X025257Y025080D01*
X025158Y025039D01*
X025082Y024963D01*
X025041Y024864D01*
X025041Y024196D01*
X025082Y024097D01*
X025158Y024021D01*
X025257Y023980D01*
X025738Y023980D01*
X025838Y024021D01*
X025867Y024050D01*
X025896Y024021D01*
X025995Y023980D01*
X026290Y023980D01*
X026389Y024021D01*
X026418Y024050D01*
X026447Y024021D01*
X026546Y023980D01*
X026934Y023980D01*
X027033Y024021D01*
X027127Y024115D01*
X027236Y024272D02*
X027619Y024272D01*
X027619Y024431D02*
X027244Y024431D01*
X027244Y024589D02*
X027619Y024589D01*
X027619Y024748D02*
X027244Y024748D01*
X027167Y024906D02*
X027637Y024906D01*
X027797Y025065D02*
X026973Y025065D01*
X026508Y025065D02*
X026328Y025065D01*
X025957Y025065D02*
X025403Y025065D01*
X025219Y025065D02*
X024488Y025065D01*
X024303Y025065D02*
X023907Y025065D01*
X023956Y024906D02*
X024143Y024906D01*
X024648Y024906D02*
X025058Y024906D01*
X025041Y024748D02*
X024666Y024748D01*
X024666Y024589D02*
X025041Y024589D01*
X025041Y024431D02*
X024666Y024431D01*
X024666Y024272D02*
X025041Y024272D01*
X025075Y024114D02*
X024631Y024114D01*
X025581Y024589D02*
X025686Y024589D01*
X025686Y024748D02*
X025581Y024748D01*
X025564Y024906D02*
X025763Y024906D01*
X020731Y023004D02*
X020481Y023004D01*
X020573Y023163D02*
X020322Y023163D01*
X020414Y023321D02*
X020164Y023321D01*
X020256Y023480D02*
X015288Y023480D01*
X016336Y023638D02*
X020097Y023638D01*
X019939Y023797D02*
X016456Y023797D01*
X016453Y023955D02*
X019780Y023955D01*
X019622Y024114D02*
X016318Y024114D01*
X016278Y024272D02*
X019463Y024272D01*
X019305Y024431D02*
X016278Y024431D01*
X016234Y024589D02*
X019146Y024589D01*
X019409Y022680D02*
X019909Y022180D01*
X019909Y015180D01*
X018909Y015180D02*
X018909Y016180D01*
X018511Y016189D02*
X013659Y016189D01*
X013659Y016347D02*
X018511Y016347D01*
X018511Y016461D02*
X018511Y015899D01*
X018628Y015782D01*
X018629Y015782D01*
X018629Y015551D01*
X018538Y015460D01*
X017853Y015460D01*
X017750Y015417D01*
X017250Y014917D01*
X017172Y014839D01*
X017129Y014736D01*
X017129Y014442D01*
X017026Y014442D01*
X016909Y014325D01*
X016909Y013930D01*
X014512Y013930D01*
X013659Y014784D01*
X013659Y021552D01*
X013672Y021521D01*
X014172Y021021D01*
X014250Y020943D01*
X014353Y020900D01*
X018293Y020900D01*
X019129Y020064D01*
X019129Y016578D01*
X018628Y016578D01*
X018511Y016461D01*
X018555Y016506D02*
X013659Y016506D01*
X013659Y016664D02*
X019129Y016664D01*
X019129Y016823D02*
X013659Y016823D01*
X013659Y016981D02*
X019129Y016981D01*
X019129Y017140D02*
X013659Y017140D01*
X013659Y017298D02*
X019129Y017298D01*
X019129Y017457D02*
X013659Y017457D01*
X013659Y017615D02*
X019129Y017615D01*
X019129Y017774D02*
X013659Y017774D01*
X013659Y017932D02*
X019129Y017932D01*
X019129Y018091D02*
X013659Y018091D01*
X013659Y018249D02*
X019129Y018249D01*
X019129Y018408D02*
X013659Y018408D01*
X013659Y018566D02*
X019129Y018566D01*
X019129Y018725D02*
X013659Y018725D01*
X013659Y018883D02*
X019129Y018883D01*
X019129Y019042D02*
X013659Y019042D01*
X013659Y019200D02*
X019129Y019200D01*
X019129Y019359D02*
X013659Y019359D01*
X013659Y019517D02*
X019129Y019517D01*
X019129Y019676D02*
X013659Y019676D01*
X013659Y019834D02*
X019129Y019834D01*
X019129Y019993D02*
X013659Y019993D01*
X013659Y020151D02*
X019042Y020151D01*
X018883Y020310D02*
X013659Y020310D01*
X013659Y020468D02*
X018725Y020468D01*
X018566Y020627D02*
X013659Y020627D01*
X013659Y020785D02*
X018408Y020785D01*
X018883Y021102D02*
X019629Y021102D01*
X019629Y020944D02*
X019041Y020944D01*
X019200Y020785D02*
X019629Y020785D01*
X019629Y020627D02*
X019358Y020627D01*
X019517Y020468D02*
X019629Y020468D01*
X019567Y020417D02*
X018567Y021417D01*
X018465Y021460D01*
X014525Y021460D01*
X014196Y021789D01*
X014389Y021981D01*
X014389Y022379D01*
X014368Y022400D01*
X014450Y022400D01*
X014429Y022379D01*
X014429Y021981D01*
X014710Y021700D01*
X015108Y021700D01*
X015308Y021900D01*
X017261Y021900D01*
X017261Y021649D01*
X017378Y021532D01*
X017940Y021532D01*
X018057Y021649D01*
X018057Y022211D01*
X017940Y022328D01*
X017657Y022328D01*
X017585Y022400D01*
X019293Y022400D01*
X019629Y022064D01*
X019629Y020356D01*
X019567Y020417D01*
X019629Y021261D02*
X018724Y021261D01*
X018563Y021419D02*
X019629Y021419D01*
X019629Y021578D02*
X017985Y021578D01*
X018057Y021736D02*
X019629Y021736D01*
X019629Y021895D02*
X018057Y021895D01*
X018057Y022053D02*
X019629Y022053D01*
X019481Y022212D02*
X018056Y022212D01*
X017615Y022370D02*
X019323Y022370D01*
X017659Y021930D02*
X017409Y022180D01*
X014909Y022180D01*
X014429Y022212D02*
X014389Y022212D01*
X014389Y022370D02*
X014429Y022370D01*
X014429Y022053D02*
X014389Y022053D01*
X014302Y021895D02*
X014516Y021895D01*
X014674Y021736D02*
X014249Y021736D01*
X014407Y021578D02*
X017332Y021578D01*
X017261Y021736D02*
X015144Y021736D01*
X015302Y021895D02*
X017261Y021895D01*
X014249Y020944D02*
X013659Y020944D01*
X013659Y021102D02*
X014091Y021102D01*
X013932Y021261D02*
X013659Y021261D01*
X013659Y021419D02*
X013774Y021419D01*
X013159Y021419D02*
X010294Y021419D01*
X010452Y021578D02*
X013159Y021578D01*
X013159Y021736D02*
X013115Y021736D01*
X012919Y021736D02*
X012899Y021736D01*
X012899Y021720D02*
X012718Y021720D01*
X012449Y021989D01*
X012449Y022170D01*
X012899Y022170D01*
X012899Y021720D01*
X012899Y021895D02*
X012919Y021895D01*
X012919Y022053D02*
X012899Y022053D01*
X012702Y021736D02*
X010611Y021736D01*
X010689Y021895D02*
X012544Y021895D01*
X012449Y022053D02*
X010689Y022053D01*
X010689Y022212D02*
X012449Y022212D01*
X012449Y022370D02*
X010689Y022370D01*
X010689Y022529D02*
X012607Y022529D01*
X012798Y022687D02*
X010689Y022687D01*
X010689Y022846D02*
X012565Y022846D01*
X012429Y023004D02*
X010689Y023004D01*
X010787Y023163D02*
X012429Y023163D01*
X012429Y023321D02*
X010946Y023321D01*
X010909Y023680D02*
X010409Y023180D01*
X010409Y021930D01*
X007659Y019180D01*
X007659Y015180D01*
X007978Y014861D01*
X008409Y014861D01*
X008042Y014581D02*
X008033Y014581D01*
X007922Y014581D01*
X007819Y014624D01*
X007500Y014943D01*
X007439Y015004D01*
X007439Y014546D01*
X007631Y014354D01*
X008042Y014354D01*
X008150Y014462D01*
X008164Y014467D01*
X008150Y014473D01*
X008042Y014581D01*
X008133Y014445D02*
X007540Y014445D01*
X007439Y014604D02*
X007868Y014604D01*
X007681Y014762D02*
X007439Y014762D01*
X007439Y014921D02*
X007522Y014921D01*
X007997Y015238D02*
X008138Y015238D01*
X008052Y015396D02*
X007939Y015396D01*
X007939Y015555D02*
X007981Y015555D01*
X007976Y015713D02*
X007939Y015713D01*
X007939Y015872D02*
X008032Y015872D01*
X007939Y016030D02*
X008193Y016030D01*
X008016Y016189D02*
X007939Y016189D01*
X007939Y016347D02*
X007951Y016347D01*
X007939Y016506D02*
X007951Y016506D01*
X007939Y016664D02*
X008008Y016664D01*
X007939Y016823D02*
X008149Y016823D01*
X008014Y016981D02*
X007939Y016981D01*
X007939Y017140D02*
X007951Y017140D01*
X007939Y017298D02*
X007951Y017298D01*
X007939Y017457D02*
X008010Y017457D01*
X007939Y017615D02*
X008159Y017615D01*
X007939Y017774D02*
X013159Y017774D01*
X013159Y017932D02*
X007939Y017932D01*
X007939Y018091D02*
X013159Y018091D01*
X013159Y018249D02*
X007939Y018249D01*
X007939Y018408D02*
X013159Y018408D01*
X013159Y018566D02*
X007939Y018566D01*
X007939Y018725D02*
X013159Y018725D01*
X013159Y018883D02*
X007939Y018883D01*
X007939Y019042D02*
X013159Y019042D01*
X013159Y019200D02*
X008075Y019200D01*
X008233Y019359D02*
X013159Y019359D01*
X013159Y019517D02*
X008392Y019517D01*
X008550Y019676D02*
X013159Y019676D01*
X013159Y019834D02*
X008709Y019834D01*
X008867Y019993D02*
X013159Y019993D01*
X013159Y020151D02*
X009026Y020151D01*
X009184Y020310D02*
X013159Y020310D01*
X013159Y020468D02*
X009343Y020468D01*
X009501Y020627D02*
X013159Y020627D01*
X013159Y020785D02*
X009660Y020785D01*
X009818Y020944D02*
X013159Y020944D01*
X013159Y021102D02*
X009977Y021102D01*
X010135Y021261D02*
X013159Y021261D01*
X010129Y022046D02*
X007439Y019356D01*
X007439Y019564D01*
X010067Y022193D01*
X010129Y022254D01*
X010129Y022046D01*
X010129Y022053D02*
X009928Y022053D01*
X009977Y021895D02*
X009769Y021895D01*
X009819Y021736D02*
X009611Y021736D01*
X009660Y021578D02*
X009452Y021578D01*
X009502Y021419D02*
X009294Y021419D01*
X009343Y021261D02*
X009135Y021261D01*
X009185Y021102D02*
X008977Y021102D01*
X009026Y020944D02*
X008818Y020944D01*
X008868Y020785D02*
X008660Y020785D01*
X008709Y020627D02*
X008501Y020627D01*
X008551Y020468D02*
X008343Y020468D01*
X008392Y020310D02*
X008184Y020310D01*
X008234Y020151D02*
X008026Y020151D01*
X008075Y019993D02*
X007867Y019993D01*
X007917Y019834D02*
X007709Y019834D01*
X007758Y019676D02*
X007550Y019676D01*
X007600Y019517D02*
X007439Y019517D01*
X007439Y019359D02*
X007441Y019359D01*
X006909Y019808D02*
X006909Y019826D01*
X009621Y022538D01*
X009629Y022558D01*
X009629Y022546D01*
X006922Y019839D01*
X006909Y019808D01*
X006916Y019834D02*
X006920Y019834D01*
X007075Y019993D02*
X007075Y019993D01*
X007233Y020151D02*
X007234Y020151D01*
X007392Y020310D02*
X007392Y020310D01*
X007550Y020468D02*
X007551Y020468D01*
X007709Y020627D02*
X007709Y020627D01*
X007867Y020785D02*
X007868Y020785D01*
X008026Y020944D02*
X008026Y020944D01*
X008184Y021102D02*
X008185Y021102D01*
X008343Y021261D02*
X008343Y021261D01*
X008501Y021419D02*
X008502Y021419D01*
X008660Y021578D02*
X008660Y021578D01*
X008818Y021736D02*
X008819Y021736D01*
X008977Y021895D02*
X008977Y021895D01*
X009135Y022053D02*
X009136Y022053D01*
X009294Y022212D02*
X009294Y022212D01*
X009452Y022370D02*
X009453Y022370D01*
X009611Y022529D02*
X009611Y022529D01*
X009159Y022846D02*
X008908Y022846D01*
X009035Y023004D02*
X009159Y023004D01*
X009159Y023163D02*
X009131Y023163D01*
X009062Y022687D02*
X008721Y022687D01*
X008904Y022529D02*
X008464Y022529D01*
X010086Y022212D02*
X010129Y022212D01*
X010189Y023356D02*
X010189Y023564D01*
X010525Y023900D01*
X010733Y023900D01*
X010672Y023839D01*
X010189Y023356D01*
X010189Y023480D02*
X010312Y023480D01*
X010263Y023638D02*
X010471Y023638D01*
X010421Y023797D02*
X010629Y023797D01*
X010909Y023680D02*
X013159Y023680D01*
X013409Y023430D01*
X015783Y024589D02*
X010421Y024589D01*
X010282Y024431D02*
X010263Y024431D01*
X010104Y024272D02*
X010105Y024272D01*
X009946Y024114D02*
X009946Y024114D01*
X009787Y023955D02*
X009788Y023955D01*
X009397Y024272D02*
X009204Y024272D01*
X009135Y024431D02*
X009556Y024431D01*
X009714Y024589D02*
X009041Y024589D01*
X008916Y024748D02*
X009873Y024748D01*
X010031Y024906D02*
X008751Y024906D01*
X008493Y025065D02*
X010190Y025065D01*
X007594Y025540D02*
X039656Y025540D01*
X040144Y025382D02*
X007107Y025382D01*
X006779Y025680D02*
X006716Y025650D01*
X006334Y025345D01*
X006030Y024963D01*
X006030Y024963D01*
X005909Y024712D01*
X005909Y025680D01*
X006779Y025680D01*
X006716Y025650D02*
X006716Y025650D01*
X006579Y025540D02*
X005909Y025540D01*
X005909Y025382D02*
X006380Y025382D01*
X006334Y025345D02*
X006334Y025345D01*
X006237Y025223D02*
X005909Y025223D01*
X005909Y025065D02*
X006111Y025065D01*
X006002Y024906D02*
X005909Y024906D01*
X005909Y024748D02*
X005926Y024748D01*
X008659Y017615D02*
X013159Y017615D01*
X013159Y017457D02*
X010028Y017457D01*
X010103Y017382D02*
X010103Y017382D01*
X010187Y017298D02*
X013159Y017298D01*
X013159Y017140D02*
X010345Y017140D01*
X010504Y016981D02*
X013159Y016981D01*
X013159Y016823D02*
X010662Y016823D01*
X010817Y016667D02*
X010817Y016667D01*
X010821Y016664D02*
X013159Y016664D01*
X013159Y016506D02*
X010931Y016506D01*
X010939Y016347D02*
X013159Y016347D01*
X013159Y016189D02*
X010939Y016189D01*
X010939Y016030D02*
X013159Y016030D01*
X013159Y015872D02*
X010939Y015872D01*
X010939Y015713D02*
X013159Y015713D01*
X013159Y015555D02*
X010939Y015555D01*
X010939Y015396D02*
X013159Y015396D01*
X013159Y015238D02*
X010939Y015238D01*
X010939Y015079D02*
X013159Y015079D01*
X013159Y014921D02*
X010939Y014921D01*
X010939Y014762D02*
X013159Y014762D01*
X013170Y014604D02*
X010939Y014604D01*
X010939Y014445D02*
X013290Y014445D01*
X013449Y014287D02*
X010939Y014287D01*
X010939Y014128D02*
X013607Y014128D01*
X013766Y013970D02*
X010939Y013970D01*
X010939Y013811D02*
X013924Y013811D01*
X014083Y013653D02*
X010939Y013653D01*
X010991Y013494D02*
X014241Y013494D01*
X014197Y013538D02*
X014197Y013538D01*
X014473Y013970D02*
X016909Y013970D01*
X016909Y014128D02*
X014314Y014128D01*
X014156Y014287D02*
X016909Y014287D01*
X017129Y014445D02*
X013997Y014445D01*
X013839Y014604D02*
X017129Y014604D01*
X017140Y014762D02*
X013680Y014762D01*
X013659Y014921D02*
X017253Y014921D01*
X017412Y015079D02*
X013659Y015079D01*
X013659Y015238D02*
X017570Y015238D01*
X017729Y015396D02*
X013659Y015396D01*
X013659Y015555D02*
X018629Y015555D01*
X018629Y015713D02*
X013659Y015713D01*
X013659Y015872D02*
X018538Y015872D01*
X018511Y016030D02*
X013659Y016030D01*
X009866Y017223D02*
X008409Y017223D01*
X006909Y014302D02*
X006922Y014271D01*
X007000Y014193D01*
X007263Y013930D01*
X007262Y013930D01*
X006909Y014284D01*
X006909Y014302D01*
X006909Y014287D02*
X006915Y014287D01*
X007064Y014128D02*
X007065Y014128D01*
X007223Y013970D02*
X007223Y013970D01*
X007381Y013006D02*
X007189Y012814D01*
X007189Y012356D01*
X007250Y012417D01*
X007569Y012736D01*
X007672Y012779D01*
X008042Y012779D01*
X008150Y012887D01*
X008164Y012893D01*
X008150Y012898D01*
X008042Y013006D01*
X007381Y013006D01*
X007235Y012860D02*
X008123Y012860D01*
X008409Y012499D02*
X007728Y012499D01*
X007409Y012180D01*
X007217Y012385D02*
X007189Y012385D01*
X007189Y012543D02*
X007376Y012543D01*
X007534Y012702D02*
X007189Y012702D01*
X011149Y013336D02*
X017389Y013336D01*
X017389Y013177D02*
X017429Y013177D01*
X017429Y013019D02*
X017389Y013019D01*
X016958Y013019D02*
X011466Y013019D01*
X011308Y013177D02*
X016929Y013177D01*
X018430Y013762D02*
X018680Y013762D01*
X019129Y013314D01*
X019129Y013052D01*
X019121Y013072D01*
X019051Y013142D01*
X019051Y013142D01*
X018430Y013762D01*
X018540Y013653D02*
X018790Y013653D01*
X018698Y013494D02*
X018949Y013494D01*
X018857Y013336D02*
X019107Y013336D01*
X019129Y013177D02*
X019015Y013177D01*
X019909Y012180D02*
X019909Y010180D01*
X021189Y011751D02*
X021744Y011751D01*
X021529Y011909D02*
X021288Y011909D01*
X021360Y012068D02*
X021458Y012068D01*
X021449Y012226D02*
X021369Y012226D01*
X021322Y012385D02*
X021496Y012385D01*
X021621Y012543D02*
X021196Y012543D01*
X021594Y013970D02*
X021802Y013970D01*
X021753Y014128D02*
X021961Y014128D01*
X021911Y014287D02*
X022119Y014287D01*
X022129Y014445D02*
X022070Y014445D01*
X022129Y015872D02*
X021189Y015872D01*
X021189Y016030D02*
X022129Y016030D01*
X022129Y016189D02*
X021189Y016189D01*
X021189Y016347D02*
X022180Y016347D01*
X018909Y015180D02*
X017909Y015180D01*
X040472Y025680D02*
X041409Y025680D01*
X041409Y024573D01*
X041221Y024963D01*
X040917Y025345D01*
X040917Y025345D01*
X040917Y025345D01*
X040534Y025650D01*
X040472Y025680D01*
X040534Y025650D02*
X040534Y025650D01*
X040672Y025540D02*
X041409Y025540D01*
X041409Y025382D02*
X040871Y025382D01*
X041014Y025223D02*
X041409Y025223D01*
X041409Y025065D02*
X041140Y025065D01*
X041221Y024963D02*
X041221Y024963D01*
X041249Y024906D02*
X041409Y024906D01*
X041409Y024748D02*
X041325Y024748D01*
X041401Y024589D02*
X041409Y024589D01*
D20*
X032909Y023180D02*
X020909Y023180D01*
X019159Y024930D01*
X010409Y024930D01*
X009409Y023930D01*
X009409Y022680D01*
X006659Y019930D01*
X006659Y014180D01*
X007159Y013680D01*
X010659Y013680D01*
X013409Y014680D02*
X014409Y013680D01*
X018159Y013680D01*
X018909Y012930D01*
X018909Y012180D01*
X013409Y014680D02*
X013409Y022430D01*
X012909Y022930D01*
X012909Y023180D01*
D21*
X017659Y021930D03*
X018909Y016180D03*
X017409Y012180D03*
X028909Y015180D03*
X030409Y010180D03*
X020409Y004180D03*
D22*
X016409Y023680D02*
X015409Y023680D01*
X015409Y024680D01*
X016409Y024680D01*
X016409Y023680D01*
X016409Y023704D02*
X015409Y023704D01*
X015409Y023742D02*
X016409Y023742D01*
X016409Y023781D02*
X015409Y023781D01*
X015409Y023819D02*
X015747Y023819D01*
X015731Y023835D02*
X015784Y023782D01*
X016232Y023782D01*
X016285Y023835D01*
X016285Y023909D01*
X016232Y023962D01*
X016098Y023962D01*
X016098Y024470D01*
X016046Y024523D01*
X015971Y024523D01*
X015918Y024470D01*
X015731Y024283D01*
X015731Y024208D01*
X015784Y024156D01*
X015859Y024156D01*
X015918Y024215D01*
X015918Y023962D01*
X015784Y023962D01*
X015731Y023909D01*
X015731Y023835D01*
X015731Y023858D02*
X015409Y023858D01*
X015409Y023896D02*
X015731Y023896D01*
X015757Y023935D02*
X015409Y023935D01*
X015409Y023973D02*
X015918Y023973D01*
X015918Y024012D02*
X015409Y024012D01*
X015409Y024050D02*
X015918Y024050D01*
X015918Y024089D02*
X015409Y024089D01*
X015409Y024127D02*
X015918Y024127D01*
X015918Y024166D02*
X015869Y024166D01*
X015907Y024204D02*
X015918Y024204D01*
X015774Y024166D02*
X015409Y024166D01*
X015409Y024204D02*
X015736Y024204D01*
X015731Y024243D02*
X015409Y024243D01*
X015409Y024281D02*
X015731Y024281D01*
X015768Y024320D02*
X015409Y024320D01*
X015409Y024358D02*
X015807Y024358D01*
X015845Y024397D02*
X015409Y024397D01*
X015409Y024435D02*
X015884Y024435D01*
X015918Y024470D02*
X015918Y024470D01*
X015922Y024474D02*
X015409Y024474D01*
X015409Y024512D02*
X015961Y024512D01*
X016056Y024512D02*
X016409Y024512D01*
X016409Y024474D02*
X016094Y024474D01*
X016098Y024435D02*
X016409Y024435D01*
X016409Y024397D02*
X016098Y024397D01*
X016098Y024358D02*
X016409Y024358D01*
X016409Y024320D02*
X016098Y024320D01*
X016098Y024281D02*
X016409Y024281D01*
X016409Y024243D02*
X016098Y024243D01*
X016098Y024204D02*
X016409Y024204D01*
X016409Y024166D02*
X016098Y024166D01*
X016098Y024127D02*
X016409Y024127D01*
X016409Y024089D02*
X016098Y024089D01*
X016098Y024050D02*
X016409Y024050D01*
X016409Y024012D02*
X016098Y024012D01*
X016098Y023973D02*
X016409Y023973D01*
X016409Y023935D02*
X016260Y023935D01*
X016285Y023896D02*
X016409Y023896D01*
X016409Y023858D02*
X016285Y023858D01*
X016269Y023819D02*
X016409Y023819D01*
X016409Y024551D02*
X015409Y024551D01*
X015409Y024589D02*
X016409Y024589D01*
X016409Y024628D02*
X015409Y024628D01*
X015409Y024666D02*
X016409Y024666D01*
X020909Y024666D02*
X021139Y024666D01*
X021139Y024628D02*
X020909Y024628D01*
X020909Y024589D02*
X021139Y024589D01*
X021139Y024551D02*
X020909Y024551D01*
X020909Y024512D02*
X021139Y024512D01*
X021139Y024474D02*
X020909Y024474D01*
X020909Y024435D02*
X021139Y024435D01*
X021139Y024400D02*
X021139Y024213D01*
X021192Y024160D01*
X021266Y024160D01*
X021319Y024213D01*
X021319Y024347D01*
X021546Y024347D01*
X021599Y024400D01*
X021693Y024493D01*
X021693Y024754D01*
X021640Y024807D01*
X021546Y024900D01*
X021192Y024900D01*
X021139Y024848D01*
X021139Y024400D01*
X021139Y024397D02*
X020909Y024397D01*
X020909Y024358D02*
X021139Y024358D01*
X021139Y024320D02*
X020909Y024320D01*
X020909Y024281D02*
X021139Y024281D01*
X021139Y024243D02*
X020909Y024243D01*
X020909Y024204D02*
X021147Y024204D01*
X021186Y024166D02*
X020909Y024166D01*
X020909Y024127D02*
X037909Y024127D01*
X037909Y024089D02*
X020909Y024089D01*
X020909Y024050D02*
X037909Y024050D01*
X037909Y024012D02*
X020909Y024012D01*
X020909Y023973D02*
X037909Y023973D01*
X037909Y023935D02*
X020909Y023935D01*
X020909Y023930D02*
X037909Y023930D01*
X037909Y025430D01*
X020909Y025430D01*
X020909Y023930D01*
X021272Y024166D02*
X021831Y024166D01*
X021836Y024160D02*
X022098Y024160D01*
X022150Y024213D01*
X022150Y024287D01*
X022098Y024340D01*
X022057Y024340D01*
X022057Y024661D01*
X022004Y024714D01*
X021930Y024714D01*
X021836Y024714D01*
X021783Y024661D01*
X021783Y024586D01*
X021836Y024534D01*
X021877Y024534D01*
X021877Y024340D01*
X021836Y024340D01*
X021783Y024287D01*
X021783Y024213D01*
X021836Y024160D01*
X021792Y024204D02*
X021310Y024204D01*
X021319Y024243D02*
X021783Y024243D01*
X021783Y024281D02*
X021319Y024281D01*
X021319Y024320D02*
X021816Y024320D01*
X021877Y024358D02*
X021558Y024358D01*
X021596Y024397D02*
X021877Y024397D01*
X021877Y024435D02*
X021635Y024435D01*
X021673Y024474D02*
X021877Y024474D01*
X021877Y024512D02*
X021693Y024512D01*
X021693Y024551D02*
X021819Y024551D01*
X021783Y024589D02*
X021693Y024589D01*
X021693Y024628D02*
X021783Y024628D01*
X021789Y024666D02*
X021693Y024666D01*
X021693Y024705D02*
X021827Y024705D01*
X021877Y024773D02*
X021930Y024720D01*
X022004Y024720D01*
X022057Y024773D01*
X022057Y024941D01*
X022004Y024994D01*
X021930Y024994D01*
X021877Y024941D01*
X021877Y024773D01*
X021877Y024782D02*
X021665Y024782D01*
X021693Y024743D02*
X021907Y024743D01*
X021877Y024820D02*
X021627Y024820D01*
X021588Y024859D02*
X021877Y024859D01*
X021877Y024897D02*
X021550Y024897D01*
X021472Y024720D02*
X021513Y024680D01*
X021513Y024568D01*
X021472Y024527D01*
X021319Y024527D01*
X021319Y024720D01*
X021472Y024720D01*
X021488Y024705D02*
X021319Y024705D01*
X021319Y024666D02*
X021513Y024666D01*
X021513Y024628D02*
X021319Y024628D01*
X021319Y024589D02*
X021513Y024589D01*
X021496Y024551D02*
X021319Y024551D01*
X021139Y024705D02*
X020909Y024705D01*
X020909Y024743D02*
X021139Y024743D01*
X021139Y024782D02*
X020909Y024782D01*
X020909Y024820D02*
X021139Y024820D01*
X021150Y024859D02*
X020909Y024859D01*
X020909Y024897D02*
X021188Y024897D01*
X020909Y024936D02*
X021877Y024936D01*
X021910Y024974D02*
X020909Y024974D01*
X020909Y025013D02*
X037909Y025013D01*
X037909Y025051D02*
X020909Y025051D01*
X020909Y025090D02*
X037909Y025090D01*
X037909Y025128D02*
X020909Y025128D01*
X020909Y025167D02*
X037909Y025167D01*
X037909Y025205D02*
X020909Y025205D01*
X020909Y025244D02*
X037909Y025244D01*
X037909Y025282D02*
X020909Y025282D01*
X020909Y025321D02*
X037909Y025321D01*
X037909Y025359D02*
X020909Y025359D01*
X020909Y025398D02*
X037909Y025398D01*
X037909Y024974D02*
X023743Y024974D01*
X023723Y024994D02*
X023648Y024994D01*
X023596Y024941D01*
X023596Y024773D01*
X023648Y024720D01*
X023723Y024720D01*
X023776Y024773D01*
X023776Y024941D01*
X023723Y024994D01*
X023776Y024936D02*
X037909Y024936D01*
X037909Y024897D02*
X037663Y024897D01*
X037660Y024900D02*
X037399Y024900D01*
X037346Y024848D01*
X037253Y024754D01*
X037253Y024306D01*
X037305Y024253D01*
X037399Y024160D01*
X037473Y024160D01*
X037660Y024160D01*
X037713Y024213D01*
X037806Y024306D01*
X037806Y024754D01*
X037754Y024807D01*
X037660Y024900D01*
X037702Y024859D02*
X037909Y024859D01*
X037909Y024820D02*
X037740Y024820D01*
X037779Y024782D02*
X037909Y024782D01*
X037909Y024743D02*
X037806Y024743D01*
X037806Y024705D02*
X037909Y024705D01*
X037909Y024666D02*
X037806Y024666D01*
X037806Y024628D02*
X037909Y024628D01*
X037909Y024589D02*
X037806Y024589D01*
X037806Y024551D02*
X037909Y024551D01*
X037909Y024512D02*
X037806Y024512D01*
X037806Y024474D02*
X037909Y024474D01*
X037909Y024435D02*
X037806Y024435D01*
X037806Y024397D02*
X037909Y024397D01*
X037909Y024358D02*
X037806Y024358D01*
X037806Y024320D02*
X037909Y024320D01*
X037909Y024281D02*
X037781Y024281D01*
X037743Y024243D02*
X037909Y024243D01*
X037909Y024204D02*
X037704Y024204D01*
X037666Y024166D02*
X037909Y024166D01*
X037626Y024381D02*
X037626Y024500D01*
X037470Y024343D01*
X037473Y024340D01*
X037586Y024340D01*
X037626Y024381D01*
X037626Y024397D02*
X037523Y024397D01*
X037562Y024435D02*
X037626Y024435D01*
X037626Y024474D02*
X037600Y024474D01*
X037604Y024358D02*
X037485Y024358D01*
X037355Y024204D02*
X037153Y024204D01*
X037162Y024213D02*
X037162Y024287D01*
X037109Y024340D01*
X036975Y024340D01*
X036975Y024848D01*
X036922Y024900D01*
X036848Y024900D01*
X036795Y024848D01*
X036795Y024848D01*
X036608Y024661D01*
X036608Y024586D01*
X036661Y024534D01*
X036735Y024534D01*
X036795Y024593D01*
X036795Y024340D01*
X036661Y024340D01*
X036608Y024287D01*
X036608Y024213D01*
X036661Y024160D01*
X037109Y024160D01*
X037162Y024213D01*
X037162Y024243D02*
X037316Y024243D01*
X037278Y024281D02*
X037162Y024281D01*
X037129Y024320D02*
X037253Y024320D01*
X037253Y024358D02*
X036975Y024358D01*
X036975Y024397D02*
X037253Y024397D01*
X037253Y024435D02*
X036975Y024435D01*
X036975Y024474D02*
X037253Y024474D01*
X037253Y024512D02*
X036975Y024512D01*
X036975Y024551D02*
X037253Y024551D01*
X037253Y024589D02*
X036975Y024589D01*
X036975Y024628D02*
X037253Y024628D01*
X037253Y024666D02*
X036975Y024666D01*
X036975Y024705D02*
X037253Y024705D01*
X037253Y024743D02*
X036975Y024743D01*
X036975Y024782D02*
X037280Y024782D01*
X037318Y024820D02*
X036975Y024820D01*
X036964Y024859D02*
X037357Y024859D01*
X037395Y024897D02*
X036926Y024897D01*
X036844Y024897D02*
X036459Y024897D01*
X036446Y024906D02*
X036373Y024891D01*
X035958Y024269D01*
X035973Y024196D01*
X036035Y024154D01*
X036108Y024169D01*
X036523Y024792D01*
X036508Y024865D01*
X036446Y024906D01*
X036402Y024897D02*
X035730Y024897D01*
X035727Y024900D02*
X035465Y024900D01*
X035412Y024848D01*
X035412Y024848D01*
X035372Y024807D01*
X035372Y024807D01*
X035319Y024754D01*
X035319Y024586D01*
X035372Y024534D01*
X035375Y024530D01*
X035319Y024474D01*
X035319Y024306D01*
X035372Y024253D01*
X035465Y024160D01*
X035727Y024160D01*
X035779Y024213D01*
X035873Y024306D01*
X035873Y024474D01*
X035820Y024527D01*
X035816Y024530D01*
X035873Y024586D01*
X035873Y024754D01*
X035820Y024807D01*
X035727Y024900D01*
X035768Y024859D02*
X036351Y024859D01*
X036325Y024820D02*
X035807Y024820D01*
X035845Y024782D02*
X036300Y024782D01*
X036274Y024743D02*
X035873Y024743D01*
X035873Y024705D02*
X036248Y024705D01*
X036223Y024666D02*
X035873Y024666D01*
X035873Y024628D02*
X036197Y024628D01*
X036171Y024589D02*
X035873Y024589D01*
X035837Y024551D02*
X036146Y024551D01*
X036120Y024512D02*
X035835Y024512D01*
X035873Y024474D02*
X036094Y024474D01*
X036069Y024435D02*
X035873Y024435D01*
X035873Y024397D02*
X036043Y024397D01*
X036017Y024358D02*
X035873Y024358D01*
X035873Y024320D02*
X035992Y024320D01*
X035966Y024281D02*
X035848Y024281D01*
X035809Y024243D02*
X035963Y024243D01*
X035971Y024204D02*
X035771Y024204D01*
X035732Y024166D02*
X036018Y024166D01*
X036091Y024166D02*
X036655Y024166D01*
X036617Y024204D02*
X036131Y024204D01*
X036157Y024243D02*
X036608Y024243D01*
X036608Y024281D02*
X036182Y024281D01*
X036208Y024320D02*
X036640Y024320D01*
X036795Y024358D02*
X036234Y024358D01*
X036259Y024397D02*
X036795Y024397D01*
X036795Y024435D02*
X036285Y024435D01*
X036311Y024474D02*
X036795Y024474D01*
X036795Y024512D02*
X036336Y024512D01*
X036362Y024551D02*
X036644Y024551D01*
X036608Y024589D02*
X036388Y024589D01*
X036413Y024628D02*
X036608Y024628D01*
X036613Y024666D02*
X036439Y024666D01*
X036465Y024705D02*
X036652Y024705D01*
X036690Y024743D02*
X036490Y024743D01*
X036516Y024782D02*
X036729Y024782D01*
X036767Y024820D02*
X036517Y024820D01*
X036509Y024859D02*
X036806Y024859D01*
X036791Y024589D02*
X036795Y024589D01*
X036795Y024551D02*
X036752Y024551D01*
X037115Y024166D02*
X037393Y024166D01*
X037433Y024561D02*
X037433Y024680D01*
X037473Y024720D01*
X037586Y024720D01*
X037589Y024717D01*
X037433Y024561D01*
X037433Y024589D02*
X037461Y024589D01*
X037433Y024628D02*
X037500Y024628D01*
X037538Y024666D02*
X037433Y024666D01*
X037458Y024705D02*
X037577Y024705D01*
X035693Y024680D02*
X035693Y024661D01*
X035652Y024620D01*
X035540Y024620D01*
X035499Y024661D01*
X035499Y024680D01*
X035540Y024720D01*
X035652Y024720D01*
X035693Y024680D01*
X035693Y024666D02*
X035499Y024666D01*
X035524Y024705D02*
X035668Y024705D01*
X035659Y024628D02*
X035532Y024628D01*
X035540Y024440D02*
X035652Y024440D01*
X035693Y024400D01*
X035693Y024381D01*
X035652Y024340D01*
X035540Y024340D01*
X035499Y024381D01*
X035499Y024400D01*
X035540Y024440D01*
X035535Y024435D02*
X035657Y024435D01*
X035693Y024397D02*
X035499Y024397D01*
X035522Y024358D02*
X035670Y024358D01*
X035459Y024166D02*
X035088Y024166D01*
X035082Y024160D02*
X034895Y024160D01*
X034821Y024160D01*
X034727Y024253D01*
X034674Y024306D01*
X034674Y024754D01*
X034768Y024848D01*
X034821Y024900D01*
X035082Y024900D01*
X035175Y024807D01*
X035228Y024754D01*
X035228Y024306D01*
X035135Y024213D01*
X035082Y024160D01*
X035126Y024204D02*
X035421Y024204D01*
X035382Y024243D02*
X035165Y024243D01*
X035203Y024281D02*
X035344Y024281D01*
X035319Y024320D02*
X035228Y024320D01*
X035228Y024358D02*
X035319Y024358D01*
X035319Y024397D02*
X035228Y024397D01*
X035228Y024435D02*
X035319Y024435D01*
X035319Y024474D02*
X035228Y024474D01*
X035228Y024512D02*
X035357Y024512D01*
X035355Y024551D02*
X035228Y024551D01*
X035228Y024589D02*
X035319Y024589D01*
X035319Y024628D02*
X035228Y024628D01*
X035228Y024666D02*
X035319Y024666D01*
X035319Y024705D02*
X035228Y024705D01*
X035228Y024743D02*
X035319Y024743D01*
X035346Y024782D02*
X035201Y024782D01*
X035162Y024820D02*
X035385Y024820D01*
X035423Y024859D02*
X035124Y024859D01*
X035085Y024897D02*
X035462Y024897D01*
X035011Y024717D02*
X034854Y024561D01*
X034854Y024680D01*
X034895Y024720D01*
X035007Y024720D01*
X035011Y024717D01*
X034998Y024705D02*
X034879Y024705D01*
X034854Y024666D02*
X034960Y024666D01*
X034921Y024628D02*
X034854Y024628D01*
X034854Y024589D02*
X034883Y024589D01*
X035022Y024474D02*
X035048Y024474D01*
X035048Y024500D02*
X035048Y024381D01*
X035007Y024340D01*
X034895Y024340D01*
X034892Y024343D01*
X035048Y024500D01*
X035048Y024435D02*
X034983Y024435D01*
X034945Y024397D02*
X035048Y024397D01*
X035026Y024358D02*
X034906Y024358D01*
X034776Y024204D02*
X034197Y024204D01*
X034174Y024169D02*
X034589Y024792D01*
X034574Y024865D01*
X034512Y024906D01*
X034439Y024891D01*
X034024Y024269D01*
X034039Y024196D01*
X034101Y024154D01*
X034174Y024169D01*
X034157Y024166D02*
X034815Y024166D01*
X034738Y024243D02*
X034223Y024243D01*
X034249Y024281D02*
X034699Y024281D01*
X034674Y024320D02*
X034274Y024320D01*
X034300Y024358D02*
X034674Y024358D01*
X034674Y024397D02*
X034326Y024397D01*
X034351Y024435D02*
X034674Y024435D01*
X034674Y024474D02*
X034377Y024474D01*
X034403Y024512D02*
X034674Y024512D01*
X034674Y024551D02*
X034428Y024551D01*
X034454Y024589D02*
X034674Y024589D01*
X034674Y024628D02*
X034480Y024628D01*
X034505Y024666D02*
X034674Y024666D01*
X034674Y024705D02*
X034531Y024705D01*
X034557Y024743D02*
X034674Y024743D01*
X034702Y024782D02*
X034582Y024782D01*
X034583Y024820D02*
X034740Y024820D01*
X034779Y024859D02*
X034576Y024859D01*
X034526Y024897D02*
X034817Y024897D01*
X034468Y024897D02*
X033796Y024897D01*
X033793Y024900D02*
X033718Y024900D01*
X033713Y024896D01*
X033666Y024848D01*
X033390Y024572D01*
X033385Y024568D01*
X033385Y024493D01*
X033438Y024440D01*
X033666Y024440D01*
X033666Y024213D01*
X033718Y024160D01*
X033793Y024160D01*
X033846Y024213D01*
X033846Y024440D01*
X033886Y024440D01*
X033939Y024493D01*
X033939Y024568D01*
X033886Y024620D01*
X033846Y024620D01*
X033846Y024848D01*
X033793Y024900D01*
X033835Y024859D02*
X034417Y024859D01*
X034392Y024820D02*
X033846Y024820D01*
X033846Y024782D02*
X034366Y024782D01*
X034340Y024743D02*
X033846Y024743D01*
X033846Y024705D02*
X034315Y024705D01*
X034289Y024666D02*
X033846Y024666D01*
X033846Y024628D02*
X034263Y024628D01*
X034238Y024589D02*
X033917Y024589D01*
X033939Y024551D02*
X034212Y024551D01*
X034186Y024512D02*
X033939Y024512D01*
X033920Y024474D02*
X034161Y024474D01*
X034135Y024435D02*
X033846Y024435D01*
X033846Y024397D02*
X034109Y024397D01*
X034084Y024358D02*
X033846Y024358D01*
X033846Y024320D02*
X034058Y024320D01*
X034032Y024281D02*
X033846Y024281D01*
X033846Y024243D02*
X034030Y024243D01*
X034037Y024204D02*
X033837Y024204D01*
X033799Y024166D02*
X034084Y024166D01*
X033713Y024166D02*
X033247Y024166D01*
X033242Y024160D02*
X033294Y024213D01*
X033294Y024287D01*
X033242Y024340D01*
X033108Y024340D01*
X033108Y024848D01*
X033055Y024900D01*
X032980Y024900D01*
X032928Y024848D01*
X032741Y024661D01*
X032741Y024586D01*
X032794Y024534D01*
X032868Y024534D01*
X032928Y024593D01*
X032928Y024340D01*
X032794Y024340D01*
X032741Y024287D01*
X032741Y024213D01*
X032794Y024160D01*
X033242Y024160D01*
X033286Y024204D02*
X033674Y024204D01*
X033666Y024243D02*
X033294Y024243D01*
X033294Y024281D02*
X033666Y024281D01*
X033666Y024320D02*
X033262Y024320D01*
X033108Y024358D02*
X033666Y024358D01*
X033666Y024397D02*
X033108Y024397D01*
X033108Y024435D02*
X033666Y024435D01*
X033405Y024474D02*
X033108Y024474D01*
X033108Y024512D02*
X033385Y024512D01*
X033385Y024551D02*
X033108Y024551D01*
X033108Y024589D02*
X033407Y024589D01*
X033445Y024628D02*
X033108Y024628D01*
X033108Y024666D02*
X033484Y024666D01*
X033522Y024705D02*
X033108Y024705D01*
X033108Y024743D02*
X033561Y024743D01*
X033599Y024782D02*
X033108Y024782D01*
X033108Y024820D02*
X033638Y024820D01*
X033666Y024848D02*
X033666Y024848D01*
X033676Y024859D02*
X033097Y024859D01*
X033058Y024897D02*
X033715Y024897D01*
X032977Y024897D02*
X032507Y024897D01*
X032504Y024900D02*
X032242Y024900D01*
X032190Y024848D01*
X032096Y024754D01*
X032096Y024306D01*
X032149Y024253D01*
X032242Y024160D01*
X032317Y024160D01*
X032504Y024160D01*
X032556Y024213D01*
X032650Y024306D01*
X032650Y024754D01*
X032597Y024807D01*
X032504Y024900D01*
X032546Y024859D02*
X032939Y024859D01*
X032928Y024848D02*
X032928Y024848D01*
X032900Y024820D02*
X032584Y024820D01*
X032623Y024782D02*
X032862Y024782D01*
X032823Y024743D02*
X032650Y024743D01*
X032650Y024705D02*
X032785Y024705D01*
X032746Y024666D02*
X032650Y024666D01*
X032650Y024628D02*
X032741Y024628D01*
X032741Y024589D02*
X032650Y024589D01*
X032650Y024551D02*
X032777Y024551D01*
X032885Y024551D02*
X032928Y024551D01*
X032924Y024589D02*
X032928Y024589D01*
X032928Y024512D02*
X032650Y024512D01*
X032650Y024474D02*
X032928Y024474D01*
X032928Y024435D02*
X032650Y024435D01*
X032650Y024397D02*
X032928Y024397D01*
X032928Y024358D02*
X032650Y024358D01*
X032650Y024320D02*
X032773Y024320D01*
X032741Y024281D02*
X032625Y024281D01*
X032586Y024243D02*
X032741Y024243D01*
X032749Y024204D02*
X032548Y024204D01*
X032509Y024166D02*
X032788Y024166D01*
X032470Y024381D02*
X032429Y024340D01*
X032317Y024340D01*
X032314Y024343D01*
X032470Y024500D01*
X032470Y024381D01*
X032470Y024397D02*
X032367Y024397D01*
X032405Y024435D02*
X032470Y024435D01*
X032470Y024474D02*
X032444Y024474D01*
X032447Y024358D02*
X032328Y024358D01*
X032198Y024204D02*
X031997Y024204D01*
X032005Y024213D02*
X032005Y024287D01*
X031953Y024340D01*
X031759Y024340D01*
X031953Y024534D01*
X032005Y024586D01*
X032005Y024754D01*
X031912Y024848D01*
X031859Y024900D01*
X031598Y024900D01*
X031452Y024754D01*
X031452Y024680D01*
X031504Y024627D01*
X031579Y024627D01*
X031672Y024720D01*
X031785Y024720D01*
X031825Y024680D01*
X031825Y024661D01*
X031452Y024287D01*
X031452Y024213D01*
X031504Y024160D01*
X031579Y024160D01*
X031953Y024160D01*
X032005Y024213D01*
X032005Y024243D02*
X032160Y024243D01*
X032121Y024281D02*
X032005Y024281D01*
X031973Y024320D02*
X032096Y024320D01*
X032096Y024358D02*
X031777Y024358D01*
X031816Y024397D02*
X032096Y024397D01*
X032096Y024435D02*
X031854Y024435D01*
X031893Y024474D02*
X032096Y024474D01*
X032096Y024512D02*
X031931Y024512D01*
X031970Y024551D02*
X032096Y024551D01*
X032096Y024589D02*
X032005Y024589D01*
X032005Y024628D02*
X032096Y024628D01*
X032096Y024666D02*
X032005Y024666D01*
X032005Y024705D02*
X032096Y024705D01*
X032096Y024743D02*
X032005Y024743D01*
X031978Y024782D02*
X032124Y024782D01*
X032162Y024820D02*
X031940Y024820D01*
X031901Y024859D02*
X032201Y024859D01*
X032239Y024897D02*
X031863Y024897D01*
X031800Y024705D02*
X031657Y024705D01*
X031618Y024666D02*
X031825Y024666D01*
X031792Y024628D02*
X031580Y024628D01*
X031504Y024628D02*
X030651Y024628D01*
X030651Y024666D02*
X031465Y024666D01*
X031452Y024705D02*
X030651Y024705D01*
X030651Y024743D02*
X031452Y024743D01*
X031479Y024782D02*
X030651Y024782D01*
X030651Y024820D02*
X031517Y024820D01*
X031556Y024859D02*
X030640Y024859D01*
X030651Y024848D02*
X030598Y024900D01*
X030524Y024900D01*
X030430Y024900D01*
X030377Y024848D01*
X030377Y024773D01*
X030430Y024720D01*
X030471Y024720D01*
X030471Y024340D01*
X030430Y024340D01*
X030377Y024287D01*
X030377Y024213D01*
X030430Y024160D01*
X030692Y024160D01*
X030744Y024213D01*
X030744Y024287D01*
X030692Y024340D01*
X030651Y024340D01*
X030651Y024848D01*
X030601Y024897D02*
X031594Y024897D01*
X031754Y024589D02*
X030651Y024589D01*
X030651Y024551D02*
X031715Y024551D01*
X031677Y024512D02*
X030651Y024512D01*
X030651Y024474D02*
X031638Y024474D01*
X031600Y024435D02*
X030651Y024435D01*
X030651Y024397D02*
X031561Y024397D01*
X031523Y024358D02*
X030651Y024358D01*
X030712Y024320D02*
X031484Y024320D01*
X031452Y024281D02*
X030744Y024281D01*
X030744Y024243D02*
X031452Y024243D01*
X031460Y024204D02*
X030736Y024204D01*
X030697Y024166D02*
X031499Y024166D01*
X031958Y024166D02*
X032237Y024166D01*
X032276Y024561D02*
X032276Y024680D01*
X032317Y024720D01*
X032429Y024720D01*
X032433Y024717D01*
X032276Y024561D01*
X032276Y024589D02*
X032305Y024589D01*
X032276Y024628D02*
X032343Y024628D01*
X032382Y024666D02*
X032276Y024666D01*
X032301Y024705D02*
X032420Y024705D01*
X030471Y024705D02*
X030149Y024705D01*
X030140Y024714D02*
X029879Y024714D01*
X029826Y024661D01*
X029733Y024568D01*
X029733Y024306D01*
X029786Y024253D01*
X029879Y024160D01*
X029954Y024160D01*
X030140Y024160D01*
X030193Y024213D01*
X030193Y024287D01*
X030140Y024340D01*
X029954Y024340D01*
X029947Y024347D01*
X030234Y024347D01*
X030287Y024400D01*
X030287Y024568D01*
X030140Y024714D01*
X030188Y024666D02*
X030471Y024666D01*
X030471Y024628D02*
X030226Y024628D01*
X030265Y024589D02*
X030471Y024589D01*
X030471Y024551D02*
X030287Y024551D01*
X030287Y024512D02*
X030471Y024512D01*
X030471Y024474D02*
X030287Y024474D01*
X030287Y024435D02*
X030471Y024435D01*
X030471Y024397D02*
X030284Y024397D01*
X030245Y024358D02*
X030471Y024358D01*
X030410Y024320D02*
X030161Y024320D01*
X030193Y024281D02*
X030377Y024281D01*
X030377Y024243D02*
X030193Y024243D01*
X030185Y024204D02*
X030386Y024204D01*
X030425Y024166D02*
X030146Y024166D01*
X029873Y024166D02*
X029595Y024166D01*
X029589Y024160D02*
X029642Y024213D01*
X029642Y024568D01*
X029589Y024620D01*
X029496Y024714D01*
X029141Y024714D01*
X029088Y024661D01*
X029088Y024586D01*
X029088Y024213D01*
X029141Y024160D01*
X029216Y024160D01*
X029268Y024213D01*
X029268Y024534D01*
X029421Y024534D01*
X029462Y024493D01*
X029462Y024213D01*
X029515Y024160D01*
X029589Y024160D01*
X029633Y024204D02*
X029835Y024204D01*
X029796Y024243D02*
X029642Y024243D01*
X029642Y024281D02*
X029758Y024281D01*
X029733Y024320D02*
X029642Y024320D01*
X029642Y024358D02*
X029733Y024358D01*
X029733Y024397D02*
X029642Y024397D01*
X029642Y024435D02*
X029733Y024435D01*
X029733Y024474D02*
X029642Y024474D01*
X029642Y024512D02*
X029733Y024512D01*
X029733Y024551D02*
X029642Y024551D01*
X029620Y024589D02*
X029755Y024589D01*
X029793Y024628D02*
X029582Y024628D01*
X029543Y024666D02*
X029832Y024666D01*
X029870Y024705D02*
X029505Y024705D01*
X029443Y024512D02*
X029268Y024512D01*
X029268Y024474D02*
X029462Y024474D01*
X029462Y024435D02*
X029268Y024435D01*
X029268Y024397D02*
X029462Y024397D01*
X029462Y024358D02*
X029268Y024358D01*
X029268Y024320D02*
X029462Y024320D01*
X029462Y024281D02*
X029268Y024281D01*
X029268Y024243D02*
X029462Y024243D01*
X029471Y024204D02*
X029260Y024204D01*
X029221Y024166D02*
X029509Y024166D01*
X029135Y024166D02*
X028950Y024166D01*
X028945Y024160D02*
X028997Y024213D01*
X028997Y024568D01*
X028945Y024620D01*
X028851Y024714D01*
X028777Y024714D01*
X028590Y024714D01*
X028537Y024661D01*
X028537Y024586D01*
X028590Y024534D01*
X028777Y024534D01*
X028784Y024527D01*
X028590Y024527D01*
X028537Y024474D01*
X028444Y024381D01*
X028444Y024306D01*
X028497Y024253D01*
X028590Y024160D01*
X028945Y024160D01*
X028989Y024204D02*
X029097Y024204D01*
X029088Y024243D02*
X028997Y024243D01*
X028997Y024281D02*
X029088Y024281D01*
X029088Y024320D02*
X028997Y024320D01*
X028997Y024358D02*
X029088Y024358D01*
X029088Y024397D02*
X028997Y024397D01*
X028997Y024435D02*
X029088Y024435D01*
X029088Y024474D02*
X028997Y024474D01*
X028997Y024512D02*
X029088Y024512D01*
X029088Y024551D02*
X028997Y024551D01*
X028976Y024589D02*
X029088Y024589D01*
X029088Y024628D02*
X028937Y024628D01*
X028899Y024666D02*
X029094Y024666D01*
X029132Y024705D02*
X028860Y024705D01*
X028581Y024705D02*
X028353Y024705D01*
X028353Y024743D02*
X030407Y024743D01*
X030377Y024782D02*
X028326Y024782D01*
X028300Y024807D02*
X028207Y024900D01*
X027852Y024900D01*
X027799Y024848D01*
X027799Y024400D01*
X027799Y024213D01*
X027852Y024160D01*
X027927Y024160D01*
X027979Y024213D01*
X027979Y024347D01*
X028207Y024347D01*
X028259Y024400D01*
X028353Y024493D01*
X028353Y024754D01*
X028300Y024807D01*
X028287Y024820D02*
X030377Y024820D01*
X030388Y024859D02*
X028249Y024859D01*
X028210Y024897D02*
X030427Y024897D01*
X030066Y024534D02*
X030073Y024527D01*
X029947Y024527D01*
X029954Y024534D01*
X030066Y024534D01*
X028817Y024347D02*
X028817Y024340D01*
X028664Y024340D01*
X028661Y024343D01*
X028664Y024347D01*
X028817Y024347D01*
X028575Y024512D02*
X028353Y024512D01*
X028353Y024551D02*
X028573Y024551D01*
X028537Y024589D02*
X028353Y024589D01*
X028353Y024628D02*
X028537Y024628D01*
X028542Y024666D02*
X028353Y024666D01*
X028173Y024666D02*
X027979Y024666D01*
X027979Y024628D02*
X028173Y024628D01*
X028173Y024589D02*
X027979Y024589D01*
X027979Y024551D02*
X028156Y024551D01*
X028173Y024568D02*
X028132Y024527D01*
X027979Y024527D01*
X027979Y024720D01*
X028132Y024720D01*
X028173Y024680D01*
X028173Y024568D01*
X028148Y024705D02*
X027979Y024705D01*
X027799Y024705D02*
X027064Y024705D01*
X027064Y024743D02*
X027799Y024743D01*
X027799Y024782D02*
X027036Y024782D01*
X027064Y024754D02*
X026970Y024848D01*
X026918Y024900D01*
X026563Y024900D01*
X026510Y024848D01*
X026510Y024773D01*
X026510Y024287D01*
X026510Y024213D01*
X026563Y024160D01*
X026918Y024160D01*
X027011Y024253D01*
X027064Y024306D01*
X027064Y024754D01*
X027064Y024666D02*
X027799Y024666D01*
X027799Y024628D02*
X027064Y024628D01*
X027064Y024589D02*
X027799Y024589D01*
X027799Y024551D02*
X027064Y024551D01*
X027064Y024512D02*
X027799Y024512D01*
X027799Y024474D02*
X027064Y024474D01*
X027064Y024435D02*
X027799Y024435D01*
X027799Y024397D02*
X027064Y024397D01*
X027064Y024358D02*
X027799Y024358D01*
X027799Y024320D02*
X027064Y024320D01*
X027039Y024281D02*
X027799Y024281D01*
X027799Y024243D02*
X027000Y024243D01*
X026962Y024204D02*
X027808Y024204D01*
X027846Y024166D02*
X026923Y024166D01*
X026843Y024340D02*
X026690Y024340D01*
X026690Y024720D01*
X026843Y024720D01*
X026884Y024680D01*
X026884Y024381D01*
X026843Y024340D01*
X026861Y024358D02*
X026690Y024358D01*
X026690Y024397D02*
X026884Y024397D01*
X026884Y024435D02*
X026690Y024435D01*
X026690Y024474D02*
X026884Y024474D01*
X026884Y024512D02*
X026690Y024512D01*
X026690Y024551D02*
X026884Y024551D01*
X026884Y024589D02*
X026690Y024589D01*
X026690Y024628D02*
X026884Y024628D01*
X026884Y024666D02*
X026690Y024666D01*
X026690Y024705D02*
X026859Y024705D01*
X026998Y024820D02*
X027799Y024820D01*
X027810Y024859D02*
X026959Y024859D01*
X026921Y024897D02*
X027849Y024897D01*
X027979Y024320D02*
X028444Y024320D01*
X028444Y024358D02*
X028218Y024358D01*
X028257Y024397D02*
X028460Y024397D01*
X028498Y024435D02*
X028295Y024435D01*
X028334Y024474D02*
X028537Y024474D01*
X028469Y024281D02*
X027979Y024281D01*
X027979Y024243D02*
X028507Y024243D01*
X028546Y024204D02*
X027971Y024204D01*
X027932Y024166D02*
X028584Y024166D01*
X026557Y024166D02*
X026279Y024166D01*
X026273Y024160D02*
X026419Y024306D01*
X026419Y024381D01*
X026367Y024433D01*
X026292Y024433D01*
X026199Y024340D01*
X026086Y024340D01*
X026046Y024381D01*
X026046Y024680D01*
X026086Y024720D01*
X026199Y024720D01*
X026292Y024627D01*
X026367Y024627D01*
X026419Y024680D01*
X026419Y024754D01*
X026326Y024848D01*
X026273Y024900D01*
X026012Y024900D01*
X025918Y024807D01*
X025866Y024754D01*
X025866Y024306D01*
X025959Y024213D01*
X026012Y024160D01*
X026273Y024160D01*
X026317Y024204D02*
X026519Y024204D01*
X026510Y024243D02*
X026356Y024243D01*
X026394Y024281D02*
X026510Y024281D01*
X026510Y024320D02*
X026419Y024320D01*
X026419Y024358D02*
X026510Y024358D01*
X026510Y024397D02*
X026403Y024397D01*
X026510Y024435D02*
X026046Y024435D01*
X026046Y024397D02*
X026255Y024397D01*
X026217Y024358D02*
X026068Y024358D01*
X026046Y024474D02*
X026510Y024474D01*
X026510Y024512D02*
X026046Y024512D01*
X026046Y024551D02*
X026510Y024551D01*
X026510Y024589D02*
X026046Y024589D01*
X026046Y024628D02*
X026291Y024628D01*
X026253Y024666D02*
X026046Y024666D01*
X026070Y024705D02*
X026214Y024705D01*
X026367Y024628D02*
X026510Y024628D01*
X026510Y024666D02*
X026406Y024666D01*
X026419Y024705D02*
X026510Y024705D01*
X026510Y024743D02*
X026419Y024743D01*
X026392Y024782D02*
X026510Y024782D01*
X026510Y024820D02*
X026353Y024820D01*
X026326Y024848D02*
X026326Y024848D01*
X026315Y024859D02*
X026521Y024859D01*
X026560Y024897D02*
X026276Y024897D01*
X026008Y024897D02*
X025352Y024897D01*
X025348Y024900D02*
X025274Y024900D01*
X025221Y024848D01*
X025221Y024213D01*
X025274Y024160D01*
X025722Y024160D01*
X025775Y024213D01*
X025775Y024287D01*
X025722Y024340D01*
X025401Y024340D01*
X025401Y024848D01*
X025348Y024900D01*
X025390Y024859D02*
X025970Y024859D01*
X025931Y024820D02*
X025401Y024820D01*
X025401Y024782D02*
X025893Y024782D01*
X025866Y024743D02*
X025401Y024743D01*
X025401Y024705D02*
X025866Y024705D01*
X025866Y024666D02*
X025401Y024666D01*
X025401Y024628D02*
X025866Y024628D01*
X025866Y024589D02*
X025401Y024589D01*
X025401Y024551D02*
X025866Y024551D01*
X025866Y024512D02*
X025401Y024512D01*
X025401Y024474D02*
X025866Y024474D01*
X025866Y024435D02*
X025401Y024435D01*
X025401Y024397D02*
X025866Y024397D01*
X025866Y024358D02*
X025401Y024358D01*
X025221Y024358D02*
X024486Y024358D01*
X024486Y024320D02*
X025221Y024320D01*
X025221Y024281D02*
X024486Y024281D01*
X024486Y024243D02*
X025221Y024243D01*
X025230Y024204D02*
X024477Y024204D01*
X024486Y024213D02*
X024486Y024661D01*
X024486Y024848D01*
X024433Y024900D01*
X024358Y024900D01*
X024306Y024848D01*
X024306Y024714D01*
X024078Y024714D01*
X024025Y024661D01*
X023932Y024568D01*
X023932Y024306D01*
X023985Y024253D01*
X024078Y024160D01*
X024433Y024160D01*
X024486Y024213D01*
X024439Y024166D02*
X025268Y024166D01*
X025221Y024397D02*
X024486Y024397D01*
X024486Y024435D02*
X025221Y024435D01*
X025221Y024474D02*
X024486Y024474D01*
X024486Y024512D02*
X025221Y024512D01*
X025221Y024551D02*
X024486Y024551D01*
X024486Y024589D02*
X025221Y024589D01*
X025221Y024628D02*
X024486Y024628D01*
X024486Y024666D02*
X025221Y024666D01*
X025221Y024705D02*
X024486Y024705D01*
X024486Y024743D02*
X025221Y024743D01*
X025221Y024782D02*
X024486Y024782D01*
X024486Y024820D02*
X025221Y024820D01*
X025232Y024859D02*
X024475Y024859D01*
X024436Y024897D02*
X025270Y024897D01*
X025742Y024320D02*
X025866Y024320D01*
X025891Y024281D02*
X025775Y024281D01*
X025775Y024243D02*
X025929Y024243D01*
X025968Y024204D02*
X025766Y024204D01*
X025728Y024166D02*
X026006Y024166D01*
X024306Y024340D02*
X024306Y024534D01*
X024153Y024534D01*
X024112Y024493D01*
X024112Y024381D01*
X024153Y024340D01*
X024306Y024340D01*
X024306Y024358D02*
X024134Y024358D01*
X024112Y024397D02*
X024306Y024397D01*
X024306Y024435D02*
X024112Y024435D01*
X024112Y024474D02*
X024306Y024474D01*
X024306Y024512D02*
X024131Y024512D01*
X023992Y024628D02*
X023776Y024628D01*
X023776Y024661D02*
X023723Y024714D01*
X023648Y024714D01*
X023555Y024714D01*
X023502Y024661D01*
X023502Y024586D01*
X023555Y024534D01*
X023596Y024534D01*
X023596Y024340D01*
X023555Y024340D01*
X023502Y024287D01*
X023502Y024213D01*
X023555Y024160D01*
X023816Y024160D01*
X023869Y024213D01*
X023869Y024287D01*
X023816Y024340D01*
X023776Y024340D01*
X023776Y024661D01*
X023770Y024666D02*
X024031Y024666D01*
X024069Y024705D02*
X023732Y024705D01*
X023746Y024743D02*
X024306Y024743D01*
X024306Y024782D02*
X023776Y024782D01*
X023776Y024820D02*
X024306Y024820D01*
X024316Y024859D02*
X023776Y024859D01*
X023776Y024897D02*
X024355Y024897D01*
X023954Y024589D02*
X023776Y024589D01*
X023776Y024551D02*
X023932Y024551D01*
X023932Y024512D02*
X023776Y024512D01*
X023776Y024474D02*
X023932Y024474D01*
X023932Y024435D02*
X023776Y024435D01*
X023776Y024397D02*
X023932Y024397D01*
X023932Y024358D02*
X023776Y024358D01*
X023837Y024320D02*
X023932Y024320D01*
X023957Y024281D02*
X023869Y024281D01*
X023869Y024243D02*
X023995Y024243D01*
X024034Y024204D02*
X023860Y024204D01*
X023822Y024166D02*
X024072Y024166D01*
X023596Y024358D02*
X023411Y024358D01*
X023411Y024320D02*
X023535Y024320D01*
X023502Y024281D02*
X023411Y024281D01*
X023411Y024243D02*
X023502Y024243D01*
X023511Y024204D02*
X023403Y024204D01*
X023411Y024213D02*
X023411Y024568D01*
X023359Y024620D01*
X023265Y024714D01*
X023191Y024714D01*
X023004Y024714D01*
X022951Y024661D01*
X022951Y024586D01*
X023004Y024534D01*
X023191Y024534D01*
X023197Y024527D01*
X023004Y024527D01*
X022951Y024474D01*
X022858Y024381D01*
X022858Y024306D01*
X022910Y024253D01*
X023004Y024160D01*
X023359Y024160D01*
X023411Y024213D01*
X023364Y024166D02*
X023549Y024166D01*
X023596Y024397D02*
X023411Y024397D01*
X023411Y024435D02*
X023596Y024435D01*
X023596Y024474D02*
X023411Y024474D01*
X023411Y024512D02*
X023596Y024512D01*
X023538Y024551D02*
X023411Y024551D01*
X023390Y024589D02*
X023502Y024589D01*
X023502Y024628D02*
X023351Y024628D01*
X023313Y024666D02*
X023507Y024666D01*
X023546Y024705D02*
X023274Y024705D01*
X022995Y024705D02*
X022723Y024705D01*
X022714Y024714D02*
X022640Y024714D01*
X022266Y024714D01*
X022213Y024661D01*
X022213Y024586D01*
X022266Y024534D01*
X022460Y024534D01*
X022266Y024340D01*
X022213Y024287D01*
X022213Y024213D01*
X022266Y024160D01*
X022714Y024160D01*
X022767Y024213D01*
X022767Y024287D01*
X022714Y024340D01*
X022520Y024340D01*
X022767Y024586D01*
X022767Y024661D01*
X022714Y024714D01*
X022762Y024666D02*
X022956Y024666D01*
X022951Y024628D02*
X022767Y024628D01*
X022767Y024589D02*
X022951Y024589D01*
X022987Y024551D02*
X022731Y024551D01*
X022693Y024512D02*
X022989Y024512D01*
X022951Y024474D02*
X022654Y024474D01*
X022616Y024435D02*
X022912Y024435D01*
X022874Y024397D02*
X022577Y024397D01*
X022539Y024358D02*
X022858Y024358D01*
X022858Y024320D02*
X022734Y024320D01*
X022767Y024281D02*
X022883Y024281D01*
X022921Y024243D02*
X022767Y024243D01*
X022758Y024204D02*
X022960Y024204D01*
X022998Y024166D02*
X022720Y024166D01*
X023075Y024343D02*
X023078Y024347D01*
X023231Y024347D01*
X023231Y024340D01*
X023078Y024340D01*
X023075Y024343D01*
X023626Y024743D02*
X022027Y024743D01*
X022013Y024705D02*
X022257Y024705D01*
X022218Y024666D02*
X022052Y024666D01*
X022057Y024628D02*
X022213Y024628D01*
X022213Y024589D02*
X022057Y024589D01*
X022057Y024551D02*
X022249Y024551D01*
X022361Y024435D02*
X022057Y024435D01*
X022057Y024397D02*
X022323Y024397D01*
X022284Y024358D02*
X022057Y024358D01*
X022118Y024320D02*
X022246Y024320D01*
X022213Y024281D02*
X022150Y024281D01*
X022150Y024243D02*
X022213Y024243D01*
X022222Y024204D02*
X022142Y024204D01*
X022103Y024166D02*
X022260Y024166D01*
X022400Y024474D02*
X022057Y024474D01*
X022057Y024512D02*
X022438Y024512D01*
X022057Y024782D02*
X023596Y024782D01*
X023596Y024820D02*
X022057Y024820D01*
X022057Y024859D02*
X023596Y024859D01*
X023596Y024897D02*
X022057Y024897D01*
X022057Y024936D02*
X023596Y024936D01*
X023629Y024974D02*
X022024Y024974D01*
M02*
