%
M48
M72
T01C0.0236
T02C0.0315
T03C0.0394
T04C0.0400
T05C0.0472
T06C0.0709
T07C0.0787
T08C0.1083
T09C0.1102
T10C0.1260
%
T01
X2094Y3108
X1700Y4486
X5243Y2715
X9574Y6258
X12133Y9211
X12133Y12163
X12133Y15510
X8393Y16888
X6227Y19053
X1700Y20431
X1897Y23384
X12133Y23581
X15282Y23581
X20204Y23581
X24928Y23581
X29849Y23581
X33983Y18659
X31227Y17085
X31227Y16494
X31621Y14722
X29062Y13935
X26901Y14459
X24527Y14415
X24534Y12073
X25716Y12081
X26897Y12081
X28074Y12073
X29062Y11770
X30046Y10785
X27684Y8226
X26015Y8242
X24034Y8195
X27684Y5470
X32605Y8226
X33983Y6652
X23349Y12187
X22176Y11911
X20991Y12092
X19023Y13344
X18625Y12608
X17842Y11376
X19377Y8230
X19779Y7010
X19023Y16100
X19023Y16691
X23353Y18266
X28275Y18266
X28668Y16297
X12133Y18659
X1700Y15903
X1700Y11966
X5243Y9407
X1700Y8226
T02
X21779Y7852
X21779Y10852
X23286Y10860
X24534Y20218
X24534Y21218
X24534Y22218
X26503Y22218
X26503Y21218
X26503Y20218
X28471Y20218
X28471Y21218
X28471Y22218
X30440Y22218
X30440Y21218
X30440Y20218
T03
X32786Y15557
X32786Y14557
X33786Y14557
X33786Y15557
X33786Y13557
X32786Y13557
X32786Y12557
X32786Y11557
X33786Y11557
X33786Y12557
X33786Y10557
X32786Y10557
X32786Y9557
X33786Y9557
X25279Y6002
X24279Y6002
X24279Y5002
X25279Y5002
X23279Y5002
X23279Y6002
X22279Y6002
X21279Y6002
X21279Y5002
X22279Y5002
X20279Y5002
X20279Y6002
X19279Y6002
X18279Y6002
X18279Y5002
X19279Y5002
X17279Y5002
X17279Y6002
X16279Y6002
X15279Y6002
X15279Y5002
X16279Y5002
X14279Y5002
X13279Y5002
X13279Y6002
X14279Y6002
X12279Y6002
X12279Y5002
X10861Y7876
X9861Y7876
X9861Y8876
X10861Y8876
X10861Y9876
X9861Y9876
X9861Y10876
X10861Y10876
X10861Y11876
X9861Y11876
X9861Y12876
X10861Y12876
X10861Y13876
X9861Y13876
X9861Y14876
X10861Y14876
X10861Y15876
X9861Y15876
X9861Y16876
X10861Y16876
X10861Y17876
X9861Y17876
X9861Y18876
X10861Y18876
X10861Y19876
X9861Y19876
X9861Y20876
X10861Y20876
X12475Y20222
X12475Y22222
X15475Y22222
X16204Y21671
X16200Y20754
X15475Y20222
X16200Y18754
X19200Y18754
X20023Y20246
X19200Y20754
X19204Y21671
X20023Y22246
X19204Y23671
X16204Y23671
X23023Y22246
X23023Y20246
T04
X23279Y4002
X24279Y4002
X25279Y4002
X26279Y4002
X27279Y4002
X28279Y4002
X29279Y4002
X30279Y4002
X31279Y4002
X31279Y3002
X30279Y3002
X29279Y3002
X28279Y3002
X27279Y3002
X26279Y3002
X25279Y3002
X24279Y3002
X23279Y3002
X22279Y3002
X21279Y3002
X20279Y3002
X19279Y3002
X18279Y3002
X17279Y3002
X16279Y3002
X15279Y3002
X14279Y3002
X13279Y3002
X12279Y3002
X12279Y4002
X13279Y4002
X14279Y4002
X15279Y4002
X16279Y4002
X17279Y4002
X18279Y4002
X19279Y4002
X20279Y4002
X21279Y4002
X22279Y4002
T05
X32822Y18943
X33822Y20943
X31822Y20943
T06
X6424Y15502
X6424Y13943
X6424Y11959
X6424Y10400
X6424Y8415
X6424Y6856
X6424Y4872
X6424Y3313
T07
X1897Y17281
X33786Y17281
X33786Y7833
T08
X33196Y3502
X10361Y3502
X10361Y22793
X33196Y22793
T09
X4869Y19250
X3471Y21218
T10
X6227Y21218
M30
