%
M48
M72
T01C0.0236
T02C0.0315
T03C0.0320
T04C0.0360
T05C0.0394
T06C0.0472
T07C0.1260
%
T01
X17409Y12180
X18909Y16180
X17659Y21930
X28909Y15180
X30409Y10180
X20409Y4180
T02
X21409Y4180
X21409Y3180
X21409Y5180
X24909Y5180
X24909Y4180
X24909Y3180
X28409Y3180
X28409Y4180
X28409Y5180
X31909Y5180
X31909Y4180
X31909Y3180
X36409Y4180
X36409Y7180
X37909Y11680
X38909Y11680
X38909Y12680
X37909Y12680
X37909Y13680
X38909Y13680
X38909Y14680
X37909Y14680
X37909Y15680
X38909Y15680
X38909Y16680
X37909Y16680
X37909Y17680
X38909Y17680
X8409Y17223
X8409Y16436
X8409Y15649
X8409Y14861
X8409Y14074
X8409Y13286
X8409Y12499
X8409Y11711
X8409Y10924
X8409Y10137
T03
X18909Y12180
X19909Y12180
X20909Y12180
X21909Y12180
X22909Y12180
X23909Y12180
X24909Y12180
X25909Y12180
X26909Y12180
X27909Y12180
X27909Y15180
X26909Y15180
X25909Y15180
X24909Y15180
X23909Y15180
X22909Y15180
X21909Y15180
X20909Y15180
X19909Y15180
X18909Y15180
T04
X14909Y22180
X13909Y22180
X12909Y22180
X12909Y23180
X13909Y23180
X14909Y23180
T05
X15909Y7680
X13909Y7680
X12909Y5180
X13909Y4680
X13909Y3680
X12909Y3180
X15909Y3680
X16909Y3180
X15909Y4680
X16909Y5180
X19909Y5180
X19909Y3180
X15909Y680
X13909Y680
X9909Y3180
X9909Y5180
T06
X33909Y21180
X34909Y23180
X32909Y23180
T07
X7877Y2149
X39373Y2149
X39373Y23802
X7877Y23802
M30
