G75*
%MOIN*%
%OFA0B0*%
%FSLAX24Y24*%
%IPPOS*%
%LPD*%
%AMOC8*
5,1,8,0,0,1.08239X$1,22.5*
%
%ADD10C,0.0140*%
%ADD11C,0.0039*%
%ADD12C,0.0050*%
%ADD13C,0.0030*%
%ADD14C,0.0040*%
%ADD15C,0.0060*%
%ADD16C,0.0100*%
D10*
X012461Y014840D02*
X012461Y015400D01*
X012741Y015400D01*
X012834Y015307D01*
X012834Y015120D01*
X012741Y015026D01*
X012461Y015026D01*
X013105Y014840D02*
X013292Y014840D01*
X013199Y014840D02*
X013199Y015213D01*
X013105Y015213D01*
X013199Y015400D02*
X013199Y015494D01*
X013535Y015213D02*
X013909Y015213D01*
X013535Y014840D01*
X013909Y014840D01*
X014180Y014933D02*
X014273Y015026D01*
X014553Y015026D01*
X014553Y015120D02*
X014553Y014840D01*
X014273Y014840D01*
X014180Y014933D01*
X014273Y015213D02*
X014460Y015213D01*
X014553Y015120D01*
X014824Y015213D02*
X014918Y015213D01*
X014918Y014840D01*
X015011Y014840D02*
X014824Y014840D01*
X015254Y014933D02*
X015254Y015120D01*
X015347Y015213D01*
X015627Y015213D01*
X015627Y015400D02*
X015627Y014840D01*
X015347Y014840D01*
X015254Y014933D01*
X014918Y015400D02*
X014918Y015494D01*
X016543Y015400D02*
X016543Y014840D01*
X016917Y014840D01*
X017187Y014933D02*
X017187Y015307D01*
X017281Y015400D01*
X017468Y015400D01*
X017561Y015307D01*
X017832Y015400D02*
X017832Y014840D01*
X018112Y014840D01*
X018206Y014933D01*
X018206Y015307D01*
X018112Y015400D01*
X017832Y015400D01*
X017561Y014933D02*
X017468Y014840D01*
X017281Y014840D01*
X017187Y014933D01*
X019121Y014840D02*
X019121Y015400D01*
X019401Y015400D01*
X019495Y015307D01*
X019495Y015120D01*
X019401Y015026D01*
X019121Y015026D01*
X019766Y014933D02*
X019859Y015026D01*
X020139Y015026D01*
X020139Y015120D02*
X020139Y014840D01*
X019859Y014840D01*
X019766Y014933D01*
X019859Y015213D02*
X020046Y015213D01*
X020139Y015120D01*
X020410Y015213D02*
X020690Y015213D01*
X020784Y015120D01*
X020784Y014840D01*
X021055Y014933D02*
X021055Y015120D01*
X021148Y015213D01*
X021335Y015213D01*
X021428Y015120D01*
X021428Y015026D01*
X021055Y015026D01*
X021055Y014933D02*
X021148Y014840D01*
X021335Y014840D01*
X021699Y014840D02*
X021886Y014840D01*
X021793Y014840D02*
X021793Y015400D01*
X021699Y015400D01*
X022774Y015307D02*
X022867Y015400D01*
X023054Y015400D01*
X023147Y015307D01*
X023147Y015213D01*
X022774Y014840D01*
X023147Y014840D01*
X023418Y014933D02*
X023792Y015307D01*
X023792Y014933D01*
X023698Y014840D01*
X023512Y014840D01*
X023418Y014933D01*
X023418Y015307D01*
X023512Y015400D01*
X023698Y015400D01*
X023792Y015307D01*
X024063Y015213D02*
X024249Y015400D01*
X024249Y014840D01*
X024063Y014840D02*
X024436Y014840D01*
X024707Y015120D02*
X025081Y015120D01*
X024987Y014840D02*
X024987Y015400D01*
X024707Y015120D01*
X025352Y014840D02*
X025725Y015400D01*
X025996Y015213D02*
X026183Y015400D01*
X026183Y014840D01*
X025996Y014840D02*
X026370Y014840D01*
X026641Y014933D02*
X026641Y015307D01*
X026734Y015400D01*
X026921Y015400D01*
X027014Y015307D01*
X026641Y014933D01*
X026734Y014840D01*
X026921Y014840D01*
X027014Y014933D01*
X027014Y015307D01*
X027285Y014840D02*
X027659Y015400D01*
X027930Y015307D02*
X028023Y015400D01*
X028210Y015400D01*
X028304Y015307D01*
X027930Y014933D01*
X028023Y014840D01*
X028210Y014840D01*
X028304Y014933D01*
X028304Y015307D01*
X028574Y015213D02*
X028761Y015400D01*
X028761Y014840D01*
X028574Y014840D02*
X028948Y014840D01*
X027930Y014933D02*
X027930Y015307D01*
X020410Y015213D02*
X020410Y014840D01*
D11*
X033393Y002124D02*
X002290Y002124D01*
X002224Y002126D01*
X002158Y002131D01*
X002092Y002141D01*
X002027Y002154D01*
X001963Y002170D01*
X001900Y002190D01*
X001838Y002214D01*
X001778Y002241D01*
X001719Y002271D01*
X001662Y002305D01*
X001607Y002342D01*
X001554Y002382D01*
X001503Y002424D01*
X001455Y002470D01*
X001409Y002518D01*
X001367Y002569D01*
X001327Y002622D01*
X001290Y002677D01*
X001256Y002734D01*
X001226Y002793D01*
X001199Y002853D01*
X001175Y002915D01*
X001155Y002978D01*
X001139Y003042D01*
X001126Y003107D01*
X001116Y003173D01*
X001111Y003239D01*
X001109Y003305D01*
X001109Y022990D01*
X001111Y023056D01*
X001116Y023122D01*
X001126Y023188D01*
X001139Y023253D01*
X001155Y023317D01*
X001175Y023380D01*
X001199Y023442D01*
X001226Y023502D01*
X001256Y023561D01*
X001290Y023618D01*
X001327Y023673D01*
X001367Y023726D01*
X001409Y023777D01*
X001455Y023825D01*
X001503Y023871D01*
X001554Y023913D01*
X001607Y023953D01*
X001662Y023990D01*
X001719Y024024D01*
X001778Y024054D01*
X001838Y024081D01*
X001900Y024105D01*
X001963Y024125D01*
X002027Y024141D01*
X002092Y024154D01*
X002158Y024164D01*
X002224Y024169D01*
X002290Y024171D01*
X033393Y024171D01*
X033459Y024169D01*
X033525Y024164D01*
X033591Y024154D01*
X033656Y024141D01*
X033720Y024125D01*
X033783Y024105D01*
X033845Y024081D01*
X033905Y024054D01*
X033964Y024024D01*
X034021Y023990D01*
X034076Y023953D01*
X034129Y023913D01*
X034180Y023871D01*
X034228Y023825D01*
X034274Y023777D01*
X034316Y023726D01*
X034356Y023673D01*
X034393Y023618D01*
X034427Y023561D01*
X034457Y023502D01*
X034484Y023442D01*
X034508Y023380D01*
X034528Y023317D01*
X034544Y023253D01*
X034557Y023188D01*
X034567Y023122D01*
X034572Y023056D01*
X034574Y022990D01*
X034574Y003305D01*
X034572Y003239D01*
X034567Y003173D01*
X034557Y003107D01*
X034544Y003042D01*
X034528Y002978D01*
X034508Y002915D01*
X034484Y002853D01*
X034457Y002793D01*
X034427Y002734D01*
X034393Y002677D01*
X034356Y002622D01*
X034316Y002569D01*
X034274Y002518D01*
X034228Y002470D01*
X034180Y002424D01*
X034129Y002382D01*
X034076Y002342D01*
X034021Y002305D01*
X033964Y002271D01*
X033905Y002241D01*
X033845Y002214D01*
X033783Y002190D01*
X033720Y002170D01*
X033656Y002154D01*
X033591Y002141D01*
X033525Y002131D01*
X033459Y002126D01*
X033393Y002124D01*
D12*
X032528Y004905D02*
X032378Y004905D01*
X032303Y004980D01*
X032303Y005055D01*
X032378Y005130D01*
X032528Y005130D01*
X032604Y005055D01*
X032604Y004980D01*
X032528Y004905D01*
X032528Y005130D02*
X032604Y005205D01*
X032604Y005280D01*
X032528Y005355D01*
X032378Y005355D01*
X032303Y005280D01*
X032303Y005205D01*
X032378Y005130D01*
X032143Y005355D02*
X031993Y005355D01*
X032068Y005355D02*
X032068Y004980D01*
X031993Y004905D01*
X031918Y004905D01*
X031843Y004980D01*
X031322Y004708D02*
X031022Y004708D01*
X031172Y004708D02*
X031172Y005158D01*
X031022Y005008D01*
X026631Y004708D02*
X026331Y004708D01*
X026481Y004708D02*
X026481Y005158D01*
X026331Y005008D01*
X026171Y004708D02*
X025871Y004708D01*
X026021Y004708D02*
X026021Y005158D01*
X025871Y005008D01*
X025779Y004502D02*
X025779Y006502D01*
X011779Y006502D01*
X011779Y004502D01*
X025779Y004502D01*
X022369Y003502D02*
X021188Y003502D01*
X021779Y002911D02*
X021779Y004092D01*
X021513Y004708D02*
X021213Y004708D01*
X021363Y004708D02*
X021363Y005158D01*
X021213Y005008D01*
X021053Y005008D02*
X021053Y005083D01*
X020978Y005158D01*
X020828Y005158D01*
X020753Y005083D01*
X021053Y005008D02*
X020753Y004708D01*
X021053Y004708D01*
X016592Y004708D02*
X016292Y004708D01*
X016442Y004708D02*
X016442Y005158D01*
X016292Y005008D01*
X016132Y005008D02*
X016057Y004933D01*
X016132Y004858D01*
X016132Y004783D01*
X016057Y004708D01*
X015906Y004708D01*
X015831Y004783D01*
X015981Y004933D02*
X016057Y004933D01*
X016132Y005008D02*
X016132Y005083D01*
X016057Y005158D01*
X015906Y005158D01*
X015831Y005083D01*
X012458Y005083D02*
X012458Y004783D01*
X012383Y004708D01*
X012233Y004708D01*
X012158Y004783D01*
X011998Y004783D02*
X011923Y004708D01*
X011773Y004708D01*
X011697Y004783D01*
X011848Y004933D02*
X011923Y004933D01*
X011998Y004858D01*
X011998Y004783D01*
X011923Y004933D02*
X011998Y005008D01*
X011998Y005083D01*
X011923Y005158D01*
X011773Y005158D01*
X011697Y005083D01*
X012158Y005083D02*
X012158Y005008D01*
X012233Y004933D01*
X012458Y004933D01*
X012458Y005083D02*
X012383Y005158D01*
X012233Y005158D01*
X012158Y005083D01*
X011361Y007376D02*
X009361Y007376D01*
X009361Y021376D01*
X011361Y021376D01*
X011361Y007376D01*
X018826Y009352D02*
X018828Y009460D01*
X018834Y009569D01*
X018844Y009677D01*
X018858Y009784D01*
X018876Y009891D01*
X018897Y009998D01*
X018923Y010103D01*
X018953Y010208D01*
X018986Y010311D01*
X019023Y010413D01*
X019064Y010513D01*
X019108Y010612D01*
X019157Y010710D01*
X019208Y010805D01*
X019263Y010898D01*
X019322Y010990D01*
X019384Y011079D01*
X019449Y011166D01*
X019517Y011250D01*
X019588Y011332D01*
X019662Y011411D01*
X019739Y011487D01*
X019819Y011561D01*
X019902Y011631D01*
X019987Y011699D01*
X020074Y011763D01*
X020164Y011824D01*
X020256Y011882D01*
X020350Y011936D01*
X020446Y011987D01*
X020543Y012034D01*
X020643Y012078D01*
X020744Y012118D01*
X020846Y012154D01*
X020949Y012186D01*
X021054Y012215D01*
X021160Y012239D01*
X021266Y012260D01*
X021373Y012277D01*
X021481Y012290D01*
X021589Y012299D01*
X021698Y012304D01*
X021806Y012305D01*
X021915Y012302D01*
X022023Y012295D01*
X022131Y012284D01*
X022238Y012269D01*
X022345Y012250D01*
X022451Y012227D01*
X022556Y012201D01*
X022661Y012170D01*
X022763Y012136D01*
X022865Y012098D01*
X022965Y012056D01*
X023064Y012011D01*
X023161Y011962D01*
X023255Y011909D01*
X023348Y011853D01*
X023439Y011794D01*
X023528Y011731D01*
X023614Y011666D01*
X023698Y011597D01*
X023779Y011525D01*
X023857Y011450D01*
X023933Y011372D01*
X024006Y011291D01*
X024076Y011208D01*
X024142Y011123D01*
X024206Y011035D01*
X024266Y010944D01*
X024323Y010852D01*
X024376Y010757D01*
X024426Y010661D01*
X024472Y010563D01*
X024515Y010463D01*
X024554Y010362D01*
X024589Y010259D01*
X024621Y010156D01*
X024648Y010051D01*
X024672Y009945D01*
X024692Y009838D01*
X024708Y009731D01*
X024720Y009623D01*
X024728Y009515D01*
X024732Y009406D01*
X024732Y009298D01*
X024728Y009189D01*
X024720Y009081D01*
X024708Y008973D01*
X024692Y008866D01*
X024672Y008759D01*
X024648Y008653D01*
X024621Y008548D01*
X024589Y008445D01*
X024554Y008342D01*
X024515Y008241D01*
X024472Y008141D01*
X024426Y008043D01*
X024376Y007947D01*
X024323Y007852D01*
X024266Y007760D01*
X024206Y007669D01*
X024142Y007581D01*
X024076Y007496D01*
X024006Y007413D01*
X023933Y007332D01*
X023857Y007254D01*
X023779Y007179D01*
X023698Y007107D01*
X023614Y007038D01*
X023528Y006973D01*
X023439Y006910D01*
X023348Y006851D01*
X023256Y006795D01*
X023161Y006742D01*
X023064Y006693D01*
X022965Y006648D01*
X022865Y006606D01*
X022763Y006568D01*
X022661Y006534D01*
X022556Y006503D01*
X022451Y006477D01*
X022345Y006454D01*
X022238Y006435D01*
X022131Y006420D01*
X022023Y006409D01*
X021915Y006402D01*
X021806Y006399D01*
X021698Y006400D01*
X021589Y006405D01*
X021481Y006414D01*
X021373Y006427D01*
X021266Y006444D01*
X021160Y006465D01*
X021054Y006489D01*
X020949Y006518D01*
X020846Y006550D01*
X020744Y006586D01*
X020643Y006626D01*
X020543Y006670D01*
X020446Y006717D01*
X020350Y006768D01*
X020256Y006822D01*
X020164Y006880D01*
X020074Y006941D01*
X019987Y007005D01*
X019902Y007073D01*
X019819Y007143D01*
X019739Y007217D01*
X019662Y007293D01*
X019588Y007372D01*
X019517Y007454D01*
X019449Y007538D01*
X019384Y007625D01*
X019322Y007714D01*
X019263Y007806D01*
X019208Y007899D01*
X019157Y007994D01*
X019108Y008092D01*
X019064Y008191D01*
X019023Y008291D01*
X018986Y008393D01*
X018953Y008496D01*
X018923Y008601D01*
X018897Y008706D01*
X018876Y008813D01*
X018858Y008920D01*
X018844Y009027D01*
X018834Y009135D01*
X018828Y009244D01*
X018826Y009352D01*
X022779Y010852D02*
X023279Y010852D01*
X023029Y011102D02*
X023029Y010602D01*
X023308Y014247D02*
X023308Y014698D01*
X023534Y014698D01*
X023609Y014623D01*
X023609Y014473D01*
X023534Y014398D01*
X023308Y014398D01*
X023769Y014322D02*
X023844Y014247D01*
X023994Y014247D01*
X024069Y014322D01*
X024229Y014247D02*
X024454Y014247D01*
X024529Y014322D01*
X024529Y014398D01*
X024454Y014473D01*
X024229Y014473D01*
X024069Y014623D02*
X023994Y014698D01*
X023844Y014698D01*
X023769Y014623D01*
X023769Y014322D01*
X024229Y014247D02*
X024229Y014698D01*
X024454Y014698D01*
X024529Y014623D01*
X024529Y014548D01*
X024454Y014473D01*
X024690Y014548D02*
X024840Y014698D01*
X024840Y014247D01*
X024690Y014247D02*
X024990Y014247D01*
X018700Y018754D02*
X018700Y020754D01*
X016700Y020754D01*
X016700Y018754D01*
X018700Y018754D01*
X016993Y019754D02*
X016995Y019807D01*
X017001Y019859D01*
X017011Y019911D01*
X017024Y019962D01*
X017042Y020012D01*
X017063Y020061D01*
X017088Y020108D01*
X017116Y020152D01*
X017147Y020195D01*
X017182Y020235D01*
X017219Y020272D01*
X017259Y020307D01*
X017302Y020338D01*
X017347Y020366D01*
X017393Y020391D01*
X017442Y020412D01*
X017492Y020430D01*
X017543Y020443D01*
X017595Y020453D01*
X017647Y020459D01*
X017700Y020461D01*
X017753Y020459D01*
X017805Y020453D01*
X017857Y020443D01*
X017908Y020430D01*
X017958Y020412D01*
X018007Y020391D01*
X018054Y020366D01*
X018098Y020338D01*
X018141Y020307D01*
X018181Y020272D01*
X018218Y020235D01*
X018253Y020195D01*
X018284Y020152D01*
X018312Y020107D01*
X018337Y020061D01*
X018358Y020012D01*
X018376Y019962D01*
X018389Y019911D01*
X018399Y019859D01*
X018405Y019807D01*
X018407Y019754D01*
X018405Y019701D01*
X018399Y019649D01*
X018389Y019597D01*
X018376Y019546D01*
X018358Y019496D01*
X018337Y019447D01*
X018312Y019400D01*
X018284Y019356D01*
X018253Y019313D01*
X018218Y019273D01*
X018181Y019236D01*
X018141Y019201D01*
X018098Y019170D01*
X018053Y019142D01*
X018007Y019117D01*
X017958Y019096D01*
X017908Y019078D01*
X017857Y019065D01*
X017805Y019055D01*
X017753Y019049D01*
X017700Y019047D01*
X017647Y019049D01*
X017595Y019055D01*
X017543Y019065D01*
X017492Y019078D01*
X017442Y019096D01*
X017393Y019117D01*
X017346Y019142D01*
X017302Y019170D01*
X017259Y019201D01*
X017219Y019236D01*
X017182Y019273D01*
X017147Y019313D01*
X017116Y019356D01*
X017088Y019401D01*
X017063Y019447D01*
X017042Y019496D01*
X017024Y019546D01*
X017011Y019597D01*
X017001Y019649D01*
X016995Y019701D01*
X016993Y019754D01*
X014975Y020222D02*
X014975Y022222D01*
X012975Y022222D01*
X012975Y020222D01*
X014975Y020222D01*
X013268Y021222D02*
X013270Y021275D01*
X013276Y021327D01*
X013286Y021379D01*
X013299Y021430D01*
X013317Y021480D01*
X013338Y021529D01*
X013363Y021576D01*
X013391Y021620D01*
X013422Y021663D01*
X013457Y021703D01*
X013494Y021740D01*
X013534Y021775D01*
X013577Y021806D01*
X013622Y021834D01*
X013668Y021859D01*
X013717Y021880D01*
X013767Y021898D01*
X013818Y021911D01*
X013870Y021921D01*
X013922Y021927D01*
X013975Y021929D01*
X014028Y021927D01*
X014080Y021921D01*
X014132Y021911D01*
X014183Y021898D01*
X014233Y021880D01*
X014282Y021859D01*
X014329Y021834D01*
X014373Y021806D01*
X014416Y021775D01*
X014456Y021740D01*
X014493Y021703D01*
X014528Y021663D01*
X014559Y021620D01*
X014587Y021575D01*
X014612Y021529D01*
X014633Y021480D01*
X014651Y021430D01*
X014664Y021379D01*
X014674Y021327D01*
X014680Y021275D01*
X014682Y021222D01*
X014680Y021169D01*
X014674Y021117D01*
X014664Y021065D01*
X014651Y021014D01*
X014633Y020964D01*
X014612Y020915D01*
X014587Y020868D01*
X014559Y020824D01*
X014528Y020781D01*
X014493Y020741D01*
X014456Y020704D01*
X014416Y020669D01*
X014373Y020638D01*
X014328Y020610D01*
X014282Y020585D01*
X014233Y020564D01*
X014183Y020546D01*
X014132Y020533D01*
X014080Y020523D01*
X014028Y020517D01*
X013975Y020515D01*
X013922Y020517D01*
X013870Y020523D01*
X013818Y020533D01*
X013767Y020546D01*
X013717Y020564D01*
X013668Y020585D01*
X013621Y020610D01*
X013577Y020638D01*
X013534Y020669D01*
X013494Y020704D01*
X013457Y020741D01*
X013422Y020781D01*
X013391Y020824D01*
X013363Y020869D01*
X013338Y020915D01*
X013317Y020964D01*
X013299Y021014D01*
X013286Y021065D01*
X013276Y021117D01*
X013270Y021169D01*
X013268Y021222D01*
X016704Y021671D02*
X016704Y023671D01*
X018704Y023671D01*
X018704Y021671D01*
X016704Y021671D01*
X016997Y022671D02*
X016999Y022724D01*
X017005Y022776D01*
X017015Y022828D01*
X017028Y022879D01*
X017046Y022929D01*
X017067Y022978D01*
X017092Y023025D01*
X017120Y023069D01*
X017151Y023112D01*
X017186Y023152D01*
X017223Y023189D01*
X017263Y023224D01*
X017306Y023255D01*
X017351Y023283D01*
X017397Y023308D01*
X017446Y023329D01*
X017496Y023347D01*
X017547Y023360D01*
X017599Y023370D01*
X017651Y023376D01*
X017704Y023378D01*
X017757Y023376D01*
X017809Y023370D01*
X017861Y023360D01*
X017912Y023347D01*
X017962Y023329D01*
X018011Y023308D01*
X018058Y023283D01*
X018102Y023255D01*
X018145Y023224D01*
X018185Y023189D01*
X018222Y023152D01*
X018257Y023112D01*
X018288Y023069D01*
X018316Y023024D01*
X018341Y022978D01*
X018362Y022929D01*
X018380Y022879D01*
X018393Y022828D01*
X018403Y022776D01*
X018409Y022724D01*
X018411Y022671D01*
X018409Y022618D01*
X018403Y022566D01*
X018393Y022514D01*
X018380Y022463D01*
X018362Y022413D01*
X018341Y022364D01*
X018316Y022317D01*
X018288Y022273D01*
X018257Y022230D01*
X018222Y022190D01*
X018185Y022153D01*
X018145Y022118D01*
X018102Y022087D01*
X018057Y022059D01*
X018011Y022034D01*
X017962Y022013D01*
X017912Y021995D01*
X017861Y021982D01*
X017809Y021972D01*
X017757Y021966D01*
X017704Y021964D01*
X017651Y021966D01*
X017599Y021972D01*
X017547Y021982D01*
X017496Y021995D01*
X017446Y022013D01*
X017397Y022034D01*
X017350Y022059D01*
X017306Y022087D01*
X017263Y022118D01*
X017223Y022153D01*
X017186Y022190D01*
X017151Y022230D01*
X017120Y022273D01*
X017092Y022318D01*
X017067Y022364D01*
X017046Y022413D01*
X017028Y022463D01*
X017015Y022514D01*
X017005Y022566D01*
X016999Y022618D01*
X016997Y022671D01*
X020523Y022246D02*
X020523Y020246D01*
X022523Y020246D01*
X022523Y022246D01*
X020523Y022246D01*
X020816Y021246D02*
X020818Y021299D01*
X020824Y021351D01*
X020834Y021403D01*
X020847Y021454D01*
X020865Y021504D01*
X020886Y021553D01*
X020911Y021600D01*
X020939Y021644D01*
X020970Y021687D01*
X021005Y021727D01*
X021042Y021764D01*
X021082Y021799D01*
X021125Y021830D01*
X021170Y021858D01*
X021216Y021883D01*
X021265Y021904D01*
X021315Y021922D01*
X021366Y021935D01*
X021418Y021945D01*
X021470Y021951D01*
X021523Y021953D01*
X021576Y021951D01*
X021628Y021945D01*
X021680Y021935D01*
X021731Y021922D01*
X021781Y021904D01*
X021830Y021883D01*
X021877Y021858D01*
X021921Y021830D01*
X021964Y021799D01*
X022004Y021764D01*
X022041Y021727D01*
X022076Y021687D01*
X022107Y021644D01*
X022135Y021599D01*
X022160Y021553D01*
X022181Y021504D01*
X022199Y021454D01*
X022212Y021403D01*
X022222Y021351D01*
X022228Y021299D01*
X022230Y021246D01*
X022228Y021193D01*
X022222Y021141D01*
X022212Y021089D01*
X022199Y021038D01*
X022181Y020988D01*
X022160Y020939D01*
X022135Y020892D01*
X022107Y020848D01*
X022076Y020805D01*
X022041Y020765D01*
X022004Y020728D01*
X021964Y020693D01*
X021921Y020662D01*
X021876Y020634D01*
X021830Y020609D01*
X021781Y020588D01*
X021731Y020570D01*
X021680Y020557D01*
X021628Y020547D01*
X021576Y020541D01*
X021523Y020539D01*
X021470Y020541D01*
X021418Y020547D01*
X021366Y020557D01*
X021315Y020570D01*
X021265Y020588D01*
X021216Y020609D01*
X021169Y020634D01*
X021125Y020662D01*
X021082Y020693D01*
X021042Y020728D01*
X021005Y020765D01*
X020970Y020805D01*
X020939Y020848D01*
X020911Y020893D01*
X020886Y020939D01*
X020865Y020988D01*
X020847Y021038D01*
X020834Y021089D01*
X020824Y021141D01*
X020818Y021193D01*
X020816Y021246D01*
X024141Y021612D02*
X024928Y021612D01*
X024959Y021578D01*
X024987Y021542D01*
X025012Y021503D01*
X025034Y021463D01*
X025053Y021420D01*
X025068Y021377D01*
X025079Y021332D01*
X025087Y021287D01*
X025091Y021241D01*
X025091Y021195D01*
X025087Y021149D01*
X025079Y021104D01*
X025068Y021059D01*
X025053Y021016D01*
X025034Y020973D01*
X025012Y020933D01*
X024987Y020894D01*
X024959Y020858D01*
X024928Y020824D01*
X024894Y020793D01*
X024858Y020765D01*
X024819Y020740D01*
X024779Y020718D01*
X024736Y020699D01*
X024693Y020684D01*
X024648Y020673D01*
X024603Y020665D01*
X024557Y020661D01*
X024511Y020661D01*
X024465Y020665D01*
X024420Y020673D01*
X024375Y020684D01*
X024332Y020699D01*
X024289Y020718D01*
X024249Y020740D01*
X024210Y020765D01*
X024174Y020793D01*
X024140Y020824D01*
X024109Y020858D01*
X024081Y020894D01*
X024056Y020933D01*
X024034Y020973D01*
X024015Y021016D01*
X024000Y021059D01*
X023989Y021104D01*
X023981Y021149D01*
X023977Y021195D01*
X023977Y021241D01*
X023981Y021287D01*
X023989Y021332D01*
X024000Y021377D01*
X024015Y021420D01*
X024034Y021463D01*
X024056Y021503D01*
X024081Y021542D01*
X024109Y021578D01*
X024140Y021612D01*
X026109Y021612D02*
X026897Y021612D01*
X026928Y021578D01*
X026956Y021542D01*
X026981Y021503D01*
X027003Y021463D01*
X027022Y021420D01*
X027037Y021377D01*
X027048Y021332D01*
X027056Y021287D01*
X027060Y021241D01*
X027060Y021195D01*
X027056Y021149D01*
X027048Y021104D01*
X027037Y021059D01*
X027022Y021016D01*
X027003Y020973D01*
X026981Y020933D01*
X026956Y020894D01*
X026928Y020858D01*
X026897Y020824D01*
X026863Y020793D01*
X026827Y020765D01*
X026788Y020740D01*
X026748Y020718D01*
X026705Y020699D01*
X026662Y020684D01*
X026617Y020673D01*
X026572Y020665D01*
X026526Y020661D01*
X026480Y020661D01*
X026434Y020665D01*
X026389Y020673D01*
X026344Y020684D01*
X026301Y020699D01*
X026258Y020718D01*
X026218Y020740D01*
X026179Y020765D01*
X026143Y020793D01*
X026109Y020824D01*
X026078Y020858D01*
X026050Y020894D01*
X026025Y020933D01*
X026003Y020973D01*
X025984Y021016D01*
X025969Y021059D01*
X025958Y021104D01*
X025950Y021149D01*
X025946Y021195D01*
X025946Y021241D01*
X025950Y021287D01*
X025958Y021332D01*
X025969Y021377D01*
X025984Y021420D01*
X026003Y021463D01*
X026025Y021503D01*
X026050Y021542D01*
X026078Y021578D01*
X026109Y021612D01*
X028078Y021612D02*
X028865Y021612D01*
X028896Y021578D01*
X028924Y021542D01*
X028949Y021503D01*
X028971Y021463D01*
X028990Y021420D01*
X029005Y021377D01*
X029016Y021332D01*
X029024Y021287D01*
X029028Y021241D01*
X029028Y021195D01*
X029024Y021149D01*
X029016Y021104D01*
X029005Y021059D01*
X028990Y021016D01*
X028971Y020973D01*
X028949Y020933D01*
X028924Y020894D01*
X028896Y020858D01*
X028865Y020824D01*
X028831Y020793D01*
X028795Y020765D01*
X028756Y020740D01*
X028716Y020718D01*
X028673Y020699D01*
X028630Y020684D01*
X028585Y020673D01*
X028540Y020665D01*
X028494Y020661D01*
X028448Y020661D01*
X028402Y020665D01*
X028357Y020673D01*
X028312Y020684D01*
X028269Y020699D01*
X028226Y020718D01*
X028186Y020740D01*
X028147Y020765D01*
X028111Y020793D01*
X028077Y020824D01*
X028046Y020858D01*
X028018Y020894D01*
X027993Y020933D01*
X027971Y020973D01*
X027952Y021016D01*
X027937Y021059D01*
X027926Y021104D01*
X027918Y021149D01*
X027914Y021195D01*
X027914Y021241D01*
X027918Y021287D01*
X027926Y021332D01*
X027937Y021377D01*
X027952Y021420D01*
X027971Y021463D01*
X027993Y021503D01*
X028018Y021542D01*
X028046Y021578D01*
X028077Y021612D01*
X030046Y021612D02*
X030834Y021612D01*
X030865Y021578D01*
X030893Y021542D01*
X030918Y021503D01*
X030940Y021463D01*
X030959Y021420D01*
X030974Y021377D01*
X030985Y021332D01*
X030993Y021287D01*
X030997Y021241D01*
X030997Y021195D01*
X030993Y021149D01*
X030985Y021104D01*
X030974Y021059D01*
X030959Y021016D01*
X030940Y020973D01*
X030918Y020933D01*
X030893Y020894D01*
X030865Y020858D01*
X030834Y020824D01*
X030800Y020793D01*
X030764Y020765D01*
X030725Y020740D01*
X030685Y020718D01*
X030642Y020699D01*
X030599Y020684D01*
X030554Y020673D01*
X030509Y020665D01*
X030463Y020661D01*
X030417Y020661D01*
X030371Y020665D01*
X030326Y020673D01*
X030281Y020684D01*
X030238Y020699D01*
X030195Y020718D01*
X030155Y020740D01*
X030116Y020765D01*
X030080Y020793D01*
X030046Y020824D01*
X030015Y020858D01*
X029987Y020894D01*
X029962Y020933D01*
X029940Y020973D01*
X029921Y021016D01*
X029906Y021059D01*
X029895Y021104D01*
X029887Y021149D01*
X029883Y021195D01*
X029883Y021241D01*
X029887Y021287D01*
X029895Y021332D01*
X029906Y021377D01*
X029921Y021420D01*
X029940Y021463D01*
X029962Y021503D01*
X029987Y021542D01*
X030015Y021578D01*
X030046Y021612D01*
X031562Y021380D02*
X031562Y019506D01*
X031822Y019693D02*
X032572Y019693D01*
X032572Y019443D01*
X033072Y019443D01*
X033072Y019693D01*
X033822Y019693D01*
X033822Y020193D01*
X033072Y020193D01*
X033072Y020443D01*
X032572Y020443D01*
X032572Y020193D01*
X031822Y020193D01*
X031822Y019693D01*
X031562Y019506D02*
X031564Y019446D01*
X031569Y019385D01*
X031578Y019326D01*
X031591Y019267D01*
X031607Y019208D01*
X031627Y019151D01*
X031650Y019096D01*
X031677Y019041D01*
X031706Y018989D01*
X031739Y018938D01*
X031775Y018889D01*
X031813Y018843D01*
X031855Y018799D01*
X031899Y018757D01*
X031945Y018719D01*
X031994Y018683D01*
X032045Y018650D01*
X032097Y018621D01*
X032152Y018594D01*
X032207Y018571D01*
X032264Y018551D01*
X032323Y018535D01*
X032382Y018522D01*
X032441Y018513D01*
X032502Y018508D01*
X032562Y018506D01*
X033082Y018506D01*
X033142Y018508D01*
X033203Y018513D01*
X033262Y018522D01*
X033321Y018535D01*
X033380Y018551D01*
X033437Y018571D01*
X033492Y018594D01*
X033547Y018621D01*
X033599Y018650D01*
X033650Y018683D01*
X033699Y018719D01*
X033745Y018757D01*
X033789Y018799D01*
X033831Y018843D01*
X033869Y018889D01*
X033905Y018938D01*
X033938Y018989D01*
X033967Y019041D01*
X033994Y019096D01*
X034017Y019151D01*
X034037Y019208D01*
X034053Y019267D01*
X034066Y019326D01*
X034075Y019385D01*
X034080Y019446D01*
X034082Y019506D01*
X034082Y021380D01*
X031562Y021380D01*
X031572Y019943D02*
X031574Y020013D01*
X031580Y020083D01*
X031590Y020152D01*
X031603Y020221D01*
X031621Y020289D01*
X031642Y020356D01*
X031667Y020421D01*
X031696Y020485D01*
X031728Y020548D01*
X031764Y020608D01*
X031803Y020666D01*
X031845Y020722D01*
X031890Y020776D01*
X031938Y020827D01*
X031989Y020875D01*
X032043Y020920D01*
X032099Y020962D01*
X032157Y021001D01*
X032217Y021037D01*
X032280Y021069D01*
X032344Y021098D01*
X032409Y021123D01*
X032476Y021144D01*
X032544Y021162D01*
X032613Y021175D01*
X032682Y021185D01*
X032752Y021191D01*
X032822Y021193D01*
X032892Y021191D01*
X032962Y021185D01*
X033031Y021175D01*
X033100Y021162D01*
X033168Y021144D01*
X033235Y021123D01*
X033300Y021098D01*
X033364Y021069D01*
X033427Y021037D01*
X033487Y021001D01*
X033545Y020962D01*
X033601Y020920D01*
X033655Y020875D01*
X033706Y020827D01*
X033754Y020776D01*
X033799Y020722D01*
X033841Y020666D01*
X033880Y020608D01*
X033916Y020548D01*
X033948Y020485D01*
X033977Y020421D01*
X034002Y020356D01*
X034023Y020289D01*
X034041Y020221D01*
X034054Y020152D01*
X034064Y020083D01*
X034070Y020013D01*
X034072Y019943D01*
X034070Y019873D01*
X034064Y019803D01*
X034054Y019734D01*
X034041Y019665D01*
X034023Y019597D01*
X034002Y019530D01*
X033977Y019465D01*
X033948Y019401D01*
X033916Y019338D01*
X033880Y019278D01*
X033841Y019220D01*
X033799Y019164D01*
X033754Y019110D01*
X033706Y019059D01*
X033655Y019011D01*
X033601Y018966D01*
X033545Y018924D01*
X033487Y018885D01*
X033427Y018849D01*
X033364Y018817D01*
X033300Y018788D01*
X033235Y018763D01*
X033168Y018742D01*
X033100Y018724D01*
X033031Y018711D01*
X032962Y018701D01*
X032892Y018695D01*
X032822Y018693D01*
X032752Y018695D01*
X032682Y018701D01*
X032613Y018711D01*
X032544Y018724D01*
X032476Y018742D01*
X032409Y018763D01*
X032344Y018788D01*
X032280Y018817D01*
X032217Y018849D01*
X032157Y018885D01*
X032099Y018924D01*
X032043Y018966D01*
X031989Y019011D01*
X031938Y019059D01*
X031890Y019110D01*
X031845Y019164D01*
X031803Y019220D01*
X031764Y019278D01*
X031728Y019338D01*
X031696Y019401D01*
X031667Y019465D01*
X031642Y019530D01*
X031621Y019597D01*
X031603Y019665D01*
X031590Y019734D01*
X031580Y019803D01*
X031574Y019873D01*
X031572Y019943D01*
X032286Y016057D02*
X032286Y009057D01*
X034286Y009057D01*
X034286Y016057D01*
X032286Y016057D01*
X032286Y015557D02*
X032288Y015601D01*
X032294Y015645D01*
X032304Y015688D01*
X032317Y015730D01*
X032334Y015771D01*
X032355Y015810D01*
X032379Y015847D01*
X032406Y015882D01*
X032436Y015914D01*
X032469Y015944D01*
X032505Y015970D01*
X032542Y015994D01*
X032582Y016013D01*
X032623Y016030D01*
X032666Y016042D01*
X032709Y016051D01*
X032753Y016056D01*
X032797Y016057D01*
X032841Y016054D01*
X032885Y016047D01*
X032928Y016036D01*
X032970Y016022D01*
X033010Y016004D01*
X033049Y015982D01*
X033085Y015958D01*
X033119Y015930D01*
X033151Y015899D01*
X033180Y015865D01*
X033206Y015829D01*
X033228Y015791D01*
X033247Y015751D01*
X033262Y015709D01*
X033274Y015667D01*
X033282Y015623D01*
X033286Y015579D01*
X033286Y015535D01*
X033282Y015491D01*
X033274Y015447D01*
X033262Y015405D01*
X033247Y015363D01*
X033228Y015323D01*
X033206Y015285D01*
X033180Y015249D01*
X033151Y015215D01*
X033119Y015184D01*
X033085Y015156D01*
X033049Y015132D01*
X033010Y015110D01*
X032970Y015092D01*
X032928Y015078D01*
X032885Y015067D01*
X032841Y015060D01*
X032797Y015057D01*
X032753Y015058D01*
X032709Y015063D01*
X032666Y015072D01*
X032623Y015084D01*
X032582Y015101D01*
X032542Y015120D01*
X032505Y015144D01*
X032469Y015170D01*
X032436Y015200D01*
X032406Y015232D01*
X032379Y015267D01*
X032355Y015304D01*
X032334Y015343D01*
X032317Y015384D01*
X032304Y015426D01*
X032294Y015469D01*
X032288Y015513D01*
X032286Y015557D01*
D13*
X027807Y013204D02*
X027807Y013081D01*
X027745Y013019D01*
X027622Y013019D01*
X027622Y013204D01*
X027683Y013266D01*
X027745Y013266D01*
X027807Y013204D01*
X027622Y013019D02*
X027498Y013143D01*
X027437Y013266D01*
X027498Y012898D02*
X027622Y012898D01*
X027683Y012836D01*
X027683Y012651D01*
X027683Y012774D02*
X027807Y012898D01*
X027807Y012651D02*
X027437Y012651D01*
X027437Y012836D01*
X027498Y012898D01*
X026626Y012898D02*
X026502Y012774D01*
X026502Y012836D02*
X026502Y012651D01*
X026626Y012651D02*
X026255Y012651D01*
X026255Y012836D01*
X026317Y012898D01*
X026441Y012898D01*
X026502Y012836D01*
X026379Y013019D02*
X026255Y013143D01*
X026626Y013143D01*
X026626Y013266D02*
X026626Y013019D01*
X026626Y013387D02*
X026379Y013634D01*
X026317Y013634D01*
X026255Y013573D01*
X026255Y013449D01*
X026317Y013387D01*
X026626Y013387D02*
X026626Y013634D01*
X025445Y013019D02*
X025383Y013019D01*
X025136Y013266D01*
X025074Y013266D01*
X025074Y013019D01*
X025136Y012898D02*
X025259Y012898D01*
X025321Y012836D01*
X025321Y012651D01*
X025321Y012774D02*
X025445Y012898D01*
X025445Y012651D02*
X025074Y012651D01*
X025074Y012836D01*
X025136Y012898D01*
X024264Y012898D02*
X024140Y012774D01*
X024140Y012836D02*
X024140Y012651D01*
X024264Y012651D02*
X023893Y012651D01*
X023893Y012836D01*
X023955Y012898D01*
X024078Y012898D01*
X024140Y012836D01*
X024017Y013019D02*
X023893Y013143D01*
X024264Y013143D01*
X024264Y013266D02*
X024264Y013019D01*
X024202Y013387D02*
X024264Y013449D01*
X024264Y013573D01*
X024202Y013634D01*
X024140Y013634D01*
X024078Y013573D01*
X024078Y013511D01*
X024078Y013573D02*
X024017Y013634D01*
X023955Y013634D01*
X023893Y013573D01*
X023893Y013449D01*
X023955Y013387D01*
X023082Y013204D02*
X023082Y013081D01*
X023021Y013019D01*
X022959Y013019D01*
X022897Y013081D01*
X022897Y013204D01*
X022959Y013266D01*
X023021Y013266D01*
X023082Y013204D01*
X022897Y013204D02*
X022836Y013266D01*
X022774Y013266D01*
X022712Y013204D01*
X022712Y013081D01*
X022774Y013019D01*
X022836Y013019D01*
X022897Y013081D01*
X022897Y012898D02*
X022959Y012836D01*
X022959Y012651D01*
X022959Y012774D02*
X023082Y012898D01*
X022897Y012898D02*
X022774Y012898D01*
X022712Y012836D01*
X022712Y012651D01*
X023082Y012651D01*
X021901Y012651D02*
X021531Y012651D01*
X021531Y012836D01*
X021593Y012898D01*
X021716Y012898D01*
X021778Y012836D01*
X021778Y012651D01*
X021778Y012774D02*
X021901Y012898D01*
X021840Y013019D02*
X021901Y013081D01*
X021901Y013204D01*
X021840Y013266D01*
X021593Y013266D01*
X021531Y013204D01*
X021531Y013081D01*
X021593Y013019D01*
X021654Y013019D01*
X021716Y013081D01*
X021716Y013266D01*
X020720Y013266D02*
X020720Y013019D01*
X020720Y012898D02*
X020597Y012774D01*
X020597Y012836D02*
X020597Y012651D01*
X020720Y012651D02*
X020350Y012651D01*
X020350Y012836D01*
X020412Y012898D01*
X020535Y012898D01*
X020597Y012836D01*
X020473Y013019D02*
X020350Y013143D01*
X020720Y013143D01*
X020659Y013387D02*
X020412Y013387D01*
X020350Y013449D01*
X020350Y013573D01*
X020412Y013634D01*
X020659Y013387D01*
X020720Y013449D01*
X020720Y013573D01*
X020659Y013634D01*
X020412Y013634D01*
X019539Y013634D02*
X019539Y013387D01*
X019539Y013266D02*
X019539Y013019D01*
X019539Y012898D02*
X019416Y012774D01*
X019416Y012836D02*
X019416Y012651D01*
X019539Y012651D02*
X019169Y012651D01*
X019169Y012836D01*
X019231Y012898D01*
X019354Y012898D01*
X019416Y012836D01*
X019292Y013019D02*
X019169Y013143D01*
X019539Y013143D01*
X019292Y013387D02*
X019169Y013511D01*
X019539Y013511D01*
X016783Y016981D02*
X016413Y016981D01*
X016413Y017167D01*
X016475Y017228D01*
X016598Y017228D01*
X016660Y017167D01*
X016660Y016981D01*
X016660Y017105D02*
X016783Y017228D01*
X016722Y017350D02*
X016783Y017412D01*
X016783Y017535D01*
X016722Y017597D01*
X016598Y017597D01*
X016536Y017535D01*
X016536Y017473D01*
X016598Y017350D01*
X016413Y017350D01*
X016413Y017597D01*
X015602Y017535D02*
X015232Y017535D01*
X015417Y017350D01*
X015417Y017597D01*
X015417Y017228D02*
X015479Y017167D01*
X015479Y016981D01*
X015602Y016981D02*
X015232Y016981D01*
X015232Y017167D01*
X015294Y017228D01*
X015417Y017228D01*
X015479Y017105D02*
X015602Y017228D01*
X014421Y017228D02*
X014298Y017105D01*
X014298Y017167D02*
X014298Y016981D01*
X014421Y016981D02*
X014051Y016981D01*
X014051Y017167D01*
X014112Y017228D01*
X014236Y017228D01*
X014298Y017167D01*
X014421Y017350D02*
X014174Y017597D01*
X014112Y017597D01*
X014051Y017535D01*
X014051Y017412D01*
X014112Y017350D01*
X014421Y017350D02*
X014421Y017597D01*
X013240Y017535D02*
X013240Y017412D01*
X013178Y017350D01*
X013240Y017228D02*
X013116Y017105D01*
X013116Y017167D02*
X013116Y016981D01*
X013240Y016981D02*
X012870Y016981D01*
X012870Y017167D01*
X012931Y017228D01*
X013055Y017228D01*
X013116Y017167D01*
X012931Y017350D02*
X012870Y017412D01*
X012870Y017535D01*
X012931Y017597D01*
X012993Y017597D01*
X013055Y017535D01*
X013116Y017597D01*
X013178Y017597D01*
X013240Y017535D01*
X013055Y017535D02*
X013055Y017473D01*
D14*
X017970Y016943D02*
X017970Y016636D01*
X018047Y016559D01*
X018200Y016559D01*
X018277Y016636D01*
X018430Y016559D02*
X018737Y016866D01*
X018737Y016943D01*
X018660Y017020D01*
X018507Y017020D01*
X018430Y016943D01*
X018277Y016943D02*
X018200Y017020D01*
X018047Y017020D01*
X017970Y016943D01*
X018430Y016559D02*
X018737Y016559D01*
X023764Y012341D02*
X024071Y012341D01*
X023917Y012341D02*
X023917Y011880D01*
X024224Y011957D02*
X024301Y011880D01*
X024454Y011880D01*
X024531Y011957D01*
X024531Y012264D01*
X024454Y012341D01*
X024301Y012341D01*
X024224Y012264D01*
X024224Y011957D01*
X024685Y012034D02*
X024915Y012034D01*
X024992Y012110D01*
X024992Y012264D01*
X024915Y012341D01*
X024685Y012341D01*
X024685Y011880D01*
X020835Y009145D02*
X020221Y009145D01*
X020298Y009221D02*
X020375Y009298D01*
X020298Y009221D02*
X020298Y009068D01*
X020375Y008991D01*
X020452Y008991D01*
X020528Y009068D01*
X020528Y009221D01*
X020605Y009298D01*
X020682Y009298D01*
X020759Y009221D01*
X020759Y009068D01*
X020682Y008991D01*
X020682Y008838D02*
X020298Y008838D01*
X020298Y008531D02*
X020682Y008531D01*
X020759Y008607D01*
X020759Y008761D01*
X020682Y008838D01*
X020759Y009452D02*
X020759Y009758D01*
X020759Y009605D02*
X020298Y009605D01*
X020452Y009452D01*
X020375Y009912D02*
X020298Y009989D01*
X020298Y010142D01*
X020375Y010219D01*
X020452Y010219D01*
X020759Y009912D01*
X020759Y010219D01*
X030773Y016101D02*
X030849Y016024D01*
X031156Y016024D01*
X031233Y016101D01*
X031233Y016254D01*
X031156Y016331D01*
X031233Y016484D02*
X031233Y016791D01*
X031233Y016638D02*
X030773Y016638D01*
X030926Y016484D01*
X030849Y016331D02*
X030773Y016254D01*
X030773Y016101D01*
X032306Y016154D02*
X032383Y016077D01*
X032460Y016077D01*
X032537Y016154D01*
X032537Y016537D01*
X032613Y016537D02*
X032460Y016537D01*
X032767Y016384D02*
X032920Y016537D01*
X032920Y016077D01*
X032767Y016077D02*
X033074Y016077D01*
X033114Y017963D02*
X033268Y018116D01*
X033268Y018423D01*
X033421Y018423D02*
X033651Y018423D01*
X033728Y018347D01*
X033728Y018193D01*
X033651Y018116D01*
X033421Y018116D01*
X033421Y017963D02*
X033421Y018423D01*
X033575Y018116D02*
X033728Y017963D01*
X033881Y017963D02*
X034188Y017963D01*
X034035Y017963D02*
X034035Y018423D01*
X033881Y018270D01*
X033114Y017963D02*
X032961Y018116D01*
X032961Y018423D01*
X029739Y021499D02*
X029278Y021499D01*
X029278Y021729D01*
X029355Y021806D01*
X029662Y021806D01*
X029739Y021729D01*
X029739Y021499D01*
X029739Y021959D02*
X029739Y022266D01*
X029739Y022113D02*
X029278Y022113D01*
X029432Y021959D01*
X027770Y021959D02*
X027463Y022266D01*
X027387Y022266D01*
X027310Y022189D01*
X027310Y022036D01*
X027387Y021959D01*
X027387Y021806D02*
X027310Y021729D01*
X027310Y021499D01*
X027770Y021499D01*
X027770Y021729D01*
X027694Y021806D01*
X027387Y021806D01*
X027770Y021959D02*
X027770Y022266D01*
X025802Y022189D02*
X025802Y022036D01*
X025725Y021959D01*
X025725Y021806D02*
X025418Y021806D01*
X025341Y021729D01*
X025341Y021499D01*
X025802Y021499D01*
X025802Y021729D01*
X025725Y021806D01*
X025572Y022113D02*
X025572Y022189D01*
X025648Y022266D01*
X025725Y022266D01*
X025802Y022189D01*
X025572Y022189D02*
X025495Y022266D01*
X025418Y022266D01*
X025341Y022189D01*
X025341Y022036D01*
X025418Y021959D01*
X023833Y021729D02*
X023833Y021499D01*
X023373Y021499D01*
X023373Y021729D01*
X023450Y021806D01*
X023757Y021806D01*
X023833Y021729D01*
X023603Y021959D02*
X023373Y022189D01*
X023833Y022189D01*
X023603Y022266D02*
X023603Y021959D01*
D15*
X023529Y004502D02*
X023029Y004502D01*
X022779Y004252D01*
X022529Y004502D01*
X022029Y004502D01*
X021779Y004252D01*
X021529Y004502D01*
X021029Y004502D01*
X020779Y004252D01*
X020529Y004502D01*
X020029Y004502D01*
X019779Y004252D01*
X019529Y004502D01*
X019029Y004502D01*
X018779Y004252D01*
X018529Y004502D01*
X018029Y004502D01*
X017779Y004252D01*
X017529Y004502D01*
X017029Y004502D01*
X016779Y004252D01*
X016529Y004502D01*
X016029Y004502D01*
X015779Y004252D01*
X015529Y004502D01*
X015029Y004502D01*
X014779Y004252D01*
X014529Y004502D01*
X014029Y004502D01*
X013779Y004252D01*
X013529Y004502D01*
X013029Y004502D01*
X012779Y004252D01*
X012529Y004502D01*
X012029Y004502D01*
X011779Y004252D01*
X011779Y002752D01*
X012029Y002502D01*
X012529Y002502D01*
X012779Y002752D01*
X013029Y002502D01*
X013529Y002502D01*
X013779Y002752D01*
X014029Y002502D01*
X014529Y002502D01*
X014779Y002752D01*
X015029Y002502D01*
X015529Y002502D01*
X015779Y002752D01*
X016029Y002502D01*
X016529Y002502D01*
X016779Y002752D01*
X017029Y002502D01*
X017529Y002502D01*
X017779Y002752D01*
X018029Y002502D01*
X018529Y002502D01*
X018779Y002752D01*
X019029Y002502D01*
X019529Y002502D01*
X019779Y002752D01*
X020029Y002502D01*
X020529Y002502D01*
X020779Y002752D01*
X021029Y002502D01*
X021529Y002502D01*
X021779Y002752D01*
X022029Y002502D01*
X022529Y002502D01*
X022779Y002752D01*
X023029Y002502D01*
X023529Y002502D01*
X023779Y002752D01*
X024029Y002502D01*
X024529Y002502D01*
X024779Y002752D01*
X025029Y002502D01*
X025529Y002502D01*
X025779Y002752D01*
X026029Y002502D01*
X026529Y002502D01*
X026779Y002752D01*
X027029Y002502D01*
X027529Y002502D01*
X027779Y002752D01*
X028029Y002502D01*
X028529Y002502D01*
X028779Y002752D01*
X029029Y002502D01*
X029529Y002502D01*
X029779Y002752D01*
X030029Y002502D01*
X030529Y002502D01*
X030779Y002752D01*
X031029Y002502D01*
X031529Y002502D01*
X031779Y002752D01*
X031779Y004252D01*
X031529Y004502D01*
X031029Y004502D01*
X030779Y004252D01*
X030529Y004502D01*
X030029Y004502D01*
X029779Y004252D01*
X029529Y004502D01*
X029029Y004502D01*
X028779Y004252D01*
X028529Y004502D01*
X028029Y004502D01*
X027779Y004252D01*
X027529Y004502D01*
X027029Y004502D01*
X026779Y004252D01*
X026529Y004502D01*
X026029Y004502D01*
X025779Y004252D01*
X025529Y004502D01*
X025029Y004502D01*
X024779Y004252D01*
X024529Y004502D01*
X024029Y004502D01*
X023779Y004252D01*
X023529Y004502D01*
D16*
X007723Y005667D02*
X007723Y002518D01*
X004456Y002518D01*
X004456Y005667D01*
X007723Y005667D01*
X007723Y006061D02*
X007723Y009211D01*
X004456Y009211D01*
X004456Y006061D01*
X007723Y006061D01*
X007723Y009604D02*
X004456Y009604D01*
X004456Y012754D01*
X007723Y012754D01*
X007723Y009604D01*
X007723Y013148D02*
X004456Y013148D01*
X004456Y016297D01*
X007723Y016297D01*
X007723Y013148D01*
X006227Y019447D02*
X005814Y019447D01*
X006227Y019447D02*
X006227Y020234D01*
X005342Y019840D02*
X005342Y022990D01*
X003176Y022990D01*
X003128Y023237D02*
X003395Y023637D01*
X003588Y023504D02*
X003722Y023637D01*
X003722Y023237D01*
X003855Y023237D02*
X003588Y023237D01*
X003395Y023237D02*
X003128Y023637D01*
X005342Y022990D02*
X006227Y022990D01*
X006227Y022203D01*
X003924Y019447D02*
X003176Y019447D01*
M02*
