%
M48
M72
T01C0.0276
T02C0.0315
T03C0.0320
T04C0.0394
T05C0.0709
T06C0.0866
%
T01
X9581Y17651
X10172Y17651
X10762Y17651
X11353Y17651
T02
X13508Y18574
X7111Y13530
X3171Y15651
X4352Y17541
X2436Y13530
X1697Y8240
X6742Y8240
X13508Y9347
T03
X7102Y12659
X4102Y12659
T04
X5533Y15651
X12401Y10454
X12401Y1104
T05
X5881Y3909
X4322Y3909
X20352Y4630
X20352Y6189
X20352Y11630
X20352Y13189
T06
X1602Y1159
X1602Y18659
X21352Y18659
X21352Y1159
M30
