%
M48
M72
T01C0.0236
T02C0.0276
T03C0.0315
T04C0.0320
T05C0.0400
T06C0.0709
T07C0.1083
T08C0.1102
T09C0.1260
%
T01
X2256Y2795
X2256Y6795
X2256Y9795
X2256Y11045
X2256Y14295
X2256Y17295
X2256Y18545
X2256Y23295
X5756Y23295
X13756Y20295
X15256Y23295
X18756Y23295
X22256Y23295
X25756Y23295
X29256Y23295
X29256Y19795
X29256Y19295
X29256Y18795
X28506Y18295
X28506Y17795
X28506Y17295
X28506Y16795
X29256Y15045
X29256Y14545
X29256Y14045
X29256Y13545
X28756Y13545
X28256Y13545
X31756Y13795
X33756Y16295
X33756Y19295
X28006Y10795
X27006Y9795
X24506Y7545
X24006Y7545
X24006Y7045
X23506Y7045
X22756Y2795
X19756Y2795
X16756Y2795
X16256Y3795
X15756Y3795
X15256Y3795
X14756Y3795
X13756Y2795
X12506Y5795
X10006Y8295
X9256Y11045
X13006Y11295
X14756Y12795
X15256Y12795
X15756Y12795
X16256Y12795
X18506Y12795
X18506Y12295
X18506Y13295
X18506Y13795
X12506Y14795
X9256Y16045
X7756Y2795
X33506Y7045
X33506Y7545
X33506Y8045
T02
X16478Y21402
X15888Y21402
X15297Y21402
X14707Y21402
T03
X17719Y20726
X25716Y21218
X30391Y21218
X31498Y17158
X32359Y13074
X32359Y12286
X32359Y11499
X32359Y10712
X32359Y9924
X32359Y9137
X32359Y8349
X32359Y7562
X32359Y6775
X32359Y5987
X31252Y5101
X30514Y7193
X31252Y7562
X26454Y11253
X26085Y15928
X17719Y11499
X12506Y7295
T04
X25724Y20347
X28724Y20347
T05
X28279Y4002
X27279Y4002
X26279Y4002
X25279Y4002
X24279Y4002
X24279Y3002
X25279Y3002
X26279Y3002
X27279Y3002
X28279Y3002
X29279Y3002
X30279Y3002
X31279Y3002
X31279Y4002
X30279Y4002
X29279Y4002
T06
X22844Y4831
X21285Y4831
X6277Y5512
X6277Y3953
X6277Y7767
X6277Y9326
X6277Y11581
X6277Y13140
X6277Y15395
X6277Y16954
T07
X10361Y22793
X33196Y22793
X33196Y3502
X10361Y3502
T08
X5342Y19206
X4160Y21095
T09
X6523Y21095
M30
