G75*
%MOIN*%
%OFA0B0*%
%FSLAX24Y24*%
%IPPOS*%
%LPD*%
%AMOC8*
5,1,8,0,0,1.08239X$1,22.5*
%
%ADD10C,0.0030*%
%ADD11C,0.0050*%
%ADD12C,0.0040*%
%ADD13C,0.0060*%
%ADD14R,0.0150X0.0200*%
%ADD15C,0.0100*%
D10*
X030005Y015825D02*
X030308Y015825D01*
X030369Y015886D01*
X030369Y016007D01*
X030308Y016068D01*
X030005Y016068D01*
X030066Y016187D02*
X030005Y016248D01*
X030005Y016369D01*
X030066Y016430D01*
X030126Y016550D02*
X030005Y016671D01*
X030369Y016671D01*
X030369Y016550D02*
X030369Y016793D01*
X030308Y016430D02*
X030248Y016430D01*
X030187Y016369D01*
X030187Y016248D01*
X030126Y016187D01*
X030066Y016187D01*
X029944Y016309D02*
X030430Y016309D01*
X030369Y016369D02*
X030308Y016430D01*
X030369Y016369D02*
X030369Y016248D01*
X030308Y016187D01*
D11*
X033393Y002124D02*
X002290Y002124D01*
X002224Y002126D01*
X002158Y002131D01*
X002092Y002141D01*
X002027Y002154D01*
X001963Y002170D01*
X001900Y002190D01*
X001838Y002214D01*
X001778Y002241D01*
X001719Y002271D01*
X001662Y002305D01*
X001607Y002342D01*
X001554Y002382D01*
X001503Y002424D01*
X001455Y002470D01*
X001409Y002518D01*
X001367Y002569D01*
X001327Y002622D01*
X001290Y002677D01*
X001256Y002734D01*
X001226Y002793D01*
X001199Y002853D01*
X001175Y002915D01*
X001155Y002978D01*
X001139Y003042D01*
X001126Y003107D01*
X001116Y003173D01*
X001111Y003239D01*
X001109Y003305D01*
X001109Y022990D01*
X001111Y023056D01*
X001116Y023122D01*
X001126Y023188D01*
X001139Y023253D01*
X001155Y023317D01*
X001175Y023380D01*
X001199Y023442D01*
X001226Y023502D01*
X001256Y023561D01*
X001290Y023618D01*
X001327Y023673D01*
X001367Y023726D01*
X001409Y023777D01*
X001455Y023825D01*
X001503Y023871D01*
X001554Y023913D01*
X001607Y023953D01*
X001662Y023990D01*
X001719Y024024D01*
X001778Y024054D01*
X001838Y024081D01*
X001900Y024105D01*
X001963Y024125D01*
X002027Y024141D01*
X002092Y024154D01*
X002158Y024164D01*
X002224Y024169D01*
X002290Y024171D01*
X033393Y024171D01*
X033459Y024169D01*
X033525Y024164D01*
X033591Y024154D01*
X033656Y024141D01*
X033720Y024125D01*
X033783Y024105D01*
X033845Y024081D01*
X033905Y024054D01*
X033964Y024024D01*
X034021Y023990D01*
X034076Y023953D01*
X034129Y023913D01*
X034180Y023871D01*
X034228Y023825D01*
X034274Y023777D01*
X034316Y023726D01*
X034356Y023673D01*
X034393Y023618D01*
X034427Y023561D01*
X034457Y023502D01*
X034484Y023442D01*
X034508Y023380D01*
X034528Y023317D01*
X034544Y023253D01*
X034557Y023188D01*
X034567Y023122D01*
X034572Y023056D01*
X034574Y022990D01*
X034574Y003305D01*
X034572Y003239D01*
X034567Y003173D01*
X034557Y003107D01*
X034544Y003042D01*
X034528Y002978D01*
X034508Y002915D01*
X034484Y002853D01*
X034457Y002793D01*
X034427Y002734D01*
X034393Y002677D01*
X034356Y002622D01*
X034316Y002569D01*
X034274Y002518D01*
X034228Y002470D01*
X034180Y002424D01*
X034129Y002382D01*
X034076Y002342D01*
X034021Y002305D01*
X033964Y002271D01*
X033905Y002241D01*
X033845Y002214D01*
X033783Y002190D01*
X033720Y002170D01*
X033656Y002154D01*
X033591Y002141D01*
X033525Y002131D01*
X033459Y002126D01*
X033393Y002124D01*
X032528Y004905D02*
X032378Y004905D01*
X032303Y004980D01*
X032303Y005055D01*
X032378Y005130D01*
X032528Y005130D01*
X032604Y005055D01*
X032604Y004980D01*
X032528Y004905D01*
X032528Y005130D02*
X032604Y005205D01*
X032604Y005280D01*
X032528Y005355D01*
X032378Y005355D01*
X032303Y005280D01*
X032303Y005205D01*
X032378Y005130D01*
X032143Y005355D02*
X031993Y005355D01*
X032068Y005355D02*
X032068Y004980D01*
X031993Y004905D01*
X031918Y004905D01*
X031843Y004980D01*
X031322Y004708D02*
X031022Y004708D01*
X031172Y004708D02*
X031172Y005158D01*
X031022Y005008D01*
X030214Y005761D02*
X029584Y005761D01*
X029584Y006902D01*
X030214Y006902D01*
X030214Y005761D01*
X030020Y005938D02*
X030022Y005952D01*
X030028Y005966D01*
X030036Y005978D01*
X030048Y005986D01*
X030062Y005992D01*
X030076Y005994D01*
X030090Y005992D01*
X030104Y005986D01*
X030116Y005978D01*
X030124Y005966D01*
X030130Y005952D01*
X030132Y005938D01*
X030130Y005924D01*
X030124Y005910D01*
X030116Y005898D01*
X030104Y005890D01*
X030090Y005884D01*
X030076Y005882D01*
X030062Y005884D01*
X030048Y005890D01*
X030036Y005898D01*
X030028Y005910D01*
X030022Y005924D01*
X030020Y005938D01*
X026631Y004708D02*
X026331Y004708D01*
X026481Y004708D02*
X026481Y005158D01*
X026331Y005008D01*
X026171Y004708D02*
X025871Y004708D01*
X026021Y004708D02*
X026021Y005158D01*
X025871Y005008D01*
X022369Y003502D02*
X021188Y003502D01*
X021779Y002911D02*
X021779Y004092D01*
X021513Y004708D02*
X021213Y004708D01*
X021363Y004708D02*
X021363Y005158D01*
X021213Y005008D01*
X021053Y005008D02*
X021053Y005083D01*
X020978Y005158D01*
X020828Y005158D01*
X020753Y005083D01*
X021053Y005008D02*
X020753Y004708D01*
X021053Y004708D01*
X016592Y004708D02*
X016292Y004708D01*
X016442Y004708D02*
X016442Y005158D01*
X016292Y005008D01*
X016132Y005008D02*
X016057Y004933D01*
X016132Y004858D01*
X016132Y004783D01*
X016057Y004708D01*
X015906Y004708D01*
X015831Y004783D01*
X015981Y004933D02*
X016057Y004933D01*
X016132Y005008D02*
X016132Y005083D01*
X016057Y005158D01*
X015906Y005158D01*
X015831Y005083D01*
X012458Y005083D02*
X012458Y004783D01*
X012383Y004708D01*
X012233Y004708D01*
X012158Y004783D01*
X011998Y004783D02*
X011923Y004708D01*
X011773Y004708D01*
X011697Y004783D01*
X011848Y004933D02*
X011923Y004933D01*
X011998Y004858D01*
X011998Y004783D01*
X011923Y004933D02*
X011998Y005008D01*
X011998Y005083D01*
X011923Y005158D01*
X011773Y005158D01*
X011697Y005083D01*
X012158Y005083D02*
X012158Y005008D01*
X012233Y004933D01*
X012458Y004933D01*
X012458Y005083D02*
X012383Y005158D01*
X012233Y005158D01*
X012158Y005083D01*
X023308Y014247D02*
X023308Y014698D01*
X023534Y014698D01*
X023609Y014623D01*
X023609Y014473D01*
X023534Y014398D01*
X023308Y014398D01*
X023589Y014086D02*
X025360Y014086D01*
X024990Y014247D02*
X024690Y014247D01*
X024840Y014247D02*
X024840Y014698D01*
X024690Y014548D01*
X024529Y014548D02*
X024454Y014473D01*
X024229Y014473D01*
X024069Y014623D02*
X023994Y014698D01*
X023844Y014698D01*
X023769Y014623D01*
X023769Y014322D01*
X023844Y014247D01*
X023994Y014247D01*
X024069Y014322D01*
X024229Y014247D02*
X024454Y014247D01*
X024529Y014322D01*
X024529Y014398D01*
X024454Y014473D01*
X024529Y014548D02*
X024529Y014623D01*
X024454Y014698D01*
X024229Y014698D01*
X024229Y014247D01*
X023589Y014086D02*
X023589Y015109D01*
X025360Y015109D01*
X025361Y015109D02*
X025403Y015131D01*
X025446Y015150D01*
X025492Y015165D01*
X025538Y015176D01*
X025585Y015184D01*
X025632Y015188D01*
X025680Y015188D01*
X025727Y015184D01*
X025774Y015176D01*
X025820Y015165D01*
X025866Y015150D01*
X025909Y015131D01*
X025952Y015109D01*
X025992Y015083D01*
X026030Y015055D01*
X026065Y015023D01*
X026098Y014989D01*
X026128Y014952D01*
X026156Y014913D01*
X026179Y014872D01*
X026200Y014829D01*
X026217Y014784D01*
X026230Y014738D01*
X026239Y014692D01*
X026245Y014645D01*
X026247Y014597D01*
X026245Y014549D01*
X026239Y014502D01*
X026230Y014456D01*
X026217Y014410D01*
X026200Y014365D01*
X026179Y014322D01*
X026156Y014281D01*
X026128Y014242D01*
X026098Y014205D01*
X026065Y014171D01*
X026030Y014139D01*
X025992Y014111D01*
X025952Y014085D01*
X025909Y014063D01*
X025866Y014044D01*
X025820Y014029D01*
X025774Y014018D01*
X025727Y014010D01*
X025680Y014006D01*
X025632Y014006D01*
X025585Y014010D01*
X025538Y014018D01*
X025492Y014029D01*
X025446Y014044D01*
X025403Y014063D01*
X025361Y014085D01*
X027707Y016133D02*
X028848Y016133D01*
X028836Y016107D01*
X028826Y016079D01*
X028820Y016051D01*
X028818Y016023D01*
X028819Y015994D01*
X028824Y015965D01*
X028833Y015938D01*
X028845Y015912D01*
X028860Y015887D01*
X028878Y015865D01*
X028899Y015845D01*
X028922Y015828D01*
X028947Y015814D01*
X028974Y015803D01*
X029002Y015796D01*
X029031Y015792D01*
X029059Y015792D01*
X029088Y015796D01*
X029116Y015803D01*
X029143Y015814D01*
X029168Y015828D01*
X029191Y015845D01*
X029212Y015865D01*
X029230Y015887D01*
X029245Y015912D01*
X029257Y015938D01*
X029266Y015965D01*
X029271Y015994D01*
X029272Y016023D01*
X029270Y016051D01*
X029264Y016079D01*
X029254Y016107D01*
X029242Y016133D01*
X029242Y018062D01*
X027707Y018062D01*
X027707Y016133D01*
D12*
X027858Y015828D02*
X027858Y015367D01*
X027705Y015367D02*
X028012Y015367D01*
X027705Y015674D02*
X027858Y015828D01*
X027551Y015751D02*
X027475Y015828D01*
X027321Y015828D01*
X027244Y015751D01*
X027244Y015444D01*
X027321Y015367D01*
X027475Y015367D01*
X027551Y015444D01*
X026353Y014971D02*
X026353Y014511D01*
X026506Y014511D02*
X026199Y014511D01*
X026199Y014818D02*
X026353Y014971D01*
X024841Y014867D02*
X024534Y014867D01*
X024841Y015174D01*
X024841Y015251D01*
X024764Y015328D01*
X024611Y015328D01*
X024534Y015251D01*
X024381Y015251D02*
X024304Y015328D01*
X024150Y015328D01*
X024074Y015251D01*
X024074Y014944D01*
X024150Y014867D01*
X024304Y014867D01*
X024381Y014944D01*
X024514Y013867D02*
X024514Y013253D01*
X024438Y013330D02*
X024591Y013330D01*
X024668Y013407D01*
X024668Y013483D01*
X024591Y013560D01*
X024438Y013560D01*
X024361Y013637D01*
X024361Y013714D01*
X024438Y013790D01*
X024591Y013790D01*
X024668Y013714D01*
X024821Y013714D02*
X024898Y013790D01*
X025052Y013790D01*
X025128Y013714D01*
X025128Y013637D01*
X024821Y013330D01*
X025128Y013330D01*
X024438Y013330D02*
X024361Y013407D01*
X024208Y013407D02*
X024208Y013790D01*
X023901Y013790D02*
X023901Y013407D01*
X023977Y013330D01*
X024131Y013330D01*
X024208Y013407D01*
X024301Y012341D02*
X024224Y012264D01*
X024224Y011957D01*
X024301Y011880D01*
X024454Y011880D01*
X024531Y011957D01*
X024531Y012264D01*
X024454Y012341D01*
X024301Y012341D01*
X024071Y012341D02*
X023764Y012341D01*
X023917Y012341D02*
X023917Y011880D01*
X024358Y011746D02*
X024589Y011746D01*
X024665Y011669D01*
X024665Y011516D01*
X024589Y011439D01*
X024358Y011439D01*
X024358Y011286D02*
X024358Y011746D01*
X024512Y011439D02*
X024665Y011286D01*
X024819Y011286D02*
X025126Y011286D01*
X024972Y011286D02*
X024972Y011746D01*
X024819Y011593D01*
X024685Y011880D02*
X024685Y012341D01*
X024915Y012341D01*
X024992Y012264D01*
X024992Y012110D01*
X024915Y012034D01*
X024685Y012034D01*
X025279Y011669D02*
X025356Y011746D01*
X025509Y011746D01*
X025586Y011669D01*
X025586Y011593D01*
X025509Y011516D01*
X025586Y011439D01*
X025586Y011362D01*
X025509Y011286D01*
X025356Y011286D01*
X025279Y011362D01*
X025433Y011516D02*
X025509Y011516D01*
X025712Y011439D02*
X025942Y011439D01*
X026019Y011516D01*
X026019Y011669D01*
X025942Y011746D01*
X025712Y011746D01*
X025712Y011286D01*
X025865Y011439D02*
X026019Y011286D01*
X026172Y011286D02*
X026479Y011286D01*
X026632Y011286D02*
X026939Y011593D01*
X026939Y011669D01*
X026863Y011746D01*
X026709Y011746D01*
X026632Y011669D01*
X026326Y011746D02*
X026326Y011286D01*
X026632Y011286D02*
X026939Y011286D01*
X026326Y011746D02*
X026172Y011593D01*
X026670Y013245D02*
X026823Y013245D01*
X026900Y013322D01*
X027053Y013245D02*
X027360Y013245D01*
X027207Y013245D02*
X027207Y013706D01*
X027053Y013552D01*
X026900Y013629D02*
X026823Y013706D01*
X026670Y013706D01*
X026593Y013629D01*
X026593Y013322D01*
X026670Y013245D01*
X027514Y013245D02*
X027821Y013245D01*
X027667Y013245D02*
X027667Y013706D01*
X027514Y013552D01*
X030074Y014467D02*
X030074Y014927D01*
X030304Y014927D01*
X030381Y014850D01*
X030381Y014697D01*
X030304Y014620D01*
X030074Y014620D01*
X030227Y014620D02*
X030381Y014467D01*
X030534Y014544D02*
X030611Y014467D01*
X030764Y014467D01*
X030841Y014544D01*
X030841Y014620D01*
X030764Y014697D01*
X030534Y014697D01*
X030534Y014544D01*
X030534Y014697D02*
X030687Y014850D01*
X030841Y014927D01*
X031752Y015082D02*
X032212Y015082D01*
X032212Y015235D02*
X032212Y014928D01*
X032212Y014775D02*
X032059Y014621D01*
X032059Y014698D02*
X032059Y014468D01*
X032212Y014468D02*
X031752Y014468D01*
X031752Y014698D01*
X031829Y014775D01*
X031982Y014775D01*
X032059Y014698D01*
X031905Y014928D02*
X031752Y015082D01*
X031752Y015389D02*
X031982Y015389D01*
X031905Y015542D01*
X031905Y015619D01*
X031982Y015695D01*
X032136Y015695D01*
X032212Y015619D01*
X032212Y015465D01*
X032136Y015389D01*
X031752Y015389D02*
X031752Y015695D01*
X031185Y016312D02*
X031032Y016312D01*
X030955Y016389D01*
X030955Y016542D02*
X031108Y016619D01*
X031185Y016619D01*
X031262Y016542D01*
X031262Y016389D01*
X031185Y016312D01*
X030955Y016542D02*
X030955Y016773D01*
X031262Y016773D01*
X030801Y016696D02*
X030725Y016773D01*
X030571Y016773D01*
X030494Y016696D01*
X030494Y016389D01*
X030571Y016312D01*
X030725Y016312D01*
X030801Y016389D01*
X032613Y015619D02*
X032843Y015389D01*
X032843Y015695D01*
X032613Y015619D02*
X033074Y015619D01*
X033074Y015235D02*
X033074Y014928D01*
X033074Y014775D02*
X032920Y014621D01*
X032920Y014698D02*
X032920Y014468D01*
X033074Y014468D02*
X032613Y014468D01*
X032613Y014698D01*
X032690Y014775D01*
X032843Y014775D01*
X032920Y014698D01*
X032767Y014928D02*
X032613Y015082D01*
X033074Y015082D01*
X032861Y018713D02*
X032554Y018713D01*
X032440Y018804D02*
X032133Y018804D01*
X032440Y019111D01*
X032440Y019188D01*
X032364Y019265D01*
X032210Y019265D01*
X032133Y019188D01*
X032094Y019173D02*
X032324Y019173D01*
X032401Y019097D01*
X032401Y018943D01*
X032324Y018866D01*
X032094Y018866D01*
X031980Y018804D02*
X031826Y018958D01*
X031903Y018958D02*
X031673Y018958D01*
X031673Y018804D02*
X031673Y019265D01*
X031903Y019265D01*
X031980Y019188D01*
X031980Y019035D01*
X031903Y018958D01*
X032094Y019173D02*
X032094Y018713D01*
X032247Y018866D02*
X032401Y018713D01*
X032708Y018713D02*
X032708Y019173D01*
X032554Y019020D01*
X030841Y019074D02*
X030534Y019074D01*
X030764Y019304D01*
X030764Y018844D01*
X030381Y018920D02*
X030304Y018844D01*
X030150Y018844D01*
X030074Y018920D01*
X030074Y019227D01*
X030150Y019304D01*
X030304Y019304D01*
X030381Y019227D01*
X030494Y020844D02*
X030494Y021304D01*
X030725Y021304D01*
X030801Y021227D01*
X030801Y021074D01*
X030725Y020997D01*
X030494Y020997D01*
X030648Y020997D02*
X030801Y020844D01*
X030955Y020920D02*
X031032Y020844D01*
X031185Y020844D01*
X031262Y020920D01*
X031262Y021074D01*
X031185Y021151D01*
X031108Y021151D01*
X030955Y021074D01*
X030955Y021304D01*
X031262Y021304D01*
X032094Y021356D02*
X032094Y020896D01*
X032094Y021049D02*
X032324Y021049D01*
X032401Y021126D01*
X032401Y021280D01*
X032324Y021356D01*
X032094Y021356D01*
X032247Y021049D02*
X032401Y020896D01*
X032554Y020973D02*
X032631Y020896D01*
X032784Y020896D01*
X032861Y020973D01*
X032861Y021049D01*
X032784Y021126D01*
X032708Y021126D01*
X032784Y021126D02*
X032861Y021203D01*
X032861Y021280D01*
X032784Y021356D01*
X032631Y021356D01*
X032554Y021280D01*
X028060Y019818D02*
X028060Y019467D01*
X028119Y019643D02*
X027885Y019643D01*
X028060Y019818D01*
X027935Y019867D02*
X027782Y019867D01*
X027705Y019944D01*
X027701Y019818D02*
X027760Y019759D01*
X027760Y019643D01*
X027701Y019584D01*
X027526Y019584D01*
X027526Y019467D02*
X027526Y019818D01*
X027701Y019818D01*
X027551Y019944D02*
X027475Y019867D01*
X027321Y019867D01*
X027244Y019944D01*
X027244Y020251D01*
X027321Y020328D01*
X027475Y020328D01*
X027551Y020251D01*
X027705Y020251D02*
X027782Y020328D01*
X027935Y020328D01*
X028012Y020251D01*
X028012Y020174D01*
X027935Y020098D01*
X028012Y020021D01*
X028012Y019944D01*
X027935Y019867D01*
X027935Y020098D02*
X027858Y020098D01*
X027643Y019584D02*
X027760Y019467D01*
X027454Y018714D02*
X027454Y018407D01*
X027454Y018560D02*
X026994Y018560D01*
X027147Y018407D01*
X027454Y018254D02*
X027454Y017947D01*
X026994Y017947D01*
X021954Y017828D02*
X021647Y018135D01*
X021571Y018135D01*
X021494Y018058D01*
X021494Y017904D01*
X021571Y017828D01*
X021954Y017828D02*
X021954Y018135D01*
X021954Y017674D02*
X021954Y017367D01*
X021494Y017367D01*
X020327Y017325D02*
X020327Y017018D01*
X020327Y016865D02*
X020327Y016558D01*
X020327Y016711D02*
X019867Y016711D01*
X020021Y016558D01*
X020097Y016404D02*
X019944Y016404D01*
X019867Y016328D01*
X019867Y016097D01*
X020327Y016097D01*
X020174Y016097D02*
X020174Y016328D01*
X020097Y016404D01*
X020174Y016251D02*
X020327Y016404D01*
X020021Y017018D02*
X019867Y017172D01*
X020327Y017172D01*
X017242Y013041D02*
X017088Y012965D01*
X016935Y012811D01*
X017165Y012811D01*
X017242Y012734D01*
X017242Y012658D01*
X017165Y012581D01*
X017011Y012581D01*
X016935Y012658D01*
X016935Y012811D01*
X016781Y012658D02*
X016704Y012581D01*
X016551Y012581D01*
X016474Y012658D01*
X016474Y012965D01*
X016551Y013041D01*
X016704Y013041D01*
X016781Y012965D01*
X014412Y014965D02*
X014105Y014658D01*
X014105Y014581D01*
X013952Y014658D02*
X013875Y014581D01*
X013722Y014581D01*
X013645Y014658D01*
X013645Y014965D01*
X013722Y015041D01*
X013875Y015041D01*
X013952Y014965D01*
X014105Y015041D02*
X014412Y015041D01*
X014412Y014965D01*
X011992Y016853D02*
X011685Y016546D01*
X011685Y016470D01*
X011531Y016470D02*
X011378Y016623D01*
X011454Y016623D02*
X011224Y016623D01*
X011224Y016470D02*
X011224Y016930D01*
X011454Y016930D01*
X011531Y016853D01*
X011531Y016700D01*
X011454Y016623D01*
X011685Y016930D02*
X011992Y016930D01*
X011992Y016853D01*
X011952Y018470D02*
X011798Y018623D01*
X011875Y018623D02*
X011645Y018623D01*
X011645Y018470D02*
X011645Y018930D01*
X011875Y018930D01*
X011952Y018853D01*
X011952Y018700D01*
X011875Y018623D01*
X012105Y018623D02*
X012182Y018700D01*
X012336Y018700D01*
X012412Y018623D01*
X012412Y018546D01*
X012336Y018470D01*
X012182Y018470D01*
X012105Y018546D01*
X012105Y018623D01*
X012182Y018700D02*
X012105Y018777D01*
X012105Y018853D01*
X012182Y018930D01*
X012336Y018930D01*
X012412Y018853D01*
X012412Y018777D01*
X012336Y018700D01*
X012259Y012041D02*
X012105Y011888D01*
X011952Y011965D02*
X011952Y011811D01*
X011875Y011734D01*
X011645Y011734D01*
X011645Y011581D02*
X011645Y012041D01*
X011875Y012041D01*
X011952Y011965D01*
X011798Y011734D02*
X011952Y011581D01*
X012105Y011581D02*
X012412Y011581D01*
X012259Y011581D02*
X012259Y012041D01*
X012566Y011965D02*
X012566Y011658D01*
X012873Y011965D01*
X012873Y011658D01*
X012796Y011581D01*
X012643Y011581D01*
X012566Y011658D01*
X012566Y011965D02*
X012643Y012041D01*
X012796Y012041D01*
X012873Y011965D01*
X011915Y010041D02*
X011761Y010041D01*
X011685Y009965D01*
X011685Y009888D01*
X011761Y009811D01*
X011992Y009811D01*
X011992Y009658D02*
X011992Y009965D01*
X011915Y010041D01*
X011992Y009658D02*
X011915Y009581D01*
X011761Y009581D01*
X011685Y009658D01*
X011531Y009581D02*
X011378Y009734D01*
X011454Y009734D02*
X011224Y009734D01*
X011224Y009581D02*
X011224Y010041D01*
X011454Y010041D01*
X011531Y009965D01*
X011531Y009811D01*
X011454Y009734D01*
X013722Y006041D02*
X013645Y005965D01*
X013645Y005658D01*
X013722Y005581D01*
X013875Y005581D01*
X013952Y005658D01*
X014105Y005658D02*
X014182Y005581D01*
X014336Y005581D01*
X014412Y005658D01*
X014412Y005965D01*
X014336Y006041D01*
X014182Y006041D01*
X014105Y005965D01*
X014105Y005888D01*
X014182Y005811D01*
X014412Y005811D01*
X013952Y005965D02*
X013875Y006041D01*
X013722Y006041D01*
X016474Y003965D02*
X016474Y003658D01*
X016551Y003581D01*
X016704Y003581D01*
X016781Y003658D01*
X016935Y003658D02*
X016935Y003734D01*
X017011Y003811D01*
X017165Y003811D01*
X017242Y003734D01*
X017242Y003658D01*
X017165Y003581D01*
X017011Y003581D01*
X016935Y003658D01*
X017011Y003811D02*
X016935Y003888D01*
X016935Y003965D01*
X017011Y004041D01*
X017165Y004041D01*
X017242Y003965D01*
X017242Y003888D01*
X017165Y003811D01*
X016781Y003965D02*
X016704Y004041D01*
X016551Y004041D01*
X016474Y003965D01*
X030522Y006055D02*
X030598Y005979D01*
X030905Y005979D01*
X030982Y006055D01*
X030982Y006209D01*
X030905Y006286D01*
X030982Y006439D02*
X030982Y006746D01*
X030982Y006592D02*
X030522Y006592D01*
X030675Y006439D01*
X030598Y006286D02*
X030522Y006209D01*
X030522Y006055D01*
X030598Y006899D02*
X030522Y006976D01*
X030522Y007130D01*
X030598Y007206D01*
X030905Y006899D01*
X030982Y006976D01*
X030982Y007130D01*
X030905Y007206D01*
X030598Y007206D01*
X030598Y006899D02*
X030905Y006899D01*
D13*
X031029Y004502D02*
X031529Y004502D01*
X031779Y004252D01*
X031779Y002752D01*
X031529Y002502D01*
X031029Y002502D01*
X030779Y002752D01*
X030529Y002502D01*
X030029Y002502D01*
X029779Y002752D01*
X029529Y002502D01*
X029029Y002502D01*
X028779Y002752D01*
X028529Y002502D01*
X028029Y002502D01*
X027779Y002752D01*
X027529Y002502D01*
X027029Y002502D01*
X026779Y002752D01*
X026529Y002502D01*
X026029Y002502D01*
X025779Y002752D01*
X025529Y002502D01*
X025029Y002502D01*
X024779Y002752D01*
X024529Y002502D01*
X024029Y002502D01*
X023779Y002752D01*
X023529Y002502D01*
X023029Y002502D01*
X022779Y002752D01*
X022529Y002502D01*
X022029Y002502D01*
X021779Y002752D01*
X021529Y002502D01*
X021029Y002502D01*
X020779Y002752D01*
X020529Y002502D01*
X020029Y002502D01*
X019779Y002752D01*
X019529Y002502D01*
X019029Y002502D01*
X018779Y002752D01*
X018529Y002502D01*
X018029Y002502D01*
X017779Y002752D01*
X017529Y002502D01*
X017029Y002502D01*
X016779Y002752D01*
X016529Y002502D01*
X016029Y002502D01*
X015779Y002752D01*
X015529Y002502D01*
X015029Y002502D01*
X014779Y002752D01*
X014529Y002502D01*
X014029Y002502D01*
X013779Y002752D01*
X013529Y002502D01*
X013029Y002502D01*
X012779Y002752D01*
X012529Y002502D01*
X012029Y002502D01*
X011779Y002752D01*
X011779Y004252D01*
X012029Y004502D01*
X012529Y004502D01*
X012779Y004252D01*
X013029Y004502D01*
X013529Y004502D01*
X013779Y004252D01*
X014029Y004502D01*
X014529Y004502D01*
X014779Y004252D01*
X015029Y004502D01*
X015529Y004502D01*
X015779Y004252D01*
X016029Y004502D01*
X016529Y004502D01*
X016779Y004252D01*
X017029Y004502D01*
X017529Y004502D01*
X017779Y004252D01*
X018029Y004502D01*
X018529Y004502D01*
X018779Y004252D01*
X019029Y004502D01*
X019529Y004502D01*
X019779Y004252D01*
X020029Y004502D01*
X020529Y004502D01*
X020779Y004252D01*
X021029Y004502D01*
X021529Y004502D01*
X021779Y004252D01*
X022029Y004502D01*
X022529Y004502D01*
X022779Y004252D01*
X023029Y004502D01*
X023529Y004502D01*
X023779Y004252D01*
X024029Y004502D01*
X024529Y004502D01*
X024779Y004252D01*
X025029Y004502D01*
X025529Y004502D01*
X025779Y004252D01*
X026029Y004502D01*
X026529Y004502D01*
X026779Y004252D01*
X027029Y004502D01*
X027529Y004502D01*
X027779Y004252D01*
X028029Y004502D01*
X028529Y004502D01*
X028779Y004252D01*
X029029Y004502D01*
X029529Y004502D01*
X029779Y004252D01*
X030029Y004502D01*
X030529Y004502D01*
X030779Y004252D01*
X031029Y004502D01*
X028124Y019947D02*
X027974Y019947D01*
X027924Y019997D01*
X026524Y019997D01*
X026474Y019947D01*
X026324Y019947D01*
X026307Y019949D01*
X026290Y019953D01*
X026274Y019960D01*
X026260Y019970D01*
X026247Y019983D01*
X026237Y019997D01*
X026230Y020013D01*
X026226Y020030D01*
X026224Y020047D01*
X026224Y020647D01*
X026226Y020664D01*
X026230Y020681D01*
X026237Y020697D01*
X026247Y020711D01*
X026260Y020724D01*
X026274Y020734D01*
X026290Y020741D01*
X026307Y020745D01*
X026324Y020747D01*
X026474Y020747D01*
X026524Y020697D01*
X027924Y020697D01*
X027974Y020747D01*
X028124Y020747D01*
X028141Y020745D01*
X028158Y020741D01*
X028174Y020734D01*
X028188Y020724D01*
X028201Y020711D01*
X028211Y020697D01*
X028218Y020681D01*
X028222Y020664D01*
X028224Y020647D01*
X028224Y020047D01*
X028222Y020030D01*
X028218Y020013D01*
X028211Y019997D01*
X028201Y019983D01*
X028188Y019970D01*
X028174Y019960D01*
X028158Y019953D01*
X028141Y019949D01*
X028124Y019947D01*
D14*
X028299Y020347D03*
X026149Y020347D03*
D15*
X018371Y016970D02*
X018373Y017002D01*
X018379Y017033D01*
X018389Y017064D01*
X018402Y017093D01*
X018419Y017120D01*
X018439Y017145D01*
X018462Y017167D01*
X018487Y017187D01*
X018515Y017203D01*
X018545Y017215D01*
X018575Y017224D01*
X018607Y017229D01*
X018639Y017230D01*
X018671Y017227D01*
X018702Y017220D01*
X018732Y017209D01*
X018761Y017195D01*
X018788Y017177D01*
X018812Y017157D01*
X018834Y017133D01*
X018852Y017107D01*
X018867Y017079D01*
X018879Y017049D01*
X018887Y017018D01*
X018891Y016986D01*
X018891Y016954D01*
X018887Y016922D01*
X018879Y016891D01*
X018867Y016861D01*
X018852Y016833D01*
X018834Y016807D01*
X018812Y016783D01*
X018788Y016763D01*
X018761Y016745D01*
X018732Y016731D01*
X018702Y016720D01*
X018671Y016713D01*
X018639Y016710D01*
X018607Y016711D01*
X018575Y016716D01*
X018545Y016725D01*
X018515Y016737D01*
X018487Y016753D01*
X018462Y016773D01*
X018439Y016795D01*
X018419Y016820D01*
X018402Y016847D01*
X018389Y016876D01*
X018379Y016907D01*
X018373Y016938D01*
X018371Y016970D01*
X018277Y015159D02*
X018277Y019963D01*
X013473Y019963D01*
X013473Y015159D01*
X018277Y015159D01*
X020153Y011784D02*
X020153Y010367D01*
X022515Y010367D01*
X022515Y011784D01*
X020153Y011784D01*
X019949Y010170D02*
X019951Y010198D01*
X019957Y010226D01*
X019967Y010253D01*
X019980Y010278D01*
X019997Y010301D01*
X020016Y010322D01*
X020039Y010339D01*
X020064Y010353D01*
X020090Y010364D01*
X020118Y010371D01*
X020146Y010374D01*
X020174Y010373D01*
X020202Y010368D01*
X020229Y010359D01*
X020255Y010347D01*
X020279Y010331D01*
X020300Y010312D01*
X020318Y010290D01*
X020333Y010266D01*
X020345Y010240D01*
X020353Y010212D01*
X020357Y010184D01*
X020357Y010156D01*
X020353Y010128D01*
X020345Y010100D01*
X020333Y010074D01*
X020318Y010050D01*
X020300Y010028D01*
X020279Y010009D01*
X020255Y009993D01*
X020229Y009981D01*
X020202Y009972D01*
X020174Y009967D01*
X020146Y009966D01*
X020118Y009969D01*
X020090Y009976D01*
X020064Y009987D01*
X020039Y010001D01*
X020016Y010018D01*
X019997Y010039D01*
X019980Y010062D01*
X019967Y010087D01*
X019957Y010114D01*
X019951Y010142D01*
X019949Y010170D01*
X020148Y009694D02*
X020148Y008277D01*
X022510Y008277D01*
X022510Y009694D01*
X020148Y009694D01*
X018277Y010963D02*
X018277Y006159D01*
X013473Y006159D01*
X013473Y010963D01*
X018277Y010963D01*
X018371Y007970D02*
X018373Y008002D01*
X018379Y008033D01*
X018389Y008064D01*
X018402Y008093D01*
X018419Y008120D01*
X018439Y008145D01*
X018462Y008167D01*
X018487Y008187D01*
X018515Y008203D01*
X018545Y008215D01*
X018575Y008224D01*
X018607Y008229D01*
X018639Y008230D01*
X018671Y008227D01*
X018702Y008220D01*
X018732Y008209D01*
X018761Y008195D01*
X018788Y008177D01*
X018812Y008157D01*
X018834Y008133D01*
X018852Y008107D01*
X018867Y008079D01*
X018879Y008049D01*
X018887Y008018D01*
X018891Y007986D01*
X018891Y007954D01*
X018887Y007922D01*
X018879Y007891D01*
X018867Y007861D01*
X018852Y007833D01*
X018834Y007807D01*
X018812Y007783D01*
X018788Y007763D01*
X018761Y007745D01*
X018732Y007731D01*
X018702Y007720D01*
X018671Y007713D01*
X018639Y007710D01*
X018607Y007711D01*
X018575Y007716D01*
X018545Y007725D01*
X018515Y007737D01*
X018487Y007753D01*
X018462Y007773D01*
X018439Y007795D01*
X018419Y007820D01*
X018402Y007847D01*
X018389Y007876D01*
X018379Y007907D01*
X018373Y007938D01*
X018371Y007970D01*
X019944Y008080D02*
X019946Y008108D01*
X019952Y008136D01*
X019962Y008163D01*
X019975Y008188D01*
X019992Y008211D01*
X020011Y008232D01*
X020034Y008249D01*
X020059Y008263D01*
X020085Y008274D01*
X020113Y008281D01*
X020141Y008284D01*
X020169Y008283D01*
X020197Y008278D01*
X020224Y008269D01*
X020250Y008257D01*
X020274Y008241D01*
X020295Y008222D01*
X020313Y008200D01*
X020328Y008176D01*
X020340Y008150D01*
X020348Y008122D01*
X020352Y008094D01*
X020352Y008066D01*
X020348Y008038D01*
X020340Y008010D01*
X020328Y007984D01*
X020313Y007960D01*
X020295Y007938D01*
X020274Y007919D01*
X020250Y007903D01*
X020224Y007891D01*
X020197Y007882D01*
X020169Y007877D01*
X020141Y007876D01*
X020113Y007879D01*
X020085Y007886D01*
X020059Y007897D01*
X020034Y007911D01*
X020011Y007928D01*
X019992Y007949D01*
X019975Y007972D01*
X019962Y007997D01*
X019952Y008024D01*
X019946Y008052D01*
X019944Y008080D01*
X020490Y006130D02*
X020490Y002862D01*
X023640Y002862D01*
X023640Y006130D01*
X020490Y006130D01*
X007576Y006307D02*
X007576Y003157D01*
X004308Y003157D01*
X004308Y006307D01*
X007576Y006307D01*
X007576Y006971D02*
X007576Y010121D01*
X004308Y010121D01*
X004308Y006971D01*
X007576Y006971D01*
X007576Y010785D02*
X004308Y010785D01*
X004308Y013935D01*
X007576Y013935D01*
X007576Y010785D01*
X007576Y014599D02*
X004308Y014599D01*
X004308Y017749D01*
X007576Y017749D01*
X007576Y014599D01*
X006779Y019324D02*
X006306Y019324D01*
X006779Y019324D02*
X006779Y020072D01*
X004357Y019324D02*
X002487Y019324D01*
X002487Y022867D01*
X002527Y022867D01*
X001936Y022867D01*
X002340Y023114D02*
X002607Y023514D01*
X002801Y023448D02*
X002867Y023514D01*
X003001Y023514D01*
X003068Y023448D01*
X003068Y023381D01*
X002801Y023114D01*
X003068Y023114D01*
X002607Y023114D02*
X002340Y023514D01*
X002527Y022867D02*
X006779Y022867D01*
X006779Y022080D01*
X002468Y019324D02*
X001936Y019324D01*
M02*
