G75*
%MOIN*%
%OFA0B0*%
%FSLAX24Y24*%
%IPPOS*%
%LPD*%
%AMOC8*
5,1,8,0,0,1.08239X$1,22.5*
%
%ADD10OC8,0.0520*%
%ADD11C,0.0473*%
%ADD12C,0.1418*%
%ADD13C,0.0512*%
%ADD14C,0.2481*%
%ADD15OC8,0.0640*%
%ADD16OC8,0.1542*%
%ADD17OC8,0.1700*%
%ADD18R,0.1542X0.1542*%
%ADD19C,0.0591*%
D10*
X025724Y020347D03*
X028724Y020347D03*
D11*
X016478Y021402D03*
X015888Y021402D03*
X015297Y021402D03*
X014707Y021402D03*
D12*
X006277Y003953D03*
X006277Y005512D03*
X006277Y007767D03*
X006277Y009326D03*
X006277Y011581D03*
X006277Y013140D03*
X006277Y015395D03*
X006277Y016954D03*
X021285Y004831D03*
X022844Y004831D03*
D13*
X032359Y005987D03*
X032359Y006775D03*
X032359Y007562D03*
X032359Y008349D03*
X032359Y009137D03*
X032359Y009924D03*
X032359Y010712D03*
X032359Y011499D03*
X032359Y012286D03*
X032359Y013074D03*
D14*
X033196Y003502D03*
X010361Y003502D03*
X010361Y022793D03*
X033196Y022793D03*
D15*
X031279Y004002D03*
X030279Y004002D03*
X029279Y004002D03*
X028279Y004002D03*
X027279Y004002D03*
X026279Y004002D03*
X025279Y004002D03*
X024279Y004002D03*
X024279Y003002D03*
X025279Y003002D03*
X026279Y003002D03*
X027279Y003002D03*
X028279Y003002D03*
X029279Y003002D03*
X030279Y003002D03*
X031279Y003002D03*
D16*
X005342Y019206D03*
D17*
X006523Y021095D03*
D18*
X004160Y021095D03*
D19*
X017719Y020726D03*
X025716Y021218D03*
X030391Y021218D03*
X031498Y017158D03*
X026085Y015928D03*
X026454Y011253D03*
X031252Y007562D03*
X030514Y007193D03*
X031252Y005101D03*
X017719Y011499D03*
X012506Y007295D03*
M02*
