G75*
%MOIN*%
%OFA0B0*%
%FSLAX24Y24*%
%IPPOS*%
%LPD*%
%AMOC8*
5,1,8,0,0,1.08239X$1,22.5*
%
%ADD10C,0.0050*%
D10*
X002290Y002124D02*
X033393Y002124D01*
X033459Y002126D01*
X033525Y002131D01*
X033591Y002141D01*
X033656Y002154D01*
X033720Y002170D01*
X033783Y002190D01*
X033845Y002214D01*
X033905Y002241D01*
X033964Y002271D01*
X034021Y002305D01*
X034076Y002342D01*
X034129Y002382D01*
X034180Y002424D01*
X034228Y002470D01*
X034274Y002518D01*
X034316Y002569D01*
X034356Y002622D01*
X034393Y002677D01*
X034427Y002734D01*
X034457Y002793D01*
X034484Y002853D01*
X034508Y002915D01*
X034528Y002978D01*
X034544Y003042D01*
X034557Y003107D01*
X034567Y003173D01*
X034572Y003239D01*
X034574Y003305D01*
X034574Y022990D01*
X034572Y023056D01*
X034567Y023122D01*
X034557Y023188D01*
X034544Y023253D01*
X034528Y023317D01*
X034508Y023380D01*
X034484Y023442D01*
X034457Y023502D01*
X034427Y023561D01*
X034393Y023618D01*
X034356Y023673D01*
X034316Y023726D01*
X034274Y023777D01*
X034228Y023825D01*
X034180Y023871D01*
X034129Y023913D01*
X034076Y023953D01*
X034021Y023990D01*
X033964Y024024D01*
X033905Y024054D01*
X033845Y024081D01*
X033783Y024105D01*
X033720Y024125D01*
X033656Y024141D01*
X033591Y024154D01*
X033525Y024164D01*
X033459Y024169D01*
X033393Y024171D01*
X002290Y024171D01*
X002224Y024169D01*
X002158Y024164D01*
X002092Y024154D01*
X002027Y024141D01*
X001963Y024125D01*
X001900Y024105D01*
X001838Y024081D01*
X001778Y024054D01*
X001719Y024024D01*
X001662Y023990D01*
X001607Y023953D01*
X001554Y023913D01*
X001503Y023871D01*
X001455Y023825D01*
X001409Y023777D01*
X001367Y023726D01*
X001327Y023673D01*
X001290Y023618D01*
X001256Y023561D01*
X001226Y023502D01*
X001199Y023442D01*
X001175Y023380D01*
X001155Y023317D01*
X001139Y023253D01*
X001126Y023188D01*
X001116Y023122D01*
X001111Y023056D01*
X001109Y022990D01*
X001109Y003305D01*
X001111Y003239D01*
X001116Y003173D01*
X001126Y003107D01*
X001139Y003042D01*
X001155Y002978D01*
X001175Y002915D01*
X001199Y002853D01*
X001226Y002793D01*
X001256Y002734D01*
X001290Y002677D01*
X001327Y002622D01*
X001367Y002569D01*
X001409Y002518D01*
X001455Y002470D01*
X001503Y002424D01*
X001554Y002382D01*
X001607Y002342D01*
X001662Y002305D01*
X001719Y002271D01*
X001778Y002241D01*
X001838Y002214D01*
X001900Y002190D01*
X001963Y002170D01*
X002027Y002154D01*
X002092Y002141D01*
X002158Y002131D01*
X002224Y002126D01*
X002290Y002124D01*
M02*
