G75*
%MOIN*%
%OFA0B0*%
%FSLAX24Y24*%
%IPPOS*%
%LPD*%
%AMOC8*
5,1,8,0,0,1.08239X$1,22.5*
%
%ADD10R,0.0678X0.0276*%
%ADD11R,0.0434X0.0473*%
%ADD12OC8,0.0520*%
%ADD13R,0.0670X0.1103*%
%ADD14R,0.0670X0.0749*%
%ADD15R,0.0473X0.0434*%
%ADD16R,0.1615X0.0749*%
%ADD17R,0.0827X0.0827*%
%ADD18R,0.2009X0.1418*%
%ADD19R,0.0827X0.1418*%
%ADD20R,0.1221X0.0512*%
%ADD21R,0.2123X0.1221*%
%ADD22R,0.1414X0.1221*%
%ADD23R,0.1221X0.2123*%
%ADD24R,0.0512X0.1221*%
%ADD25R,0.0631X0.0512*%
%ADD26C,0.0473*%
%ADD27C,0.1418*%
%ADD28C,0.0512*%
%ADD29R,0.0434X0.0257*%
%ADD30C,0.2481*%
%ADD31OC8,0.0640*%
%ADD32OC8,0.1542*%
%ADD33OC8,0.1700*%
%ADD34R,0.1542X0.1542*%
%ADD35C,0.0591*%
D10*
X027514Y016347D03*
X027514Y016847D03*
X027514Y017347D03*
X027514Y017847D03*
X029435Y017847D03*
X029435Y017347D03*
X029435Y016847D03*
X029435Y016347D03*
D11*
X030390Y015197D03*
X031059Y015197D03*
X031989Y018443D03*
X032658Y018443D03*
X032658Y019534D03*
X031989Y019534D03*
X031989Y020626D03*
X032658Y020626D03*
X031059Y020574D03*
X030390Y020574D03*
X027157Y012016D03*
X026488Y012016D03*
X025804Y012016D03*
X025135Y012016D03*
X031252Y006543D03*
X031252Y005874D03*
X012210Y010311D03*
X011540Y010311D03*
X011540Y011311D03*
X012210Y011311D03*
X012210Y017200D03*
X011540Y017200D03*
X011540Y018200D03*
X012210Y018200D03*
D12*
X025724Y020347D03*
X028724Y020347D03*
D13*
X028526Y019097D03*
X027423Y019097D03*
X027423Y014597D03*
X028526Y014597D03*
X017176Y013811D03*
X016074Y013811D03*
X014926Y013811D03*
X013824Y013811D03*
X013824Y004811D03*
X014926Y004811D03*
X016074Y004811D03*
X017176Y004811D03*
D14*
X023923Y015847D03*
X025026Y015847D03*
D15*
X026488Y012975D03*
X027157Y012975D03*
X030390Y016042D03*
X031059Y016042D03*
X032482Y015032D03*
X032482Y014363D03*
X033344Y014363D03*
X033344Y015032D03*
X031059Y019574D03*
X030390Y019574D03*
X019597Y017543D03*
X019597Y016874D03*
D16*
X023224Y017113D03*
X025724Y017113D03*
X025724Y019082D03*
X023224Y019082D03*
D17*
X023766Y014597D03*
X025183Y014597D03*
D18*
X020743Y011076D03*
X020738Y008985D03*
D19*
X022510Y008985D03*
X022515Y011076D03*
D20*
X018032Y010364D03*
X018032Y009463D03*
X018032Y008561D03*
X013718Y008561D03*
X013718Y010364D03*
X013718Y017561D03*
X013718Y019364D03*
X018032Y019364D03*
X018032Y018463D03*
X018032Y017561D03*
D21*
X017582Y015403D03*
X017582Y006403D03*
D22*
X015424Y006403D03*
X015424Y015403D03*
D23*
X013718Y015854D03*
X013718Y006854D03*
D24*
X014973Y010718D03*
X015875Y010718D03*
X016777Y010718D03*
X016777Y019718D03*
X015875Y019718D03*
X014973Y019718D03*
D25*
X013422Y018463D03*
X013422Y009463D03*
D26*
X014707Y021402D03*
X015297Y021402D03*
X015888Y021402D03*
X016478Y021402D03*
D27*
X006277Y003953D03*
X006277Y005512D03*
X006277Y007767D03*
X006277Y009326D03*
X006277Y011581D03*
X006277Y013140D03*
X006277Y015395D03*
X006277Y016954D03*
X021285Y004831D03*
X022844Y004831D03*
D28*
X032359Y005987D03*
X032359Y006775D03*
X032359Y007562D03*
X032359Y008349D03*
X032359Y009137D03*
X032359Y009924D03*
X032359Y010712D03*
X032359Y011499D03*
X032359Y012286D03*
X032359Y013074D03*
D29*
X030430Y006706D03*
X030430Y006332D03*
X030430Y005958D03*
X029367Y005958D03*
X029367Y006706D03*
D30*
X033196Y003502D03*
X010361Y003502D03*
X010361Y022793D03*
X033196Y022793D03*
D31*
X031279Y004002D03*
X030279Y004002D03*
X029279Y004002D03*
X028279Y004002D03*
X027279Y004002D03*
X026279Y004002D03*
X025279Y004002D03*
X024279Y004002D03*
X024279Y003002D03*
X025279Y003002D03*
X026279Y003002D03*
X027279Y003002D03*
X028279Y003002D03*
X029279Y003002D03*
X030279Y003002D03*
X031279Y003002D03*
D32*
X005342Y019206D03*
D33*
X006523Y021095D03*
D34*
X004160Y021095D03*
D35*
X017719Y020726D03*
X025716Y021218D03*
X030391Y021218D03*
X031498Y017158D03*
X026085Y015928D03*
X026454Y011253D03*
X031252Y007562D03*
X030514Y007193D03*
X031252Y005101D03*
X017719Y011499D03*
X012506Y007295D03*
M02*
