G75*
%MOIN*%
%OFA0B0*%
%FSLAX24Y24*%
%IPPOS*%
%LPD*%
%AMOC8*
5,1,8,0,0,1.08239X$1,22.5*
%
%ADD10R,0.0638X0.0236*%
%ADD11R,0.0394X0.0433*%
%ADD12OC8,0.0520*%
%ADD13R,0.0630X0.1063*%
%ADD14R,0.0630X0.0709*%
%ADD15R,0.0433X0.0394*%
%ADD16R,0.1575X0.0709*%
%ADD17R,0.0787X0.0787*%
%ADD18C,0.0860*%
%ADD19R,0.1969X0.1378*%
%ADD20R,0.0787X0.1378*%
%ADD21R,0.1181X0.0472*%
%ADD22R,0.2083X0.1181*%
%ADD23R,0.1374X0.1181*%
%ADD24R,0.1181X0.2083*%
%ADD25R,0.0472X0.1181*%
%ADD26R,0.0591X0.0472*%
%ADD27C,0.0476*%
%ADD28C,0.1378*%
%ADD29C,0.1969*%
%ADD30C,0.0787*%
%ADD31C,0.0236*%
%ADD32C,0.0591*%
%ADD33C,0.0039*%
%ADD34C,0.0512*%
%ADD35C,0.0551*%
%ADD36C,0.0394*%
D10*
X003391Y008659D03*
X003391Y009159D03*
X003391Y009659D03*
X003391Y010159D03*
X005313Y010159D03*
X005313Y009659D03*
X005313Y009159D03*
X005313Y008659D03*
D11*
X002437Y008909D03*
X001767Y008909D03*
X001767Y007540D03*
X002437Y007540D03*
X002437Y006540D03*
X001767Y006540D03*
X001767Y005294D03*
X002437Y005294D03*
X002437Y011409D03*
X001767Y011409D03*
X011009Y016024D03*
X011679Y016024D03*
X019017Y015909D03*
X019687Y015909D03*
X019687Y016909D03*
X019017Y016909D03*
X019017Y009159D03*
X019687Y009159D03*
X019687Y008159D03*
X019017Y008159D03*
D12*
X007102Y012659D03*
X004102Y012659D03*
D13*
X004301Y011409D03*
X005403Y011409D03*
X005403Y006909D03*
X004301Y006909D03*
X014051Y002659D03*
X015153Y002659D03*
X016301Y002659D03*
X017403Y002659D03*
X017403Y011659D03*
X016301Y011659D03*
X015153Y011659D03*
X014051Y011659D03*
D14*
X008903Y008159D03*
X007801Y008159D03*
D15*
X002437Y010409D03*
X001767Y010409D03*
X001767Y004294D03*
X002437Y004294D03*
D16*
X007102Y009425D03*
X007102Y011393D03*
X009602Y011393D03*
X009602Y009425D03*
D17*
X009061Y006909D03*
X007643Y006909D03*
D18*
X005533Y015221D02*
X005533Y016081D01*
X004782Y017541D02*
X003922Y017541D01*
X003171Y016081D02*
X003171Y015221D01*
D19*
X009081Y015139D03*
X009204Y003925D03*
D20*
X007433Y003925D03*
X007310Y015139D03*
D21*
X013194Y015409D03*
X013194Y016311D03*
X013194Y017212D03*
X017509Y017212D03*
X017509Y015409D03*
X017509Y008212D03*
X017509Y006409D03*
X013194Y006409D03*
X013194Y007311D03*
X013194Y008212D03*
D22*
X013645Y004252D03*
X013645Y013252D03*
D23*
X015803Y013252D03*
X015803Y004252D03*
D24*
X017509Y004702D03*
X017509Y013702D03*
D25*
X016254Y017567D03*
X015352Y017567D03*
X014450Y017567D03*
X014450Y008567D03*
X015352Y008567D03*
X016254Y008567D03*
D26*
X017805Y007311D03*
X017805Y016311D03*
D27*
X011353Y017651D03*
X010762Y017651D03*
X010172Y017651D03*
X009581Y017651D03*
D28*
X020352Y013189D03*
X020352Y011630D03*
X020352Y006189D03*
X020352Y004630D03*
X005881Y003909D03*
X004322Y003909D03*
D29*
X001602Y001159D03*
X001602Y018659D03*
X021352Y018659D03*
X021352Y001159D03*
D30*
X020352Y002903D02*
X018553Y001104D01*
X012401Y001104D01*
X005657Y001104D01*
X004301Y002460D01*
X004301Y003931D01*
X004322Y003909D01*
X004301Y003931D02*
X004301Y006909D01*
X004301Y009716D01*
X004301Y011409D01*
X004301Y012460D01*
X004102Y012659D01*
X004102Y015432D01*
X003912Y015622D01*
X003200Y015622D01*
X003171Y015651D01*
X003174Y015654D01*
X003174Y017221D01*
X003494Y017541D01*
X004352Y017541D01*
X005533Y015651D02*
X005533Y012568D01*
X005403Y012438D01*
X005403Y011409D01*
X005419Y011393D01*
X007102Y011393D01*
X007102Y012659D02*
X008966Y012659D01*
X009602Y012023D01*
X009602Y011393D01*
X011171Y011685D02*
X011196Y011659D01*
X014051Y011659D01*
X014051Y012250D01*
X013645Y012655D01*
X013645Y013252D01*
X015153Y011659D02*
X015153Y010623D01*
X014985Y010454D01*
X018061Y010454D01*
X019236Y011630D01*
X020352Y011630D01*
X020352Y013189D02*
X019263Y013189D01*
X018750Y013702D01*
X017509Y013702D01*
X017403Y013596D01*
X017403Y011659D01*
X016301Y011659D02*
X015846Y011659D01*
X015803Y011702D01*
X015803Y013252D01*
X015846Y011659D02*
X015153Y011659D01*
X014985Y010454D02*
X012401Y010454D01*
X011171Y011685D02*
X011171Y003934D01*
X009213Y003934D01*
X009204Y003925D01*
X007433Y003925D02*
X005897Y003925D01*
X005881Y003909D01*
X005881Y005532D01*
X005403Y006010D01*
X005403Y006909D01*
X006742Y006909D01*
X007643Y006909D01*
X011171Y003934D02*
X011171Y003688D01*
X012199Y002659D01*
X014051Y002659D01*
X014051Y003846D01*
X013645Y004252D01*
X015153Y002659D02*
X015846Y002659D01*
X015803Y002702D01*
X015803Y004252D01*
X015846Y002659D02*
X016301Y002659D01*
X017403Y002659D02*
X017403Y004596D01*
X017509Y004702D01*
X017602Y004795D01*
X018430Y004795D01*
X018799Y005164D01*
X018799Y005656D01*
X019331Y006189D01*
X020352Y006189D01*
X020352Y004630D02*
X020352Y002903D01*
X011171Y011685D02*
X011171Y014391D01*
X010423Y015139D01*
X010310Y015139D01*
X009081Y015139D01*
X007310Y015139D02*
X007290Y015159D01*
X006712Y015159D01*
X006220Y015651D01*
X005533Y015651D01*
D31*
X007111Y013530D02*
X007102Y013521D01*
X007102Y012659D01*
X005403Y011409D02*
X005403Y010592D01*
X005313Y010502D01*
X005313Y010159D01*
X005313Y009659D02*
X005313Y009159D01*
X004585Y009159D01*
X004527Y009101D01*
X004358Y009659D02*
X004301Y009716D01*
X004358Y009659D02*
X005313Y009659D01*
X005313Y008659D02*
X005931Y008659D01*
X006619Y009347D01*
X007024Y009347D01*
X007102Y009425D01*
X006742Y008240D02*
X006742Y006909D01*
X003391Y008088D02*
X003297Y007994D01*
X003297Y004672D01*
X002919Y004294D01*
X002437Y004294D01*
X001767Y004294D02*
X001767Y005294D01*
X001767Y006540D02*
X001767Y007540D01*
X002437Y007540D02*
X002437Y008909D01*
X002736Y008909D01*
X002986Y009159D01*
X003391Y009159D01*
X003391Y008659D02*
X003391Y008088D01*
X003391Y009659D02*
X002001Y009659D01*
X001767Y009892D01*
X001767Y010409D01*
X001767Y011409D01*
X002436Y011410D02*
X002437Y011409D01*
X002436Y011410D02*
X002436Y013530D01*
X001767Y008909D02*
X001767Y008310D01*
X001697Y008240D01*
X010310Y015139D02*
X010310Y015868D01*
X010466Y016024D01*
X011009Y016024D01*
X011679Y016024D02*
X011679Y015729D01*
X011999Y015409D01*
X013194Y015409D01*
X011679Y016024D02*
X011679Y017325D01*
X011353Y017651D01*
X012276Y018574D01*
X013508Y018574D01*
X015352Y018326D02*
X015352Y017567D01*
X015354Y017344D02*
X015354Y013284D01*
X018430Y016114D02*
X018634Y015909D01*
X019017Y015909D01*
X018430Y016114D02*
X018430Y017098D01*
X018316Y017212D01*
X017509Y017212D01*
X018430Y018574D02*
X015600Y018574D01*
X015352Y018326D01*
X018430Y018574D02*
X019017Y017987D01*
X019017Y016909D01*
X019687Y016909D02*
X019687Y015909D01*
X016830Y009470D02*
X015477Y009470D01*
X015354Y009347D01*
X015354Y008569D01*
X015352Y008567D01*
X015354Y008486D02*
X015354Y004426D01*
X013194Y006409D02*
X012386Y006409D01*
X012155Y006640D01*
X012155Y008855D01*
X012647Y009347D01*
X013508Y009347D01*
X016830Y009470D02*
X017141Y009159D01*
X019017Y009159D01*
X019687Y009159D02*
X019687Y008159D01*
X019017Y008159D02*
X017563Y008159D01*
X017509Y008212D01*
D32*
X012401Y010454D03*
X012401Y001104D03*
D33*
X001029Y000579D02*
X001029Y019235D01*
X021932Y019235D01*
X021932Y010075D01*
X013165Y010075D01*
X013026Y009937D01*
X013026Y009741D01*
X013086Y009682D01*
X012581Y009682D01*
X012458Y009631D01*
X012364Y009537D01*
X011871Y009044D01*
X011820Y008921D01*
X011820Y006574D01*
X011871Y006451D01*
X011966Y006357D01*
X012197Y006125D01*
X012320Y006074D01*
X012396Y006074D01*
X012514Y005956D01*
X012923Y005956D01*
X012923Y005059D01*
X012514Y005059D01*
X012387Y004932D01*
X012387Y003571D01*
X012514Y003444D01*
X013441Y003444D01*
X013441Y003269D01*
X012452Y003269D01*
X011781Y003940D01*
X011781Y011049D01*
X013519Y011049D01*
X013519Y011038D01*
X013646Y010911D01*
X014455Y010911D01*
X014582Y011038D01*
X014582Y011348D01*
X014661Y011538D01*
X014661Y012371D01*
X014631Y012444D01*
X014776Y012444D01*
X014903Y012571D01*
X014903Y012944D01*
X016702Y012944D01*
X016702Y012571D01*
X016793Y012481D01*
X016793Y011538D01*
X016872Y011348D01*
X016872Y011038D01*
X016998Y010911D01*
X017808Y010911D01*
X017935Y011038D01*
X017935Y011348D01*
X018013Y011538D01*
X018013Y012444D01*
X018190Y012444D01*
X018317Y012571D01*
X018317Y013092D01*
X018497Y013092D01*
X018918Y012671D01*
X019142Y012578D01*
X019682Y012578D01*
X019839Y012421D01*
X020172Y012283D01*
X020532Y012283D01*
X020865Y012421D01*
X021120Y012676D01*
X021257Y013008D01*
X021257Y013369D01*
X021120Y013702D01*
X020865Y013956D01*
X020532Y014094D01*
X020172Y014094D01*
X019839Y013956D01*
X019682Y013799D01*
X019516Y013799D01*
X019267Y014048D01*
X019095Y014220D01*
X018871Y014313D01*
X018317Y014313D01*
X018317Y014833D01*
X018192Y014958D01*
X018317Y015083D01*
X018317Y015735D01*
X018192Y015860D01*
X018201Y015869D01*
X018351Y015719D01*
X018445Y015625D01*
X018568Y015574D01*
X018632Y015574D01*
X018731Y015476D01*
X019304Y015476D01*
X019352Y015524D01*
X019400Y015476D01*
X019973Y015476D01*
X020100Y015603D01*
X020100Y016215D01*
X020021Y016294D01*
X020021Y016524D01*
X020100Y016603D01*
X020100Y017215D01*
X019973Y017342D01*
X019400Y017342D01*
X019273Y017215D01*
X019273Y016603D01*
X019352Y016524D01*
X019352Y016294D01*
X019304Y016342D01*
X018764Y016342D01*
X018764Y017165D01*
X018713Y017288D01*
X018619Y017382D01*
X018505Y017496D01*
X018382Y017547D01*
X018308Y017547D01*
X018190Y017665D01*
X017785Y017665D01*
X017785Y017680D01*
X017658Y017807D01*
X016706Y017807D01*
X016706Y018247D01*
X016579Y018374D01*
X015928Y018374D01*
X015801Y018247D01*
X015801Y017807D01*
X014903Y017807D01*
X014903Y018247D01*
X014776Y018374D01*
X014124Y018374D01*
X013998Y018247D01*
X013998Y017807D01*
X013050Y017807D01*
X012923Y017680D01*
X012923Y017665D01*
X012514Y017665D01*
X012387Y017538D01*
X012387Y016886D01*
X012512Y016761D01*
X012387Y016637D01*
X012387Y015985D01*
X012512Y015860D01*
X012396Y015744D01*
X012137Y015744D01*
X012092Y015789D01*
X012092Y016330D01*
X012013Y016409D01*
X012013Y017392D01*
X011962Y017515D01*
X011826Y017651D01*
X012415Y018240D01*
X013147Y018240D01*
X013230Y018157D01*
X013411Y018082D01*
X013606Y018082D01*
X013787Y018157D01*
X013926Y018296D01*
X014001Y018477D01*
X014001Y018672D01*
X013926Y018853D01*
X013787Y018992D01*
X013606Y019067D01*
X013411Y019067D01*
X013230Y018992D01*
X013147Y018909D01*
X012210Y018909D01*
X012087Y018858D01*
X011334Y018106D01*
X011263Y018106D01*
X011096Y018036D01*
X011058Y017998D01*
X011020Y018036D01*
X010853Y018106D01*
X010672Y018106D01*
X010505Y018036D01*
X010467Y017998D01*
X010429Y018036D01*
X010262Y018106D01*
X010081Y018106D01*
X009914Y018036D01*
X009787Y017909D01*
X009718Y017742D01*
X009718Y017561D01*
X009787Y017394D01*
X009914Y017266D01*
X010081Y017197D01*
X010262Y017197D01*
X010429Y017266D01*
X010467Y017304D01*
X010505Y017266D01*
X010672Y017197D01*
X010853Y017197D01*
X011020Y017266D01*
X011058Y017304D01*
X011096Y017266D01*
X011263Y017197D01*
X011334Y017197D01*
X011344Y017187D01*
X011344Y016409D01*
X011296Y016457D01*
X010723Y016457D01*
X010624Y016359D01*
X010400Y016359D01*
X010277Y016308D01*
X010120Y016151D01*
X010026Y016057D01*
X010021Y016045D01*
X008007Y016045D01*
X007900Y015938D01*
X007793Y016045D01*
X006826Y016045D01*
X006758Y015976D01*
X006737Y015997D01*
X006566Y016169D01*
X006341Y016261D01*
X006158Y016261D01*
X006081Y016447D01*
X005899Y016629D01*
X005662Y016728D01*
X005404Y016728D01*
X005167Y016629D01*
X004985Y016447D01*
X004887Y016210D01*
X004887Y015093D01*
X004923Y015005D01*
X004923Y012820D01*
X004886Y012783D01*
X004793Y012559D01*
X004793Y011288D01*
X004872Y011098D01*
X004872Y010788D01*
X004998Y010661D01*
X005016Y010661D01*
X004978Y010568D01*
X004978Y010494D01*
X004904Y010494D01*
X004777Y010367D01*
X004777Y009951D01*
X004904Y009824D01*
X005721Y009824D01*
X005848Y009951D01*
X005848Y010367D01*
X005724Y010491D01*
X005738Y010526D01*
X005738Y010661D01*
X005808Y010661D01*
X005930Y010783D01*
X007223Y010783D01*
X007318Y010822D01*
X007979Y010822D01*
X008106Y010949D01*
X008106Y011837D01*
X007979Y011964D01*
X007318Y011964D01*
X007223Y012004D01*
X006013Y012004D01*
X006013Y012185D01*
X006050Y012222D01*
X006143Y012446D01*
X006143Y014865D01*
X006367Y014642D01*
X006591Y014549D01*
X006699Y014549D01*
X006699Y014361D01*
X006826Y014234D01*
X007793Y014234D01*
X007900Y014341D01*
X008007Y014234D01*
X010155Y014234D01*
X010282Y014361D01*
X010282Y014417D01*
X010561Y014139D01*
X010561Y011883D01*
X010479Y011964D01*
X010212Y011964D01*
X010212Y012145D01*
X010119Y012369D01*
X009483Y013005D01*
X009312Y013176D01*
X009088Y013269D01*
X007535Y013269D01*
X007603Y013432D01*
X007603Y013628D01*
X007528Y013809D01*
X007390Y013947D01*
X007209Y014022D01*
X007013Y014022D01*
X006832Y013947D01*
X006694Y013809D01*
X006619Y013628D01*
X006619Y013432D01*
X006694Y013251D01*
X006765Y013180D01*
X006756Y013176D01*
X006585Y013005D01*
X006492Y012780D01*
X006492Y012538D01*
X006585Y012313D01*
X006756Y012142D01*
X006981Y012049D01*
X008713Y012049D01*
X008798Y011964D01*
X008725Y011964D01*
X008598Y011837D01*
X008598Y010949D01*
X008725Y010822D01*
X009386Y010822D01*
X009481Y010783D01*
X009723Y010783D01*
X009818Y010822D01*
X010479Y010822D01*
X010561Y010904D01*
X010561Y009914D01*
X010479Y009996D01*
X008725Y009996D01*
X008598Y009869D01*
X008598Y008981D01*
X008691Y008888D01*
X008566Y008763D01*
X008532Y008730D01*
X008498Y008730D01*
X008372Y008603D01*
X008372Y008483D01*
X008361Y008457D01*
X008361Y008135D01*
X008372Y008109D01*
X008372Y007715D01*
X008431Y007656D01*
X008431Y007584D01*
X008493Y007435D01*
X008450Y007392D01*
X008254Y007392D01*
X008127Y007519D01*
X007076Y007519D01*
X007076Y007878D01*
X007159Y007961D01*
X007234Y008142D01*
X007234Y008338D01*
X007167Y008500D01*
X007212Y008454D01*
X007269Y008397D01*
X007269Y007715D01*
X007396Y007588D01*
X008205Y007588D01*
X008332Y007715D01*
X008332Y008603D01*
X008249Y008686D01*
X008201Y008802D01*
X008064Y008939D01*
X008106Y008981D01*
X008106Y009869D01*
X007979Y009996D01*
X006225Y009996D01*
X006098Y009869D01*
X006098Y009300D01*
X005792Y008994D01*
X004904Y008994D01*
X004777Y008867D01*
X004777Y008451D01*
X004904Y008324D01*
X005997Y008324D01*
X006120Y008375D01*
X006599Y008854D01*
X007007Y008854D01*
X007007Y008761D01*
X007072Y008606D01*
X007020Y008657D01*
X006840Y008732D01*
X006644Y008732D01*
X006463Y008657D01*
X006325Y008519D01*
X006250Y008338D01*
X006031Y008338D01*
X006121Y008376D02*
X006266Y008376D01*
X006281Y008414D02*
X006159Y008414D01*
X006197Y008452D02*
X006297Y008452D01*
X006313Y008490D02*
X006235Y008490D01*
X006273Y008528D02*
X006334Y008528D01*
X006311Y008566D02*
X006372Y008566D01*
X006348Y008604D02*
X006410Y008604D01*
X006386Y008641D02*
X006447Y008641D01*
X006424Y008679D02*
X006517Y008679D01*
X006462Y008717D02*
X006608Y008717D01*
X006538Y008793D02*
X007007Y008793D01*
X007007Y008831D02*
X006576Y008831D01*
X006500Y008755D02*
X007010Y008755D01*
X007026Y008717D02*
X006875Y008717D01*
X006967Y008679D02*
X007041Y008679D01*
X007036Y008641D02*
X007057Y008641D01*
X007171Y008490D02*
X007177Y008490D01*
X007186Y008452D02*
X007215Y008452D01*
X007202Y008414D02*
X007252Y008414D01*
X007269Y008376D02*
X007218Y008376D01*
X007234Y008338D02*
X007269Y008338D01*
X007269Y008301D02*
X007234Y008301D01*
X007234Y008263D02*
X007269Y008263D01*
X007269Y008225D02*
X007234Y008225D01*
X007234Y008187D02*
X007269Y008187D01*
X007269Y008149D02*
X007234Y008149D01*
X007221Y008111D02*
X007269Y008111D01*
X007269Y008073D02*
X007205Y008073D01*
X007190Y008036D02*
X007269Y008036D01*
X007269Y007998D02*
X007174Y007998D01*
X007158Y007960D02*
X007269Y007960D01*
X007269Y007922D02*
X007120Y007922D01*
X007082Y007884D02*
X007269Y007884D01*
X007269Y007846D02*
X007076Y007846D01*
X007076Y007808D02*
X007269Y007808D01*
X007269Y007770D02*
X007076Y007770D01*
X007076Y007733D02*
X007269Y007733D01*
X007290Y007695D02*
X007076Y007695D01*
X007076Y007657D02*
X007328Y007657D01*
X007365Y007619D02*
X007076Y007619D01*
X007076Y007581D02*
X008432Y007581D01*
X008431Y007619D02*
X008236Y007619D01*
X008274Y007657D02*
X008430Y007657D01*
X008392Y007695D02*
X008312Y007695D01*
X008332Y007733D02*
X008372Y007733D01*
X008372Y007770D02*
X008332Y007770D01*
X008332Y007808D02*
X008372Y007808D01*
X008372Y007846D02*
X008332Y007846D01*
X008332Y007884D02*
X008372Y007884D01*
X008372Y007922D02*
X008332Y007922D01*
X008332Y007960D02*
X008372Y007960D01*
X008372Y007998D02*
X008332Y007998D01*
X008332Y008036D02*
X008372Y008036D01*
X008372Y008073D02*
X008332Y008073D01*
X008332Y008111D02*
X008371Y008111D01*
X008361Y008149D02*
X008332Y008149D01*
X008332Y008187D02*
X008361Y008187D01*
X008361Y008225D02*
X008332Y008225D01*
X008332Y008263D02*
X008361Y008263D01*
X008361Y008301D02*
X008332Y008301D01*
X008332Y008338D02*
X008361Y008338D01*
X008361Y008376D02*
X008332Y008376D01*
X008332Y008414D02*
X008361Y008414D01*
X008361Y008452D02*
X008332Y008452D01*
X008332Y008490D02*
X008372Y008490D01*
X008372Y008528D02*
X008332Y008528D01*
X008332Y008566D02*
X008372Y008566D01*
X008372Y008604D02*
X008332Y008604D01*
X008294Y008641D02*
X008410Y008641D01*
X008448Y008679D02*
X008256Y008679D01*
X008236Y008717D02*
X008486Y008717D01*
X008557Y008755D02*
X008221Y008755D01*
X008205Y008793D02*
X008595Y008793D01*
X008633Y008831D02*
X008172Y008831D01*
X008134Y008869D02*
X008671Y008869D01*
X008672Y008907D02*
X008096Y008907D01*
X008070Y008944D02*
X008634Y008944D01*
X008598Y008982D02*
X008106Y008982D01*
X008106Y009020D02*
X008598Y009020D01*
X008598Y009058D02*
X008106Y009058D01*
X008106Y009096D02*
X008598Y009096D01*
X008598Y009134D02*
X008106Y009134D01*
X008106Y009172D02*
X008598Y009172D01*
X008598Y009210D02*
X008106Y009210D01*
X008106Y009247D02*
X008598Y009247D01*
X008598Y009285D02*
X008106Y009285D01*
X008106Y009323D02*
X008598Y009323D01*
X008598Y009361D02*
X008106Y009361D01*
X008106Y009399D02*
X008598Y009399D01*
X008598Y009437D02*
X008106Y009437D01*
X008106Y009475D02*
X008598Y009475D01*
X008598Y009512D02*
X008106Y009512D01*
X008106Y009550D02*
X008598Y009550D01*
X008598Y009588D02*
X008106Y009588D01*
X008106Y009626D02*
X008598Y009626D01*
X008598Y009664D02*
X008106Y009664D01*
X008106Y009702D02*
X008598Y009702D01*
X008598Y009740D02*
X008106Y009740D01*
X008106Y009778D02*
X008598Y009778D01*
X008598Y009815D02*
X008106Y009815D01*
X008106Y009853D02*
X008598Y009853D01*
X008620Y009891D02*
X008084Y009891D01*
X008046Y009929D02*
X008658Y009929D01*
X008696Y009967D02*
X008008Y009967D01*
X007995Y010838D02*
X008709Y010838D01*
X008672Y010876D02*
X008032Y010876D01*
X008070Y010914D02*
X008634Y010914D01*
X008598Y010952D02*
X008106Y010952D01*
X008106Y010989D02*
X008598Y010989D01*
X008598Y011027D02*
X008106Y011027D01*
X008106Y011065D02*
X008598Y011065D01*
X008598Y011103D02*
X008106Y011103D01*
X008106Y011141D02*
X008598Y011141D01*
X008598Y011179D02*
X008106Y011179D01*
X008106Y011217D02*
X008598Y011217D01*
X008598Y011255D02*
X008106Y011255D01*
X008106Y011292D02*
X008598Y011292D01*
X008598Y011330D02*
X008106Y011330D01*
X008106Y011368D02*
X008598Y011368D01*
X008598Y011406D02*
X008106Y011406D01*
X008106Y011444D02*
X008598Y011444D01*
X008598Y011482D02*
X008106Y011482D01*
X008106Y011520D02*
X008598Y011520D01*
X008598Y011557D02*
X008106Y011557D01*
X008106Y011595D02*
X008598Y011595D01*
X008598Y011633D02*
X008106Y011633D01*
X008106Y011671D02*
X008598Y011671D01*
X008598Y011709D02*
X008106Y011709D01*
X008106Y011747D02*
X008598Y011747D01*
X008598Y011785D02*
X008106Y011785D01*
X008106Y011823D02*
X008598Y011823D01*
X008621Y011860D02*
X008083Y011860D01*
X008045Y011898D02*
X008659Y011898D01*
X008697Y011936D02*
X008007Y011936D01*
X007295Y011974D02*
X008788Y011974D01*
X008750Y012012D02*
X006013Y012012D01*
X006013Y012050D02*
X006978Y012050D01*
X006887Y012088D02*
X006013Y012088D01*
X006013Y012126D02*
X006795Y012126D01*
X006735Y012163D02*
X006013Y012163D01*
X006030Y012201D02*
X006697Y012201D01*
X006659Y012239D02*
X006058Y012239D01*
X006073Y012277D02*
X006621Y012277D01*
X006584Y012315D02*
X006089Y012315D01*
X006105Y012353D02*
X006568Y012353D01*
X006553Y012391D02*
X006120Y012391D01*
X006136Y012428D02*
X006537Y012428D01*
X006521Y012466D02*
X006143Y012466D01*
X006143Y012504D02*
X006506Y012504D01*
X006492Y012542D02*
X006143Y012542D01*
X006143Y012580D02*
X006492Y012580D01*
X006492Y012618D02*
X006143Y012618D01*
X006143Y012656D02*
X006492Y012656D01*
X006492Y012694D02*
X006143Y012694D01*
X006143Y012731D02*
X006492Y012731D01*
X006492Y012769D02*
X006143Y012769D01*
X006143Y012807D02*
X006503Y012807D01*
X006518Y012845D02*
X006143Y012845D01*
X006143Y012883D02*
X006534Y012883D01*
X006550Y012921D02*
X006143Y012921D01*
X006143Y012959D02*
X006566Y012959D01*
X006581Y012997D02*
X006143Y012997D01*
X006143Y013034D02*
X006614Y013034D01*
X006652Y013072D02*
X006143Y013072D01*
X006143Y013110D02*
X006690Y013110D01*
X006728Y013148D02*
X006143Y013148D01*
X006143Y013186D02*
X006759Y013186D01*
X006721Y013224D02*
X006143Y013224D01*
X006143Y013262D02*
X006689Y013262D01*
X006674Y013299D02*
X006143Y013299D01*
X006143Y013337D02*
X006658Y013337D01*
X006642Y013375D02*
X006143Y013375D01*
X006143Y013413D02*
X006627Y013413D01*
X006619Y013451D02*
X006143Y013451D01*
X006143Y013489D02*
X006619Y013489D01*
X006619Y013527D02*
X006143Y013527D01*
X006143Y013565D02*
X006619Y013565D01*
X006619Y013602D02*
X006143Y013602D01*
X006143Y013640D02*
X006624Y013640D01*
X006639Y013678D02*
X006143Y013678D01*
X006143Y013716D02*
X006655Y013716D01*
X006671Y013754D02*
X006143Y013754D01*
X006143Y013792D02*
X006687Y013792D01*
X006714Y013830D02*
X006143Y013830D01*
X006143Y013868D02*
X006752Y013868D01*
X006790Y013905D02*
X006143Y013905D01*
X006143Y013943D02*
X006828Y013943D01*
X006914Y013981D02*
X006143Y013981D01*
X006143Y014019D02*
X007005Y014019D01*
X007216Y014019D02*
X010561Y014019D01*
X010561Y013981D02*
X007308Y013981D01*
X007394Y013943D02*
X010561Y013943D01*
X010561Y013905D02*
X007431Y013905D01*
X007469Y013868D02*
X010561Y013868D01*
X010561Y013830D02*
X007507Y013830D01*
X007535Y013792D02*
X010561Y013792D01*
X010561Y013754D02*
X007551Y013754D01*
X007566Y013716D02*
X010561Y013716D01*
X010561Y013678D02*
X007582Y013678D01*
X007598Y013640D02*
X010561Y013640D01*
X010561Y013602D02*
X007603Y013602D01*
X007603Y013565D02*
X010561Y013565D01*
X010561Y013527D02*
X007603Y013527D01*
X007603Y013489D02*
X010561Y013489D01*
X010561Y013451D02*
X007603Y013451D01*
X007595Y013413D02*
X010561Y013413D01*
X010561Y013375D02*
X007579Y013375D01*
X007564Y013337D02*
X010561Y013337D01*
X010561Y013299D02*
X007548Y013299D01*
X007805Y014246D02*
X007995Y014246D01*
X007957Y014284D02*
X007843Y014284D01*
X007881Y014322D02*
X007919Y014322D01*
X006814Y014246D02*
X006143Y014246D01*
X006143Y014208D02*
X010491Y014208D01*
X010529Y014171D02*
X006143Y014171D01*
X006143Y014133D02*
X010561Y014133D01*
X010561Y014095D02*
X006143Y014095D01*
X006143Y014057D02*
X010561Y014057D01*
X010453Y014246D02*
X010168Y014246D01*
X010206Y014284D02*
X010415Y014284D01*
X010377Y014322D02*
X010243Y014322D01*
X010281Y014360D02*
X010339Y014360D01*
X010301Y014398D02*
X010282Y014398D01*
X010561Y013262D02*
X009106Y013262D01*
X009197Y013224D02*
X010561Y013224D01*
X010561Y013186D02*
X009289Y013186D01*
X009340Y013148D02*
X010561Y013148D01*
X010561Y013110D02*
X009378Y013110D01*
X009416Y013072D02*
X010561Y013072D01*
X010561Y013034D02*
X009454Y013034D01*
X009492Y012997D02*
X010561Y012997D01*
X010561Y012959D02*
X009530Y012959D01*
X009567Y012921D02*
X010561Y012921D01*
X010561Y012883D02*
X009605Y012883D01*
X009643Y012845D02*
X010561Y012845D01*
X010561Y012807D02*
X009681Y012807D01*
X009719Y012769D02*
X010561Y012769D01*
X010561Y012731D02*
X009757Y012731D01*
X009795Y012694D02*
X010561Y012694D01*
X010561Y012656D02*
X009832Y012656D01*
X009870Y012618D02*
X010561Y012618D01*
X010561Y012580D02*
X009908Y012580D01*
X009946Y012542D02*
X010561Y012542D01*
X010561Y012504D02*
X009984Y012504D01*
X010022Y012466D02*
X010561Y012466D01*
X010561Y012428D02*
X010060Y012428D01*
X010098Y012391D02*
X010561Y012391D01*
X010561Y012353D02*
X010126Y012353D01*
X010142Y012315D02*
X010561Y012315D01*
X010561Y012277D02*
X010157Y012277D01*
X010173Y012239D02*
X010561Y012239D01*
X010561Y012201D02*
X010189Y012201D01*
X010204Y012163D02*
X010561Y012163D01*
X010561Y012126D02*
X010212Y012126D01*
X010212Y012088D02*
X010561Y012088D01*
X010561Y012050D02*
X010212Y012050D01*
X010212Y012012D02*
X010561Y012012D01*
X010561Y011974D02*
X010212Y011974D01*
X010507Y011936D02*
X010561Y011936D01*
X010561Y011898D02*
X010545Y011898D01*
X010532Y010876D02*
X010561Y010876D01*
X010561Y010838D02*
X010495Y010838D01*
X010561Y010800D02*
X009764Y010800D01*
X009440Y010800D02*
X007264Y010800D01*
X006196Y009967D02*
X005848Y009967D01*
X005848Y010005D02*
X010561Y010005D01*
X010561Y010043D02*
X005848Y010043D01*
X005848Y010081D02*
X010561Y010081D01*
X010561Y010118D02*
X005848Y010118D01*
X005848Y010156D02*
X010561Y010156D01*
X010561Y010194D02*
X005848Y010194D01*
X005848Y010232D02*
X010561Y010232D01*
X010561Y010270D02*
X005848Y010270D01*
X005848Y010308D02*
X010561Y010308D01*
X010561Y010346D02*
X005848Y010346D01*
X005831Y010383D02*
X010561Y010383D01*
X010561Y010421D02*
X005794Y010421D01*
X005756Y010459D02*
X010561Y010459D01*
X010561Y010497D02*
X005726Y010497D01*
X005738Y010535D02*
X010561Y010535D01*
X010561Y010573D02*
X005738Y010573D01*
X005738Y010611D02*
X010561Y010611D01*
X010561Y010649D02*
X005738Y010649D01*
X005833Y010686D02*
X010561Y010686D01*
X010561Y010724D02*
X005871Y010724D01*
X005909Y010762D02*
X010561Y010762D01*
X010561Y009967D02*
X010508Y009967D01*
X010546Y009929D02*
X010561Y009929D01*
X010561Y008936D02*
X010561Y004544D01*
X010405Y004544D01*
X010405Y004703D01*
X010561Y004703D01*
X010561Y004741D02*
X010368Y004741D01*
X010405Y004703D02*
X010278Y004830D01*
X008130Y004830D01*
X008023Y004723D01*
X007916Y004830D01*
X006949Y004830D01*
X006822Y004703D01*
X006492Y004703D01*
X006492Y004741D02*
X006860Y004741D01*
X006822Y004703D02*
X006822Y004535D01*
X006536Y004535D01*
X006492Y004579D01*
X006492Y005653D01*
X006399Y005878D01*
X006013Y006263D01*
X006013Y006299D01*
X008127Y006299D01*
X008254Y006426D01*
X008254Y007392D01*
X008254Y007354D02*
X008450Y007354D01*
X008450Y007316D02*
X008254Y007316D01*
X008254Y007278D02*
X008450Y007278D01*
X008450Y007240D02*
X008254Y007240D01*
X008254Y007202D02*
X008450Y007202D01*
X008450Y007165D02*
X008254Y007165D01*
X008254Y007127D02*
X008450Y007127D01*
X008450Y007089D02*
X008254Y007089D01*
X008254Y007051D02*
X008450Y007051D01*
X008450Y007013D02*
X008254Y007013D01*
X008254Y006975D02*
X008450Y006975D01*
X008450Y006937D02*
X008254Y006937D01*
X008254Y006899D02*
X008450Y006899D01*
X008450Y006862D02*
X008254Y006862D01*
X008254Y006824D02*
X008450Y006824D01*
X008450Y006786D02*
X008254Y006786D01*
X008254Y006748D02*
X008450Y006748D01*
X008450Y006710D02*
X008254Y006710D01*
X008254Y006672D02*
X008450Y006672D01*
X008450Y006634D02*
X008254Y006634D01*
X008254Y006596D02*
X008450Y006596D01*
X008450Y006559D02*
X008254Y006559D01*
X008254Y006521D02*
X008450Y006521D01*
X008450Y006483D02*
X008254Y006483D01*
X008254Y006445D02*
X008450Y006445D01*
X008450Y006426D02*
X008577Y006299D01*
X009544Y006299D01*
X009671Y006426D01*
X009671Y007392D01*
X010561Y007392D01*
X010561Y007430D02*
X009634Y007430D01*
X009671Y007392D02*
X009544Y007519D01*
X009533Y007519D01*
X009533Y007614D01*
X009461Y007788D01*
X009435Y007814D01*
X009435Y008143D01*
X009593Y008208D01*
X009726Y008341D01*
X010002Y008618D01*
X010074Y008791D01*
X010074Y008854D01*
X010479Y008854D01*
X010561Y008936D01*
X010561Y008907D02*
X010532Y008907D01*
X010561Y008869D02*
X010494Y008869D01*
X010561Y008831D02*
X010074Y008831D01*
X010074Y008793D02*
X010561Y008793D01*
X010561Y008755D02*
X010059Y008755D01*
X010044Y008717D02*
X010561Y008717D01*
X010561Y008679D02*
X010028Y008679D01*
X010012Y008641D02*
X010561Y008641D01*
X010561Y008604D02*
X009988Y008604D01*
X009950Y008566D02*
X010561Y008566D01*
X010561Y008528D02*
X009913Y008528D01*
X009875Y008490D02*
X010561Y008490D01*
X010561Y008452D02*
X009837Y008452D01*
X009799Y008414D02*
X010561Y008414D01*
X010561Y008376D02*
X009761Y008376D01*
X009723Y008338D02*
X010561Y008338D01*
X010561Y008301D02*
X009685Y008301D01*
X009647Y008263D02*
X010561Y008263D01*
X010561Y008225D02*
X009610Y008225D01*
X009541Y008187D02*
X010561Y008187D01*
X010561Y008149D02*
X009450Y008149D01*
X009435Y008111D02*
X010561Y008111D01*
X010561Y008073D02*
X009435Y008073D01*
X009435Y008036D02*
X010561Y008036D01*
X010561Y007998D02*
X009435Y007998D01*
X009435Y007960D02*
X010561Y007960D01*
X010561Y007922D02*
X009435Y007922D01*
X009435Y007884D02*
X010561Y007884D01*
X010561Y007846D02*
X009435Y007846D01*
X009441Y007808D02*
X010561Y007808D01*
X010561Y007770D02*
X009468Y007770D01*
X009484Y007733D02*
X010561Y007733D01*
X010561Y007695D02*
X009500Y007695D01*
X009515Y007657D02*
X010561Y007657D01*
X010561Y007619D02*
X009531Y007619D01*
X009533Y007581D02*
X010561Y007581D01*
X010561Y007543D02*
X009533Y007543D01*
X009558Y007505D02*
X010561Y007505D01*
X010561Y007467D02*
X009596Y007467D01*
X009671Y007354D02*
X010561Y007354D01*
X010561Y007316D02*
X009671Y007316D01*
X009671Y007278D02*
X010561Y007278D01*
X010561Y007240D02*
X009671Y007240D01*
X009671Y007202D02*
X010561Y007202D01*
X010561Y007165D02*
X009671Y007165D01*
X009671Y007127D02*
X010561Y007127D01*
X010561Y007089D02*
X009671Y007089D01*
X009671Y007051D02*
X010561Y007051D01*
X010561Y007013D02*
X009671Y007013D01*
X009671Y006975D02*
X010561Y006975D01*
X010561Y006937D02*
X009671Y006937D01*
X009671Y006899D02*
X010561Y006899D01*
X010561Y006862D02*
X009671Y006862D01*
X009671Y006824D02*
X010561Y006824D01*
X010561Y006786D02*
X009671Y006786D01*
X009671Y006748D02*
X010561Y006748D01*
X010561Y006710D02*
X009671Y006710D01*
X009671Y006672D02*
X010561Y006672D01*
X010561Y006634D02*
X009671Y006634D01*
X009671Y006596D02*
X010561Y006596D01*
X010561Y006559D02*
X009671Y006559D01*
X009671Y006521D02*
X010561Y006521D01*
X010561Y006483D02*
X009671Y006483D01*
X009671Y006445D02*
X010561Y006445D01*
X010561Y006407D02*
X009652Y006407D01*
X009614Y006369D02*
X010561Y006369D01*
X010561Y006331D02*
X009577Y006331D01*
X010561Y006293D02*
X006013Y006293D01*
X006021Y006256D02*
X010561Y006256D01*
X010561Y006218D02*
X006059Y006218D01*
X006097Y006180D02*
X010561Y006180D01*
X010561Y006142D02*
X006135Y006142D01*
X006172Y006104D02*
X010561Y006104D01*
X010561Y006066D02*
X006210Y006066D01*
X006248Y006028D02*
X010561Y006028D01*
X010561Y005991D02*
X006286Y005991D01*
X006324Y005953D02*
X010561Y005953D01*
X010561Y005915D02*
X006362Y005915D01*
X006399Y005877D02*
X010561Y005877D01*
X010561Y005839D02*
X006415Y005839D01*
X006431Y005801D02*
X010561Y005801D01*
X010561Y005763D02*
X006446Y005763D01*
X006462Y005725D02*
X010561Y005725D01*
X010561Y005688D02*
X006478Y005688D01*
X006492Y005650D02*
X010561Y005650D01*
X010561Y005612D02*
X006492Y005612D01*
X006492Y005574D02*
X010561Y005574D01*
X010561Y005536D02*
X006492Y005536D01*
X006492Y005498D02*
X010561Y005498D01*
X010561Y005460D02*
X006492Y005460D01*
X006492Y005422D02*
X010561Y005422D01*
X010561Y005385D02*
X006492Y005385D01*
X006492Y005347D02*
X010561Y005347D01*
X010561Y005309D02*
X006492Y005309D01*
X006492Y005271D02*
X010561Y005271D01*
X010561Y005233D02*
X006492Y005233D01*
X006492Y005195D02*
X010561Y005195D01*
X010561Y005157D02*
X006492Y005157D01*
X006492Y005120D02*
X010561Y005120D01*
X010561Y005082D02*
X006492Y005082D01*
X006492Y005044D02*
X010561Y005044D01*
X010561Y005006D02*
X006492Y005006D01*
X006492Y004968D02*
X010561Y004968D01*
X010561Y004930D02*
X006492Y004930D01*
X006492Y004892D02*
X010561Y004892D01*
X010561Y004854D02*
X006492Y004854D01*
X006492Y004817D02*
X006936Y004817D01*
X006898Y004779D02*
X006492Y004779D01*
X006492Y004665D02*
X006822Y004665D01*
X006822Y004627D02*
X006492Y004627D01*
X006492Y004589D02*
X006822Y004589D01*
X006822Y004551D02*
X006520Y004551D01*
X005271Y004579D02*
X005114Y004422D01*
X004976Y004089D01*
X004976Y003729D01*
X005114Y003396D01*
X005369Y003141D01*
X005701Y003004D01*
X006062Y003004D01*
X006394Y003141D01*
X006568Y003315D01*
X006822Y003315D01*
X006822Y003146D01*
X006949Y003019D01*
X007916Y003019D01*
X008023Y003126D01*
X008130Y003019D01*
X010278Y003019D01*
X010405Y003146D01*
X010405Y003323D01*
X010672Y003323D01*
X011682Y002313D01*
X011854Y002142D01*
X012078Y002049D01*
X013519Y002049D01*
X013519Y002038D01*
X013646Y001911D01*
X014455Y001911D01*
X014582Y002038D01*
X014582Y002348D01*
X014661Y002538D01*
X014661Y003444D01*
X014776Y003444D01*
X014903Y003571D01*
X014903Y003963D01*
X016702Y003963D01*
X016702Y003571D01*
X016793Y003481D01*
X016793Y002538D01*
X016872Y002348D01*
X016872Y002038D01*
X016998Y001911D01*
X017808Y001911D01*
X017935Y002038D01*
X017935Y002348D01*
X018013Y002538D01*
X018013Y003444D01*
X018190Y003444D01*
X018317Y003571D01*
X018317Y004185D01*
X018551Y004185D01*
X018775Y004278D01*
X018947Y004449D01*
X019316Y004818D01*
X019409Y005043D01*
X019409Y005403D01*
X019584Y005578D01*
X019682Y005578D01*
X019839Y005421D01*
X020172Y005283D01*
X020532Y005283D01*
X020865Y005421D01*
X021120Y005676D01*
X021257Y006008D01*
X021257Y006369D01*
X021932Y006369D01*
X021932Y006331D02*
X021257Y006331D01*
X021257Y006293D02*
X021932Y006293D01*
X021932Y006256D02*
X021257Y006256D01*
X021257Y006218D02*
X021932Y006218D01*
X021932Y006180D02*
X021257Y006180D01*
X021257Y006142D02*
X021932Y006142D01*
X021932Y006104D02*
X021257Y006104D01*
X021257Y006066D02*
X021932Y006066D01*
X021932Y006028D02*
X021257Y006028D01*
X021250Y005991D02*
X021932Y005991D01*
X021932Y005953D02*
X021234Y005953D01*
X021219Y005915D02*
X021932Y005915D01*
X021932Y005877D02*
X021203Y005877D01*
X021187Y005839D02*
X021932Y005839D01*
X021932Y005801D02*
X021172Y005801D01*
X021156Y005763D02*
X021932Y005763D01*
X021932Y005725D02*
X021140Y005725D01*
X021125Y005688D02*
X021932Y005688D01*
X021932Y005650D02*
X021094Y005650D01*
X021056Y005612D02*
X021932Y005612D01*
X021932Y005574D02*
X021018Y005574D01*
X020980Y005536D02*
X021932Y005536D01*
X021932Y005498D02*
X020942Y005498D01*
X020904Y005460D02*
X021932Y005460D01*
X021932Y005422D02*
X020866Y005422D01*
X020777Y005385D02*
X021932Y005385D01*
X021932Y005347D02*
X020686Y005347D01*
X020594Y005309D02*
X021932Y005309D01*
X021932Y005271D02*
X019409Y005271D01*
X019409Y005309D02*
X020110Y005309D01*
X020018Y005347D02*
X019409Y005347D01*
X019409Y005385D02*
X019927Y005385D01*
X019837Y005422D02*
X019428Y005422D01*
X019466Y005460D02*
X019800Y005460D01*
X019762Y005498D02*
X019504Y005498D01*
X019542Y005536D02*
X019724Y005536D01*
X019686Y005574D02*
X019580Y005574D01*
X019409Y005233D02*
X021932Y005233D01*
X021932Y005195D02*
X019409Y005195D01*
X019409Y005157D02*
X021932Y005157D01*
X021932Y005120D02*
X019409Y005120D01*
X019409Y005082D02*
X021932Y005082D01*
X021932Y005044D02*
X019409Y005044D01*
X019394Y005006D02*
X021932Y005006D01*
X021932Y004968D02*
X019378Y004968D01*
X019362Y004930D02*
X021932Y004930D01*
X021932Y004892D02*
X019347Y004892D01*
X019331Y004854D02*
X021932Y004854D01*
X021932Y004817D02*
X019314Y004817D01*
X019277Y004779D02*
X021932Y004779D01*
X021932Y004741D02*
X019239Y004741D01*
X019201Y004703D02*
X021932Y004703D01*
X021932Y004665D02*
X019163Y004665D01*
X019125Y004627D02*
X021932Y004627D01*
X021932Y004589D02*
X019087Y004589D01*
X019049Y004551D02*
X021932Y004551D01*
X021932Y004514D02*
X019011Y004514D01*
X018974Y004476D02*
X021932Y004476D01*
X021932Y004438D02*
X018936Y004438D01*
X018898Y004400D02*
X021932Y004400D01*
X021932Y004362D02*
X018860Y004362D01*
X018822Y004324D02*
X021932Y004324D01*
X021932Y004286D02*
X018784Y004286D01*
X018705Y004248D02*
X021932Y004248D01*
X021932Y004211D02*
X018614Y004211D01*
X018317Y004173D02*
X021932Y004173D01*
X021932Y004135D02*
X018317Y004135D01*
X018317Y004097D02*
X021932Y004097D01*
X021932Y004059D02*
X018317Y004059D01*
X018317Y004021D02*
X021932Y004021D01*
X021932Y003983D02*
X018317Y003983D01*
X018317Y003946D02*
X021932Y003946D01*
X021932Y003908D02*
X018317Y003908D01*
X018317Y003870D02*
X021932Y003870D01*
X021932Y003832D02*
X018317Y003832D01*
X018317Y003794D02*
X021932Y003794D01*
X021932Y003756D02*
X018317Y003756D01*
X018317Y003718D02*
X021932Y003718D01*
X021932Y003680D02*
X018317Y003680D01*
X018317Y003643D02*
X021932Y003643D01*
X021932Y003605D02*
X018317Y003605D01*
X018312Y003567D02*
X021932Y003567D01*
X021932Y003529D02*
X018274Y003529D01*
X018236Y003491D02*
X021932Y003491D01*
X021932Y003453D02*
X018198Y003453D01*
X018013Y003415D02*
X021932Y003415D01*
X021932Y003377D02*
X018013Y003377D01*
X018013Y003340D02*
X021932Y003340D01*
X021932Y003302D02*
X018013Y003302D01*
X018013Y003264D02*
X021932Y003264D01*
X021932Y003226D02*
X018013Y003226D01*
X018013Y003188D02*
X021932Y003188D01*
X021932Y003150D02*
X018013Y003150D01*
X018013Y003112D02*
X021932Y003112D01*
X021932Y003075D02*
X018013Y003075D01*
X018013Y003037D02*
X021932Y003037D01*
X021932Y002999D02*
X018013Y002999D01*
X018013Y002961D02*
X021932Y002961D01*
X021932Y002923D02*
X018013Y002923D01*
X018013Y002885D02*
X021932Y002885D01*
X021932Y002847D02*
X018013Y002847D01*
X018013Y002809D02*
X021932Y002809D01*
X021932Y002772D02*
X018013Y002772D01*
X018013Y002734D02*
X021932Y002734D01*
X021932Y002696D02*
X018013Y002696D01*
X018013Y002658D02*
X021932Y002658D01*
X021932Y002620D02*
X018013Y002620D01*
X018013Y002582D02*
X021932Y002582D01*
X021932Y002544D02*
X018013Y002544D01*
X018000Y002506D02*
X021932Y002506D01*
X021932Y002469D02*
X017985Y002469D01*
X017969Y002431D02*
X021932Y002431D01*
X021932Y002393D02*
X017953Y002393D01*
X017938Y002355D02*
X021932Y002355D01*
X021932Y002317D02*
X017935Y002317D01*
X017935Y002279D02*
X021932Y002279D01*
X021932Y002241D02*
X017935Y002241D01*
X017935Y002203D02*
X021932Y002203D01*
X021932Y002166D02*
X017935Y002166D01*
X017935Y002128D02*
X021932Y002128D01*
X021932Y002090D02*
X017935Y002090D01*
X017935Y002052D02*
X021932Y002052D01*
X021932Y002014D02*
X017911Y002014D01*
X017873Y001976D02*
X021932Y001976D01*
X021932Y001938D02*
X017835Y001938D01*
X016971Y001938D02*
X014483Y001938D01*
X014521Y001976D02*
X016933Y001976D01*
X016895Y002014D02*
X014559Y002014D01*
X014582Y002052D02*
X016872Y002052D01*
X016872Y002090D02*
X014582Y002090D01*
X014582Y002128D02*
X016872Y002128D01*
X016872Y002166D02*
X014582Y002166D01*
X014582Y002203D02*
X016872Y002203D01*
X016872Y002241D02*
X014582Y002241D01*
X014582Y002279D02*
X016872Y002279D01*
X016872Y002317D02*
X014582Y002317D01*
X014585Y002355D02*
X016869Y002355D01*
X016853Y002393D02*
X014601Y002393D01*
X014617Y002431D02*
X016837Y002431D01*
X016822Y002469D02*
X014632Y002469D01*
X014648Y002506D02*
X016806Y002506D01*
X016793Y002544D02*
X014661Y002544D01*
X014661Y002582D02*
X016793Y002582D01*
X016793Y002620D02*
X014661Y002620D01*
X014661Y002658D02*
X016793Y002658D01*
X016793Y002696D02*
X014661Y002696D01*
X014661Y002734D02*
X016793Y002734D01*
X016793Y002772D02*
X014661Y002772D01*
X014661Y002809D02*
X016793Y002809D01*
X016793Y002847D02*
X014661Y002847D01*
X014661Y002885D02*
X016793Y002885D01*
X016793Y002923D02*
X014661Y002923D01*
X014661Y002961D02*
X016793Y002961D01*
X016793Y002999D02*
X014661Y002999D01*
X014661Y003037D02*
X016793Y003037D01*
X016793Y003075D02*
X014661Y003075D01*
X014661Y003112D02*
X016793Y003112D01*
X016793Y003150D02*
X014661Y003150D01*
X014661Y003188D02*
X016793Y003188D01*
X016793Y003226D02*
X014661Y003226D01*
X014661Y003264D02*
X016793Y003264D01*
X016793Y003302D02*
X014661Y003302D01*
X014661Y003340D02*
X016793Y003340D01*
X016793Y003377D02*
X014661Y003377D01*
X014661Y003415D02*
X016793Y003415D01*
X016793Y003453D02*
X014785Y003453D01*
X014823Y003491D02*
X016783Y003491D01*
X016745Y003529D02*
X014861Y003529D01*
X014899Y003567D02*
X016707Y003567D01*
X016702Y003605D02*
X014903Y003605D01*
X014903Y003643D02*
X016702Y003643D01*
X016702Y003680D02*
X014903Y003680D01*
X014903Y003718D02*
X016702Y003718D01*
X016702Y003756D02*
X014903Y003756D01*
X014903Y003794D02*
X016702Y003794D01*
X016702Y003832D02*
X014903Y003832D01*
X014903Y003870D02*
X016702Y003870D01*
X016702Y003908D02*
X014903Y003908D01*
X014903Y003946D02*
X016702Y003946D01*
X018242Y005907D02*
X018192Y005958D01*
X018317Y006083D01*
X018317Y006735D01*
X018192Y006860D01*
X018317Y006985D01*
X018317Y007637D01*
X018192Y007761D01*
X018255Y007824D01*
X018632Y007824D01*
X018731Y007726D01*
X019304Y007726D01*
X019352Y007774D01*
X019400Y007726D01*
X019973Y007726D01*
X020100Y007853D01*
X020100Y008465D01*
X020021Y008544D01*
X020021Y008774D01*
X020100Y008853D01*
X020100Y009465D01*
X019973Y009592D01*
X019400Y009592D01*
X019273Y009465D01*
X019273Y008853D01*
X019352Y008774D01*
X019352Y008544D01*
X019304Y008592D01*
X018731Y008592D01*
X018632Y008494D01*
X018317Y008494D01*
X018317Y008538D01*
X018190Y008665D01*
X017785Y008665D01*
X017785Y008699D01*
X017658Y008825D01*
X016706Y008825D01*
X016706Y009247D01*
X016579Y009374D01*
X015928Y009374D01*
X015801Y009247D01*
X015801Y008825D01*
X014903Y008825D01*
X014903Y009247D01*
X014776Y009374D01*
X014124Y009374D01*
X014001Y009250D01*
X014001Y009445D01*
X013935Y009603D01*
X021932Y009603D01*
X021932Y000579D01*
X001029Y000579D01*
X001029Y000613D02*
X021932Y000613D01*
X021932Y000651D02*
X001029Y000651D01*
X001029Y000689D02*
X021932Y000689D01*
X021932Y000727D02*
X001029Y000727D01*
X001029Y000764D02*
X021932Y000764D01*
X021932Y000802D02*
X001029Y000802D01*
X001029Y000840D02*
X021932Y000840D01*
X021932Y000878D02*
X001029Y000878D01*
X001029Y000916D02*
X021932Y000916D01*
X021932Y000954D02*
X001029Y000954D01*
X001029Y000992D02*
X021932Y000992D01*
X021932Y001030D02*
X001029Y001030D01*
X001029Y001067D02*
X021932Y001067D01*
X021932Y001105D02*
X001029Y001105D01*
X001029Y001143D02*
X021932Y001143D01*
X021932Y001181D02*
X001029Y001181D01*
X001029Y001219D02*
X021932Y001219D01*
X021932Y001257D02*
X001029Y001257D01*
X001029Y001295D02*
X021932Y001295D01*
X021932Y001332D02*
X001029Y001332D01*
X001029Y001370D02*
X021932Y001370D01*
X021932Y001408D02*
X001029Y001408D01*
X001029Y001446D02*
X021932Y001446D01*
X021932Y001484D02*
X001029Y001484D01*
X001029Y001522D02*
X021932Y001522D01*
X021932Y001560D02*
X001029Y001560D01*
X001029Y001598D02*
X021932Y001598D01*
X021932Y001635D02*
X001029Y001635D01*
X001029Y001673D02*
X021932Y001673D01*
X021932Y001711D02*
X001029Y001711D01*
X001029Y001749D02*
X021932Y001749D01*
X021932Y001787D02*
X001029Y001787D01*
X001029Y001825D02*
X021932Y001825D01*
X021932Y001863D02*
X001029Y001863D01*
X001029Y001901D02*
X021932Y001901D01*
X018242Y005907D02*
X018281Y006002D01*
X018453Y006173D01*
X018986Y006706D01*
X019210Y006799D01*
X019682Y006799D01*
X019839Y006956D01*
X020172Y007094D01*
X020532Y007094D01*
X020865Y006956D01*
X021120Y006702D01*
X021257Y006369D01*
X021242Y006407D02*
X021932Y006407D01*
X021932Y006445D02*
X021226Y006445D01*
X021210Y006483D02*
X021932Y006483D01*
X021932Y006521D02*
X021195Y006521D01*
X021179Y006559D02*
X021932Y006559D01*
X021932Y006596D02*
X021163Y006596D01*
X021147Y006634D02*
X021932Y006634D01*
X021932Y006672D02*
X021132Y006672D01*
X021111Y006710D02*
X021932Y006710D01*
X021932Y006748D02*
X021073Y006748D01*
X021035Y006786D02*
X021932Y006786D01*
X021932Y006824D02*
X020997Y006824D01*
X020960Y006862D02*
X021932Y006862D01*
X021932Y006899D02*
X020922Y006899D01*
X020884Y006937D02*
X021932Y006937D01*
X021932Y006975D02*
X020819Y006975D01*
X020728Y007013D02*
X021932Y007013D01*
X021932Y007051D02*
X020636Y007051D01*
X020545Y007089D02*
X021932Y007089D01*
X021932Y007127D02*
X018317Y007127D01*
X018317Y007165D02*
X021932Y007165D01*
X021932Y007202D02*
X018317Y007202D01*
X018317Y007240D02*
X021932Y007240D01*
X021932Y007278D02*
X018317Y007278D01*
X018317Y007316D02*
X021932Y007316D01*
X021932Y007354D02*
X018317Y007354D01*
X018317Y007392D02*
X021932Y007392D01*
X021932Y007430D02*
X018317Y007430D01*
X018317Y007467D02*
X021932Y007467D01*
X021932Y007505D02*
X018317Y007505D01*
X018317Y007543D02*
X021932Y007543D01*
X021932Y007581D02*
X018317Y007581D01*
X018317Y007619D02*
X021932Y007619D01*
X021932Y007657D02*
X018296Y007657D01*
X018258Y007695D02*
X021932Y007695D01*
X021932Y007733D02*
X019980Y007733D01*
X020018Y007770D02*
X021932Y007770D01*
X021932Y007808D02*
X020055Y007808D01*
X020093Y007846D02*
X021932Y007846D01*
X021932Y007884D02*
X020100Y007884D01*
X020100Y007922D02*
X021932Y007922D01*
X021932Y007960D02*
X020100Y007960D01*
X020100Y007998D02*
X021932Y007998D01*
X021932Y008036D02*
X020100Y008036D01*
X020100Y008073D02*
X021932Y008073D01*
X021932Y008111D02*
X020100Y008111D01*
X020100Y008149D02*
X021932Y008149D01*
X021932Y008187D02*
X020100Y008187D01*
X020100Y008225D02*
X021932Y008225D01*
X021932Y008263D02*
X020100Y008263D01*
X020100Y008301D02*
X021932Y008301D01*
X021932Y008338D02*
X020100Y008338D01*
X020100Y008376D02*
X021932Y008376D01*
X021932Y008414D02*
X020100Y008414D01*
X020100Y008452D02*
X021932Y008452D01*
X021932Y008490D02*
X020075Y008490D01*
X020037Y008528D02*
X021932Y008528D01*
X021932Y008566D02*
X020021Y008566D01*
X020021Y008604D02*
X021932Y008604D01*
X021932Y008641D02*
X020021Y008641D01*
X020021Y008679D02*
X021932Y008679D01*
X021932Y008717D02*
X020021Y008717D01*
X020021Y008755D02*
X021932Y008755D01*
X021932Y008793D02*
X020040Y008793D01*
X020078Y008831D02*
X021932Y008831D01*
X021932Y008869D02*
X020100Y008869D01*
X020100Y008907D02*
X021932Y008907D01*
X021932Y008944D02*
X020100Y008944D01*
X020100Y008982D02*
X021932Y008982D01*
X021932Y009020D02*
X020100Y009020D01*
X020100Y009058D02*
X021932Y009058D01*
X021932Y009096D02*
X020100Y009096D01*
X020100Y009134D02*
X021932Y009134D01*
X021932Y009172D02*
X020100Y009172D01*
X020100Y009210D02*
X021932Y009210D01*
X021932Y009247D02*
X020100Y009247D01*
X020100Y009285D02*
X021932Y009285D01*
X021932Y009323D02*
X020100Y009323D01*
X020100Y009361D02*
X021932Y009361D01*
X021932Y009399D02*
X020100Y009399D01*
X020100Y009437D02*
X021932Y009437D01*
X021932Y009475D02*
X020091Y009475D01*
X020053Y009512D02*
X021932Y009512D01*
X021932Y009550D02*
X020015Y009550D01*
X019977Y009588D02*
X021932Y009588D01*
X021932Y010081D02*
X011781Y010081D01*
X011781Y010118D02*
X021932Y010118D01*
X021932Y010156D02*
X011781Y010156D01*
X011781Y010194D02*
X021932Y010194D01*
X021932Y010232D02*
X011781Y010232D01*
X011781Y010270D02*
X021932Y010270D01*
X021932Y010308D02*
X011781Y010308D01*
X011781Y010346D02*
X021932Y010346D01*
X021932Y010383D02*
X011781Y010383D01*
X011781Y010421D02*
X021932Y010421D01*
X021932Y010459D02*
X011781Y010459D01*
X011781Y010497D02*
X021932Y010497D01*
X021932Y010535D02*
X011781Y010535D01*
X011781Y010573D02*
X021932Y010573D01*
X021932Y010611D02*
X011781Y010611D01*
X011781Y010649D02*
X021932Y010649D01*
X021932Y010686D02*
X011781Y010686D01*
X011781Y010724D02*
X021932Y010724D01*
X021932Y010762D02*
X011781Y010762D01*
X011781Y010800D02*
X021932Y010800D01*
X021932Y010838D02*
X011781Y010838D01*
X011781Y010876D02*
X021932Y010876D01*
X021932Y010914D02*
X017810Y010914D01*
X017848Y010952D02*
X021932Y010952D01*
X021932Y010989D02*
X017886Y010989D01*
X017924Y011027D02*
X021932Y011027D01*
X021932Y011065D02*
X017935Y011065D01*
X017935Y011103D02*
X021932Y011103D01*
X021932Y011141D02*
X017935Y011141D01*
X017935Y011179D02*
X021932Y011179D01*
X021932Y011217D02*
X017935Y011217D01*
X017935Y011255D02*
X021932Y011255D01*
X021932Y011292D02*
X017935Y011292D01*
X017935Y011330D02*
X021932Y011330D01*
X021932Y011368D02*
X017943Y011368D01*
X017959Y011406D02*
X021932Y011406D01*
X021932Y011444D02*
X017975Y011444D01*
X017990Y011482D02*
X021932Y011482D01*
X021932Y011520D02*
X018006Y011520D01*
X018013Y011557D02*
X021932Y011557D01*
X021932Y011595D02*
X018013Y011595D01*
X018013Y011633D02*
X021932Y011633D01*
X021932Y011671D02*
X018013Y011671D01*
X018013Y011709D02*
X021932Y011709D01*
X021932Y011747D02*
X018013Y011747D01*
X018013Y011785D02*
X021932Y011785D01*
X021932Y011823D02*
X018013Y011823D01*
X018013Y011860D02*
X021932Y011860D01*
X021932Y011898D02*
X018013Y011898D01*
X018013Y011936D02*
X021932Y011936D01*
X021932Y011974D02*
X018013Y011974D01*
X018013Y012012D02*
X021932Y012012D01*
X021932Y012050D02*
X018013Y012050D01*
X018013Y012088D02*
X021932Y012088D01*
X021932Y012126D02*
X018013Y012126D01*
X018013Y012163D02*
X021932Y012163D01*
X021932Y012201D02*
X018013Y012201D01*
X018013Y012239D02*
X021932Y012239D01*
X021932Y012277D02*
X018013Y012277D01*
X018013Y012315D02*
X020095Y012315D01*
X020004Y012353D02*
X018013Y012353D01*
X018013Y012391D02*
X019912Y012391D01*
X019831Y012428D02*
X018013Y012428D01*
X018212Y012466D02*
X019794Y012466D01*
X019756Y012504D02*
X018249Y012504D01*
X018287Y012542D02*
X019718Y012542D01*
X019138Y012580D02*
X018317Y012580D01*
X018317Y012618D02*
X019047Y012618D01*
X018955Y012656D02*
X018317Y012656D01*
X018317Y012694D02*
X018895Y012694D01*
X018858Y012731D02*
X018317Y012731D01*
X018317Y012769D02*
X018820Y012769D01*
X018782Y012807D02*
X018317Y012807D01*
X018317Y012845D02*
X018744Y012845D01*
X018706Y012883D02*
X018317Y012883D01*
X018317Y012921D02*
X018668Y012921D01*
X018630Y012959D02*
X018317Y012959D01*
X018317Y012997D02*
X018592Y012997D01*
X018555Y013034D02*
X018317Y013034D01*
X018317Y013072D02*
X018517Y013072D01*
X019410Y013905D02*
X019788Y013905D01*
X019750Y013868D02*
X019447Y013868D01*
X019485Y013830D02*
X019712Y013830D01*
X019826Y013943D02*
X019372Y013943D01*
X019334Y013981D02*
X019899Y013981D01*
X019991Y014019D02*
X019296Y014019D01*
X019267Y014048D02*
X019267Y014048D01*
X019258Y014057D02*
X020082Y014057D01*
X020622Y014057D02*
X021932Y014057D01*
X021932Y014095D02*
X019220Y014095D01*
X019182Y014133D02*
X021932Y014133D01*
X021932Y014171D02*
X019144Y014171D01*
X019107Y014208D02*
X021932Y014208D01*
X021932Y014246D02*
X019031Y014246D01*
X018940Y014284D02*
X021932Y014284D01*
X021932Y014322D02*
X018317Y014322D01*
X018317Y014360D02*
X021932Y014360D01*
X021932Y014398D02*
X018317Y014398D01*
X018317Y014436D02*
X021932Y014436D01*
X021932Y014473D02*
X018317Y014473D01*
X018317Y014511D02*
X021932Y014511D01*
X021932Y014549D02*
X018317Y014549D01*
X018317Y014587D02*
X021932Y014587D01*
X021932Y014625D02*
X018317Y014625D01*
X018317Y014663D02*
X021932Y014663D01*
X021932Y014701D02*
X018317Y014701D01*
X018317Y014739D02*
X021932Y014739D01*
X021932Y014776D02*
X018317Y014776D01*
X018317Y014814D02*
X021932Y014814D01*
X021932Y014852D02*
X018298Y014852D01*
X018260Y014890D02*
X021932Y014890D01*
X021932Y014928D02*
X018222Y014928D01*
X018199Y014966D02*
X021932Y014966D01*
X021932Y015004D02*
X018237Y015004D01*
X018275Y015042D02*
X021932Y015042D01*
X021932Y015079D02*
X018313Y015079D01*
X018317Y015117D02*
X021932Y015117D01*
X021932Y015155D02*
X018317Y015155D01*
X018317Y015193D02*
X021932Y015193D01*
X021932Y015231D02*
X018317Y015231D01*
X018317Y015269D02*
X021932Y015269D01*
X021932Y015307D02*
X018317Y015307D01*
X018317Y015344D02*
X021932Y015344D01*
X021932Y015382D02*
X018317Y015382D01*
X018317Y015420D02*
X021932Y015420D01*
X021932Y015458D02*
X018317Y015458D01*
X018317Y015496D02*
X018711Y015496D01*
X018673Y015534D02*
X018317Y015534D01*
X018317Y015572D02*
X018635Y015572D01*
X018483Y015610D02*
X018317Y015610D01*
X018317Y015647D02*
X018423Y015647D01*
X018385Y015685D02*
X018317Y015685D01*
X018317Y015723D02*
X018347Y015723D01*
X018309Y015761D02*
X018290Y015761D01*
X018271Y015799D02*
X018253Y015799D01*
X018233Y015837D02*
X018215Y015837D01*
X018764Y016367D02*
X019352Y016367D01*
X019352Y016405D02*
X018764Y016405D01*
X018764Y016443D02*
X019352Y016443D01*
X019352Y016481D02*
X018764Y016481D01*
X018764Y016518D02*
X019352Y016518D01*
X019320Y016556D02*
X018764Y016556D01*
X018764Y016594D02*
X019282Y016594D01*
X019273Y016632D02*
X018764Y016632D01*
X018764Y016670D02*
X019273Y016670D01*
X019273Y016708D02*
X018764Y016708D01*
X018764Y016746D02*
X019273Y016746D01*
X019273Y016784D02*
X018764Y016784D01*
X018764Y016821D02*
X019273Y016821D01*
X019273Y016859D02*
X018764Y016859D01*
X018764Y016897D02*
X019273Y016897D01*
X019273Y016935D02*
X018764Y016935D01*
X018764Y016973D02*
X019273Y016973D01*
X019273Y017011D02*
X018764Y017011D01*
X018764Y017049D02*
X019273Y017049D01*
X019273Y017087D02*
X018764Y017087D01*
X018764Y017124D02*
X019273Y017124D01*
X019273Y017162D02*
X018764Y017162D01*
X018750Y017200D02*
X019273Y017200D01*
X019296Y017238D02*
X018734Y017238D01*
X018718Y017276D02*
X019334Y017276D01*
X019372Y017314D02*
X018687Y017314D01*
X018649Y017352D02*
X021932Y017352D01*
X021932Y017389D02*
X018612Y017389D01*
X018574Y017427D02*
X021932Y017427D01*
X021932Y017465D02*
X018536Y017465D01*
X018488Y017503D02*
X021932Y017503D01*
X021932Y017541D02*
X018396Y017541D01*
X018276Y017579D02*
X021932Y017579D01*
X021932Y017617D02*
X018238Y017617D01*
X018200Y017655D02*
X021932Y017655D01*
X021932Y017692D02*
X017772Y017692D01*
X017735Y017730D02*
X021932Y017730D01*
X021932Y017768D02*
X017697Y017768D01*
X017659Y017806D02*
X021932Y017806D01*
X021932Y017844D02*
X016706Y017844D01*
X016706Y017882D02*
X021932Y017882D01*
X021932Y017920D02*
X016706Y017920D01*
X016706Y017958D02*
X021932Y017958D01*
X021932Y017995D02*
X016706Y017995D01*
X016706Y018033D02*
X021932Y018033D01*
X021932Y018071D02*
X016706Y018071D01*
X016706Y018109D02*
X021932Y018109D01*
X021932Y018147D02*
X016706Y018147D01*
X016706Y018185D02*
X021932Y018185D01*
X021932Y018223D02*
X016706Y018223D01*
X016693Y018261D02*
X021932Y018261D01*
X021932Y018298D02*
X016655Y018298D01*
X016617Y018336D02*
X021932Y018336D01*
X021932Y018374D02*
X013958Y018374D01*
X013942Y018336D02*
X014087Y018336D01*
X014049Y018298D02*
X013927Y018298D01*
X013891Y018261D02*
X014011Y018261D01*
X013998Y018223D02*
X013853Y018223D01*
X013815Y018185D02*
X013998Y018185D01*
X013998Y018147D02*
X013762Y018147D01*
X013671Y018109D02*
X013998Y018109D01*
X013998Y018071D02*
X012246Y018071D01*
X012208Y018033D02*
X013998Y018033D01*
X013998Y017995D02*
X012170Y017995D01*
X012133Y017958D02*
X013998Y017958D01*
X013998Y017920D02*
X012095Y017920D01*
X012057Y017882D02*
X013998Y017882D01*
X013998Y017844D02*
X012019Y017844D01*
X011981Y017806D02*
X013049Y017806D01*
X013011Y017768D02*
X011943Y017768D01*
X011905Y017730D02*
X012973Y017730D01*
X012935Y017692D02*
X011867Y017692D01*
X011830Y017655D02*
X012504Y017655D01*
X012466Y017617D02*
X011861Y017617D01*
X011899Y017579D02*
X012428Y017579D01*
X012390Y017541D02*
X011936Y017541D01*
X011967Y017503D02*
X012387Y017503D01*
X012387Y017465D02*
X011983Y017465D01*
X011999Y017427D02*
X012387Y017427D01*
X012387Y017389D02*
X012013Y017389D01*
X012013Y017352D02*
X012387Y017352D01*
X012387Y017314D02*
X012013Y017314D01*
X012013Y017276D02*
X012387Y017276D01*
X012387Y017238D02*
X012013Y017238D01*
X012013Y017200D02*
X012387Y017200D01*
X012387Y017162D02*
X012013Y017162D01*
X012013Y017124D02*
X012387Y017124D01*
X012387Y017087D02*
X012013Y017087D01*
X012013Y017049D02*
X012387Y017049D01*
X012387Y017011D02*
X012013Y017011D01*
X012013Y016973D02*
X012387Y016973D01*
X012387Y016935D02*
X012013Y016935D01*
X012013Y016897D02*
X012387Y016897D01*
X012414Y016859D02*
X012013Y016859D01*
X012013Y016821D02*
X012452Y016821D01*
X012490Y016784D02*
X012013Y016784D01*
X012013Y016746D02*
X012497Y016746D01*
X012459Y016708D02*
X012013Y016708D01*
X012013Y016670D02*
X012421Y016670D01*
X012387Y016632D02*
X012013Y016632D01*
X012013Y016594D02*
X012387Y016594D01*
X012387Y016556D02*
X012013Y016556D01*
X012013Y016518D02*
X012387Y016518D01*
X012387Y016481D02*
X012013Y016481D01*
X012013Y016443D02*
X012387Y016443D01*
X012387Y016405D02*
X012018Y016405D01*
X012056Y016367D02*
X012387Y016367D01*
X012387Y016329D02*
X012092Y016329D01*
X012092Y016291D02*
X012387Y016291D01*
X012387Y016253D02*
X012092Y016253D01*
X012092Y016216D02*
X012387Y016216D01*
X012387Y016178D02*
X012092Y016178D01*
X012092Y016140D02*
X012387Y016140D01*
X012387Y016102D02*
X012092Y016102D01*
X012092Y016064D02*
X012387Y016064D01*
X012387Y016026D02*
X012092Y016026D01*
X012092Y015988D02*
X012387Y015988D01*
X012422Y015950D02*
X012092Y015950D01*
X012092Y015913D02*
X012460Y015913D01*
X012497Y015875D02*
X012092Y015875D01*
X012092Y015837D02*
X012489Y015837D01*
X012451Y015799D02*
X012092Y015799D01*
X012120Y015761D02*
X012414Y015761D01*
X011344Y016443D02*
X011311Y016443D01*
X011344Y016481D02*
X006048Y016481D01*
X006083Y016443D02*
X010708Y016443D01*
X010670Y016405D02*
X006099Y016405D01*
X006114Y016367D02*
X010633Y016367D01*
X010328Y016329D02*
X006130Y016329D01*
X006146Y016291D02*
X010260Y016291D01*
X010222Y016253D02*
X006361Y016253D01*
X006452Y016216D02*
X010184Y016216D01*
X010146Y016178D02*
X006544Y016178D01*
X006594Y016140D02*
X010108Y016140D01*
X010071Y016102D02*
X006632Y016102D01*
X006670Y016064D02*
X010033Y016064D01*
X010074Y017200D02*
X001029Y017200D01*
X001029Y017162D02*
X011344Y017162D01*
X011344Y017124D02*
X001029Y017124D01*
X001029Y017087D02*
X011344Y017087D01*
X011344Y017049D02*
X001029Y017049D01*
X001029Y017011D02*
X011344Y017011D01*
X011344Y016973D02*
X001029Y016973D01*
X001029Y016935D02*
X011344Y016935D01*
X011344Y016897D02*
X001029Y016897D01*
X001029Y016859D02*
X011344Y016859D01*
X011344Y016821D02*
X001029Y016821D01*
X001029Y016784D02*
X011344Y016784D01*
X011344Y016746D02*
X001029Y016746D01*
X001029Y016708D02*
X005356Y016708D01*
X005265Y016670D02*
X001029Y016670D01*
X001029Y016632D02*
X005174Y016632D01*
X005132Y016594D02*
X001029Y016594D01*
X001029Y016556D02*
X005094Y016556D01*
X005056Y016518D02*
X001029Y016518D01*
X001029Y016481D02*
X005018Y016481D01*
X004983Y016443D02*
X001029Y016443D01*
X001029Y016405D02*
X004967Y016405D01*
X004952Y016367D02*
X001029Y016367D01*
X001029Y016329D02*
X004936Y016329D01*
X004920Y016291D02*
X001029Y016291D01*
X001029Y016253D02*
X004905Y016253D01*
X004889Y016216D02*
X001029Y016216D01*
X001029Y016178D02*
X004887Y016178D01*
X004887Y016140D02*
X001029Y016140D01*
X001029Y016102D02*
X004887Y016102D01*
X004887Y016064D02*
X001029Y016064D01*
X001029Y016026D02*
X004887Y016026D01*
X004887Y015988D02*
X001029Y015988D01*
X001029Y015950D02*
X004887Y015950D01*
X004887Y015913D02*
X001029Y015913D01*
X001029Y015875D02*
X004887Y015875D01*
X004887Y015837D02*
X001029Y015837D01*
X001029Y015799D02*
X004887Y015799D01*
X004887Y015761D02*
X001029Y015761D01*
X001029Y015723D02*
X004887Y015723D01*
X004887Y015685D02*
X001029Y015685D01*
X001029Y015647D02*
X004887Y015647D01*
X004887Y015610D02*
X001029Y015610D01*
X001029Y015572D02*
X004887Y015572D01*
X004887Y015534D02*
X001029Y015534D01*
X001029Y015496D02*
X004887Y015496D01*
X004887Y015458D02*
X001029Y015458D01*
X001029Y015420D02*
X004887Y015420D01*
X004887Y015382D02*
X001029Y015382D01*
X001029Y015344D02*
X004887Y015344D01*
X004887Y015307D02*
X001029Y015307D01*
X001029Y015269D02*
X004887Y015269D01*
X004887Y015231D02*
X001029Y015231D01*
X001029Y015193D02*
X004887Y015193D01*
X004887Y015155D02*
X001029Y015155D01*
X001029Y015117D02*
X004887Y015117D01*
X004892Y015079D02*
X001029Y015079D01*
X001029Y015042D02*
X004908Y015042D01*
X004923Y015004D02*
X001029Y015004D01*
X001029Y014966D02*
X004923Y014966D01*
X004923Y014928D02*
X001029Y014928D01*
X001029Y014890D02*
X004923Y014890D01*
X004923Y014852D02*
X001029Y014852D01*
X001029Y014814D02*
X004923Y014814D01*
X004923Y014776D02*
X001029Y014776D01*
X001029Y014739D02*
X004923Y014739D01*
X004923Y014701D02*
X001029Y014701D01*
X001029Y014663D02*
X004923Y014663D01*
X004923Y014625D02*
X001029Y014625D01*
X001029Y014587D02*
X004923Y014587D01*
X004923Y014549D02*
X001029Y014549D01*
X001029Y014511D02*
X004923Y014511D01*
X004923Y014473D02*
X001029Y014473D01*
X001029Y014436D02*
X004923Y014436D01*
X004923Y014398D02*
X001029Y014398D01*
X001029Y014360D02*
X004923Y014360D01*
X004923Y014322D02*
X001029Y014322D01*
X001029Y014284D02*
X004923Y014284D01*
X004923Y014246D02*
X001029Y014246D01*
X001029Y014208D02*
X004923Y014208D01*
X004923Y014171D02*
X001029Y014171D01*
X001029Y014133D02*
X004923Y014133D01*
X004923Y014095D02*
X001029Y014095D01*
X001029Y014057D02*
X004923Y014057D01*
X004923Y014019D02*
X002541Y014019D01*
X002534Y014022D02*
X002338Y014022D01*
X002157Y013947D01*
X002018Y013809D01*
X001944Y013628D01*
X001944Y013432D01*
X002018Y013251D01*
X002101Y013169D01*
X002101Y011795D01*
X002054Y011842D01*
X001481Y011842D01*
X001354Y011715D01*
X001354Y011103D01*
X001029Y011103D01*
X001029Y011065D02*
X001392Y011065D01*
X001429Y011027D02*
X001029Y011027D01*
X001029Y010989D02*
X001433Y010989D01*
X001433Y011024D02*
X001433Y010794D01*
X001334Y010696D01*
X001334Y010123D01*
X001433Y010024D01*
X001433Y009826D01*
X001484Y009703D01*
X001578Y009609D01*
X001811Y009375D01*
X001891Y009342D01*
X001481Y009342D01*
X001354Y009215D01*
X001354Y008603D01*
X001359Y008598D01*
X001280Y008519D01*
X001205Y008338D01*
X001205Y008142D01*
X001280Y007961D01*
X001374Y007867D01*
X001354Y007846D01*
X001029Y007846D01*
X001029Y007808D02*
X001354Y007808D01*
X001354Y007770D02*
X001029Y007770D01*
X001029Y007733D02*
X001354Y007733D01*
X001354Y007695D02*
X001029Y007695D01*
X001029Y007657D02*
X001354Y007657D01*
X001354Y007619D02*
X001029Y007619D01*
X001029Y007581D02*
X001354Y007581D01*
X001354Y007543D02*
X001029Y007543D01*
X001029Y007505D02*
X001354Y007505D01*
X001354Y007467D02*
X001029Y007467D01*
X001029Y007430D02*
X001354Y007430D01*
X001354Y007392D02*
X001029Y007392D01*
X001029Y007354D02*
X001354Y007354D01*
X001354Y007316D02*
X001029Y007316D01*
X001029Y007278D02*
X001354Y007278D01*
X001354Y007240D02*
X001029Y007240D01*
X001029Y007202D02*
X001385Y007202D01*
X001354Y007234D02*
X001433Y007155D01*
X001433Y006925D01*
X001354Y006846D01*
X001354Y006234D01*
X001481Y006107D01*
X002054Y006107D01*
X002181Y006234D01*
X002181Y006846D01*
X002102Y006925D01*
X002102Y007155D01*
X002150Y007107D01*
X002723Y007107D01*
X002850Y007234D01*
X002850Y007846D01*
X002962Y007846D01*
X002962Y007808D02*
X002850Y007808D01*
X002850Y007770D02*
X002962Y007770D01*
X002962Y007733D02*
X002850Y007733D01*
X002850Y007695D02*
X002962Y007695D01*
X002962Y007657D02*
X002850Y007657D01*
X002850Y007619D02*
X002962Y007619D01*
X002962Y007581D02*
X002850Y007581D01*
X002850Y007543D02*
X002962Y007543D01*
X002962Y007505D02*
X002850Y007505D01*
X002850Y007467D02*
X002962Y007467D01*
X002962Y007430D02*
X002850Y007430D01*
X002850Y007392D02*
X002962Y007392D01*
X002962Y007354D02*
X002850Y007354D01*
X002850Y007316D02*
X002962Y007316D01*
X002962Y007278D02*
X002850Y007278D01*
X002850Y007240D02*
X002962Y007240D01*
X002962Y007202D02*
X002819Y007202D01*
X002781Y007165D02*
X002962Y007165D01*
X002962Y007127D02*
X002743Y007127D01*
X002962Y007089D02*
X002102Y007089D01*
X002102Y007127D02*
X002130Y007127D01*
X002102Y007051D02*
X002962Y007051D01*
X002962Y007013D02*
X002102Y007013D01*
X002102Y006975D02*
X002962Y006975D01*
X002962Y006937D02*
X002102Y006937D01*
X002127Y006899D02*
X002962Y006899D01*
X002962Y006862D02*
X002165Y006862D01*
X002181Y006824D02*
X002962Y006824D01*
X002962Y006786D02*
X002181Y006786D01*
X002181Y006748D02*
X002962Y006748D01*
X002962Y006710D02*
X002181Y006710D01*
X002181Y006672D02*
X002962Y006672D01*
X002962Y006634D02*
X002181Y006634D01*
X002181Y006596D02*
X002962Y006596D01*
X002962Y006559D02*
X002181Y006559D01*
X002181Y006521D02*
X002962Y006521D01*
X002962Y006483D02*
X002181Y006483D01*
X002181Y006445D02*
X002962Y006445D01*
X002962Y006407D02*
X002181Y006407D01*
X002181Y006369D02*
X002962Y006369D01*
X002962Y006331D02*
X002181Y006331D01*
X002181Y006293D02*
X002962Y006293D01*
X002962Y006256D02*
X002181Y006256D01*
X002165Y006218D02*
X002962Y006218D01*
X002962Y006180D02*
X002127Y006180D01*
X002089Y006142D02*
X002962Y006142D01*
X002962Y006104D02*
X001029Y006104D01*
X001029Y006066D02*
X002962Y006066D01*
X002962Y006028D02*
X001029Y006028D01*
X001029Y005991D02*
X002962Y005991D01*
X002962Y005953D02*
X001029Y005953D01*
X001029Y005915D02*
X002962Y005915D01*
X002962Y005877D02*
X001029Y005877D01*
X001029Y005839D02*
X002962Y005839D01*
X002962Y005801D02*
X001029Y005801D01*
X001029Y005763D02*
X002962Y005763D01*
X002962Y005725D02*
X002055Y005725D01*
X002054Y005727D02*
X002181Y005600D01*
X002181Y004988D01*
X002102Y004909D01*
X002102Y004679D01*
X002102Y004679D01*
X002130Y004707D01*
X002743Y004707D01*
X002801Y004649D01*
X002962Y004810D01*
X002962Y008060D01*
X003013Y008183D01*
X003057Y008227D01*
X003057Y008324D01*
X002983Y008324D01*
X002856Y008451D01*
X002856Y008597D01*
X002835Y008588D01*
X002771Y008524D01*
X002771Y007925D01*
X002850Y007846D01*
X002812Y007884D02*
X002962Y007884D01*
X002962Y007922D02*
X002774Y007922D01*
X002771Y007960D02*
X002962Y007960D01*
X002962Y007998D02*
X002771Y007998D01*
X002771Y008036D02*
X002962Y008036D01*
X002968Y008073D02*
X002771Y008073D01*
X002771Y008111D02*
X002983Y008111D01*
X002999Y008149D02*
X002771Y008149D01*
X002771Y008187D02*
X003017Y008187D01*
X003055Y008225D02*
X002771Y008225D01*
X002771Y008263D02*
X003057Y008263D01*
X003057Y008301D02*
X002771Y008301D01*
X002771Y008338D02*
X002969Y008338D01*
X002931Y008376D02*
X002771Y008376D01*
X002771Y008414D02*
X002893Y008414D01*
X002856Y008452D02*
X002771Y008452D01*
X002771Y008490D02*
X002856Y008490D01*
X002856Y008528D02*
X002775Y008528D01*
X002813Y008566D02*
X002856Y008566D01*
X003726Y008324D02*
X003726Y008022D01*
X003675Y007899D01*
X003631Y007855D01*
X003631Y004605D01*
X003581Y004482D01*
X003486Y004388D01*
X003108Y004010D01*
X002985Y003959D01*
X002822Y003959D01*
X002743Y003881D01*
X002130Y003881D01*
X002102Y003909D01*
X002074Y003881D01*
X001461Y003881D01*
X001334Y004007D01*
X001334Y004580D01*
X001433Y004679D01*
X001433Y004909D01*
X001354Y004988D01*
X001354Y005600D01*
X001481Y005727D01*
X002054Y005727D01*
X002093Y005688D02*
X002962Y005688D01*
X002962Y005650D02*
X002131Y005650D01*
X002169Y005612D02*
X002962Y005612D01*
X002962Y005574D02*
X002181Y005574D01*
X002181Y005536D02*
X002962Y005536D01*
X002962Y005498D02*
X002181Y005498D01*
X002181Y005460D02*
X002962Y005460D01*
X002962Y005422D02*
X002181Y005422D01*
X002181Y005385D02*
X002962Y005385D01*
X002962Y005347D02*
X002181Y005347D01*
X002181Y005309D02*
X002962Y005309D01*
X002962Y005271D02*
X002181Y005271D01*
X002181Y005233D02*
X002962Y005233D01*
X002962Y005195D02*
X002181Y005195D01*
X002181Y005157D02*
X002962Y005157D01*
X002962Y005120D02*
X002181Y005120D01*
X002181Y005082D02*
X002962Y005082D01*
X002962Y005044D02*
X002181Y005044D01*
X002181Y005006D02*
X002962Y005006D01*
X002962Y004968D02*
X002161Y004968D01*
X002123Y004930D02*
X002962Y004930D01*
X002962Y004892D02*
X002102Y004892D01*
X002102Y004854D02*
X002962Y004854D01*
X002962Y004817D02*
X002102Y004817D01*
X002102Y004779D02*
X002930Y004779D01*
X002893Y004741D02*
X002102Y004741D01*
X002102Y004703D02*
X002126Y004703D01*
X002747Y004703D02*
X002855Y004703D01*
X002817Y004665D02*
X002785Y004665D01*
X003271Y004173D02*
X005011Y004173D01*
X005026Y004211D02*
X003309Y004211D01*
X003347Y004248D02*
X005042Y004248D01*
X005058Y004286D02*
X003385Y004286D01*
X003422Y004324D02*
X005073Y004324D01*
X005089Y004362D02*
X003460Y004362D01*
X003498Y004400D02*
X005105Y004400D01*
X005130Y004438D02*
X003536Y004438D01*
X003574Y004476D02*
X005168Y004476D01*
X005205Y004514D02*
X003594Y004514D01*
X003609Y004551D02*
X005243Y004551D01*
X005271Y004579D02*
X005271Y005279D01*
X005057Y005493D01*
X004886Y005665D01*
X004793Y005889D01*
X004793Y007030D01*
X004872Y007221D01*
X004872Y007530D01*
X004998Y007657D01*
X003631Y007657D01*
X003631Y007695D02*
X006407Y007695D01*
X006407Y007733D02*
X003631Y007733D01*
X003631Y007770D02*
X006407Y007770D01*
X006407Y007808D02*
X003631Y007808D01*
X003631Y007846D02*
X006407Y007846D01*
X006407Y007878D02*
X006407Y007519D01*
X005935Y007519D01*
X005935Y007530D01*
X005808Y007657D01*
X006407Y007657D01*
X006407Y007619D02*
X005846Y007619D01*
X005884Y007581D02*
X006407Y007581D01*
X006407Y007543D02*
X005922Y007543D01*
X005808Y007657D02*
X004998Y007657D01*
X004960Y007619D02*
X003631Y007619D01*
X003631Y007581D02*
X004922Y007581D01*
X004885Y007543D02*
X003631Y007543D01*
X003631Y007505D02*
X004872Y007505D01*
X004872Y007467D02*
X003631Y007467D01*
X003631Y007430D02*
X004872Y007430D01*
X004872Y007392D02*
X003631Y007392D01*
X003631Y007354D02*
X004872Y007354D01*
X004872Y007316D02*
X003631Y007316D01*
X003631Y007278D02*
X004872Y007278D01*
X004872Y007240D02*
X003631Y007240D01*
X003631Y007202D02*
X004864Y007202D01*
X004848Y007165D02*
X003631Y007165D01*
X003631Y007127D02*
X004833Y007127D01*
X004817Y007089D02*
X003631Y007089D01*
X003631Y007051D02*
X004801Y007051D01*
X004793Y007013D02*
X003631Y007013D01*
X003631Y006975D02*
X004793Y006975D01*
X004793Y006937D02*
X003631Y006937D01*
X003631Y006899D02*
X004793Y006899D01*
X004793Y006862D02*
X003631Y006862D01*
X003631Y006824D02*
X004793Y006824D01*
X004793Y006786D02*
X003631Y006786D01*
X003631Y006748D02*
X004793Y006748D01*
X004793Y006710D02*
X003631Y006710D01*
X003631Y006672D02*
X004793Y006672D01*
X004793Y006634D02*
X003631Y006634D01*
X003631Y006596D02*
X004793Y006596D01*
X004793Y006559D02*
X003631Y006559D01*
X003631Y006521D02*
X004793Y006521D01*
X004793Y006483D02*
X003631Y006483D01*
X003631Y006445D02*
X004793Y006445D01*
X004793Y006407D02*
X003631Y006407D01*
X003631Y006369D02*
X004793Y006369D01*
X004793Y006331D02*
X003631Y006331D01*
X003631Y006293D02*
X004793Y006293D01*
X004793Y006256D02*
X003631Y006256D01*
X003631Y006218D02*
X004793Y006218D01*
X004793Y006180D02*
X003631Y006180D01*
X003631Y006142D02*
X004793Y006142D01*
X004793Y006104D02*
X003631Y006104D01*
X003631Y006066D02*
X004793Y006066D01*
X004793Y006028D02*
X003631Y006028D01*
X003631Y005991D02*
X004793Y005991D01*
X004793Y005953D02*
X003631Y005953D01*
X003631Y005915D02*
X004793Y005915D01*
X004798Y005877D02*
X003631Y005877D01*
X003631Y005839D02*
X004814Y005839D01*
X004829Y005801D02*
X003631Y005801D01*
X003631Y005763D02*
X004845Y005763D01*
X004861Y005725D02*
X003631Y005725D01*
X003631Y005688D02*
X004876Y005688D01*
X004901Y005650D02*
X003631Y005650D01*
X003631Y005612D02*
X004939Y005612D01*
X004977Y005574D02*
X003631Y005574D01*
X003631Y005536D02*
X005014Y005536D01*
X005052Y005498D02*
X003631Y005498D01*
X003631Y005460D02*
X005090Y005460D01*
X005128Y005422D02*
X003631Y005422D01*
X003631Y005385D02*
X005166Y005385D01*
X005204Y005347D02*
X003631Y005347D01*
X003631Y005309D02*
X005242Y005309D01*
X005271Y005271D02*
X003631Y005271D01*
X003631Y005233D02*
X005271Y005233D01*
X005271Y005195D02*
X003631Y005195D01*
X003631Y005157D02*
X005271Y005157D01*
X005271Y005120D02*
X003631Y005120D01*
X003631Y005082D02*
X005271Y005082D01*
X005271Y005044D02*
X003631Y005044D01*
X003631Y005006D02*
X005271Y005006D01*
X005271Y004968D02*
X003631Y004968D01*
X003631Y004930D02*
X005271Y004930D01*
X005271Y004892D02*
X003631Y004892D01*
X003631Y004854D02*
X005271Y004854D01*
X005271Y004817D02*
X003631Y004817D01*
X003631Y004779D02*
X005271Y004779D01*
X005271Y004741D02*
X003631Y004741D01*
X003631Y004703D02*
X005271Y004703D01*
X005271Y004665D02*
X003631Y004665D01*
X003631Y004627D02*
X005271Y004627D01*
X005271Y004589D02*
X003625Y004589D01*
X003233Y004135D02*
X004995Y004135D01*
X004979Y004097D02*
X003195Y004097D01*
X003157Y004059D02*
X004976Y004059D01*
X004976Y004021D02*
X003120Y004021D01*
X003044Y003983D02*
X004976Y003983D01*
X004976Y003946D02*
X002808Y003946D01*
X002770Y003908D02*
X004976Y003908D01*
X004976Y003870D02*
X001029Y003870D01*
X001029Y003908D02*
X001434Y003908D01*
X001396Y003946D02*
X001029Y003946D01*
X001029Y003983D02*
X001358Y003983D01*
X001334Y004021D02*
X001029Y004021D01*
X001029Y004059D02*
X001334Y004059D01*
X001334Y004097D02*
X001029Y004097D01*
X001029Y004135D02*
X001334Y004135D01*
X001334Y004173D02*
X001029Y004173D01*
X001029Y004211D02*
X001334Y004211D01*
X001334Y004248D02*
X001029Y004248D01*
X001029Y004286D02*
X001334Y004286D01*
X001334Y004324D02*
X001029Y004324D01*
X001029Y004362D02*
X001334Y004362D01*
X001334Y004400D02*
X001029Y004400D01*
X001029Y004438D02*
X001334Y004438D01*
X001334Y004476D02*
X001029Y004476D01*
X001029Y004514D02*
X001334Y004514D01*
X001334Y004551D02*
X001029Y004551D01*
X001029Y004589D02*
X001343Y004589D01*
X001381Y004627D02*
X001029Y004627D01*
X001029Y004665D02*
X001419Y004665D01*
X001433Y004703D02*
X001029Y004703D01*
X001029Y004741D02*
X001433Y004741D01*
X001433Y004779D02*
X001029Y004779D01*
X001029Y004817D02*
X001433Y004817D01*
X001433Y004854D02*
X001029Y004854D01*
X001029Y004892D02*
X001433Y004892D01*
X001411Y004930D02*
X001029Y004930D01*
X001029Y004968D02*
X001374Y004968D01*
X001354Y005006D02*
X001029Y005006D01*
X001029Y005044D02*
X001354Y005044D01*
X001354Y005082D02*
X001029Y005082D01*
X001029Y005120D02*
X001354Y005120D01*
X001354Y005157D02*
X001029Y005157D01*
X001029Y005195D02*
X001354Y005195D01*
X001354Y005233D02*
X001029Y005233D01*
X001029Y005271D02*
X001354Y005271D01*
X001354Y005309D02*
X001029Y005309D01*
X001029Y005347D02*
X001354Y005347D01*
X001354Y005385D02*
X001029Y005385D01*
X001029Y005422D02*
X001354Y005422D01*
X001354Y005460D02*
X001029Y005460D01*
X001029Y005498D02*
X001354Y005498D01*
X001354Y005536D02*
X001029Y005536D01*
X001029Y005574D02*
X001354Y005574D01*
X001366Y005612D02*
X001029Y005612D01*
X001029Y005650D02*
X001404Y005650D01*
X001441Y005688D02*
X001029Y005688D01*
X001029Y005725D02*
X001479Y005725D01*
X001446Y006142D02*
X001029Y006142D01*
X001029Y006180D02*
X001408Y006180D01*
X001370Y006218D02*
X001029Y006218D01*
X001029Y006256D02*
X001354Y006256D01*
X001354Y006293D02*
X001029Y006293D01*
X001029Y006331D02*
X001354Y006331D01*
X001354Y006369D02*
X001029Y006369D01*
X001029Y006407D02*
X001354Y006407D01*
X001354Y006445D02*
X001029Y006445D01*
X001029Y006483D02*
X001354Y006483D01*
X001354Y006521D02*
X001029Y006521D01*
X001029Y006559D02*
X001354Y006559D01*
X001354Y006596D02*
X001029Y006596D01*
X001029Y006634D02*
X001354Y006634D01*
X001354Y006672D02*
X001029Y006672D01*
X001029Y006710D02*
X001354Y006710D01*
X001354Y006748D02*
X001029Y006748D01*
X001029Y006786D02*
X001354Y006786D01*
X001354Y006824D02*
X001029Y006824D01*
X001029Y006862D02*
X001369Y006862D01*
X001407Y006899D02*
X001029Y006899D01*
X001029Y006937D02*
X001433Y006937D01*
X001433Y006975D02*
X001029Y006975D01*
X001029Y007013D02*
X001433Y007013D01*
X001433Y007051D02*
X001029Y007051D01*
X001029Y007089D02*
X001433Y007089D01*
X001433Y007127D02*
X001029Y007127D01*
X001029Y007165D02*
X001423Y007165D01*
X001354Y007234D02*
X001354Y007846D01*
X001357Y007884D02*
X001029Y007884D01*
X001029Y007922D02*
X001319Y007922D01*
X001281Y007960D02*
X001029Y007960D01*
X001029Y007998D02*
X001265Y007998D01*
X001249Y008036D02*
X001029Y008036D01*
X001029Y008073D02*
X001234Y008073D01*
X001218Y008111D02*
X001029Y008111D01*
X001029Y008149D02*
X001205Y008149D01*
X001205Y008187D02*
X001029Y008187D01*
X001029Y008225D02*
X001205Y008225D01*
X001205Y008263D02*
X001029Y008263D01*
X001029Y008301D02*
X001205Y008301D01*
X001206Y008338D02*
X001029Y008338D01*
X001029Y008376D02*
X001221Y008376D01*
X001237Y008414D02*
X001029Y008414D01*
X001029Y008452D02*
X001253Y008452D01*
X001268Y008490D02*
X001029Y008490D01*
X001029Y008528D02*
X001290Y008528D01*
X001327Y008566D02*
X001029Y008566D01*
X001029Y008604D02*
X001354Y008604D01*
X001354Y008641D02*
X001029Y008641D01*
X001029Y008679D02*
X001354Y008679D01*
X001354Y008717D02*
X001029Y008717D01*
X001029Y008755D02*
X001354Y008755D01*
X001354Y008793D02*
X001029Y008793D01*
X001029Y008831D02*
X001354Y008831D01*
X001354Y008869D02*
X001029Y008869D01*
X001029Y008907D02*
X001354Y008907D01*
X001354Y008944D02*
X001029Y008944D01*
X001029Y008982D02*
X001354Y008982D01*
X001354Y009020D02*
X001029Y009020D01*
X001029Y009058D02*
X001354Y009058D01*
X001354Y009096D02*
X001029Y009096D01*
X001029Y009134D02*
X001354Y009134D01*
X001354Y009172D02*
X001029Y009172D01*
X001029Y009210D02*
X001354Y009210D01*
X001386Y009247D02*
X001029Y009247D01*
X001029Y009285D02*
X001424Y009285D01*
X001462Y009323D02*
X001029Y009323D01*
X001029Y009361D02*
X001846Y009361D01*
X001788Y009399D02*
X001029Y009399D01*
X001029Y009437D02*
X001750Y009437D01*
X001712Y009475D02*
X001029Y009475D01*
X001029Y009512D02*
X001674Y009512D01*
X001636Y009550D02*
X001029Y009550D01*
X001029Y009588D02*
X001598Y009588D01*
X001560Y009626D02*
X001029Y009626D01*
X001029Y009664D02*
X001522Y009664D01*
X001485Y009702D02*
X001029Y009702D01*
X001029Y009740D02*
X001468Y009740D01*
X001453Y009778D02*
X001029Y009778D01*
X001029Y009815D02*
X001437Y009815D01*
X001433Y009853D02*
X001029Y009853D01*
X001029Y009891D02*
X001433Y009891D01*
X001433Y009929D02*
X001029Y009929D01*
X001029Y009967D02*
X001433Y009967D01*
X001433Y010005D02*
X001029Y010005D01*
X001029Y010043D02*
X001414Y010043D01*
X001376Y010081D02*
X001029Y010081D01*
X001029Y010118D02*
X001338Y010118D01*
X001334Y010156D02*
X001029Y010156D01*
X001029Y010194D02*
X001334Y010194D01*
X001334Y010232D02*
X001029Y010232D01*
X001029Y010270D02*
X001334Y010270D01*
X001334Y010308D02*
X001029Y010308D01*
X001029Y010346D02*
X001334Y010346D01*
X001334Y010383D02*
X001029Y010383D01*
X001029Y010421D02*
X001334Y010421D01*
X001334Y010459D02*
X001029Y010459D01*
X001029Y010497D02*
X001334Y010497D01*
X001334Y010535D02*
X001029Y010535D01*
X001029Y010573D02*
X001334Y010573D01*
X001334Y010611D02*
X001029Y010611D01*
X001029Y010649D02*
X001334Y010649D01*
X001334Y010686D02*
X001029Y010686D01*
X001029Y010724D02*
X001363Y010724D01*
X001401Y010762D02*
X001029Y010762D01*
X001029Y010800D02*
X001433Y010800D01*
X001433Y010838D02*
X001029Y010838D01*
X001029Y010876D02*
X001433Y010876D01*
X001433Y010914D02*
X001029Y010914D01*
X001029Y010952D02*
X001433Y010952D01*
X001433Y011024D02*
X001354Y011103D01*
X001354Y011141D02*
X001029Y011141D01*
X001029Y011179D02*
X001354Y011179D01*
X001354Y011217D02*
X001029Y011217D01*
X001029Y011255D02*
X001354Y011255D01*
X001354Y011292D02*
X001029Y011292D01*
X001029Y011330D02*
X001354Y011330D01*
X001354Y011368D02*
X001029Y011368D01*
X001029Y011406D02*
X001354Y011406D01*
X001354Y011444D02*
X001029Y011444D01*
X001029Y011482D02*
X001354Y011482D01*
X001354Y011520D02*
X001029Y011520D01*
X001029Y011557D02*
X001354Y011557D01*
X001354Y011595D02*
X001029Y011595D01*
X001029Y011633D02*
X001354Y011633D01*
X001354Y011671D02*
X001029Y011671D01*
X001029Y011709D02*
X001354Y011709D01*
X001385Y011747D02*
X001029Y011747D01*
X001029Y011785D02*
X001423Y011785D01*
X001461Y011823D02*
X001029Y011823D01*
X001029Y011860D02*
X002101Y011860D01*
X002101Y011823D02*
X002073Y011823D01*
X002101Y011898D02*
X001029Y011898D01*
X001029Y011936D02*
X002101Y011936D01*
X002101Y011974D02*
X001029Y011974D01*
X001029Y012012D02*
X002101Y012012D01*
X002101Y012050D02*
X001029Y012050D01*
X001029Y012088D02*
X002101Y012088D01*
X002101Y012126D02*
X001029Y012126D01*
X001029Y012163D02*
X002101Y012163D01*
X002101Y012201D02*
X001029Y012201D01*
X001029Y012239D02*
X002101Y012239D01*
X002101Y012277D02*
X001029Y012277D01*
X001029Y012315D02*
X002101Y012315D01*
X002101Y012353D02*
X001029Y012353D01*
X001029Y012391D02*
X002101Y012391D01*
X002101Y012428D02*
X001029Y012428D01*
X001029Y012466D02*
X002101Y012466D01*
X002101Y012504D02*
X001029Y012504D01*
X001029Y012542D02*
X002101Y012542D01*
X002101Y012580D02*
X001029Y012580D01*
X001029Y012618D02*
X002101Y012618D01*
X002101Y012656D02*
X001029Y012656D01*
X001029Y012694D02*
X002101Y012694D01*
X002101Y012731D02*
X001029Y012731D01*
X001029Y012769D02*
X002101Y012769D01*
X002101Y012807D02*
X001029Y012807D01*
X001029Y012845D02*
X002101Y012845D01*
X002101Y012883D02*
X001029Y012883D01*
X001029Y012921D02*
X002101Y012921D01*
X002101Y012959D02*
X001029Y012959D01*
X001029Y012997D02*
X002101Y012997D01*
X002101Y013034D02*
X001029Y013034D01*
X001029Y013072D02*
X002101Y013072D01*
X002101Y013110D02*
X001029Y013110D01*
X001029Y013148D02*
X002101Y013148D01*
X002084Y013186D02*
X001029Y013186D01*
X001029Y013224D02*
X002046Y013224D01*
X002014Y013262D02*
X001029Y013262D01*
X001029Y013299D02*
X001998Y013299D01*
X001983Y013337D02*
X001029Y013337D01*
X001029Y013375D02*
X001967Y013375D01*
X001951Y013413D02*
X001029Y013413D01*
X001029Y013451D02*
X001944Y013451D01*
X001944Y013489D02*
X001029Y013489D01*
X001029Y013527D02*
X001944Y013527D01*
X001944Y013565D02*
X001029Y013565D01*
X001029Y013602D02*
X001944Y013602D01*
X001949Y013640D02*
X001029Y013640D01*
X001029Y013678D02*
X001964Y013678D01*
X001980Y013716D02*
X001029Y013716D01*
X001029Y013754D02*
X001996Y013754D01*
X002011Y013792D02*
X001029Y013792D01*
X001029Y013830D02*
X002039Y013830D01*
X002077Y013868D02*
X001029Y013868D01*
X001029Y013905D02*
X002115Y013905D01*
X002153Y013943D02*
X001029Y013943D01*
X001029Y013981D02*
X002239Y013981D01*
X002330Y014019D02*
X001029Y014019D01*
X002534Y014022D02*
X002714Y013947D01*
X002853Y013809D01*
X002928Y013628D01*
X002928Y013432D01*
X002853Y013251D01*
X002770Y013169D01*
X002770Y011795D01*
X002850Y011715D01*
X002850Y011103D01*
X004869Y011103D01*
X004872Y011065D02*
X002812Y011065D01*
X002774Y011027D02*
X004872Y011027D01*
X004872Y010989D02*
X002737Y010989D01*
X002723Y010976D02*
X002850Y011103D01*
X002850Y011141D02*
X004854Y011141D01*
X004838Y011179D02*
X002850Y011179D01*
X002850Y011217D02*
X004822Y011217D01*
X004807Y011255D02*
X002850Y011255D01*
X002850Y011292D02*
X004793Y011292D01*
X004793Y011330D02*
X002850Y011330D01*
X002850Y011368D02*
X004793Y011368D01*
X004793Y011406D02*
X002850Y011406D01*
X002850Y011444D02*
X004793Y011444D01*
X004793Y011482D02*
X002850Y011482D01*
X002850Y011520D02*
X004793Y011520D01*
X004793Y011557D02*
X002850Y011557D01*
X002850Y011595D02*
X004793Y011595D01*
X004793Y011633D02*
X002850Y011633D01*
X002850Y011671D02*
X004793Y011671D01*
X004793Y011709D02*
X002850Y011709D01*
X002818Y011747D02*
X004793Y011747D01*
X004793Y011785D02*
X002781Y011785D01*
X002770Y011823D02*
X004793Y011823D01*
X004793Y011860D02*
X002770Y011860D01*
X002770Y011898D02*
X004793Y011898D01*
X004793Y011936D02*
X002770Y011936D01*
X002770Y011974D02*
X004793Y011974D01*
X004793Y012012D02*
X002770Y012012D01*
X002770Y012050D02*
X004793Y012050D01*
X004793Y012088D02*
X002770Y012088D01*
X002770Y012126D02*
X004793Y012126D01*
X004793Y012163D02*
X002770Y012163D01*
X002770Y012201D02*
X004793Y012201D01*
X004793Y012239D02*
X002770Y012239D01*
X002770Y012277D02*
X004793Y012277D01*
X004793Y012315D02*
X002770Y012315D01*
X002770Y012353D02*
X004793Y012353D01*
X004793Y012391D02*
X002770Y012391D01*
X002770Y012428D02*
X004793Y012428D01*
X004793Y012466D02*
X002770Y012466D01*
X002770Y012504D02*
X004793Y012504D01*
X004793Y012542D02*
X002770Y012542D01*
X002770Y012580D02*
X004802Y012580D01*
X004817Y012618D02*
X002770Y012618D01*
X002770Y012656D02*
X004833Y012656D01*
X004849Y012694D02*
X002770Y012694D01*
X002770Y012731D02*
X004864Y012731D01*
X004880Y012769D02*
X002770Y012769D01*
X002770Y012807D02*
X004910Y012807D01*
X004923Y012845D02*
X002770Y012845D01*
X002770Y012883D02*
X004923Y012883D01*
X004923Y012921D02*
X002770Y012921D01*
X002770Y012959D02*
X004923Y012959D01*
X004923Y012997D02*
X002770Y012997D01*
X002770Y013034D02*
X004923Y013034D01*
X004923Y013072D02*
X002770Y013072D01*
X002770Y013110D02*
X004923Y013110D01*
X004923Y013148D02*
X002770Y013148D01*
X002787Y013186D02*
X004923Y013186D01*
X004923Y013224D02*
X002825Y013224D01*
X002857Y013262D02*
X004923Y013262D01*
X004923Y013299D02*
X002873Y013299D01*
X002888Y013337D02*
X004923Y013337D01*
X004923Y013375D02*
X002904Y013375D01*
X002920Y013413D02*
X004923Y013413D01*
X004923Y013451D02*
X002928Y013451D01*
X002928Y013489D02*
X004923Y013489D01*
X004923Y013527D02*
X002928Y013527D01*
X002928Y013565D02*
X004923Y013565D01*
X004923Y013602D02*
X002928Y013602D01*
X002923Y013640D02*
X004923Y013640D01*
X004923Y013678D02*
X002907Y013678D01*
X002891Y013716D02*
X004923Y013716D01*
X004923Y013754D02*
X002876Y013754D01*
X002860Y013792D02*
X004923Y013792D01*
X004923Y013830D02*
X002832Y013830D01*
X002794Y013868D02*
X004923Y013868D01*
X004923Y013905D02*
X002756Y013905D01*
X002718Y013943D02*
X004923Y013943D01*
X004923Y013981D02*
X002633Y013981D01*
X005710Y016708D02*
X011344Y016708D01*
X011344Y016670D02*
X005801Y016670D01*
X005893Y016632D02*
X011344Y016632D01*
X011344Y016594D02*
X005934Y016594D01*
X005972Y016556D02*
X011344Y016556D01*
X011344Y016518D02*
X006010Y016518D01*
X006708Y016026D02*
X006808Y016026D01*
X006770Y015988D02*
X006746Y015988D01*
X007812Y016026D02*
X007989Y016026D01*
X007951Y015988D02*
X007850Y015988D01*
X007887Y015950D02*
X007913Y015950D01*
X006590Y014549D02*
X006143Y014549D01*
X006143Y014511D02*
X006699Y014511D01*
X006699Y014473D02*
X006143Y014473D01*
X006143Y014436D02*
X006699Y014436D01*
X006699Y014398D02*
X006143Y014398D01*
X006143Y014360D02*
X006700Y014360D01*
X006738Y014322D02*
X006143Y014322D01*
X006143Y014284D02*
X006776Y014284D01*
X006498Y014587D02*
X006143Y014587D01*
X006143Y014625D02*
X006407Y014625D01*
X006345Y014663D02*
X006143Y014663D01*
X006143Y014701D02*
X006308Y014701D01*
X006270Y014739D02*
X006143Y014739D01*
X006143Y014776D02*
X006232Y014776D01*
X006194Y014814D02*
X006143Y014814D01*
X006143Y014852D02*
X006156Y014852D01*
X009791Y017389D02*
X001029Y017389D01*
X001029Y017352D02*
X009829Y017352D01*
X009867Y017314D02*
X001029Y017314D01*
X001029Y017276D02*
X009905Y017276D01*
X009982Y017238D02*
X001029Y017238D01*
X001029Y017427D02*
X009773Y017427D01*
X009757Y017465D02*
X001029Y017465D01*
X001029Y017503D02*
X009741Y017503D01*
X009726Y017541D02*
X001029Y017541D01*
X001029Y017579D02*
X009718Y017579D01*
X009718Y017617D02*
X001029Y017617D01*
X001029Y017655D02*
X009718Y017655D01*
X009718Y017692D02*
X001029Y017692D01*
X001029Y017730D02*
X009718Y017730D01*
X009729Y017768D02*
X001029Y017768D01*
X001029Y017806D02*
X009744Y017806D01*
X009760Y017844D02*
X001029Y017844D01*
X001029Y017882D02*
X009776Y017882D01*
X009798Y017920D02*
X001029Y017920D01*
X001029Y017958D02*
X009836Y017958D01*
X009874Y017995D02*
X001029Y017995D01*
X001029Y018033D02*
X009911Y018033D01*
X009999Y018071D02*
X001029Y018071D01*
X001029Y018109D02*
X011338Y018109D01*
X011375Y018147D02*
X001029Y018147D01*
X001029Y018185D02*
X011413Y018185D01*
X011451Y018223D02*
X001029Y018223D01*
X001029Y018261D02*
X011489Y018261D01*
X011527Y018298D02*
X001029Y018298D01*
X001029Y018336D02*
X011565Y018336D01*
X011603Y018374D02*
X001029Y018374D01*
X001029Y018412D02*
X011641Y018412D01*
X011678Y018450D02*
X001029Y018450D01*
X001029Y018488D02*
X011716Y018488D01*
X011754Y018526D02*
X001029Y018526D01*
X001029Y018563D02*
X011792Y018563D01*
X011830Y018601D02*
X001029Y018601D01*
X001029Y018639D02*
X011868Y018639D01*
X011906Y018677D02*
X001029Y018677D01*
X001029Y018715D02*
X011943Y018715D01*
X011981Y018753D02*
X001029Y018753D01*
X001029Y018791D02*
X012019Y018791D01*
X012057Y018829D02*
X001029Y018829D01*
X001029Y018866D02*
X012107Y018866D01*
X012198Y018904D02*
X001029Y018904D01*
X001029Y018942D02*
X013180Y018942D01*
X013218Y018980D02*
X001029Y018980D01*
X001029Y019018D02*
X013293Y019018D01*
X013385Y019056D02*
X001029Y019056D01*
X001029Y019094D02*
X021932Y019094D01*
X021932Y019132D02*
X001029Y019132D01*
X001029Y019169D02*
X021932Y019169D01*
X021932Y019207D02*
X001029Y019207D01*
X002102Y011024D02*
X002150Y010976D01*
X002723Y010976D01*
X002983Y010494D02*
X002856Y010367D01*
X002856Y009994D01*
X002139Y009994D01*
X002105Y010028D01*
X002200Y010123D01*
X002200Y010696D01*
X002102Y010794D01*
X002102Y011024D01*
X002102Y011024D01*
X002102Y010989D02*
X002137Y010989D01*
X002102Y010952D02*
X004872Y010952D01*
X004872Y010914D02*
X002102Y010914D01*
X002102Y010876D02*
X004872Y010876D01*
X004872Y010838D02*
X002102Y010838D01*
X002102Y010800D02*
X004872Y010800D01*
X004897Y010762D02*
X002134Y010762D01*
X002172Y010724D02*
X004935Y010724D01*
X004973Y010686D02*
X002200Y010686D01*
X002200Y010649D02*
X005011Y010649D01*
X004996Y010611D02*
X002200Y010611D01*
X002200Y010573D02*
X004980Y010573D01*
X004978Y010535D02*
X002200Y010535D01*
X002200Y010497D02*
X004978Y010497D01*
X004870Y010459D02*
X003834Y010459D01*
X003800Y010494D02*
X003927Y010367D01*
X003927Y009951D01*
X003885Y009909D01*
X003927Y009867D01*
X003927Y009451D01*
X003885Y009409D01*
X003927Y009367D01*
X003927Y008951D01*
X003885Y008909D01*
X003927Y008867D01*
X003927Y008451D01*
X003800Y008324D01*
X003726Y008324D01*
X003726Y008301D02*
X006250Y008301D01*
X006250Y008338D02*
X006250Y008142D01*
X006325Y007961D01*
X006407Y007878D01*
X006401Y007884D02*
X003660Y007884D01*
X003685Y007922D02*
X006364Y007922D01*
X006326Y007960D02*
X003700Y007960D01*
X003716Y007998D02*
X006309Y007998D01*
X006294Y008036D02*
X003726Y008036D01*
X003726Y008073D02*
X006278Y008073D01*
X006262Y008111D02*
X003726Y008111D01*
X003726Y008149D02*
X006250Y008149D01*
X006250Y008187D02*
X003726Y008187D01*
X003726Y008225D02*
X006250Y008225D01*
X006250Y008263D02*
X003726Y008263D01*
X003814Y008338D02*
X004890Y008338D01*
X004852Y008376D02*
X003852Y008376D01*
X003890Y008414D02*
X004814Y008414D01*
X004777Y008452D02*
X003927Y008452D01*
X003927Y008490D02*
X004777Y008490D01*
X004777Y008528D02*
X003927Y008528D01*
X003927Y008566D02*
X004777Y008566D01*
X004777Y008604D02*
X003927Y008604D01*
X003927Y008641D02*
X004777Y008641D01*
X004777Y008679D02*
X003927Y008679D01*
X003927Y008717D02*
X004777Y008717D01*
X004777Y008755D02*
X003927Y008755D01*
X003927Y008793D02*
X004777Y008793D01*
X004777Y008831D02*
X003927Y008831D01*
X003925Y008869D02*
X004779Y008869D01*
X004817Y008907D02*
X003887Y008907D01*
X003920Y008944D02*
X004855Y008944D01*
X004893Y008982D02*
X003927Y008982D01*
X003927Y009020D02*
X005819Y009020D01*
X005856Y009058D02*
X003927Y009058D01*
X003927Y009096D02*
X005894Y009096D01*
X005932Y009134D02*
X003927Y009134D01*
X003927Y009172D02*
X005970Y009172D01*
X006008Y009210D02*
X003927Y009210D01*
X003927Y009247D02*
X006046Y009247D01*
X006084Y009285D02*
X003927Y009285D01*
X003927Y009323D02*
X006098Y009323D01*
X006098Y009361D02*
X003927Y009361D01*
X003895Y009399D02*
X006098Y009399D01*
X006098Y009437D02*
X003912Y009437D01*
X003927Y009475D02*
X006098Y009475D01*
X006098Y009512D02*
X003927Y009512D01*
X003927Y009550D02*
X006098Y009550D01*
X006098Y009588D02*
X003927Y009588D01*
X003927Y009626D02*
X006098Y009626D01*
X006098Y009664D02*
X003927Y009664D01*
X003927Y009702D02*
X006098Y009702D01*
X006098Y009740D02*
X003927Y009740D01*
X003927Y009778D02*
X006098Y009778D01*
X006098Y009815D02*
X003927Y009815D01*
X003927Y009853D02*
X004875Y009853D01*
X004837Y009891D02*
X003902Y009891D01*
X003905Y009929D02*
X004799Y009929D01*
X004777Y009967D02*
X003927Y009967D01*
X003927Y010005D02*
X004777Y010005D01*
X004777Y010043D02*
X003927Y010043D01*
X003927Y010081D02*
X004777Y010081D01*
X004777Y010118D02*
X003927Y010118D01*
X003927Y010156D02*
X004777Y010156D01*
X004777Y010194D02*
X003927Y010194D01*
X003927Y010232D02*
X004777Y010232D01*
X004777Y010270D02*
X003927Y010270D01*
X003927Y010308D02*
X004777Y010308D01*
X004777Y010346D02*
X003927Y010346D01*
X003910Y010383D02*
X004794Y010383D01*
X004832Y010421D02*
X003872Y010421D01*
X003800Y010494D02*
X002983Y010494D01*
X002948Y010459D02*
X002200Y010459D01*
X002200Y010421D02*
X002910Y010421D01*
X002873Y010383D02*
X002200Y010383D01*
X002200Y010346D02*
X002856Y010346D01*
X002856Y010308D02*
X002200Y010308D01*
X002200Y010270D02*
X002856Y010270D01*
X002856Y010232D02*
X002200Y010232D01*
X002200Y010194D02*
X002856Y010194D01*
X002856Y010156D02*
X002200Y010156D01*
X002196Y010118D02*
X002856Y010118D01*
X002856Y010081D02*
X002158Y010081D01*
X002121Y010043D02*
X002856Y010043D01*
X002856Y010005D02*
X002128Y010005D01*
X005750Y009853D02*
X006098Y009853D01*
X006120Y009891D02*
X005788Y009891D01*
X005826Y009929D02*
X006158Y009929D01*
X007076Y007543D02*
X008448Y007543D01*
X008463Y007505D02*
X008141Y007505D01*
X008179Y007467D02*
X008479Y007467D01*
X008488Y007430D02*
X008216Y007430D01*
X008450Y007392D02*
X008450Y006426D01*
X008469Y006407D02*
X008235Y006407D01*
X008197Y006369D02*
X008507Y006369D01*
X008545Y006331D02*
X008159Y006331D01*
X008117Y004817D02*
X007930Y004817D01*
X007968Y004779D02*
X008079Y004779D01*
X008041Y004741D02*
X008006Y004741D01*
X006822Y003302D02*
X006555Y003302D01*
X006517Y003264D02*
X006822Y003264D01*
X006822Y003226D02*
X006479Y003226D01*
X006441Y003188D02*
X006822Y003188D01*
X006822Y003150D02*
X006403Y003150D01*
X006324Y003112D02*
X006856Y003112D01*
X006894Y003075D02*
X006233Y003075D01*
X006142Y003037D02*
X006932Y003037D01*
X007933Y003037D02*
X008113Y003037D01*
X008075Y003075D02*
X007971Y003075D01*
X008009Y003112D02*
X008037Y003112D01*
X010296Y003037D02*
X010959Y003037D01*
X010921Y003075D02*
X010333Y003075D01*
X010371Y003112D02*
X010883Y003112D01*
X010845Y003150D02*
X010405Y003150D01*
X010405Y003188D02*
X010807Y003188D01*
X010769Y003226D02*
X010405Y003226D01*
X010405Y003264D02*
X010732Y003264D01*
X010694Y003302D02*
X010405Y003302D01*
X010997Y002999D02*
X001029Y002999D01*
X001029Y003037D02*
X005621Y003037D01*
X005530Y003075D02*
X001029Y003075D01*
X001029Y003112D02*
X005439Y003112D01*
X005360Y003150D02*
X001029Y003150D01*
X001029Y003188D02*
X005322Y003188D01*
X005284Y003226D02*
X001029Y003226D01*
X001029Y003264D02*
X005246Y003264D01*
X005208Y003302D02*
X001029Y003302D01*
X001029Y003340D02*
X005170Y003340D01*
X005132Y003377D02*
X001029Y003377D01*
X001029Y003415D02*
X005106Y003415D01*
X005090Y003453D02*
X001029Y003453D01*
X001029Y003491D02*
X005075Y003491D01*
X005059Y003529D02*
X001029Y003529D01*
X001029Y003567D02*
X005043Y003567D01*
X005027Y003605D02*
X001029Y003605D01*
X001029Y003643D02*
X005012Y003643D01*
X004996Y003680D02*
X001029Y003680D01*
X001029Y003718D02*
X004980Y003718D01*
X004976Y003756D02*
X001029Y003756D01*
X001029Y003794D02*
X004976Y003794D01*
X004976Y003832D02*
X001029Y003832D01*
X001029Y002961D02*
X011035Y002961D01*
X011072Y002923D02*
X001029Y002923D01*
X001029Y002885D02*
X011110Y002885D01*
X011148Y002847D02*
X001029Y002847D01*
X001029Y002809D02*
X011186Y002809D01*
X011224Y002772D02*
X001029Y002772D01*
X001029Y002734D02*
X011262Y002734D01*
X011300Y002696D02*
X001029Y002696D01*
X001029Y002658D02*
X011338Y002658D01*
X011375Y002620D02*
X001029Y002620D01*
X001029Y002582D02*
X011413Y002582D01*
X011451Y002544D02*
X001029Y002544D01*
X001029Y002506D02*
X011489Y002506D01*
X011527Y002469D02*
X001029Y002469D01*
X001029Y002431D02*
X011565Y002431D01*
X011603Y002393D02*
X001029Y002393D01*
X001029Y002355D02*
X011640Y002355D01*
X011678Y002317D02*
X001029Y002317D01*
X001029Y002279D02*
X011716Y002279D01*
X011754Y002241D02*
X001029Y002241D01*
X001029Y002203D02*
X011792Y002203D01*
X011830Y002166D02*
X001029Y002166D01*
X001029Y002128D02*
X011887Y002128D01*
X011979Y002090D02*
X001029Y002090D01*
X001029Y002052D02*
X012070Y002052D01*
X012420Y003302D02*
X013441Y003302D01*
X013441Y003340D02*
X012382Y003340D01*
X012344Y003377D02*
X013441Y003377D01*
X013441Y003415D02*
X012306Y003415D01*
X012268Y003453D02*
X012506Y003453D01*
X012468Y003491D02*
X012230Y003491D01*
X012193Y003529D02*
X012430Y003529D01*
X012392Y003567D02*
X012155Y003567D01*
X012117Y003605D02*
X012387Y003605D01*
X012387Y003643D02*
X012079Y003643D01*
X012041Y003680D02*
X012387Y003680D01*
X012387Y003718D02*
X012003Y003718D01*
X011965Y003756D02*
X012387Y003756D01*
X012387Y003794D02*
X011927Y003794D01*
X011890Y003832D02*
X012387Y003832D01*
X012387Y003870D02*
X011852Y003870D01*
X011814Y003908D02*
X012387Y003908D01*
X012387Y003946D02*
X011781Y003946D01*
X011781Y003983D02*
X012387Y003983D01*
X012387Y004021D02*
X011781Y004021D01*
X011781Y004059D02*
X012387Y004059D01*
X012387Y004097D02*
X011781Y004097D01*
X011781Y004135D02*
X012387Y004135D01*
X012387Y004173D02*
X011781Y004173D01*
X011781Y004211D02*
X012387Y004211D01*
X012387Y004248D02*
X011781Y004248D01*
X011781Y004286D02*
X012387Y004286D01*
X012387Y004324D02*
X011781Y004324D01*
X011781Y004362D02*
X012387Y004362D01*
X012387Y004400D02*
X011781Y004400D01*
X011781Y004438D02*
X012387Y004438D01*
X012387Y004476D02*
X011781Y004476D01*
X011781Y004514D02*
X012387Y004514D01*
X012387Y004551D02*
X011781Y004551D01*
X011781Y004589D02*
X012387Y004589D01*
X012387Y004627D02*
X011781Y004627D01*
X011781Y004665D02*
X012387Y004665D01*
X012387Y004703D02*
X011781Y004703D01*
X011781Y004741D02*
X012387Y004741D01*
X012387Y004779D02*
X011781Y004779D01*
X011781Y004817D02*
X012387Y004817D01*
X012387Y004854D02*
X011781Y004854D01*
X011781Y004892D02*
X012387Y004892D01*
X012387Y004930D02*
X011781Y004930D01*
X011781Y004968D02*
X012424Y004968D01*
X012461Y005006D02*
X011781Y005006D01*
X011781Y005044D02*
X012499Y005044D01*
X012923Y005082D02*
X011781Y005082D01*
X011781Y005120D02*
X012923Y005120D01*
X012923Y005157D02*
X011781Y005157D01*
X011781Y005195D02*
X012923Y005195D01*
X012923Y005233D02*
X011781Y005233D01*
X011781Y005271D02*
X012923Y005271D01*
X012923Y005309D02*
X011781Y005309D01*
X011781Y005347D02*
X012923Y005347D01*
X012923Y005385D02*
X011781Y005385D01*
X011781Y005422D02*
X012923Y005422D01*
X012923Y005460D02*
X011781Y005460D01*
X011781Y005498D02*
X012923Y005498D01*
X012923Y005536D02*
X011781Y005536D01*
X011781Y005574D02*
X012923Y005574D01*
X012923Y005612D02*
X011781Y005612D01*
X011781Y005650D02*
X012923Y005650D01*
X012923Y005688D02*
X011781Y005688D01*
X011781Y005725D02*
X012923Y005725D01*
X012923Y005763D02*
X011781Y005763D01*
X011781Y005801D02*
X012923Y005801D01*
X012923Y005839D02*
X011781Y005839D01*
X011781Y005877D02*
X012923Y005877D01*
X012923Y005915D02*
X011781Y005915D01*
X011781Y005953D02*
X012923Y005953D01*
X012480Y005991D02*
X011781Y005991D01*
X011781Y006028D02*
X012442Y006028D01*
X012404Y006066D02*
X011781Y006066D01*
X011781Y006104D02*
X012248Y006104D01*
X012180Y006142D02*
X011781Y006142D01*
X011781Y006180D02*
X012142Y006180D01*
X012104Y006218D02*
X011781Y006218D01*
X011781Y006256D02*
X012067Y006256D01*
X012029Y006293D02*
X011781Y006293D01*
X011781Y006331D02*
X011991Y006331D01*
X011953Y006369D02*
X011781Y006369D01*
X011781Y006407D02*
X011915Y006407D01*
X011877Y006445D02*
X011781Y006445D01*
X011781Y006483D02*
X011858Y006483D01*
X011842Y006521D02*
X011781Y006521D01*
X011781Y006559D02*
X011827Y006559D01*
X011820Y006596D02*
X011781Y006596D01*
X011781Y006634D02*
X011820Y006634D01*
X011820Y006672D02*
X011781Y006672D01*
X011781Y006710D02*
X011820Y006710D01*
X011820Y006748D02*
X011781Y006748D01*
X011781Y006786D02*
X011820Y006786D01*
X011820Y006824D02*
X011781Y006824D01*
X011781Y006862D02*
X011820Y006862D01*
X011820Y006899D02*
X011781Y006899D01*
X011781Y006937D02*
X011820Y006937D01*
X011820Y006975D02*
X011781Y006975D01*
X011781Y007013D02*
X011820Y007013D01*
X011820Y007051D02*
X011781Y007051D01*
X011781Y007089D02*
X011820Y007089D01*
X011820Y007127D02*
X011781Y007127D01*
X011781Y007165D02*
X011820Y007165D01*
X011820Y007202D02*
X011781Y007202D01*
X011781Y007240D02*
X011820Y007240D01*
X011820Y007278D02*
X011781Y007278D01*
X011781Y007316D02*
X011820Y007316D01*
X011820Y007354D02*
X011781Y007354D01*
X011781Y007392D02*
X011820Y007392D01*
X011820Y007430D02*
X011781Y007430D01*
X011781Y007467D02*
X011820Y007467D01*
X011820Y007505D02*
X011781Y007505D01*
X011781Y007543D02*
X011820Y007543D01*
X011820Y007581D02*
X011781Y007581D01*
X011781Y007619D02*
X011820Y007619D01*
X011820Y007657D02*
X011781Y007657D01*
X011781Y007695D02*
X011820Y007695D01*
X011820Y007733D02*
X011781Y007733D01*
X011781Y007770D02*
X011820Y007770D01*
X011820Y007808D02*
X011781Y007808D01*
X011781Y007846D02*
X011820Y007846D01*
X011820Y007884D02*
X011781Y007884D01*
X011781Y007922D02*
X011820Y007922D01*
X011820Y007960D02*
X011781Y007960D01*
X011781Y007998D02*
X011820Y007998D01*
X011820Y008036D02*
X011781Y008036D01*
X011781Y008073D02*
X011820Y008073D01*
X011820Y008111D02*
X011781Y008111D01*
X011781Y008149D02*
X011820Y008149D01*
X011820Y008187D02*
X011781Y008187D01*
X011781Y008225D02*
X011820Y008225D01*
X011820Y008263D02*
X011781Y008263D01*
X011781Y008301D02*
X011820Y008301D01*
X011820Y008338D02*
X011781Y008338D01*
X011781Y008376D02*
X011820Y008376D01*
X011820Y008414D02*
X011781Y008414D01*
X011781Y008452D02*
X011820Y008452D01*
X011820Y008490D02*
X011781Y008490D01*
X011781Y008528D02*
X011820Y008528D01*
X011820Y008566D02*
X011781Y008566D01*
X011781Y008604D02*
X011820Y008604D01*
X011820Y008641D02*
X011781Y008641D01*
X011781Y008679D02*
X011820Y008679D01*
X011820Y008717D02*
X011781Y008717D01*
X011781Y008755D02*
X011820Y008755D01*
X011820Y008793D02*
X011781Y008793D01*
X011781Y008831D02*
X011820Y008831D01*
X011820Y008869D02*
X011781Y008869D01*
X011781Y008907D02*
X011820Y008907D01*
X011830Y008944D02*
X011781Y008944D01*
X011781Y008982D02*
X011846Y008982D01*
X011861Y009020D02*
X011781Y009020D01*
X011781Y009058D02*
X011885Y009058D01*
X011923Y009096D02*
X011781Y009096D01*
X011781Y009134D02*
X011961Y009134D01*
X011999Y009172D02*
X011781Y009172D01*
X011781Y009210D02*
X012036Y009210D01*
X012074Y009247D02*
X011781Y009247D01*
X011781Y009285D02*
X012112Y009285D01*
X012150Y009323D02*
X011781Y009323D01*
X011781Y009361D02*
X012188Y009361D01*
X012226Y009399D02*
X011781Y009399D01*
X011781Y009437D02*
X012264Y009437D01*
X012302Y009475D02*
X011781Y009475D01*
X011781Y009512D02*
X012339Y009512D01*
X012377Y009550D02*
X011781Y009550D01*
X011781Y009588D02*
X012415Y009588D01*
X012453Y009626D02*
X011781Y009626D01*
X011781Y009664D02*
X012538Y009664D01*
X013028Y009740D02*
X011781Y009740D01*
X011781Y009778D02*
X013026Y009778D01*
X013026Y009815D02*
X011781Y009815D01*
X011781Y009853D02*
X013026Y009853D01*
X013026Y009891D02*
X011781Y009891D01*
X011781Y009929D02*
X013026Y009929D01*
X013056Y009967D02*
X011781Y009967D01*
X011781Y010005D02*
X013094Y010005D01*
X013132Y010043D02*
X011781Y010043D01*
X011781Y009702D02*
X013066Y009702D01*
X013941Y009588D02*
X019396Y009588D01*
X019358Y009550D02*
X013957Y009550D01*
X013973Y009512D02*
X019320Y009512D01*
X019283Y009475D02*
X013988Y009475D01*
X014001Y009437D02*
X019273Y009437D01*
X019273Y009399D02*
X014001Y009399D01*
X014001Y009361D02*
X014112Y009361D01*
X014074Y009323D02*
X014001Y009323D01*
X014001Y009285D02*
X014036Y009285D01*
X014789Y009361D02*
X015915Y009361D01*
X015877Y009323D02*
X014827Y009323D01*
X014865Y009285D02*
X015839Y009285D01*
X015801Y009247D02*
X014903Y009247D01*
X014903Y009210D02*
X015801Y009210D01*
X015801Y009172D02*
X014903Y009172D01*
X014903Y009134D02*
X015801Y009134D01*
X015801Y009096D02*
X014903Y009096D01*
X014903Y009058D02*
X015801Y009058D01*
X015801Y009020D02*
X014903Y009020D01*
X014903Y008982D02*
X015801Y008982D01*
X015801Y008944D02*
X014903Y008944D01*
X014903Y008907D02*
X015801Y008907D01*
X015801Y008869D02*
X014903Y008869D01*
X014903Y008831D02*
X015801Y008831D01*
X016592Y009361D02*
X019273Y009361D01*
X019273Y009323D02*
X016630Y009323D01*
X016668Y009285D02*
X019273Y009285D01*
X019273Y009247D02*
X016706Y009247D01*
X016706Y009210D02*
X019273Y009210D01*
X019273Y009172D02*
X016706Y009172D01*
X016706Y009134D02*
X019273Y009134D01*
X019273Y009096D02*
X016706Y009096D01*
X016706Y009058D02*
X019273Y009058D01*
X019273Y009020D02*
X016706Y009020D01*
X016706Y008982D02*
X019273Y008982D01*
X019273Y008944D02*
X016706Y008944D01*
X016706Y008907D02*
X019273Y008907D01*
X019273Y008869D02*
X016706Y008869D01*
X016706Y008831D02*
X019295Y008831D01*
X019333Y008793D02*
X017691Y008793D01*
X017729Y008755D02*
X019352Y008755D01*
X019352Y008717D02*
X017766Y008717D01*
X017785Y008679D02*
X019352Y008679D01*
X019352Y008641D02*
X018213Y008641D01*
X018251Y008604D02*
X019352Y008604D01*
X019352Y008566D02*
X019330Y008566D01*
X019352Y008544D02*
X019352Y008544D01*
X018704Y008566D02*
X018289Y008566D01*
X018317Y008528D02*
X018666Y008528D01*
X018648Y007808D02*
X018239Y007808D01*
X018201Y007770D02*
X018686Y007770D01*
X018724Y007733D02*
X018221Y007733D01*
X018317Y007089D02*
X020159Y007089D01*
X020068Y007051D02*
X018317Y007051D01*
X018317Y007013D02*
X019976Y007013D01*
X019885Y006975D02*
X018307Y006975D01*
X018269Y006937D02*
X019820Y006937D01*
X019782Y006899D02*
X018231Y006899D01*
X018193Y006862D02*
X019744Y006862D01*
X019706Y006824D02*
X018228Y006824D01*
X018266Y006786D02*
X019178Y006786D01*
X019087Y006748D02*
X018304Y006748D01*
X018317Y006710D02*
X018996Y006710D01*
X018952Y006672D02*
X018317Y006672D01*
X018317Y006634D02*
X018914Y006634D01*
X018876Y006596D02*
X018317Y006596D01*
X018317Y006559D02*
X018838Y006559D01*
X018800Y006521D02*
X018317Y006521D01*
X018317Y006483D02*
X018763Y006483D01*
X018725Y006445D02*
X018317Y006445D01*
X018317Y006407D02*
X018687Y006407D01*
X018649Y006369D02*
X018317Y006369D01*
X018317Y006331D02*
X018611Y006331D01*
X018573Y006293D02*
X018317Y006293D01*
X018317Y006256D02*
X018535Y006256D01*
X018497Y006218D02*
X018317Y006218D01*
X018317Y006180D02*
X018460Y006180D01*
X018422Y006142D02*
X018317Y006142D01*
X018317Y006104D02*
X018384Y006104D01*
X018346Y006066D02*
X018300Y006066D01*
X018308Y006028D02*
X018262Y006028D01*
X018277Y005991D02*
X018224Y005991D01*
X018197Y005953D02*
X018261Y005953D01*
X018245Y005915D02*
X018235Y005915D01*
X019310Y007733D02*
X019393Y007733D01*
X019356Y007770D02*
X019348Y007770D01*
X016996Y010914D02*
X014458Y010914D01*
X014496Y010952D02*
X016958Y010952D01*
X016920Y010989D02*
X014534Y010989D01*
X014572Y011027D02*
X016882Y011027D01*
X016872Y011065D02*
X014582Y011065D01*
X014582Y011103D02*
X016872Y011103D01*
X016872Y011141D02*
X014582Y011141D01*
X014582Y011179D02*
X016872Y011179D01*
X016872Y011217D02*
X014582Y011217D01*
X014582Y011255D02*
X016872Y011255D01*
X016872Y011292D02*
X014582Y011292D01*
X014582Y011330D02*
X016872Y011330D01*
X016863Y011368D02*
X014591Y011368D01*
X014606Y011406D02*
X016847Y011406D01*
X016832Y011444D02*
X014622Y011444D01*
X014638Y011482D02*
X016816Y011482D01*
X016800Y011520D02*
X014654Y011520D01*
X014661Y011557D02*
X016793Y011557D01*
X016793Y011595D02*
X014661Y011595D01*
X014661Y011633D02*
X016793Y011633D01*
X016793Y011671D02*
X014661Y011671D01*
X014661Y011709D02*
X016793Y011709D01*
X016793Y011747D02*
X014661Y011747D01*
X014661Y011785D02*
X016793Y011785D01*
X016793Y011823D02*
X014661Y011823D01*
X014661Y011860D02*
X016793Y011860D01*
X016793Y011898D02*
X014661Y011898D01*
X014661Y011936D02*
X016793Y011936D01*
X016793Y011974D02*
X014661Y011974D01*
X014661Y012012D02*
X016793Y012012D01*
X016793Y012050D02*
X014661Y012050D01*
X014661Y012088D02*
X016793Y012088D01*
X016793Y012126D02*
X014661Y012126D01*
X014661Y012163D02*
X016793Y012163D01*
X016793Y012201D02*
X014661Y012201D01*
X014661Y012239D02*
X016793Y012239D01*
X016793Y012277D02*
X014661Y012277D01*
X014661Y012315D02*
X016793Y012315D01*
X016793Y012353D02*
X014661Y012353D01*
X014653Y012391D02*
X016793Y012391D01*
X016793Y012428D02*
X014637Y012428D01*
X014798Y012466D02*
X016793Y012466D01*
X016769Y012504D02*
X014836Y012504D01*
X014874Y012542D02*
X016732Y012542D01*
X016702Y012580D02*
X014903Y012580D01*
X014903Y012618D02*
X016702Y012618D01*
X016702Y012656D02*
X014903Y012656D01*
X014903Y012694D02*
X016702Y012694D01*
X016702Y012731D02*
X014903Y012731D01*
X014903Y012769D02*
X016702Y012769D01*
X016702Y012807D02*
X014903Y012807D01*
X014903Y012845D02*
X016702Y012845D01*
X016702Y012883D02*
X014903Y012883D01*
X014903Y012921D02*
X016702Y012921D01*
X019324Y015496D02*
X019380Y015496D01*
X019993Y015496D02*
X021932Y015496D01*
X021932Y015534D02*
X020031Y015534D01*
X020069Y015572D02*
X021932Y015572D01*
X021932Y015610D02*
X020100Y015610D01*
X020100Y015647D02*
X021932Y015647D01*
X021932Y015685D02*
X020100Y015685D01*
X020100Y015723D02*
X021932Y015723D01*
X021932Y015761D02*
X020100Y015761D01*
X020100Y015799D02*
X021932Y015799D01*
X021932Y015837D02*
X020100Y015837D01*
X020100Y015875D02*
X021932Y015875D01*
X021932Y015913D02*
X020100Y015913D01*
X020100Y015950D02*
X021932Y015950D01*
X021932Y015988D02*
X020100Y015988D01*
X020100Y016026D02*
X021932Y016026D01*
X021932Y016064D02*
X020100Y016064D01*
X020100Y016102D02*
X021932Y016102D01*
X021932Y016140D02*
X020100Y016140D01*
X020100Y016178D02*
X021932Y016178D01*
X021932Y016216D02*
X020100Y016216D01*
X020062Y016253D02*
X021932Y016253D01*
X021932Y016291D02*
X020024Y016291D01*
X020021Y016329D02*
X021932Y016329D01*
X021932Y016367D02*
X020021Y016367D01*
X020021Y016405D02*
X021932Y016405D01*
X021932Y016443D02*
X020021Y016443D01*
X020021Y016481D02*
X021932Y016481D01*
X021932Y016518D02*
X020021Y016518D01*
X020054Y016556D02*
X021932Y016556D01*
X021932Y016594D02*
X020091Y016594D01*
X020100Y016632D02*
X021932Y016632D01*
X021932Y016670D02*
X020100Y016670D01*
X020100Y016708D02*
X021932Y016708D01*
X021932Y016746D02*
X020100Y016746D01*
X020100Y016784D02*
X021932Y016784D01*
X021932Y016821D02*
X020100Y016821D01*
X020100Y016859D02*
X021932Y016859D01*
X021932Y016897D02*
X020100Y016897D01*
X020100Y016935D02*
X021932Y016935D01*
X021932Y016973D02*
X020100Y016973D01*
X020100Y017011D02*
X021932Y017011D01*
X021932Y017049D02*
X020100Y017049D01*
X020100Y017087D02*
X021932Y017087D01*
X021932Y017124D02*
X020100Y017124D01*
X020100Y017162D02*
X021932Y017162D01*
X021932Y017200D02*
X020100Y017200D01*
X020077Y017238D02*
X021932Y017238D01*
X021932Y017276D02*
X020039Y017276D01*
X020002Y017314D02*
X021932Y017314D01*
X021932Y018412D02*
X013974Y018412D01*
X013990Y018450D02*
X021932Y018450D01*
X021932Y018488D02*
X014001Y018488D01*
X014001Y018526D02*
X021932Y018526D01*
X021932Y018563D02*
X014001Y018563D01*
X014001Y018601D02*
X021932Y018601D01*
X021932Y018639D02*
X014001Y018639D01*
X013999Y018677D02*
X021932Y018677D01*
X021932Y018715D02*
X013983Y018715D01*
X013967Y018753D02*
X021932Y018753D01*
X021932Y018791D02*
X013952Y018791D01*
X013936Y018829D02*
X021932Y018829D01*
X021932Y018866D02*
X013912Y018866D01*
X013875Y018904D02*
X021932Y018904D01*
X021932Y018942D02*
X013837Y018942D01*
X013799Y018980D02*
X021932Y018980D01*
X021932Y019018D02*
X013724Y019018D01*
X013632Y019056D02*
X021932Y019056D01*
X019352Y016329D02*
X019317Y016329D01*
X019352Y016294D02*
X019352Y016294D01*
X020713Y014019D02*
X021932Y014019D01*
X021932Y013981D02*
X020805Y013981D01*
X020878Y013943D02*
X021932Y013943D01*
X021932Y013905D02*
X020916Y013905D01*
X020954Y013868D02*
X021932Y013868D01*
X021932Y013830D02*
X020991Y013830D01*
X021029Y013792D02*
X021932Y013792D01*
X021932Y013754D02*
X021067Y013754D01*
X021105Y013716D02*
X021932Y013716D01*
X021932Y013678D02*
X021129Y013678D01*
X021145Y013640D02*
X021932Y013640D01*
X021932Y013602D02*
X021161Y013602D01*
X021176Y013565D02*
X021932Y013565D01*
X021932Y013527D02*
X021192Y013527D01*
X021208Y013489D02*
X021932Y013489D01*
X021932Y013451D02*
X021223Y013451D01*
X021239Y013413D02*
X021932Y013413D01*
X021932Y013375D02*
X021255Y013375D01*
X021257Y013337D02*
X021932Y013337D01*
X021932Y013299D02*
X021257Y013299D01*
X021257Y013262D02*
X021932Y013262D01*
X021932Y013224D02*
X021257Y013224D01*
X021257Y013186D02*
X021932Y013186D01*
X021932Y013148D02*
X021257Y013148D01*
X021257Y013110D02*
X021932Y013110D01*
X021932Y013072D02*
X021257Y013072D01*
X021257Y013034D02*
X021932Y013034D01*
X021932Y012997D02*
X021253Y012997D01*
X021237Y012959D02*
X021932Y012959D01*
X021932Y012921D02*
X021221Y012921D01*
X021205Y012883D02*
X021932Y012883D01*
X021932Y012845D02*
X021190Y012845D01*
X021174Y012807D02*
X021932Y012807D01*
X021932Y012769D02*
X021158Y012769D01*
X021143Y012731D02*
X021932Y012731D01*
X021932Y012694D02*
X021127Y012694D01*
X021100Y012656D02*
X021932Y012656D01*
X021932Y012618D02*
X021062Y012618D01*
X021024Y012580D02*
X021932Y012580D01*
X021932Y012542D02*
X020986Y012542D01*
X020948Y012504D02*
X021932Y012504D01*
X021932Y012466D02*
X020910Y012466D01*
X020872Y012428D02*
X021932Y012428D01*
X021932Y012391D02*
X020792Y012391D01*
X020700Y012353D02*
X021932Y012353D01*
X021932Y012315D02*
X020609Y012315D01*
X015801Y017844D02*
X014903Y017844D01*
X014903Y017882D02*
X015801Y017882D01*
X015801Y017920D02*
X014903Y017920D01*
X014903Y017958D02*
X015801Y017958D01*
X015801Y017995D02*
X014903Y017995D01*
X014903Y018033D02*
X015801Y018033D01*
X015801Y018071D02*
X014903Y018071D01*
X014903Y018109D02*
X015801Y018109D01*
X015801Y018147D02*
X014903Y018147D01*
X014903Y018185D02*
X015801Y018185D01*
X015801Y018223D02*
X014903Y018223D01*
X014889Y018261D02*
X015815Y018261D01*
X015852Y018298D02*
X014852Y018298D01*
X014814Y018336D02*
X015890Y018336D01*
X013346Y018109D02*
X012284Y018109D01*
X012322Y018147D02*
X013255Y018147D01*
X013202Y018185D02*
X012360Y018185D01*
X012398Y018223D02*
X013164Y018223D01*
X011255Y017200D02*
X010861Y017200D01*
X010952Y017238D02*
X011163Y017238D01*
X011086Y017276D02*
X011030Y017276D01*
X010664Y017200D02*
X010270Y017200D01*
X010362Y017238D02*
X010573Y017238D01*
X010495Y017276D02*
X010439Y017276D01*
X010432Y018033D02*
X010502Y018033D01*
X010589Y018071D02*
X010345Y018071D01*
X010936Y018071D02*
X011180Y018071D01*
X011093Y018033D02*
X011023Y018033D01*
X011781Y011027D02*
X013530Y011027D01*
X013568Y010989D02*
X011781Y010989D01*
X011781Y010952D02*
X013606Y010952D01*
X013643Y010914D02*
X011781Y010914D01*
X010561Y004817D02*
X010292Y004817D01*
X010330Y004779D02*
X010561Y004779D01*
X010561Y004665D02*
X010405Y004665D01*
X010405Y004627D02*
X010561Y004627D01*
X010561Y004589D02*
X010405Y004589D01*
X010405Y004551D02*
X010561Y004551D01*
X013543Y002014D02*
X001029Y002014D01*
X001029Y001976D02*
X013581Y001976D01*
X013619Y001938D02*
X001029Y001938D01*
X002101Y003908D02*
X002103Y003908D01*
D34*
X007480Y008855D02*
X007480Y009347D01*
X007180Y009347D01*
X007102Y009425D01*
X007480Y008855D02*
X007801Y008534D01*
X007801Y008159D01*
X008833Y008229D02*
X008903Y008159D01*
X008903Y007678D01*
X009061Y007520D01*
X009061Y006909D01*
X008833Y008229D02*
X008833Y008363D01*
X009079Y008609D01*
X009325Y008609D01*
X009602Y008885D01*
X009602Y009425D01*
D35*
X006742Y008240D03*
X001697Y008240D03*
X002436Y013530D03*
X007111Y013530D03*
X013508Y009347D03*
X013508Y018574D03*
D36*
X017509Y015409D02*
X017509Y013702D01*
X017509Y006409D02*
X017509Y004702D01*
M02*
