G75*
%MOIN*%
%OFA0B0*%
%FSLAX24Y24*%
%IPPOS*%
%LPD*%
%AMOC8*
5,1,8,0,0,1.08239X$1,22.5*
%
%ADD10OC8,0.0520*%
%ADD11C,0.0860*%
%ADD12C,0.0476*%
%ADD13C,0.1378*%
%ADD14C,0.0515*%
%ADD15C,0.2441*%
%ADD16OC8,0.0600*%
%ADD17C,0.0591*%
%ADD18C,0.0787*%
%ADD19C,0.0551*%
%ADD20C,0.0236*%
D10*
X025724Y020347D03*
X028724Y020347D03*
D11*
X006544Y020513D02*
X006544Y021373D01*
X004182Y021373D02*
X004182Y020513D01*
X004933Y019053D02*
X005793Y019053D01*
D12*
X014707Y021402D03*
X015297Y021402D03*
X015888Y021402D03*
X016478Y021402D03*
D13*
X006277Y003953D03*
X006277Y005512D03*
X006277Y007767D03*
X006277Y009326D03*
X006277Y011581D03*
X006277Y013140D03*
X006277Y015395D03*
X006277Y016954D03*
X021285Y004831D03*
X022844Y004831D03*
D14*
X032359Y005987D03*
X032359Y006775D03*
X032359Y007562D03*
X032359Y008349D03*
X032359Y009137D03*
X032359Y009924D03*
X032359Y010712D03*
X032359Y011499D03*
X032359Y012286D03*
X032359Y013074D03*
D15*
X033196Y003502D03*
X010361Y003502D03*
X010361Y022793D03*
X033196Y022793D03*
D16*
X031279Y004002D03*
X030279Y004002D03*
X029279Y004002D03*
X028279Y004002D03*
X027279Y004002D03*
X026279Y004002D03*
X025279Y004002D03*
X024279Y004002D03*
X024279Y003002D03*
X025279Y003002D03*
X026279Y003002D03*
X027279Y003002D03*
X028279Y003002D03*
X029279Y003002D03*
X030279Y003002D03*
X031279Y003002D03*
D17*
X018826Y003010D03*
X018826Y012606D03*
D18*
X018826Y003010D01*
D19*
X020425Y005963D03*
X017719Y011499D03*
X026085Y015928D03*
X027807Y012114D03*
X026454Y011253D03*
X031252Y007562D03*
X030514Y007193D03*
X031252Y005101D03*
X031498Y017158D03*
X030391Y021218D03*
X025716Y021218D03*
X017719Y020726D03*
D20*
X017719Y011499D01*
X020425Y005963D02*
X023378Y005963D01*
X024239Y005101D01*
X031252Y005101D01*
X031279Y004021D02*
X033097Y005840D01*
X033097Y006455D01*
X032778Y006775D01*
X032359Y006775D01*
X031252Y007562D02*
X027807Y011007D01*
X027807Y012114D01*
X026454Y011253D02*
X030514Y007193D01*
X031279Y004021D02*
X031279Y004002D01*
X031129Y015928D02*
X026085Y015928D01*
X031129Y015928D02*
X031498Y016297D01*
X031498Y017158D01*
X030391Y021218D02*
X025716Y021218D01*
M02*
