G75*
%MOIN*%
%OFA0B0*%
%FSLAX24Y24*%
%IPPOS*%
%LPD*%
%AMOC8*
5,1,8,0,0,1.08239X$1,22.5*
%
%ADD10OC8,0.0520*%
%ADD11C,0.1418*%
%ADD12C,0.2481*%
%ADD13OC8,0.0640*%
%ADD14C,0.0631*%
%ADD15C,0.0591*%
D10*
X027865Y020101D03*
X030865Y020101D03*
D11*
X029357Y012417D03*
X029357Y010858D03*
D12*
X010361Y003502D03*
X033196Y003502D03*
X033196Y022793D03*
X010361Y022793D03*
D13*
X012279Y004002D03*
X013279Y004002D03*
X014279Y004002D03*
X015279Y004002D03*
X016279Y004002D03*
X017279Y004002D03*
X018279Y004002D03*
X019279Y004002D03*
X020279Y004002D03*
X021279Y004002D03*
X022279Y004002D03*
X023279Y004002D03*
X024279Y004002D03*
X025279Y004002D03*
X026279Y004002D03*
X027279Y004002D03*
X028279Y004002D03*
X029279Y004002D03*
X030279Y004002D03*
X031279Y004002D03*
X031279Y003002D03*
X030279Y003002D03*
X029279Y003002D03*
X028279Y003002D03*
X027279Y003002D03*
X026279Y003002D03*
X025279Y003002D03*
X024279Y003002D03*
X023279Y003002D03*
X022279Y003002D03*
X021279Y003002D03*
X020279Y003002D03*
X019279Y003002D03*
X018279Y003002D03*
X017279Y003002D03*
X016279Y003002D03*
X015279Y003002D03*
X014279Y003002D03*
X013279Y003002D03*
X012279Y003002D03*
D14*
X012279Y005002D03*
X013279Y005002D03*
X014279Y005002D03*
X015279Y005002D03*
X016279Y005002D03*
X017279Y005002D03*
X018279Y005002D03*
X019279Y005002D03*
X020279Y005002D03*
X021279Y005002D03*
X022279Y005002D03*
X023279Y005002D03*
X024279Y005002D03*
X025279Y005002D03*
X025279Y006002D03*
X024279Y006002D03*
X023279Y006002D03*
X022279Y006002D03*
X021279Y006002D03*
X020279Y006002D03*
X019279Y006002D03*
X018279Y006002D03*
X017279Y006002D03*
X016279Y006002D03*
X015279Y006002D03*
X014279Y006002D03*
X013279Y006002D03*
X012279Y006002D03*
X010861Y007876D03*
X009861Y007876D03*
X009861Y008876D03*
X010861Y008876D03*
X010861Y009876D03*
X009861Y009876D03*
X009861Y010876D03*
X010861Y010876D03*
X010861Y011876D03*
X009861Y011876D03*
X009861Y012876D03*
X010861Y012876D03*
X010861Y013876D03*
X009861Y013876D03*
X009861Y014876D03*
X010861Y014876D03*
X010861Y015876D03*
X009861Y015876D03*
X009861Y016876D03*
X010861Y016876D03*
X010861Y017876D03*
X009861Y017876D03*
X009861Y018876D03*
X010861Y018876D03*
X010861Y019876D03*
X009861Y019876D03*
X009861Y020876D03*
X010861Y020876D03*
D15*
X027856Y020972D03*
X031941Y020972D03*
M02*
