%
M48
M72
T01C0.0276
T02C0.0315
T03C0.0320
T04C0.0394
T05C0.0400
T06C0.0709
T07C0.1083
%
T01
X14707Y21402
X15297Y21402
X15888Y21402
X16478Y21402
T02
X17719Y20726
X25716Y21218
X30391Y21218
X31498Y17158
X32359Y13074
X32359Y12286
X32359Y11499
X32359Y10712
X32359Y9924
X32359Y9137
X32359Y8349
X32359Y7562
X32359Y6775
X32359Y5987
X31252Y5101
X30514Y7193
X31252Y7562
X26454Y11253
X27807Y12114
X26085Y15928
X17719Y11499
X20425Y5963
X5363Y19053
X4182Y20943
T03
X25724Y20347
X28724Y20347
T04
X18826Y12606
X6544Y20943
X18826Y3010
T05
X24279Y3002
X25279Y3002
X26279Y3002
X27279Y3002
X28279Y3002
X29279Y3002
X30279Y3002
X31279Y3002
X31279Y4002
X30279Y4002
X29279Y4002
X28279Y4002
X27279Y4002
X26279Y4002
X25279Y4002
X24279Y4002
T06
X6277Y3953
X6277Y5512
X6277Y7767
X6277Y9326
X6277Y11581
X6277Y13140
X6277Y15395
X6277Y16954
X21285Y4831
X22844Y4831
T07
X33196Y3502
X10361Y3502
X10361Y22793
X33196Y22793
M30
