G75*
%MOIN*%
%OFA0B0*%
%FSLAX24Y24*%
%IPPOS*%
%LPD*%
%AMOC8*
5,1,8,0,0,1.08239X$1,22.5*
%
%ADD10C,0.0039*%
%ADD11OC8,0.0520*%
%ADD12C,0.1418*%
%ADD13C,0.2481*%
%ADD14OC8,0.0640*%
%ADD15C,0.0631*%
%ADD16C,0.0591*%
D10*
X008983Y003305D02*
X008983Y022990D01*
X008985Y023056D01*
X008990Y023122D01*
X009000Y023188D01*
X009013Y023253D01*
X009029Y023317D01*
X009049Y023380D01*
X009073Y023442D01*
X009100Y023502D01*
X009130Y023561D01*
X009164Y023618D01*
X009201Y023673D01*
X009241Y023726D01*
X009283Y023777D01*
X009329Y023825D01*
X009377Y023871D01*
X009428Y023913D01*
X009481Y023953D01*
X009536Y023990D01*
X009593Y024024D01*
X009652Y024054D01*
X009712Y024081D01*
X009774Y024105D01*
X009837Y024125D01*
X009901Y024141D01*
X009966Y024154D01*
X010032Y024164D01*
X010098Y024169D01*
X010164Y024171D01*
X033393Y024171D01*
X033459Y024169D01*
X033525Y024164D01*
X033591Y024154D01*
X033656Y024141D01*
X033720Y024125D01*
X033783Y024105D01*
X033845Y024081D01*
X033905Y024054D01*
X033964Y024024D01*
X034021Y023990D01*
X034076Y023953D01*
X034129Y023913D01*
X034180Y023871D01*
X034228Y023825D01*
X034274Y023777D01*
X034316Y023726D01*
X034356Y023673D01*
X034393Y023618D01*
X034427Y023561D01*
X034457Y023502D01*
X034484Y023442D01*
X034508Y023380D01*
X034528Y023317D01*
X034544Y023253D01*
X034557Y023188D01*
X034567Y023122D01*
X034572Y023056D01*
X034574Y022990D01*
X034574Y003305D01*
X034572Y003239D01*
X034567Y003173D01*
X034557Y003107D01*
X034544Y003042D01*
X034528Y002978D01*
X034508Y002915D01*
X034484Y002853D01*
X034457Y002793D01*
X034427Y002734D01*
X034393Y002677D01*
X034356Y002622D01*
X034316Y002569D01*
X034274Y002518D01*
X034228Y002470D01*
X034180Y002424D01*
X034129Y002382D01*
X034076Y002342D01*
X034021Y002305D01*
X033964Y002271D01*
X033905Y002241D01*
X033845Y002214D01*
X033783Y002190D01*
X033720Y002170D01*
X033656Y002154D01*
X033591Y002141D01*
X033525Y002131D01*
X033459Y002126D01*
X033393Y002124D01*
X010164Y002124D01*
X010098Y002126D01*
X010032Y002131D01*
X009966Y002141D01*
X009901Y002154D01*
X009837Y002170D01*
X009774Y002190D01*
X009712Y002214D01*
X009652Y002241D01*
X009593Y002271D01*
X009536Y002305D01*
X009481Y002342D01*
X009428Y002382D01*
X009377Y002424D01*
X009329Y002470D01*
X009283Y002518D01*
X009241Y002569D01*
X009201Y002622D01*
X009164Y002677D01*
X009130Y002734D01*
X009100Y002793D01*
X009073Y002853D01*
X009049Y002915D01*
X009029Y002978D01*
X009013Y003042D01*
X009000Y003107D01*
X008990Y003173D01*
X008985Y003239D01*
X008983Y003305D01*
D11*
X026873Y020101D03*
X030873Y020101D03*
D12*
X029357Y012417D03*
X029357Y010858D03*
D13*
X033196Y003502D03*
X010361Y003502D03*
X010361Y022793D03*
X033196Y022793D03*
D14*
X031279Y004002D03*
X030279Y004002D03*
X029279Y004002D03*
X028279Y004002D03*
X027279Y004002D03*
X026279Y004002D03*
X025279Y004002D03*
X024279Y004002D03*
X023279Y004002D03*
X022279Y004002D03*
X021279Y004002D03*
X020279Y004002D03*
X019279Y004002D03*
X018279Y004002D03*
X017279Y004002D03*
X016279Y004002D03*
X015279Y004002D03*
X014279Y004002D03*
X013279Y004002D03*
X012279Y004002D03*
X012279Y003002D03*
X013279Y003002D03*
X014279Y003002D03*
X015279Y003002D03*
X016279Y003002D03*
X017279Y003002D03*
X018279Y003002D03*
X019279Y003002D03*
X020279Y003002D03*
X021279Y003002D03*
X022279Y003002D03*
X023279Y003002D03*
X024279Y003002D03*
X025279Y003002D03*
X026279Y003002D03*
X027279Y003002D03*
X028279Y003002D03*
X029279Y003002D03*
X030279Y003002D03*
X031279Y003002D03*
D15*
X025279Y005002D03*
X024279Y005002D03*
X024279Y006002D03*
X025279Y006002D03*
X023279Y006002D03*
X023279Y005002D03*
X022279Y005002D03*
X021279Y005002D03*
X021279Y006002D03*
X022279Y006002D03*
X020279Y006002D03*
X020279Y005002D03*
X019279Y005002D03*
X018279Y005002D03*
X018279Y006002D03*
X019279Y006002D03*
X017279Y006002D03*
X017279Y005002D03*
X016279Y005002D03*
X015279Y005002D03*
X015279Y006002D03*
X016279Y006002D03*
X014279Y006002D03*
X013279Y006002D03*
X013279Y005002D03*
X014279Y005002D03*
X012279Y005002D03*
X012279Y006002D03*
X010861Y007876D03*
X009861Y007876D03*
X009861Y008876D03*
X010861Y008876D03*
X010861Y009876D03*
X009861Y009876D03*
X009861Y010876D03*
X010861Y010876D03*
X010861Y011876D03*
X009861Y011876D03*
X009861Y012876D03*
X010861Y012876D03*
X010861Y013876D03*
X009861Y013876D03*
X009861Y014876D03*
X010861Y014876D03*
X010861Y015876D03*
X009861Y015876D03*
X009861Y016876D03*
X010861Y016876D03*
X010861Y017876D03*
X009861Y017876D03*
X009861Y018876D03*
X010861Y018876D03*
X010861Y019876D03*
X009861Y019876D03*
X009861Y020876D03*
X010861Y020876D03*
D16*
X026872Y020972D03*
X031941Y020972D03*
M02*
