%
M48
M72
T01C0.0236
T02C0.0315
T03C0.0320
T04C0.0394
T05C0.0400
T06C0.0709
T07C0.1083
%
T01
X12920Y7045
X13412Y7045
X14397Y8029
X14889Y8029
X16365Y8128
X16857Y8128
X13412Y9777
X13289Y10761
X11838Y11770
X12527Y12951
X12920Y14230
X13412Y14230
X13905Y14230
X14298Y14919
X16365Y15018
X16857Y15018
X18727Y14033
X20401Y13935
X20401Y13443
X20893Y13443
X21385Y13443
X21385Y13935
X20893Y13935
X22271Y14329
X20401Y12262
X21483Y9900
X21680Y8029
X22172Y8029
X22664Y8029
X22664Y7537
X22172Y7537
X21680Y7537
X24042Y9998
X24534Y9998
X25027Y9998
X25814Y10195
X27487Y9998
X28373Y11671
X26601Y12065
X28373Y13541
X28865Y13541
X30538Y13443
X31031Y13443
X31031Y12951
X30538Y12951
X31916Y13246
X34082Y12360
X31916Y9998
X31227Y8620
X29918Y8620
X31424Y6652
X31916Y6652
X31818Y5667
X27979Y6652
X26700Y5667
X25814Y7537
X34082Y8620
X31031Y15313
X30538Y15313
X30538Y15805
X31031Y15805
X30538Y16297
X30538Y16789
X30538Y17281
X30538Y17970
X31031Y17970
X31523Y18266
X32015Y18266
X34082Y19840
X30342Y21612
X27881Y23581
X25420Y22793
X23058Y22793
X22566Y22793
X22960Y23581
X20597Y22793
X18235Y23581
X15873Y22892
X13117Y23581
X12034Y20923
X14889Y20825
X18727Y20825
X21680Y20825
X21680Y16789
X13412Y16912
X11838Y17872
X34082Y16297
T02
X31941Y20972
X26872Y20972
T03
X26873Y20101
X30873Y20101
T04
X25279Y6002
X24279Y6002
X24279Y5002
X25279Y5002
X23279Y5002
X23279Y6002
X22279Y6002
X21279Y6002
X21279Y5002
X22279Y5002
X20279Y5002
X20279Y6002
X19279Y6002
X18279Y6002
X18279Y5002
X19279Y5002
X17279Y5002
X17279Y6002
X16279Y6002
X15279Y6002
X15279Y5002
X16279Y5002
X14279Y5002
X13279Y5002
X13279Y6002
X14279Y6002
X12279Y6002
X12279Y5002
X10861Y7876
X9861Y7876
X9861Y8876
X10861Y8876
X10861Y9876
X9861Y9876
X9861Y10876
X10861Y10876
X10861Y11876
X9861Y11876
X9861Y12876
X10861Y12876
X10861Y13876
X9861Y13876
X9861Y14876
X10861Y14876
X10861Y15876
X9861Y15876
X9861Y16876
X10861Y16876
X10861Y17876
X9861Y17876
X9861Y18876
X10861Y18876
X10861Y19876
X9861Y19876
X9861Y20876
X10861Y20876
T05
X12279Y4002
X13279Y4002
X14279Y4002
X15279Y4002
X16279Y4002
X17279Y4002
X18279Y4002
X19279Y4002
X20279Y4002
X21279Y4002
X22279Y4002
X23279Y4002
X24279Y4002
X25279Y4002
X26279Y4002
X27279Y4002
X28279Y4002
X29279Y4002
X30279Y4002
X31279Y4002
X31279Y3002
X30279Y3002
X29279Y3002
X28279Y3002
X27279Y3002
X26279Y3002
X25279Y3002
X24279Y3002
X23279Y3002
X22279Y3002
X21279Y3002
X20279Y3002
X19279Y3002
X18279Y3002
X17279Y3002
X16279Y3002
X15279Y3002
X14279Y3002
X13279Y3002
X12279Y3002
T06
X29357Y10858
X29357Y12417
T07
X10361Y3502
X33196Y3502
X33196Y22793
X10361Y22793
M30
