G75*
%MOIN*%
%OFA0B0*%
%FSLAX24Y24*%
%IPPOS*%
%LPD*%
%AMOC8*
5,1,8,0,0,1.08239X$1,22.5*
%
%ADD10C,0.0039*%
%ADD11OC8,0.0480*%
%ADD12C,0.1378*%
%ADD13C,0.2441*%
%ADD14OC8,0.0600*%
%ADD15C,0.0591*%
%ADD16C,0.0356*%
%ADD17C,0.0236*%
%ADD18C,0.0157*%
%ADD19C,0.0197*%
%ADD20C,0.0551*%
D10*
X008983Y003305D02*
X008983Y022990D01*
X008985Y023056D01*
X008990Y023122D01*
X009000Y023188D01*
X009013Y023253D01*
X009029Y023317D01*
X009049Y023380D01*
X009073Y023442D01*
X009100Y023502D01*
X009130Y023561D01*
X009164Y023618D01*
X009201Y023673D01*
X009241Y023726D01*
X009283Y023777D01*
X009329Y023825D01*
X009377Y023871D01*
X009428Y023913D01*
X009481Y023953D01*
X009536Y023990D01*
X009593Y024024D01*
X009652Y024054D01*
X009712Y024081D01*
X009774Y024105D01*
X009837Y024125D01*
X009901Y024141D01*
X009966Y024154D01*
X010032Y024164D01*
X010098Y024169D01*
X010164Y024171D01*
X033393Y024171D01*
X033459Y024169D01*
X033525Y024164D01*
X033591Y024154D01*
X033656Y024141D01*
X033720Y024125D01*
X033783Y024105D01*
X033845Y024081D01*
X033905Y024054D01*
X033964Y024024D01*
X034021Y023990D01*
X034076Y023953D01*
X034129Y023913D01*
X034180Y023871D01*
X034228Y023825D01*
X034274Y023777D01*
X034316Y023726D01*
X034356Y023673D01*
X034393Y023618D01*
X034427Y023561D01*
X034457Y023502D01*
X034484Y023442D01*
X034508Y023380D01*
X034528Y023317D01*
X034544Y023253D01*
X034557Y023188D01*
X034567Y023122D01*
X034572Y023056D01*
X034574Y022990D01*
X034574Y003305D01*
X034572Y003239D01*
X034567Y003173D01*
X034557Y003107D01*
X034544Y003042D01*
X034528Y002978D01*
X034508Y002915D01*
X034484Y002853D01*
X034457Y002793D01*
X034427Y002734D01*
X034393Y002677D01*
X034356Y002622D01*
X034316Y002569D01*
X034274Y002518D01*
X034228Y002470D01*
X034180Y002424D01*
X034129Y002382D01*
X034076Y002342D01*
X034021Y002305D01*
X033964Y002271D01*
X033905Y002241D01*
X033845Y002214D01*
X033783Y002190D01*
X033720Y002170D01*
X033656Y002154D01*
X033591Y002141D01*
X033525Y002131D01*
X033459Y002126D01*
X033393Y002124D01*
X010164Y002124D01*
X010098Y002126D01*
X010032Y002131D01*
X009966Y002141D01*
X009901Y002154D01*
X009837Y002170D01*
X009774Y002190D01*
X009712Y002214D01*
X009652Y002241D01*
X009593Y002271D01*
X009536Y002305D01*
X009481Y002342D01*
X009428Y002382D01*
X009377Y002424D01*
X009329Y002470D01*
X009283Y002518D01*
X009241Y002569D01*
X009201Y002622D01*
X009164Y002677D01*
X009130Y002734D01*
X009100Y002793D01*
X009073Y002853D01*
X009049Y002915D01*
X009029Y002978D01*
X009013Y003042D01*
X009000Y003107D01*
X008990Y003173D01*
X008985Y003239D01*
X008983Y003305D01*
D11*
X026873Y020101D03*
X030873Y020101D03*
D12*
X029357Y012417D03*
X029357Y010858D03*
D13*
X033196Y003502D03*
X010361Y003502D03*
X010361Y022793D03*
X033196Y022793D03*
D14*
X031279Y004002D03*
X030279Y004002D03*
X029279Y004002D03*
X028279Y004002D03*
X027279Y004002D03*
X026279Y004002D03*
X025279Y004002D03*
X024279Y004002D03*
X023279Y004002D03*
X022279Y004002D03*
X021279Y004002D03*
X020279Y004002D03*
X019279Y004002D03*
X018279Y004002D03*
X017279Y004002D03*
X016279Y004002D03*
X015279Y004002D03*
X014279Y004002D03*
X013279Y004002D03*
X012279Y004002D03*
X012279Y003002D03*
X013279Y003002D03*
X014279Y003002D03*
X015279Y003002D03*
X016279Y003002D03*
X017279Y003002D03*
X018279Y003002D03*
X019279Y003002D03*
X020279Y003002D03*
X021279Y003002D03*
X022279Y003002D03*
X023279Y003002D03*
X024279Y003002D03*
X025279Y003002D03*
X026279Y003002D03*
X027279Y003002D03*
X028279Y003002D03*
X029279Y003002D03*
X030279Y003002D03*
X031279Y003002D03*
D15*
X025279Y005002D03*
X024279Y005002D03*
X024279Y006002D03*
X025279Y006002D03*
X023279Y006002D03*
X023279Y005002D03*
X022279Y005002D03*
X021279Y005002D03*
X021279Y006002D03*
X022279Y006002D03*
X020279Y006002D03*
X020279Y005002D03*
X019279Y005002D03*
X018279Y005002D03*
X018279Y006002D03*
X019279Y006002D03*
X017279Y006002D03*
X017279Y005002D03*
X016279Y005002D03*
X015279Y005002D03*
X015279Y006002D03*
X016279Y006002D03*
X014279Y006002D03*
X013279Y006002D03*
X013279Y005002D03*
X014279Y005002D03*
X012279Y005002D03*
X012279Y006002D03*
X010861Y007876D03*
X009861Y007876D03*
X009861Y008876D03*
X010861Y008876D03*
X010861Y009876D03*
X009861Y009876D03*
X009861Y010876D03*
X010861Y010876D03*
X010861Y011876D03*
X009861Y011876D03*
X009861Y012876D03*
X010861Y012876D03*
X010861Y013876D03*
X009861Y013876D03*
X009861Y014876D03*
X010861Y014876D03*
X010861Y015876D03*
X009861Y015876D03*
X009861Y016876D03*
X010861Y016876D03*
X010861Y017876D03*
X009861Y017876D03*
X009861Y018876D03*
X010861Y018876D03*
X010861Y019876D03*
X009861Y019876D03*
X009861Y020876D03*
X010861Y020876D03*
D16*
X012034Y020923D03*
X014889Y020825D03*
X015873Y022892D03*
X018235Y023581D03*
X020597Y022793D03*
X022566Y022793D03*
X023058Y022793D03*
X022960Y023581D03*
X025420Y022793D03*
X027881Y023581D03*
X030342Y021612D03*
X034082Y019840D03*
X032015Y018266D03*
X031523Y018266D03*
X031031Y017970D03*
X030538Y017970D03*
X030538Y017281D03*
X030538Y016789D03*
X030538Y016297D03*
X030538Y015805D03*
X031031Y015805D03*
X031031Y015313D03*
X030538Y015313D03*
X030538Y013443D03*
X031031Y013443D03*
X031031Y012951D03*
X030538Y012951D03*
X031916Y013246D03*
X034082Y012360D03*
X031916Y009998D03*
X031227Y008620D03*
X029918Y008620D03*
X027487Y009998D03*
X025814Y010195D03*
X025027Y009998D03*
X024534Y009998D03*
X024042Y009998D03*
X022664Y008029D03*
X022172Y008029D03*
X021680Y008029D03*
X021680Y007537D03*
X022172Y007537D03*
X022664Y007537D03*
X021483Y009900D03*
X020401Y012262D03*
X020401Y013443D03*
X020401Y013935D03*
X020893Y013935D03*
X021385Y013935D03*
X021385Y013443D03*
X020893Y013443D03*
X022271Y014329D03*
X021680Y016789D03*
X018727Y014033D03*
X016857Y015018D03*
X016365Y015018D03*
X014298Y014919D03*
X013905Y014230D03*
X013412Y014230D03*
X012920Y014230D03*
X012527Y012951D03*
X011838Y011770D03*
X013289Y010761D03*
X013412Y009777D03*
X014397Y008029D03*
X014889Y008029D03*
X016365Y008128D03*
X016857Y008128D03*
X013412Y007045D03*
X012920Y007045D03*
X025814Y007537D03*
X027979Y006652D03*
X026700Y005667D03*
X031424Y006652D03*
X031916Y006652D03*
X031818Y005667D03*
X034082Y008620D03*
X028373Y011671D03*
X026601Y012065D03*
X028373Y013541D03*
X028865Y013541D03*
X034082Y016297D03*
X021680Y020825D03*
X018727Y020825D03*
X013412Y016912D03*
X011838Y017872D03*
X013117Y023581D03*
D17*
X013412Y016912D02*
X013781Y016912D01*
X013658Y010761D02*
X013289Y010761D01*
X013412Y009777D02*
X013412Y008054D01*
X014520Y006947D01*
X018279Y006947D01*
X018432Y006947D01*
X025593Y006947D01*
X026198Y006341D01*
X026198Y005215D01*
X026557Y004855D01*
X029406Y004855D01*
X029776Y004486D01*
X031818Y005667D02*
X026700Y005667D01*
X029918Y008620D02*
X030765Y009466D01*
X030765Y011010D01*
X029357Y012417D01*
X018279Y006947D02*
X018279Y006002D01*
X018279Y005002D01*
X026872Y020972D02*
X031941Y020972D01*
D18*
X032413Y020983D02*
X034357Y020983D01*
X034357Y021139D02*
X032383Y021139D01*
X032413Y021066D02*
X032341Y021240D01*
X032209Y021373D01*
X032035Y021445D01*
X031847Y021445D01*
X031673Y021373D01*
X031588Y021287D01*
X027225Y021287D01*
X027140Y021373D01*
X026966Y021445D01*
X026778Y021445D01*
X026604Y021373D01*
X026472Y021240D01*
X026400Y021066D01*
X026400Y020878D01*
X026472Y020705D01*
X026604Y020572D01*
X026690Y020536D01*
X026436Y020282D01*
X026436Y019920D01*
X026692Y019664D01*
X027054Y019664D01*
X027310Y019920D01*
X027310Y020282D01*
X027055Y020537D01*
X027140Y020572D01*
X027225Y020657D01*
X031588Y020657D01*
X031673Y020572D01*
X031847Y020500D01*
X032035Y020500D01*
X032209Y020572D01*
X032341Y020705D01*
X032413Y020878D01*
X032413Y021066D01*
X032392Y020827D02*
X034357Y020827D01*
X034357Y020671D02*
X032307Y020671D01*
X032070Y020515D02*
X034357Y020515D01*
X034357Y020359D02*
X027233Y020359D01*
X027310Y020203D02*
X034357Y020203D01*
X034357Y020047D02*
X027310Y020047D01*
X027280Y019891D02*
X034357Y019891D01*
X034357Y019735D02*
X027124Y019735D01*
X026622Y019735D02*
X022487Y019735D01*
X022487Y019891D02*
X026466Y019891D01*
X026436Y020047D02*
X022487Y020047D01*
X022487Y020203D02*
X026436Y020203D01*
X026513Y020359D02*
X022487Y020359D01*
X022487Y020515D02*
X026669Y020515D01*
X026506Y020671D02*
X022487Y020671D01*
X022487Y020827D02*
X026421Y020827D01*
X026400Y020983D02*
X022487Y020983D01*
X022487Y021139D02*
X026430Y021139D01*
X026526Y021295D02*
X022487Y021295D01*
X022487Y021451D02*
X034357Y021451D01*
X034357Y021607D02*
X022386Y021607D01*
X022360Y021632D02*
X014504Y021632D01*
X014377Y021505D01*
X011453Y018581D01*
X011262Y018581D01*
X011278Y018597D01*
X011353Y018778D01*
X011353Y018974D01*
X011278Y019155D01*
X011140Y019293D01*
X010959Y019368D01*
X010763Y019368D01*
X010582Y019293D01*
X010444Y019155D01*
X010369Y018974D01*
X010369Y018778D01*
X010444Y018597D01*
X010461Y018581D01*
X010262Y018581D01*
X010278Y018597D01*
X010353Y018778D01*
X010353Y018974D01*
X010278Y019155D01*
X010140Y019293D01*
X009959Y019368D01*
X009763Y019368D01*
X009582Y019293D01*
X009444Y019155D01*
X009369Y018974D01*
X009369Y018778D01*
X009444Y018597D01*
X009461Y018581D01*
X009287Y018581D01*
X009200Y018493D01*
X009200Y022990D01*
X009212Y023141D01*
X009305Y023428D01*
X009482Y023672D01*
X009726Y023850D01*
X010013Y023943D01*
X010164Y023955D01*
X033393Y023955D01*
X033544Y023943D01*
X033831Y023850D01*
X034075Y023672D01*
X034252Y023428D01*
X034345Y023141D01*
X034357Y022990D01*
X034357Y003305D01*
X034345Y003154D01*
X034252Y002867D01*
X034075Y002623D01*
X033831Y002446D01*
X033544Y002352D01*
X033393Y002340D01*
X010164Y002340D01*
X010013Y002352D01*
X009726Y002446D01*
X009482Y002623D01*
X009305Y002867D01*
X009212Y003154D01*
X009200Y003305D01*
X009200Y007310D01*
X009287Y007222D01*
X009467Y007222D01*
X009594Y007349D01*
X009594Y009454D01*
X009763Y009384D01*
X009959Y009384D01*
X010140Y009459D01*
X010278Y009597D01*
X010353Y009778D01*
X010353Y009974D01*
X010278Y010155D01*
X010140Y010293D01*
X009959Y010368D01*
X009763Y010368D01*
X009594Y010298D01*
X009594Y010454D01*
X009763Y010384D01*
X009959Y010384D01*
X010140Y010459D01*
X010278Y010597D01*
X010353Y010778D01*
X010353Y010974D01*
X010278Y011155D01*
X010140Y011293D01*
X009959Y011368D01*
X009763Y011368D01*
X009594Y011298D01*
X009594Y011454D01*
X009763Y011384D01*
X009959Y011384D01*
X010140Y011459D01*
X010278Y011597D01*
X010353Y011778D01*
X010353Y011974D01*
X010283Y012144D01*
X010439Y012144D01*
X010369Y011974D01*
X010369Y011778D01*
X010444Y011597D01*
X010582Y011459D01*
X010763Y011384D01*
X010959Y011384D01*
X011140Y011459D01*
X011278Y011597D01*
X011353Y011778D01*
X011353Y011974D01*
X011283Y012144D01*
X013207Y012144D01*
X014978Y013915D01*
X018128Y013915D01*
X018255Y014042D01*
X018255Y014222D01*
X018128Y014348D01*
X014799Y014348D01*
X014672Y014222D01*
X013027Y012577D01*
X009594Y012577D01*
X009594Y014454D01*
X009763Y014384D01*
X009959Y014384D01*
X010140Y014459D01*
X010278Y014597D01*
X010353Y014778D01*
X010353Y014974D01*
X010278Y015155D01*
X010140Y015293D01*
X009959Y015368D01*
X009763Y015368D01*
X009594Y015298D01*
X009594Y015454D01*
X009763Y015384D01*
X009959Y015384D01*
X010140Y015459D01*
X010278Y015597D01*
X010353Y015778D01*
X010353Y015974D01*
X010278Y016155D01*
X010140Y016293D01*
X009959Y016368D01*
X009763Y016368D01*
X009594Y016298D01*
X009594Y016454D01*
X009763Y016384D01*
X009959Y016384D01*
X010140Y016459D01*
X010278Y016597D01*
X010353Y016778D01*
X010353Y016974D01*
X010278Y017155D01*
X010140Y017293D01*
X009959Y017368D01*
X009763Y017368D01*
X009594Y017298D01*
X009594Y017454D01*
X009763Y017384D01*
X009959Y017384D01*
X010140Y017459D01*
X010278Y017597D01*
X010353Y017778D01*
X010353Y017974D01*
X010281Y018148D01*
X010441Y018148D01*
X010369Y017974D01*
X010369Y017778D01*
X010444Y017597D01*
X010582Y017459D01*
X010763Y017384D01*
X010959Y017384D01*
X011140Y017459D01*
X011278Y017597D01*
X011353Y017778D01*
X011353Y017974D01*
X011281Y018148D01*
X011632Y018148D01*
X011759Y018274D01*
X011759Y018274D01*
X014683Y021199D01*
X022054Y021199D01*
X022054Y016404D01*
X024219Y014239D01*
X024219Y013747D01*
X024346Y013620D01*
X024526Y013620D01*
X024653Y013747D01*
X024653Y014418D01*
X024526Y014545D01*
X022487Y016584D01*
X022487Y021505D01*
X022360Y021632D01*
X022054Y021139D02*
X014623Y021139D01*
X014467Y020983D02*
X022054Y020983D01*
X022054Y020827D02*
X014311Y020827D01*
X014155Y020671D02*
X022054Y020671D01*
X022054Y020515D02*
X013999Y020515D01*
X013843Y020359D02*
X022054Y020359D01*
X022054Y020203D02*
X013687Y020203D01*
X013531Y020047D02*
X022054Y020047D01*
X022054Y019891D02*
X013375Y019891D01*
X013219Y019735D02*
X022054Y019735D01*
X022054Y019579D02*
X013063Y019579D01*
X012907Y019423D02*
X022054Y019423D01*
X022054Y019267D02*
X012751Y019267D01*
X012595Y019111D02*
X022054Y019111D01*
X022054Y018955D02*
X012439Y018955D01*
X012283Y018799D02*
X022054Y018799D01*
X022054Y018643D02*
X012127Y018643D01*
X011971Y018487D02*
X022054Y018487D01*
X022054Y018331D02*
X011815Y018331D01*
X011659Y018175D02*
X022054Y018175D01*
X022054Y018019D02*
X011335Y018019D01*
X011353Y017863D02*
X022054Y017863D01*
X022054Y017707D02*
X011324Y017707D01*
X011232Y017551D02*
X022054Y017551D01*
X022054Y017395D02*
X010986Y017395D01*
X010959Y017368D02*
X011140Y017293D01*
X011278Y017155D01*
X011353Y016974D01*
X011353Y016778D01*
X011278Y016597D01*
X011140Y016459D01*
X010959Y016384D01*
X010763Y016384D01*
X010582Y016459D01*
X010140Y016459D01*
X010116Y016303D02*
X010607Y016303D01*
X010582Y016293D02*
X010763Y016368D01*
X010959Y016368D01*
X011140Y016293D01*
X011278Y016155D01*
X011353Y015974D01*
X011353Y015778D01*
X011278Y015597D01*
X011140Y015459D01*
X010959Y015384D01*
X010763Y015384D01*
X010582Y015459D01*
X010444Y015597D01*
X010369Y015778D01*
X010369Y015974D01*
X010444Y016155D01*
X010582Y016293D01*
X010582Y016459D02*
X010444Y016597D01*
X010369Y016778D01*
X010369Y016974D01*
X010444Y017155D01*
X010582Y017293D01*
X010763Y017368D01*
X010959Y017368D01*
X010736Y017395D02*
X009986Y017395D01*
X009736Y017395D02*
X009594Y017395D01*
X010194Y017239D02*
X010528Y017239D01*
X010414Y017083D02*
X010308Y017083D01*
X010353Y016927D02*
X010369Y016927D01*
X010372Y016771D02*
X010350Y016771D01*
X010286Y016615D02*
X010437Y016615D01*
X010441Y016147D02*
X010282Y016147D01*
X010346Y015991D02*
X010376Y015991D01*
X010369Y015835D02*
X010353Y015835D01*
X010312Y015679D02*
X010410Y015679D01*
X010518Y015523D02*
X010205Y015523D01*
X009961Y015367D02*
X023091Y015367D01*
X023247Y015211D02*
X010222Y015211D01*
X010320Y015055D02*
X023403Y015055D01*
X023559Y014899D02*
X010353Y014899D01*
X010339Y014743D02*
X023715Y014743D01*
X023871Y014587D02*
X010269Y014587D01*
X010074Y014431D02*
X024027Y014431D01*
X024183Y014275D02*
X018201Y014275D01*
X018255Y014119D02*
X024219Y014119D01*
X024219Y013963D02*
X018176Y013963D01*
X014871Y013807D02*
X024219Y013807D01*
X024315Y013652D02*
X014715Y013652D01*
X014559Y013496D02*
X034357Y013496D01*
X034357Y013652D02*
X024557Y013652D01*
X024653Y013807D02*
X034357Y013807D01*
X034357Y013963D02*
X024653Y013963D01*
X024653Y014119D02*
X034357Y014119D01*
X034357Y014275D02*
X024653Y014275D01*
X024640Y014431D02*
X034357Y014431D01*
X034357Y014587D02*
X024484Y014587D01*
X024328Y014743D02*
X034357Y014743D01*
X034357Y014899D02*
X024172Y014899D01*
X024016Y015055D02*
X034357Y015055D01*
X034357Y015211D02*
X023860Y015211D01*
X023704Y015367D02*
X034357Y015367D01*
X034357Y015523D02*
X023548Y015523D01*
X023392Y015679D02*
X034357Y015679D01*
X034357Y015835D02*
X023236Y015835D01*
X023080Y015991D02*
X034357Y015991D01*
X034357Y016147D02*
X022924Y016147D01*
X022768Y016303D02*
X034357Y016303D01*
X034357Y016459D02*
X022612Y016459D01*
X022487Y016615D02*
X034357Y016615D01*
X034357Y016771D02*
X022487Y016771D01*
X022487Y016927D02*
X034357Y016927D01*
X034357Y017083D02*
X022487Y017083D01*
X022487Y017239D02*
X034357Y017239D01*
X034357Y017395D02*
X022487Y017395D01*
X022487Y017551D02*
X034357Y017551D01*
X034357Y017707D02*
X022487Y017707D01*
X022487Y017863D02*
X034357Y017863D01*
X034357Y018019D02*
X022487Y018019D01*
X022487Y018175D02*
X034357Y018175D01*
X034357Y018331D02*
X022487Y018331D01*
X022487Y018487D02*
X034357Y018487D01*
X034357Y018643D02*
X022487Y018643D01*
X022487Y018799D02*
X034357Y018799D01*
X034357Y018955D02*
X022487Y018955D01*
X022487Y019111D02*
X034357Y019111D01*
X034357Y019267D02*
X022487Y019267D01*
X022487Y019423D02*
X034357Y019423D01*
X034357Y019579D02*
X022487Y019579D01*
X022054Y017239D02*
X011194Y017239D01*
X011308Y017083D02*
X022054Y017083D01*
X022054Y016927D02*
X011353Y016927D01*
X011350Y016771D02*
X022054Y016771D01*
X022054Y016615D02*
X011286Y016615D01*
X011140Y016459D02*
X022054Y016459D01*
X022155Y016303D02*
X011116Y016303D01*
X011282Y016147D02*
X022311Y016147D01*
X022467Y015991D02*
X011346Y015991D01*
X011353Y015835D02*
X022623Y015835D01*
X022779Y015679D02*
X011312Y015679D01*
X011205Y015523D02*
X022935Y015523D01*
X028606Y011360D02*
X028471Y011034D01*
X028471Y010682D01*
X028606Y010356D01*
X028856Y010107D01*
X029181Y009972D01*
X029533Y009972D01*
X029859Y010107D01*
X030108Y010356D01*
X030243Y010682D01*
X030243Y011034D01*
X030108Y011360D01*
X029859Y011609D01*
X029533Y011744D01*
X029181Y011744D01*
X028856Y011609D01*
X028606Y011360D01*
X028586Y011312D02*
X011095Y011312D01*
X011140Y011293D02*
X010959Y011368D01*
X010763Y011368D01*
X010582Y011293D01*
X010444Y011155D01*
X010369Y010974D01*
X010369Y010778D01*
X010444Y010597D01*
X010582Y010459D01*
X010763Y010384D01*
X010959Y010384D01*
X011140Y010459D01*
X011278Y010597D01*
X011353Y010778D01*
X011353Y010974D01*
X011278Y011155D01*
X011140Y011293D01*
X011149Y011468D02*
X028714Y011468D01*
X028891Y011624D02*
X011289Y011624D01*
X011353Y011780D02*
X034357Y011780D01*
X034357Y011936D02*
X011353Y011936D01*
X011305Y012092D02*
X034357Y012092D01*
X034357Y012248D02*
X013311Y012248D01*
X013467Y012404D02*
X034357Y012404D01*
X034357Y012560D02*
X013623Y012560D01*
X013779Y012716D02*
X034357Y012716D01*
X034357Y012872D02*
X013935Y012872D01*
X014091Y013028D02*
X034357Y013028D01*
X034357Y013184D02*
X014247Y013184D01*
X014403Y013340D02*
X034357Y013340D01*
X034357Y011624D02*
X029824Y011624D01*
X030000Y011468D02*
X034357Y011468D01*
X034357Y011312D02*
X030128Y011312D01*
X030193Y011156D02*
X034357Y011156D01*
X034357Y011000D02*
X030243Y011000D01*
X030243Y010844D02*
X034357Y010844D01*
X034357Y010688D02*
X030243Y010688D01*
X030181Y010532D02*
X034357Y010532D01*
X034357Y010376D02*
X030116Y010376D01*
X029972Y010220D02*
X034357Y010220D01*
X034357Y010064D02*
X029755Y010064D01*
X028960Y010064D02*
X013655Y010064D01*
X013625Y010094D02*
X013730Y009989D01*
X013787Y009851D01*
X013787Y009702D01*
X013730Y009564D01*
X013727Y009561D01*
X013727Y008185D01*
X014650Y007262D01*
X025655Y007262D01*
X025771Y007214D01*
X026465Y006520D01*
X026513Y006404D01*
X026513Y005996D01*
X026625Y006042D01*
X026774Y006042D01*
X026912Y005985D01*
X026915Y005982D01*
X031603Y005982D01*
X031606Y005985D01*
X031743Y006042D01*
X031892Y006042D01*
X032030Y005985D01*
X032136Y005880D01*
X032193Y005742D01*
X032193Y005593D01*
X032136Y005455D01*
X032030Y005349D01*
X031892Y005292D01*
X031743Y005292D01*
X031606Y005349D01*
X031603Y005352D01*
X026915Y005352D01*
X026912Y005349D01*
X026774Y005292D01*
X026625Y005292D01*
X026523Y005335D01*
X026688Y005170D01*
X029469Y005170D01*
X029585Y005122D01*
X029674Y005034D01*
X030043Y004665D01*
X030091Y004549D01*
X030091Y004499D01*
X030484Y004499D01*
X030775Y004208D01*
X030775Y003796D01*
X030484Y003505D01*
X030190Y003505D01*
X030196Y003499D01*
X030484Y003499D01*
X030775Y003208D01*
X030775Y002796D01*
X030484Y002505D01*
X030073Y002505D01*
X029782Y002796D01*
X029782Y003078D01*
X029608Y003252D01*
X029525Y003335D01*
X029480Y003443D01*
X029480Y003505D01*
X029073Y003505D01*
X028782Y003796D01*
X028782Y004208D01*
X029073Y004499D01*
X029318Y004499D01*
X029276Y004540D01*
X026494Y004540D01*
X026379Y004588D01*
X026019Y004947D01*
X025931Y005036D01*
X025883Y005152D01*
X025883Y006211D01*
X025462Y006632D01*
X018594Y006632D01*
X018594Y006383D01*
X018696Y006281D01*
X018771Y006100D01*
X018771Y005904D01*
X018696Y005723D01*
X018594Y005621D01*
X018594Y005383D01*
X018696Y005281D01*
X018771Y005100D01*
X018771Y004904D01*
X018696Y004723D01*
X018557Y004585D01*
X018376Y004510D01*
X018181Y004510D01*
X018000Y004585D01*
X017861Y004723D01*
X017786Y004904D01*
X017786Y005100D01*
X017861Y005281D01*
X017964Y005383D01*
X017964Y005621D01*
X017861Y005723D01*
X017786Y005904D01*
X017786Y006100D01*
X017861Y006281D01*
X017964Y006383D01*
X017964Y006632D01*
X014457Y006632D01*
X014341Y006680D01*
X013234Y007787D01*
X013145Y007876D01*
X013097Y007991D01*
X013097Y009561D01*
X013095Y009564D01*
X013037Y009702D01*
X013037Y009851D01*
X013095Y009989D01*
X013200Y010094D01*
X013338Y010151D01*
X013487Y010151D01*
X013625Y010094D01*
X013764Y009908D02*
X034357Y009908D01*
X034357Y009752D02*
X013787Y009752D01*
X013743Y009596D02*
X034357Y009596D01*
X034357Y009440D02*
X013727Y009440D01*
X013727Y009284D02*
X034357Y009284D01*
X034357Y009128D02*
X013727Y009128D01*
X013727Y008972D02*
X034357Y008972D01*
X034357Y008816D02*
X013727Y008816D01*
X013727Y008660D02*
X034357Y008660D01*
X034357Y008504D02*
X013727Y008504D01*
X013727Y008348D02*
X034357Y008348D01*
X034357Y008192D02*
X013727Y008192D01*
X013876Y008036D02*
X034357Y008036D01*
X034357Y007880D02*
X014032Y007880D01*
X014188Y007724D02*
X034357Y007724D01*
X034357Y007568D02*
X014344Y007568D01*
X014500Y007412D02*
X034357Y007412D01*
X034357Y007256D02*
X025668Y007256D01*
X025884Y007100D02*
X034357Y007100D01*
X034357Y006944D02*
X026040Y006944D01*
X026196Y006788D02*
X034357Y006788D01*
X034357Y006632D02*
X026352Y006632D01*
X026483Y006476D02*
X034357Y006476D01*
X034357Y006320D02*
X026513Y006320D01*
X026513Y006164D02*
X034357Y006164D01*
X034357Y006008D02*
X031974Y006008D01*
X032147Y005852D02*
X034357Y005852D01*
X034357Y005697D02*
X032193Y005697D01*
X032171Y005541D02*
X034357Y005541D01*
X034357Y005385D02*
X032065Y005385D01*
X031662Y006008D02*
X026856Y006008D01*
X026544Y006008D02*
X026513Y006008D01*
X025883Y006008D02*
X024771Y006008D01*
X024771Y005927D02*
X024771Y006100D01*
X024696Y006281D01*
X024557Y006419D01*
X024376Y006494D01*
X024181Y006494D01*
X024000Y006419D01*
X023861Y006281D01*
X023786Y006100D01*
X023786Y005912D01*
X023771Y005927D01*
X023771Y006100D01*
X023696Y006281D01*
X023557Y006419D01*
X023376Y006494D01*
X023181Y006494D01*
X023000Y006419D01*
X022861Y006281D01*
X022786Y006100D01*
X022786Y005904D01*
X022861Y005723D01*
X023000Y005585D01*
X023181Y005510D01*
X023353Y005510D01*
X023369Y005494D01*
X023181Y005494D01*
X023000Y005419D01*
X022861Y005281D01*
X022786Y005100D01*
X022786Y004904D01*
X022861Y004723D01*
X023000Y004585D01*
X023181Y004510D01*
X023376Y004510D01*
X023481Y004553D01*
X023481Y004499D01*
X023073Y004499D01*
X022782Y004208D01*
X022782Y003796D01*
X023073Y003505D01*
X023364Y003505D01*
X023358Y003499D01*
X023073Y003499D01*
X022782Y003208D01*
X022782Y002796D01*
X023073Y002505D01*
X023484Y002505D01*
X023775Y002796D01*
X023775Y003081D01*
X023782Y003087D01*
X023782Y002796D01*
X024073Y002505D01*
X024484Y002505D01*
X024775Y002796D01*
X024775Y003081D01*
X024948Y003254D01*
X025031Y003337D01*
X025076Y003445D01*
X025076Y003505D01*
X025484Y003505D01*
X025775Y003796D01*
X025775Y004208D01*
X025574Y004409D01*
X025574Y004601D01*
X025696Y004723D01*
X025771Y004904D01*
X025771Y005100D01*
X025696Y005281D01*
X025557Y005419D01*
X025376Y005494D01*
X025181Y005494D01*
X025076Y005451D01*
X025076Y005559D01*
X025031Y005667D01*
X024948Y005750D01*
X024771Y005927D01*
X024846Y005852D02*
X025883Y005852D01*
X025883Y005697D02*
X025002Y005697D01*
X025076Y005541D02*
X025883Y005541D01*
X025883Y005385D02*
X025592Y005385D01*
X025717Y005229D02*
X025883Y005229D01*
X025916Y005073D02*
X025771Y005073D01*
X025771Y004917D02*
X026050Y004917D01*
X026206Y004761D02*
X025711Y004761D01*
X025577Y004605D02*
X026362Y004605D01*
X026484Y004499D02*
X026073Y004499D01*
X025782Y004208D01*
X025782Y003796D01*
X026073Y003505D01*
X026484Y003505D01*
X026775Y003796D01*
X026775Y004208D01*
X026484Y004499D01*
X026534Y004449D02*
X028023Y004449D01*
X028073Y004499D02*
X027782Y004208D01*
X027782Y003796D01*
X028073Y003505D01*
X028484Y003505D01*
X028775Y003796D01*
X028775Y004208D01*
X028484Y004499D01*
X028073Y004499D01*
X027867Y004293D02*
X026690Y004293D01*
X026775Y004137D02*
X027782Y004137D01*
X027782Y003981D02*
X026775Y003981D01*
X026775Y003825D02*
X027782Y003825D01*
X027909Y003669D02*
X026648Y003669D01*
X026492Y003513D02*
X028065Y003513D01*
X028073Y003499D02*
X027782Y003208D01*
X027782Y002796D01*
X028073Y002505D01*
X028484Y002505D01*
X028775Y002796D01*
X028775Y003208D01*
X028484Y003499D01*
X028073Y003499D01*
X027931Y003357D02*
X027626Y003357D01*
X027484Y003499D02*
X027073Y003499D01*
X026782Y003208D01*
X026782Y002796D01*
X027073Y002505D01*
X027484Y002505D01*
X027775Y002796D01*
X027775Y003208D01*
X027484Y003499D01*
X027775Y003201D02*
X027782Y003201D01*
X027775Y003045D02*
X027782Y003045D01*
X027775Y002889D02*
X027782Y002889D01*
X027845Y002733D02*
X027712Y002733D01*
X027556Y002577D02*
X028001Y002577D01*
X028556Y002577D02*
X030001Y002577D01*
X029845Y002733D02*
X028712Y002733D01*
X028775Y002889D02*
X029782Y002889D01*
X029782Y003045D02*
X028775Y003045D01*
X028775Y003201D02*
X029659Y003201D01*
X029516Y003357D02*
X028626Y003357D01*
X028492Y003513D02*
X029065Y003513D01*
X028909Y003669D02*
X028648Y003669D01*
X028775Y003825D02*
X028782Y003825D01*
X028775Y003981D02*
X028782Y003981D01*
X028775Y004137D02*
X028782Y004137D01*
X028867Y004293D02*
X028690Y004293D01*
X028534Y004449D02*
X029023Y004449D01*
X029635Y005073D02*
X034357Y005073D01*
X034357Y005229D02*
X026629Y005229D01*
X026023Y004449D02*
X025574Y004449D01*
X025690Y004293D02*
X025867Y004293D01*
X025782Y004137D02*
X025775Y004137D01*
X025775Y003981D02*
X025782Y003981D01*
X025775Y003825D02*
X025782Y003825D01*
X025909Y003669D02*
X025648Y003669D01*
X025492Y003513D02*
X026065Y003513D01*
X026073Y003499D02*
X025782Y003208D01*
X025782Y002796D01*
X026073Y002505D01*
X026484Y002505D01*
X026775Y002796D01*
X026775Y003208D01*
X026484Y003499D01*
X026073Y003499D01*
X025931Y003357D02*
X025039Y003357D01*
X024895Y003201D02*
X025782Y003201D01*
X025782Y003045D02*
X024775Y003045D01*
X024775Y002889D02*
X025782Y002889D01*
X025845Y002733D02*
X024712Y002733D01*
X024556Y002577D02*
X026001Y002577D01*
X026556Y002577D02*
X027001Y002577D01*
X026845Y002733D02*
X026712Y002733D01*
X026775Y002889D02*
X026782Y002889D01*
X026775Y003045D02*
X026782Y003045D01*
X026775Y003201D02*
X026782Y003201D01*
X026931Y003357D02*
X026626Y003357D01*
X024001Y002577D02*
X023556Y002577D01*
X023712Y002733D02*
X023845Y002733D01*
X023782Y002889D02*
X023775Y002889D01*
X023775Y003045D02*
X023782Y003045D01*
X023065Y003513D02*
X022492Y003513D01*
X022484Y003505D02*
X022775Y003796D01*
X022775Y004208D01*
X022574Y004409D01*
X022574Y004601D01*
X022696Y004723D01*
X022771Y004904D01*
X022771Y005100D01*
X022696Y005281D01*
X022557Y005419D01*
X022376Y005494D01*
X022181Y005494D01*
X022074Y005450D01*
X022074Y005561D01*
X022029Y005669D01*
X021946Y005752D01*
X021771Y005927D01*
X021771Y006100D01*
X021696Y006281D01*
X021557Y006419D01*
X021376Y006494D01*
X021181Y006494D01*
X021000Y006419D01*
X020861Y006281D01*
X020786Y006100D01*
X020786Y005912D01*
X020771Y005927D01*
X020771Y006100D01*
X020696Y006281D01*
X020557Y006419D01*
X020376Y006494D01*
X020181Y006494D01*
X020000Y006419D01*
X019861Y006281D01*
X019786Y006100D01*
X019786Y005912D01*
X019771Y005927D01*
X019771Y006100D01*
X019696Y006281D01*
X019557Y006419D01*
X019376Y006494D01*
X019181Y006494D01*
X019000Y006419D01*
X018861Y006281D01*
X018786Y006100D01*
X018786Y005904D01*
X018861Y005723D01*
X019000Y005585D01*
X019181Y005510D01*
X019353Y005510D01*
X019369Y005494D01*
X019181Y005494D01*
X019000Y005419D01*
X018861Y005281D01*
X018786Y005100D01*
X018786Y004904D01*
X018861Y004723D01*
X019000Y004585D01*
X019181Y004510D01*
X019376Y004510D01*
X019485Y004555D01*
X019485Y003626D01*
X019358Y003499D01*
X019073Y003499D01*
X018782Y003208D01*
X018782Y002796D01*
X019073Y002505D01*
X019484Y002505D01*
X019775Y002796D01*
X019775Y003081D01*
X019782Y003087D01*
X019782Y002796D01*
X020073Y002505D01*
X020484Y002505D01*
X020775Y002796D01*
X020775Y003081D01*
X020782Y003087D01*
X020782Y002796D01*
X021073Y002505D01*
X021484Y002505D01*
X021775Y002796D01*
X021775Y003081D01*
X021946Y003252D01*
X022029Y003335D01*
X022074Y003443D01*
X022074Y003505D01*
X022484Y003505D01*
X022648Y003669D02*
X022909Y003669D01*
X022782Y003825D02*
X022775Y003825D01*
X022775Y003981D02*
X022782Y003981D01*
X022775Y004137D02*
X022782Y004137D01*
X022867Y004293D02*
X022690Y004293D01*
X022574Y004449D02*
X023023Y004449D01*
X022980Y004605D02*
X022577Y004605D01*
X022711Y004761D02*
X022846Y004761D01*
X022786Y004917D02*
X022771Y004917D01*
X022771Y005073D02*
X022786Y005073D01*
X022840Y005229D02*
X022717Y005229D01*
X022592Y005385D02*
X022965Y005385D01*
X023106Y005541D02*
X022074Y005541D01*
X022002Y005697D02*
X022888Y005697D01*
X022808Y005852D02*
X021846Y005852D01*
X021771Y006008D02*
X022786Y006008D01*
X022813Y006164D02*
X021744Y006164D01*
X021656Y006320D02*
X022901Y006320D01*
X023138Y006476D02*
X021419Y006476D01*
X021138Y006476D02*
X020419Y006476D01*
X020138Y006476D02*
X019419Y006476D01*
X019138Y006476D02*
X018594Y006476D01*
X018656Y006320D02*
X018901Y006320D01*
X018813Y006164D02*
X018744Y006164D01*
X018771Y006008D02*
X018786Y006008D01*
X018808Y005852D02*
X018749Y005852D01*
X018669Y005697D02*
X018888Y005697D01*
X019106Y005541D02*
X018594Y005541D01*
X018594Y005385D02*
X018965Y005385D01*
X018840Y005229D02*
X018717Y005229D01*
X018771Y005073D02*
X018786Y005073D01*
X018771Y004917D02*
X018786Y004917D01*
X018846Y004761D02*
X018711Y004761D01*
X018577Y004605D02*
X018980Y004605D01*
X018690Y004293D02*
X019485Y004293D01*
X019485Y004449D02*
X018534Y004449D01*
X018484Y004499D02*
X018073Y004499D01*
X017782Y004208D01*
X017782Y003796D01*
X018073Y003505D01*
X018484Y003505D01*
X018775Y003796D01*
X018775Y004208D01*
X018484Y004499D01*
X018023Y004449D02*
X017574Y004449D01*
X017574Y004409D02*
X017574Y004601D01*
X017696Y004723D01*
X017771Y004904D01*
X017771Y005100D01*
X017696Y005281D01*
X017557Y005419D01*
X017376Y005494D01*
X017181Y005494D01*
X017074Y005450D01*
X017074Y005561D01*
X017029Y005669D01*
X016771Y005927D01*
X016771Y006100D01*
X016696Y006281D01*
X016557Y006419D01*
X016376Y006494D01*
X016181Y006494D01*
X016000Y006419D01*
X015861Y006281D01*
X015786Y006100D01*
X015786Y005904D01*
X015861Y005723D01*
X016000Y005585D01*
X016181Y005510D01*
X016353Y005510D01*
X016369Y005494D01*
X016181Y005494D01*
X016000Y005419D01*
X015861Y005281D01*
X015786Y005100D01*
X015786Y004904D01*
X015861Y004723D01*
X015983Y004601D01*
X015983Y004409D01*
X015782Y004208D01*
X015782Y003796D01*
X016073Y003505D01*
X016364Y003505D01*
X016358Y003499D01*
X016073Y003499D01*
X015782Y003208D01*
X015782Y002796D01*
X016073Y002505D01*
X016484Y002505D01*
X016775Y002796D01*
X016775Y003081D01*
X016946Y003252D01*
X017029Y003335D01*
X017074Y003443D01*
X017074Y003505D01*
X017484Y003505D01*
X017775Y003796D01*
X017775Y004208D01*
X017574Y004409D01*
X017690Y004293D02*
X017867Y004293D01*
X017782Y004137D02*
X017775Y004137D01*
X017775Y003981D02*
X017782Y003981D01*
X017775Y003825D02*
X017782Y003825D01*
X017909Y003669D02*
X017648Y003669D01*
X017492Y003513D02*
X018065Y003513D01*
X018073Y003499D02*
X017782Y003208D01*
X017782Y002796D01*
X018073Y002505D01*
X018484Y002505D01*
X018775Y002796D01*
X018775Y003208D01*
X018484Y003499D01*
X018073Y003499D01*
X017931Y003357D02*
X017038Y003357D01*
X016946Y003252D02*
X016946Y003252D01*
X016895Y003201D02*
X017782Y003201D01*
X017782Y003045D02*
X016775Y003045D01*
X016775Y002889D02*
X017782Y002889D01*
X017845Y002733D02*
X016712Y002733D01*
X016556Y002577D02*
X018001Y002577D01*
X018556Y002577D02*
X019001Y002577D01*
X018845Y002733D02*
X018712Y002733D01*
X018775Y002889D02*
X018782Y002889D01*
X018775Y003045D02*
X018782Y003045D01*
X018775Y003201D02*
X018782Y003201D01*
X018931Y003357D02*
X018626Y003357D01*
X018492Y003513D02*
X019372Y003513D01*
X019485Y003669D02*
X018648Y003669D01*
X018775Y003825D02*
X019485Y003825D01*
X019485Y003981D02*
X018775Y003981D01*
X018775Y004137D02*
X019485Y004137D01*
X019775Y003045D02*
X019782Y003045D01*
X019775Y002889D02*
X019782Y002889D01*
X019845Y002733D02*
X019712Y002733D01*
X019556Y002577D02*
X020001Y002577D01*
X020556Y002577D02*
X021001Y002577D01*
X020845Y002733D02*
X020712Y002733D01*
X020775Y002889D02*
X020782Y002889D01*
X020775Y003045D02*
X020782Y003045D01*
X021556Y002577D02*
X023001Y002577D01*
X022845Y002733D02*
X021712Y002733D01*
X021775Y002889D02*
X022782Y002889D01*
X022782Y003045D02*
X021775Y003045D01*
X021895Y003201D02*
X022782Y003201D01*
X022931Y003357D02*
X022038Y003357D01*
X020786Y006008D02*
X020771Y006008D01*
X020744Y006164D02*
X020813Y006164D01*
X020901Y006320D02*
X020656Y006320D01*
X019901Y006320D02*
X019656Y006320D01*
X019744Y006164D02*
X019813Y006164D01*
X019786Y006008D02*
X019771Y006008D01*
X017964Y005541D02*
X017074Y005541D01*
X017002Y005697D02*
X017888Y005697D01*
X017808Y005852D02*
X016846Y005852D01*
X016771Y006008D02*
X017786Y006008D01*
X017813Y006164D02*
X016744Y006164D01*
X016656Y006320D02*
X017901Y006320D01*
X017964Y006476D02*
X016419Y006476D01*
X016138Y006476D02*
X014419Y006476D01*
X014376Y006494D02*
X014557Y006419D01*
X014696Y006281D01*
X014771Y006100D01*
X014771Y005927D01*
X014948Y005750D01*
X014948Y005750D01*
X015031Y005667D01*
X015076Y005559D01*
X015076Y005451D01*
X015181Y005494D01*
X015376Y005494D01*
X015557Y005419D01*
X015696Y005281D01*
X015771Y005100D01*
X015771Y004904D01*
X015696Y004723D01*
X015574Y004601D01*
X015574Y004409D01*
X015775Y004208D01*
X015775Y003796D01*
X015484Y003505D01*
X015076Y003505D01*
X015076Y003445D01*
X015031Y003337D01*
X014775Y003081D01*
X014775Y002796D01*
X014484Y002505D01*
X014073Y002505D01*
X013782Y002796D01*
X013782Y003087D01*
X013775Y003081D01*
X013775Y002796D01*
X013484Y002505D01*
X013073Y002505D01*
X012782Y002796D01*
X012782Y003087D01*
X012775Y003081D01*
X012775Y002796D01*
X012484Y002505D01*
X012073Y002505D01*
X011782Y002796D01*
X011782Y003208D01*
X012073Y003499D01*
X012358Y003499D01*
X012487Y003628D01*
X012487Y004556D01*
X012376Y004510D01*
X012181Y004510D01*
X012000Y004585D01*
X011861Y004723D01*
X011786Y004904D01*
X011786Y005100D01*
X011861Y005281D01*
X012000Y005419D01*
X012181Y005494D01*
X012369Y005494D01*
X012353Y005510D01*
X012181Y005510D01*
X012000Y005585D01*
X011861Y005723D01*
X011786Y005904D01*
X011786Y006100D01*
X011861Y006281D01*
X012000Y006419D01*
X012181Y006494D01*
X012376Y006494D01*
X012557Y006419D01*
X012696Y006281D01*
X012771Y006100D01*
X012771Y005927D01*
X012786Y005912D01*
X012786Y006100D01*
X012861Y006281D01*
X013000Y006419D01*
X013181Y006494D01*
X013376Y006494D01*
X013557Y006419D01*
X013696Y006281D01*
X013771Y006100D01*
X013771Y005927D01*
X013786Y005912D01*
X013786Y006100D01*
X013861Y006281D01*
X014000Y006419D01*
X014181Y006494D01*
X014376Y006494D01*
X014456Y006632D02*
X009200Y006632D01*
X009200Y006476D02*
X012138Y006476D01*
X012419Y006476D02*
X013138Y006476D01*
X013419Y006476D02*
X014138Y006476D01*
X013901Y006320D02*
X013656Y006320D01*
X013744Y006164D02*
X013813Y006164D01*
X013786Y006008D02*
X013771Y006008D01*
X012901Y006320D02*
X012656Y006320D01*
X012744Y006164D02*
X012813Y006164D01*
X012786Y006008D02*
X012771Y006008D01*
X012106Y005541D02*
X009200Y005541D01*
X009200Y005697D02*
X011888Y005697D01*
X011808Y005852D02*
X009200Y005852D01*
X009200Y006008D02*
X011786Y006008D01*
X011813Y006164D02*
X009200Y006164D01*
X009200Y006320D02*
X011901Y006320D01*
X011965Y005385D02*
X009200Y005385D01*
X009200Y005229D02*
X011840Y005229D01*
X011786Y005073D02*
X009200Y005073D01*
X009200Y004917D02*
X011786Y004917D01*
X011846Y004761D02*
X009200Y004761D01*
X009200Y004605D02*
X011980Y004605D01*
X012487Y004449D02*
X009200Y004449D01*
X009200Y004293D02*
X012487Y004293D01*
X012487Y004137D02*
X009200Y004137D01*
X009200Y003981D02*
X012487Y003981D01*
X012487Y003825D02*
X009200Y003825D01*
X009200Y003669D02*
X012487Y003669D01*
X012372Y003513D02*
X009200Y003513D01*
X009200Y003357D02*
X011931Y003357D01*
X011782Y003201D02*
X009208Y003201D01*
X009247Y003045D02*
X011782Y003045D01*
X011782Y002889D02*
X009298Y002889D01*
X009402Y002733D02*
X011845Y002733D01*
X012001Y002577D02*
X009546Y002577D01*
X009802Y002421D02*
X033755Y002421D01*
X034011Y002577D02*
X031556Y002577D01*
X031484Y002505D02*
X031775Y002796D01*
X031775Y003208D01*
X031484Y003499D01*
X031073Y003499D01*
X030782Y003208D01*
X030782Y002796D01*
X031073Y002505D01*
X031484Y002505D01*
X031712Y002733D02*
X034155Y002733D01*
X034259Y002889D02*
X031775Y002889D01*
X031775Y003045D02*
X034310Y003045D01*
X034349Y003201D02*
X031775Y003201D01*
X031626Y003357D02*
X034357Y003357D01*
X034357Y003513D02*
X031492Y003513D01*
X031484Y003505D02*
X031775Y003796D01*
X031775Y004208D01*
X031484Y004499D01*
X031073Y004499D01*
X030782Y004208D01*
X030782Y003796D01*
X031073Y003505D01*
X031484Y003505D01*
X031648Y003669D02*
X034357Y003669D01*
X034357Y003825D02*
X031775Y003825D01*
X031775Y003981D02*
X034357Y003981D01*
X034357Y004137D02*
X031775Y004137D01*
X031690Y004293D02*
X034357Y004293D01*
X034357Y004449D02*
X031534Y004449D01*
X031023Y004449D02*
X030534Y004449D01*
X030690Y004293D02*
X030867Y004293D01*
X030782Y004137D02*
X030775Y004137D01*
X030775Y003981D02*
X030782Y003981D01*
X030775Y003825D02*
X030782Y003825D01*
X030909Y003669D02*
X030648Y003669D01*
X030492Y003513D02*
X031065Y003513D01*
X030931Y003357D02*
X030626Y003357D01*
X030775Y003201D02*
X030782Y003201D01*
X030775Y003045D02*
X030782Y003045D01*
X030775Y002889D02*
X030782Y002889D01*
X030845Y002733D02*
X030712Y002733D01*
X030556Y002577D02*
X031001Y002577D01*
X030067Y004605D02*
X034357Y004605D01*
X034357Y004761D02*
X029947Y004761D01*
X029791Y004917D02*
X034357Y004917D01*
X028743Y010220D02*
X010213Y010220D01*
X010316Y010064D02*
X013170Y010064D01*
X013061Y009908D02*
X010353Y009908D01*
X010343Y009752D02*
X013037Y009752D01*
X013081Y009596D02*
X010277Y009596D01*
X010095Y009440D02*
X013097Y009440D01*
X013097Y009284D02*
X009594Y009284D01*
X009594Y009128D02*
X013097Y009128D01*
X013097Y008972D02*
X009594Y008972D01*
X009594Y008816D02*
X013097Y008816D01*
X013097Y008660D02*
X009594Y008660D01*
X009594Y008504D02*
X013097Y008504D01*
X013097Y008348D02*
X009594Y008348D01*
X009594Y008192D02*
X013097Y008192D01*
X013097Y008036D02*
X009594Y008036D01*
X009594Y007880D02*
X013143Y007880D01*
X013297Y007724D02*
X009594Y007724D01*
X009594Y007568D02*
X013453Y007568D01*
X013609Y007412D02*
X009594Y007412D01*
X009501Y007256D02*
X013765Y007256D01*
X013921Y007100D02*
X009200Y007100D01*
X009200Y006944D02*
X014077Y006944D01*
X014233Y006788D02*
X009200Y006788D01*
X009200Y007256D02*
X009253Y007256D01*
X009594Y009440D02*
X009628Y009440D01*
X009594Y010376D02*
X028598Y010376D01*
X028534Y010532D02*
X011213Y010532D01*
X011316Y010688D02*
X028471Y010688D01*
X028471Y010844D02*
X011353Y010844D01*
X011343Y011000D02*
X028471Y011000D01*
X028522Y011156D02*
X011277Y011156D01*
X010628Y011312D02*
X010095Y011312D01*
X010149Y011468D02*
X010573Y011468D01*
X010433Y011624D02*
X010289Y011624D01*
X010353Y011780D02*
X010369Y011780D01*
X010353Y011936D02*
X010369Y011936D01*
X010418Y012092D02*
X010305Y012092D01*
X009594Y012716D02*
X013166Y012716D01*
X013322Y012872D02*
X009594Y012872D01*
X009594Y013028D02*
X013478Y013028D01*
X013634Y013184D02*
X009594Y013184D01*
X009594Y013340D02*
X013790Y013340D01*
X013946Y013496D02*
X009594Y013496D01*
X009594Y013652D02*
X014102Y013652D01*
X014258Y013807D02*
X009594Y013807D01*
X009594Y013963D02*
X014414Y013963D01*
X014570Y014119D02*
X009594Y014119D01*
X009594Y014275D02*
X014726Y014275D01*
X010490Y017551D02*
X010232Y017551D01*
X010324Y017707D02*
X010399Y017707D01*
X010369Y017863D02*
X010353Y017863D01*
X010335Y018019D02*
X010388Y018019D01*
X010425Y018643D02*
X010297Y018643D01*
X010353Y018799D02*
X010369Y018799D01*
X010353Y018955D02*
X010369Y018955D01*
X010426Y019111D02*
X010297Y019111D01*
X010166Y019267D02*
X010556Y019267D01*
X011166Y019267D02*
X012139Y019267D01*
X012295Y019423D02*
X009200Y019423D01*
X009200Y019579D02*
X012451Y019579D01*
X012607Y019735D02*
X009200Y019735D01*
X009200Y019891D02*
X012763Y019891D01*
X012919Y020047D02*
X009200Y020047D01*
X009200Y020203D02*
X013075Y020203D01*
X013231Y020359D02*
X009200Y020359D01*
X009200Y020515D02*
X013387Y020515D01*
X013543Y020671D02*
X009200Y020671D01*
X009200Y020827D02*
X013699Y020827D01*
X013855Y020983D02*
X009200Y020983D01*
X009200Y021139D02*
X014011Y021139D01*
X014167Y021295D02*
X009200Y021295D01*
X009200Y021451D02*
X014323Y021451D01*
X014377Y021505D02*
X014377Y021505D01*
X014479Y021607D02*
X009200Y021607D01*
X009200Y021763D02*
X034357Y021763D01*
X034357Y021918D02*
X009200Y021918D01*
X009200Y022074D02*
X034357Y022074D01*
X034357Y022230D02*
X009200Y022230D01*
X009200Y022386D02*
X034357Y022386D01*
X034357Y022542D02*
X009200Y022542D01*
X009200Y022698D02*
X034357Y022698D01*
X034357Y022854D02*
X009200Y022854D01*
X009201Y023010D02*
X034356Y023010D01*
X034337Y023166D02*
X009220Y023166D01*
X009271Y023322D02*
X034286Y023322D01*
X034216Y023478D02*
X009341Y023478D01*
X009455Y023634D02*
X034102Y023634D01*
X033912Y023790D02*
X009645Y023790D01*
X010057Y023946D02*
X033500Y023946D01*
X034357Y021295D02*
X032287Y021295D01*
X031595Y021295D02*
X027218Y021295D01*
X027077Y020515D02*
X031811Y020515D01*
X025617Y006476D02*
X024419Y006476D01*
X024138Y006476D02*
X023419Y006476D01*
X023656Y006320D02*
X023901Y006320D01*
X023813Y006164D02*
X023744Y006164D01*
X023771Y006008D02*
X023786Y006008D01*
X024656Y006320D02*
X025773Y006320D01*
X025883Y006164D02*
X024744Y006164D01*
X017964Y005385D02*
X017592Y005385D01*
X017717Y005229D02*
X017840Y005229D01*
X017786Y005073D02*
X017771Y005073D01*
X017771Y004917D02*
X017786Y004917D01*
X017846Y004761D02*
X017711Y004761D01*
X017577Y004605D02*
X017980Y004605D01*
X015980Y004605D02*
X015577Y004605D01*
X015574Y004449D02*
X015983Y004449D01*
X015867Y004293D02*
X015690Y004293D01*
X015775Y004137D02*
X015782Y004137D01*
X015775Y003981D02*
X015782Y003981D01*
X015775Y003825D02*
X015782Y003825D01*
X015909Y003669D02*
X015648Y003669D01*
X015492Y003513D02*
X016065Y003513D01*
X015931Y003357D02*
X015039Y003357D01*
X014895Y003201D02*
X015782Y003201D01*
X015782Y003045D02*
X014775Y003045D01*
X014775Y002889D02*
X015782Y002889D01*
X015845Y002733D02*
X014712Y002733D01*
X014556Y002577D02*
X016001Y002577D01*
X014001Y002577D02*
X013556Y002577D01*
X013712Y002733D02*
X013845Y002733D01*
X013782Y002889D02*
X013775Y002889D01*
X013775Y003045D02*
X013782Y003045D01*
X013001Y002577D02*
X012556Y002577D01*
X012712Y002733D02*
X012845Y002733D01*
X012782Y002889D02*
X012775Y002889D01*
X012775Y003045D02*
X012782Y003045D01*
X015711Y004761D02*
X015846Y004761D01*
X015786Y004917D02*
X015771Y004917D01*
X015771Y005073D02*
X015786Y005073D01*
X015840Y005229D02*
X015717Y005229D01*
X015592Y005385D02*
X015965Y005385D01*
X016106Y005541D02*
X015076Y005541D01*
X015002Y005697D02*
X015888Y005697D01*
X015808Y005852D02*
X014846Y005852D01*
X014771Y006008D02*
X015786Y006008D01*
X015813Y006164D02*
X014744Y006164D01*
X014656Y006320D02*
X015901Y006320D01*
X010509Y010532D02*
X010213Y010532D01*
X010316Y010688D02*
X010406Y010688D01*
X010369Y010844D02*
X010353Y010844D01*
X010343Y011000D02*
X010380Y011000D01*
X010445Y011156D02*
X010277Y011156D01*
X009628Y011312D02*
X009594Y011312D01*
X009594Y014431D02*
X009648Y014431D01*
X009594Y015367D02*
X009762Y015367D01*
X009607Y016303D02*
X009594Y016303D01*
X009425Y018643D02*
X009200Y018643D01*
X009200Y018799D02*
X009369Y018799D01*
X009369Y018955D02*
X009200Y018955D01*
X009200Y019111D02*
X009426Y019111D01*
X009556Y019267D02*
X009200Y019267D01*
X011297Y019111D02*
X011983Y019111D01*
X011827Y018955D02*
X011353Y018955D01*
X011353Y018799D02*
X011671Y018799D01*
X011515Y018643D02*
X011297Y018643D01*
D19*
X015781Y006504D02*
X015279Y006002D01*
X014781Y005500D02*
X014781Y003504D01*
X014279Y003002D01*
X013777Y003500D02*
X013777Y005504D01*
X013279Y006002D01*
X012782Y005498D02*
X012782Y003506D01*
X012279Y003002D01*
X013279Y003002D02*
X013777Y003500D01*
X013279Y004002D02*
X013279Y005002D01*
X012782Y005498D02*
X012279Y006002D01*
X014279Y006002D02*
X014781Y005500D01*
X015279Y005002D02*
X015279Y004002D01*
X016279Y004002D02*
X016279Y005002D01*
X016779Y005502D02*
X016279Y006002D01*
X016777Y006504D02*
X015781Y006504D01*
X016777Y006504D02*
X017279Y006002D01*
X017782Y005498D01*
X017782Y003506D01*
X017279Y003002D01*
X016779Y003502D02*
X016779Y005502D01*
X017279Y005002D02*
X017279Y004002D01*
X016779Y003502D02*
X016279Y003002D01*
X014279Y004002D02*
X014279Y005002D01*
X019279Y006002D02*
X019781Y005500D01*
X019781Y003504D01*
X019279Y003002D01*
X020279Y003002D02*
X020775Y003498D01*
X020775Y005506D01*
X020279Y006002D01*
X021279Y006002D02*
X021779Y005502D01*
X021779Y003502D01*
X021279Y003002D01*
X022279Y003002D02*
X022782Y003506D01*
X022782Y005498D01*
X022279Y006002D01*
X022781Y006504D01*
X024777Y006504D01*
X025279Y006002D01*
X025779Y005502D01*
X025779Y003502D01*
X028779Y003502D01*
X029279Y003002D01*
X029776Y003502D02*
X029776Y004486D01*
X029776Y003502D02*
X030276Y003002D01*
X030279Y003002D01*
X025779Y003502D02*
X025279Y003002D01*
X024781Y003504D02*
X024781Y005500D01*
X024279Y006002D01*
X023777Y005504D02*
X023777Y003500D01*
X023279Y003002D01*
X024279Y003002D02*
X024781Y003504D01*
X025279Y004002D02*
X025279Y005002D01*
X024279Y005002D02*
X024279Y004002D01*
X023777Y005504D02*
X023279Y006002D01*
X022279Y005002D02*
X022279Y004002D01*
X021279Y004002D02*
X021279Y005002D01*
X020279Y005002D02*
X020279Y004002D01*
D20*
X026872Y020972D03*
X031941Y020972D03*
M02*
