G75*
%MOIN*%
%OFA0B0*%
%FSLAX24Y24*%
%IPPOS*%
%LPD*%
%AMOC8*
5,1,8,0,0,1.08239X$1,22.5*
%
%ADD10C,0.0039*%
%ADD11R,0.0638X0.0236*%
%ADD12R,0.0394X0.0433*%
%ADD13OC8,0.0480*%
%ADD14R,0.0630X0.1063*%
%ADD15R,0.0630X0.0709*%
%ADD16R,0.0433X0.0394*%
%ADD17R,0.1575X0.0709*%
%ADD18R,0.0787X0.0787*%
%ADD19R,0.1969X0.1378*%
%ADD20R,0.0787X0.1378*%
%ADD21R,0.1181X0.0472*%
%ADD22R,0.2083X0.1181*%
%ADD23R,0.1374X0.1181*%
%ADD24R,0.1181X0.2083*%
%ADD25R,0.0472X0.1181*%
%ADD26R,0.0591X0.0472*%
%ADD27R,0.1063X0.0630*%
%ADD28C,0.1378*%
%ADD29C,0.2441*%
%ADD30OC8,0.0600*%
%ADD31C,0.0591*%
%ADD32R,0.0394X0.0217*%
%ADD33C,0.0787*%
%ADD34C,0.0236*%
%ADD35C,0.0157*%
%ADD36C,0.0356*%
%ADD37C,0.0197*%
%ADD38C,0.0512*%
%ADD39C,0.0551*%
D10*
X008983Y003305D02*
X008983Y022990D01*
X008985Y023056D01*
X008990Y023122D01*
X009000Y023188D01*
X009013Y023253D01*
X009029Y023317D01*
X009049Y023380D01*
X009073Y023442D01*
X009100Y023502D01*
X009130Y023561D01*
X009164Y023618D01*
X009201Y023673D01*
X009241Y023726D01*
X009283Y023777D01*
X009329Y023825D01*
X009377Y023871D01*
X009428Y023913D01*
X009481Y023953D01*
X009536Y023990D01*
X009593Y024024D01*
X009652Y024054D01*
X009712Y024081D01*
X009774Y024105D01*
X009837Y024125D01*
X009901Y024141D01*
X009966Y024154D01*
X010032Y024164D01*
X010098Y024169D01*
X010164Y024171D01*
X033393Y024171D01*
X033459Y024169D01*
X033525Y024164D01*
X033591Y024154D01*
X033656Y024141D01*
X033720Y024125D01*
X033783Y024105D01*
X033845Y024081D01*
X033905Y024054D01*
X033964Y024024D01*
X034021Y023990D01*
X034076Y023953D01*
X034129Y023913D01*
X034180Y023871D01*
X034228Y023825D01*
X034274Y023777D01*
X034316Y023726D01*
X034356Y023673D01*
X034393Y023618D01*
X034427Y023561D01*
X034457Y023502D01*
X034484Y023442D01*
X034508Y023380D01*
X034528Y023317D01*
X034544Y023253D01*
X034557Y023188D01*
X034567Y023122D01*
X034572Y023056D01*
X034574Y022990D01*
X034574Y003305D01*
X034572Y003239D01*
X034567Y003173D01*
X034557Y003107D01*
X034544Y003042D01*
X034528Y002978D01*
X034508Y002915D01*
X034484Y002853D01*
X034457Y002793D01*
X034427Y002734D01*
X034393Y002677D01*
X034356Y002622D01*
X034316Y002569D01*
X034274Y002518D01*
X034228Y002470D01*
X034180Y002424D01*
X034129Y002382D01*
X034076Y002342D01*
X034021Y002305D01*
X033964Y002271D01*
X033905Y002241D01*
X033845Y002214D01*
X033783Y002190D01*
X033720Y002170D01*
X033656Y002154D01*
X033591Y002141D01*
X033525Y002131D01*
X033459Y002126D01*
X033393Y002124D01*
X010164Y002124D01*
X010098Y002126D01*
X010032Y002131D01*
X009966Y002141D01*
X009901Y002154D01*
X009837Y002170D01*
X009774Y002190D01*
X009712Y002214D01*
X009652Y002241D01*
X009593Y002271D01*
X009536Y002305D01*
X009481Y002342D01*
X009428Y002382D01*
X009377Y002424D01*
X009329Y002470D01*
X009283Y002518D01*
X009241Y002569D01*
X009201Y002622D01*
X009164Y002677D01*
X009130Y002734D01*
X009100Y002793D01*
X009073Y002853D01*
X009049Y002915D01*
X009029Y002978D01*
X009013Y003042D01*
X009000Y003107D01*
X008990Y003173D01*
X008985Y003239D01*
X008983Y003305D01*
D11*
X029851Y016101D03*
X029851Y016601D03*
X029851Y017101D03*
X029851Y017601D03*
X031773Y017601D03*
X031773Y017101D03*
X031773Y016601D03*
X031773Y016101D03*
D12*
X031877Y014132D03*
X032546Y014132D03*
X032546Y008620D03*
X031877Y008620D03*
X031877Y007636D03*
X032546Y007636D03*
X030971Y007636D03*
X030302Y007636D03*
X029397Y007636D03*
X028727Y007636D03*
X027822Y007636D03*
X027153Y007636D03*
X027153Y005667D03*
X027822Y005667D03*
X030696Y005274D03*
X031365Y005274D03*
X030760Y005972D03*
X030760Y006642D03*
X031877Y019840D03*
X032546Y019840D03*
D13*
X030873Y020101D03*
X026873Y020101D03*
D14*
X029761Y018851D03*
X030863Y018851D03*
X030863Y014351D03*
X029761Y014351D03*
D15*
X027363Y015601D03*
X026261Y015601D03*
D16*
X031877Y015116D03*
X032546Y015116D03*
X032546Y018856D03*
X031877Y018856D03*
X020794Y018207D03*
X020794Y017537D03*
X013432Y017459D03*
X013432Y018128D03*
X013432Y018837D03*
X013432Y019506D03*
X013314Y013433D03*
X013314Y012764D03*
X013314Y011981D03*
X013314Y011312D03*
X020794Y011514D03*
X020794Y010844D03*
X028727Y008620D03*
X029397Y008620D03*
D17*
X028062Y016867D03*
X028062Y018836D03*
X025562Y018836D03*
X025562Y016867D03*
D18*
X026103Y014351D03*
X027521Y014351D03*
D19*
X023156Y012951D03*
X023156Y011179D03*
D20*
X024928Y011179D03*
X024928Y012951D03*
D21*
X019189Y013071D03*
X019189Y012169D03*
X019189Y011268D03*
X014874Y011268D03*
X014874Y013071D03*
X014874Y018102D03*
X014874Y019905D03*
X019189Y019905D03*
X019189Y019004D03*
X019189Y018102D03*
D22*
X018738Y015945D03*
X018738Y009110D03*
D23*
X016581Y009110D03*
X016581Y015945D03*
D24*
X014874Y016396D03*
X014874Y009561D03*
D25*
X016130Y013425D03*
X017031Y013425D03*
X017933Y013425D03*
X017933Y020260D03*
X017031Y020260D03*
X016130Y020260D03*
D26*
X014579Y019004D03*
X014579Y012169D03*
D27*
X013338Y014906D03*
X013338Y016009D03*
X020771Y015804D03*
X020771Y014702D03*
X020716Y008914D03*
X020716Y007812D03*
X013393Y007820D03*
X013393Y008922D03*
D28*
X029357Y010858D03*
X029357Y012417D03*
D29*
X033196Y003502D03*
X010361Y003502D03*
X010361Y022793D03*
X033196Y022793D03*
D30*
X031279Y004002D03*
X030279Y004002D03*
X029279Y004002D03*
X028279Y004002D03*
X027279Y004002D03*
X026279Y004002D03*
X025279Y004002D03*
X024279Y004002D03*
X023279Y004002D03*
X022279Y004002D03*
X021279Y004002D03*
X020279Y004002D03*
X019279Y004002D03*
X018279Y004002D03*
X017279Y004002D03*
X016279Y004002D03*
X015279Y004002D03*
X014279Y004002D03*
X013279Y004002D03*
X012279Y004002D03*
X012279Y003002D03*
X013279Y003002D03*
X014279Y003002D03*
X015279Y003002D03*
X016279Y003002D03*
X017279Y003002D03*
X018279Y003002D03*
X019279Y003002D03*
X020279Y003002D03*
X021279Y003002D03*
X022279Y003002D03*
X023279Y003002D03*
X024279Y003002D03*
X025279Y003002D03*
X026279Y003002D03*
X027279Y003002D03*
X028279Y003002D03*
X029279Y003002D03*
X030279Y003002D03*
X031279Y003002D03*
D31*
X025279Y005002D03*
X024279Y005002D03*
X024279Y006002D03*
X025279Y006002D03*
X023279Y006002D03*
X023279Y005002D03*
X022279Y005002D03*
X021279Y005002D03*
X021279Y006002D03*
X022279Y006002D03*
X020279Y006002D03*
X020279Y005002D03*
X019279Y005002D03*
X018279Y005002D03*
X018279Y006002D03*
X019279Y006002D03*
X017279Y006002D03*
X017279Y005002D03*
X016279Y005002D03*
X015279Y005002D03*
X015279Y006002D03*
X016279Y006002D03*
X014279Y006002D03*
X013279Y006002D03*
X013279Y005002D03*
X014279Y005002D03*
X012279Y005002D03*
X012279Y006002D03*
X010861Y007876D03*
X009861Y007876D03*
X009861Y008876D03*
X010861Y008876D03*
X010861Y009876D03*
X009861Y009876D03*
X009861Y010876D03*
X010861Y010876D03*
X010861Y011876D03*
X009861Y011876D03*
X009861Y012876D03*
X010861Y012876D03*
X010861Y013876D03*
X009861Y013876D03*
X009861Y014876D03*
X010861Y014876D03*
X010861Y015876D03*
X009861Y015876D03*
X009861Y016876D03*
X010861Y016876D03*
X010861Y017876D03*
X009861Y017876D03*
X009861Y018876D03*
X010861Y018876D03*
X010861Y019876D03*
X009861Y019876D03*
X009861Y020876D03*
X010861Y020876D03*
D32*
X028727Y006730D03*
X028727Y006356D03*
X028727Y005982D03*
X029790Y005982D03*
X029790Y006356D03*
X029790Y006730D03*
D33*
X029357Y010858D02*
X027808Y010858D01*
X027521Y011146D01*
X027521Y014351D01*
X029761Y014351D01*
X030863Y014351D02*
X030863Y012980D01*
X030300Y012417D01*
X029357Y012417D01*
X027521Y011146D02*
X027487Y011179D01*
X024928Y011179D01*
X023156Y011179D02*
X023156Y009801D01*
X022270Y008914D01*
X020716Y008914D01*
X018934Y008914D01*
X018738Y009110D01*
X020708Y007820D02*
X020716Y007812D01*
X020708Y007820D02*
X016660Y007820D01*
X016581Y007900D01*
X016581Y009110D01*
X014889Y009211D02*
X014889Y009284D01*
X014889Y009546D01*
X014874Y009561D01*
X014889Y009211D02*
X014600Y008922D01*
X013393Y008922D01*
X012421Y008922D01*
X012133Y009211D01*
X012133Y010589D01*
X011845Y010876D01*
X010861Y010876D01*
X010861Y011876D01*
X009861Y011876D01*
X009861Y012876D02*
X010861Y012876D01*
X010861Y013876D01*
X009861Y013876D01*
X010861Y013876D02*
X010861Y014876D01*
X012286Y014876D01*
X012330Y014919D01*
X012343Y014906D01*
X013338Y014906D01*
X013720Y014906D01*
X013905Y014722D01*
X016660Y014722D01*
X016581Y014802D01*
X016581Y015945D01*
X014980Y016289D02*
X014874Y016396D01*
X014889Y016381D01*
X014889Y016100D01*
X014797Y016009D01*
X013338Y016009D01*
X012041Y016009D01*
X011908Y015876D01*
X010861Y015876D01*
X010861Y016876D01*
X009861Y016876D01*
X009861Y017876D02*
X010861Y017876D01*
X010861Y018876D01*
X011562Y018876D01*
X012330Y019644D01*
X012330Y020013D01*
X014274Y021957D01*
X022763Y021957D01*
X022763Y016691D01*
X024928Y014526D01*
X024928Y012951D01*
X023156Y012951D02*
X023156Y011179D01*
X023156Y012951D02*
X023156Y014722D01*
X022075Y015804D01*
X020771Y015804D01*
X018879Y015804D01*
X018738Y015945D01*
X020750Y014722D02*
X020771Y014702D01*
X020750Y014722D02*
X016660Y014722D01*
X010861Y015876D02*
X009861Y015876D01*
X009861Y014876D01*
X009861Y018876D02*
X010861Y018876D01*
X010861Y019876D02*
X009861Y019876D01*
X010861Y019876D02*
X010861Y020876D01*
X011594Y020876D01*
X013781Y023064D01*
X029530Y023064D01*
X030865Y021728D01*
X030873Y020101D01*
X030863Y019902D01*
X030863Y018851D01*
X030863Y017158D01*
X030863Y014944D01*
X030863Y014351D01*
X029745Y018836D02*
X028062Y018836D01*
X029745Y018836D02*
X029761Y018851D01*
X029761Y020987D01*
X028791Y021957D01*
X022763Y021957D01*
X025562Y019465D02*
X026198Y020101D01*
X026873Y020101D01*
X025562Y019465D02*
X025562Y018836D01*
X010861Y020876D02*
X009861Y020876D01*
X009861Y010876D02*
X009861Y009876D01*
X010861Y009876D02*
X010861Y008876D01*
X010861Y007876D01*
X011696Y007876D01*
X011752Y007820D01*
X013393Y007820D01*
X016660Y007820D01*
X010861Y007876D02*
X009861Y007876D01*
X009861Y008876D02*
X010861Y008876D01*
X010861Y010876D02*
X009861Y010876D01*
D34*
X013289Y010761D02*
X013314Y010785D01*
X013314Y011312D01*
X013314Y011981D02*
X013314Y012764D01*
X013314Y013433D02*
X013816Y013433D01*
X014178Y013071D01*
X014874Y013071D01*
X017031Y013425D02*
X017031Y011550D01*
X016581Y011099D01*
X016581Y009110D01*
X014889Y009284D02*
X014874Y009299D01*
X014874Y011268D01*
X013412Y009777D02*
X013412Y008942D01*
X013393Y008922D01*
X019189Y011268D02*
X020095Y011268D01*
X020342Y011514D01*
X020794Y011514D01*
X020794Y010844D02*
X020794Y008993D01*
X020716Y008914D01*
X027153Y008753D02*
X027153Y007636D01*
X027822Y007636D02*
X028727Y007636D01*
X028727Y006730D01*
X028727Y006356D02*
X029062Y006356D01*
X029436Y006730D01*
X029790Y006730D01*
X030263Y006730D01*
X030302Y006770D01*
X030302Y007636D01*
X029397Y007636D01*
X029397Y008620D01*
X029918Y008620D01*
X028727Y008620D02*
X028727Y007636D01*
X029790Y006356D02*
X030046Y006356D01*
X030430Y005972D01*
X030760Y005972D01*
X031218Y005972D01*
X031365Y005825D01*
X031365Y005667D01*
X031818Y005667D01*
X031365Y005667D02*
X031365Y005274D01*
X031365Y004722D01*
X031279Y004636D01*
X031279Y004002D01*
X030279Y004002D02*
X030279Y004598D01*
X030696Y005016D01*
X030696Y005274D01*
X030279Y004598D02*
X029790Y005087D01*
X029790Y005982D01*
X030351Y006642D02*
X030263Y006730D01*
X030351Y006642D02*
X030760Y006642D01*
X030971Y007636D02*
X031877Y007636D01*
X032546Y007636D02*
X032546Y008620D01*
X032546Y011809D01*
X033220Y012483D01*
X033220Y016051D01*
X032670Y016601D01*
X031773Y016601D01*
X031773Y016101D02*
X031773Y015653D01*
X031877Y015549D01*
X031877Y015116D01*
X032546Y015116D02*
X032546Y014132D01*
X031877Y014132D02*
X031083Y014132D01*
X030863Y014351D01*
X030863Y014944D02*
X030870Y014951D01*
X029851Y016101D02*
X029233Y016101D01*
X028545Y016789D01*
X028140Y016789D01*
X028062Y016867D01*
X029851Y017101D02*
X029851Y016601D01*
X030579Y016601D01*
X030637Y016543D01*
X030806Y017101D02*
X029851Y017101D01*
X029851Y017601D02*
X029851Y017944D01*
X029761Y018034D01*
X029761Y018851D01*
X030863Y018851D02*
X030868Y018856D01*
X031877Y018856D01*
X032546Y018856D02*
X032546Y019840D01*
X031877Y019840D02*
X031877Y020908D01*
X031941Y020972D01*
X032546Y018856D02*
X032546Y017299D01*
X032348Y017101D01*
X031773Y017101D01*
X030863Y017158D02*
X030806Y017101D01*
X026873Y020101D02*
X026881Y020865D01*
X026872Y020972D01*
X020794Y018207D02*
X020243Y018207D01*
X020139Y018102D01*
X019189Y018102D01*
X020794Y017537D02*
X020794Y015828D01*
X020771Y015804D01*
X017030Y015977D02*
X016613Y015977D01*
X016581Y015945D01*
X016581Y017620D01*
X017031Y018071D01*
X017031Y020260D01*
X017031Y020039D01*
X017030Y020037D01*
X014874Y019905D02*
X013576Y019905D01*
X013432Y019762D01*
X013432Y019506D01*
X013432Y018837D02*
X013432Y018128D01*
X013432Y017459D02*
X013432Y016932D01*
X013412Y016912D01*
X014874Y016396D02*
X014874Y018102D01*
X027153Y008753D02*
X028053Y009653D01*
X029406Y009653D01*
X029357Y009703D01*
X029357Y010858D01*
X029406Y009653D02*
X031375Y009653D01*
X031877Y009152D01*
X031877Y008620D01*
X028727Y005982D02*
X028393Y005982D01*
X028078Y005667D01*
X027822Y005667D01*
X028727Y005982D02*
X028727Y005165D01*
X029279Y004614D01*
X029279Y004002D01*
X030279Y003002D02*
X031279Y003002D01*
D35*
X031775Y003045D02*
X034310Y003045D01*
X034345Y003154D02*
X034252Y002867D01*
X034075Y002623D01*
X033831Y002446D01*
X033544Y002352D01*
X033393Y002340D01*
X010164Y002340D01*
X010013Y002352D01*
X009726Y002446D01*
X009482Y002623D01*
X009305Y002867D01*
X009212Y003154D01*
X009200Y003305D01*
X009200Y007310D01*
X009287Y007222D01*
X009467Y007222D01*
X009594Y007349D01*
X009594Y009348D01*
X009744Y009285D01*
X009979Y009285D01*
X010196Y009375D01*
X010362Y009541D01*
X010452Y009758D01*
X010452Y010285D01*
X011542Y010285D01*
X011542Y009093D01*
X011632Y008876D01*
X011921Y008588D01*
X012087Y008422D01*
X012304Y008332D01*
X014193Y008332D01*
X014202Y008323D01*
X015546Y008323D01*
X015661Y008438D01*
X015661Y008841D01*
X017500Y008841D01*
X017500Y008438D01*
X017615Y008323D01*
X019861Y008323D01*
X019862Y008324D01*
X022387Y008324D01*
X022604Y008414D01*
X022770Y008580D01*
X023657Y009467D01*
X023747Y009684D01*
X023747Y010293D01*
X024222Y010293D01*
X024338Y010409D01*
X024453Y010293D01*
X025403Y010293D01*
X025519Y010409D01*
X025519Y010589D01*
X027243Y010589D01*
X027474Y010358D01*
X027691Y010268D01*
X028695Y010268D01*
X028856Y010107D01*
X029042Y010030D01*
X029042Y009968D01*
X027990Y009968D01*
X027875Y009920D01*
X027786Y009832D01*
X026886Y008931D01*
X026838Y008816D01*
X023007Y008816D01*
X023163Y008972D02*
X026926Y008972D01*
X026838Y008816D02*
X026838Y008013D01*
X026759Y007934D01*
X026759Y007338D01*
X026874Y007222D01*
X027431Y007222D01*
X027487Y007279D01*
X027543Y007222D01*
X028100Y007222D01*
X028199Y007321D01*
X028351Y007321D01*
X028412Y007259D01*
X028412Y006999D01*
X028334Y006920D01*
X028334Y006540D01*
X028449Y006425D01*
X028641Y006425D01*
X028665Y006415D01*
X028790Y006415D01*
X028814Y006425D01*
X029006Y006425D01*
X029121Y006540D01*
X029121Y006920D01*
X029042Y006999D01*
X029042Y007259D01*
X029121Y007338D01*
X029121Y007934D01*
X029042Y008013D01*
X029042Y008243D01*
X029141Y008342D01*
X029141Y008898D01*
X029025Y009014D01*
X028429Y009014D01*
X028314Y008898D01*
X028314Y008342D01*
X028412Y008243D01*
X028412Y008013D01*
X028351Y007951D01*
X028199Y007951D01*
X028100Y008049D01*
X027543Y008049D01*
X027487Y007993D01*
X027468Y008013D01*
X027468Y008622D01*
X028184Y009339D01*
X031245Y009339D01*
X031562Y009021D01*
X031562Y008997D01*
X031483Y008918D01*
X031483Y008322D01*
X031599Y008207D01*
X032155Y008207D01*
X032212Y008263D01*
X032231Y008243D01*
X032231Y008013D01*
X032212Y007993D01*
X032155Y008049D01*
X031599Y008049D01*
X031500Y007951D01*
X031348Y007951D01*
X031250Y008049D01*
X030693Y008049D01*
X030578Y007934D01*
X030578Y007338D01*
X030693Y007222D01*
X031250Y007222D01*
X031348Y007321D01*
X031500Y007321D01*
X031599Y007222D01*
X032155Y007222D01*
X032212Y007279D01*
X032268Y007222D01*
X032825Y007222D01*
X032940Y007338D01*
X032940Y007934D01*
X032861Y008013D01*
X032861Y008243D01*
X032940Y008322D01*
X032940Y008918D01*
X032861Y008997D01*
X032861Y011679D01*
X033487Y012305D01*
X033535Y012421D01*
X033535Y016114D01*
X033487Y016230D01*
X033399Y016318D01*
X032849Y016868D01*
X032733Y016916D01*
X032609Y016916D01*
X032615Y016923D01*
X032725Y017032D01*
X032813Y017121D01*
X032861Y017236D01*
X032861Y018479D01*
X032960Y018578D01*
X032960Y019135D01*
X032861Y019233D01*
X032861Y019464D01*
X032940Y019542D01*
X032940Y020139D01*
X032825Y020254D01*
X032268Y020254D01*
X032212Y020198D01*
X032192Y020217D01*
X032192Y020565D01*
X032209Y020572D01*
X032341Y020705D01*
X032413Y020878D01*
X032413Y021066D01*
X032341Y021240D01*
X032209Y021373D01*
X032035Y021445D01*
X031847Y021445D01*
X031673Y021373D01*
X031540Y021240D01*
X031469Y021066D01*
X031469Y020878D01*
X031540Y020705D01*
X031562Y020683D01*
X031562Y020217D01*
X031483Y020139D01*
X031483Y019542D01*
X031599Y019427D01*
X032155Y019427D01*
X032212Y019483D01*
X032231Y019464D01*
X032231Y019233D01*
X032133Y019135D01*
X032133Y018578D01*
X032231Y018479D01*
X032231Y017858D01*
X032173Y017916D01*
X031372Y017916D01*
X031257Y017801D01*
X031257Y017402D01*
X031307Y017351D01*
X031257Y017301D01*
X031257Y016902D01*
X031307Y016851D01*
X031257Y016801D01*
X031257Y016402D01*
X031307Y016351D01*
X031257Y016301D01*
X031257Y015902D01*
X031372Y015786D01*
X031458Y015786D01*
X031458Y015591D01*
X031506Y015475D01*
X031525Y015456D01*
X031464Y015394D01*
X031464Y014838D01*
X031579Y014722D01*
X032175Y014722D01*
X032212Y014759D01*
X032231Y014739D01*
X032231Y014509D01*
X032153Y014430D01*
X032153Y013834D01*
X032268Y013718D01*
X032825Y013718D01*
X032906Y013799D01*
X032906Y012614D01*
X032368Y012076D01*
X032279Y011987D01*
X032231Y011872D01*
X032231Y008997D01*
X032212Y008977D01*
X032192Y008997D01*
X032192Y009214D01*
X032144Y009330D01*
X032055Y009419D01*
X031553Y009920D01*
X031438Y009968D01*
X029672Y009968D01*
X029672Y010030D01*
X029859Y010107D01*
X030108Y010356D01*
X030243Y010682D01*
X030243Y011034D01*
X030108Y011360D01*
X029859Y011609D01*
X029533Y011744D01*
X029181Y011744D01*
X028856Y011609D01*
X028695Y011449D01*
X028111Y011449D01*
X028111Y013761D01*
X029249Y013761D01*
X029249Y013738D01*
X029364Y013623D01*
X030157Y013623D01*
X030273Y013738D01*
X030273Y014044D01*
X030351Y014234D01*
X030351Y014469D01*
X030273Y014659D01*
X030273Y014964D01*
X030157Y015080D01*
X029364Y015080D01*
X029249Y014964D01*
X029249Y014942D01*
X027045Y014942D01*
X026930Y014827D01*
X026930Y011770D01*
X025519Y011770D01*
X025519Y011950D01*
X025403Y012065D01*
X024453Y012065D01*
X025403Y012065D01*
X025519Y012180D01*
X025519Y013870D01*
X025628Y013761D01*
X026579Y013761D01*
X026694Y013876D01*
X026694Y014827D01*
X026648Y014872D01*
X026714Y015030D01*
X026714Y015106D01*
X026773Y015165D01*
X026773Y015555D01*
X026783Y015581D01*
X026783Y015608D01*
X026851Y015608D01*
X026851Y015165D01*
X026967Y015050D01*
X027760Y015050D01*
X027875Y015165D01*
X027875Y015608D01*
X029857Y015608D01*
X029972Y015724D01*
X029972Y015786D01*
X030252Y015786D01*
X030367Y015902D01*
X030367Y016301D01*
X030252Y016416D01*
X029972Y016416D01*
X029972Y017286D01*
X030252Y017286D01*
X030367Y017402D01*
X030367Y017801D01*
X030252Y017916D01*
X030166Y017916D01*
X030166Y018006D01*
X030118Y018122D01*
X030118Y018123D01*
X030157Y018123D01*
X030273Y018238D01*
X030273Y018544D01*
X030351Y018734D01*
X030351Y021105D01*
X030261Y021322D01*
X029292Y022291D01*
X029126Y022457D01*
X028909Y022547D01*
X014156Y022547D01*
X013939Y022457D01*
X011829Y020347D01*
X011739Y020130D01*
X011739Y019888D01*
X011317Y019466D01*
X009744Y019466D01*
X009527Y019377D01*
X009361Y019210D01*
X009271Y018993D01*
X009271Y018758D01*
X009344Y018581D01*
X009287Y018581D01*
X009200Y018493D01*
X009200Y022990D01*
X009212Y023141D01*
X009305Y023428D01*
X009482Y023672D01*
X009726Y023850D01*
X010013Y023943D01*
X010164Y023955D01*
X033393Y023955D01*
X033544Y023943D01*
X033831Y023850D01*
X034075Y023672D01*
X034252Y023428D01*
X034345Y023141D01*
X034357Y022990D01*
X034357Y003305D01*
X034345Y003154D01*
X034349Y003201D02*
X031775Y003201D01*
X031775Y003208D02*
X031484Y003499D01*
X031073Y003499D01*
X030891Y003317D01*
X030666Y003317D01*
X030484Y003499D01*
X030073Y003499D01*
X029782Y003208D01*
X029782Y002796D01*
X030073Y002505D01*
X030484Y002505D01*
X030666Y002687D01*
X030891Y002687D01*
X031073Y002505D01*
X031484Y002505D01*
X031775Y002796D01*
X031775Y003208D01*
X031626Y003357D02*
X034357Y003357D01*
X034357Y003513D02*
X031492Y003513D01*
X031484Y003505D02*
X031775Y003796D01*
X031775Y004208D01*
X031594Y004390D01*
X031594Y004505D01*
X031632Y004544D01*
X031680Y004660D01*
X031680Y004897D01*
X031759Y004975D01*
X031759Y005292D01*
X031892Y005292D01*
X032030Y005349D01*
X032136Y005455D01*
X032193Y005593D01*
X032193Y005742D01*
X032136Y005880D01*
X032030Y005985D01*
X031892Y006042D01*
X031743Y006042D01*
X031635Y005997D01*
X031632Y006003D01*
X031544Y006092D01*
X031396Y006239D01*
X031280Y006287D01*
X031137Y006287D01*
X031038Y006386D01*
X030481Y006386D01*
X030472Y006376D01*
X030225Y006623D01*
X030109Y006671D01*
X029728Y006671D01*
X029704Y006661D01*
X029512Y006661D01*
X029397Y006546D01*
X029397Y005792D01*
X029475Y005714D01*
X029475Y005024D01*
X029523Y004908D01*
X029612Y004820D01*
X029964Y004468D01*
X029964Y004390D01*
X029782Y004208D01*
X029782Y003796D01*
X030073Y003505D01*
X030484Y003505D01*
X030775Y003796D01*
X030775Y004208D01*
X030594Y004390D01*
X030594Y004468D01*
X030963Y004837D01*
X030972Y004860D01*
X030974Y004860D01*
X031031Y004916D01*
X031050Y004897D01*
X031050Y004853D01*
X031012Y004814D01*
X030964Y004698D01*
X030964Y004390D01*
X030782Y004208D01*
X030782Y003796D01*
X031073Y003505D01*
X031484Y003505D01*
X031648Y003669D02*
X034357Y003669D01*
X034357Y003825D02*
X031775Y003825D01*
X031775Y003981D02*
X034357Y003981D01*
X034357Y004137D02*
X031775Y004137D01*
X031690Y004293D02*
X034357Y004293D01*
X034357Y004449D02*
X031594Y004449D01*
X031657Y004605D02*
X034357Y004605D01*
X034357Y004761D02*
X031680Y004761D01*
X031700Y004917D02*
X034357Y004917D01*
X034357Y005073D02*
X031759Y005073D01*
X031759Y005229D02*
X034357Y005229D01*
X034357Y005385D02*
X032065Y005385D01*
X032171Y005541D02*
X034357Y005541D01*
X034357Y005697D02*
X032193Y005697D01*
X032147Y005852D02*
X034357Y005852D01*
X034357Y006008D02*
X031974Y006008D01*
X031662Y006008D02*
X031627Y006008D01*
X031471Y006164D02*
X034357Y006164D01*
X034357Y006320D02*
X031104Y006320D01*
X030372Y006476D02*
X034357Y006476D01*
X034357Y006632D02*
X030203Y006632D01*
X029483Y006632D02*
X029121Y006632D01*
X029121Y006788D02*
X034357Y006788D01*
X034357Y006944D02*
X029097Y006944D01*
X029042Y007100D02*
X034357Y007100D01*
X034357Y007256D02*
X032859Y007256D01*
X032940Y007412D02*
X034357Y007412D01*
X034357Y007568D02*
X032940Y007568D01*
X032940Y007724D02*
X034357Y007724D01*
X034357Y007880D02*
X032940Y007880D01*
X032861Y008036D02*
X034357Y008036D01*
X034357Y008192D02*
X032861Y008192D01*
X032940Y008348D02*
X034357Y008348D01*
X034357Y008504D02*
X032940Y008504D01*
X032940Y008660D02*
X034357Y008660D01*
X034357Y008816D02*
X032940Y008816D01*
X032886Y008972D02*
X034357Y008972D01*
X034357Y009128D02*
X032861Y009128D01*
X032861Y009284D02*
X034357Y009284D01*
X034357Y009440D02*
X032861Y009440D01*
X032861Y009596D02*
X034357Y009596D01*
X034357Y009752D02*
X032861Y009752D01*
X032861Y009908D02*
X034357Y009908D01*
X034357Y010064D02*
X032861Y010064D01*
X032861Y010220D02*
X034357Y010220D01*
X034357Y010376D02*
X032861Y010376D01*
X032861Y010532D02*
X034357Y010532D01*
X034357Y010688D02*
X032861Y010688D01*
X032861Y010844D02*
X034357Y010844D01*
X034357Y011000D02*
X032861Y011000D01*
X032861Y011156D02*
X034357Y011156D01*
X034357Y011312D02*
X032861Y011312D01*
X032861Y011468D02*
X034357Y011468D01*
X034357Y011624D02*
X032861Y011624D01*
X032962Y011780D02*
X034357Y011780D01*
X034357Y011936D02*
X033118Y011936D01*
X033274Y012092D02*
X034357Y012092D01*
X034357Y012248D02*
X033430Y012248D01*
X033528Y012404D02*
X034357Y012404D01*
X034357Y012560D02*
X033535Y012560D01*
X033535Y012716D02*
X034357Y012716D01*
X034357Y012872D02*
X033535Y012872D01*
X033535Y013028D02*
X034357Y013028D01*
X034357Y013184D02*
X033535Y013184D01*
X033535Y013340D02*
X034357Y013340D01*
X034357Y013496D02*
X033535Y013496D01*
X033535Y013652D02*
X034357Y013652D01*
X034357Y013807D02*
X033535Y013807D01*
X033535Y013963D02*
X034357Y013963D01*
X034357Y014119D02*
X033535Y014119D01*
X033535Y014275D02*
X034357Y014275D01*
X034357Y014431D02*
X033535Y014431D01*
X033535Y014587D02*
X034357Y014587D01*
X034357Y014743D02*
X033535Y014743D01*
X033535Y014899D02*
X034357Y014899D01*
X034357Y015055D02*
X033535Y015055D01*
X033535Y015211D02*
X034357Y015211D01*
X034357Y015367D02*
X033535Y015367D01*
X033535Y015523D02*
X034357Y015523D01*
X034357Y015679D02*
X033535Y015679D01*
X033535Y015835D02*
X034357Y015835D01*
X034357Y015991D02*
X033535Y015991D01*
X033522Y016147D02*
X034357Y016147D01*
X034357Y016303D02*
X033414Y016303D01*
X033258Y016459D02*
X034357Y016459D01*
X034357Y016615D02*
X033102Y016615D01*
X032946Y016771D02*
X034357Y016771D01*
X034357Y016927D02*
X032620Y016927D01*
X032615Y016923D02*
X032615Y016923D01*
X032725Y017032D02*
X032725Y017032D01*
X032776Y017083D02*
X034357Y017083D01*
X034357Y017239D02*
X032861Y017239D01*
X032861Y017395D02*
X034357Y017395D01*
X034357Y017551D02*
X032861Y017551D01*
X032861Y017707D02*
X034357Y017707D01*
X034357Y017863D02*
X032861Y017863D01*
X032861Y018019D02*
X034357Y018019D01*
X034357Y018175D02*
X032861Y018175D01*
X032861Y018331D02*
X034357Y018331D01*
X034357Y018487D02*
X032869Y018487D01*
X032960Y018643D02*
X034357Y018643D01*
X034357Y018799D02*
X032960Y018799D01*
X032960Y018955D02*
X034357Y018955D01*
X034357Y019111D02*
X032960Y019111D01*
X032861Y019267D02*
X034357Y019267D01*
X034357Y019423D02*
X032861Y019423D01*
X032940Y019579D02*
X034357Y019579D01*
X034357Y019735D02*
X032940Y019735D01*
X032940Y019891D02*
X034357Y019891D01*
X034357Y020047D02*
X032940Y020047D01*
X032876Y020203D02*
X034357Y020203D01*
X034357Y020359D02*
X032192Y020359D01*
X032192Y020515D02*
X034357Y020515D01*
X034357Y020671D02*
X032307Y020671D01*
X032392Y020827D02*
X034357Y020827D01*
X034357Y020983D02*
X032413Y020983D01*
X032383Y021139D02*
X034357Y021139D01*
X034357Y021295D02*
X032287Y021295D01*
X031595Y021295D02*
X030273Y021295D01*
X030337Y021139D02*
X031498Y021139D01*
X031469Y020983D02*
X030351Y020983D01*
X030351Y020827D02*
X031490Y020827D01*
X031562Y020671D02*
X030351Y020671D01*
X030351Y020515D02*
X031562Y020515D01*
X031562Y020359D02*
X030351Y020359D01*
X030351Y020203D02*
X031547Y020203D01*
X031483Y020047D02*
X030351Y020047D01*
X030351Y019891D02*
X031483Y019891D01*
X031483Y019735D02*
X030351Y019735D01*
X030351Y019579D02*
X031483Y019579D01*
X032231Y019423D02*
X030351Y019423D01*
X030351Y019267D02*
X032231Y019267D01*
X032133Y019111D02*
X030351Y019111D01*
X030351Y018955D02*
X032133Y018955D01*
X032133Y018799D02*
X030351Y018799D01*
X030314Y018643D02*
X032133Y018643D01*
X032224Y018487D02*
X030273Y018487D01*
X030273Y018331D02*
X032231Y018331D01*
X032231Y018175D02*
X030209Y018175D01*
X030161Y018019D02*
X032231Y018019D01*
X032226Y017863D02*
X032231Y017863D01*
X031319Y017863D02*
X030305Y017863D01*
X030367Y017707D02*
X031257Y017707D01*
X031257Y017551D02*
X030367Y017551D01*
X030361Y017395D02*
X031264Y017395D01*
X031257Y017239D02*
X029972Y017239D01*
X029972Y017083D02*
X031257Y017083D01*
X031257Y016927D02*
X029972Y016927D01*
X029972Y016771D02*
X031257Y016771D01*
X031257Y016615D02*
X029972Y016615D01*
X029972Y016459D02*
X031257Y016459D01*
X031259Y016303D02*
X030365Y016303D01*
X030367Y016147D02*
X031257Y016147D01*
X031257Y015991D02*
X030367Y015991D01*
X030301Y015835D02*
X031323Y015835D01*
X031458Y015679D02*
X029928Y015679D01*
X030182Y015055D02*
X031464Y015055D01*
X031464Y014899D02*
X030273Y014899D01*
X030273Y014743D02*
X031558Y014743D01*
X032196Y014743D02*
X032227Y014743D01*
X032231Y014587D02*
X030302Y014587D01*
X030351Y014431D02*
X032154Y014431D01*
X032153Y014275D02*
X030351Y014275D01*
X030304Y014119D02*
X032153Y014119D01*
X032153Y013963D02*
X030273Y013963D01*
X030273Y013807D02*
X032179Y013807D01*
X032906Y013652D02*
X030186Y013652D01*
X029336Y013652D02*
X028111Y013652D01*
X028111Y013496D02*
X032906Y013496D01*
X032906Y013340D02*
X028111Y013340D01*
X028111Y013184D02*
X032906Y013184D01*
X032906Y013028D02*
X028111Y013028D01*
X028111Y012872D02*
X032906Y012872D01*
X032906Y012716D02*
X028111Y012716D01*
X028111Y012560D02*
X032851Y012560D01*
X032696Y012404D02*
X028111Y012404D01*
X028111Y012248D02*
X032540Y012248D01*
X032384Y012092D02*
X028111Y012092D01*
X028111Y011936D02*
X032258Y011936D01*
X032231Y011780D02*
X028111Y011780D01*
X028111Y011624D02*
X028891Y011624D01*
X028714Y011468D02*
X028111Y011468D01*
X026930Y011780D02*
X025519Y011780D01*
X025519Y011936D02*
X026930Y011936D01*
X026930Y012092D02*
X025430Y012092D01*
X025519Y012248D02*
X026930Y012248D01*
X026930Y012404D02*
X025519Y012404D01*
X025519Y012560D02*
X026930Y012560D01*
X026930Y012716D02*
X025519Y012716D01*
X025519Y012872D02*
X026930Y012872D01*
X026930Y013028D02*
X025519Y013028D01*
X025519Y013184D02*
X026930Y013184D01*
X026930Y013340D02*
X025519Y013340D01*
X025519Y013496D02*
X026930Y013496D01*
X026930Y013652D02*
X025519Y013652D01*
X025519Y013807D02*
X025581Y013807D01*
X026625Y013807D02*
X026930Y013807D01*
X026930Y013963D02*
X026694Y013963D01*
X026694Y014119D02*
X026930Y014119D01*
X026930Y014275D02*
X026694Y014275D01*
X026694Y014431D02*
X026930Y014431D01*
X026930Y014587D02*
X026694Y014587D01*
X026694Y014743D02*
X026930Y014743D01*
X027003Y014899D02*
X026659Y014899D01*
X026714Y015055D02*
X026961Y015055D01*
X026851Y015211D02*
X026773Y015211D01*
X026773Y015367D02*
X026851Y015367D01*
X026851Y015523D02*
X026773Y015523D01*
X027765Y015055D02*
X029340Y015055D01*
X027875Y015211D02*
X031464Y015211D01*
X031464Y015367D02*
X027875Y015367D01*
X027875Y015523D02*
X031486Y015523D01*
X032231Y011624D02*
X029824Y011624D01*
X030000Y011468D02*
X032231Y011468D01*
X032231Y011312D02*
X030128Y011312D01*
X030193Y011156D02*
X032231Y011156D01*
X032231Y011000D02*
X030243Y011000D01*
X030243Y010844D02*
X032231Y010844D01*
X032231Y010688D02*
X030243Y010688D01*
X030181Y010532D02*
X032231Y010532D01*
X032231Y010376D02*
X030116Y010376D01*
X029972Y010220D02*
X032231Y010220D01*
X032231Y010064D02*
X029755Y010064D01*
X028960Y010064D02*
X023747Y010064D01*
X023747Y010220D02*
X028743Y010220D01*
X027862Y009908D02*
X023747Y009908D01*
X023747Y009752D02*
X027706Y009752D01*
X027550Y009596D02*
X023711Y009596D01*
X023631Y009440D02*
X027394Y009440D01*
X027238Y009284D02*
X023475Y009284D01*
X023319Y009128D02*
X027082Y009128D01*
X026838Y008660D02*
X022851Y008660D01*
X022695Y008504D02*
X026838Y008504D01*
X026838Y008348D02*
X022446Y008348D01*
X022025Y009505D02*
X021109Y009505D01*
X021109Y010468D01*
X021208Y010566D01*
X021208Y011123D01*
X021151Y011179D01*
X021208Y011235D01*
X021208Y011792D01*
X021092Y011907D01*
X020496Y011907D01*
X020417Y011829D01*
X020279Y011829D01*
X020163Y011781D01*
X020075Y011692D01*
X019972Y011590D01*
X019861Y011701D01*
X019441Y011701D01*
X019441Y011736D01*
X019861Y011736D01*
X019976Y011851D01*
X019976Y012487D01*
X019861Y012602D01*
X019441Y012602D01*
X019441Y012638D01*
X019861Y012638D01*
X019976Y012753D01*
X019976Y013389D01*
X019861Y013504D01*
X019441Y013504D01*
X019441Y013549D01*
X019326Y013664D01*
X018366Y013664D01*
X018366Y014097D01*
X018255Y014208D01*
X018255Y014222D01*
X018128Y014348D01*
X014799Y014348D01*
X014672Y014222D01*
X014073Y013622D01*
X013994Y013700D01*
X013879Y013748D01*
X013691Y013748D01*
X013612Y013827D01*
X013016Y013827D01*
X012901Y013711D01*
X012901Y013155D01*
X012957Y013098D01*
X012901Y013042D01*
X012901Y012577D01*
X009594Y012577D01*
X009594Y014348D01*
X009744Y014285D01*
X009979Y014285D01*
X010196Y014375D01*
X010362Y014541D01*
X010452Y014758D01*
X010452Y015285D01*
X012026Y015285D01*
X012243Y015375D01*
X012286Y015418D01*
X014087Y015418D01*
X014087Y015273D01*
X014202Y015157D01*
X015546Y015157D01*
X015661Y015273D01*
X015661Y015657D01*
X017500Y015657D01*
X017500Y015273D01*
X017615Y015157D01*
X019861Y015157D01*
X019917Y015214D01*
X021830Y015214D01*
X022566Y014478D01*
X022566Y013837D01*
X022091Y013837D01*
X021975Y013721D01*
X021975Y012180D01*
X022091Y012065D01*
X022566Y012065D01*
X022091Y012065D01*
X021975Y011950D01*
X021975Y010409D01*
X022091Y010293D01*
X022566Y010293D01*
X022566Y010046D01*
X022025Y009505D01*
X022116Y009596D02*
X021109Y009596D01*
X021109Y009752D02*
X022272Y009752D01*
X022428Y009908D02*
X021109Y009908D01*
X021109Y010064D02*
X022566Y010064D01*
X022566Y010220D02*
X021109Y010220D01*
X021109Y010376D02*
X022008Y010376D01*
X021975Y010532D02*
X021174Y010532D01*
X021208Y010688D02*
X021975Y010688D01*
X021975Y010844D02*
X021208Y010844D01*
X021208Y011000D02*
X021975Y011000D01*
X021975Y011156D02*
X021175Y011156D01*
X021208Y011312D02*
X021975Y011312D01*
X021975Y011468D02*
X021208Y011468D01*
X021208Y011624D02*
X021975Y011624D01*
X021975Y011780D02*
X021208Y011780D01*
X020162Y011780D02*
X019905Y011780D01*
X019938Y011624D02*
X020006Y011624D01*
X019976Y011936D02*
X021975Y011936D01*
X022064Y012092D02*
X019976Y012092D01*
X019976Y012248D02*
X021975Y012248D01*
X021975Y012404D02*
X019976Y012404D01*
X019904Y012560D02*
X021975Y012560D01*
X021975Y012716D02*
X019939Y012716D01*
X019976Y012872D02*
X021975Y012872D01*
X021975Y013028D02*
X019976Y013028D01*
X019976Y013184D02*
X021975Y013184D01*
X021975Y013340D02*
X019976Y013340D01*
X019869Y013496D02*
X021975Y013496D01*
X021975Y013652D02*
X019338Y013652D01*
X018366Y013807D02*
X022062Y013807D01*
X022566Y013963D02*
X018366Y013963D01*
X018344Y014119D02*
X022566Y014119D01*
X022566Y014275D02*
X018201Y014275D01*
X017561Y015211D02*
X015600Y015211D01*
X015661Y015367D02*
X017500Y015367D01*
X017500Y015523D02*
X015661Y015523D01*
X014148Y015211D02*
X010452Y015211D01*
X010452Y015055D02*
X021988Y015055D01*
X021832Y015211D02*
X019915Y015211D01*
X021109Y016395D02*
X021109Y017161D01*
X021208Y017259D01*
X021208Y017816D01*
X021151Y017872D01*
X021208Y017928D01*
X021208Y018485D01*
X021092Y018600D01*
X020496Y018600D01*
X020417Y018522D01*
X020180Y018522D01*
X020065Y018474D01*
X020008Y018417D01*
X019976Y018417D01*
X019976Y018420D01*
X019861Y018535D01*
X019441Y018535D01*
X019441Y018571D01*
X019861Y018571D01*
X019976Y018686D01*
X019976Y019322D01*
X019861Y019437D01*
X019441Y019437D01*
X019441Y019472D01*
X019861Y019472D01*
X019976Y019588D01*
X019976Y020223D01*
X019861Y020339D01*
X019441Y020339D01*
X019441Y020365D01*
X019326Y020480D01*
X018366Y020480D01*
X018366Y020932D01*
X018251Y021047D01*
X017615Y021047D01*
X017500Y020932D01*
X017500Y020480D01*
X016563Y020480D01*
X016563Y020932D01*
X016448Y021047D01*
X015812Y021047D01*
X015697Y020932D01*
X015697Y020480D01*
X014733Y020480D01*
X014618Y020365D01*
X014618Y020339D01*
X014202Y020339D01*
X014087Y020223D01*
X014087Y020220D01*
X013705Y020220D01*
X014683Y021199D01*
X022054Y021199D01*
X022054Y016404D01*
X022064Y016395D01*
X021109Y016395D01*
X021109Y016459D02*
X022054Y016459D01*
X022054Y016615D02*
X021109Y016615D01*
X021109Y016771D02*
X022054Y016771D01*
X022054Y016927D02*
X021109Y016927D01*
X021109Y017083D02*
X022054Y017083D01*
X022054Y017239D02*
X021188Y017239D01*
X021208Y017395D02*
X022054Y017395D01*
X022054Y017551D02*
X021208Y017551D01*
X021208Y017707D02*
X022054Y017707D01*
X022054Y017863D02*
X021160Y017863D01*
X021208Y018019D02*
X022054Y018019D01*
X022054Y018175D02*
X021208Y018175D01*
X021208Y018331D02*
X022054Y018331D01*
X022054Y018487D02*
X021206Y018487D01*
X020097Y018487D02*
X019910Y018487D01*
X019933Y018643D02*
X022054Y018643D01*
X022054Y018799D02*
X019976Y018799D01*
X019976Y018955D02*
X022054Y018955D01*
X022054Y019111D02*
X019976Y019111D01*
X019976Y019267D02*
X022054Y019267D01*
X022054Y019423D02*
X019875Y019423D01*
X019967Y019579D02*
X022054Y019579D01*
X022054Y019735D02*
X019976Y019735D01*
X019976Y019891D02*
X022054Y019891D01*
X022054Y020047D02*
X019976Y020047D01*
X019976Y020203D02*
X022054Y020203D01*
X022054Y020359D02*
X019441Y020359D01*
X018366Y020515D02*
X022054Y020515D01*
X022054Y020671D02*
X018366Y020671D01*
X018366Y020827D02*
X022054Y020827D01*
X022054Y020983D02*
X018315Y020983D01*
X017551Y020983D02*
X016512Y020983D01*
X016563Y020827D02*
X017500Y020827D01*
X017500Y020671D02*
X016563Y020671D01*
X016563Y020515D02*
X017500Y020515D01*
X015697Y020515D02*
X013999Y020515D01*
X014155Y020671D02*
X015697Y020671D01*
X015697Y020827D02*
X014311Y020827D01*
X014467Y020983D02*
X015748Y020983D01*
X014623Y021139D02*
X022054Y021139D01*
X028920Y022542D02*
X034357Y022542D01*
X034357Y022386D02*
X029197Y022386D01*
X029353Y022230D02*
X034357Y022230D01*
X034357Y022074D02*
X029509Y022074D01*
X029665Y021918D02*
X034357Y021918D01*
X034357Y021763D02*
X029821Y021763D01*
X029977Y021607D02*
X034357Y021607D01*
X034357Y021451D02*
X030133Y021451D01*
X032207Y020203D02*
X032217Y020203D01*
X034357Y022698D02*
X009200Y022698D01*
X009200Y022542D02*
X014145Y022542D01*
X013868Y022386D02*
X009200Y022386D01*
X009200Y022230D02*
X013712Y022230D01*
X013556Y022074D02*
X009200Y022074D01*
X009200Y021918D02*
X013400Y021918D01*
X013244Y021763D02*
X009200Y021763D01*
X009200Y021607D02*
X013088Y021607D01*
X012932Y021451D02*
X009200Y021451D01*
X009200Y021295D02*
X012776Y021295D01*
X012620Y021139D02*
X009200Y021139D01*
X009200Y020983D02*
X012464Y020983D01*
X012308Y020827D02*
X009200Y020827D01*
X009200Y020671D02*
X012152Y020671D01*
X011996Y020515D02*
X009200Y020515D01*
X009200Y020359D02*
X011841Y020359D01*
X011769Y020203D02*
X009200Y020203D01*
X009200Y020047D02*
X011739Y020047D01*
X011739Y019891D02*
X009200Y019891D01*
X009200Y019735D02*
X011586Y019735D01*
X011430Y019579D02*
X009200Y019579D01*
X009200Y019423D02*
X009638Y019423D01*
X009417Y019267D02*
X009200Y019267D01*
X009200Y019111D02*
X009319Y019111D01*
X009271Y018955D02*
X009200Y018955D01*
X009200Y018799D02*
X009271Y018799D01*
X009319Y018643D02*
X009200Y018643D01*
X011196Y017376D02*
X011362Y017210D01*
X011452Y016993D01*
X011452Y016466D01*
X011664Y016466D01*
X011707Y016509D01*
X011924Y016599D01*
X014087Y016599D01*
X014087Y017518D01*
X014202Y017634D01*
X014559Y017634D01*
X014559Y017669D01*
X014202Y017669D01*
X014087Y017785D01*
X014087Y018420D01*
X014202Y018535D01*
X014618Y018535D01*
X014618Y018571D01*
X014202Y018571D01*
X014087Y018686D01*
X014087Y019322D01*
X014202Y019437D01*
X014618Y019437D01*
X014618Y019472D01*
X014202Y019472D01*
X014087Y019588D01*
X014087Y019590D01*
X013845Y019590D01*
X013845Y019227D01*
X013789Y019171D01*
X013845Y019115D01*
X013845Y018558D01*
X013770Y018482D01*
X013845Y018406D01*
X013845Y017849D01*
X013730Y017734D01*
X013134Y017734D01*
X013019Y017849D01*
X013019Y018406D01*
X013095Y018482D01*
X013019Y018558D01*
X013019Y019115D01*
X013075Y019171D01*
X013019Y019227D01*
X013019Y019534D01*
X012856Y019372D01*
X012830Y019309D01*
X012664Y019143D01*
X011897Y018375D01*
X011834Y018349D01*
X011759Y018274D01*
X011759Y018274D01*
X011632Y018148D01*
X011452Y018148D01*
X011452Y017758D01*
X011362Y017541D01*
X011196Y017376D01*
X011216Y017395D02*
X014087Y017395D01*
X014087Y017239D02*
X011333Y017239D01*
X011415Y017083D02*
X014087Y017083D01*
X014087Y016927D02*
X011452Y016927D01*
X011452Y016771D02*
X014087Y016771D01*
X014087Y016615D02*
X011452Y016615D01*
X011366Y017551D02*
X014119Y017551D01*
X014164Y017707D02*
X011430Y017707D01*
X011452Y017863D02*
X013019Y017863D01*
X013019Y018019D02*
X011452Y018019D01*
X011659Y018175D02*
X013019Y018175D01*
X013019Y018331D02*
X011815Y018331D01*
X012008Y018487D02*
X013090Y018487D01*
X013019Y018643D02*
X012164Y018643D01*
X012320Y018799D02*
X013019Y018799D01*
X013019Y018955D02*
X012476Y018955D01*
X012632Y019111D02*
X013019Y019111D01*
X013019Y019267D02*
X012788Y019267D01*
X012907Y019423D02*
X013019Y019423D01*
X013845Y019423D02*
X014188Y019423D01*
X014096Y019579D02*
X013845Y019579D01*
X013845Y019267D02*
X014087Y019267D01*
X014087Y019111D02*
X013845Y019111D01*
X013845Y018955D02*
X014087Y018955D01*
X014087Y018799D02*
X013845Y018799D01*
X013845Y018643D02*
X014130Y018643D01*
X014153Y018487D02*
X013774Y018487D01*
X013845Y018331D02*
X014087Y018331D01*
X014087Y018175D02*
X013845Y018175D01*
X013845Y018019D02*
X014087Y018019D01*
X014087Y017863D02*
X013845Y017863D01*
X013843Y020359D02*
X014618Y020359D01*
X010057Y023946D02*
X033500Y023946D01*
X033912Y023790D02*
X009645Y023790D01*
X009455Y023634D02*
X034102Y023634D01*
X034216Y023478D02*
X009341Y023478D01*
X009305Y023428D02*
X009305Y023428D01*
X009271Y023322D02*
X034286Y023322D01*
X034337Y023166D02*
X009220Y023166D01*
X009201Y023010D02*
X034356Y023010D01*
X034357Y022854D02*
X009200Y022854D01*
X012224Y015367D02*
X014087Y015367D01*
X014726Y014275D02*
X009594Y014275D01*
X009594Y014119D02*
X014570Y014119D01*
X014414Y013963D02*
X009594Y013963D01*
X009594Y013807D02*
X012997Y013807D01*
X012901Y013652D02*
X009594Y013652D01*
X009594Y013496D02*
X012901Y013496D01*
X012901Y013340D02*
X009594Y013340D01*
X009594Y013184D02*
X012901Y013184D01*
X012901Y013028D02*
X009594Y013028D01*
X009594Y012872D02*
X012901Y012872D01*
X012901Y012716D02*
X009594Y012716D01*
X011390Y012144D02*
X011452Y011993D01*
X011452Y011466D01*
X011963Y011466D01*
X012180Y011377D01*
X012467Y011089D01*
X012634Y010923D01*
X012723Y010706D01*
X012723Y009513D01*
X013097Y009513D01*
X013097Y009561D01*
X013095Y009564D01*
X013037Y009702D01*
X013037Y009851D01*
X013095Y009989D01*
X013200Y010094D01*
X013338Y010151D01*
X013487Y010151D01*
X013625Y010094D01*
X013730Y009989D01*
X013787Y009851D01*
X013787Y009702D01*
X013730Y009564D01*
X013727Y009561D01*
X013727Y009513D01*
X014087Y009513D01*
X014087Y010684D01*
X014202Y010799D01*
X014559Y010799D01*
X014559Y010835D01*
X014202Y010835D01*
X014087Y010950D01*
X014087Y011585D01*
X014202Y011701D01*
X014618Y011701D01*
X014618Y011736D01*
X014202Y011736D01*
X014087Y011851D01*
X014087Y012487D01*
X014202Y012602D01*
X014618Y012602D01*
X014618Y012638D01*
X014202Y012638D01*
X014087Y012753D01*
X014087Y012768D01*
X014000Y012804D01*
X013933Y012870D01*
X013727Y012664D01*
X013727Y012485D01*
X013629Y012387D01*
X013629Y012358D01*
X013727Y012260D01*
X013727Y011703D01*
X013612Y011588D01*
X013016Y011588D01*
X012901Y011703D01*
X012901Y012144D01*
X011390Y012144D01*
X011411Y012092D02*
X012901Y012092D01*
X012901Y011936D02*
X011452Y011936D01*
X011452Y011780D02*
X012901Y011780D01*
X012980Y011624D02*
X011452Y011624D01*
X011452Y011468D02*
X014087Y011468D01*
X014087Y011312D02*
X012245Y011312D01*
X012401Y011156D02*
X014087Y011156D01*
X014087Y011000D02*
X012557Y011000D01*
X012666Y010844D02*
X014193Y010844D01*
X014091Y010688D02*
X012723Y010688D01*
X012723Y010532D02*
X014087Y010532D01*
X014087Y010376D02*
X012723Y010376D01*
X012723Y010220D02*
X014087Y010220D01*
X014087Y010064D02*
X013655Y010064D01*
X013764Y009908D02*
X014087Y009908D01*
X014087Y009752D02*
X013787Y009752D01*
X013743Y009596D02*
X014087Y009596D01*
X013081Y009596D02*
X012723Y009596D01*
X012723Y009752D02*
X013037Y009752D01*
X013061Y009908D02*
X012723Y009908D01*
X012723Y010064D02*
X013170Y010064D01*
X011542Y010064D02*
X010452Y010064D01*
X010452Y010220D02*
X011542Y010220D01*
X011542Y009908D02*
X010452Y009908D01*
X010449Y009752D02*
X011542Y009752D01*
X011542Y009596D02*
X010384Y009596D01*
X010261Y009440D02*
X011542Y009440D01*
X011542Y009284D02*
X009594Y009284D01*
X009594Y009128D02*
X011542Y009128D01*
X011592Y008972D02*
X009594Y008972D01*
X009594Y008816D02*
X011692Y008816D01*
X011848Y008660D02*
X009594Y008660D01*
X009594Y008504D02*
X012004Y008504D01*
X012264Y008348D02*
X009594Y008348D01*
X009594Y008192D02*
X026838Y008192D01*
X026838Y008036D02*
X009594Y008036D01*
X009594Y007880D02*
X026759Y007880D01*
X026759Y007724D02*
X009594Y007724D01*
X009594Y007568D02*
X026759Y007568D01*
X026759Y007412D02*
X009594Y007412D01*
X009501Y007256D02*
X026840Y007256D01*
X027465Y007256D02*
X027510Y007256D01*
X028134Y007256D02*
X028412Y007256D01*
X028412Y007100D02*
X009200Y007100D01*
X009200Y006944D02*
X028358Y006944D01*
X028334Y006788D02*
X009200Y006788D01*
X009200Y006632D02*
X028334Y006632D01*
X028398Y006476D02*
X024419Y006476D01*
X024376Y006494D02*
X024181Y006494D01*
X024000Y006419D01*
X023861Y006281D01*
X023786Y006100D01*
X023786Y005904D01*
X023831Y005795D01*
X023726Y005795D01*
X023771Y005904D01*
X023771Y006100D01*
X023696Y006281D01*
X023557Y006419D01*
X023376Y006494D01*
X023181Y006494D01*
X023000Y006419D01*
X022861Y006281D01*
X022786Y006100D01*
X022786Y005904D01*
X022861Y005723D01*
X023000Y005585D01*
X023181Y005510D01*
X023369Y005510D01*
X023353Y005494D01*
X023181Y005494D01*
X023000Y005419D01*
X022861Y005281D01*
X022786Y005100D01*
X022786Y004904D01*
X022861Y004723D01*
X022983Y004601D01*
X022983Y004409D01*
X022782Y004208D01*
X022782Y003796D01*
X023073Y003505D01*
X023484Y003505D01*
X023775Y003796D01*
X023775Y004208D01*
X023574Y004409D01*
X023574Y004601D01*
X023696Y004723D01*
X023771Y004904D01*
X023771Y005076D01*
X023786Y005092D01*
X023786Y004904D01*
X023861Y004723D01*
X024000Y004585D01*
X024181Y004510D01*
X024376Y004510D01*
X024557Y004585D01*
X024696Y004723D01*
X024771Y004904D01*
X024771Y005100D01*
X024727Y005205D01*
X024830Y005205D01*
X024786Y005100D01*
X024786Y004904D01*
X024861Y004723D01*
X025000Y004585D01*
X025181Y004510D01*
X025376Y004510D01*
X025557Y004585D01*
X025696Y004723D01*
X025771Y004904D01*
X025771Y005100D01*
X025727Y005205D01*
X026591Y005205D01*
X026700Y005250D01*
X026742Y005292D01*
X026774Y005292D01*
X026818Y005310D01*
X026874Y005254D01*
X027431Y005254D01*
X027487Y005310D01*
X027543Y005254D01*
X028100Y005254D01*
X028216Y005369D01*
X028216Y005383D01*
X028256Y005400D01*
X028412Y005556D01*
X028412Y005103D01*
X028460Y004987D01*
X028549Y004898D01*
X028964Y004484D01*
X028964Y004390D01*
X028782Y004208D01*
X028782Y003796D01*
X029073Y003505D01*
X029484Y003505D01*
X029775Y003796D01*
X029775Y004208D01*
X029594Y004390D01*
X029594Y004677D01*
X029546Y004793D01*
X029042Y005296D01*
X029042Y005714D01*
X029121Y005792D01*
X029121Y006172D01*
X029006Y006287D01*
X028814Y006287D01*
X028790Y006297D01*
X028330Y006297D01*
X028214Y006249D01*
X028126Y006161D01*
X028046Y006081D01*
X027543Y006081D01*
X027487Y006024D01*
X027431Y006081D01*
X026874Y006081D01*
X026818Y006024D01*
X026774Y006042D01*
X026625Y006042D01*
X026487Y005985D01*
X026382Y005880D01*
X026347Y005795D01*
X024726Y005795D01*
X024771Y005904D01*
X024771Y006100D01*
X024696Y006281D01*
X024557Y006419D01*
X024376Y006494D01*
X024138Y006476D02*
X023419Y006476D01*
X023138Y006476D02*
X021419Y006476D01*
X021376Y006494D02*
X021181Y006494D01*
X021000Y006419D01*
X020861Y006281D01*
X020786Y006100D01*
X020786Y005904D01*
X020861Y005723D01*
X021000Y005585D01*
X021181Y005510D01*
X021376Y005510D01*
X021557Y005585D01*
X021696Y005723D01*
X021771Y005904D01*
X021771Y006100D01*
X021696Y006281D01*
X021557Y006419D01*
X021376Y006494D01*
X021138Y006476D02*
X020419Y006476D01*
X020376Y006494D02*
X020181Y006494D01*
X020000Y006419D01*
X019861Y006281D01*
X019786Y006100D01*
X019786Y005904D01*
X019861Y005723D01*
X020000Y005585D01*
X020181Y005510D01*
X020376Y005510D01*
X020557Y005585D01*
X020696Y005723D01*
X020771Y005904D01*
X020771Y006100D01*
X020696Y006281D01*
X020557Y006419D01*
X020376Y006494D01*
X020138Y006476D02*
X019419Y006476D01*
X019376Y006494D02*
X019181Y006494D01*
X019000Y006419D01*
X018861Y006281D01*
X018786Y006100D01*
X018786Y005904D01*
X018861Y005723D01*
X019000Y005585D01*
X019181Y005510D01*
X019376Y005510D01*
X019557Y005585D01*
X019696Y005723D01*
X019771Y005904D01*
X019771Y006100D01*
X019696Y006281D01*
X019557Y006419D01*
X019376Y006494D01*
X019138Y006476D02*
X018419Y006476D01*
X018376Y006494D02*
X018181Y006494D01*
X018000Y006419D01*
X017861Y006281D01*
X017786Y006100D01*
X017786Y005904D01*
X017861Y005723D01*
X018000Y005585D01*
X018181Y005510D01*
X018376Y005510D01*
X018557Y005585D01*
X018696Y005723D01*
X018771Y005904D01*
X018771Y006100D01*
X018696Y006281D01*
X018557Y006419D01*
X018376Y006494D01*
X018138Y006476D02*
X016419Y006476D01*
X016376Y006494D02*
X016181Y006494D01*
X016000Y006419D01*
X015861Y006281D01*
X015786Y006100D01*
X015786Y005904D01*
X015861Y005723D01*
X016000Y005585D01*
X016181Y005510D01*
X016376Y005510D01*
X016557Y005585D01*
X016696Y005723D01*
X016771Y005904D01*
X016771Y006100D01*
X016696Y006281D01*
X016557Y006419D01*
X016376Y006494D01*
X016138Y006476D02*
X014419Y006476D01*
X014376Y006494D02*
X014557Y006419D01*
X014696Y006281D01*
X014771Y006100D01*
X014771Y005904D01*
X014696Y005723D01*
X014557Y005585D01*
X014376Y005510D01*
X014181Y005510D01*
X014000Y005585D01*
X013861Y005723D01*
X013786Y005904D01*
X013786Y006100D01*
X013861Y006281D01*
X014000Y006419D01*
X014181Y006494D01*
X014376Y006494D01*
X014138Y006476D02*
X013419Y006476D01*
X013376Y006494D02*
X013181Y006494D01*
X013000Y006419D01*
X012861Y006281D01*
X012786Y006100D01*
X012786Y005904D01*
X012861Y005723D01*
X013000Y005585D01*
X013181Y005510D01*
X013376Y005510D01*
X013557Y005585D01*
X013696Y005723D01*
X013771Y005904D01*
X013771Y006100D01*
X013696Y006281D01*
X013557Y006419D01*
X013376Y006494D01*
X013138Y006476D02*
X012419Y006476D01*
X012376Y006494D02*
X012181Y006494D01*
X012000Y006419D01*
X011861Y006281D01*
X011786Y006100D01*
X011786Y005904D01*
X011861Y005723D01*
X012000Y005585D01*
X012181Y005510D01*
X012376Y005510D01*
X012557Y005585D01*
X012696Y005723D01*
X012771Y005904D01*
X012771Y006100D01*
X012696Y006281D01*
X012557Y006419D01*
X012376Y006494D01*
X012138Y006476D02*
X009200Y006476D01*
X009200Y006320D02*
X011901Y006320D01*
X011813Y006164D02*
X009200Y006164D01*
X009200Y006008D02*
X011786Y006008D01*
X011808Y005852D02*
X009200Y005852D01*
X009200Y005697D02*
X011888Y005697D01*
X012106Y005541D02*
X009200Y005541D01*
X009200Y005385D02*
X011965Y005385D01*
X012000Y005419D02*
X011861Y005281D01*
X011786Y005100D01*
X011786Y004904D01*
X011861Y004723D01*
X012000Y004585D01*
X012181Y004510D01*
X012376Y004510D01*
X012557Y004585D01*
X012696Y004723D01*
X012771Y004904D01*
X012771Y005100D01*
X012696Y005281D01*
X012557Y005419D01*
X012376Y005494D01*
X012181Y005494D01*
X012000Y005419D01*
X011840Y005229D02*
X009200Y005229D01*
X009200Y005073D02*
X011786Y005073D01*
X011786Y004917D02*
X009200Y004917D01*
X009200Y004761D02*
X011846Y004761D01*
X011980Y004605D02*
X009200Y004605D01*
X009200Y004449D02*
X013023Y004449D01*
X013073Y004499D02*
X012782Y004208D01*
X012782Y003796D01*
X013073Y003505D01*
X013484Y003505D01*
X013775Y003796D01*
X013775Y004208D01*
X013484Y004499D01*
X013073Y004499D01*
X013181Y004510D02*
X013376Y004510D01*
X013557Y004585D01*
X013696Y004723D01*
X013771Y004904D01*
X013771Y005100D01*
X013696Y005281D01*
X013557Y005419D01*
X013376Y005494D01*
X013181Y005494D01*
X013000Y005419D01*
X012861Y005281D01*
X012786Y005100D01*
X012786Y004904D01*
X012861Y004723D01*
X013000Y004585D01*
X013181Y004510D01*
X012980Y004605D02*
X012577Y004605D01*
X012711Y004761D02*
X012846Y004761D01*
X012786Y004917D02*
X012771Y004917D01*
X012771Y005073D02*
X012786Y005073D01*
X012840Y005229D02*
X012717Y005229D01*
X012592Y005385D02*
X012965Y005385D01*
X013106Y005541D02*
X012451Y005541D01*
X012669Y005697D02*
X012888Y005697D01*
X012808Y005852D02*
X012749Y005852D01*
X012771Y006008D02*
X012786Y006008D01*
X012813Y006164D02*
X012744Y006164D01*
X012656Y006320D02*
X012901Y006320D01*
X013656Y006320D02*
X013901Y006320D01*
X013813Y006164D02*
X013744Y006164D01*
X013771Y006008D02*
X013786Y006008D01*
X013808Y005852D02*
X013749Y005852D01*
X013669Y005697D02*
X013888Y005697D01*
X014106Y005541D02*
X013451Y005541D01*
X013592Y005385D02*
X013965Y005385D01*
X014000Y005419D02*
X013861Y005281D01*
X013786Y005100D01*
X013786Y004904D01*
X013861Y004723D01*
X014000Y004585D01*
X014181Y004510D01*
X014376Y004510D01*
X014557Y004585D01*
X014696Y004723D01*
X014771Y004904D01*
X014771Y005100D01*
X014696Y005281D01*
X014557Y005419D01*
X014376Y005494D01*
X014181Y005494D01*
X014000Y005419D01*
X013840Y005229D02*
X013717Y005229D01*
X013771Y005073D02*
X013786Y005073D01*
X013771Y004917D02*
X013786Y004917D01*
X013846Y004761D02*
X013711Y004761D01*
X013577Y004605D02*
X013980Y004605D01*
X014073Y004499D02*
X013782Y004208D01*
X013782Y003796D01*
X014073Y003505D01*
X014484Y003505D01*
X014775Y003796D01*
X014775Y004208D01*
X014484Y004499D01*
X014073Y004499D01*
X014023Y004449D02*
X013534Y004449D01*
X013690Y004293D02*
X013867Y004293D01*
X013782Y004137D02*
X013775Y004137D01*
X013775Y003981D02*
X013782Y003981D01*
X013775Y003825D02*
X013782Y003825D01*
X013909Y003669D02*
X013648Y003669D01*
X013492Y003513D02*
X014065Y003513D01*
X014073Y003499D02*
X013782Y003208D01*
X013782Y002796D01*
X014073Y002505D01*
X014484Y002505D01*
X014775Y002796D01*
X014775Y003208D01*
X014484Y003499D01*
X014073Y003499D01*
X013931Y003357D02*
X013626Y003357D01*
X013484Y003499D02*
X013073Y003499D01*
X012782Y003208D01*
X012782Y002796D01*
X013073Y002505D01*
X013484Y002505D01*
X013775Y002796D01*
X013775Y003208D01*
X013484Y003499D01*
X013775Y003201D02*
X013782Y003201D01*
X013775Y003045D02*
X013782Y003045D01*
X013775Y002889D02*
X013782Y002889D01*
X013845Y002733D02*
X013712Y002733D01*
X013556Y002577D02*
X014001Y002577D01*
X014556Y002577D02*
X016001Y002577D01*
X016073Y002505D02*
X016484Y002505D01*
X016775Y002796D01*
X016775Y003208D01*
X016484Y003499D01*
X016073Y003499D01*
X015782Y003208D01*
X015782Y002796D01*
X016073Y002505D01*
X015845Y002733D02*
X014712Y002733D01*
X014775Y002889D02*
X015782Y002889D01*
X015782Y003045D02*
X014775Y003045D01*
X014775Y003201D02*
X015782Y003201D01*
X015931Y003357D02*
X014626Y003357D01*
X014492Y003513D02*
X015065Y003513D01*
X015073Y003505D02*
X015484Y003505D01*
X015775Y003796D01*
X015775Y004208D01*
X015484Y004499D01*
X015073Y004499D01*
X014782Y004208D01*
X014782Y003796D01*
X015073Y003505D01*
X014909Y003669D02*
X014648Y003669D01*
X014775Y003825D02*
X014782Y003825D01*
X014775Y003981D02*
X014782Y003981D01*
X014775Y004137D02*
X014782Y004137D01*
X014867Y004293D02*
X014690Y004293D01*
X014534Y004449D02*
X015023Y004449D01*
X015000Y004585D02*
X015181Y004510D01*
X015376Y004510D01*
X015557Y004585D01*
X015696Y004723D01*
X015771Y004904D01*
X015771Y005100D01*
X015696Y005281D01*
X015557Y005419D01*
X015376Y005494D01*
X015181Y005494D01*
X015000Y005419D01*
X014861Y005281D01*
X014786Y005100D01*
X014786Y004904D01*
X014861Y004723D01*
X015000Y004585D01*
X014980Y004605D02*
X014577Y004605D01*
X014711Y004761D02*
X014846Y004761D01*
X014786Y004917D02*
X014771Y004917D01*
X014771Y005073D02*
X014786Y005073D01*
X014840Y005229D02*
X014717Y005229D01*
X014592Y005385D02*
X014965Y005385D01*
X014669Y005697D02*
X015888Y005697D01*
X015808Y005852D02*
X014749Y005852D01*
X014771Y006008D02*
X015786Y006008D01*
X015813Y006164D02*
X014744Y006164D01*
X014656Y006320D02*
X015901Y006320D01*
X016656Y006320D02*
X017901Y006320D01*
X017813Y006164D02*
X016744Y006164D01*
X016771Y006008D02*
X017786Y006008D01*
X017808Y005852D02*
X016749Y005852D01*
X016669Y005697D02*
X017888Y005697D01*
X018106Y005541D02*
X016451Y005541D01*
X016376Y005494D02*
X016181Y005494D01*
X016000Y005419D01*
X015861Y005281D01*
X015786Y005100D01*
X015786Y004904D01*
X015861Y004723D01*
X016000Y004585D01*
X016181Y004510D01*
X016376Y004510D01*
X016557Y004585D01*
X016696Y004723D01*
X016771Y004904D01*
X016771Y005100D01*
X016696Y005281D01*
X016557Y005419D01*
X016376Y005494D01*
X016592Y005385D02*
X016965Y005385D01*
X017000Y005419D02*
X016861Y005281D01*
X016786Y005100D01*
X016786Y004904D01*
X016861Y004723D01*
X017000Y004585D01*
X017181Y004510D01*
X017376Y004510D01*
X017557Y004585D01*
X017696Y004723D01*
X017771Y004904D01*
X017771Y005100D01*
X017696Y005281D01*
X017557Y005419D01*
X017376Y005494D01*
X017181Y005494D01*
X017000Y005419D01*
X016840Y005229D02*
X016717Y005229D01*
X016771Y005073D02*
X016786Y005073D01*
X016771Y004917D02*
X016786Y004917D01*
X016846Y004761D02*
X016711Y004761D01*
X016577Y004605D02*
X016980Y004605D01*
X017073Y004499D02*
X016782Y004208D01*
X016782Y003796D01*
X017073Y003505D01*
X017484Y003505D01*
X017775Y003796D01*
X017775Y004208D01*
X017484Y004499D01*
X017073Y004499D01*
X017023Y004449D02*
X016534Y004449D01*
X016484Y004499D02*
X016073Y004499D01*
X015782Y004208D01*
X015782Y003796D01*
X016073Y003505D01*
X016484Y003505D01*
X016775Y003796D01*
X016775Y004208D01*
X016484Y004499D01*
X016690Y004293D02*
X016867Y004293D01*
X016782Y004137D02*
X016775Y004137D01*
X016775Y003981D02*
X016782Y003981D01*
X016775Y003825D02*
X016782Y003825D01*
X016909Y003669D02*
X016648Y003669D01*
X016492Y003513D02*
X017065Y003513D01*
X016775Y003201D02*
X017782Y003201D01*
X017782Y003208D02*
X017782Y002796D01*
X018073Y002505D01*
X018484Y002505D01*
X018775Y002796D01*
X018775Y003208D01*
X018484Y003499D01*
X018073Y003499D01*
X017782Y003208D01*
X017782Y003045D02*
X016775Y003045D01*
X016775Y002889D02*
X017782Y002889D01*
X017845Y002733D02*
X016712Y002733D01*
X016556Y002577D02*
X018001Y002577D01*
X018556Y002577D02*
X019001Y002577D01*
X019073Y002505D02*
X019484Y002505D01*
X019775Y002796D01*
X019775Y003208D01*
X019484Y003499D01*
X019073Y003499D01*
X018782Y003208D01*
X018782Y002796D01*
X019073Y002505D01*
X018845Y002733D02*
X018712Y002733D01*
X018775Y002889D02*
X018782Y002889D01*
X018775Y003045D02*
X018782Y003045D01*
X018775Y003201D02*
X018782Y003201D01*
X018931Y003357D02*
X018626Y003357D01*
X018484Y003505D02*
X018775Y003796D01*
X018775Y004208D01*
X018484Y004499D01*
X018073Y004499D01*
X017782Y004208D01*
X017782Y003796D01*
X018073Y003505D01*
X018484Y003505D01*
X018492Y003513D02*
X020065Y003513D01*
X020073Y003505D02*
X020484Y003505D01*
X020775Y003796D01*
X020775Y004208D01*
X020484Y004499D01*
X020073Y004499D01*
X019782Y004208D01*
X019782Y003796D01*
X020073Y003505D01*
X020073Y003499D02*
X019782Y003208D01*
X019782Y002796D01*
X020073Y002505D01*
X020484Y002505D01*
X020775Y002796D01*
X020775Y003208D01*
X020484Y003499D01*
X020073Y003499D01*
X019931Y003357D02*
X019626Y003357D01*
X019775Y003201D02*
X019782Y003201D01*
X019775Y003045D02*
X019782Y003045D01*
X019775Y002889D02*
X019782Y002889D01*
X019845Y002733D02*
X019712Y002733D01*
X019556Y002577D02*
X020001Y002577D01*
X020556Y002577D02*
X021001Y002577D01*
X021073Y002505D02*
X021484Y002505D01*
X021775Y002796D01*
X021775Y003208D01*
X021484Y003499D01*
X021073Y003499D01*
X020782Y003208D01*
X020782Y002796D01*
X021073Y002505D01*
X020845Y002733D02*
X020712Y002733D01*
X020775Y002889D02*
X020782Y002889D01*
X020775Y003045D02*
X020782Y003045D01*
X020775Y003201D02*
X020782Y003201D01*
X020931Y003357D02*
X020626Y003357D01*
X020492Y003513D02*
X021065Y003513D01*
X021073Y003505D02*
X021484Y003505D01*
X021775Y003796D01*
X021775Y004208D01*
X021484Y004499D01*
X021073Y004499D01*
X020782Y004208D01*
X020782Y003796D01*
X021073Y003505D01*
X020909Y003669D02*
X020648Y003669D01*
X020775Y003825D02*
X020782Y003825D01*
X020775Y003981D02*
X020782Y003981D01*
X020775Y004137D02*
X020782Y004137D01*
X020867Y004293D02*
X020690Y004293D01*
X020534Y004449D02*
X021023Y004449D01*
X021000Y004585D02*
X021181Y004510D01*
X021376Y004510D01*
X021557Y004585D01*
X021696Y004723D01*
X021771Y004904D01*
X021771Y005100D01*
X021696Y005281D01*
X021557Y005419D01*
X021376Y005494D01*
X021181Y005494D01*
X021000Y005419D01*
X020861Y005281D01*
X020786Y005100D01*
X020786Y004904D01*
X020861Y004723D01*
X021000Y004585D01*
X020980Y004605D02*
X020577Y004605D01*
X020557Y004585D02*
X020696Y004723D01*
X020771Y004904D01*
X020771Y005100D01*
X020696Y005281D01*
X020557Y005419D01*
X020376Y005494D01*
X020181Y005494D01*
X020000Y005419D01*
X019861Y005281D01*
X019786Y005100D01*
X019786Y004904D01*
X019861Y004723D01*
X020000Y004585D01*
X020181Y004510D01*
X020376Y004510D01*
X020557Y004585D01*
X020711Y004761D02*
X020846Y004761D01*
X020786Y004917D02*
X020771Y004917D01*
X020771Y005073D02*
X020786Y005073D01*
X020840Y005229D02*
X020717Y005229D01*
X020592Y005385D02*
X020965Y005385D01*
X021106Y005541D02*
X020451Y005541D01*
X020669Y005697D02*
X020888Y005697D01*
X020808Y005852D02*
X020749Y005852D01*
X020771Y006008D02*
X020786Y006008D01*
X020813Y006164D02*
X020744Y006164D01*
X020656Y006320D02*
X020901Y006320D01*
X021656Y006320D02*
X022901Y006320D01*
X022813Y006164D02*
X021744Y006164D01*
X021771Y006008D02*
X022786Y006008D01*
X022808Y005852D02*
X021749Y005852D01*
X021669Y005697D02*
X022888Y005697D01*
X023106Y005541D02*
X021451Y005541D01*
X021592Y005385D02*
X021965Y005385D01*
X022000Y005419D02*
X021861Y005281D01*
X021786Y005100D01*
X021786Y004904D01*
X021861Y004723D01*
X022000Y004585D01*
X022181Y004510D01*
X022376Y004510D01*
X022557Y004585D01*
X022696Y004723D01*
X022771Y004904D01*
X022771Y005100D01*
X022696Y005281D01*
X022557Y005419D01*
X022376Y005494D01*
X022181Y005494D01*
X022000Y005419D01*
X021840Y005229D02*
X021717Y005229D01*
X021771Y005073D02*
X021786Y005073D01*
X021771Y004917D02*
X021786Y004917D01*
X021846Y004761D02*
X021711Y004761D01*
X021577Y004605D02*
X021980Y004605D01*
X022073Y004499D02*
X021782Y004208D01*
X021782Y003796D01*
X022073Y003505D01*
X022484Y003505D01*
X022775Y003796D01*
X022775Y004208D01*
X022484Y004499D01*
X022073Y004499D01*
X022023Y004449D02*
X021534Y004449D01*
X021690Y004293D02*
X021867Y004293D01*
X021782Y004137D02*
X021775Y004137D01*
X021775Y003981D02*
X021782Y003981D01*
X021775Y003825D02*
X021782Y003825D01*
X021909Y003669D02*
X021648Y003669D01*
X021492Y003513D02*
X022065Y003513D01*
X021775Y003201D02*
X022782Y003201D01*
X022782Y003208D02*
X022782Y002796D01*
X023073Y002505D01*
X023484Y002505D01*
X023775Y002796D01*
X023775Y003208D01*
X023484Y003499D01*
X023073Y003499D01*
X022782Y003208D01*
X022782Y003045D02*
X021775Y003045D01*
X021775Y002889D02*
X022782Y002889D01*
X022845Y002733D02*
X021712Y002733D01*
X021556Y002577D02*
X023001Y002577D01*
X023556Y002577D02*
X024001Y002577D01*
X024073Y002505D02*
X024484Y002505D01*
X024775Y002796D01*
X024775Y003208D01*
X024484Y003499D01*
X024073Y003499D01*
X023782Y003208D01*
X023782Y002796D01*
X024073Y002505D01*
X023845Y002733D02*
X023712Y002733D01*
X023775Y002889D02*
X023782Y002889D01*
X023775Y003045D02*
X023782Y003045D01*
X023775Y003201D02*
X023782Y003201D01*
X023931Y003357D02*
X023626Y003357D01*
X023492Y003513D02*
X024065Y003513D01*
X024073Y003505D02*
X024484Y003505D01*
X024775Y003796D01*
X024775Y004208D01*
X024484Y004499D01*
X024073Y004499D01*
X023782Y004208D01*
X023782Y003796D01*
X024073Y003505D01*
X023909Y003669D02*
X023648Y003669D01*
X023775Y003825D02*
X023782Y003825D01*
X023775Y003981D02*
X023782Y003981D01*
X023775Y004137D02*
X023782Y004137D01*
X023867Y004293D02*
X023690Y004293D01*
X023574Y004449D02*
X024023Y004449D01*
X023980Y004605D02*
X023577Y004605D01*
X023711Y004761D02*
X023846Y004761D01*
X023786Y004917D02*
X023771Y004917D01*
X023771Y005073D02*
X023786Y005073D01*
X022965Y005385D02*
X022592Y005385D01*
X022717Y005229D02*
X022840Y005229D01*
X022786Y005073D02*
X022771Y005073D01*
X022771Y004917D02*
X022786Y004917D01*
X022846Y004761D02*
X022711Y004761D01*
X022577Y004605D02*
X022980Y004605D01*
X022983Y004449D02*
X022534Y004449D01*
X022690Y004293D02*
X022867Y004293D01*
X022782Y004137D02*
X022775Y004137D01*
X022775Y003981D02*
X022782Y003981D01*
X022775Y003825D02*
X022782Y003825D01*
X022909Y003669D02*
X022648Y003669D01*
X022492Y003513D02*
X023065Y003513D01*
X022931Y003357D02*
X021626Y003357D01*
X019909Y003669D02*
X018648Y003669D01*
X018775Y003825D02*
X019782Y003825D01*
X019782Y003981D02*
X018775Y003981D01*
X018775Y004137D02*
X019782Y004137D01*
X019867Y004293D02*
X018690Y004293D01*
X018534Y004449D02*
X020023Y004449D01*
X019980Y004605D02*
X019577Y004605D01*
X019557Y004585D02*
X019696Y004723D01*
X019771Y004904D01*
X019771Y005100D01*
X019696Y005281D01*
X019557Y005419D01*
X019376Y005494D01*
X019181Y005494D01*
X019000Y005419D01*
X018861Y005281D01*
X018786Y005100D01*
X018786Y004904D01*
X018861Y004723D01*
X019000Y004585D01*
X019181Y004510D01*
X019376Y004510D01*
X019557Y004585D01*
X019711Y004761D02*
X019846Y004761D01*
X019786Y004917D02*
X019771Y004917D01*
X019771Y005073D02*
X019786Y005073D01*
X019840Y005229D02*
X019717Y005229D01*
X019592Y005385D02*
X019965Y005385D01*
X020106Y005541D02*
X019451Y005541D01*
X019669Y005697D02*
X019888Y005697D01*
X019808Y005852D02*
X019749Y005852D01*
X019771Y006008D02*
X019786Y006008D01*
X019813Y006164D02*
X019744Y006164D01*
X019656Y006320D02*
X019901Y006320D01*
X018901Y006320D02*
X018656Y006320D01*
X018744Y006164D02*
X018813Y006164D01*
X018786Y006008D02*
X018771Y006008D01*
X018749Y005852D02*
X018808Y005852D01*
X018888Y005697D02*
X018669Y005697D01*
X018451Y005541D02*
X019106Y005541D01*
X018965Y005385D02*
X018592Y005385D01*
X018557Y005419D02*
X018696Y005281D01*
X018771Y005100D01*
X018771Y004904D01*
X018696Y004723D01*
X018557Y004585D01*
X018376Y004510D01*
X018181Y004510D01*
X018000Y004585D01*
X017861Y004723D01*
X017786Y004904D01*
X017786Y005100D01*
X017861Y005281D01*
X018000Y005419D01*
X018181Y005494D01*
X018376Y005494D01*
X018557Y005419D01*
X018717Y005229D02*
X018840Y005229D01*
X018786Y005073D02*
X018771Y005073D01*
X018771Y004917D02*
X018786Y004917D01*
X018846Y004761D02*
X018711Y004761D01*
X018577Y004605D02*
X018980Y004605D01*
X018023Y004449D02*
X017534Y004449D01*
X017577Y004605D02*
X017980Y004605D01*
X017846Y004761D02*
X017711Y004761D01*
X017771Y004917D02*
X017786Y004917D01*
X017771Y005073D02*
X017786Y005073D01*
X017840Y005229D02*
X017717Y005229D01*
X017592Y005385D02*
X017965Y005385D01*
X017867Y004293D02*
X017690Y004293D01*
X017775Y004137D02*
X017782Y004137D01*
X017775Y003981D02*
X017782Y003981D01*
X017775Y003825D02*
X017782Y003825D01*
X017909Y003669D02*
X017648Y003669D01*
X017492Y003513D02*
X018065Y003513D01*
X017931Y003357D02*
X016626Y003357D01*
X016065Y003513D02*
X015492Y003513D01*
X015648Y003669D02*
X015909Y003669D01*
X015782Y003825D02*
X015775Y003825D01*
X015775Y003981D02*
X015782Y003981D01*
X015775Y004137D02*
X015782Y004137D01*
X015867Y004293D02*
X015690Y004293D01*
X015534Y004449D02*
X016023Y004449D01*
X015980Y004605D02*
X015577Y004605D01*
X015711Y004761D02*
X015846Y004761D01*
X015786Y004917D02*
X015771Y004917D01*
X015771Y005073D02*
X015786Y005073D01*
X015840Y005229D02*
X015717Y005229D01*
X015592Y005385D02*
X015965Y005385D01*
X016106Y005541D02*
X014451Y005541D01*
X012867Y004293D02*
X009200Y004293D01*
X009200Y004137D02*
X012782Y004137D01*
X012782Y003981D02*
X009200Y003981D01*
X009200Y003825D02*
X012782Y003825D01*
X012909Y003669D02*
X009200Y003669D01*
X009200Y003513D02*
X013065Y003513D01*
X012931Y003357D02*
X012626Y003357D01*
X012484Y003499D02*
X012775Y003208D01*
X012775Y002796D01*
X012484Y002505D01*
X012073Y002505D01*
X011782Y002796D01*
X011782Y003208D01*
X012073Y003499D01*
X012484Y003499D01*
X012775Y003201D02*
X012782Y003201D01*
X012775Y003045D02*
X012782Y003045D01*
X012775Y002889D02*
X012782Y002889D01*
X012845Y002733D02*
X012712Y002733D01*
X012556Y002577D02*
X013001Y002577D01*
X012001Y002577D02*
X009546Y002577D01*
X009402Y002733D02*
X011845Y002733D01*
X011782Y002889D02*
X009298Y002889D01*
X009247Y003045D02*
X011782Y003045D01*
X011782Y003201D02*
X009208Y003201D01*
X009200Y003357D02*
X011931Y003357D01*
X009802Y002421D02*
X033755Y002421D01*
X034011Y002577D02*
X031556Y002577D01*
X031712Y002733D02*
X034155Y002733D01*
X034259Y002889D02*
X031775Y002889D01*
X031001Y002577D02*
X030556Y002577D01*
X030001Y002577D02*
X028556Y002577D01*
X028484Y002505D02*
X028775Y002796D01*
X028775Y003208D01*
X028484Y003499D01*
X028073Y003499D01*
X027782Y003208D01*
X027782Y002796D01*
X028073Y002505D01*
X028484Y002505D01*
X028712Y002733D02*
X029845Y002733D01*
X029782Y002889D02*
X028775Y002889D01*
X028775Y003045D02*
X029782Y003045D01*
X029782Y003201D02*
X028775Y003201D01*
X028626Y003357D02*
X029931Y003357D01*
X030065Y003513D02*
X029492Y003513D01*
X029648Y003669D02*
X029909Y003669D01*
X029782Y003825D02*
X029775Y003825D01*
X029775Y003981D02*
X029782Y003981D01*
X029775Y004137D02*
X029782Y004137D01*
X029867Y004293D02*
X029690Y004293D01*
X029594Y004449D02*
X029964Y004449D01*
X029827Y004605D02*
X029594Y004605D01*
X029559Y004761D02*
X029671Y004761D01*
X029612Y004820D02*
X029612Y004820D01*
X029520Y004917D02*
X029421Y004917D01*
X029475Y005073D02*
X029265Y005073D01*
X029110Y005229D02*
X029475Y005229D01*
X029475Y005385D02*
X029042Y005385D01*
X029042Y005541D02*
X029475Y005541D01*
X029475Y005697D02*
X029042Y005697D01*
X029121Y005852D02*
X029397Y005852D01*
X029397Y006008D02*
X029121Y006008D01*
X029121Y006164D02*
X029397Y006164D01*
X029397Y006320D02*
X024656Y006320D01*
X024744Y006164D02*
X028130Y006164D01*
X028396Y005541D02*
X028412Y005541D01*
X028412Y005385D02*
X028218Y005385D01*
X028412Y005229D02*
X026649Y005229D01*
X026371Y005852D02*
X024749Y005852D01*
X024771Y006008D02*
X026544Y006008D01*
X025771Y005073D02*
X028425Y005073D01*
X028531Y004917D02*
X025771Y004917D01*
X025711Y004761D02*
X028687Y004761D01*
X028843Y004605D02*
X025577Y004605D01*
X025484Y004499D02*
X025073Y004499D01*
X024782Y004208D01*
X024782Y003796D01*
X025073Y003505D01*
X025484Y003505D01*
X025775Y003796D01*
X025775Y004208D01*
X025484Y004499D01*
X025534Y004449D02*
X026023Y004449D01*
X026073Y004499D02*
X025782Y004208D01*
X025782Y003796D01*
X026073Y003505D01*
X026484Y003505D01*
X026775Y003796D01*
X026775Y004208D01*
X026484Y004499D01*
X026073Y004499D01*
X025867Y004293D02*
X025690Y004293D01*
X025775Y004137D02*
X025782Y004137D01*
X025775Y003981D02*
X025782Y003981D01*
X025775Y003825D02*
X025782Y003825D01*
X025909Y003669D02*
X025648Y003669D01*
X025492Y003513D02*
X026065Y003513D01*
X026073Y003499D02*
X025782Y003208D01*
X025782Y002796D01*
X026073Y002505D01*
X026484Y002505D01*
X026775Y002796D01*
X026775Y003208D01*
X026484Y003499D01*
X026073Y003499D01*
X025931Y003357D02*
X024626Y003357D01*
X024492Y003513D02*
X025065Y003513D01*
X024909Y003669D02*
X024648Y003669D01*
X024775Y003825D02*
X024782Y003825D01*
X024775Y003981D02*
X024782Y003981D01*
X024775Y004137D02*
X024782Y004137D01*
X024867Y004293D02*
X024690Y004293D01*
X024534Y004449D02*
X025023Y004449D01*
X024980Y004605D02*
X024577Y004605D01*
X024711Y004761D02*
X024846Y004761D01*
X024786Y004917D02*
X024771Y004917D01*
X024771Y005073D02*
X024786Y005073D01*
X023808Y005852D02*
X023749Y005852D01*
X023771Y006008D02*
X023786Y006008D01*
X023813Y006164D02*
X023744Y006164D01*
X023656Y006320D02*
X023901Y006320D01*
X026534Y004449D02*
X028023Y004449D01*
X028073Y004499D02*
X027782Y004208D01*
X027782Y003796D01*
X028073Y003505D01*
X028484Y003505D01*
X028775Y003796D01*
X028775Y004208D01*
X028484Y004499D01*
X028073Y004499D01*
X027867Y004293D02*
X026690Y004293D01*
X026775Y004137D02*
X027782Y004137D01*
X027782Y003981D02*
X026775Y003981D01*
X026775Y003825D02*
X027782Y003825D01*
X027909Y003669D02*
X026648Y003669D01*
X026492Y003513D02*
X028065Y003513D01*
X027931Y003357D02*
X027626Y003357D01*
X027484Y003499D02*
X027073Y003499D01*
X026782Y003208D01*
X026782Y002796D01*
X027073Y002505D01*
X027484Y002505D01*
X027775Y002796D01*
X027775Y003208D01*
X027484Y003499D01*
X027775Y003201D02*
X027782Y003201D01*
X027775Y003045D02*
X027782Y003045D01*
X027775Y002889D02*
X027782Y002889D01*
X027845Y002733D02*
X027712Y002733D01*
X027556Y002577D02*
X028001Y002577D01*
X027001Y002577D02*
X026556Y002577D01*
X026712Y002733D02*
X026845Y002733D01*
X026782Y002889D02*
X026775Y002889D01*
X026775Y003045D02*
X026782Y003045D01*
X026775Y003201D02*
X026782Y003201D01*
X026931Y003357D02*
X026626Y003357D01*
X025782Y003201D02*
X024775Y003201D01*
X024775Y003045D02*
X025782Y003045D01*
X025782Y002889D02*
X024775Y002889D01*
X024712Y002733D02*
X025845Y002733D01*
X026001Y002577D02*
X024556Y002577D01*
X028492Y003513D02*
X029065Y003513D01*
X028909Y003669D02*
X028648Y003669D01*
X028775Y003825D02*
X028782Y003825D01*
X028775Y003981D02*
X028782Y003981D01*
X028775Y004137D02*
X028782Y004137D01*
X028867Y004293D02*
X028690Y004293D01*
X028534Y004449D02*
X028964Y004449D01*
X030594Y004449D02*
X030964Y004449D01*
X030964Y004605D02*
X030730Y004605D01*
X030886Y004761D02*
X030989Y004761D01*
X030867Y004293D02*
X030690Y004293D01*
X030775Y004137D02*
X030782Y004137D01*
X030775Y003981D02*
X030782Y003981D01*
X030775Y003825D02*
X030782Y003825D01*
X030909Y003669D02*
X030648Y003669D01*
X030492Y003513D02*
X031065Y003513D01*
X030931Y003357D02*
X030626Y003357D01*
X029397Y006476D02*
X029057Y006476D01*
X029042Y007256D02*
X030659Y007256D01*
X030578Y007412D02*
X029121Y007412D01*
X029121Y007568D02*
X030578Y007568D01*
X030578Y007724D02*
X029121Y007724D01*
X029121Y007880D02*
X030578Y007880D01*
X030680Y008036D02*
X029042Y008036D01*
X029042Y008192D02*
X032231Y008192D01*
X032231Y008036D02*
X032168Y008036D01*
X031586Y008036D02*
X031263Y008036D01*
X031483Y008348D02*
X029141Y008348D01*
X029141Y008504D02*
X031483Y008504D01*
X031483Y008660D02*
X029141Y008660D01*
X029141Y008816D02*
X031483Y008816D01*
X031537Y008972D02*
X029067Y008972D01*
X028388Y008972D02*
X027817Y008972D01*
X027661Y008816D02*
X028314Y008816D01*
X028314Y008660D02*
X027505Y008660D01*
X027468Y008504D02*
X028314Y008504D01*
X028314Y008348D02*
X027468Y008348D01*
X027468Y008192D02*
X028412Y008192D01*
X028412Y008036D02*
X028113Y008036D01*
X027531Y008036D02*
X027468Y008036D01*
X027973Y009128D02*
X031455Y009128D01*
X031299Y009284D02*
X028129Y009284D01*
X027455Y010376D02*
X025486Y010376D01*
X025519Y010532D02*
X027299Y010532D01*
X024370Y010376D02*
X024305Y010376D01*
X024338Y010409D02*
X024338Y011950D01*
X024338Y010409D01*
X024338Y010532D02*
X024338Y010532D01*
X024338Y010688D02*
X024338Y010688D01*
X024338Y010844D02*
X024338Y010844D01*
X024338Y011000D02*
X024338Y011000D01*
X024338Y011156D02*
X024338Y011156D01*
X024338Y011312D02*
X024338Y011312D01*
X024338Y011468D02*
X024338Y011468D01*
X024338Y011624D02*
X024338Y011624D01*
X024338Y011780D02*
X024338Y011780D01*
X024338Y011936D02*
X024338Y011936D01*
X024338Y011950D02*
X024453Y012065D01*
X024338Y012180D01*
X024338Y013629D01*
X024338Y013629D01*
X024338Y012180D01*
X024222Y012065D01*
X023747Y012065D01*
X023747Y012065D01*
X024222Y012065D01*
X024338Y011950D01*
X024249Y012092D02*
X024426Y012092D01*
X024338Y012248D02*
X024338Y012248D01*
X024338Y012404D02*
X024338Y012404D01*
X024338Y012560D02*
X024338Y012560D01*
X024338Y012716D02*
X024338Y012716D01*
X024338Y012872D02*
X024338Y012872D01*
X024338Y013028D02*
X024338Y013028D01*
X024338Y013184D02*
X024338Y013184D01*
X024338Y013340D02*
X024338Y013340D01*
X024338Y013496D02*
X024338Y013496D01*
X022566Y014431D02*
X010252Y014431D01*
X010381Y014587D02*
X022456Y014587D01*
X022300Y014743D02*
X010446Y014743D01*
X010452Y014899D02*
X022144Y014899D01*
X022566Y012065D02*
X022566Y012065D01*
X017500Y008816D02*
X015661Y008816D01*
X015661Y008660D02*
X017500Y008660D01*
X017500Y008504D02*
X015661Y008504D01*
X015572Y008348D02*
X017590Y008348D01*
X014125Y011624D02*
X013648Y011624D01*
X013727Y011780D02*
X014158Y011780D01*
X014087Y011936D02*
X013727Y011936D01*
X013727Y012092D02*
X014087Y012092D01*
X014087Y012248D02*
X013727Y012248D01*
X013646Y012404D02*
X014087Y012404D01*
X014159Y012560D02*
X013727Y012560D01*
X013779Y012716D02*
X014124Y012716D01*
X014102Y013652D02*
X014043Y013652D01*
X014258Y013807D02*
X013631Y013807D01*
X009253Y007256D02*
X009200Y007256D01*
X031284Y007256D02*
X031565Y007256D01*
X032189Y007256D02*
X032234Y007256D01*
X032192Y009128D02*
X032231Y009128D01*
X032231Y009284D02*
X032163Y009284D01*
X032231Y009440D02*
X032034Y009440D01*
X031878Y009596D02*
X032231Y009596D01*
X032231Y009752D02*
X031722Y009752D01*
X031566Y009908D02*
X032231Y009908D01*
D36*
X031916Y009998D03*
X031227Y008620D03*
X029918Y008620D03*
X027487Y009998D03*
X025814Y010195D03*
X025027Y009998D03*
X024534Y009998D03*
X024042Y009998D03*
X022664Y008029D03*
X022172Y008029D03*
X021680Y008029D03*
X021680Y007537D03*
X022172Y007537D03*
X022664Y007537D03*
X021483Y009900D03*
X020401Y012262D03*
X020401Y013443D03*
X020401Y013935D03*
X020893Y013935D03*
X021385Y013935D03*
X021385Y013443D03*
X020893Y013443D03*
X022271Y014329D03*
X021680Y016789D03*
X018727Y014033D03*
X016857Y015018D03*
X016365Y015018D03*
X014298Y014919D03*
X013905Y014230D03*
X013412Y014230D03*
X012920Y014230D03*
X012527Y012951D03*
X011838Y011770D03*
X013289Y010761D03*
X013412Y009777D03*
X014397Y008029D03*
X014889Y008029D03*
X016365Y008128D03*
X016857Y008128D03*
X013412Y007045D03*
X012920Y007045D03*
X025814Y007537D03*
X027979Y006652D03*
X026700Y005667D03*
X031424Y006652D03*
X031916Y006652D03*
X031818Y005667D03*
X034082Y008620D03*
X034082Y012360D03*
X031916Y013246D03*
X031031Y013443D03*
X030538Y013443D03*
X030538Y012951D03*
X031031Y012951D03*
X028865Y013541D03*
X028373Y013541D03*
X026601Y012065D03*
X028373Y011671D03*
X030538Y015313D03*
X031031Y015313D03*
X031031Y015805D03*
X030538Y015805D03*
X030538Y016297D03*
X030538Y016789D03*
X030538Y017281D03*
X030538Y017970D03*
X031031Y017970D03*
X031523Y018266D03*
X032015Y018266D03*
X034082Y019840D03*
X030342Y021612D03*
X027881Y023581D03*
X025420Y022793D03*
X023058Y022793D03*
X022566Y022793D03*
X022960Y023581D03*
X020597Y022793D03*
X018235Y023581D03*
X015873Y022892D03*
X013117Y023581D03*
X012034Y020923D03*
X014889Y020825D03*
X018727Y020825D03*
X021680Y020825D03*
X013412Y016912D03*
X011838Y017872D03*
X034082Y016297D03*
D37*
X027153Y005667D02*
X026700Y005667D01*
X026532Y005500D01*
X023777Y005500D01*
X023279Y005002D01*
X023279Y004002D01*
X026779Y003502D02*
X019779Y003502D01*
X019279Y004002D01*
X018779Y003502D01*
X012779Y003502D01*
X012279Y004002D01*
X014889Y010023D02*
X014874Y010037D01*
X026779Y003502D02*
X027279Y004002D01*
D38*
X026103Y014351D02*
X026103Y014963D01*
X026261Y015120D01*
X026261Y015601D01*
X026331Y015671D01*
X026331Y015805D01*
X026085Y016051D01*
X025839Y016051D01*
X025562Y016328D01*
X025562Y016867D01*
X027363Y015976D02*
X027363Y015601D01*
X027363Y015976D02*
X027684Y016297D01*
X027684Y016789D01*
X027984Y016789D01*
X028062Y016867D01*
D39*
X026872Y020972D03*
X031941Y020972D03*
M02*
