G75*
%MOIN*%
%OFA0B0*%
%FSLAX24Y24*%
%IPPOS*%
%LPD*%
%AMOC8*
5,1,8,0,0,1.08239X$1,22.5*
%
%ADD10C,0.0039*%
D10*
X008983Y003305D02*
X008983Y022990D01*
X008985Y023056D01*
X008990Y023122D01*
X009000Y023188D01*
X009013Y023253D01*
X009029Y023317D01*
X009049Y023380D01*
X009073Y023442D01*
X009100Y023502D01*
X009130Y023561D01*
X009164Y023618D01*
X009201Y023673D01*
X009241Y023726D01*
X009283Y023777D01*
X009329Y023825D01*
X009377Y023871D01*
X009428Y023913D01*
X009481Y023953D01*
X009536Y023990D01*
X009593Y024024D01*
X009652Y024054D01*
X009712Y024081D01*
X009774Y024105D01*
X009837Y024125D01*
X009901Y024141D01*
X009966Y024154D01*
X010032Y024164D01*
X010098Y024169D01*
X010164Y024171D01*
X033393Y024171D01*
X033459Y024169D01*
X033525Y024164D01*
X033591Y024154D01*
X033656Y024141D01*
X033720Y024125D01*
X033783Y024105D01*
X033845Y024081D01*
X033905Y024054D01*
X033964Y024024D01*
X034021Y023990D01*
X034076Y023953D01*
X034129Y023913D01*
X034180Y023871D01*
X034228Y023825D01*
X034274Y023777D01*
X034316Y023726D01*
X034356Y023673D01*
X034393Y023618D01*
X034427Y023561D01*
X034457Y023502D01*
X034484Y023442D01*
X034508Y023380D01*
X034528Y023317D01*
X034544Y023253D01*
X034557Y023188D01*
X034567Y023122D01*
X034572Y023056D01*
X034574Y022990D01*
X034574Y003305D01*
X034572Y003239D01*
X034567Y003173D01*
X034557Y003107D01*
X034544Y003042D01*
X034528Y002978D01*
X034508Y002915D01*
X034484Y002853D01*
X034457Y002793D01*
X034427Y002734D01*
X034393Y002677D01*
X034356Y002622D01*
X034316Y002569D01*
X034274Y002518D01*
X034228Y002470D01*
X034180Y002424D01*
X034129Y002382D01*
X034076Y002342D01*
X034021Y002305D01*
X033964Y002271D01*
X033905Y002241D01*
X033845Y002214D01*
X033783Y002190D01*
X033720Y002170D01*
X033656Y002154D01*
X033591Y002141D01*
X033525Y002131D01*
X033459Y002126D01*
X033393Y002124D01*
X010164Y002124D01*
X010098Y002126D01*
X010032Y002131D01*
X009966Y002141D01*
X009901Y002154D01*
X009837Y002170D01*
X009774Y002190D01*
X009712Y002214D01*
X009652Y002241D01*
X009593Y002271D01*
X009536Y002305D01*
X009481Y002342D01*
X009428Y002382D01*
X009377Y002424D01*
X009329Y002470D01*
X009283Y002518D01*
X009241Y002569D01*
X009201Y002622D01*
X009164Y002677D01*
X009130Y002734D01*
X009100Y002793D01*
X009073Y002853D01*
X009049Y002915D01*
X009029Y002978D01*
X009013Y003042D01*
X009000Y003107D01*
X008990Y003173D01*
X008985Y003239D01*
X008983Y003305D01*
M02*
